999
dxfrw 0.6.3
  0
SECTION
  2
HEADER
  9
$ACADVER
  1
AC1021
  9
$DWGCODEPAGE
  3
ANSI_1252
  9
$INSBASE
 10
0
 20
0
 30
0
  9
$EXTMIN
 10
-189.999
 20
-379.999
 30
0
  9
$EXTMAX
 10
189.999
 20
0
 30
0
  9
$LIMMIN
 10
0
 20
0
  9
$LIMMAX
 10
420
 20
297
  9
$ORTHOMODE
 70
    0
  9
$REGENMODE
 70
    1
  9
$FILLMODE
 70
    1
  9
$QTEXTMODE
 70
    0
  9
$MIRRTEXT
 70
    0
  9
$LTSCALE
 40
1
  9
$ATTMODE
 70
    0
  9
$TEXTSIZE
 40
2.5
  9
$TRACEWID
 40
15.68
  9
$TEXTSTYLE
  7
STANDARD
  9
$CLAYER
  8
0
  9
$CELTYPE
  6
BYLAYER
  9
$CECOLOR
 62
  256
  9
$CELTSCALE
 40
1
  9
$DISPSILH
 70
    0
  9
$DIMSCALE
 40
2.5
  9
$DIMASZ
 40
0.1
  9
$DIMEXO
 40
0.025
  9
$DIMDLI
 40
3.75
  9
$DIMRND
 40
0
  9
$DIMDLE
 40
0
  9
$DIMEXE
 40
0.05
  9
$DIMTP
 40
0
  9
$DIMTM
 40
0
  9
$DIMTXT
 40
0.1
  9
$DIMCEN
 40
2.5
  9
$DIMTSZ
 40
0
  9
$DIMTOL
 70
    0
  9
$DIMLIM
 70
    0
  9
$DIMTIH
 70
    0
  9
$DIMTOH
 70
    0
  9
$DIMSE1
 70
    0
  9
$DIMSE2
 70
    0
  9
$DIMTAD
 70
    1
  9
$DIMZIN
 70
    8
  9
$DIMBLK
  1

  9
$DIMASO
 70
    1
  9
$DIMSHO
 70
    1
  9
$DIMPOST
  1

  9
$DIMAPOST
  1

  9
$DIMALT
 70
    0
  9
$DIMALTD
 70
    3
  9
$DIMALTF
 40
0.03937
  9
$DIMLFAC
 40
1
  9
$DIMTOFL
 70
    1
  9
$DIMTVP
 40
0
  9
$DIMTIX
 70
    0
  9
$DIMSOXD
 70
    0
  9
$DIMSAH
 70
    0
  9
$DIMBLK1
  1

  9
$DIMBLK2
  1

  9
$DIMSTYLE
  2
Standard
  9
$DIMCLRD
 70
    0
  9
$DIMCLRE
 70
    0
  9
$DIMCLRT
 70
    0
  9
$DIMTFAC
 40
1
  9
$DIMGAP
 40
0.025
  9
$DIMJUST
 70
    0
  9
$DIMSD1
 70
    0
  9
$DIMSD2
 70
    0
  9
$DIMTOLJ
 70
    0
  9
$DIMTZIN
 70
    8
  9
$DIMALTZ
 70
    0
  9
$DIMALTTZ
 70
    0
  9
$DIMUPT
 70
    0
  9
$DIMDEC
 70
    2
  9
$DIMTDEC
 70
    2
  9
$DIMALTU
 70
    2
  9
$DIMALTTD
 70
    3
  9
$DIMTXSTY
  7
STANDARD
  9
$DIMAUNIT
 70
    0
  9
$DIMADEC
 70
    0
  9
$DIMALTRND
 40
0
  9
$DIMAZIN
 70
    0
  9
$DIMDSEP
 70
   44
  9
$DIMATFIT
 70
    3
  9
$DIMFRAC
 70
    0
  9
$DIMLDRBLK
  1
STANDARD
  9
$DIMLUNIT
 70
    2
  9
$DIMLWD
 70
   -2
  9
$DIMLWE
 70
   -2
  9
$DIMTMOVE
 70
    0
  9
$DIMFXL
 40
1
  9
$DIMFXLON
 70
    0
  9
$DIMJOGANG
 40
0.7854
  9
$DIMTFILL
 70
    0
  9
$DIMTFILLCLR
 70
    0
  9
$DIMARCSYM
 70
    0
  9
$DIMLTYPE
  6

  9
$DIMLTEX1
  6

  9
$DIMLTEX2
  6

  9
$LUNITS
 70
    2
  9
$LUPREC
 70
    4
  9
$SKETCHINC
 40
1
  9
$FILLETRAD
 40
0
  9
$AUNITS
 70
    0
  9
$AUPREC
 70
    2
  9
$MENU
  1
.
  9
$ELEVATION
 40
0
  9
$PELEVATION
 40
0
  9
$THICKNESS
 40
0
  9
$LIMCHECK
 70
    0
  9
$CHAMFERA
 40
0
  9
$CHAMFERB
 40
0
  9
$CHAMFERC
 40
0
  9
$CHAMFERD
 40
0
  9
$SKPOLY
 70
    0
  9
$USRTIMER
 70
    1
  9
$ANGBASE
 50
0
  9
$ANGDIR
 70
    0
  9
$PDMODE
 70
   34
  9
$PDSIZE
 40
0
  9
$PLINEWID
 40
0
  9
$SPLFRAME
 70
    0
  9
$SPLINETYPE
 70
    2
  9
$SPLINESEGS
 70
    8
  9
$HANDSEED
  5
20000
  9
$SURFTAB1
 70
    6
  9
$SURFTAB2
 70
    6
  9
$SURFTYPE
 70
    6
  9
$SURFU
 70
    6
  9
$SURFV
 70
    6
  9
$UCSBASE
  2

  9
$UCSNAME
  2

  9
$UCSORG
 10
0
 20
0
 30
0
  9
$UCSXDIR
 10
1
 20
0
 30
0
  9
$UCSYDIR
 10
0
 20
1
 30
0
  9
$UCSORTHOREF
  2

  9
$UCSORTHOVIEW
 70
    0
  9
$UCSORGTOP
 10
0
 20
0
 30
0
  9
$UCSORGBOTTOM
 10
0
 20
0
 30
0
  9
$UCSORGLEFT
 10
0
 20
0
 30
0
  9
$UCSORGRIGHT
 10
0
 20
0
 30
0
  9
$UCSORGFRONT
 10
0
 20
0
 30
0
  9
$UCSORGBACK
 10
0
 20
0
 30
0
  9
$PUCSBASE
  2

  9
$PUCSNAME
  2

  9
$PUCSORG
 10
0
 20
0
 30
0
  9
$PUCSXDIR
 10
1
 20
0
 30
0
  9
$PUCSYDIR
 10
0
 20
1
 30
0
  9
$PUCSORTHOREF
  2

  9
$PUCSORTHOVIEW
 70
    0
  9
$PUCSORGTOP
 10
0
 20
0
 30
0
  9
$PUCSORGBOTTOM
 10
0
 20
0
 30
0
  9
$PUCSORGLEFT
 10
0
 20
0
 30
0
  9
$PUCSORGRIGHT
 10
0
 20
0
 30
0
  9
$PUCSORGFRONT
 10
0
 20
0
 30
0
  9
$PUCSORGBACK
 10
0
 20
0
 30
0
  9
$USERI1
 70
    0
  9
$USERI2
 70
    0
  9
$USERI3
 70
    0
  9
$USERI4
 70
    0
  9
$USERI5
 70
    0
  9
$USERR1
 40
0
  9
$USERR2
 40
0
  9
$USERR3
 40
0
  9
$USERR4
 40
0
  9
$USERR5
 40
0
  9
$WORLDVIEW
 70
    1
  9
$SHADEDGE
 70
    3
  9
$SHADEDIF
 70
   70
  9
$TILEMODE
 70
    1
  9
$MAXACTVP
 70
   64
  9
$PINSBASE
 10
0
 20
0
 30
0
  9
$PLIMCHECK
 70
    0
  9
$PEXTMIN
 10
0
 20
0
 30
0
  9
$PEXTMAX
 10
0
 20
0
 30
0
  9
$SNAPSTYLE
 70
    0
  9
$PLIMMIN
 10
0
 20
0
  9
$PLIMMAX
 10
0.01281498625989378
 20
0.01812405199613555
  9
$UNITMODE
 70
    0
  9
$VISRETAIN
 70
    1
  9
$PLINEGEN
 70
    0
  9
$PSLTSCALE
 70
    1
  9
$TREEDEPTH
 70
 3020
  9
$CMLSTYLE
  2
Standard
  9
$CMLJUST
 70
    0
  9
$CMLSCALE
 40
20
  9
$PROXYGRAPHICS
 70
    1
  9
$MEASUREMENT
 70
    1
  9
$CELWEIGHT
370
   -1
  9
$ENDCAPS
280
    0
  9
$JOINSTYLE
280
    0
  9
$LWDISPLAY
290
    0
  9
$INSUNITS
 70
    1
  9
$HYPERLINKBASE
  1

  9
$STYLESHEET
  1

  9
$XEDIT
290
    1
  9
$CEPSNTYPE
380
    0
  9
$PSTYLEMODE
290
    1
  9
$EXTNAMES
290
    1
  9
$PSVPSCALE
 40
1
  9
$OLESTARTUP
290
    0
  9
$SORTENTS
280
  127
  9
$INDEXCTL
280
    0
  9
$HIDETEXT
280
    1
  9
$XCLIPFRAME
290
    0
  9
$HALOGAP
280
    0
  9
$OBSCOLOR
 70
  257
  9
$OBSLTYPE
280
    0
  9
$INTERSECTIONDISPLAY
280
    0
  9
$INTERSECTIONCOLOR
 70
  257
  9
$DIMASSOC
280
    1
  9
$PROJECTNAME
  1

  9
$CAMERADISPLAY
290
    0
  9
$LENSLENGTH
 40
50
  9
$CAMERAHEIGHT
 40
0
  9
$STEPSPERSEC
 40
2
  9
$STEPSIZE
 40
50
  9
$3DDWFPREC
 40
2
  9
$PSOLWIDTH
 40
5
  9
$PSOLHEIGHT
 40
80
  9
$LOFTANG1
 40
1.570796326794897
  9
$LOFTANG2
 40
1.570796326794897
  9
$LOFTMAG1
 40
0
  9
$LOFTMAG2
 40
0
  9
$LOFTPARAM
 70
    7
  9
$LOFTNORMALS
280
    1
  9
$LATITUDE
 40
1
  9
$LONGITUDE
 40
1
  9
$NORTHDIRECTION
 40
0
  9
$TIMEZONE
 70
-8000
  9
$LIGHTGLYPHDISPLAY
280
    1
  9
$TILEMODELIGHTSYNCH
280
    1
  9
$SOLIDHIST
280
    1
  9
$SHOWHIST
280
    1
  9
$DWFFRAME
280
    2
  9
$DGNFRAME
280
    0
  9
$REALWORLDSCALE
290
    1
  9
$INTERFERECOLOR
 62
    1
  9
$CSHADOW
280
    0
  9
$SHADOWPLANELOCATION
 40
0
  0
ENDSEC
  0
SECTION
  2
CLASSES
  0
ENDSEC
  0
SECTION
  2
TABLES
  0
TABLE
  2
VPORT
  5
8
330
0
100
AcDbSymbolTable
 70
    1
  0
VPORT
  5
31
330
2
100
AcDbSymbolTableRecord
100
AcDbViewportTableRecord
  2
*ACTIVE
 70
    0
 10
0
 20
0
 11
1
 21
1
 12
309.25
 22
135.25
 13
0
 23
0
 14
10
 24
10
 15
10
 25
10
 16
0
 26
0
 36
1
 17
0
 27
0
 37
0
 40
283
 41
2.229681978798586
 42
50
 43
0
 44
0
 50
0
 51
0
 71
    0
 72
  100
 73
    1
 74
    3
 75
    0
 76
    1
 77
    0
 78
    0
281
    0
 65
    1
110
0
120
0
130
0
111
1
121
0
131
0
112
0
122
1
132
0
 79
    0
146
0
348
10020
 60
    7
 61
    5
292
1
282
    1
141
0
142
0
 63
  250
421
3358443
  0
ENDTAB
  0
TABLE
  2
LTYPE
  5
5
330
0
100
AcDbSymbolTable
 70
    4
  0
LTYPE
  5
14
330
5
100
AcDbSymbolTableRecord
100
AcDbLinetypeTableRecord
  2
ByBlock
 70
    0
  3

 72
   65
 73
    0
 40
0
  0
LTYPE
  5
15
330
5
100
AcDbSymbolTableRecord
100
AcDbLinetypeTableRecord
  2
ByLayer
 70
    0
  3

 72
   65
 73
    0
 40
0
  0
LTYPE
  5
16
330
5
100
AcDbSymbolTableRecord
100
AcDbLinetypeTableRecord
  2
Continuous
 70
    0
  3
Solid line
 72
   65
 73
    0
 40
0
  0
LTYPE
  5
32
330
5
100
AcDbSymbolTableRecord
100
AcDbLinetypeTableRecord
  2
DOT
 70
    0
  3
Dot . . . . . . . . . . . . . . . . . . . . . .
 72
   65
 73
    2
 40
6.35
 49
0
 74
    0
 49
-6.35
 74
    0
  0
LTYPE
  5
33
330
5
100
AcDbSymbolTableRecord
100
AcDbLinetypeTableRecord
  2
DOTTINY
 70
    0
  3
Dot (.15x) .....................................
 72
   65
 73
    2
 40
0.9525
 49
0
 74
    0
 49
-0.9525
 74
    0
  0
LTYPE
  5
34
330
5
100
AcDbSymbolTableRecord
100
AcDbLinetypeTableRecord
  2
DOT2
 70
    0
  3
Dot (.5x) .....................................
 72
   65
 73
    2
 40
3.175
 49
0
 74
    0
 49
-3.175
 74
    0
  0
LTYPE
  5
35
330
5
100
AcDbSymbolTableRecord
100
AcDbLinetypeTableRecord
  2
DOTX2
 70
    0
  3
Dot (2x) .  .  .  .  .  .  .  .  .  .  .  .  .
 72
   65
 73
    2
 40
12.7
 49
0
 74
    0
 49
-12.7
 74
    0
  0
LTYPE
  5
36
330
5
100
AcDbSymbolTableRecord
100
AcDbLinetypeTableRecord
  2
DASHED
 70
    0
  3
Dashed _ _ _ _ _ _ _ _ _ _ _ _ _ _ _ _ _
 72
   65
 73
    2
 40
19.05
 49
12.7
 74
    0
 49
-6.35
 74
    0
  0
LTYPE
  5
37
330
5
100
AcDbSymbolTableRecord
100
AcDbLinetypeTableRecord
  2
DASHEDTINY
 70
    0
  3
Dashed (.15x) _ _ _ _ _ _ _ _ _ _ _ _ _ _ _ _ _
 72
   65
 73
    2
 40
2.8575
 49
1.905
 74
    0
 49
-0.9525
 74
    0
  0
LTYPE
  5
38
330
5
100
AcDbSymbolTableRecord
100
AcDbLinetypeTableRecord
  2
DASHED2
 70
    0
  3
Dashed (.5x) _ _ _ _ _ _ _ _ _ _ _ _ _ _ _ _ _
 72
   65
 73
    2
 40
9.524999999999999
 49
6.35
 74
    0
 49
-3.175
 74
    0
  0
LTYPE
  5
39
330
5
100
AcDbSymbolTableRecord
100
AcDbLinetypeTableRecord
  2
DASHEDX2
 70
    0
  3
Dashed (2x) ____  ____  ____  ____  ____  ___
 72
   65
 73
    2
 40
38.09999999999999
 49
25.4
 74
    0
 49
-12.7
 74
    0
  0
LTYPE
  5
3A
330
5
100
AcDbSymbolTableRecord
100
AcDbLinetypeTableRecord
  2
DASHDOT
 70
    0
  3
Dash dot __ . __ . __ . __ . __ . __ . __ . __
 72
   65
 73
    4
 40
25.4
 49
12.7
 74
    0
 49
-6.35
 74
    0
 49
0
 74
    0
 49
-6.35
 74
    0
  0
LTYPE
  5
3B
330
5
100
AcDbSymbolTableRecord
100
AcDbLinetypeTableRecord
  2
DASHDOTTINY
 70
    0
  3
Dash dot (.15x) _._._._._._._._._._._._._._._.
 72
   65
 73
    4
 40
3.81
 49
1.905
 74
    0
 49
-0.9525
 74
    0
 49
0
 74
    0
 49
-0.9525
 74
    0
  0
LTYPE
  5
3C
330
5
100
AcDbSymbolTableRecord
100
AcDbLinetypeTableRecord
  2
DASHDOT2
 70
    0
  3
Dash dot (.5x) _._._._._._._._._._._._._._._.
 72
   65
 73
    4
 40
12.7
 49
6.35
 74
    0
 49
-3.175
 74
    0
 49
0
 74
    0
 49
-3.175
 74
    0
  0
LTYPE
  5
3D
330
5
100
AcDbSymbolTableRecord
100
AcDbLinetypeTableRecord
  2
DASHDOTX2
 70
    0
  3
Dash dot (2x) ____  .  ____  .  ____  .  ___
 72
   65
 73
    4
 40
50.8
 49
25.4
 74
    0
 49
-12.7
 74
    0
 49
0
 74
    0
 49
-12.7
 74
    0
  0
LTYPE
  5
3E
330
5
100
AcDbSymbolTableRecord
100
AcDbLinetypeTableRecord
  2
DIVIDE
 70
    0
  3
Divide ____ . . ____ . . ____ . . ____ . . ____
 72
   65
 73
    6
 40
31.75
 49
12.7
 74
    0
 49
-6.35
 74
    0
 49
0
 74
    0
 49
-6.35
 74
    0
 49
0
 74
    0
 49
-6.35
 74
    0
  0
LTYPE
  5
3F
330
5
100
AcDbSymbolTableRecord
100
AcDbLinetypeTableRecord
  2
DIVIDETINY
 70
    0
  3
Divide (.15x) __..__..__..__..__..__..__..__.._
 72
   65
 73
    6
 40
4.7625
 49
1.905
 74
    0
 49
-0.9525
 74
    0
 49
0
 74
    0
 49
-0.9525
 74
    0
 49
0
 74
    0
 49
-0.9525
 74
    0
  0
LTYPE
  5
40
330
5
100
AcDbSymbolTableRecord
100
AcDbLinetypeTableRecord
  2
DIVIDE2
 70
    0
  3
Divide (.5x) __..__..__..__..__..__..__..__.._
 72
   65
 73
    6
 40
15.875
 49
6.35
 74
    0
 49
-3.175
 74
    0
 49
0
 74
    0
 49
-3.175
 74
    0
 49
0
 74
    0
 49
-3.175
 74
    0
  0
LTYPE
  5
41
330
5
100
AcDbSymbolTableRecord
100
AcDbLinetypeTableRecord
  2
DIVIDEX2
 70
    0
  3
Divide (2x) ________  .  .  ________  .  .  _
 72
   65
 73
    6
 40
63.5
 49
25.4
 74
    0
 49
-12.7
 74
    0
 49
0
 74
    0
 49
-12.7
 74
    0
 49
0
 74
    0
 49
-12.7
 74
    0
  0
LTYPE
  5
42
330
5
100
AcDbSymbolTableRecord
100
AcDbLinetypeTableRecord
  2
BORDER
 70
    0
  3
Border __ __ . __ __ . __ __ . __ __ . __ __ .
 72
   65
 73
    6
 40
44.45
 49
12.7
 74
    0
 49
-6.35
 74
    0
 49
12.7
 74
    0
 49
-6.35
 74
    0
 49
0
 74
    0
 49
-6.35
 74
    0
  0
LTYPE
  5
43
330
5
100
AcDbSymbolTableRecord
100
AcDbLinetypeTableRecord
  2
BORDERTINY
 70
    0
  3
Border (.15x) __.__.__.__.__.__.__.__.__.__.__.
 72
   65
 73
    6
 40
6.6675
 49
1.905
 74
    0
 49
-0.9525
 74
    0
 49
1.905
 74
    0
 49
-0.9525
 74
    0
 49
0
 74
    0
 49
-0.9525
 74
    0
  0
LTYPE
  5
44
330
5
100
AcDbSymbolTableRecord
100
AcDbLinetypeTableRecord
  2
BORDER2
 70
    0
  3
Border (.5x) __.__.__.__.__.__.__.__.__.__.__.
 72
   65
 73
    6
 40
22.225
 49
6.35
 74
    0
 49
-3.175
 74
    0
 49
6.35
 74
    0
 49
-3.175
 74
    0
 49
0
 74
    0
 49
-3.175
 74
    0
  0
LTYPE
  5
45
330
5
100
AcDbSymbolTableRecord
100
AcDbLinetypeTableRecord
  2
BORDERX2
 70
    0
  3
Border (2x) ____  ____  .  ____  ____  .  ___
 72
   65
 73
    6
 40
88.89999999999999
 49
25.4
 74
    0
 49
-12.7
 74
    0
 49
25.4
 74
    0
 49
-12.7
 74
    0
 49
0
 74
    0
 49
-12.7
 74
    0
  0
LTYPE
  5
46
330
5
100
AcDbSymbolTableRecord
100
AcDbLinetypeTableRecord
  2
CENTER
 70
    0
  3
Center ____ _ ____ _ ____ _ ____ _ ____ _ ____
 72
   65
 73
    4
 40
50.8
 49
31.75
 74
    0
 49
-6.35
 74
    0
 49
6.35
 74
    0
 49
-6.35
 74
    0
  0
LTYPE
  5
47
330
5
100
AcDbSymbolTableRecord
100
AcDbLinetypeTableRecord
  2
CENTERTINY
 70
    0
  3
Center (.15x) ___ _ ___ _ ___ _ ___ _ ___ _ ___
 72
   65
 73
    4
 40
7.62
 49
4.7625
 74
    0
 49
-0.9525
 74
    0
 49
0.9525
 74
    0
 49
-0.9525
 74
    0
  0
LTYPE
  5
48
330
5
100
AcDbSymbolTableRecord
100
AcDbLinetypeTableRecord
  2
CENTER2
 70
    0
  3
Center (.5x) ___ _ ___ _ ___ _ ___ _ ___ _ ___
 72
   65
 73
    4
 40
28.575
 49
19.05
 74
    0
 49
-3.175
 74
    0
 49
3.175
 74
    0
 49
-3.175
 74
    0
  0
LTYPE
  5
49
330
5
100
AcDbSymbolTableRecord
100
AcDbLinetypeTableRecord
  2
CENTERX2
 70
    0
  3
Center (2x) ________  __  ________  __  _____
 72
   65
 73
    4
 40
101.6
 49
63.5
 74
    0
 49
-12.7
 74
    0
 49
12.7
 74
    0
 49
-12.7
 74
    0
  0
ENDTAB
  0
TABLE
  2
LAYER
  5
2
330
0
100
AcDbSymbolTable
 70
    1
  0
LAYER
  5
10
330
2
100
AcDbSymbolTableRecord
100
AcDbLayerTableRecord
  2
0
 70
    0
 62
    7
  6
CONTINUOUS
370
    0
390
F
  0
ENDTAB
  0
TABLE
  2
STYLE
  5
3
330
0
100
AcDbSymbolTable
 70
    3
  0
STYLE
  5
4A
330
2
100
AcDbSymbolTableRecord
100
AcDbTextStyleTableRecord
  2
Standard
 70
    0
 40
0
 41
1
 50
0
 71
    0
 42
1
  3
txt
  4

  0
ENDTAB
  0
TABLE
  2
VIEW
  5
6
330
0
100
AcDbSymbolTable
 70
    0
  0
ENDTAB
  0
TABLE
  2
UCS
  5
7
330
0
100
AcDbSymbolTable
 70
    0
  0
ENDTAB
  0
TABLE
  2
APPID
  5
9
330
0
100
AcDbSymbolTable
 70
    1
  0
APPID
  5
12
330
9
100
AcDbSymbolTableRecord
100
AcDbRegAppTableRecord
  2
ACAD
 70
    0
  0
APPID
  5
4B
330
9
100
AcDbSymbolTableRecord
100
AcDbRegAppTableRecord
  2
LibreCad
 70
    0
  0
ENDTAB
  0
TABLE
  2
DIMSTYLE
  5
A
330
0
100
AcDbSymbolTable
 70
    1
100
AcDbDimStyleTable
 71
    1
  0
DIMSTYLE
105
4C
330
A
100
AcDbSymbolTableRecord
100
AcDbDimStyleTableRecord
  2
Standard
 70
    0
 40
1
 41
0.1
 42
0.025
 43
0.38
 44
0.05
 45
0
 46
0
 47
0
 48
0
 49
1
140
0.1
141
0.09
142
2.5
143
25.4
144
1
145
0
146
1
147
0.025
148
0
 71
    0
 72
    0
 73
    0
 74
    1
 75
    0
 76
    0
 77
    0
 78
    1
 79
    0
170
    0
171
    2
172
    0
173
    0
174
    0
175
    0
176
    0
177
    0
178
    0
179
    0
271
    2
272
    4
273
    2
274
    2
275
    0
276
    0
277
    2
278
    0
279
    0
280
    0
281
    0
282
    0
283
    1
284
    0
285
    0
286
    0
288
    0
289
    3
340
standard
341

371
   -2
372
   -2
  0
ENDTAB
  0
TABLE
  2
BLOCK_RECORD
  5
1
330
0
100
AcDbSymbolTable
 70
    2
  0
BLOCK_RECORD
  5
1F
330
1
100
AcDbSymbolTableRecord
100
AcDbBlockTableRecord
  2
*Model_Space
 70
    0
280
    1
281
    0
  0
BLOCK_RECORD
  5
1E
330
1
100
AcDbSymbolTableRecord
100
AcDbBlockTableRecord
  2
*Paper_Space
 70
    0
280
    1
281
    0
  0
ENDTAB
  0
ENDSEC
  0
SECTION
  2
BLOCKS
  0
BLOCK
  5
20
330
1F
100
AcDbEntity
  8
0
100
AcDbBlockBegin
  2
*Model_Space
 70
    0
 10
0
 20
0
 30
0
  3
*Model_Space
  1

  0
ENDBLK
  5
21
330
1F
100
AcDbEntity
  8
0
100
AcDbBlockEnd
  0
BLOCK
  5
1C
330
1B
100
AcDbEntity
  8
0
100
AcDbBlockBegin
  2
*Paper_Space
 70
    0
 10
0
 20
0
 30
0
  3
*Paper_Space
  1

  0
ENDBLK
  5
1D
330
1F
100
AcDbEntity
  8
0
100
AcDbBlockEnd
  0
ENDSEC
  0
SECTION
  2
ENTITIES
  0
LINE
  5
4D
100
AcDbEntity
  8
0
  6
ByLayer
 62
    5
370
   -1
100
AcDbLine
 10
9.9438
 20
-379.739
 11
19.8603
 21
-378.958
  0
LINE
  5
4E
100
AcDbEntity
  8
0
  6
ByLayer
 62
    5
370
   -1
100
AcDbLine
 10
19.8603
 20
-378.958
 11
29.7225
 21
-377.66
  0
LINE
  5
4F
100
AcDbEntity
  8
0
  6
ByLayer
 62
    5
370
   -1
100
AcDbLine
 10
29.7225
 20
-377.66
 11
39.5031
 21
-375.847
  0
LINE
  5
50
100
AcDbEntity
  8
0
  6
ByLayer
 62
    5
370
   -1
100
AcDbLine
 10
39.5031
 20
-375.847
 11
49.1755
 21
-373.525
  0
LINE
  5
51
100
AcDbEntity
  8
0
  6
ByLayer
 62
    5
370
   -1
100
AcDbLine
 10
49.1755
 20
-373.525
 11
58.7131
 21
-370.7
  0
LINE
  5
52
100
AcDbEntity
  8
0
  6
ByLayer
 62
    5
370
   -1
100
AcDbLine
 10
58.7131
 20
-370.7
 11
68.08969999999999
 21
-367.379
  0
LINE
  5
53
100
AcDbEntity
  8
0
  6
ByLayer
 62
    5
370
   -1
100
AcDbLine
 10
68.08969999999999
 20
-367.379
 11
77.27970000000001
 21
-363.573
  0
LINE
  5
54
100
AcDbEntity
  8
0
  6
ByLayer
 62
    5
370
   -1
100
AcDbLine
 10
77.27970000000001
 20
-363.573
 11
86.25790000000001
 21
-359.29
  0
LINE
  5
55
100
AcDbEntity
  8
0
  6
ByLayer
 62
    5
370
   -1
100
AcDbLine
 10
86.25790000000001
 20
-359.29
 11
94.9997
 21
-354.544
  0
LINE
  5
56
100
AcDbEntity
  8
0
  6
ByLayer
 62
    5
370
   -1
100
AcDbLine
 10
94.9997
 20
-354.544
 11
103.481
 21
-349.346
  0
LINE
  5
57
100
AcDbEntity
  8
0
  6
ByLayer
 62
    5
370
   -1
100
AcDbLine
 10
103.481
 20
-349.346
 11
111.679
 21
-343.712
  0
LINE
  5
58
100
AcDbEntity
  8
0
  6
ByLayer
 62
    5
370
   -1
100
AcDbLine
 10
111.679
 20
-343.712
 11
119.571
 21
-337.657
  0
LINE
  5
59
100
AcDbEntity
  8
0
  6
ByLayer
 62
    5
370
   -1
100
AcDbLine
 10
119.571
 20
-337.657
 11
127.134
 21
-331.197
  0
LINE
  5
5A
100
AcDbEntity
  8
0
  6
ByLayer
 62
    5
370
   -1
100
AcDbLine
 10
127.134
 20
-331.197
 11
134.35
 21
-324.349
  0
LINE
  5
5B
100
AcDbEntity
  8
0
  6
ByLayer
 62
    5
370
   -1
100
AcDbLine
 10
134.35
 20
-324.349
 11
141.197
 21
-317.134
  0
LINE
  5
5C
100
AcDbEntity
  8
0
  6
ByLayer
 62
    5
370
   -1
100
AcDbLine
 10
141.197
 20
-317.134
 11
147.657
 21
-309.57
  0
LINE
  5
5D
100
AcDbEntity
  8
0
  6
ByLayer
 62
    5
370
   -1
100
AcDbLine
 10
147.657
 20
-309.57
 11
153.713
 21
-301.678
  0
LINE
  5
5E
100
AcDbEntity
  8
0
  6
ByLayer
 62
    5
370
   -1
100
AcDbLine
 10
153.713
 20
-301.678
 11
159.347
 21
-293.481
  0
LINE
  5
5F
100
AcDbEntity
  8
0
  6
ByLayer
 62
    5
370
   -1
100
AcDbLine
 10
159.347
 20
-293.481
 11
164.544
 21
-284.999
  0
LINE
  5
60
100
AcDbEntity
  8
0
  6
ByLayer
 62
    5
370
   -1
100
AcDbLine
 10
164.544
 20
-284.999
 11
169.291
 21
-276.257
  0
LINE
  5
61
100
AcDbEntity
  8
0
  6
ByLayer
 62
    5
370
   -1
100
AcDbLine
 10
169.291
 20
-276.257
 11
173.573
 21
-267.279
  0
LINE
  5
62
100
AcDbEntity
  8
0
  6
ByLayer
 62
    5
370
   -1
100
AcDbLine
 10
173.573
 20
-267.279
 11
177.38
 21
-258.089
  0
LINE
  5
63
100
AcDbEntity
  8
0
  6
ByLayer
 62
    5
370
   -1
100
AcDbLine
 10
177.38
 20
-258.089
 11
180.7
 21
-248.713
  0
LINE
  5
64
100
AcDbEntity
  8
0
  6
ByLayer
 62
    5
370
   -1
100
AcDbLine
 10
180.7
 20
-248.713
 11
183.525
 21
-239.175
  0
LINE
  5
65
100
AcDbEntity
  8
0
  6
ByLayer
 62
    5
370
   -1
100
AcDbLine
 10
183.525
 20
-239.175
 11
185.848
 21
-229.503
  0
LINE
  5
66
100
AcDbEntity
  8
0
  6
ByLayer
 62
    5
370
   -1
100
AcDbLine
 10
185.848
 20
-229.503
 11
187.66
 21
-219.722
  0
LINE
  5
67
100
AcDbEntity
  8
0
  6
ByLayer
 62
    5
370
   -1
100
AcDbLine
 10
187.66
 20
-219.722
 11
188.959
 21
-209.86
  0
LINE
  5
68
100
AcDbEntity
  8
0
  6
ByLayer
 62
    5
370
   -1
100
AcDbLine
 10
188.959
 20
-209.86
 11
189.739
 21
-199.943
  0
LINE
  5
69
100
AcDbEntity
  8
0
  6
ByLayer
 62
    5
370
   -1
100
AcDbLine
 10
189.739
 20
-199.943
 11
189.999
 21
-189.999
  0
LINE
  5
6A
100
AcDbEntity
  8
0
  6
ByLayer
 62
    5
370
   -1
100
AcDbLine
 10
189.999
 20
-189.999
 11
189.739
 21
-180.056
  0
LINE
  5
6B
100
AcDbEntity
  8
0
  6
ByLayer
 62
    5
370
   -1
100
AcDbLine
 10
189.739
 20
-180.056
 11
188.959
 21
-170.139
  0
LINE
  5
6C
100
AcDbEntity
  8
0
  6
ByLayer
 62
    5
370
   -1
100
AcDbLine
 10
188.959
 20
-170.139
 11
187.66
 21
-160.277
  0
LINE
  5
6D
100
AcDbEntity
  8
0
  6
ByLayer
 62
    5
370
   -1
100
AcDbLine
 10
187.66
 20
-160.277
 11
185.848
 21
-150.496
  0
LINE
  5
6E
100
AcDbEntity
  8
0
  6
ByLayer
 62
    5
370
   -1
100
AcDbLine
 10
185.848
 20
-150.496
 11
183.525
 21
-140.824
  0
LINE
  5
6F
100
AcDbEntity
  8
0
  6
ByLayer
 62
    5
370
   -1
100
AcDbLine
 10
183.525
 20
-140.824
 11
180.7
 21
-131.286
  0
LINE
  5
70
100
AcDbEntity
  8
0
  6
ByLayer
 62
    5
370
   -1
100
AcDbLine
 10
180.7
 20
-131.286
 11
177.38
 21
-121.91
  0
LINE
  5
71
100
AcDbEntity
  8
0
  6
ByLayer
 62
    5
370
   -1
100
AcDbLine
 10
177.38
 20
-121.91
 11
173.573
 21
-112.72
  0
LINE
  5
72
100
AcDbEntity
  8
0
  6
ByLayer
 62
    5
370
   -1
100
AcDbLine
 10
173.573
 20
-112.72
 11
169.291
 21
-103.742
  0
LINE
  5
73
100
AcDbEntity
  8
0
  6
ByLayer
 62
    5
370
   -1
100
AcDbLine
 10
169.291
 20
-103.742
 11
164.544
 21
-94.9997
  0
LINE
  5
74
100
AcDbEntity
  8
0
  6
ByLayer
 62
    5
370
   -1
100
AcDbLine
 10
164.544
 20
-94.9997
 11
159.347
 21
-86.5183
  0
LINE
  5
75
100
AcDbEntity
  8
0
  6
ByLayer
 62
    5
370
   -1
100
AcDbLine
 10
159.347
 20
-86.5183
 11
153.713
 21
-78.3206
  0
LINE
  5
76
100
AcDbEntity
  8
0
  6
ByLayer
 62
    5
370
   -1
100
AcDbLine
 10
153.713
 20
-78.3206
 11
147.657
 21
-70.4289
  0
LINE
  5
77
100
AcDbEntity
  8
0
  6
ByLayer
 62
    5
370
   -1
100
AcDbLine
 10
147.657
 20
-70.4289
 11
141.197
 21
-62.865
  0
LINE
  5
78
100
AcDbEntity
  8
0
  6
ByLayer
 62
    5
370
   -1
100
AcDbLine
 10
141.197
 20
-62.865
 11
134.35
 21
-55.6496
  0
LINE
  5
79
100
AcDbEntity
  8
0
  6
ByLayer
 62
    5
370
   -1
100
AcDbLine
 10
134.35
 20
-55.6496
 11
127.134
 21
-48.8023
  0
LINE
  5
7A
100
AcDbEntity
  8
0
  6
ByLayer
 62
    5
370
   -1
100
AcDbLine
 10
127.134
 20
-48.8023
 11
119.571
 21
-42.3421
  0
LINE
  5
7B
100
AcDbEntity
  8
0
  6
ByLayer
 62
    5
370
   -1
100
AcDbLine
 10
119.571
 20
-42.3421
 11
111.679
 21
-36.2867
  0
LINE
  5
7C
100
AcDbEntity
  8
0
  6
ByLayer
 62
    5
370
   -1
100
AcDbLine
 10
111.679
 20
-36.2867
 11
103.481
 21
-30.6525
  0
LINE
  5
7D
100
AcDbEntity
  8
0
  6
ByLayer
 62
    5
370
   -1
100
AcDbLine
 10
103.481
 20
-30.6525
 11
94.9997
 21
-25.4551
  0
LINE
  5
7E
100
AcDbEntity
  8
0
  6
ByLayer
 62
    5
370
   -1
100
AcDbLine
 10
94.9997
 20
-25.4551
 11
86.25790000000001
 21
-20.7087
  0
LINE
  5
7F
100
AcDbEntity
  8
0
  6
ByLayer
 62
    5
370
   -1
100
AcDbLine
 10
86.25790000000001
 20
-20.7087
 11
77.27970000000001
 21
-16.4263
  0
LINE
  5
80
100
AcDbEntity
  8
0
  6
ByLayer
 62
    5
370
   -1
100
AcDbLine
 10
77.27970000000001
 20
-16.4263
 11
68.08969999999999
 21
-12.6197
  0
LINE
  5
81
100
AcDbEntity
  8
0
  6
ByLayer
 62
    5
370
   -1
100
AcDbLine
 10
68.08969999999999
 20
-12.6197
 11
58.7131
 21
-9.29922
  0
LINE
  5
82
100
AcDbEntity
  8
0
  6
ByLayer
 62
    5
370
   -1
100
AcDbLine
 10
58.7131
 20
-9.29922
 11
49.1755
 21
-6.47406
  0
LINE
  5
83
100
AcDbEntity
  8
0
  6
ByLayer
 62
    5
370
   -1
100
AcDbLine
 10
49.1755
 20
-6.47406
 11
39.5031
 21
-4.15193
  0
LINE
  5
84
100
AcDbEntity
  8
0
  6
ByLayer
 62
    5
370
   -1
100
AcDbLine
 10
39.5031
 20
-4.15193
 11
29.7225
 21
-2.3392
  0
LINE
  5
85
100
AcDbEntity
  8
0
  6
ByLayer
 62
    5
370
   -1
100
AcDbLine
 10
29.7225
 20
-2.3392
 11
19.8603
 21
-1.04083
  0
LINE
  5
86
100
AcDbEntity
  8
0
  6
ByLayer
 62
    5
370
   -1
100
AcDbLine
 10
19.8603
 20
-1.04083
 11
9.9438
 21
-0.260376
  0
LINE
  5
87
100
AcDbEntity
  8
0
  6
ByLayer
 62
    5
370
   -1
100
AcDbLine
 10
9.9438
 20
-0.260376
 11
0
 21
0
  0
LINE
  5
88
100
AcDbEntity
  8
0
  6
ByLayer
 62
    5
370
   -1
100
AcDbLine
 10
0
 20
0
 11
-9.9438
 21
-0.260376
  0
LINE
  5
89
100
AcDbEntity
  8
0
  6
ByLayer
 62
    5
370
   -1
100
AcDbLine
 10
-9.9438
 20
-0.260376
 11
-19.8603
 21
-1.04083
  0
LINE
  5
8A
100
AcDbEntity
  8
0
  6
ByLayer
 62
    5
370
   -1
100
AcDbLine
 10
-19.8603
 20
-1.04083
 11
-29.7225
 21
-2.3392
  0
LINE
  5
8B
100
AcDbEntity
  8
0
  6
ByLayer
 62
    5
370
   -1
100
AcDbLine
 10
-29.7225
 20
-2.3392
 11
-39.5031
 21
-4.15193
  0
LINE
  5
8C
100
AcDbEntity
  8
0
  6
ByLayer
 62
    5
370
   -1
100
AcDbLine
 10
-39.5031
 20
-4.15193
 11
-49.1755
 21
-6.47406
  0
LINE
  5
8D
100
AcDbEntity
  8
0
  6
ByLayer
 62
    5
370
   -1
100
AcDbLine
 10
-49.1755
 20
-6.47406
 11
-58.7131
 21
-9.29922
  0
LINE
  5
8E
100
AcDbEntity
  8
0
  6
ByLayer
 62
    5
370
   -1
100
AcDbLine
 10
-58.7131
 20
-9.29922
 11
-68.08969999999999
 21
-12.6197
  0
LINE
  5
8F
100
AcDbEntity
  8
0
  6
ByLayer
 62
    5
370
   -1
100
AcDbLine
 10
-68.08969999999999
 20
-12.6197
 11
-77.27970000000001
 21
-16.4263
  0
LINE
  5
90
100
AcDbEntity
  8
0
  6
ByLayer
 62
    5
370
   -1
100
AcDbLine
 10
-77.27970000000001
 20
-16.4263
 11
-86.25790000000001
 21
-20.7087
  0
LINE
  5
91
100
AcDbEntity
  8
0
  6
ByLayer
 62
    5
370
   -1
100
AcDbLine
 10
-86.25790000000001
 20
-20.7087
 11
-94.9997
 21
-25.4551
  0
LINE
  5
92
100
AcDbEntity
  8
0
  6
ByLayer
 62
    5
370
   -1
100
AcDbLine
 10
-94.9997
 20
-25.4551
 11
-103.481
 21
-30.6525
  0
LINE
  5
93
100
AcDbEntity
  8
0
  6
ByLayer
 62
    5
370
   -1
100
AcDbLine
 10
-103.481
 20
-30.6525
 11
-111.679
 21
-36.2867
  0
LINE
  5
94
100
AcDbEntity
  8
0
  6
ByLayer
 62
    5
370
   -1
100
AcDbLine
 10
-111.679
 20
-36.2867
 11
-119.571
 21
-42.3421
  0
LINE
  5
95
100
AcDbEntity
  8
0
  6
ByLayer
 62
    5
370
   -1
100
AcDbLine
 10
-119.571
 20
-42.3421
 11
-127.134
 21
-48.8023
  0
LINE
  5
96
100
AcDbEntity
  8
0
  6
ByLayer
 62
    5
370
   -1
100
AcDbLine
 10
-127.134
 20
-48.8023
 11
-134.35
 21
-55.6496
  0
LINE
  5
97
100
AcDbEntity
  8
0
  6
ByLayer
 62
    5
370
   -1
100
AcDbLine
 10
-134.35
 20
-55.6496
 11
-141.197
 21
-62.865
  0
LINE
  5
98
100
AcDbEntity
  8
0
  6
ByLayer
 62
    5
370
   -1
100
AcDbLine
 10
-141.197
 20
-62.865
 11
-147.657
 21
-70.4289
  0
LINE
  5
99
100
AcDbEntity
  8
0
  6
ByLayer
 62
    5
370
   -1
100
AcDbLine
 10
-147.657
 20
-70.4289
 11
-153.713
 21
-78.3206
  0
LINE
  5
9A
100
AcDbEntity
  8
0
  6
ByLayer
 62
    5
370
   -1
100
AcDbLine
 10
-153.713
 20
-78.3206
 11
-159.347
 21
-86.5183
  0
LINE
  5
9B
100
AcDbEntity
  8
0
  6
ByLayer
 62
    5
370
   -1
100
AcDbLine
 10
-159.347
 20
-86.5183
 11
-164.544
 21
-94.9997
  0
LINE
  5
9C
100
AcDbEntity
  8
0
  6
ByLayer
 62
    5
370
   -1
100
AcDbLine
 10
-164.544
 20
-94.9997
 11
-169.291
 21
-103.742
  0
LINE
  5
9D
100
AcDbEntity
  8
0
  6
ByLayer
 62
    5
370
   -1
100
AcDbLine
 10
-169.291
 20
-103.742
 11
-173.573
 21
-112.72
  0
LINE
  5
9E
100
AcDbEntity
  8
0
  6
ByLayer
 62
    5
370
   -1
100
AcDbLine
 10
-173.573
 20
-112.72
 11
-177.38
 21
-121.91
  0
LINE
  5
9F
100
AcDbEntity
  8
0
  6
ByLayer
 62
    5
370
   -1
100
AcDbLine
 10
-177.38
 20
-121.91
 11
-180.7
 21
-131.286
  0
LINE
  5
A0
100
AcDbEntity
  8
0
  6
ByLayer
 62
    5
370
   -1
100
AcDbLine
 10
-180.7
 20
-131.286
 11
-183.525
 21
-140.824
  0
LINE
  5
A1
100
AcDbEntity
  8
0
  6
ByLayer
 62
    5
370
   -1
100
AcDbLine
 10
-183.525
 20
-140.824
 11
-185.848
 21
-150.496
  0
LINE
  5
A2
100
AcDbEntity
  8
0
  6
ByLayer
 62
    5
370
   -1
100
AcDbLine
 10
-185.848
 20
-150.496
 11
-187.66
 21
-160.277
  0
LINE
  5
A3
100
AcDbEntity
  8
0
  6
ByLayer
 62
    5
370
   -1
100
AcDbLine
 10
-187.66
 20
-160.277
 11
-188.959
 21
-170.139
  0
LINE
  5
A4
100
AcDbEntity
  8
0
  6
ByLayer
 62
    5
370
   -1
100
AcDbLine
 10
-188.959
 20
-170.139
 11
-189.739
 21
-180.056
  0
LINE
  5
A5
100
AcDbEntity
  8
0
  6
ByLayer
 62
    5
370
   -1
100
AcDbLine
 10
-189.739
 20
-180.056
 11
-189.999
 21
-189.999
  0
LINE
  5
A6
100
AcDbEntity
  8
0
  6
ByLayer
 62
    5
370
   -1
100
AcDbLine
 10
-189.999
 20
-189.999
 11
-189.739
 21
-199.943
  0
LINE
  5
A7
100
AcDbEntity
  8
0
  6
ByLayer
 62
    5
370
   -1
100
AcDbLine
 10
-189.739
 20
-199.943
 11
-188.959
 21
-209.86
  0
LINE
  5
A8
100
AcDbEntity
  8
0
  6
ByLayer
 62
    5
370
   -1
100
AcDbLine
 10
-188.959
 20
-209.86
 11
-187.66
 21
-219.722
  0
LINE
  5
A9
100
AcDbEntity
  8
0
  6
ByLayer
 62
    5
370
   -1
100
AcDbLine
 10
-187.66
 20
-219.722
 11
-185.848
 21
-229.503
  0
LINE
  5
AA
100
AcDbEntity
  8
0
  6
ByLayer
 62
    5
370
   -1
100
AcDbLine
 10
-185.848
 20
-229.503
 11
-183.525
 21
-239.175
  0
LINE
  5
AB
100
AcDbEntity
  8
0
  6
ByLayer
 62
    5
370
   -1
100
AcDbLine
 10
-183.525
 20
-239.175
 11
-180.7
 21
-248.713
  0
LINE
  5
AC
100
AcDbEntity
  8
0
  6
ByLayer
 62
    5
370
   -1
100
AcDbLine
 10
-180.7
 20
-248.713
 11
-177.38
 21
-258.089
  0
LINE
  5
AD
100
AcDbEntity
  8
0
  6
ByLayer
 62
    5
370
   -1
100
AcDbLine
 10
-177.38
 20
-258.089
 11
-173.573
 21
-267.279
  0
LINE
  5
AE
100
AcDbEntity
  8
0
  6
ByLayer
 62
    5
370
   -1
100
AcDbLine
 10
-173.573
 20
-267.279
 11
-169.291
 21
-276.257
  0
LINE
  5
AF
100
AcDbEntity
  8
0
  6
ByLayer
 62
    5
370
   -1
100
AcDbLine
 10
-169.291
 20
-276.257
 11
-164.544
 21
-284.999
  0
LINE
  5
B0
100
AcDbEntity
  8
0
  6
ByLayer
 62
    5
370
   -1
100
AcDbLine
 10
-164.544
 20
-284.999
 11
-159.347
 21
-293.481
  0
LINE
  5
B1
100
AcDbEntity
  8
0
  6
ByLayer
 62
    5
370
   -1
100
AcDbLine
 10
-159.347
 20
-293.481
 11
-153.713
 21
-301.678
  0
LINE
  5
B2
100
AcDbEntity
  8
0
  6
ByLayer
 62
    5
370
   -1
100
AcDbLine
 10
-153.713
 20
-301.678
 11
-147.657
 21
-309.57
  0
LINE
  5
B3
100
AcDbEntity
  8
0
  6
ByLayer
 62
    5
370
   -1
100
AcDbLine
 10
-147.657
 20
-309.57
 11
-141.197
 21
-317.134
  0
LINE
  5
B4
100
AcDbEntity
  8
0
  6
ByLayer
 62
    5
370
   -1
100
AcDbLine
 10
-141.197
 20
-317.134
 11
-134.35
 21
-324.349
  0
LINE
  5
B5
100
AcDbEntity
  8
0
  6
ByLayer
 62
    5
370
   -1
100
AcDbLine
 10
-134.35
 20
-324.349
 11
-127.134
 21
-331.197
  0
LINE
  5
B6
100
AcDbEntity
  8
0
  6
ByLayer
 62
    5
370
   -1
100
AcDbLine
 10
-127.134
 20
-331.197
 11
-119.571
 21
-337.657
  0
LINE
  5
B7
100
AcDbEntity
  8
0
  6
ByLayer
 62
    5
370
   -1
100
AcDbLine
 10
-119.571
 20
-337.657
 11
-111.679
 21
-343.712
  0
LINE
  5
B8
100
AcDbEntity
  8
0
  6
ByLayer
 62
    5
370
   -1
100
AcDbLine
 10
-111.679
 20
-343.712
 11
-103.481
 21
-349.346
  0
LINE
  5
B9
100
AcDbEntity
  8
0
  6
ByLayer
 62
    5
370
   -1
100
AcDbLine
 10
-103.481
 20
-349.346
 11
-94.9997
 21
-354.544
  0
LINE
  5
BA
100
AcDbEntity
  8
0
  6
ByLayer
 62
    5
370
   -1
100
AcDbLine
 10
-94.9997
 20
-354.544
 11
-86.25790000000001
 21
-359.29
  0
LINE
  5
BB
100
AcDbEntity
  8
0
  6
ByLayer
 62
    5
370
   -1
100
AcDbLine
 10
-86.25790000000001
 20
-359.29
 11
-77.27970000000001
 21
-363.573
  0
LINE
  5
BC
100
AcDbEntity
  8
0
  6
ByLayer
 62
    5
370
   -1
100
AcDbLine
 10
-77.27970000000001
 20
-363.573
 11
-68.08969999999999
 21
-367.379
  0
LINE
  5
BD
100
AcDbEntity
  8
0
  6
ByLayer
 62
    5
370
   -1
100
AcDbLine
 10
-68.08969999999999
 20
-367.379
 11
-58.7131
 21
-370.7
  0
LINE
  5
BE
100
AcDbEntity
  8
0
  6
ByLayer
 62
    5
370
   -1
100
AcDbLine
 10
-58.7131
 20
-370.7
 11
-49.1755
 21
-373.525
  0
LINE
  5
BF
100
AcDbEntity
  8
0
  6
ByLayer
 62
    5
370
   -1
100
AcDbLine
 10
-49.1755
 20
-373.525
 11
-39.5031
 21
-375.847
  0
LINE
  5
C0
100
AcDbEntity
  8
0
  6
ByLayer
 62
    5
370
   -1
100
AcDbLine
 10
-39.5031
 20
-375.847
 11
-29.7225
 21
-377.66
  0
LINE
  5
C1
100
AcDbEntity
  8
0
  6
ByLayer
 62
    5
370
   -1
100
AcDbLine
 10
-29.7225
 20
-377.66
 11
-19.8603
 21
-378.958
  0
LINE
  5
C2
100
AcDbEntity
  8
0
  6
ByLayer
 62
    5
370
   -1
100
AcDbLine
 10
-19.8603
 20
-378.958
 11
-9.9438
 21
-379.739
  0
LINE
  5
C3
100
AcDbEntity
  8
0
  6
ByLayer
 62
    5
370
   -1
100
AcDbLine
 10
-9.9438
 20
-379.739
 11
0
 21
-379.999
  0
LINE
  5
C4
100
AcDbEntity
  8
0
  6
ByLayer
 62
    5
370
   -1
100
AcDbLine
 10
0
 20
-379.999
 11
9.9438
 21
-379.739
  0
LINE
  5
C5
100
AcDbEntity
  8
0
  6
ByLayer
 62
    5
370
   -1
100
AcDbLine
 10
24.7395
 20
-27.7122
 11
24.487
 21
-27.6445
  0
LINE
  5
C6
100
AcDbEntity
  8
0
  6
ByLayer
 62
    5
370
   -1
100
AcDbLine
 10
24.487
 20
-27.6445
 11
24.25
 21
-27.534
  0
LINE
  5
C7
100
AcDbEntity
  8
0
  6
ByLayer
 62
    5
370
   -1
100
AcDbLine
 10
24.25
 20
-27.534
 11
24.0358
 21
-27.3841
  0
LINE
  5
C8
100
AcDbEntity
  8
0
  6
ByLayer
 62
    5
370
   -1
100
AcDbLine
 10
24.0358
 20
-27.3841
 11
23.8509
 21
-27.1992
  0
LINE
  5
C9
100
AcDbEntity
  8
0
  6
ByLayer
 62
    5
370
   -1
100
AcDbLine
 10
23.8509
 20
-27.1992
 11
23.701
 21
-26.985
  0
LINE
  5
CA
100
AcDbEntity
  8
0
  6
ByLayer
 62
    5
370
   -1
100
AcDbLine
 10
23.701
 20
-26.985
 11
23.5905
 21
-26.748
  0
LINE
  5
CB
100
AcDbEntity
  8
0
  6
ByLayer
 62
    5
370
   -1
100
AcDbLine
 10
23.5905
 20
-26.748
 11
23.5228
 21
-26.4955
  0
LINE
  5
CC
100
AcDbEntity
  8
0
  6
ByLayer
 62
    5
370
   -1
100
AcDbLine
 10
23.5228
 20
-26.4955
 11
23.5
 21
-26.235
  0
LINE
  5
CD
100
AcDbEntity
  8
0
  6
ByLayer
 62
    5
370
   -1
100
AcDbLine
 10
23.5
 20
-26.235
 11
23.5228
 21
-25.9745
  0
LINE
  5
CE
100
AcDbEntity
  8
0
  6
ByLayer
 62
    5
370
   -1
100
AcDbLine
 10
23.5228
 20
-25.9745
 11
23.5905
 21
-25.722
  0
LINE
  5
CF
100
AcDbEntity
  8
0
  6
ByLayer
 62
    5
370
   -1
100
AcDbLine
 10
23.5905
 20
-25.722
 11
23.701
 21
-25.485
  0
LINE
  5
D0
100
AcDbEntity
  8
0
  6
ByLayer
 62
    5
370
   -1
100
AcDbLine
 10
23.701
 20
-25.485
 11
23.8509
 21
-25.2708
  0
LINE
  5
D1
100
AcDbEntity
  8
0
  6
ByLayer
 62
    5
370
   -1
100
AcDbLine
 10
23.8509
 20
-25.2708
 11
24.0358
 21
-25.0859
  0
LINE
  5
D2
100
AcDbEntity
  8
0
  6
ByLayer
 62
    5
370
   -1
100
AcDbLine
 10
24.0358
 20
-25.0859
 11
24.25
 21
-24.936
  0
LINE
  5
D3
100
AcDbEntity
  8
0
  6
ByLayer
 62
    5
370
   -1
100
AcDbLine
 10
24.25
 20
-24.936
 11
24.487
 21
-24.8255
  0
LINE
  5
D4
100
AcDbEntity
  8
0
  6
ByLayer
 62
    5
370
   -1
100
AcDbLine
 10
24.487
 20
-24.8255
 11
24.7395
 21
-24.7578
  0
LINE
  5
D5
100
AcDbEntity
  8
0
  6
ByLayer
 62
    5
370
   -1
100
AcDbLine
 10
24.7395
 20
-24.7578
 11
25
 21
-24.735
  0
LINE
  5
D6
100
AcDbEntity
  8
0
  6
ByLayer
 62
    5
370
   -1
100
AcDbLine
 10
25
 20
-24.735
 11
25.2605
 21
-24.7578
  0
LINE
  5
D7
100
AcDbEntity
  8
0
  6
ByLayer
 62
    5
370
   -1
100
AcDbLine
 10
25.2605
 20
-24.7578
 11
25.513
 21
-24.8255
  0
LINE
  5
D8
100
AcDbEntity
  8
0
  6
ByLayer
 62
    5
370
   -1
100
AcDbLine
 10
25.513
 20
-24.8255
 11
25.75
 21
-24.936
  0
LINE
  5
D9
100
AcDbEntity
  8
0
  6
ByLayer
 62
    5
370
   -1
100
AcDbLine
 10
25.75
 20
-24.936
 11
25.9642
 21
-25.0859
  0
LINE
  5
DA
100
AcDbEntity
  8
0
  6
ByLayer
 62
    5
370
   -1
100
AcDbLine
 10
25.9642
 20
-25.0859
 11
26.1491
 21
-25.2708
  0
LINE
  5
DB
100
AcDbEntity
  8
0
  6
ByLayer
 62
    5
370
   -1
100
AcDbLine
 10
26.1491
 20
-25.2708
 11
26.299
 21
-25.485
  0
LINE
  5
DC
100
AcDbEntity
  8
0
  6
ByLayer
 62
    5
370
   -1
100
AcDbLine
 10
26.299
 20
-25.485
 11
26.4095
 21
-25.722
  0
LINE
  5
DD
100
AcDbEntity
  8
0
  6
ByLayer
 62
    5
370
   -1
100
AcDbLine
 10
26.4095
 20
-25.722
 11
26.4772
 21
-25.9745
  0
LINE
  5
DE
100
AcDbEntity
  8
0
  6
ByLayer
 62
    5
370
   -1
100
AcDbLine
 10
26.4772
 20
-25.9745
 11
26.5
 21
-26.235
  0
LINE
  5
DF
100
AcDbEntity
  8
0
  6
ByLayer
 62
    5
370
   -1
100
AcDbLine
 10
26.5
 20
-26.235
 11
26.4772
 21
-26.4955
  0
LINE
  5
E0
100
AcDbEntity
  8
0
  6
ByLayer
 62
    5
370
   -1
100
AcDbLine
 10
26.4772
 20
-26.4955
 11
26.4095
 21
-26.748
  0
LINE
  5
E1
100
AcDbEntity
  8
0
  6
ByLayer
 62
    5
370
   -1
100
AcDbLine
 10
26.4095
 20
-26.748
 11
26.299
 21
-26.985
  0
LINE
  5
E2
100
AcDbEntity
  8
0
  6
ByLayer
 62
    5
370
   -1
100
AcDbLine
 10
26.299
 20
-26.985
 11
26.1491
 21
-27.1992
  0
LINE
  5
E3
100
AcDbEntity
  8
0
  6
ByLayer
 62
    5
370
   -1
100
AcDbLine
 10
26.1491
 20
-27.1992
 11
25.9642
 21
-27.3841
  0
LINE
  5
E4
100
AcDbEntity
  8
0
  6
ByLayer
 62
    5
370
   -1
100
AcDbLine
 10
25.9642
 20
-27.3841
 11
25.75
 21
-27.534
  0
LINE
  5
E5
100
AcDbEntity
  8
0
  6
ByLayer
 62
    5
370
   -1
100
AcDbLine
 10
25.75
 20
-27.534
 11
25.513
 21
-27.6445
  0
LINE
  5
E6
100
AcDbEntity
  8
0
  6
ByLayer
 62
    5
370
   -1
100
AcDbLine
 10
25.513
 20
-27.6445
 11
25.2605
 21
-27.7122
  0
LINE
  5
E7
100
AcDbEntity
  8
0
  6
ByLayer
 62
    5
370
   -1
100
AcDbLine
 10
25.2605
 20
-27.7122
 11
25
 21
-27.735
  0
LINE
  5
E8
100
AcDbEntity
  8
0
  6
ByLayer
 62
    5
370
   -1
100
AcDbLine
 10
25
 20
-27.735
 11
24.7395
 21
-27.7122
  0
LINE
  5
E9
100
AcDbEntity
  8
0
  6
ByLayer
 62
    5
370
   -1
100
AcDbLine
 10
-25.2605
 20
-27.7122
 11
-25.513
 21
-27.6445
  0
LINE
  5
EA
100
AcDbEntity
  8
0
  6
ByLayer
 62
    5
370
   -1
100
AcDbLine
 10
-25.513
 20
-27.6445
 11
-25.75
 21
-27.534
  0
LINE
  5
EB
100
AcDbEntity
  8
0
  6
ByLayer
 62
    5
370
   -1
100
AcDbLine
 10
-25.75
 20
-27.534
 11
-25.9642
 21
-27.3841
  0
LINE
  5
EC
100
AcDbEntity
  8
0
  6
ByLayer
 62
    5
370
   -1
100
AcDbLine
 10
-25.9642
 20
-27.3841
 11
-26.1491
 21
-27.1992
  0
LINE
  5
ED
100
AcDbEntity
  8
0
  6
ByLayer
 62
    5
370
   -1
100
AcDbLine
 10
-26.1491
 20
-27.1992
 11
-26.299
 21
-26.985
  0
LINE
  5
EE
100
AcDbEntity
  8
0
  6
ByLayer
 62
    5
370
   -1
100
AcDbLine
 10
-26.299
 20
-26.985
 11
-26.4095
 21
-26.748
  0
LINE
  5
EF
100
AcDbEntity
  8
0
  6
ByLayer
 62
    5
370
   -1
100
AcDbLine
 10
-26.4095
 20
-26.748
 11
-26.4772
 21
-26.4955
  0
LINE
  5
F0
100
AcDbEntity
  8
0
  6
ByLayer
 62
    5
370
   -1
100
AcDbLine
 10
-26.4772
 20
-26.4955
 11
-26.5
 21
-26.235
  0
LINE
  5
F1
100
AcDbEntity
  8
0
  6
ByLayer
 62
    5
370
   -1
100
AcDbLine
 10
-26.5
 20
-26.235
 11
-26.4772
 21
-25.9745
  0
LINE
  5
F2
100
AcDbEntity
  8
0
  6
ByLayer
 62
    5
370
   -1
100
AcDbLine
 10
-26.4772
 20
-25.9745
 11
-26.4095
 21
-25.722
  0
LINE
  5
F3
100
AcDbEntity
  8
0
  6
ByLayer
 62
    5
370
   -1
100
AcDbLine
 10
-26.4095
 20
-25.722
 11
-26.299
 21
-25.485
  0
LINE
  5
F4
100
AcDbEntity
  8
0
  6
ByLayer
 62
    5
370
   -1
100
AcDbLine
 10
-26.299
 20
-25.485
 11
-26.1491
 21
-25.2708
  0
LINE
  5
F5
100
AcDbEntity
  8
0
  6
ByLayer
 62
    5
370
   -1
100
AcDbLine
 10
-26.1491
 20
-25.2708
 11
-25.9642
 21
-25.0859
  0
LINE
  5
F6
100
AcDbEntity
  8
0
  6
ByLayer
 62
    5
370
   -1
100
AcDbLine
 10
-25.9642
 20
-25.0859
 11
-25.75
 21
-24.936
  0
LINE
  5
F7
100
AcDbEntity
  8
0
  6
ByLayer
 62
    5
370
   -1
100
AcDbLine
 10
-25.75
 20
-24.936
 11
-25.513
 21
-24.8255
  0
LINE
  5
F8
100
AcDbEntity
  8
0
  6
ByLayer
 62
    5
370
   -1
100
AcDbLine
 10
-25.513
 20
-24.8255
 11
-25.2605
 21
-24.7578
  0
LINE
  5
F9
100
AcDbEntity
  8
0
  6
ByLayer
 62
    5
370
   -1
100
AcDbLine
 10
-25.2605
 20
-24.7578
 11
-25
 21
-24.735
  0
LINE
  5
FA
100
AcDbEntity
  8
0
  6
ByLayer
 62
    5
370
   -1
100
AcDbLine
 10
-25
 20
-24.735
 11
-24.7395
 21
-24.7578
  0
LINE
  5
FB
100
AcDbEntity
  8
0
  6
ByLayer
 62
    5
370
   -1
100
AcDbLine
 10
-24.7395
 20
-24.7578
 11
-24.487
 21
-24.8255
  0
LINE
  5
FC
100
AcDbEntity
  8
0
  6
ByLayer
 62
    5
370
   -1
100
AcDbLine
 10
-24.487
 20
-24.8255
 11
-24.25
 21
-24.936
  0
LINE
  5
FD
100
AcDbEntity
  8
0
  6
ByLayer
 62
    5
370
   -1
100
AcDbLine
 10
-24.25
 20
-24.936
 11
-24.0358
 21
-25.0859
  0
LINE
  5
FE
100
AcDbEntity
  8
0
  6
ByLayer
 62
    5
370
   -1
100
AcDbLine
 10
-24.0358
 20
-25.0859
 11
-23.8509
 21
-25.2708
  0
LINE
  5
FF
100
AcDbEntity
  8
0
  6
ByLayer
 62
    5
370
   -1
100
AcDbLine
 10
-23.8509
 20
-25.2708
 11
-23.701
 21
-25.485
  0
LINE
  5
100
100
AcDbEntity
  8
0
  6
ByLayer
 62
    5
370
   -1
100
AcDbLine
 10
-23.701
 20
-25.485
 11
-23.5905
 21
-25.722
  0
LINE
  5
101
100
AcDbEntity
  8
0
  6
ByLayer
 62
    5
370
   -1
100
AcDbLine
 10
-23.5905
 20
-25.722
 11
-23.5228
 21
-25.9745
  0
LINE
  5
102
100
AcDbEntity
  8
0
  6
ByLayer
 62
    5
370
   -1
100
AcDbLine
 10
-23.5228
 20
-25.9745
 11
-23.5
 21
-26.235
  0
LINE
  5
103
100
AcDbEntity
  8
0
  6
ByLayer
 62
    5
370
   -1
100
AcDbLine
 10
-23.5
 20
-26.235
 11
-23.5228
 21
-26.4955
  0
LINE
  5
104
100
AcDbEntity
  8
0
  6
ByLayer
 62
    5
370
   -1
100
AcDbLine
 10
-23.5228
 20
-26.4955
 11
-23.5905
 21
-26.748
  0
LINE
  5
105
100
AcDbEntity
  8
0
  6
ByLayer
 62
    5
370
   -1
100
AcDbLine
 10
-23.5905
 20
-26.748
 11
-23.701
 21
-26.985
  0
LINE
  5
106
100
AcDbEntity
  8
0
  6
ByLayer
 62
    5
370
   -1
100
AcDbLine
 10
-23.701
 20
-26.985
 11
-23.8509
 21
-27.1992
  0
LINE
  5
107
100
AcDbEntity
  8
0
  6
ByLayer
 62
    5
370
   -1
100
AcDbLine
 10
-23.8509
 20
-27.1992
 11
-24.0358
 21
-27.3841
  0
LINE
  5
108
100
AcDbEntity
  8
0
  6
ByLayer
 62
    5
370
   -1
100
AcDbLine
 10
-24.0358
 20
-27.3841
 11
-24.25
 21
-27.534
  0
LINE
  5
109
100
AcDbEntity
  8
0
  6
ByLayer
 62
    5
370
   -1
100
AcDbLine
 10
-24.25
 20
-27.534
 11
-24.487
 21
-27.6445
  0
LINE
  5
10A
100
AcDbEntity
  8
0
  6
ByLayer
 62
    5
370
   -1
100
AcDbLine
 10
-24.487
 20
-27.6445
 11
-24.7395
 21
-27.7122
  0
LINE
  5
10B
100
AcDbEntity
  8
0
  6
ByLayer
 62
    5
370
   -1
100
AcDbLine
 10
-24.7395
 20
-27.7122
 11
-25
 21
-27.735
  0
LINE
  5
10C
100
AcDbEntity
  8
0
  6
ByLayer
 62
    5
370
   -1
100
AcDbLine
 10
-25
 20
-27.735
 11
-25.2605
 21
-27.7122
  0
LINE
  5
10D
100
AcDbEntity
  8
0
  6
ByLayer
 62
    5
370
   -1
100
AcDbLine
 10
-7.40393
 20
-331.275
 11
-14.7876
 21
-330.694
  0
LINE
  5
10E
100
AcDbEntity
  8
0
  6
ByLayer
 62
    5
370
   -1
100
AcDbLine
 10
-14.7876
 20
-330.694
 11
-22.1307
 21
-329.727
  0
LINE
  5
10F
100
AcDbEntity
  8
0
  6
ByLayer
 62
    5
370
   -1
100
AcDbLine
 10
-22.1307
 20
-329.727
 11
-29.4131
 21
-328.377
  0
LINE
  5
110
100
AcDbEntity
  8
0
  6
ByLayer
 62
    5
370
   -1
100
AcDbLine
 10
-29.4131
 20
-328.377
 11
-36.615
 21
-326.648
  0
LINE
  5
111
100
AcDbEntity
  8
0
  6
ByLayer
 62
    5
370
   -1
100
AcDbLine
 10
-36.615
 20
-326.648
 11
-43.7165
 21
-324.545
  0
LINE
  5
112
100
AcDbEntity
  8
0
  6
ByLayer
 62
    5
370
   -1
100
AcDbLine
 10
-43.7165
 20
-324.545
 11
-50.6981
 21
-322.073
  0
LINE
  5
113
100
AcDbEntity
  8
0
  6
ByLayer
 62
    5
370
   -1
100
AcDbLine
 10
-50.6981
 20
-322.073
 11
-57.5408
 21
-319.238
  0
LINE
  5
114
100
AcDbEntity
  8
0
  6
ByLayer
 62
    5
370
   -1
100
AcDbLine
 10
-57.5408
 20
-319.238
 11
-64.22580000000001
 21
-316.05
  0
LINE
  5
115
100
AcDbEntity
  8
0
  6
ByLayer
 62
    5
370
   -1
100
AcDbLine
 10
-64.22580000000001
 20
-316.05
 11
-70.7347
 21
-312.516
  0
LINE
  5
116
100
AcDbEntity
  8
0
  6
ByLayer
 62
    5
370
   -1
100
AcDbLine
 10
-70.7347
 20
-312.516
 11
-77.0498
 21
-308.646
  0
LINE
  5
117
100
AcDbEntity
  8
0
  6
ByLayer
 62
    5
370
   -1
100
AcDbLine
 10
-77.0498
 20
-308.646
 11
-83.1537
 21
-304.451
  0
LINE
  5
118
100
AcDbEntity
  8
0
  6
ByLayer
 62
    5
370
   -1
100
AcDbLine
 10
-83.1537
 20
-304.451
 11
-89.0296
 21
-299.942
  0
LINE
  5
119
100
AcDbEntity
  8
0
  6
ByLayer
 62
    5
370
   -1
100
AcDbLine
 10
-89.0296
 20
-299.942
 11
-94.6615
 21
-295.132
  0
LINE
  5
11A
100
AcDbEntity
  8
0
  6
ByLayer
 62
    5
370
   -1
100
AcDbLine
 10
-94.6615
 20
-295.132
 11
-100.034
 21
-290.033
  0
LINE
  5
11B
100
AcDbEntity
  8
0
  6
ByLayer
 62
    5
370
   -1
100
AcDbLine
 10
-100.034
 20
-290.033
 11
-105.132
 21
-284.661
  0
LINE
  5
11C
100
AcDbEntity
  8
0
  6
ByLayer
 62
    5
370
   -1
100
AcDbLine
 10
-105.132
 20
-284.661
 11
-109.942
 21
-279.029
  0
LINE
  5
11D
100
AcDbEntity
  8
0
  6
ByLayer
 62
    5
370
   -1
100
AcDbLine
 10
-109.942
 20
-279.029
 11
-114.451
 21
-273.153
  0
LINE
  5
11E
100
AcDbEntity
  8
0
  6
ByLayer
 62
    5
370
   -1
100
AcDbLine
 10
-114.451
 20
-273.153
 11
-118.646
 21
-267.049
  0
LINE
  5
11F
100
AcDbEntity
  8
0
  6
ByLayer
 62
    5
370
   -1
100
AcDbLine
 10
-118.646
 20
-267.049
 11
-122.516
 21
-260.734
  0
LINE
  5
120
100
AcDbEntity
  8
0
  6
ByLayer
 62
    5
370
   -1
100
AcDbLine
 10
-122.516
 20
-260.734
 11
-126.05
 21
-254.225
  0
LINE
  5
121
100
AcDbEntity
  8
0
  6
ByLayer
 62
    5
370
   -1
100
AcDbLine
 10
-126.05
 20
-254.225
 11
-129.239
 21
-247.54
  0
LINE
  5
122
100
AcDbEntity
  8
0
  6
ByLayer
 62
    5
370
   -1
100
AcDbLine
 10
-129.239
 20
-247.54
 11
-132.073
 21
-240.698
  0
LINE
  5
123
100
AcDbEntity
  8
0
  6
ByLayer
 62
    5
370
   -1
100
AcDbLine
 10
-132.073
 20
-240.698
 11
-134.545
 21
-233.716
  0
LINE
  5
124
100
AcDbEntity
  8
0
  6
ByLayer
 62
    5
370
   -1
100
AcDbLine
 10
-134.545
 20
-233.716
 11
-136.649
 21
-226.614
  0
LINE
  5
125
100
AcDbEntity
  8
0
  6
ByLayer
 62
    5
370
   -1
100
AcDbLine
 10
-136.649
 20
-226.614
 11
-138.378
 21
-219.413
  0
LINE
  5
126
100
AcDbEntity
  8
0
  6
ByLayer
 62
    5
370
   -1
100
AcDbLine
 10
-138.378
 20
-219.413
 11
-139.728
 21
-212.13
  0
LINE
  5
127
100
AcDbEntity
  8
0
  6
ByLayer
 62
    5
370
   -1
100
AcDbLine
 10
-139.728
 20
-212.13
 11
-140.694
 21
-204.787
  0
LINE
  5
128
100
AcDbEntity
  8
0
  6
ByLayer
 62
    5
370
   -1
100
AcDbLine
 10
-140.694
 20
-204.787
 11
-141.276
 21
-197.403
  0
LINE
  5
129
100
AcDbEntity
  8
0
  6
ByLayer
 62
    5
370
   -1
100
AcDbLine
 10
-141.276
 20
-197.403
 11
-141.469
 21
-189.999
  0
LINE
  5
12A
100
AcDbEntity
  8
0
  6
ByLayer
 62
    5
370
   -1
100
AcDbLine
 10
-141.469
 20
-189.999
 11
-141.276
 21
-182.596
  0
LINE
  5
12B
100
AcDbEntity
  8
0
  6
ByLayer
 62
    5
370
   -1
100
AcDbLine
 10
-141.276
 20
-182.596
 11
-140.694
 21
-175.212
  0
LINE
  5
12C
100
AcDbEntity
  8
0
  6
ByLayer
 62
    5
370
   -1
100
AcDbLine
 10
-140.694
 20
-175.212
 11
-139.728
 21
-167.869
  0
LINE
  5
12D
100
AcDbEntity
  8
0
  6
ByLayer
 62
    5
370
   -1
100
AcDbLine
 10
-139.728
 20
-167.869
 11
-138.378
 21
-160.586
  0
LINE
  5
12E
100
AcDbEntity
  8
0
  6
ByLayer
 62
    5
370
   -1
100
AcDbLine
 10
-138.378
 20
-160.586
 11
-136.649
 21
-153.384
  0
LINE
  5
12F
100
AcDbEntity
  8
0
  6
ByLayer
 62
    5
370
   -1
100
AcDbLine
 10
-136.649
 20
-153.384
 11
-134.545
 21
-146.283
  0
LINE
  5
130
100
AcDbEntity
  8
0
  6
ByLayer
 62
    5
370
   -1
100
AcDbLine
 10
-134.545
 20
-146.283
 11
-132.073
 21
-139.301
  0
LINE
  5
131
100
AcDbEntity
  8
0
  6
ByLayer
 62
    5
370
   -1
100
AcDbLine
 10
-132.073
 20
-139.301
 11
-129.239
 21
-132.459
  0
LINE
  5
132
100
AcDbEntity
  8
0
  6
ByLayer
 62
    5
370
   -1
100
AcDbLine
 10
-129.239
 20
-132.459
 11
-126.05
 21
-125.774
  0
LINE
  5
133
100
AcDbEntity
  8
0
  6
ByLayer
 62
    5
370
   -1
100
AcDbLine
 10
-126.05
 20
-125.774
 11
-122.516
 21
-119.265
  0
LINE
  5
134
100
AcDbEntity
  8
0
  6
ByLayer
 62
    5
370
   -1
100
AcDbLine
 10
-122.516
 20
-119.265
 11
-118.646
 21
-112.95
  0
LINE
  5
135
100
AcDbEntity
  8
0
  6
ByLayer
 62
    5
370
   -1
100
AcDbLine
 10
-118.646
 20
-112.95
 11
-114.451
 21
-106.846
  0
LINE
  5
136
100
AcDbEntity
  8
0
  6
ByLayer
 62
    5
370
   -1
100
AcDbLine
 10
-114.451
 20
-106.846
 11
-109.942
 21
-100.97
  0
LINE
  5
137
100
AcDbEntity
  8
0
  6
ByLayer
 62
    5
370
   -1
100
AcDbLine
 10
-109.942
 20
-100.97
 11
-105.132
 21
-95.3379
  0
LINE
  5
138
100
AcDbEntity
  8
0
  6
ByLayer
 62
    5
370
   -1
100
AcDbLine
 10
-105.132
 20
-95.3379
 11
-100.034
 21
-89.9654
  0
LINE
  5
139
100
AcDbEntity
  8
0
  6
ByLayer
 62
    5
370
   -1
100
AcDbLine
 10
-100.034
 20
-89.9654
 11
-94.6615
 21
-84.8672
  0
LINE
  5
13A
100
AcDbEntity
  8
0
  6
ByLayer
 62
    5
370
   -1
100
AcDbLine
 10
-94.6615
 20
-84.8672
 11
-89.0296
 21
-80.057
  0
LINE
  5
13B
100
AcDbEntity
  8
0
  6
ByLayer
 62
    5
370
   -1
100
AcDbLine
 10
-89.0296
 20
-80.057
 11
-83.1537
 21
-75.5483
  0
LINE
  5
13C
100
AcDbEntity
  8
0
  6
ByLayer
 62
    5
370
   -1
100
AcDbLine
 10
-83.1537
 20
-75.5483
 11
-77.0498
 21
-71.3532
  0
LINE
  5
13D
100
AcDbEntity
  8
0
  6
ByLayer
 62
    5
370
   -1
100
AcDbLine
 10
-77.0498
 20
-71.3532
 11
-70.7347
 21
-67.4833
  0
LINE
  5
13E
100
AcDbEntity
  8
0
  6
ByLayer
 62
    5
370
   -1
100
AcDbLine
 10
-70.7347
 20
-67.4833
 11
-64.22580000000001
 21
-63.9492
  0
LINE
  5
13F
100
AcDbEntity
  8
0
  6
ByLayer
 62
    5
370
   -1
100
AcDbLine
 10
-64.22580000000001
 20
-63.9492
 11
-63.4967
 21
-63.6015
  0
LINE
  5
140
100
AcDbEntity
  8
0
  6
ByLayer
 62
    5
370
   -1
100
AcDbLine
 10
-63.4967
 20
-63.6015
 11
-63.4967
 21
-31.235
  0
LINE
  5
141
100
AcDbEntity
  8
0
  6
ByLayer
 62
    5
370
   -1
100
AcDbLine
 10
-63.4967
 20
-31.235
 11
-63.4739
 21
-30.9745
  0
LINE
  5
142
100
AcDbEntity
  8
0
  6
ByLayer
 62
    5
370
   -1
100
AcDbLine
 10
-63.4739
 20
-30.9745
 11
-63.4062
 21
-30.722
  0
LINE
  5
143
100
AcDbEntity
  8
0
  6
ByLayer
 62
    5
370
   -1
100
AcDbLine
 10
-63.4062
 20
-30.722
 11
-63.2957
 21
-30.485
  0
LINE
  5
144
100
AcDbEntity
  8
0
  6
ByLayer
 62
    5
370
   -1
100
AcDbLine
 10
-63.2957
 20
-30.485
 11
-63.1458
 21
-30.2708
  0
LINE
  5
145
100
AcDbEntity
  8
0
  6
ByLayer
 62
    5
370
   -1
100
AcDbLine
 10
-63.1458
 20
-30.2708
 11
-62.9609
 21
-30.0859
  0
LINE
  5
146
100
AcDbEntity
  8
0
  6
ByLayer
 62
    5
370
   -1
100
AcDbLine
 10
-62.9609
 20
-30.0859
 11
-62.7467
 21
-29.936
  0
LINE
  5
147
100
AcDbEntity
  8
0
  6
ByLayer
 62
    5
370
   -1
100
AcDbLine
 10
-62.7467
 20
-29.936
 11
-62.5097
 21
-29.8255
  0
LINE
  5
148
100
AcDbEntity
  8
0
  6
ByLayer
 62
    5
370
   -1
100
AcDbLine
 10
-62.5097
 20
-29.8255
 11
-62.2572
 21
-29.7578
  0
LINE
  5
149
100
AcDbEntity
  8
0
  6
ByLayer
 62
    5
370
   -1
100
AcDbLine
 10
-62.2572
 20
-29.7578
 11
-61.9967
 21
-29.735
  0
LINE
  5
14A
100
AcDbEntity
  8
0
  6
ByLayer
 62
    5
370
   -1
100
AcDbLine
 10
-61.9967
 20
-29.735
 11
-61.7362
 21
-29.7578
  0
LINE
  5
14B
100
AcDbEntity
  8
0
  6
ByLayer
 62
    5
370
   -1
100
AcDbLine
 10
-61.7362
 20
-29.7578
 11
-61.4837
 21
-29.8255
  0
LINE
  5
14C
100
AcDbEntity
  8
0
  6
ByLayer
 62
    5
370
   -1
100
AcDbLine
 10
-61.4837
 20
-29.8255
 11
-61.2467
 21
-29.936
  0
LINE
  5
14D
100
AcDbEntity
  8
0
  6
ByLayer
 62
    5
370
   -1
100
AcDbLine
 10
-61.2467
 20
-29.936
 11
-61.0325
 21
-30.0859
  0
LINE
  5
14E
100
AcDbEntity
  8
0
  6
ByLayer
 62
    5
370
   -1
100
AcDbLine
 10
-61.0325
 20
-30.0859
 11
-60.8476
 21
-30.2708
  0
LINE
  5
14F
100
AcDbEntity
  8
0
  6
ByLayer
 62
    5
370
   -1
100
AcDbLine
 10
-60.8476
 20
-30.2708
 11
-60.6976
 21
-30.485
  0
LINE
  5
150
100
AcDbEntity
  8
0
  6
ByLayer
 62
    5
370
   -1
100
AcDbLine
 10
-60.6976
 20
-30.485
 11
-60.5872
 21
-30.722
  0
LINE
  5
151
100
AcDbEntity
  8
0
  6
ByLayer
 62
    5
370
   -1
100
AcDbLine
 10
-60.5872
 20
-30.722
 11
-60.5195
 21
-30.9745
  0
LINE
  5
152
100
AcDbEntity
  8
0
  6
ByLayer
 62
    5
370
   -1
100
AcDbLine
 10
-60.5195
 20
-30.9745
 11
-60.4967
 21
-31.235
  0
LINE
  5
153
100
AcDbEntity
  8
0
  6
ByLayer
 62
    5
370
   -1
100
AcDbLine
 10
-60.4967
 20
-31.235
 11
60.4967
 21
-31.235
  0
LINE
  5
154
100
AcDbEntity
  8
0
  6
ByLayer
 62
    5
370
   -1
100
AcDbLine
 10
60.4967
 20
-31.235
 11
60.5195
 21
-30.9745
  0
LINE
  5
155
100
AcDbEntity
  8
0
  6
ByLayer
 62
    5
370
   -1
100
AcDbLine
 10
60.5195
 20
-30.9745
 11
60.5872
 21
-30.722
  0
LINE
  5
156
100
AcDbEntity
  8
0
  6
ByLayer
 62
    5
370
   -1
100
AcDbLine
 10
60.5872
 20
-30.722
 11
60.6976
 21
-30.485
  0
LINE
  5
157
100
AcDbEntity
  8
0
  6
ByLayer
 62
    5
370
   -1
100
AcDbLine
 10
60.6976
 20
-30.485
 11
60.8476
 21
-30.2708
  0
LINE
  5
158
100
AcDbEntity
  8
0
  6
ByLayer
 62
    5
370
   -1
100
AcDbLine
 10
60.8476
 20
-30.2708
 11
61.0325
 21
-30.0859
  0
LINE
  5
159
100
AcDbEntity
  8
0
  6
ByLayer
 62
    5
370
   -1
100
AcDbLine
 10
61.0325
 20
-30.0859
 11
61.2467
 21
-29.936
  0
LINE
  5
15A
100
AcDbEntity
  8
0
  6
ByLayer
 62
    5
370
   -1
100
AcDbLine
 10
61.2467
 20
-29.936
 11
61.4837
 21
-29.8255
  0
LINE
  5
15B
100
AcDbEntity
  8
0
  6
ByLayer
 62
    5
370
   -1
100
AcDbLine
 10
61.4837
 20
-29.8255
 11
61.7362
 21
-29.7578
  0
LINE
  5
15C
100
AcDbEntity
  8
0
  6
ByLayer
 62
    5
370
   -1
100
AcDbLine
 10
61.7362
 20
-29.7578
 11
61.9967
 21
-29.735
  0
LINE
  5
15D
100
AcDbEntity
  8
0
  6
ByLayer
 62
    5
370
   -1
100
AcDbLine
 10
61.9967
 20
-29.735
 11
62.2572
 21
-29.7578
  0
LINE
  5
15E
100
AcDbEntity
  8
0
  6
ByLayer
 62
    5
370
   -1
100
AcDbLine
 10
62.2572
 20
-29.7578
 11
62.5097
 21
-29.8255
  0
LINE
  5
15F
100
AcDbEntity
  8
0
  6
ByLayer
 62
    5
370
   -1
100
AcDbLine
 10
62.5097
 20
-29.8255
 11
62.7467
 21
-29.936
  0
LINE
  5
160
100
AcDbEntity
  8
0
  6
ByLayer
 62
    5
370
   -1
100
AcDbLine
 10
62.7467
 20
-29.936
 11
62.9609
 21
-30.0859
  0
LINE
  5
161
100
AcDbEntity
  8
0
  6
ByLayer
 62
    5
370
   -1
100
AcDbLine
 10
62.9609
 20
-30.0859
 11
63.1458
 21
-30.2708
  0
LINE
  5
162
100
AcDbEntity
  8
0
  6
ByLayer
 62
    5
370
   -1
100
AcDbLine
 10
63.1458
 20
-30.2708
 11
63.2957
 21
-30.485
  0
LINE
  5
163
100
AcDbEntity
  8
0
  6
ByLayer
 62
    5
370
   -1
100
AcDbLine
 10
63.2957
 20
-30.485
 11
63.4062
 21
-30.722
  0
LINE
  5
164
100
AcDbEntity
  8
0
  6
ByLayer
 62
    5
370
   -1
100
AcDbLine
 10
63.4062
 20
-30.722
 11
63.4739
 21
-30.9745
  0
LINE
  5
165
100
AcDbEntity
  8
0
  6
ByLayer
 62
    5
370
   -1
100
AcDbLine
 10
63.4739
 20
-30.9745
 11
63.4967
 21
-31.235
  0
LINE
  5
166
100
AcDbEntity
  8
0
  6
ByLayer
 62
    5
370
   -1
100
AcDbLine
 10
63.4967
 20
-31.235
 11
63.4967
 21
-63.6015
  0
LINE
  5
167
100
AcDbEntity
  8
0
  6
ByLayer
 62
    5
370
   -1
100
AcDbLine
 10
63.4967
 20
-63.6015
 11
64.22580000000001
 21
-63.9492
  0
LINE
  5
168
100
AcDbEntity
  8
0
  6
ByLayer
 62
    5
370
   -1
100
AcDbLine
 10
64.22580000000001
 20
-63.9492
 11
70.7347
 21
-67.4833
  0
LINE
  5
169
100
AcDbEntity
  8
0
  6
ByLayer
 62
    5
370
   -1
100
AcDbLine
 10
70.7347
 20
-67.4833
 11
77.0498
 21
-71.3532
  0
LINE
  5
16A
100
AcDbEntity
  8
0
  6
ByLayer
 62
    5
370
   -1
100
AcDbLine
 10
77.0498
 20
-71.3532
 11
83.1537
 21
-75.5483
  0
LINE
  5
16B
100
AcDbEntity
  8
0
  6
ByLayer
 62
    5
370
   -1
100
AcDbLine
 10
83.1537
 20
-75.5483
 11
89.0296
 21
-80.057
  0
LINE
  5
16C
100
AcDbEntity
  8
0
  6
ByLayer
 62
    5
370
   -1
100
AcDbLine
 10
89.0296
 20
-80.057
 11
94.6615
 21
-84.8672
  0
LINE
  5
16D
100
AcDbEntity
  8
0
  6
ByLayer
 62
    5
370
   -1
100
AcDbLine
 10
94.6615
 20
-84.8672
 11
100.034
 21
-89.9654
  0
LINE
  5
16E
100
AcDbEntity
  8
0
  6
ByLayer
 62
    5
370
   -1
100
AcDbLine
 10
100.034
 20
-89.9654
 11
105.132
 21
-95.3379
  0
LINE
  5
16F
100
AcDbEntity
  8
0
  6
ByLayer
 62
    5
370
   -1
100
AcDbLine
 10
105.132
 20
-95.3379
 11
109.942
 21
-100.97
  0
LINE
  5
170
100
AcDbEntity
  8
0
  6
ByLayer
 62
    5
370
   -1
100
AcDbLine
 10
109.942
 20
-100.97
 11
114.451
 21
-106.846
  0
LINE
  5
171
100
AcDbEntity
  8
0
  6
ByLayer
 62
    5
370
   -1
100
AcDbLine
 10
114.451
 20
-106.846
 11
118.646
 21
-112.95
  0
LINE
  5
172
100
AcDbEntity
  8
0
  6
ByLayer
 62
    5
370
   -1
100
AcDbLine
 10
118.646
 20
-112.95
 11
122.516
 21
-119.265
  0
LINE
  5
173
100
AcDbEntity
  8
0
  6
ByLayer
 62
    5
370
   -1
100
AcDbLine
 10
122.516
 20
-119.265
 11
126.05
 21
-125.774
  0
LINE
  5
174
100
AcDbEntity
  8
0
  6
ByLayer
 62
    5
370
   -1
100
AcDbLine
 10
126.05
 20
-125.774
 11
129.239
 21
-132.459
  0
LINE
  5
175
100
AcDbEntity
  8
0
  6
ByLayer
 62
    5
370
   -1
100
AcDbLine
 10
129.239
 20
-132.459
 11
132.073
 21
-139.301
  0
LINE
  5
176
100
AcDbEntity
  8
0
  6
ByLayer
 62
    5
370
   -1
100
AcDbLine
 10
132.073
 20
-139.301
 11
134.545
 21
-146.283
  0
LINE
  5
177
100
AcDbEntity
  8
0
  6
ByLayer
 62
    5
370
   -1
100
AcDbLine
 10
134.545
 20
-146.283
 11
136.649
 21
-153.384
  0
LINE
  5
178
100
AcDbEntity
  8
0
  6
ByLayer
 62
    5
370
   -1
100
AcDbLine
 10
136.649
 20
-153.384
 11
138.378
 21
-160.586
  0
LINE
  5
179
100
AcDbEntity
  8
0
  6
ByLayer
 62
    5
370
   -1
100
AcDbLine
 10
138.378
 20
-160.586
 11
139.728
 21
-167.869
  0
LINE
  5
17A
100
AcDbEntity
  8
0
  6
ByLayer
 62
    5
370
   -1
100
AcDbLine
 10
139.728
 20
-167.869
 11
140.694
 21
-175.212
  0
LINE
  5
17B
100
AcDbEntity
  8
0
  6
ByLayer
 62
    5
370
   -1
100
AcDbLine
 10
140.694
 20
-175.212
 11
141.276
 21
-182.596
  0
LINE
  5
17C
100
AcDbEntity
  8
0
  6
ByLayer
 62
    5
370
   -1
100
AcDbLine
 10
141.276
 20
-182.596
 11
141.469
 21
-189.999
  0
LINE
  5
17D
100
AcDbEntity
  8
0
  6
ByLayer
 62
    5
370
   -1
100
AcDbLine
 10
141.469
 20
-189.999
 11
141.276
 21
-197.403
  0
LINE
  5
17E
100
AcDbEntity
  8
0
  6
ByLayer
 62
    5
370
   -1
100
AcDbLine
 10
141.276
 20
-197.403
 11
140.694
 21
-204.787
  0
LINE
  5
17F
100
AcDbEntity
  8
0
  6
ByLayer
 62
    5
370
   -1
100
AcDbLine
 10
140.694
 20
-204.787
 11
139.728
 21
-212.13
  0
LINE
  5
180
100
AcDbEntity
  8
0
  6
ByLayer
 62
    5
370
   -1
100
AcDbLine
 10
139.728
 20
-212.13
 11
138.378
 21
-219.413
  0
LINE
  5
181
100
AcDbEntity
  8
0
  6
ByLayer
 62
    5
370
   -1
100
AcDbLine
 10
138.378
 20
-219.413
 11
136.649
 21
-226.614
  0
LINE
  5
182
100
AcDbEntity
  8
0
  6
ByLayer
 62
    5
370
   -1
100
AcDbLine
 10
136.649
 20
-226.614
 11
134.545
 21
-233.716
  0
LINE
  5
183
100
AcDbEntity
  8
0
  6
ByLayer
 62
    5
370
   -1
100
AcDbLine
 10
134.545
 20
-233.716
 11
132.073
 21
-240.698
  0
LINE
  5
184
100
AcDbEntity
  8
0
  6
ByLayer
 62
    5
370
   -1
100
AcDbLine
 10
132.073
 20
-240.698
 11
129.239
 21
-247.54
  0
LINE
  5
185
100
AcDbEntity
  8
0
  6
ByLayer
 62
    5
370
   -1
100
AcDbLine
 10
129.239
 20
-247.54
 11
126.05
 21
-254.225
  0
LINE
  5
186
100
AcDbEntity
  8
0
  6
ByLayer
 62
    5
370
   -1
100
AcDbLine
 10
126.05
 20
-254.225
 11
122.516
 21
-260.734
  0
LINE
  5
187
100
AcDbEntity
  8
0
  6
ByLayer
 62
    5
370
   -1
100
AcDbLine
 10
122.516
 20
-260.734
 11
118.646
 21
-267.049
  0
LINE
  5
188
100
AcDbEntity
  8
0
  6
ByLayer
 62
    5
370
   -1
100
AcDbLine
 10
118.646
 20
-267.049
 11
114.451
 21
-273.153
  0
LINE
  5
189
100
AcDbEntity
  8
0
  6
ByLayer
 62
    5
370
   -1
100
AcDbLine
 10
114.451
 20
-273.153
 11
109.942
 21
-279.029
  0
LINE
  5
18A
100
AcDbEntity
  8
0
  6
ByLayer
 62
    5
370
   -1
100
AcDbLine
 10
109.942
 20
-279.029
 11
105.132
 21
-284.661
  0
LINE
  5
18B
100
AcDbEntity
  8
0
  6
ByLayer
 62
    5
370
   -1
100
AcDbLine
 10
105.132
 20
-284.661
 11
100.034
 21
-290.033
  0
LINE
  5
18C
100
AcDbEntity
  8
0
  6
ByLayer
 62
    5
370
   -1
100
AcDbLine
 10
100.034
 20
-290.033
 11
94.6615
 21
-295.132
  0
LINE
  5
18D
100
AcDbEntity
  8
0
  6
ByLayer
 62
    5
370
   -1
100
AcDbLine
 10
94.6615
 20
-295.132
 11
89.0296
 21
-299.942
  0
LINE
  5
18E
100
AcDbEntity
  8
0
  6
ByLayer
 62
    5
370
   -1
100
AcDbLine
 10
89.0296
 20
-299.942
 11
83.1537
 21
-304.451
  0
LINE
  5
18F
100
AcDbEntity
  8
0
  6
ByLayer
 62
    5
370
   -1
100
AcDbLine
 10
83.1537
 20
-304.451
 11
77.0498
 21
-308.646
  0
LINE
  5
190
100
AcDbEntity
  8
0
  6
ByLayer
 62
    5
370
   -1
100
AcDbLine
 10
77.0498
 20
-308.646
 11
70.7347
 21
-312.516
  0
LINE
  5
191
100
AcDbEntity
  8
0
  6
ByLayer
 62
    5
370
   -1
100
AcDbLine
 10
70.7347
 20
-312.516
 11
64.22580000000001
 21
-316.05
  0
LINE
  5
192
100
AcDbEntity
  8
0
  6
ByLayer
 62
    5
370
   -1
100
AcDbLine
 10
64.22580000000001
 20
-316.05
 11
57.5408
 21
-319.238
  0
LINE
  5
193
100
AcDbEntity
  8
0
  6
ByLayer
 62
    5
370
   -1
100
AcDbLine
 10
57.5408
 20
-319.238
 11
50.6981
 21
-322.073
  0
LINE
  5
194
100
AcDbEntity
  8
0
  6
ByLayer
 62
    5
370
   -1
100
AcDbLine
 10
50.6981
 20
-322.073
 11
43.7165
 21
-324.545
  0
LINE
  5
195
100
AcDbEntity
  8
0
  6
ByLayer
 62
    5
370
   -1
100
AcDbLine
 10
43.7165
 20
-324.545
 11
36.615
 21
-326.648
  0
LINE
  5
196
100
AcDbEntity
  8
0
  6
ByLayer
 62
    5
370
   -1
100
AcDbLine
 10
36.615
 20
-326.648
 11
29.4131
 21
-328.377
  0
LINE
  5
197
100
AcDbEntity
  8
0
  6
ByLayer
 62
    5
370
   -1
100
AcDbLine
 10
29.4131
 20
-328.377
 11
22.1307
 21
-329.727
  0
LINE
  5
198
100
AcDbEntity
  8
0
  6
ByLayer
 62
    5
370
   -1
100
AcDbLine
 10
22.1307
 20
-329.727
 11
14.7876
 21
-330.694
  0
LINE
  5
199
100
AcDbEntity
  8
0
  6
ByLayer
 62
    5
370
   -1
100
AcDbLine
 10
14.7876
 20
-330.694
 11
7.40393
 21
-331.275
  0
LINE
  5
19A
100
AcDbEntity
  8
0
  6
ByLayer
 62
    5
370
   -1
100
AcDbLine
 10
7.40393
 20
-331.275
 11
0
 21
-331.469
  0
LINE
  5
19B
100
AcDbEntity
  8
0
  6
ByLayer
 62
    5
370
   -1
100
AcDbLine
 10
0
 20
-331.469
 11
-7.40393
 21
-331.275
  0
LINE
  5
19C
100
AcDbEntity
  8
0
  6
ByLayer
 62
    5
370
   -1
100
AcDbLine
 10
67.7362
 20
-37.8239
 11
67.4837
 21
-37.7562
  0
LINE
  5
19D
100
AcDbEntity
  8
0
  6
ByLayer
 62
    5
370
   -1
100
AcDbLine
 10
67.4837
 20
-37.7562
 11
67.2467
 21
-37.6457
  0
LINE
  5
19E
100
AcDbEntity
  8
0
  6
ByLayer
 62
    5
370
   -1
100
AcDbLine
 10
67.2467
 20
-37.6457
 11
67.0325
 21
-37.4957
  0
LINE
  5
19F
100
AcDbEntity
  8
0
  6
ByLayer
 62
    5
370
   -1
100
AcDbLine
 10
67.0325
 20
-37.4957
 11
66.8476
 21
-37.3109
  0
LINE
  5
1A0
100
AcDbEntity
  8
0
  6
ByLayer
 62
    5
370
   -1
100
AcDbLine
 10
66.8476
 20
-37.3109
 11
66.6977
 21
-37.0967
  0
LINE
  5
1A1
100
AcDbEntity
  8
0
  6
ByLayer
 62
    5
370
   -1
100
AcDbLine
 10
66.6977
 20
-37.0967
 11
66.5872
 21
-36.8597
  0
LINE
  5
1A2
100
AcDbEntity
  8
0
  6
ByLayer
 62
    5
370
   -1
100
AcDbLine
 10
66.5872
 20
-36.8597
 11
66.51949999999999
 21
-36.6071
  0
LINE
  5
1A3
100
AcDbEntity
  8
0
  6
ByLayer
 62
    5
370
   -1
100
AcDbLine
 10
66.51949999999999
 20
-36.6071
 11
66.4967
 21
-36.3467
  0
LINE
  5
1A4
100
AcDbEntity
  8
0
  6
ByLayer
 62
    5
370
   -1
100
AcDbLine
 10
66.4967
 20
-36.3467
 11
66.51949999999999
 21
-36.0862
  0
LINE
  5
1A5
100
AcDbEntity
  8
0
  6
ByLayer
 62
    5
370
   -1
100
AcDbLine
 10
66.51949999999999
 20
-36.0862
 11
66.5872
 21
-35.8336
  0
LINE
  5
1A6
100
AcDbEntity
  8
0
  6
ByLayer
 62
    5
370
   -1
100
AcDbLine
 10
66.5872
 20
-35.8336
 11
66.6977
 21
-35.5967
  0
LINE
  5
1A7
100
AcDbEntity
  8
0
  6
ByLayer
 62
    5
370
   -1
100
AcDbLine
 10
66.6977
 20
-35.5967
 11
66.8476
 21
-35.3825
  0
LINE
  5
1A8
100
AcDbEntity
  8
0
  6
ByLayer
 62
    5
370
   -1
100
AcDbLine
 10
66.8476
 20
-35.3825
 11
67.0325
 21
-35.1976
  0
LINE
  5
1A9
100
AcDbEntity
  8
0
  6
ByLayer
 62
    5
370
   -1
100
AcDbLine
 10
67.0325
 20
-35.1976
 11
67.2467
 21
-35.0476
  0
LINE
  5
1AA
100
AcDbEntity
  8
0
  6
ByLayer
 62
    5
370
   -1
100
AcDbLine
 10
67.2467
 20
-35.0476
 11
67.4837
 21
-34.9371
  0
LINE
  5
1AB
100
AcDbEntity
  8
0
  6
ByLayer
 62
    5
370
   -1
100
AcDbLine
 10
67.4837
 20
-34.9371
 11
67.7362
 21
-34.8695
  0
LINE
  5
1AC
100
AcDbEntity
  8
0
  6
ByLayer
 62
    5
370
   -1
100
AcDbLine
 10
67.7362
 20
-34.8695
 11
67.9967
 21
-34.8467
  0
LINE
  5
1AD
100
AcDbEntity
  8
0
  6
ByLayer
 62
    5
370
   -1
100
AcDbLine
 10
67.9967
 20
-34.8467
 11
68.2572
 21
-34.8695
  0
LINE
  5
1AE
100
AcDbEntity
  8
0
  6
ByLayer
 62
    5
370
   -1
100
AcDbLine
 10
68.2572
 20
-34.8695
 11
68.5097
 21
-34.9371
  0
LINE
  5
1AF
100
AcDbEntity
  8
0
  6
ByLayer
 62
    5
370
   -1
100
AcDbLine
 10
68.5097
 20
-34.9371
 11
68.7467
 21
-35.0476
  0
LINE
  5
1B0
100
AcDbEntity
  8
0
  6
ByLayer
 62
    5
370
   -1
100
AcDbLine
 10
68.7467
 20
-35.0476
 11
68.9609
 21
-35.1976
  0
LINE
  5
1B1
100
AcDbEntity
  8
0
  6
ByLayer
 62
    5
370
   -1
100
AcDbLine
 10
68.9609
 20
-35.1976
 11
69.14579999999999
 21
-35.3825
  0
LINE
  5
1B2
100
AcDbEntity
  8
0
  6
ByLayer
 62
    5
370
   -1
100
AcDbLine
 10
69.14579999999999
 20
-35.3825
 11
69.2957
 21
-35.5967
  0
LINE
  5
1B3
100
AcDbEntity
  8
0
  6
ByLayer
 62
    5
370
   -1
100
AcDbLine
 10
69.2957
 20
-35.5967
 11
69.4062
 21
-35.8336
  0
LINE
  5
1B4
100
AcDbEntity
  8
0
  6
ByLayer
 62
    5
370
   -1
100
AcDbLine
 10
69.4062
 20
-35.8336
 11
69.4739
 21
-36.0862
  0
LINE
  5
1B5
100
AcDbEntity
  8
0
  6
ByLayer
 62
    5
370
   -1
100
AcDbLine
 10
69.4739
 20
-36.0862
 11
69.4967
 21
-36.3467
  0
LINE
  5
1B6
100
AcDbEntity
  8
0
  6
ByLayer
 62
    5
370
   -1
100
AcDbLine
 10
69.4967
 20
-36.3467
 11
69.4739
 21
-36.6071
  0
LINE
  5
1B7
100
AcDbEntity
  8
0
  6
ByLayer
 62
    5
370
   -1
100
AcDbLine
 10
69.4739
 20
-36.6071
 11
69.4062
 21
-36.8597
  0
LINE
  5
1B8
100
AcDbEntity
  8
0
  6
ByLayer
 62
    5
370
   -1
100
AcDbLine
 10
69.4062
 20
-36.8597
 11
69.2957
 21
-37.0967
  0
LINE
  5
1B9
100
AcDbEntity
  8
0
  6
ByLayer
 62
    5
370
   -1
100
AcDbLine
 10
69.2957
 20
-37.0967
 11
69.14579999999999
 21
-37.3109
  0
LINE
  5
1BA
100
AcDbEntity
  8
0
  6
ByLayer
 62
    5
370
   -1
100
AcDbLine
 10
69.14579999999999
 20
-37.3109
 11
68.9609
 21
-37.4957
  0
LINE
  5
1BB
100
AcDbEntity
  8
0
  6
ByLayer
 62
    5
370
   -1
100
AcDbLine
 10
68.9609
 20
-37.4957
 11
68.7467
 21
-37.6457
  0
LINE
  5
1BC
100
AcDbEntity
  8
0
  6
ByLayer
 62
    5
370
   -1
100
AcDbLine
 10
68.7467
 20
-37.6457
 11
68.5097
 21
-37.7562
  0
LINE
  5
1BD
100
AcDbEntity
  8
0
  6
ByLayer
 62
    5
370
   -1
100
AcDbLine
 10
68.5097
 20
-37.7562
 11
68.2572
 21
-37.8239
  0
LINE
  5
1BE
100
AcDbEntity
  8
0
  6
ByLayer
 62
    5
370
   -1
100
AcDbLine
 10
68.2572
 20
-37.8239
 11
67.9967
 21
-37.8467
  0
LINE
  5
1BF
100
AcDbEntity
  8
0
  6
ByLayer
 62
    5
370
   -1
100
AcDbLine
 10
67.9967
 20
-37.8467
 11
67.7362
 21
-37.8239
  0
LINE
  5
1C0
100
AcDbEntity
  8
0
  6
ByLayer
 62
    5
370
   -1
100
AcDbLine
 10
-68.2572
 20
-37.8239
 11
-68.5097
 21
-37.7562
  0
LINE
  5
1C1
100
AcDbEntity
  8
0
  6
ByLayer
 62
    5
370
   -1
100
AcDbLine
 10
-68.5097
 20
-37.7562
 11
-68.7467
 21
-37.6457
  0
LINE
  5
1C2
100
AcDbEntity
  8
0
  6
ByLayer
 62
    5
370
   -1
100
AcDbLine
 10
-68.7467
 20
-37.6457
 11
-68.9609
 21
-37.4957
  0
LINE
  5
1C3
100
AcDbEntity
  8
0
  6
ByLayer
 62
    5
370
   -1
100
AcDbLine
 10
-68.9609
 20
-37.4957
 11
-69.14579999999999
 21
-37.3109
  0
LINE
  5
1C4
100
AcDbEntity
  8
0
  6
ByLayer
 62
    5
370
   -1
100
AcDbLine
 10
-69.14579999999999
 20
-37.3109
 11
-69.2957
 21
-37.0967
  0
LINE
  5
1C5
100
AcDbEntity
  8
0
  6
ByLayer
 62
    5
370
   -1
100
AcDbLine
 10
-69.2957
 20
-37.0967
 11
-69.4062
 21
-36.8597
  0
LINE
  5
1C6
100
AcDbEntity
  8
0
  6
ByLayer
 62
    5
370
   -1
100
AcDbLine
 10
-69.4062
 20
-36.8597
 11
-69.4739
 21
-36.6071
  0
LINE
  5
1C7
100
AcDbEntity
  8
0
  6
ByLayer
 62
    5
370
   -1
100
AcDbLine
 10
-69.4739
 20
-36.6071
 11
-69.4967
 21
-36.3467
  0
LINE
  5
1C8
100
AcDbEntity
  8
0
  6
ByLayer
 62
    5
370
   -1
100
AcDbLine
 10
-69.4967
 20
-36.3467
 11
-69.4739
 21
-36.0862
  0
LINE
  5
1C9
100
AcDbEntity
  8
0
  6
ByLayer
 62
    5
370
   -1
100
AcDbLine
 10
-69.4739
 20
-36.0862
 11
-69.4062
 21
-35.8336
  0
LINE
  5
1CA
100
AcDbEntity
  8
0
  6
ByLayer
 62
    5
370
   -1
100
AcDbLine
 10
-69.4062
 20
-35.8336
 11
-69.2957
 21
-35.5967
  0
LINE
  5
1CB
100
AcDbEntity
  8
0
  6
ByLayer
 62
    5
370
   -1
100
AcDbLine
 10
-69.2957
 20
-35.5967
 11
-69.14579999999999
 21
-35.3825
  0
LINE
  5
1CC
100
AcDbEntity
  8
0
  6
ByLayer
 62
    5
370
   -1
100
AcDbLine
 10
-69.14579999999999
 20
-35.3825
 11
-68.9609
 21
-35.1976
  0
LINE
  5
1CD
100
AcDbEntity
  8
0
  6
ByLayer
 62
    5
370
   -1
100
AcDbLine
 10
-68.9609
 20
-35.1976
 11
-68.7467
 21
-35.0476
  0
LINE
  5
1CE
100
AcDbEntity
  8
0
  6
ByLayer
 62
    5
370
   -1
100
AcDbLine
 10
-68.7467
 20
-35.0476
 11
-68.5097
 21
-34.9371
  0
LINE
  5
1CF
100
AcDbEntity
  8
0
  6
ByLayer
 62
    5
370
   -1
100
AcDbLine
 10
-68.5097
 20
-34.9371
 11
-68.2572
 21
-34.8695
  0
LINE
  5
1D0
100
AcDbEntity
  8
0
  6
ByLayer
 62
    5
370
   -1
100
AcDbLine
 10
-68.2572
 20
-34.8695
 11
-67.9967
 21
-34.8467
  0
LINE
  5
1D1
100
AcDbEntity
  8
0
  6
ByLayer
 62
    5
370
   -1
100
AcDbLine
 10
-67.9967
 20
-34.8467
 11
-67.7362
 21
-34.8695
  0
LINE
  5
1D2
100
AcDbEntity
  8
0
  6
ByLayer
 62
    5
370
   -1
100
AcDbLine
 10
-67.7362
 20
-34.8695
 11
-67.4837
 21
-34.9371
  0
LINE
  5
1D3
100
AcDbEntity
  8
0
  6
ByLayer
 62
    5
370
   -1
100
AcDbLine
 10
-67.4837
 20
-34.9371
 11
-67.2467
 21
-35.0476
  0
LINE
  5
1D4
100
AcDbEntity
  8
0
  6
ByLayer
 62
    5
370
   -1
100
AcDbLine
 10
-67.2467
 20
-35.0476
 11
-67.0325
 21
-35.1976
  0
LINE
  5
1D5
100
AcDbEntity
  8
0
  6
ByLayer
 62
    5
370
   -1
100
AcDbLine
 10
-67.0325
 20
-35.1976
 11
-66.8476
 21
-35.3825
  0
LINE
  5
1D6
100
AcDbEntity
  8
0
  6
ByLayer
 62
    5
370
   -1
100
AcDbLine
 10
-66.8476
 20
-35.3825
 11
-66.6977
 21
-35.5967
  0
LINE
  5
1D7
100
AcDbEntity
  8
0
  6
ByLayer
 62
    5
370
   -1
100
AcDbLine
 10
-66.6977
 20
-35.5967
 11
-66.5872
 21
-35.8336
  0
LINE
  5
1D8
100
AcDbEntity
  8
0
  6
ByLayer
 62
    5
370
   -1
100
AcDbLine
 10
-66.5872
 20
-35.8336
 11
-66.51949999999999
 21
-36.0862
  0
LINE
  5
1D9
100
AcDbEntity
  8
0
  6
ByLayer
 62
    5
370
   -1
100
AcDbLine
 10
-66.51949999999999
 20
-36.0862
 11
-66.4967
 21
-36.3467
  0
LINE
  5
1DA
100
AcDbEntity
  8
0
  6
ByLayer
 62
    5
370
   -1
100
AcDbLine
 10
-66.4967
 20
-36.3467
 11
-66.51949999999999
 21
-36.6071
  0
LINE
  5
1DB
100
AcDbEntity
  8
0
  6
ByLayer
 62
    5
370
   -1
100
AcDbLine
 10
-66.51949999999999
 20
-36.6071
 11
-66.5872
 21
-36.8597
  0
LINE
  5
1DC
100
AcDbEntity
  8
0
  6
ByLayer
 62
    5
370
   -1
100
AcDbLine
 10
-66.5872
 20
-36.8597
 11
-66.6977
 21
-37.0967
  0
LINE
  5
1DD
100
AcDbEntity
  8
0
  6
ByLayer
 62
    5
370
   -1
100
AcDbLine
 10
-66.6977
 20
-37.0967
 11
-66.8476
 21
-37.3109
  0
LINE
  5
1DE
100
AcDbEntity
  8
0
  6
ByLayer
 62
    5
370
   -1
100
AcDbLine
 10
-66.8476
 20
-37.3109
 11
-67.0325
 21
-37.4957
  0
LINE
  5
1DF
100
AcDbEntity
  8
0
  6
ByLayer
 62
    5
370
   -1
100
AcDbLine
 10
-67.0325
 20
-37.4957
 11
-67.2467
 21
-37.6457
  0
LINE
  5
1E0
100
AcDbEntity
  8
0
  6
ByLayer
 62
    5
370
   -1
100
AcDbLine
 10
-67.2467
 20
-37.6457
 11
-67.4837
 21
-37.7562
  0
LINE
  5
1E1
100
AcDbEntity
  8
0
  6
ByLayer
 62
    5
370
   -1
100
AcDbLine
 10
-67.4837
 20
-37.7562
 11
-67.7362
 21
-37.8239
  0
LINE
  5
1E2
100
AcDbEntity
  8
0
  6
ByLayer
 62
    5
370
   -1
100
AcDbLine
 10
-67.7362
 20
-37.8239
 11
-67.9967
 21
-37.8467
  0
LINE
  5
1E3
100
AcDbEntity
  8
0
  6
ByLayer
 62
    5
370
   -1
100
AcDbLine
 10
-67.9967
 20
-37.8467
 11
-68.2572
 21
-37.8239
  0
LINE
  5
1E4
100
AcDbEntity
  8
0
  6
ByLayer
 62
    5
370
   -1
100
AcDbLine
 10
-68.2572
 20
-51.4619
 11
-68.5097
 21
-51.3942
  0
LINE
  5
1E5
100
AcDbEntity
  8
0
  6
ByLayer
 62
    5
370
   -1
100
AcDbLine
 10
-68.5097
 20
-51.3942
 11
-68.7467
 21
-51.2837
  0
LINE
  5
1E6
100
AcDbEntity
  8
0
  6
ByLayer
 62
    5
370
   -1
100
AcDbLine
 10
-68.7467
 20
-51.2837
 11
-68.9609
 21
-51.1338
  0
LINE
  5
1E7
100
AcDbEntity
  8
0
  6
ByLayer
 62
    5
370
   -1
100
AcDbLine
 10
-68.9609
 20
-51.1338
 11
-69.14579999999999
 21
-50.9489
  0
LINE
  5
1E8
100
AcDbEntity
  8
0
  6
ByLayer
 62
    5
370
   -1
100
AcDbLine
 10
-69.14579999999999
 20
-50.9489
 11
-69.2957
 21
-50.7347
  0
LINE
  5
1E9
100
AcDbEntity
  8
0
  6
ByLayer
 62
    5
370
   -1
100
AcDbLine
 10
-69.2957
 20
-50.7347
 11
-69.4062
 21
-50.4977
  0
LINE
  5
1EA
100
AcDbEntity
  8
0
  6
ByLayer
 62
    5
370
   -1
100
AcDbLine
 10
-69.4062
 20
-50.4977
 11
-69.4739
 21
-50.2452
  0
LINE
  5
1EB
100
AcDbEntity
  8
0
  6
ByLayer
 62
    5
370
   -1
100
AcDbLine
 10
-69.4739
 20
-50.2452
 11
-69.4967
 21
-49.9847
  0
LINE
  5
1EC
100
AcDbEntity
  8
0
  6
ByLayer
 62
    5
370
   -1
100
AcDbLine
 10
-69.4967
 20
-49.9847
 11
-69.4739
 21
-49.7242
  0
LINE
  5
1ED
100
AcDbEntity
  8
0
  6
ByLayer
 62
    5
370
   -1
100
AcDbLine
 10
-69.4739
 20
-49.7242
 11
-69.4062
 21
-49.4717
  0
LINE
  5
1EE
100
AcDbEntity
  8
0
  6
ByLayer
 62
    5
370
   -1
100
AcDbLine
 10
-69.4062
 20
-49.4717
 11
-69.2957
 21
-49.2347
  0
LINE
  5
1EF
100
AcDbEntity
  8
0
  6
ByLayer
 62
    5
370
   -1
100
AcDbLine
 10
-69.2957
 20
-49.2347
 11
-69.14579999999999
 21
-49.0205
  0
LINE
  5
1F0
100
AcDbEntity
  8
0
  6
ByLayer
 62
    5
370
   -1
100
AcDbLine
 10
-69.14579999999999
 20
-49.0205
 11
-68.9609
 21
-48.8356
  0
LINE
  5
1F1
100
AcDbEntity
  8
0
  6
ByLayer
 62
    5
370
   -1
100
AcDbLine
 10
-68.9609
 20
-48.8356
 11
-68.7467
 21
-48.6857
  0
LINE
  5
1F2
100
AcDbEntity
  8
0
  6
ByLayer
 62
    5
370
   -1
100
AcDbLine
 10
-68.7467
 20
-48.6857
 11
-68.5097
 21
-48.5752
  0
LINE
  5
1F3
100
AcDbEntity
  8
0
  6
ByLayer
 62
    5
370
   -1
100
AcDbLine
 10
-68.5097
 20
-48.5752
 11
-68.2572
 21
-48.5075
  0
LINE
  5
1F4
100
AcDbEntity
  8
0
  6
ByLayer
 62
    5
370
   -1
100
AcDbLine
 10
-68.2572
 20
-48.5075
 11
-67.9967
 21
-48.4847
  0
LINE
  5
1F5
100
AcDbEntity
  8
0
  6
ByLayer
 62
    5
370
   -1
100
AcDbLine
 10
-67.9967
 20
-48.4847
 11
-67.7362
 21
-48.5075
  0
LINE
  5
1F6
100
AcDbEntity
  8
0
  6
ByLayer
 62
    5
370
   -1
100
AcDbLine
 10
-67.7362
 20
-48.5075
 11
-67.4837
 21
-48.5752
  0
LINE
  5
1F7
100
AcDbEntity
  8
0
  6
ByLayer
 62
    5
370
   -1
100
AcDbLine
 10
-67.4837
 20
-48.5752
 11
-67.2467
 21
-48.6857
  0
LINE
  5
1F8
100
AcDbEntity
  8
0
  6
ByLayer
 62
    5
370
   -1
100
AcDbLine
 10
-67.2467
 20
-48.6857
 11
-67.0325
 21
-48.8356
  0
LINE
  5
1F9
100
AcDbEntity
  8
0
  6
ByLayer
 62
    5
370
   -1
100
AcDbLine
 10
-67.0325
 20
-48.8356
 11
-66.8476
 21
-49.0205
  0
LINE
  5
1FA
100
AcDbEntity
  8
0
  6
ByLayer
 62
    5
370
   -1
100
AcDbLine
 10
-66.8476
 20
-49.0205
 11
-66.6977
 21
-49.2347
  0
LINE
  5
1FB
100
AcDbEntity
  8
0
  6
ByLayer
 62
    5
370
   -1
100
AcDbLine
 10
-66.6977
 20
-49.2347
 11
-66.5872
 21
-49.4717
  0
LINE
  5
1FC
100
AcDbEntity
  8
0
  6
ByLayer
 62
    5
370
   -1
100
AcDbLine
 10
-66.5872
 20
-49.4717
 11
-66.51949999999999
 21
-49.7242
  0
LINE
  5
1FD
100
AcDbEntity
  8
0
  6
ByLayer
 62
    5
370
   -1
100
AcDbLine
 10
-66.51949999999999
 20
-49.7242
 11
-66.4967
 21
-49.9847
  0
LINE
  5
1FE
100
AcDbEntity
  8
0
  6
ByLayer
 62
    5
370
   -1
100
AcDbLine
 10
-66.4967
 20
-49.9847
 11
-66.51949999999999
 21
-50.2452
  0
LINE
  5
1FF
100
AcDbEntity
  8
0
  6
ByLayer
 62
    5
370
   -1
100
AcDbLine
 10
-66.51949999999999
 20
-50.2452
 11
-66.5872
 21
-50.4977
  0
LINE
  5
200
100
AcDbEntity
  8
0
  6
ByLayer
 62
    5
370
   -1
100
AcDbLine
 10
-66.5872
 20
-50.4977
 11
-66.6977
 21
-50.7347
  0
LINE
  5
201
100
AcDbEntity
  8
0
  6
ByLayer
 62
    5
370
   -1
100
AcDbLine
 10
-66.6977
 20
-50.7347
 11
-66.8476
 21
-50.9489
  0
LINE
  5
202
100
AcDbEntity
  8
0
  6
ByLayer
 62
    5
370
   -1
100
AcDbLine
 10
-66.8476
 20
-50.9489
 11
-67.0325
 21
-51.1338
  0
LINE
  5
203
100
AcDbEntity
  8
0
  6
ByLayer
 62
    5
370
   -1
100
AcDbLine
 10
-67.0325
 20
-51.1338
 11
-67.2467
 21
-51.2837
  0
LINE
  5
204
100
AcDbEntity
  8
0
  6
ByLayer
 62
    5
370
   -1
100
AcDbLine
 10
-67.2467
 20
-51.2837
 11
-67.4837
 21
-51.3942
  0
LINE
  5
205
100
AcDbEntity
  8
0
  6
ByLayer
 62
    5
370
   -1
100
AcDbLine
 10
-67.4837
 20
-51.3942
 11
-67.7362
 21
-51.4619
  0
LINE
  5
206
100
AcDbEntity
  8
0
  6
ByLayer
 62
    5
370
   -1
100
AcDbLine
 10
-67.7362
 20
-51.4619
 11
-67.9967
 21
-51.4847
  0
LINE
  5
207
100
AcDbEntity
  8
0
  6
ByLayer
 62
    5
370
   -1
100
AcDbLine
 10
-67.9967
 20
-51.4847
 11
-68.2572
 21
-51.4619
  0
LINE
  5
208
100
AcDbEntity
  8
0
  6
ByLayer
 62
    5
370
   -1
100
AcDbLine
 10
67.7362
 20
-51.4619
 11
67.4837
 21
-51.3942
  0
LINE
  5
209
100
AcDbEntity
  8
0
  6
ByLayer
 62
    5
370
   -1
100
AcDbLine
 10
67.4837
 20
-51.3942
 11
67.2467
 21
-51.2837
  0
LINE
  5
20A
100
AcDbEntity
  8
0
  6
ByLayer
 62
    5
370
   -1
100
AcDbLine
 10
67.2467
 20
-51.2837
 11
67.0325
 21
-51.1338
  0
LINE
  5
20B
100
AcDbEntity
  8
0
  6
ByLayer
 62
    5
370
   -1
100
AcDbLine
 10
67.0325
 20
-51.1338
 11
66.8476
 21
-50.9489
  0
LINE
  5
20C
100
AcDbEntity
  8
0
  6
ByLayer
 62
    5
370
   -1
100
AcDbLine
 10
66.8476
 20
-50.9489
 11
66.6977
 21
-50.7347
  0
LINE
  5
20D
100
AcDbEntity
  8
0
  6
ByLayer
 62
    5
370
   -1
100
AcDbLine
 10
66.6977
 20
-50.7347
 11
66.5872
 21
-50.4977
  0
LINE
  5
20E
100
AcDbEntity
  8
0
  6
ByLayer
 62
    5
370
   -1
100
AcDbLine
 10
66.5872
 20
-50.4977
 11
66.51949999999999
 21
-50.2452
  0
LINE
  5
20F
100
AcDbEntity
  8
0
  6
ByLayer
 62
    5
370
   -1
100
AcDbLine
 10
66.51949999999999
 20
-50.2452
 11
66.4967
 21
-49.9847
  0
LINE
  5
210
100
AcDbEntity
  8
0
  6
ByLayer
 62
    5
370
   -1
100
AcDbLine
 10
66.4967
 20
-49.9847
 11
66.51949999999999
 21
-49.7242
  0
LINE
  5
211
100
AcDbEntity
  8
0
  6
ByLayer
 62
    5
370
   -1
100
AcDbLine
 10
66.51949999999999
 20
-49.7242
 11
66.5872
 21
-49.4717
  0
LINE
  5
212
100
AcDbEntity
  8
0
  6
ByLayer
 62
    5
370
   -1
100
AcDbLine
 10
66.5872
 20
-49.4717
 11
66.6977
 21
-49.2347
  0
LINE
  5
213
100
AcDbEntity
  8
0
  6
ByLayer
 62
    5
370
   -1
100
AcDbLine
 10
66.6977
 20
-49.2347
 11
66.8476
 21
-49.0205
  0
LINE
  5
214
100
AcDbEntity
  8
0
  6
ByLayer
 62
    5
370
   -1
100
AcDbLine
 10
66.8476
 20
-49.0205
 11
67.0325
 21
-48.8356
  0
LINE
  5
215
100
AcDbEntity
  8
0
  6
ByLayer
 62
    5
370
   -1
100
AcDbLine
 10
67.0325
 20
-48.8356
 11
67.2467
 21
-48.6857
  0
LINE
  5
216
100
AcDbEntity
  8
0
  6
ByLayer
 62
    5
370
   -1
100
AcDbLine
 10
67.2467
 20
-48.6857
 11
67.4837
 21
-48.5752
  0
LINE
  5
217
100
AcDbEntity
  8
0
  6
ByLayer
 62
    5
370
   -1
100
AcDbLine
 10
67.4837
 20
-48.5752
 11
67.7362
 21
-48.5075
  0
LINE
  5
218
100
AcDbEntity
  8
0
  6
ByLayer
 62
    5
370
   -1
100
AcDbLine
 10
67.7362
 20
-48.5075
 11
67.9967
 21
-48.4847
  0
LINE
  5
219
100
AcDbEntity
  8
0
  6
ByLayer
 62
    5
370
   -1
100
AcDbLine
 10
67.9967
 20
-48.4847
 11
68.2572
 21
-48.5075
  0
LINE
  5
21A
100
AcDbEntity
  8
0
  6
ByLayer
 62
    5
370
   -1
100
AcDbLine
 10
68.2572
 20
-48.5075
 11
68.5097
 21
-48.5752
  0
LINE
  5
21B
100
AcDbEntity
  8
0
  6
ByLayer
 62
    5
370
   -1
100
AcDbLine
 10
68.5097
 20
-48.5752
 11
68.7467
 21
-48.6857
  0
LINE
  5
21C
100
AcDbEntity
  8
0
  6
ByLayer
 62
    5
370
   -1
100
AcDbLine
 10
68.7467
 20
-48.6857
 11
68.9609
 21
-48.8356
  0
LINE
  5
21D
100
AcDbEntity
  8
0
  6
ByLayer
 62
    5
370
   -1
100
AcDbLine
 10
68.9609
 20
-48.8356
 11
69.14579999999999
 21
-49.0205
  0
LINE
  5
21E
100
AcDbEntity
  8
0
  6
ByLayer
 62
    5
370
   -1
100
AcDbLine
 10
69.14579999999999
 20
-49.0205
 11
69.2957
 21
-49.2347
  0
LINE
  5
21F
100
AcDbEntity
  8
0
  6
ByLayer
 62
    5
370
   -1
100
AcDbLine
 10
69.2957
 20
-49.2347
 11
69.4062
 21
-49.4717
  0
LINE
  5
220
100
AcDbEntity
  8
0
  6
ByLayer
 62
    5
370
   -1
100
AcDbLine
 10
69.4062
 20
-49.4717
 11
69.4739
 21
-49.7242
  0
LINE
  5
221
100
AcDbEntity
  8
0
  6
ByLayer
 62
    5
370
   -1
100
AcDbLine
 10
69.4739
 20
-49.7242
 11
69.4967
 21
-49.9847
  0
LINE
  5
222
100
AcDbEntity
  8
0
  6
ByLayer
 62
    5
370
   -1
100
AcDbLine
 10
69.4967
 20
-49.9847
 11
69.4739
 21
-50.2452
  0
LINE
  5
223
100
AcDbEntity
  8
0
  6
ByLayer
 62
    5
370
   -1
100
AcDbLine
 10
69.4739
 20
-50.2452
 11
69.4062
 21
-50.4977
  0
LINE
  5
224
100
AcDbEntity
  8
0
  6
ByLayer
 62
    5
370
   -1
100
AcDbLine
 10
69.4062
 20
-50.4977
 11
69.2957
 21
-50.7347
  0
LINE
  5
225
100
AcDbEntity
  8
0
  6
ByLayer
 62
    5
370
   -1
100
AcDbLine
 10
69.2957
 20
-50.7347
 11
69.14579999999999
 21
-50.9489
  0
LINE
  5
226
100
AcDbEntity
  8
0
  6
ByLayer
 62
    5
370
   -1
100
AcDbLine
 10
69.14579999999999
 20
-50.9489
 11
68.9609
 21
-51.1338
  0
LINE
  5
227
100
AcDbEntity
  8
0
  6
ByLayer
 62
    5
370
   -1
100
AcDbLine
 10
68.9609
 20
-51.1338
 11
68.7467
 21
-51.2837
  0
LINE
  5
228
100
AcDbEntity
  8
0
  6
ByLayer
 62
    5
370
   -1
100
AcDbLine
 10
68.7467
 20
-51.2837
 11
68.5097
 21
-51.3942
  0
LINE
  5
229
100
AcDbEntity
  8
0
  6
ByLayer
 62
    5
370
   -1
100
AcDbLine
 10
68.5097
 20
-51.3942
 11
68.2572
 21
-51.4619
  0
LINE
  5
22A
100
AcDbEntity
  8
0
  6
ByLayer
 62
    5
370
   -1
100
AcDbLine
 10
68.2572
 20
-51.4619
 11
67.9967
 21
-51.4847
  0
LINE
  5
22B
100
AcDbEntity
  8
0
  6
ByLayer
 62
    5
370
   -1
100
AcDbLine
 10
67.9967
 20
-51.4847
 11
67.7362
 21
-51.4619
  0
LINE
  5
22C
100
AcDbEntity
  8
0
  6
ByLayer
 62
    5
370
   -1
100
AcDbLine
 10
112.426
 20
-57.1818
 11
112.174
 21
-57.1142
  0
LINE
  5
22D
100
AcDbEntity
  8
0
  6
ByLayer
 62
    5
370
   -1
100
AcDbLine
 10
112.174
 20
-57.1142
 11
111.937
 21
-57.0036
  0
LINE
  5
22E
100
AcDbEntity
  8
0
  6
ByLayer
 62
    5
370
   -1
100
AcDbLine
 10
111.937
 20
-57.0036
 11
111.723
 21
-56.8537
  0
LINE
  5
22F
100
AcDbEntity
  8
0
  6
ByLayer
 62
    5
370
   -1
100
AcDbLine
 10
111.723
 20
-56.8537
 11
111.538
 21
-56.6688
  0
LINE
  5
230
100
AcDbEntity
  8
0
  6
ByLayer
 62
    5
370
   -1
100
AcDbLine
 10
111.538
 20
-56.6688
 11
111.388
 21
-56.4546
  0
LINE
  5
231
100
AcDbEntity
  8
0
  6
ByLayer
 62
    5
370
   -1
100
AcDbLine
 10
111.388
 20
-56.4546
 11
111.277
 21
-56.2177
  0
LINE
  5
232
100
AcDbEntity
  8
0
  6
ByLayer
 62
    5
370
   -1
100
AcDbLine
 10
111.277
 20
-56.2177
 11
111.21
 21
-55.9651
  0
LINE
  5
233
100
AcDbEntity
  8
0
  6
ByLayer
 62
    5
370
   -1
100
AcDbLine
 10
111.21
 20
-55.9651
 11
111.187
 21
-55.7046
  0
LINE
  5
234
100
AcDbEntity
  8
0
  6
ByLayer
 62
    5
370
   -1
100
AcDbLine
 10
111.187
 20
-55.7046
 11
111.21
 21
-55.4441
  0
LINE
  5
235
100
AcDbEntity
  8
0
  6
ByLayer
 62
    5
370
   -1
100
AcDbLine
 10
111.21
 20
-55.4441
 11
111.277
 21
-55.1916
  0
LINE
  5
236
100
AcDbEntity
  8
0
  6
ByLayer
 62
    5
370
   -1
100
AcDbLine
 10
111.277
 20
-55.1916
 11
111.388
 21
-54.9546
  0
LINE
  5
237
100
AcDbEntity
  8
0
  6
ByLayer
 62
    5
370
   -1
100
AcDbLine
 10
111.388
 20
-54.9546
 11
111.538
 21
-54.7404
  0
LINE
  5
238
100
AcDbEntity
  8
0
  6
ByLayer
 62
    5
370
   -1
100
AcDbLine
 10
111.538
 20
-54.7404
 11
111.723
 21
-54.5555
  0
LINE
  5
239
100
AcDbEntity
  8
0
  6
ByLayer
 62
    5
370
   -1
100
AcDbLine
 10
111.723
 20
-54.5555
 11
111.937
 21
-54.4056
  0
LINE
  5
23A
100
AcDbEntity
  8
0
  6
ByLayer
 62
    5
370
   -1
100
AcDbLine
 10
111.937
 20
-54.4056
 11
112.174
 21
-54.2951
  0
LINE
  5
23B
100
AcDbEntity
  8
0
  6
ByLayer
 62
    5
370
   -1
100
AcDbLine
 10
112.174
 20
-54.2951
 11
112.426
 21
-54.2274
  0
LINE
  5
23C
100
AcDbEntity
  8
0
  6
ByLayer
 62
    5
370
   -1
100
AcDbLine
 10
112.426
 20
-54.2274
 11
112.687
 21
-54.2046
  0
LINE
  5
23D
100
AcDbEntity
  8
0
  6
ByLayer
 62
    5
370
   -1
100
AcDbLine
 10
112.687
 20
-54.2046
 11
112.947
 21
-54.2274
  0
LINE
  5
23E
100
AcDbEntity
  8
0
  6
ByLayer
 62
    5
370
   -1
100
AcDbLine
 10
112.947
 20
-54.2274
 11
113.2
 21
-54.2951
  0
LINE
  5
23F
100
AcDbEntity
  8
0
  6
ByLayer
 62
    5
370
   -1
100
AcDbLine
 10
113.2
 20
-54.2951
 11
113.437
 21
-54.4056
  0
LINE
  5
240
100
AcDbEntity
  8
0
  6
ByLayer
 62
    5
370
   -1
100
AcDbLine
 10
113.437
 20
-54.4056
 11
113.651
 21
-54.5555
  0
LINE
  5
241
100
AcDbEntity
  8
0
  6
ByLayer
 62
    5
370
   -1
100
AcDbLine
 10
113.651
 20
-54.5555
 11
113.836
 21
-54.7404
  0
LINE
  5
242
100
AcDbEntity
  8
0
  6
ByLayer
 62
    5
370
   -1
100
AcDbLine
 10
113.836
 20
-54.7404
 11
113.986
 21
-54.9546
  0
LINE
  5
243
100
AcDbEntity
  8
0
  6
ByLayer
 62
    5
370
   -1
100
AcDbLine
 10
113.986
 20
-54.9546
 11
114.096
 21
-55.1916
  0
LINE
  5
244
100
AcDbEntity
  8
0
  6
ByLayer
 62
    5
370
   -1
100
AcDbLine
 10
114.096
 20
-55.1916
 11
114.164
 21
-55.4441
  0
LINE
  5
245
100
AcDbEntity
  8
0
  6
ByLayer
 62
    5
370
   -1
100
AcDbLine
 10
114.164
 20
-55.4441
 11
114.187
 21
-55.7046
  0
LINE
  5
246
100
AcDbEntity
  8
0
  6
ByLayer
 62
    5
370
   -1
100
AcDbLine
 10
114.187
 20
-55.7046
 11
114.164
 21
-55.9651
  0
LINE
  5
247
100
AcDbEntity
  8
0
  6
ByLayer
 62
    5
370
   -1
100
AcDbLine
 10
114.164
 20
-55.9651
 11
114.096
 21
-56.2177
  0
LINE
  5
248
100
AcDbEntity
  8
0
  6
ByLayer
 62
    5
370
   -1
100
AcDbLine
 10
114.096
 20
-56.2177
 11
113.986
 21
-56.4546
  0
LINE
  5
249
100
AcDbEntity
  8
0
  6
ByLayer
 62
    5
370
   -1
100
AcDbLine
 10
113.986
 20
-56.4546
 11
113.836
 21
-56.6688
  0
LINE
  5
24A
100
AcDbEntity
  8
0
  6
ByLayer
 62
    5
370
   -1
100
AcDbLine
 10
113.836
 20
-56.6688
 11
113.651
 21
-56.8537
  0
LINE
  5
24B
100
AcDbEntity
  8
0
  6
ByLayer
 62
    5
370
   -1
100
AcDbLine
 10
113.651
 20
-56.8537
 11
113.437
 21
-57.0036
  0
LINE
  5
24C
100
AcDbEntity
  8
0
  6
ByLayer
 62
    5
370
   -1
100
AcDbLine
 10
113.437
 20
-57.0036
 11
113.2
 21
-57.1142
  0
LINE
  5
24D
100
AcDbEntity
  8
0
  6
ByLayer
 62
    5
370
   -1
100
AcDbLine
 10
113.2
 20
-57.1142
 11
112.947
 21
-57.1818
  0
LINE
  5
24E
100
AcDbEntity
  8
0
  6
ByLayer
 62
    5
370
   -1
100
AcDbLine
 10
112.947
 20
-57.1818
 11
112.687
 21
-57.2046
  0
LINE
  5
24F
100
AcDbEntity
  8
0
  6
ByLayer
 62
    5
370
   -1
100
AcDbLine
 10
112.687
 20
-57.2046
 11
112.426
 21
-57.1818
  0
LINE
  5
250
100
AcDbEntity
  8
0
  6
ByLayer
 62
    5
370
   -1
100
AcDbLine
 10
-112.947
 20
-57.1818
 11
-113.2
 21
-57.1142
  0
LINE
  5
251
100
AcDbEntity
  8
0
  6
ByLayer
 62
    5
370
   -1
100
AcDbLine
 10
-113.2
 20
-57.1142
 11
-113.437
 21
-57.0036
  0
LINE
  5
252
100
AcDbEntity
  8
0
  6
ByLayer
 62
    5
370
   -1
100
AcDbLine
 10
-113.437
 20
-57.0036
 11
-113.651
 21
-56.8537
  0
LINE
  5
253
100
AcDbEntity
  8
0
  6
ByLayer
 62
    5
370
   -1
100
AcDbLine
 10
-113.651
 20
-56.8537
 11
-113.836
 21
-56.6688
  0
LINE
  5
254
100
AcDbEntity
  8
0
  6
ByLayer
 62
    5
370
   -1
100
AcDbLine
 10
-113.836
 20
-56.6688
 11
-113.986
 21
-56.4546
  0
LINE
  5
255
100
AcDbEntity
  8
0
  6
ByLayer
 62
    5
370
   -1
100
AcDbLine
 10
-113.986
 20
-56.4546
 11
-114.096
 21
-56.2177
  0
LINE
  5
256
100
AcDbEntity
  8
0
  6
ByLayer
 62
    5
370
   -1
100
AcDbLine
 10
-114.096
 20
-56.2177
 11
-114.164
 21
-55.9651
  0
LINE
  5
257
100
AcDbEntity
  8
0
  6
ByLayer
 62
    5
370
   -1
100
AcDbLine
 10
-114.164
 20
-55.9651
 11
-114.187
 21
-55.7046
  0
LINE
  5
258
100
AcDbEntity
  8
0
  6
ByLayer
 62
    5
370
   -1
100
AcDbLine
 10
-114.187
 20
-55.7046
 11
-114.164
 21
-55.4441
  0
LINE
  5
259
100
AcDbEntity
  8
0
  6
ByLayer
 62
    5
370
   -1
100
AcDbLine
 10
-114.164
 20
-55.4441
 11
-114.096
 21
-55.1916
  0
LINE
  5
25A
100
AcDbEntity
  8
0
  6
ByLayer
 62
    5
370
   -1
100
AcDbLine
 10
-114.096
 20
-55.1916
 11
-113.986
 21
-54.9546
  0
LINE
  5
25B
100
AcDbEntity
  8
0
  6
ByLayer
 62
    5
370
   -1
100
AcDbLine
 10
-113.986
 20
-54.9546
 11
-113.836
 21
-54.7404
  0
LINE
  5
25C
100
AcDbEntity
  8
0
  6
ByLayer
 62
    5
370
   -1
100
AcDbLine
 10
-113.836
 20
-54.7404
 11
-113.651
 21
-54.5555
  0
LINE
  5
25D
100
AcDbEntity
  8
0
  6
ByLayer
 62
    5
370
   -1
100
AcDbLine
 10
-113.651
 20
-54.5555
 11
-113.437
 21
-54.4056
  0
LINE
  5
25E
100
AcDbEntity
  8
0
  6
ByLayer
 62
    5
370
   -1
100
AcDbLine
 10
-113.437
 20
-54.4056
 11
-113.2
 21
-54.2951
  0
LINE
  5
25F
100
AcDbEntity
  8
0
  6
ByLayer
 62
    5
370
   -1
100
AcDbLine
 10
-113.2
 20
-54.2951
 11
-112.947
 21
-54.2274
  0
LINE
  5
260
100
AcDbEntity
  8
0
  6
ByLayer
 62
    5
370
   -1
100
AcDbLine
 10
-112.947
 20
-54.2274
 11
-112.687
 21
-54.2046
  0
LINE
  5
261
100
AcDbEntity
  8
0
  6
ByLayer
 62
    5
370
   -1
100
AcDbLine
 10
-112.687
 20
-54.2046
 11
-112.426
 21
-54.2274
  0
LINE
  5
262
100
AcDbEntity
  8
0
  6
ByLayer
 62
    5
370
   -1
100
AcDbLine
 10
-112.426
 20
-54.2274
 11
-112.174
 21
-54.2951
  0
LINE
  5
263
100
AcDbEntity
  8
0
  6
ByLayer
 62
    5
370
   -1
100
AcDbLine
 10
-112.174
 20
-54.2951
 11
-111.937
 21
-54.4056
  0
LINE
  5
264
100
AcDbEntity
  8
0
  6
ByLayer
 62
    5
370
   -1
100
AcDbLine
 10
-111.937
 20
-54.4056
 11
-111.723
 21
-54.5555
  0
LINE
  5
265
100
AcDbEntity
  8
0
  6
ByLayer
 62
    5
370
   -1
100
AcDbLine
 10
-111.723
 20
-54.5555
 11
-111.538
 21
-54.7404
  0
LINE
  5
266
100
AcDbEntity
  8
0
  6
ByLayer
 62
    5
370
   -1
100
AcDbLine
 10
-111.538
 20
-54.7404
 11
-111.388
 21
-54.9546
  0
LINE
  5
267
100
AcDbEntity
  8
0
  6
ByLayer
 62
    5
370
   -1
100
AcDbLine
 10
-111.388
 20
-54.9546
 11
-111.277
 21
-55.1916
  0
LINE
  5
268
100
AcDbEntity
  8
0
  6
ByLayer
 62
    5
370
   -1
100
AcDbLine
 10
-111.277
 20
-55.1916
 11
-111.21
 21
-55.4441
  0
LINE
  5
269
100
AcDbEntity
  8
0
  6
ByLayer
 62
    5
370
   -1
100
AcDbLine
 10
-111.21
 20
-55.4441
 11
-111.187
 21
-55.7046
  0
LINE
  5
26A
100
AcDbEntity
  8
0
  6
ByLayer
 62
    5
370
   -1
100
AcDbLine
 10
-111.187
 20
-55.7046
 11
-111.21
 21
-55.9651
  0
LINE
  5
26B
100
AcDbEntity
  8
0
  6
ByLayer
 62
    5
370
   -1
100
AcDbLine
 10
-111.21
 20
-55.9651
 11
-111.277
 21
-56.2177
  0
LINE
  5
26C
100
AcDbEntity
  8
0
  6
ByLayer
 62
    5
370
   -1
100
AcDbLine
 10
-111.277
 20
-56.2177
 11
-111.388
 21
-56.4546
  0
LINE
  5
26D
100
AcDbEntity
  8
0
  6
ByLayer
 62
    5
370
   -1
100
AcDbLine
 10
-111.388
 20
-56.4546
 11
-111.538
 21
-56.6688
  0
LINE
  5
26E
100
AcDbEntity
  8
0
  6
ByLayer
 62
    5
370
   -1
100
AcDbLine
 10
-111.538
 20
-56.6688
 11
-111.723
 21
-56.8537
  0
LINE
  5
26F
100
AcDbEntity
  8
0
  6
ByLayer
 62
    5
370
   -1
100
AcDbLine
 10
-111.723
 20
-56.8537
 11
-111.937
 21
-57.0036
  0
LINE
  5
270
100
AcDbEntity
  8
0
  6
ByLayer
 62
    5
370
   -1
100
AcDbLine
 10
-111.937
 20
-57.0036
 11
-112.174
 21
-57.1142
  0
LINE
  5
271
100
AcDbEntity
  8
0
  6
ByLayer
 62
    5
370
   -1
100
AcDbLine
 10
-112.174
 20
-57.1142
 11
-112.426
 21
-57.1818
  0
LINE
  5
272
100
AcDbEntity
  8
0
  6
ByLayer
 62
    5
370
   -1
100
AcDbLine
 10
-112.426
 20
-57.1818
 11
-112.687
 21
-57.2046
  0
LINE
  5
273
100
AcDbEntity
  8
0
  6
ByLayer
 62
    5
370
   -1
100
AcDbLine
 10
-112.687
 20
-57.2046
 11
-112.947
 21
-57.1818
  0
LINE
  5
274
100
AcDbEntity
  8
0
  6
ByLayer
 62
    5
370
   -1
100
AcDbLine
 10
-99.7411
 20
-72.92019999999999
 11
-99.9937
 21
-72.85250000000001
  0
LINE
  5
275
100
AcDbEntity
  8
0
  6
ByLayer
 62
    5
370
   -1
100
AcDbLine
 10
-99.9937
 20
-72.85250000000001
 11
-100.231
 21
-72.742
  0
LINE
  5
276
100
AcDbEntity
  8
0
  6
ByLayer
 62
    5
370
   -1
100
AcDbLine
 10
-100.231
 20
-72.742
 11
-100.445
 21
-72.5921
  0
LINE
  5
277
100
AcDbEntity
  8
0
  6
ByLayer
 62
    5
370
   -1
100
AcDbLine
 10
-100.445
 20
-72.5921
 11
-100.63
 21
-72.4072
  0
LINE
  5
278
100
AcDbEntity
  8
0
  6
ByLayer
 62
    5
370
   -1
100
AcDbLine
 10
-100.63
 20
-72.4072
 11
-100.78
 21
-72.193
  0
LINE
  5
279
100
AcDbEntity
  8
0
  6
ByLayer
 62
    5
370
   -1
100
AcDbLine
 10
-100.78
 20
-72.193
 11
-100.89
 21
-71.956
  0
LINE
  5
27A
100
AcDbEntity
  8
0
  6
ByLayer
 62
    5
370
   -1
100
AcDbLine
 10
-100.89
 20
-71.956
 11
-100.958
 21
-71.70350000000001
  0
LINE
  5
27B
100
AcDbEntity
  8
0
  6
ByLayer
 62
    5
370
   -1
100
AcDbLine
 10
-100.958
 20
-71.70350000000001
 11
-100.981
 21
-71.443
  0
LINE
  5
27C
100
AcDbEntity
  8
0
  6
ByLayer
 62
    5
370
   -1
100
AcDbLine
 10
-100.981
 20
-71.443
 11
-100.958
 21
-71.1825
  0
LINE
  5
27D
100
AcDbEntity
  8
0
  6
ByLayer
 62
    5
370
   -1
100
AcDbLine
 10
-100.958
 20
-71.1825
 11
-100.89
 21
-70.93000000000001
  0
LINE
  5
27E
100
AcDbEntity
  8
0
  6
ByLayer
 62
    5
370
   -1
100
AcDbLine
 10
-100.89
 20
-70.93000000000001
 11
-100.78
 21
-70.693
  0
LINE
  5
27F
100
AcDbEntity
  8
0
  6
ByLayer
 62
    5
370
   -1
100
AcDbLine
 10
-100.78
 20
-70.693
 11
-100.63
 21
-70.47880000000001
  0
LINE
  5
280
100
AcDbEntity
  8
0
  6
ByLayer
 62
    5
370
   -1
100
AcDbLine
 10
-100.63
 20
-70.47880000000001
 11
-100.445
 21
-70.29389999999999
  0
LINE
  5
281
100
AcDbEntity
  8
0
  6
ByLayer
 62
    5
370
   -1
100
AcDbLine
 10
-100.445
 20
-70.29389999999999
 11
-100.231
 21
-70.14400000000001
  0
LINE
  5
282
100
AcDbEntity
  8
0
  6
ByLayer
 62
    5
370
   -1
100
AcDbLine
 10
-100.231
 20
-70.14400000000001
 11
-99.9937
 21
-70.0335
  0
LINE
  5
283
100
AcDbEntity
  8
0
  6
ByLayer
 62
    5
370
   -1
100
AcDbLine
 10
-99.9937
 20
-70.0335
 11
-99.7411
 21
-69.9658
  0
LINE
  5
284
100
AcDbEntity
  8
0
  6
ByLayer
 62
    5
370
   -1
100
AcDbLine
 10
-99.7411
 20
-69.9658
 11
-99.4807
 21
-69.943
  0
LINE
  5
285
100
AcDbEntity
  8
0
  6
ByLayer
 62
    5
370
   -1
100
AcDbLine
 10
-99.4807
 20
-69.943
 11
-99.22020000000001
 21
-69.9658
  0
LINE
  5
286
100
AcDbEntity
  8
0
  6
ByLayer
 62
    5
370
   -1
100
AcDbLine
 10
-99.22020000000001
 20
-69.9658
 11
-98.9676
 21
-70.0335
  0
LINE
  5
287
100
AcDbEntity
  8
0
  6
ByLayer
 62
    5
370
   -1
100
AcDbLine
 10
-98.9676
 20
-70.0335
 11
-98.7307
 21
-70.14400000000001
  0
LINE
  5
288
100
AcDbEntity
  8
0
  6
ByLayer
 62
    5
370
   -1
100
AcDbLine
 10
-98.7307
 20
-70.14400000000001
 11
-98.51649999999999
 21
-70.29389999999999
  0
LINE
  5
289
100
AcDbEntity
  8
0
  6
ByLayer
 62
    5
370
   -1
100
AcDbLine
 10
-98.51649999999999
 20
-70.29389999999999
 11
-98.33159999999999
 21
-70.47880000000001
  0
LINE
  5
28A
100
AcDbEntity
  8
0
  6
ByLayer
 62
    5
370
   -1
100
AcDbLine
 10
-98.33159999999999
 20
-70.47880000000001
 11
-98.1816
 21
-70.693
  0
LINE
  5
28B
100
AcDbEntity
  8
0
  6
ByLayer
 62
    5
370
   -1
100
AcDbLine
 10
-98.1816
 20
-70.693
 11
-98.0711
 21
-70.93000000000001
  0
LINE
  5
28C
100
AcDbEntity
  8
0
  6
ByLayer
 62
    5
370
   -1
100
AcDbLine
 10
-98.0711
 20
-70.93000000000001
 11
-98.0034
 21
-71.1825
  0
LINE
  5
28D
100
AcDbEntity
  8
0
  6
ByLayer
 62
    5
370
   -1
100
AcDbLine
 10
-98.0034
 20
-71.1825
 11
-97.9807
 21
-71.443
  0
LINE
  5
28E
100
AcDbEntity
  8
0
  6
ByLayer
 62
    5
370
   -1
100
AcDbLine
 10
-97.9807
 20
-71.443
 11
-98.0034
 21
-71.70350000000001
  0
LINE
  5
28F
100
AcDbEntity
  8
0
  6
ByLayer
 62
    5
370
   -1
100
AcDbLine
 10
-98.0034
 20
-71.70350000000001
 11
-98.0711
 21
-71.956
  0
LINE
  5
290
100
AcDbEntity
  8
0
  6
ByLayer
 62
    5
370
   -1
100
AcDbLine
 10
-98.0711
 20
-71.956
 11
-98.1816
 21
-72.193
  0
LINE
  5
291
100
AcDbEntity
  8
0
  6
ByLayer
 62
    5
370
   -1
100
AcDbLine
 10
-98.1816
 20
-72.193
 11
-98.33159999999999
 21
-72.4072
  0
LINE
  5
292
100
AcDbEntity
  8
0
  6
ByLayer
 62
    5
370
   -1
100
AcDbLine
 10
-98.33159999999999
 20
-72.4072
 11
-98.51649999999999
 21
-72.5921
  0
LINE
  5
293
100
AcDbEntity
  8
0
  6
ByLayer
 62
    5
370
   -1
100
AcDbLine
 10
-98.51649999999999
 20
-72.5921
 11
-98.7307
 21
-72.742
  0
LINE
  5
294
100
AcDbEntity
  8
0
  6
ByLayer
 62
    5
370
   -1
100
AcDbLine
 10
-98.7307
 20
-72.742
 11
-98.9676
 21
-72.85250000000001
  0
LINE
  5
295
100
AcDbEntity
  8
0
  6
ByLayer
 62
    5
370
   -1
100
AcDbLine
 10
-98.9676
 20
-72.85250000000001
 11
-99.22020000000001
 21
-72.92019999999999
  0
LINE
  5
296
100
AcDbEntity
  8
0
  6
ByLayer
 62
    5
370
   -1
100
AcDbLine
 10
-99.22020000000001
 20
-72.92019999999999
 11
-99.4807
 21
-72.943
  0
LINE
  5
297
100
AcDbEntity
  8
0
  6
ByLayer
 62
    5
370
   -1
100
AcDbLine
 10
-99.4807
 20
-72.943
 11
-99.7411
 21
-72.92019999999999
  0
LINE
  5
298
100
AcDbEntity
  8
0
  6
ByLayer
 62
    5
370
   -1
100
AcDbLine
 10
99.22020000000001
 20
-72.92019999999999
 11
98.9676
 21
-72.85250000000001
  0
LINE
  5
299
100
AcDbEntity
  8
0
  6
ByLayer
 62
    5
370
   -1
100
AcDbLine
 10
98.9676
 20
-72.85250000000001
 11
98.7307
 21
-72.742
  0
LINE
  5
29A
100
AcDbEntity
  8
0
  6
ByLayer
 62
    5
370
   -1
100
AcDbLine
 10
98.7307
 20
-72.742
 11
98.51649999999999
 21
-72.5921
  0
LINE
  5
29B
100
AcDbEntity
  8
0
  6
ByLayer
 62
    5
370
   -1
100
AcDbLine
 10
98.51649999999999
 20
-72.5921
 11
98.33159999999999
 21
-72.4072
  0
LINE
  5
29C
100
AcDbEntity
  8
0
  6
ByLayer
 62
    5
370
   -1
100
AcDbLine
 10
98.33159999999999
 20
-72.4072
 11
98.1816
 21
-72.193
  0
LINE
  5
29D
100
AcDbEntity
  8
0
  6
ByLayer
 62
    5
370
   -1
100
AcDbLine
 10
98.1816
 20
-72.193
 11
98.0711
 21
-71.956
  0
LINE
  5
29E
100
AcDbEntity
  8
0
  6
ByLayer
 62
    5
370
   -1
100
AcDbLine
 10
98.0711
 20
-71.956
 11
98.0034
 21
-71.70350000000001
  0
LINE
  5
29F
100
AcDbEntity
  8
0
  6
ByLayer
 62
    5
370
   -1
100
AcDbLine
 10
98.0034
 20
-71.70350000000001
 11
97.9807
 21
-71.443
  0
LINE
  5
2A0
100
AcDbEntity
  8
0
  6
ByLayer
 62
    5
370
   -1
100
AcDbLine
 10
97.9807
 20
-71.443
 11
98.0034
 21
-71.1825
  0
LINE
  5
2A1
100
AcDbEntity
  8
0
  6
ByLayer
 62
    5
370
   -1
100
AcDbLine
 10
98.0034
 20
-71.1825
 11
98.0711
 21
-70.93000000000001
  0
LINE
  5
2A2
100
AcDbEntity
  8
0
  6
ByLayer
 62
    5
370
   -1
100
AcDbLine
 10
98.0711
 20
-70.93000000000001
 11
98.1816
 21
-70.693
  0
LINE
  5
2A3
100
AcDbEntity
  8
0
  6
ByLayer
 62
    5
370
   -1
100
AcDbLine
 10
98.1816
 20
-70.693
 11
98.33159999999999
 21
-70.47880000000001
  0
LINE
  5
2A4
100
AcDbEntity
  8
0
  6
ByLayer
 62
    5
370
   -1
100
AcDbLine
 10
98.33159999999999
 20
-70.47880000000001
 11
98.51649999999999
 21
-70.29389999999999
  0
LINE
  5
2A5
100
AcDbEntity
  8
0
  6
ByLayer
 62
    5
370
   -1
100
AcDbLine
 10
98.51649999999999
 20
-70.29389999999999
 11
98.7307
 21
-70.14400000000001
  0
LINE
  5
2A6
100
AcDbEntity
  8
0
  6
ByLayer
 62
    5
370
   -1
100
AcDbLine
 10
98.7307
 20
-70.14400000000001
 11
98.9676
 21
-70.0335
  0
LINE
  5
2A7
100
AcDbEntity
  8
0
  6
ByLayer
 62
    5
370
   -1
100
AcDbLine
 10
98.9676
 20
-70.0335
 11
99.22020000000001
 21
-69.9658
  0
LINE
  5
2A8
100
AcDbEntity
  8
0
  6
ByLayer
 62
    5
370
   -1
100
AcDbLine
 10
99.22020000000001
 20
-69.9658
 11
99.4807
 21
-69.943
  0
LINE
  5
2A9
100
AcDbEntity
  8
0
  6
ByLayer
 62
    5
370
   -1
100
AcDbLine
 10
99.4807
 20
-69.943
 11
99.7411
 21
-69.9658
  0
LINE
  5
2AA
100
AcDbEntity
  8
0
  6
ByLayer
 62
    5
370
   -1
100
AcDbLine
 10
99.7411
 20
-69.9658
 11
99.9937
 21
-70.0335
  0
LINE
  5
2AB
100
AcDbEntity
  8
0
  6
ByLayer
 62
    5
370
   -1
100
AcDbLine
 10
99.9937
 20
-70.0335
 11
100.231
 21
-70.14400000000001
  0
LINE
  5
2AC
100
AcDbEntity
  8
0
  6
ByLayer
 62
    5
370
   -1
100
AcDbLine
 10
100.231
 20
-70.14400000000001
 11
100.445
 21
-70.29389999999999
  0
LINE
  5
2AD
100
AcDbEntity
  8
0
  6
ByLayer
 62
    5
370
   -1
100
AcDbLine
 10
100.445
 20
-70.29389999999999
 11
100.63
 21
-70.47880000000001
  0
LINE
  5
2AE
100
AcDbEntity
  8
0
  6
ByLayer
 62
    5
370
   -1
100
AcDbLine
 10
100.63
 20
-70.47880000000001
 11
100.78
 21
-70.693
  0
LINE
  5
2AF
100
AcDbEntity
  8
0
  6
ByLayer
 62
    5
370
   -1
100
AcDbLine
 10
100.78
 20
-70.693
 11
100.89
 21
-70.93000000000001
  0
LINE
  5
2B0
100
AcDbEntity
  8
0
  6
ByLayer
 62
    5
370
   -1
100
AcDbLine
 10
100.89
 20
-70.93000000000001
 11
100.958
 21
-71.1825
  0
LINE
  5
2B1
100
AcDbEntity
  8
0
  6
ByLayer
 62
    5
370
   -1
100
AcDbLine
 10
100.958
 20
-71.1825
 11
100.981
 21
-71.443
  0
LINE
  5
2B2
100
AcDbEntity
  8
0
  6
ByLayer
 62
    5
370
   -1
100
AcDbLine
 10
100.981
 20
-71.443
 11
100.958
 21
-71.70350000000001
  0
LINE
  5
2B3
100
AcDbEntity
  8
0
  6
ByLayer
 62
    5
370
   -1
100
AcDbLine
 10
100.958
 20
-71.70350000000001
 11
100.89
 21
-71.956
  0
LINE
  5
2B4
100
AcDbEntity
  8
0
  6
ByLayer
 62
    5
370
   -1
100
AcDbLine
 10
100.89
 20
-71.956
 11
100.78
 21
-72.193
  0
LINE
  5
2B5
100
AcDbEntity
  8
0
  6
ByLayer
 62
    5
370
   -1
100
AcDbLine
 10
100.78
 20
-72.193
 11
100.63
 21
-72.4072
  0
LINE
  5
2B6
100
AcDbEntity
  8
0
  6
ByLayer
 62
    5
370
   -1
100
AcDbLine
 10
100.63
 20
-72.4072
 11
100.445
 21
-72.5921
  0
LINE
  5
2B7
100
AcDbEntity
  8
0
  6
ByLayer
 62
    5
370
   -1
100
AcDbLine
 10
100.445
 20
-72.5921
 11
100.231
 21
-72.742
  0
LINE
  5
2B8
100
AcDbEntity
  8
0
  6
ByLayer
 62
    5
370
   -1
100
AcDbLine
 10
100.231
 20
-72.742
 11
99.9937
 21
-72.85250000000001
  0
LINE
  5
2B9
100
AcDbEntity
  8
0
  6
ByLayer
 62
    5
370
   -1
100
AcDbLine
 10
99.9937
 20
-72.85250000000001
 11
99.7411
 21
-72.92019999999999
  0
LINE
  5
2BA
100
AcDbEntity
  8
0
  6
ByLayer
 62
    5
370
   -1
100
AcDbLine
 10
99.7411
 20
-72.92019999999999
 11
99.4807
 21
-72.943
  0
LINE
  5
2BB
100
AcDbEntity
  8
0
  6
ByLayer
 62
    5
370
   -1
100
AcDbLine
 10
99.4807
 20
-72.943
 11
99.22020000000001
 21
-72.92019999999999
  0
LINE
  5
2BC
100
AcDbEntity
  8
0
  6
ByLayer
 62
    5
370
   -1
100
AcDbLine
 10
-172.907
 20
-161.035
 11
-173.159
 21
-160.967
  0
LINE
  5
2BD
100
AcDbEntity
  8
0
  6
ByLayer
 62
    5
370
   -1
100
AcDbLine
 10
-173.159
 20
-160.967
 11
-173.396
 21
-160.856
  0
LINE
  5
2BE
100
AcDbEntity
  8
0
  6
ByLayer
 62
    5
370
   -1
100
AcDbLine
 10
-173.396
 20
-160.856
 11
-173.61
 21
-160.706
  0
LINE
  5
2BF
100
AcDbEntity
  8
0
  6
ByLayer
 62
    5
370
   -1
100
AcDbLine
 10
-173.61
 20
-160.706
 11
-173.795
 21
-160.521
  0
LINE
  5
2C0
100
AcDbEntity
  8
0
  6
ByLayer
 62
    5
370
   -1
100
AcDbLine
 10
-173.795
 20
-160.521
 11
-173.945
 21
-160.307
  0
LINE
  5
2C1
100
AcDbEntity
  8
0
  6
ByLayer
 62
    5
370
   -1
100
AcDbLine
 10
-173.945
 20
-160.307
 11
-174.056
 21
-160.07
  0
LINE
  5
2C2
100
AcDbEntity
  8
0
  6
ByLayer
 62
    5
370
   -1
100
AcDbLine
 10
-174.056
 20
-160.07
 11
-174.123
 21
-159.818
  0
LINE
  5
2C3
100
AcDbEntity
  8
0
  6
ByLayer
 62
    5
370
   -1
100
AcDbLine
 10
-174.123
 20
-159.818
 11
-174.146
 21
-159.557
  0
LINE
  5
2C4
100
AcDbEntity
  8
0
  6
ByLayer
 62
    5
370
   -1
100
AcDbLine
 10
-174.146
 20
-159.557
 11
-174.123
 21
-159.297
  0
LINE
  5
2C5
100
AcDbEntity
  8
0
  6
ByLayer
 62
    5
370
   -1
100
AcDbLine
 10
-174.123
 20
-159.297
 11
-174.056
 21
-159.044
  0
LINE
  5
2C6
100
AcDbEntity
  8
0
  6
ByLayer
 62
    5
370
   -1
100
AcDbLine
 10
-174.056
 20
-159.044
 11
-173.945
 21
-158.807
  0
LINE
  5
2C7
100
AcDbEntity
  8
0
  6
ByLayer
 62
    5
370
   -1
100
AcDbLine
 10
-173.945
 20
-158.807
 11
-173.795
 21
-158.593
  0
LINE
  5
2C8
100
AcDbEntity
  8
0
  6
ByLayer
 62
    5
370
   -1
100
AcDbLine
 10
-173.795
 20
-158.593
 11
-173.61
 21
-158.408
  0
LINE
  5
2C9
100
AcDbEntity
  8
0
  6
ByLayer
 62
    5
370
   -1
100
AcDbLine
 10
-173.61
 20
-158.408
 11
-173.396
 21
-158.258
  0
LINE
  5
2CA
100
AcDbEntity
  8
0
  6
ByLayer
 62
    5
370
   -1
100
AcDbLine
 10
-173.396
 20
-158.258
 11
-173.159
 21
-158.148
  0
LINE
  5
2CB
100
AcDbEntity
  8
0
  6
ByLayer
 62
    5
370
   -1
100
AcDbLine
 10
-173.159
 20
-158.148
 11
-172.907
 21
-158.08
  0
LINE
  5
2CC
100
AcDbEntity
  8
0
  6
ByLayer
 62
    5
370
   -1
100
AcDbLine
 10
-172.907
 20
-158.08
 11
-172.646
 21
-158.057
  0
LINE
  5
2CD
100
AcDbEntity
  8
0
  6
ByLayer
 62
    5
370
   -1
100
AcDbLine
 10
-172.646
 20
-158.057
 11
-172.386
 21
-158.08
  0
LINE
  5
2CE
100
AcDbEntity
  8
0
  6
ByLayer
 62
    5
370
   -1
100
AcDbLine
 10
-172.386
 20
-158.08
 11
-172.133
 21
-158.148
  0
LINE
  5
2CF
100
AcDbEntity
  8
0
  6
ByLayer
 62
    5
370
   -1
100
AcDbLine
 10
-172.133
 20
-158.148
 11
-171.896
 21
-158.258
  0
LINE
  5
2D0
100
AcDbEntity
  8
0
  6
ByLayer
 62
    5
370
   -1
100
AcDbLine
 10
-171.896
 20
-158.258
 11
-171.682
 21
-158.408
  0
LINE
  5
2D1
100
AcDbEntity
  8
0
  6
ByLayer
 62
    5
370
   -1
100
AcDbLine
 10
-171.682
 20
-158.408
 11
-171.497
 21
-158.593
  0
LINE
  5
2D2
100
AcDbEntity
  8
0
  6
ByLayer
 62
    5
370
   -1
100
AcDbLine
 10
-171.497
 20
-158.593
 11
-171.347
 21
-158.807
  0
LINE
  5
2D3
100
AcDbEntity
  8
0
  6
ByLayer
 62
    5
370
   -1
100
AcDbLine
 10
-171.347
 20
-158.807
 11
-171.237
 21
-159.044
  0
LINE
  5
2D4
100
AcDbEntity
  8
0
  6
ByLayer
 62
    5
370
   -1
100
AcDbLine
 10
-171.237
 20
-159.044
 11
-171.169
 21
-159.297
  0
LINE
  5
2D5
100
AcDbEntity
  8
0
  6
ByLayer
 62
    5
370
   -1
100
AcDbLine
 10
-171.169
 20
-159.297
 11
-171.146
 21
-159.557
  0
LINE
  5
2D6
100
AcDbEntity
  8
0
  6
ByLayer
 62
    5
370
   -1
100
AcDbLine
 10
-171.146
 20
-159.557
 11
-171.169
 21
-159.818
  0
LINE
  5
2D7
100
AcDbEntity
  8
0
  6
ByLayer
 62
    5
370
   -1
100
AcDbLine
 10
-171.169
 20
-159.818
 11
-171.237
 21
-160.07
  0
LINE
  5
2D8
100
AcDbEntity
  8
0
  6
ByLayer
 62
    5
370
   -1
100
AcDbLine
 10
-171.237
 20
-160.07
 11
-171.347
 21
-160.307
  0
LINE
  5
2D9
100
AcDbEntity
  8
0
  6
ByLayer
 62
    5
370
   -1
100
AcDbLine
 10
-171.347
 20
-160.307
 11
-171.497
 21
-160.521
  0
LINE
  5
2DA
100
AcDbEntity
  8
0
  6
ByLayer
 62
    5
370
   -1
100
AcDbLine
 10
-171.497
 20
-160.521
 11
-171.682
 21
-160.706
  0
LINE
  5
2DB
100
AcDbEntity
  8
0
  6
ByLayer
 62
    5
370
   -1
100
AcDbLine
 10
-171.682
 20
-160.706
 11
-171.896
 21
-160.856
  0
LINE
  5
2DC
100
AcDbEntity
  8
0
  6
ByLayer
 62
    5
370
   -1
100
AcDbLine
 10
-171.896
 20
-160.856
 11
-172.133
 21
-160.967
  0
LINE
  5
2DD
100
AcDbEntity
  8
0
  6
ByLayer
 62
    5
370
   -1
100
AcDbLine
 10
-172.133
 20
-160.967
 11
-172.386
 21
-161.035
  0
LINE
  5
2DE
100
AcDbEntity
  8
0
  6
ByLayer
 62
    5
370
   -1
100
AcDbLine
 10
-172.386
 20
-161.035
 11
-172.646
 21
-161.057
  0
LINE
  5
2DF
100
AcDbEntity
  8
0
  6
ByLayer
 62
    5
370
   -1
100
AcDbLine
 10
-172.646
 20
-161.057
 11
-172.907
 21
-161.035
  0
LINE
  5
2E0
100
AcDbEntity
  8
0
  6
ByLayer
 62
    5
370
   -1
100
AcDbLine
 10
172.386
 20
-161.035
 11
172.133
 21
-160.967
  0
LINE
  5
2E1
100
AcDbEntity
  8
0
  6
ByLayer
 62
    5
370
   -1
100
AcDbLine
 10
172.133
 20
-160.967
 11
171.896
 21
-160.856
  0
LINE
  5
2E2
100
AcDbEntity
  8
0
  6
ByLayer
 62
    5
370
   -1
100
AcDbLine
 10
171.896
 20
-160.856
 11
171.682
 21
-160.706
  0
LINE
  5
2E3
100
AcDbEntity
  8
0
  6
ByLayer
 62
    5
370
   -1
100
AcDbLine
 10
171.682
 20
-160.706
 11
171.497
 21
-160.521
  0
LINE
  5
2E4
100
AcDbEntity
  8
0
  6
ByLayer
 62
    5
370
   -1
100
AcDbLine
 10
171.497
 20
-160.521
 11
171.347
 21
-160.307
  0
LINE
  5
2E5
100
AcDbEntity
  8
0
  6
ByLayer
 62
    5
370
   -1
100
AcDbLine
 10
171.347
 20
-160.307
 11
171.237
 21
-160.07
  0
LINE
  5
2E6
100
AcDbEntity
  8
0
  6
ByLayer
 62
    5
370
   -1
100
AcDbLine
 10
171.237
 20
-160.07
 11
171.169
 21
-159.818
  0
LINE
  5
2E7
100
AcDbEntity
  8
0
  6
ByLayer
 62
    5
370
   -1
100
AcDbLine
 10
171.169
 20
-159.818
 11
171.146
 21
-159.557
  0
LINE
  5
2E8
100
AcDbEntity
  8
0
  6
ByLayer
 62
    5
370
   -1
100
AcDbLine
 10
171.146
 20
-159.557
 11
171.169
 21
-159.297
  0
LINE
  5
2E9
100
AcDbEntity
  8
0
  6
ByLayer
 62
    5
370
   -1
100
AcDbLine
 10
171.169
 20
-159.297
 11
171.237
 21
-159.044
  0
LINE
  5
2EA
100
AcDbEntity
  8
0
  6
ByLayer
 62
    5
370
   -1
100
AcDbLine
 10
171.237
 20
-159.044
 11
171.347
 21
-158.807
  0
LINE
  5
2EB
100
AcDbEntity
  8
0
  6
ByLayer
 62
    5
370
   -1
100
AcDbLine
 10
171.347
 20
-158.807
 11
171.497
 21
-158.593
  0
LINE
  5
2EC
100
AcDbEntity
  8
0
  6
ByLayer
 62
    5
370
   -1
100
AcDbLine
 10
171.497
 20
-158.593
 11
171.682
 21
-158.408
  0
LINE
  5
2ED
100
AcDbEntity
  8
0
  6
ByLayer
 62
    5
370
   -1
100
AcDbLine
 10
171.682
 20
-158.408
 11
171.896
 21
-158.258
  0
LINE
  5
2EE
100
AcDbEntity
  8
0
  6
ByLayer
 62
    5
370
   -1
100
AcDbLine
 10
171.896
 20
-158.258
 11
172.133
 21
-158.148
  0
LINE
  5
2EF
100
AcDbEntity
  8
0
  6
ByLayer
 62
    5
370
   -1
100
AcDbLine
 10
172.133
 20
-158.148
 11
172.386
 21
-158.08
  0
LINE
  5
2F0
100
AcDbEntity
  8
0
  6
ByLayer
 62
    5
370
   -1
100
AcDbLine
 10
172.386
 20
-158.08
 11
172.646
 21
-158.057
  0
LINE
  5
2F1
100
AcDbEntity
  8
0
  6
ByLayer
 62
    5
370
   -1
100
AcDbLine
 10
172.646
 20
-158.057
 11
172.907
 21
-158.08
  0
LINE
  5
2F2
100
AcDbEntity
  8
0
  6
ByLayer
 62
    5
370
   -1
100
AcDbLine
 10
172.907
 20
-158.08
 11
173.159
 21
-158.148
  0
LINE
  5
2F3
100
AcDbEntity
  8
0
  6
ByLayer
 62
    5
370
   -1
100
AcDbLine
 10
173.159
 20
-158.148
 11
173.396
 21
-158.258
  0
LINE
  5
2F4
100
AcDbEntity
  8
0
  6
ByLayer
 62
    5
370
   -1
100
AcDbLine
 10
173.396
 20
-158.258
 11
173.61
 21
-158.408
  0
LINE
  5
2F5
100
AcDbEntity
  8
0
  6
ByLayer
 62
    5
370
   -1
100
AcDbLine
 10
173.61
 20
-158.408
 11
173.795
 21
-158.593
  0
LINE
  5
2F6
100
AcDbEntity
  8
0
  6
ByLayer
 62
    5
370
   -1
100
AcDbLine
 10
173.795
 20
-158.593
 11
173.945
 21
-158.807
  0
LINE
  5
2F7
100
AcDbEntity
  8
0
  6
ByLayer
 62
    5
370
   -1
100
AcDbLine
 10
173.945
 20
-158.807
 11
174.056
 21
-159.044
  0
LINE
  5
2F8
100
AcDbEntity
  8
0
  6
ByLayer
 62
    5
370
   -1
100
AcDbLine
 10
174.056
 20
-159.044
 11
174.123
 21
-159.297
  0
LINE
  5
2F9
100
AcDbEntity
  8
0
  6
ByLayer
 62
    5
370
   -1
100
AcDbLine
 10
174.123
 20
-159.297
 11
174.146
 21
-159.557
  0
LINE
  5
2FA
100
AcDbEntity
  8
0
  6
ByLayer
 62
    5
370
   -1
100
AcDbLine
 10
174.146
 20
-159.557
 11
174.123
 21
-159.818
  0
LINE
  5
2FB
100
AcDbEntity
  8
0
  6
ByLayer
 62
    5
370
   -1
100
AcDbLine
 10
174.123
 20
-159.818
 11
174.056
 21
-160.07
  0
LINE
  5
2FC
100
AcDbEntity
  8
0
  6
ByLayer
 62
    5
370
   -1
100
AcDbLine
 10
174.056
 20
-160.07
 11
173.945
 21
-160.307
  0
LINE
  5
2FD
100
AcDbEntity
  8
0
  6
ByLayer
 62
    5
370
   -1
100
AcDbLine
 10
173.945
 20
-160.307
 11
173.795
 21
-160.521
  0
LINE
  5
2FE
100
AcDbEntity
  8
0
  6
ByLayer
 62
    5
370
   -1
100
AcDbLine
 10
173.795
 20
-160.521
 11
173.61
 21
-160.706
  0
LINE
  5
2FF
100
AcDbEntity
  8
0
  6
ByLayer
 62
    5
370
   -1
100
AcDbLine
 10
173.61
 20
-160.706
 11
173.396
 21
-160.856
  0
LINE
  5
300
100
AcDbEntity
  8
0
  6
ByLayer
 62
    5
370
   -1
100
AcDbLine
 10
173.396
 20
-160.856
 11
173.159
 21
-160.967
  0
LINE
  5
301
100
AcDbEntity
  8
0
  6
ByLayer
 62
    5
370
   -1
100
AcDbLine
 10
173.159
 20
-160.967
 11
172.907
 21
-161.035
  0
LINE
  5
302
100
AcDbEntity
  8
0
  6
ByLayer
 62
    5
370
   -1
100
AcDbLine
 10
172.907
 20
-161.035
 11
172.646
 21
-161.057
  0
LINE
  5
303
100
AcDbEntity
  8
0
  6
ByLayer
 62
    5
370
   -1
100
AcDbLine
 10
172.646
 20
-161.057
 11
172.386
 21
-161.035
  0
LINE
  5
304
100
AcDbEntity
  8
0
  6
ByLayer
 62
    5
370
   -1
100
AcDbLine
 10
152.153
 20
-164.602
 11
151.9
 21
-164.534
  0
LINE
  5
305
100
AcDbEntity
  8
0
  6
ByLayer
 62
    5
370
   -1
100
AcDbLine
 10
151.9
 20
-164.534
 11
151.663
 21
-164.424
  0
LINE
  5
306
100
AcDbEntity
  8
0
  6
ByLayer
 62
    5
370
   -1
100
AcDbLine
 10
151.663
 20
-164.424
 11
151.449
 21
-164.274
  0
LINE
  5
307
100
AcDbEntity
  8
0
  6
ByLayer
 62
    5
370
   -1
100
AcDbLine
 10
151.449
 20
-164.274
 11
151.264
 21
-164.089
  0
LINE
  5
308
100
AcDbEntity
  8
0
  6
ByLayer
 62
    5
370
   -1
100
AcDbLine
 10
151.264
 20
-164.089
 11
151.114
 21
-163.875
  0
LINE
  5
309
100
AcDbEntity
  8
0
  6
ByLayer
 62
    5
370
   -1
100
AcDbLine
 10
151.114
 20
-163.875
 11
151.004
 21
-163.638
  0
LINE
  5
30A
100
AcDbEntity
  8
0
  6
ByLayer
 62
    5
370
   -1
100
AcDbLine
 10
151.004
 20
-163.638
 11
150.936
 21
-163.385
  0
LINE
  5
30B
100
AcDbEntity
  8
0
  6
ByLayer
 62
    5
370
   -1
100
AcDbLine
 10
150.936
 20
-163.385
 11
150.913
 21
-163.125
  0
LINE
  5
30C
100
AcDbEntity
  8
0
  6
ByLayer
 62
    5
370
   -1
100
AcDbLine
 10
150.913
 20
-163.125
 11
150.936
 21
-162.864
  0
LINE
  5
30D
100
AcDbEntity
  8
0
  6
ByLayer
 62
    5
370
   -1
100
AcDbLine
 10
150.936
 20
-162.864
 11
151.004
 21
-162.612
  0
LINE
  5
30E
100
AcDbEntity
  8
0
  6
ByLayer
 62
    5
370
   -1
100
AcDbLine
 10
151.004
 20
-162.612
 11
151.114
 21
-162.375
  0
LINE
  5
30F
100
AcDbEntity
  8
0
  6
ByLayer
 62
    5
370
   -1
100
AcDbLine
 10
151.114
 20
-162.375
 11
151.264
 21
-162.161
  0
LINE
  5
310
100
AcDbEntity
  8
0
  6
ByLayer
 62
    5
370
   -1
100
AcDbLine
 10
151.264
 20
-162.161
 11
151.449
 21
-161.976
  0
LINE
  5
311
100
AcDbEntity
  8
0
  6
ByLayer
 62
    5
370
   -1
100
AcDbLine
 10
151.449
 20
-161.976
 11
151.663
 21
-161.826
  0
LINE
  5
312
100
AcDbEntity
  8
0
  6
ByLayer
 62
    5
370
   -1
100
AcDbLine
 10
151.663
 20
-161.826
 11
151.9
 21
-161.715
  0
LINE
  5
313
100
AcDbEntity
  8
0
  6
ByLayer
 62
    5
370
   -1
100
AcDbLine
 10
151.9
 20
-161.715
 11
152.153
 21
-161.648
  0
LINE
  5
314
100
AcDbEntity
  8
0
  6
ByLayer
 62
    5
370
   -1
100
AcDbLine
 10
152.153
 20
-161.648
 11
152.413
 21
-161.625
  0
LINE
  5
315
100
AcDbEntity
  8
0
  6
ByLayer
 62
    5
370
   -1
100
AcDbLine
 10
152.413
 20
-161.625
 11
152.674
 21
-161.648
  0
LINE
  5
316
100
AcDbEntity
  8
0
  6
ByLayer
 62
    5
370
   -1
100
AcDbLine
 10
152.674
 20
-161.648
 11
152.926
 21
-161.715
  0
LINE
  5
317
100
AcDbEntity
  8
0
  6
ByLayer
 62
    5
370
   -1
100
AcDbLine
 10
152.926
 20
-161.715
 11
153.163
 21
-161.826
  0
LINE
  5
318
100
AcDbEntity
  8
0
  6
ByLayer
 62
    5
370
   -1
100
AcDbLine
 10
153.163
 20
-161.826
 11
153.377
 21
-161.976
  0
LINE
  5
319
100
AcDbEntity
  8
0
  6
ByLayer
 62
    5
370
   -1
100
AcDbLine
 10
153.377
 20
-161.976
 11
153.562
 21
-162.161
  0
LINE
  5
31A
100
AcDbEntity
  8
0
  6
ByLayer
 62
    5
370
   -1
100
AcDbLine
 10
153.562
 20
-162.161
 11
153.712
 21
-162.375
  0
LINE
  5
31B
100
AcDbEntity
  8
0
  6
ByLayer
 62
    5
370
   -1
100
AcDbLine
 10
153.712
 20
-162.375
 11
153.823
 21
-162.612
  0
LINE
  5
31C
100
AcDbEntity
  8
0
  6
ByLayer
 62
    5
370
   -1
100
AcDbLine
 10
153.823
 20
-162.612
 11
153.89
 21
-162.864
  0
LINE
  5
31D
100
AcDbEntity
  8
0
  6
ByLayer
 62
    5
370
   -1
100
AcDbLine
 10
153.89
 20
-162.864
 11
153.913
 21
-163.125
  0
LINE
  5
31E
100
AcDbEntity
  8
0
  6
ByLayer
 62
    5
370
   -1
100
AcDbLine
 10
153.913
 20
-163.125
 11
153.89
 21
-163.385
  0
LINE
  5
31F
100
AcDbEntity
  8
0
  6
ByLayer
 62
    5
370
   -1
100
AcDbLine
 10
153.89
 20
-163.385
 11
153.823
 21
-163.638
  0
LINE
  5
320
100
AcDbEntity
  8
0
  6
ByLayer
 62
    5
370
   -1
100
AcDbLine
 10
153.823
 20
-163.638
 11
153.712
 21
-163.875
  0
LINE
  5
321
100
AcDbEntity
  8
0
  6
ByLayer
 62
    5
370
   -1
100
AcDbLine
 10
153.712
 20
-163.875
 11
153.562
 21
-164.089
  0
LINE
  5
322
100
AcDbEntity
  8
0
  6
ByLayer
 62
    5
370
   -1
100
AcDbLine
 10
153.562
 20
-164.089
 11
153.377
 21
-164.274
  0
LINE
  5
323
100
AcDbEntity
  8
0
  6
ByLayer
 62
    5
370
   -1
100
AcDbLine
 10
153.377
 20
-164.274
 11
153.163
 21
-164.424
  0
LINE
  5
324
100
AcDbEntity
  8
0
  6
ByLayer
 62
    5
370
   -1
100
AcDbLine
 10
153.163
 20
-164.424
 11
152.926
 21
-164.534
  0
LINE
  5
325
100
AcDbEntity
  8
0
  6
ByLayer
 62
    5
370
   -1
100
AcDbLine
 10
152.926
 20
-164.534
 11
152.674
 21
-164.602
  0
LINE
  5
326
100
AcDbEntity
  8
0
  6
ByLayer
 62
    5
370
   -1
100
AcDbLine
 10
152.674
 20
-164.602
 11
152.413
 21
-164.625
  0
LINE
  5
327
100
AcDbEntity
  8
0
  6
ByLayer
 62
    5
370
   -1
100
AcDbLine
 10
152.413
 20
-164.625
 11
152.153
 21
-164.602
  0
LINE
  5
328
100
AcDbEntity
  8
0
  6
ByLayer
 62
    5
370
   -1
100
AcDbLine
 10
-152.674
 20
-164.602
 11
-152.926
 21
-164.534
  0
LINE
  5
329
100
AcDbEntity
  8
0
  6
ByLayer
 62
    5
370
   -1
100
AcDbLine
 10
-152.926
 20
-164.534
 11
-153.163
 21
-164.424
  0
LINE
  5
32A
100
AcDbEntity
  8
0
  6
ByLayer
 62
    5
370
   -1
100
AcDbLine
 10
-153.163
 20
-164.424
 11
-153.377
 21
-164.274
  0
LINE
  5
32B
100
AcDbEntity
  8
0
  6
ByLayer
 62
    5
370
   -1
100
AcDbLine
 10
-153.377
 20
-164.274
 11
-153.562
 21
-164.089
  0
LINE
  5
32C
100
AcDbEntity
  8
0
  6
ByLayer
 62
    5
370
   -1
100
AcDbLine
 10
-153.562
 20
-164.089
 11
-153.712
 21
-163.875
  0
LINE
  5
32D
100
AcDbEntity
  8
0
  6
ByLayer
 62
    5
370
   -1
100
AcDbLine
 10
-153.712
 20
-163.875
 11
-153.823
 21
-163.638
  0
LINE
  5
32E
100
AcDbEntity
  8
0
  6
ByLayer
 62
    5
370
   -1
100
AcDbLine
 10
-153.823
 20
-163.638
 11
-153.89
 21
-163.385
  0
LINE
  5
32F
100
AcDbEntity
  8
0
  6
ByLayer
 62
    5
370
   -1
100
AcDbLine
 10
-153.89
 20
-163.385
 11
-153.913
 21
-163.125
  0
LINE
  5
330
100
AcDbEntity
  8
0
  6
ByLayer
 62
    5
370
   -1
100
AcDbLine
 10
-153.913
 20
-163.125
 11
-153.89
 21
-162.864
  0
LINE
  5
331
100
AcDbEntity
  8
0
  6
ByLayer
 62
    5
370
   -1
100
AcDbLine
 10
-153.89
 20
-162.864
 11
-153.823
 21
-162.612
  0
LINE
  5
332
100
AcDbEntity
  8
0
  6
ByLayer
 62
    5
370
   -1
100
AcDbLine
 10
-153.823
 20
-162.612
 11
-153.712
 21
-162.375
  0
LINE
  5
333
100
AcDbEntity
  8
0
  6
ByLayer
 62
    5
370
   -1
100
AcDbLine
 10
-153.712
 20
-162.375
 11
-153.562
 21
-162.161
  0
LINE
  5
334
100
AcDbEntity
  8
0
  6
ByLayer
 62
    5
370
   -1
100
AcDbLine
 10
-153.562
 20
-162.161
 11
-153.377
 21
-161.976
  0
LINE
  5
335
100
AcDbEntity
  8
0
  6
ByLayer
 62
    5
370
   -1
100
AcDbLine
 10
-153.377
 20
-161.976
 11
-153.163
 21
-161.826
  0
LINE
  5
336
100
AcDbEntity
  8
0
  6
ByLayer
 62
    5
370
   -1
100
AcDbLine
 10
-153.163
 20
-161.826
 11
-152.926
 21
-161.715
  0
LINE
  5
337
100
AcDbEntity
  8
0
  6
ByLayer
 62
    5
370
   -1
100
AcDbLine
 10
-152.926
 20
-161.715
 11
-152.674
 21
-161.648
  0
LINE
  5
338
100
AcDbEntity
  8
0
  6
ByLayer
 62
    5
370
   -1
100
AcDbLine
 10
-152.674
 20
-161.648
 11
-152.413
 21
-161.625
  0
LINE
  5
339
100
AcDbEntity
  8
0
  6
ByLayer
 62
    5
370
   -1
100
AcDbLine
 10
-152.413
 20
-161.625
 11
-152.153
 21
-161.648
  0
LINE
  5
33A
100
AcDbEntity
  8
0
  6
ByLayer
 62
    5
370
   -1
100
AcDbLine
 10
-152.153
 20
-161.648
 11
-151.9
 21
-161.715
  0
LINE
  5
33B
100
AcDbEntity
  8
0
  6
ByLayer
 62
    5
370
   -1
100
AcDbLine
 10
-151.9
 20
-161.715
 11
-151.663
 21
-161.826
  0
LINE
  5
33C
100
AcDbEntity
  8
0
  6
ByLayer
 62
    5
370
   -1
100
AcDbLine
 10
-151.663
 20
-161.826
 11
-151.449
 21
-161.976
  0
LINE
  5
33D
100
AcDbEntity
  8
0
  6
ByLayer
 62
    5
370
   -1
100
AcDbLine
 10
-151.449
 20
-161.976
 11
-151.264
 21
-162.161
  0
LINE
  5
33E
100
AcDbEntity
  8
0
  6
ByLayer
 62
    5
370
   -1
100
AcDbLine
 10
-151.264
 20
-162.161
 11
-151.114
 21
-162.375
  0
LINE
  5
33F
100
AcDbEntity
  8
0
  6
ByLayer
 62
    5
370
   -1
100
AcDbLine
 10
-151.114
 20
-162.375
 11
-151.004
 21
-162.612
  0
LINE
  5
340
100
AcDbEntity
  8
0
  6
ByLayer
 62
    5
370
   -1
100
AcDbLine
 10
-151.004
 20
-162.612
 11
-150.936
 21
-162.864
  0
LINE
  5
341
100
AcDbEntity
  8
0
  6
ByLayer
 62
    5
370
   -1
100
AcDbLine
 10
-150.936
 20
-162.864
 11
-150.913
 21
-163.125
  0
LINE
  5
342
100
AcDbEntity
  8
0
  6
ByLayer
 62
    5
370
   -1
100
AcDbLine
 10
-150.913
 20
-163.125
 11
-150.936
 21
-163.385
  0
LINE
  5
343
100
AcDbEntity
  8
0
  6
ByLayer
 62
    5
370
   -1
100
AcDbLine
 10
-150.936
 20
-163.385
 11
-151.004
 21
-163.638
  0
LINE
  5
344
100
AcDbEntity
  8
0
  6
ByLayer
 62
    5
370
   -1
100
AcDbLine
 10
-151.004
 20
-163.638
 11
-151.114
 21
-163.875
  0
LINE
  5
345
100
AcDbEntity
  8
0
  6
ByLayer
 62
    5
370
   -1
100
AcDbLine
 10
-151.114
 20
-163.875
 11
-151.264
 21
-164.089
  0
LINE
  5
346
100
AcDbEntity
  8
0
  6
ByLayer
 62
    5
370
   -1
100
AcDbLine
 10
-151.264
 20
-164.089
 11
-151.449
 21
-164.274
  0
LINE
  5
347
100
AcDbEntity
  8
0
  6
ByLayer
 62
    5
370
   -1
100
AcDbLine
 10
-151.449
 20
-164.274
 11
-151.663
 21
-164.424
  0
LINE
  5
348
100
AcDbEntity
  8
0
  6
ByLayer
 62
    5
370
   -1
100
AcDbLine
 10
-151.663
 20
-164.424
 11
-151.9
 21
-164.534
  0
LINE
  5
349
100
AcDbEntity
  8
0
  6
ByLayer
 62
    5
370
   -1
100
AcDbLine
 10
-151.9
 20
-164.534
 11
-152.153
 21
-164.602
  0
LINE
  5
34A
100
AcDbEntity
  8
0
  6
ByLayer
 62
    5
370
   -1
100
AcDbLine
 10
-152.153
 20
-164.602
 11
-152.413
 21
-164.625
  0
LINE
  5
34B
100
AcDbEntity
  8
0
  6
ByLayer
 62
    5
370
   -1
100
AcDbLine
 10
-152.413
 20
-164.625
 11
-152.674
 21
-164.602
  0
LINE
  5
34C
100
AcDbEntity
  8
0
  6
ByLayer
 62
    5
370
   -1
100
AcDbLine
 10
-134.29
 20
-268.859
 11
-134.543
 21
-268.791
  0
LINE
  5
34D
100
AcDbEntity
  8
0
  6
ByLayer
 62
    5
370
   -1
100
AcDbLine
 10
-134.543
 20
-268.791
 11
-134.78
 21
-268.681
  0
LINE
  5
34E
100
AcDbEntity
  8
0
  6
ByLayer
 62
    5
370
   -1
100
AcDbLine
 10
-134.78
 20
-268.681
 11
-134.994
 21
-268.531
  0
LINE
  5
34F
100
AcDbEntity
  8
0
  6
ByLayer
 62
    5
370
   -1
100
AcDbLine
 10
-134.994
 20
-268.531
 11
-135.179
 21
-268.346
  0
LINE
  5
350
100
AcDbEntity
  8
0
  6
ByLayer
 62
    5
370
   -1
100
AcDbLine
 10
-135.179
 20
-268.346
 11
-135.329
 21
-268.132
  0
LINE
  5
351
100
AcDbEntity
  8
0
  6
ByLayer
 62
    5
370
   -1
100
AcDbLine
 10
-135.329
 20
-268.132
 11
-135.439
 21
-267.895
  0
LINE
  5
352
100
AcDbEntity
  8
0
  6
ByLayer
 62
    5
370
   -1
100
AcDbLine
 10
-135.439
 20
-267.895
 11
-135.507
 21
-267.642
  0
LINE
  5
353
100
AcDbEntity
  8
0
  6
ByLayer
 62
    5
370
   -1
100
AcDbLine
 10
-135.507
 20
-267.642
 11
-135.53
 21
-267.382
  0
LINE
  5
354
100
AcDbEntity
  8
0
  6
ByLayer
 62
    5
370
   -1
100
AcDbLine
 10
-135.53
 20
-267.382
 11
-135.507
 21
-267.121
  0
LINE
  5
355
100
AcDbEntity
  8
0
  6
ByLayer
 62
    5
370
   -1
100
AcDbLine
 10
-135.507
 20
-267.121
 11
-135.439
 21
-266.869
  0
LINE
  5
356
100
AcDbEntity
  8
0
  6
ByLayer
 62
    5
370
   -1
100
AcDbLine
 10
-135.439
 20
-266.869
 11
-135.329
 21
-266.632
  0
LINE
  5
357
100
AcDbEntity
  8
0
  6
ByLayer
 62
    5
370
   -1
100
AcDbLine
 10
-135.329
 20
-266.632
 11
-135.179
 21
-266.417
  0
LINE
  5
358
100
AcDbEntity
  8
0
  6
ByLayer
 62
    5
370
   -1
100
AcDbLine
 10
-135.179
 20
-266.417
 11
-134.994
 21
-266.233
  0
LINE
  5
359
100
AcDbEntity
  8
0
  6
ByLayer
 62
    5
370
   -1
100
AcDbLine
 10
-134.994
 20
-266.233
 11
-134.78
 21
-266.083
  0
LINE
  5
35A
100
AcDbEntity
  8
0
  6
ByLayer
 62
    5
370
   -1
100
AcDbLine
 10
-134.78
 20
-266.083
 11
-134.543
 21
-265.972
  0
LINE
  5
35B
100
AcDbEntity
  8
0
  6
ByLayer
 62
    5
370
   -1
100
AcDbLine
 10
-134.543
 20
-265.972
 11
-134.29
 21
-265.904
  0
LINE
  5
35C
100
AcDbEntity
  8
0
  6
ByLayer
 62
    5
370
   -1
100
AcDbLine
 10
-134.29
 20
-265.904
 11
-134.03
 21
-265.882
  0
LINE
  5
35D
100
AcDbEntity
  8
0
  6
ByLayer
 62
    5
370
   -1
100
AcDbLine
 10
-134.03
 20
-265.882
 11
-133.769
 21
-265.904
  0
LINE
  5
35E
100
AcDbEntity
  8
0
  6
ByLayer
 62
    5
370
   -1
100
AcDbLine
 10
-133.769
 20
-265.904
 11
-133.517
 21
-265.972
  0
LINE
  5
35F
100
AcDbEntity
  8
0
  6
ByLayer
 62
    5
370
   -1
100
AcDbLine
 10
-133.517
 20
-265.972
 11
-133.28
 21
-266.083
  0
LINE
  5
360
100
AcDbEntity
  8
0
  6
ByLayer
 62
    5
370
   -1
100
AcDbLine
 10
-133.28
 20
-266.083
 11
-133.066
 21
-266.233
  0
LINE
  5
361
100
AcDbEntity
  8
0
  6
ByLayer
 62
    5
370
   -1
100
AcDbLine
 10
-133.066
 20
-266.233
 11
-132.881
 21
-266.417
  0
LINE
  5
362
100
AcDbEntity
  8
0
  6
ByLayer
 62
    5
370
   -1
100
AcDbLine
 10
-132.881
 20
-266.417
 11
-132.731
 21
-266.632
  0
LINE
  5
363
100
AcDbEntity
  8
0
  6
ByLayer
 62
    5
370
   -1
100
AcDbLine
 10
-132.731
 20
-266.632
 11
-132.62
 21
-266.869
  0
LINE
  5
364
100
AcDbEntity
  8
0
  6
ByLayer
 62
    5
370
   -1
100
AcDbLine
 10
-132.62
 20
-266.869
 11
-132.553
 21
-267.121
  0
LINE
  5
365
100
AcDbEntity
  8
0
  6
ByLayer
 62
    5
370
   -1
100
AcDbLine
 10
-132.553
 20
-267.121
 11
-132.53
 21
-267.382
  0
LINE
  5
366
100
AcDbEntity
  8
0
  6
ByLayer
 62
    5
370
   -1
100
AcDbLine
 10
-132.53
 20
-267.382
 11
-132.553
 21
-267.642
  0
LINE
  5
367
100
AcDbEntity
  8
0
  6
ByLayer
 62
    5
370
   -1
100
AcDbLine
 10
-132.553
 20
-267.642
 11
-132.62
 21
-267.895
  0
LINE
  5
368
100
AcDbEntity
  8
0
  6
ByLayer
 62
    5
370
   -1
100
AcDbLine
 10
-132.62
 20
-267.895
 11
-132.731
 21
-268.132
  0
LINE
  5
369
100
AcDbEntity
  8
0
  6
ByLayer
 62
    5
370
   -1
100
AcDbLine
 10
-132.731
 20
-268.132
 11
-132.881
 21
-268.346
  0
LINE
  5
36A
100
AcDbEntity
  8
0
  6
ByLayer
 62
    5
370
   -1
100
AcDbLine
 10
-132.881
 20
-268.346
 11
-133.066
 21
-268.531
  0
LINE
  5
36B
100
AcDbEntity
  8
0
  6
ByLayer
 62
    5
370
   -1
100
AcDbLine
 10
-133.066
 20
-268.531
 11
-133.28
 21
-268.681
  0
LINE
  5
36C
100
AcDbEntity
  8
0
  6
ByLayer
 62
    5
370
   -1
100
AcDbLine
 10
-133.28
 20
-268.681
 11
-133.517
 21
-268.791
  0
LINE
  5
36D
100
AcDbEntity
  8
0
  6
ByLayer
 62
    5
370
   -1
100
AcDbLine
 10
-133.517
 20
-268.791
 11
-133.769
 21
-268.859
  0
LINE
  5
36E
100
AcDbEntity
  8
0
  6
ByLayer
 62
    5
370
   -1
100
AcDbLine
 10
-133.769
 20
-268.859
 11
-134.03
 21
-268.882
  0
LINE
  5
36F
100
AcDbEntity
  8
0
  6
ByLayer
 62
    5
370
   -1
100
AcDbLine
 10
-134.03
 20
-268.882
 11
-134.29
 21
-268.859
  0
LINE
  5
370
100
AcDbEntity
  8
0
  6
ByLayer
 62
    5
370
   -1
100
AcDbLine
 10
133.769
 20
-268.859
 11
133.517
 21
-268.791
  0
LINE
  5
371
100
AcDbEntity
  8
0
  6
ByLayer
 62
    5
370
   -1
100
AcDbLine
 10
133.517
 20
-268.791
 11
133.28
 21
-268.681
  0
LINE
  5
372
100
AcDbEntity
  8
0
  6
ByLayer
 62
    5
370
   -1
100
AcDbLine
 10
133.28
 20
-268.681
 11
133.066
 21
-268.531
  0
LINE
  5
373
100
AcDbEntity
  8
0
  6
ByLayer
 62
    5
370
   -1
100
AcDbLine
 10
133.066
 20
-268.531
 11
132.881
 21
-268.346
  0
LINE
  5
374
100
AcDbEntity
  8
0
  6
ByLayer
 62
    5
370
   -1
100
AcDbLine
 10
132.881
 20
-268.346
 11
132.731
 21
-268.132
  0
LINE
  5
375
100
AcDbEntity
  8
0
  6
ByLayer
 62
    5
370
   -1
100
AcDbLine
 10
132.731
 20
-268.132
 11
132.62
 21
-267.895
  0
LINE
  5
376
100
AcDbEntity
  8
0
  6
ByLayer
 62
    5
370
   -1
100
AcDbLine
 10
132.62
 20
-267.895
 11
132.553
 21
-267.642
  0
LINE
  5
377
100
AcDbEntity
  8
0
  6
ByLayer
 62
    5
370
   -1
100
AcDbLine
 10
132.553
 20
-267.642
 11
132.53
 21
-267.382
  0
LINE
  5
378
100
AcDbEntity
  8
0
  6
ByLayer
 62
    5
370
   -1
100
AcDbLine
 10
132.53
 20
-267.382
 11
132.553
 21
-267.121
  0
LINE
  5
379
100
AcDbEntity
  8
0
  6
ByLayer
 62
    5
370
   -1
100
AcDbLine
 10
132.553
 20
-267.121
 11
132.62
 21
-266.869
  0
LINE
  5
37A
100
AcDbEntity
  8
0
  6
ByLayer
 62
    5
370
   -1
100
AcDbLine
 10
132.62
 20
-266.869
 11
132.731
 21
-266.632
  0
LINE
  5
37B
100
AcDbEntity
  8
0
  6
ByLayer
 62
    5
370
   -1
100
AcDbLine
 10
132.731
 20
-266.632
 11
132.881
 21
-266.417
  0
LINE
  5
37C
100
AcDbEntity
  8
0
  6
ByLayer
 62
    5
370
   -1
100
AcDbLine
 10
132.881
 20
-266.417
 11
133.066
 21
-266.233
  0
LINE
  5
37D
100
AcDbEntity
  8
0
  6
ByLayer
 62
    5
370
   -1
100
AcDbLine
 10
133.066
 20
-266.233
 11
133.28
 21
-266.083
  0
LINE
  5
37E
100
AcDbEntity
  8
0
  6
ByLayer
 62
    5
370
   -1
100
AcDbLine
 10
133.28
 20
-266.083
 11
133.517
 21
-265.972
  0
LINE
  5
37F
100
AcDbEntity
  8
0
  6
ByLayer
 62
    5
370
   -1
100
AcDbLine
 10
133.517
 20
-265.972
 11
133.769
 21
-265.904
  0
LINE
  5
380
100
AcDbEntity
  8
0
  6
ByLayer
 62
    5
370
   -1
100
AcDbLine
 10
133.769
 20
-265.904
 11
134.03
 21
-265.882
  0
LINE
  5
381
100
AcDbEntity
  8
0
  6
ByLayer
 62
    5
370
   -1
100
AcDbLine
 10
134.03
 20
-265.882
 11
134.29
 21
-265.904
  0
LINE
  5
382
100
AcDbEntity
  8
0
  6
ByLayer
 62
    5
370
   -1
100
AcDbLine
 10
134.29
 20
-265.904
 11
134.543
 21
-265.972
  0
LINE
  5
383
100
AcDbEntity
  8
0
  6
ByLayer
 62
    5
370
   -1
100
AcDbLine
 10
134.543
 20
-265.972
 11
134.78
 21
-266.083
  0
LINE
  5
384
100
AcDbEntity
  8
0
  6
ByLayer
 62
    5
370
   -1
100
AcDbLine
 10
134.78
 20
-266.083
 11
134.994
 21
-266.233
  0
LINE
  5
385
100
AcDbEntity
  8
0
  6
ByLayer
 62
    5
370
   -1
100
AcDbLine
 10
134.994
 20
-266.233
 11
135.179
 21
-266.417
  0
LINE
  5
386
100
AcDbEntity
  8
0
  6
ByLayer
 62
    5
370
   -1
100
AcDbLine
 10
135.179
 20
-266.417
 11
135.329
 21
-266.632
  0
LINE
  5
387
100
AcDbEntity
  8
0
  6
ByLayer
 62
    5
370
   -1
100
AcDbLine
 10
135.329
 20
-266.632
 11
135.439
 21
-266.869
  0
LINE
  5
388
100
AcDbEntity
  8
0
  6
ByLayer
 62
    5
370
   -1
100
AcDbLine
 10
135.439
 20
-266.869
 11
135.507
 21
-267.121
  0
LINE
  5
389
100
AcDbEntity
  8
0
  6
ByLayer
 62
    5
370
   -1
100
AcDbLine
 10
135.507
 20
-267.121
 11
135.53
 21
-267.382
  0
LINE
  5
38A
100
AcDbEntity
  8
0
  6
ByLayer
 62
    5
370
   -1
100
AcDbLine
 10
135.53
 20
-267.382
 11
135.507
 21
-267.642
  0
LINE
  5
38B
100
AcDbEntity
  8
0
  6
ByLayer
 62
    5
370
   -1
100
AcDbLine
 10
135.507
 20
-267.642
 11
135.439
 21
-267.895
  0
LINE
  5
38C
100
AcDbEntity
  8
0
  6
ByLayer
 62
    5
370
   -1
100
AcDbLine
 10
135.439
 20
-267.895
 11
135.329
 21
-268.132
  0
LINE
  5
38D
100
AcDbEntity
  8
0
  6
ByLayer
 62
    5
370
   -1
100
AcDbLine
 10
135.329
 20
-268.132
 11
135.179
 21
-268.346
  0
LINE
  5
38E
100
AcDbEntity
  8
0
  6
ByLayer
 62
    5
370
   -1
100
AcDbLine
 10
135.179
 20
-268.346
 11
134.994
 21
-268.531
  0
LINE
  5
38F
100
AcDbEntity
  8
0
  6
ByLayer
 62
    5
370
   -1
100
AcDbLine
 10
134.994
 20
-268.531
 11
134.78
 21
-268.681
  0
LINE
  5
390
100
AcDbEntity
  8
0
  6
ByLayer
 62
    5
370
   -1
100
AcDbLine
 10
134.78
 20
-268.681
 11
134.543
 21
-268.791
  0
LINE
  5
391
100
AcDbEntity
  8
0
  6
ByLayer
 62
    5
370
   -1
100
AcDbLine
 10
134.543
 20
-268.791
 11
134.29
 21
-268.859
  0
LINE
  5
392
100
AcDbEntity
  8
0
  6
ByLayer
 62
    5
370
   -1
100
AcDbLine
 10
134.29
 20
-268.859
 11
134.03
 21
-268.882
  0
LINE
  5
393
100
AcDbEntity
  8
0
  6
ByLayer
 62
    5
370
   -1
100
AcDbLine
 10
134.03
 20
-268.882
 11
133.769
 21
-268.859
  0
LINE
  5
394
100
AcDbEntity
  8
0
  6
ByLayer
 62
    5
370
   -1
100
AcDbLine
 10
151.562
 20
-279.131
 11
151.309
 21
-279.064
  0
LINE
  5
395
100
AcDbEntity
  8
0
  6
ByLayer
 62
    5
370
   -1
100
AcDbLine
 10
151.309
 20
-279.064
 11
151.072
 21
-278.953
  0
LINE
  5
396
100
AcDbEntity
  8
0
  6
ByLayer
 62
    5
370
   -1
100
AcDbLine
 10
151.072
 20
-278.953
 11
150.858
 21
-278.803
  0
LINE
  5
397
100
AcDbEntity
  8
0
  6
ByLayer
 62
    5
370
   -1
100
AcDbLine
 10
150.858
 20
-278.803
 11
150.673
 21
-278.618
  0
LINE
  5
398
100
AcDbEntity
  8
0
  6
ByLayer
 62
    5
370
   -1
100
AcDbLine
 10
150.673
 20
-278.618
 11
150.523
 21
-278.404
  0
LINE
  5
399
100
AcDbEntity
  8
0
  6
ByLayer
 62
    5
370
   -1
100
AcDbLine
 10
150.523
 20
-278.404
 11
150.413
 21
-278.167
  0
LINE
  5
39A
100
AcDbEntity
  8
0
  6
ByLayer
 62
    5
370
   -1
100
AcDbLine
 10
150.413
 20
-278.167
 11
150.345
 21
-277.915
  0
LINE
  5
39B
100
AcDbEntity
  8
0
  6
ByLayer
 62
    5
370
   -1
100
AcDbLine
 10
150.345
 20
-277.915
 11
150.322
 21
-277.654
  0
LINE
  5
39C
100
AcDbEntity
  8
0
  6
ByLayer
 62
    5
370
   -1
100
AcDbLine
 10
150.322
 20
-277.654
 11
150.345
 21
-277.394
  0
LINE
  5
39D
100
AcDbEntity
  8
0
  6
ByLayer
 62
    5
370
   -1
100
AcDbLine
 10
150.345
 20
-277.394
 11
150.413
 21
-277.141
  0
LINE
  5
39E
100
AcDbEntity
  8
0
  6
ByLayer
 62
    5
370
   -1
100
AcDbLine
 10
150.413
 20
-277.141
 11
150.523
 21
-276.904
  0
LINE
  5
39F
100
AcDbEntity
  8
0
  6
ByLayer
 62
    5
370
   -1
100
AcDbLine
 10
150.523
 20
-276.904
 11
150.673
 21
-276.69
  0
LINE
  5
3A0
100
AcDbEntity
  8
0
  6
ByLayer
 62
    5
370
   -1
100
AcDbLine
 10
150.673
 20
-276.69
 11
150.858
 21
-276.505
  0
LINE
  5
3A1
100
AcDbEntity
  8
0
  6
ByLayer
 62
    5
370
   -1
100
AcDbLine
 10
150.858
 20
-276.505
 11
151.072
 21
-276.355
  0
LINE
  5
3A2
100
AcDbEntity
  8
0
  6
ByLayer
 62
    5
370
   -1
100
AcDbLine
 10
151.072
 20
-276.355
 11
151.309
 21
-276.245
  0
LINE
  5
3A3
100
AcDbEntity
  8
0
  6
ByLayer
 62
    5
370
   -1
100
AcDbLine
 10
151.309
 20
-276.245
 11
151.562
 21
-276.177
  0
LINE
  5
3A4
100
AcDbEntity
  8
0
  6
ByLayer
 62
    5
370
   -1
100
AcDbLine
 10
151.562
 20
-276.177
 11
151.822
 21
-276.154
  0
LINE
  5
3A5
100
AcDbEntity
  8
0
  6
ByLayer
 62
    5
370
   -1
100
AcDbLine
 10
151.822
 20
-276.154
 11
152.083
 21
-276.177
  0
LINE
  5
3A6
100
AcDbEntity
  8
0
  6
ByLayer
 62
    5
370
   -1
100
AcDbLine
 10
152.083
 20
-276.177
 11
152.335
 21
-276.245
  0
LINE
  5
3A7
100
AcDbEntity
  8
0
  6
ByLayer
 62
    5
370
   -1
100
AcDbLine
 10
152.335
 20
-276.245
 11
152.572
 21
-276.355
  0
LINE
  5
3A8
100
AcDbEntity
  8
0
  6
ByLayer
 62
    5
370
   -1
100
AcDbLine
 10
152.572
 20
-276.355
 11
152.787
 21
-276.505
  0
LINE
  5
3A9
100
AcDbEntity
  8
0
  6
ByLayer
 62
    5
370
   -1
100
AcDbLine
 10
152.787
 20
-276.505
 11
152.971
 21
-276.69
  0
LINE
  5
3AA
100
AcDbEntity
  8
0
  6
ByLayer
 62
    5
370
   -1
100
AcDbLine
 10
152.971
 20
-276.69
 11
153.121
 21
-276.904
  0
LINE
  5
3AB
100
AcDbEntity
  8
0
  6
ByLayer
 62
    5
370
   -1
100
AcDbLine
 10
153.121
 20
-276.904
 11
153.232
 21
-277.141
  0
LINE
  5
3AC
100
AcDbEntity
  8
0
  6
ByLayer
 62
    5
370
   -1
100
AcDbLine
 10
153.232
 20
-277.141
 11
153.3
 21
-277.394
  0
LINE
  5
3AD
100
AcDbEntity
  8
0
  6
ByLayer
 62
    5
370
   -1
100
AcDbLine
 10
153.3
 20
-277.394
 11
153.322
 21
-277.654
  0
LINE
  5
3AE
100
AcDbEntity
  8
0
  6
ByLayer
 62
    5
370
   -1
100
AcDbLine
 10
153.322
 20
-277.654
 11
153.3
 21
-277.915
  0
LINE
  5
3AF
100
AcDbEntity
  8
0
  6
ByLayer
 62
    5
370
   -1
100
AcDbLine
 10
153.3
 20
-277.915
 11
153.232
 21
-278.167
  0
LINE
  5
3B0
100
AcDbEntity
  8
0
  6
ByLayer
 62
    5
370
   -1
100
AcDbLine
 10
153.232
 20
-278.167
 11
153.121
 21
-278.404
  0
LINE
  5
3B1
100
AcDbEntity
  8
0
  6
ByLayer
 62
    5
370
   -1
100
AcDbLine
 10
153.121
 20
-278.404
 11
152.971
 21
-278.618
  0
LINE
  5
3B2
100
AcDbEntity
  8
0
  6
ByLayer
 62
    5
370
   -1
100
AcDbLine
 10
152.971
 20
-278.618
 11
152.787
 21
-278.803
  0
LINE
  5
3B3
100
AcDbEntity
  8
0
  6
ByLayer
 62
    5
370
   -1
100
AcDbLine
 10
152.787
 20
-278.803
 11
152.572
 21
-278.953
  0
LINE
  5
3B4
100
AcDbEntity
  8
0
  6
ByLayer
 62
    5
370
   -1
100
AcDbLine
 10
152.572
 20
-278.953
 11
152.335
 21
-279.064
  0
LINE
  5
3B5
100
AcDbEntity
  8
0
  6
ByLayer
 62
    5
370
   -1
100
AcDbLine
 10
152.335
 20
-279.064
 11
152.083
 21
-279.131
  0
LINE
  5
3B6
100
AcDbEntity
  8
0
  6
ByLayer
 62
    5
370
   -1
100
AcDbLine
 10
152.083
 20
-279.131
 11
151.822
 21
-279.154
  0
LINE
  5
3B7
100
AcDbEntity
  8
0
  6
ByLayer
 62
    5
370
   -1
100
AcDbLine
 10
151.822
 20
-279.154
 11
151.562
 21
-279.131
  0
LINE
  5
3B8
100
AcDbEntity
  8
0
  6
ByLayer
 62
    5
370
   -1
100
AcDbLine
 10
-152.083
 20
-279.131
 11
-152.335
 21
-279.064
  0
LINE
  5
3B9
100
AcDbEntity
  8
0
  6
ByLayer
 62
    5
370
   -1
100
AcDbLine
 10
-152.335
 20
-279.064
 11
-152.572
 21
-278.953
  0
LINE
  5
3BA
100
AcDbEntity
  8
0
  6
ByLayer
 62
    5
370
   -1
100
AcDbLine
 10
-152.572
 20
-278.953
 11
-152.787
 21
-278.803
  0
LINE
  5
3BB
100
AcDbEntity
  8
0
  6
ByLayer
 62
    5
370
   -1
100
AcDbLine
 10
-152.787
 20
-278.803
 11
-152.971
 21
-278.618
  0
LINE
  5
3BC
100
AcDbEntity
  8
0
  6
ByLayer
 62
    5
370
   -1
100
AcDbLine
 10
-152.971
 20
-278.618
 11
-153.121
 21
-278.404
  0
LINE
  5
3BD
100
AcDbEntity
  8
0
  6
ByLayer
 62
    5
370
   -1
100
AcDbLine
 10
-153.121
 20
-278.404
 11
-153.232
 21
-278.167
  0
LINE
  5
3BE
100
AcDbEntity
  8
0
  6
ByLayer
 62
    5
370
   -1
100
AcDbLine
 10
-153.232
 20
-278.167
 11
-153.3
 21
-277.915
  0
LINE
  5
3BF
100
AcDbEntity
  8
0
  6
ByLayer
 62
    5
370
   -1
100
AcDbLine
 10
-153.3
 20
-277.915
 11
-153.322
 21
-277.654
  0
LINE
  5
3C0
100
AcDbEntity
  8
0
  6
ByLayer
 62
    5
370
   -1
100
AcDbLine
 10
-153.322
 20
-277.654
 11
-153.3
 21
-277.394
  0
LINE
  5
3C1
100
AcDbEntity
  8
0
  6
ByLayer
 62
    5
370
   -1
100
AcDbLine
 10
-153.3
 20
-277.394
 11
-153.232
 21
-277.141
  0
LINE
  5
3C2
100
AcDbEntity
  8
0
  6
ByLayer
 62
    5
370
   -1
100
AcDbLine
 10
-153.232
 20
-277.141
 11
-153.121
 21
-276.904
  0
LINE
  5
3C3
100
AcDbEntity
  8
0
  6
ByLayer
 62
    5
370
   -1
100
AcDbLine
 10
-153.121
 20
-276.904
 11
-152.971
 21
-276.69
  0
LINE
  5
3C4
100
AcDbEntity
  8
0
  6
ByLayer
 62
    5
370
   -1
100
AcDbLine
 10
-152.971
 20
-276.69
 11
-152.787
 21
-276.505
  0
LINE
  5
3C5
100
AcDbEntity
  8
0
  6
ByLayer
 62
    5
370
   -1
100
AcDbLine
 10
-152.787
 20
-276.505
 11
-152.572
 21
-276.355
  0
LINE
  5
3C6
100
AcDbEntity
  8
0
  6
ByLayer
 62
    5
370
   -1
100
AcDbLine
 10
-152.572
 20
-276.355
 11
-152.335
 21
-276.245
  0
LINE
  5
3C7
100
AcDbEntity
  8
0
  6
ByLayer
 62
    5
370
   -1
100
AcDbLine
 10
-152.335
 20
-276.245
 11
-152.083
 21
-276.177
  0
LINE
  5
3C8
100
AcDbEntity
  8
0
  6
ByLayer
 62
    5
370
   -1
100
AcDbLine
 10
-152.083
 20
-276.177
 11
-151.822
 21
-276.154
  0
LINE
  5
3C9
100
AcDbEntity
  8
0
  6
ByLayer
 62
    5
370
   -1
100
AcDbLine
 10
-151.822
 20
-276.154
 11
-151.562
 21
-276.177
  0
LINE
  5
3CA
100
AcDbEntity
  8
0
  6
ByLayer
 62
    5
370
   -1
100
AcDbLine
 10
-151.562
 20
-276.177
 11
-151.309
 21
-276.245
  0
LINE
  5
3CB
100
AcDbEntity
  8
0
  6
ByLayer
 62
    5
370
   -1
100
AcDbLine
 10
-151.309
 20
-276.245
 11
-151.072
 21
-276.355
  0
LINE
  5
3CC
100
AcDbEntity
  8
0
  6
ByLayer
 62
    5
370
   -1
100
AcDbLine
 10
-151.072
 20
-276.355
 11
-150.858
 21
-276.505
  0
LINE
  5
3CD
100
AcDbEntity
  8
0
  6
ByLayer
 62
    5
370
   -1
100
AcDbLine
 10
-150.858
 20
-276.505
 11
-150.673
 21
-276.69
  0
LINE
  5
3CE
100
AcDbEntity
  8
0
  6
ByLayer
 62
    5
370
   -1
100
AcDbLine
 10
-150.673
 20
-276.69
 11
-150.523
 21
-276.904
  0
LINE
  5
3CF
100
AcDbEntity
  8
0
  6
ByLayer
 62
    5
370
   -1
100
AcDbLine
 10
-150.523
 20
-276.904
 11
-150.413
 21
-277.141
  0
LINE
  5
3D0
100
AcDbEntity
  8
0
  6
ByLayer
 62
    5
370
   -1
100
AcDbLine
 10
-150.413
 20
-277.141
 11
-150.345
 21
-277.394
  0
LINE
  5
3D1
100
AcDbEntity
  8
0
  6
ByLayer
 62
    5
370
   -1
100
AcDbLine
 10
-150.345
 20
-277.394
 11
-150.322
 21
-277.654
  0
LINE
  5
3D2
100
AcDbEntity
  8
0
  6
ByLayer
 62
    5
370
   -1
100
AcDbLine
 10
-150.322
 20
-277.654
 11
-150.345
 21
-277.915
  0
LINE
  5
3D3
100
AcDbEntity
  8
0
  6
ByLayer
 62
    5
370
   -1
100
AcDbLine
 10
-150.345
 20
-277.915
 11
-150.413
 21
-278.167
  0
LINE
  5
3D4
100
AcDbEntity
  8
0
  6
ByLayer
 62
    5
370
   -1
100
AcDbLine
 10
-150.413
 20
-278.167
 11
-150.523
 21
-278.404
  0
LINE
  5
3D5
100
AcDbEntity
  8
0
  6
ByLayer
 62
    5
370
   -1
100
AcDbLine
 10
-150.523
 20
-278.404
 11
-150.673
 21
-278.618
  0
LINE
  5
3D6
100
AcDbEntity
  8
0
  6
ByLayer
 62
    5
370
   -1
100
AcDbLine
 10
-150.673
 20
-278.618
 11
-150.858
 21
-278.803
  0
LINE
  5
3D7
100
AcDbEntity
  8
0
  6
ByLayer
 62
    5
370
   -1
100
AcDbLine
 10
-150.858
 20
-278.803
 11
-151.072
 21
-278.953
  0
LINE
  5
3D8
100
AcDbEntity
  8
0
  6
ByLayer
 62
    5
370
   -1
100
AcDbLine
 10
-151.072
 20
-278.953
 11
-151.309
 21
-279.064
  0
LINE
  5
3D9
100
AcDbEntity
  8
0
  6
ByLayer
 62
    5
370
   -1
100
AcDbLine
 10
-151.309
 20
-279.064
 11
-151.562
 21
-279.131
  0
LINE
  5
3DA
100
AcDbEntity
  8
0
  6
ByLayer
 62
    5
370
   -1
100
AcDbLine
 10
-151.562
 20
-279.131
 11
-151.822
 21
-279.154
  0
LINE
  5
3DB
100
AcDbEntity
  8
0
  6
ByLayer
 62
    5
370
   -1
100
AcDbLine
 10
-151.822
 20
-279.154
 11
-152.083
 21
-279.131
  0
LINE
  5
3DC
100
AcDbEntity
  8
0
  6
ByLayer
 62
    5
370
   -1
100
AcDbLine
 10
52.6721
 20
-336.908
 11
52.4195
 21
-336.84
  0
LINE
  5
3DD
100
AcDbEntity
  8
0
  6
ByLayer
 62
    5
370
   -1
100
AcDbLine
 10
52.4195
 20
-336.84
 11
52.1826
 21
-336.729
  0
LINE
  5
3DE
100
AcDbEntity
  8
0
  6
ByLayer
 62
    5
370
   -1
100
AcDbLine
 10
52.1826
 20
-336.729
 11
51.9684
 21
-336.58
  0
LINE
  5
3DF
100
AcDbEntity
  8
0
  6
ByLayer
 62
    5
370
   -1
100
AcDbLine
 10
51.9684
 20
-336.58
 11
51.7835
 21
-336.395
  0
LINE
  5
3E0
100
AcDbEntity
  8
0
  6
ByLayer
 62
    5
370
   -1
100
AcDbLine
 10
51.7835
 20
-336.395
 11
51.6335
 21
-336.18
  0
LINE
  5
3E1
100
AcDbEntity
  8
0
  6
ByLayer
 62
    5
370
   -1
100
AcDbLine
 10
51.6335
 20
-336.18
 11
51.523
 21
-335.943
  0
LINE
  5
3E2
100
AcDbEntity
  8
0
  6
ByLayer
 62
    5
370
   -1
100
AcDbLine
 10
51.523
 20
-335.943
 11
51.4553
 21
-335.691
  0
LINE
  5
3E3
100
AcDbEntity
  8
0
  6
ByLayer
 62
    5
370
   -1
100
AcDbLine
 10
51.4553
 20
-335.691
 11
51.4326
 21
-335.43
  0
LINE
  5
3E4
100
AcDbEntity
  8
0
  6
ByLayer
 62
    5
370
   -1
100
AcDbLine
 10
51.4326
 20
-335.43
 11
51.4553
 21
-335.17
  0
LINE
  5
3E5
100
AcDbEntity
  8
0
  6
ByLayer
 62
    5
370
   -1
100
AcDbLine
 10
51.4553
 20
-335.17
 11
51.523
 21
-334.917
  0
LINE
  5
3E6
100
AcDbEntity
  8
0
  6
ByLayer
 62
    5
370
   -1
100
AcDbLine
 10
51.523
 20
-334.917
 11
51.6335
 21
-334.68
  0
LINE
  5
3E7
100
AcDbEntity
  8
0
  6
ByLayer
 62
    5
370
   -1
100
AcDbLine
 10
51.6335
 20
-334.68
 11
51.7835
 21
-334.466
  0
LINE
  5
3E8
100
AcDbEntity
  8
0
  6
ByLayer
 62
    5
370
   -1
100
AcDbLine
 10
51.7835
 20
-334.466
 11
51.9684
 21
-334.281
  0
LINE
  5
3E9
100
AcDbEntity
  8
0
  6
ByLayer
 62
    5
370
   -1
100
AcDbLine
 10
51.9684
 20
-334.281
 11
52.1826
 21
-334.131
  0
LINE
  5
3EA
100
AcDbEntity
  8
0
  6
ByLayer
 62
    5
370
   -1
100
AcDbLine
 10
52.1826
 20
-334.131
 11
52.4195
 21
-334.021
  0
LINE
  5
3EB
100
AcDbEntity
  8
0
  6
ByLayer
 62
    5
370
   -1
100
AcDbLine
 10
52.4195
 20
-334.021
 11
52.6721
 21
-333.953
  0
LINE
  5
3EC
100
AcDbEntity
  8
0
  6
ByLayer
 62
    5
370
   -1
100
AcDbLine
 10
52.6721
 20
-333.953
 11
52.9326
 21
-333.93
  0
LINE
  5
3ED
100
AcDbEntity
  8
0
  6
ByLayer
 62
    5
370
   -1
100
AcDbLine
 10
52.9326
 20
-333.93
 11
53.193
 21
-333.953
  0
LINE
  5
3EE
100
AcDbEntity
  8
0
  6
ByLayer
 62
    5
370
   -1
100
AcDbLine
 10
53.193
 20
-333.953
 11
53.4456
 21
-334.021
  0
LINE
  5
3EF
100
AcDbEntity
  8
0
  6
ByLayer
 62
    5
370
   -1
100
AcDbLine
 10
53.4456
 20
-334.021
 11
53.6826
 21
-334.131
  0
LINE
  5
3F0
100
AcDbEntity
  8
0
  6
ByLayer
 62
    5
370
   -1
100
AcDbLine
 10
53.6826
 20
-334.131
 11
53.8967
 21
-334.281
  0
LINE
  5
3F1
100
AcDbEntity
  8
0
  6
ByLayer
 62
    5
370
   -1
100
AcDbLine
 10
53.8967
 20
-334.281
 11
54.0816
 21
-334.466
  0
LINE
  5
3F2
100
AcDbEntity
  8
0
  6
ByLayer
 62
    5
370
   -1
100
AcDbLine
 10
54.0816
 20
-334.466
 11
54.2316
 21
-334.68
  0
LINE
  5
3F3
100
AcDbEntity
  8
0
  6
ByLayer
 62
    5
370
   -1
100
AcDbLine
 10
54.2316
 20
-334.68
 11
54.3421
 21
-334.917
  0
LINE
  5
3F4
100
AcDbEntity
  8
0
  6
ByLayer
 62
    5
370
   -1
100
AcDbLine
 10
54.3421
 20
-334.917
 11
54.4098
 21
-335.17
  0
LINE
  5
3F5
100
AcDbEntity
  8
0
  6
ByLayer
 62
    5
370
   -1
100
AcDbLine
 10
54.4098
 20
-335.17
 11
54.4326
 21
-335.43
  0
LINE
  5
3F6
100
AcDbEntity
  8
0
  6
ByLayer
 62
    5
370
   -1
100
AcDbLine
 10
54.4326
 20
-335.43
 11
54.4098
 21
-335.691
  0
LINE
  5
3F7
100
AcDbEntity
  8
0
  6
ByLayer
 62
    5
370
   -1
100
AcDbLine
 10
54.4098
 20
-335.691
 11
54.3421
 21
-335.943
  0
LINE
  5
3F8
100
AcDbEntity
  8
0
  6
ByLayer
 62
    5
370
   -1
100
AcDbLine
 10
54.3421
 20
-335.943
 11
54.2316
 21
-336.18
  0
LINE
  5
3F9
100
AcDbEntity
  8
0
  6
ByLayer
 62
    5
370
   -1
100
AcDbLine
 10
54.2316
 20
-336.18
 11
54.0816
 21
-336.395
  0
LINE
  5
3FA
100
AcDbEntity
  8
0
  6
ByLayer
 62
    5
370
   -1
100
AcDbLine
 10
54.0816
 20
-336.395
 11
53.8967
 21
-336.58
  0
LINE
  5
3FB
100
AcDbEntity
  8
0
  6
ByLayer
 62
    5
370
   -1
100
AcDbLine
 10
53.8967
 20
-336.58
 11
53.6826
 21
-336.729
  0
LINE
  5
3FC
100
AcDbEntity
  8
0
  6
ByLayer
 62
    5
370
   -1
100
AcDbLine
 10
53.6826
 20
-336.729
 11
53.4456
 21
-336.84
  0
LINE
  5
3FD
100
AcDbEntity
  8
0
  6
ByLayer
 62
    5
370
   -1
100
AcDbLine
 10
53.4456
 20
-336.84
 11
53.193
 21
-336.908
  0
LINE
  5
3FE
100
AcDbEntity
  8
0
  6
ByLayer
 62
    5
370
   -1
100
AcDbLine
 10
53.193
 20
-336.908
 11
52.9326
 21
-336.93
  0
LINE
  5
3FF
100
AcDbEntity
  8
0
  6
ByLayer
 62
    5
370
   -1
100
AcDbLine
 10
52.9326
 20
-336.93
 11
52.6721
 21
-336.908
  0
LINE
  5
400
100
AcDbEntity
  8
0
  6
ByLayer
 62
    5
370
   -1
100
AcDbLine
 10
-53.193
 20
-336.908
 11
-53.4456
 21
-336.84
  0
LINE
  5
401
100
AcDbEntity
  8
0
  6
ByLayer
 62
    5
370
   -1
100
AcDbLine
 10
-53.4456
 20
-336.84
 11
-53.6826
 21
-336.729
  0
LINE
  5
402
100
AcDbEntity
  8
0
  6
ByLayer
 62
    5
370
   -1
100
AcDbLine
 10
-53.6826
 20
-336.729
 11
-53.8967
 21
-336.58
  0
LINE
  5
403
100
AcDbEntity
  8
0
  6
ByLayer
 62
    5
370
   -1
100
AcDbLine
 10
-53.8967
 20
-336.58
 11
-54.0816
 21
-336.395
  0
LINE
  5
404
100
AcDbEntity
  8
0
  6
ByLayer
 62
    5
370
   -1
100
AcDbLine
 10
-54.0816
 20
-336.395
 11
-54.2316
 21
-336.18
  0
LINE
  5
405
100
AcDbEntity
  8
0
  6
ByLayer
 62
    5
370
   -1
100
AcDbLine
 10
-54.2316
 20
-336.18
 11
-54.3421
 21
-335.943
  0
LINE
  5
406
100
AcDbEntity
  8
0
  6
ByLayer
 62
    5
370
   -1
100
AcDbLine
 10
-54.3421
 20
-335.943
 11
-54.4098
 21
-335.691
  0
LINE
  5
407
100
AcDbEntity
  8
0
  6
ByLayer
 62
    5
370
   -1
100
AcDbLine
 10
-54.4098
 20
-335.691
 11
-54.4326
 21
-335.43
  0
LINE
  5
408
100
AcDbEntity
  8
0
  6
ByLayer
 62
    5
370
   -1
100
AcDbLine
 10
-54.4326
 20
-335.43
 11
-54.4098
 21
-335.17
  0
LINE
  5
409
100
AcDbEntity
  8
0
  6
ByLayer
 62
    5
370
   -1
100
AcDbLine
 10
-54.4098
 20
-335.17
 11
-54.3421
 21
-334.917
  0
LINE
  5
40A
100
AcDbEntity
  8
0
  6
ByLayer
 62
    5
370
   -1
100
AcDbLine
 10
-54.3421
 20
-334.917
 11
-54.2316
 21
-334.68
  0
LINE
  5
40B
100
AcDbEntity
  8
0
  6
ByLayer
 62
    5
370
   -1
100
AcDbLine
 10
-54.2316
 20
-334.68
 11
-54.0816
 21
-334.466
  0
LINE
  5
40C
100
AcDbEntity
  8
0
  6
ByLayer
 62
    5
370
   -1
100
AcDbLine
 10
-54.0816
 20
-334.466
 11
-53.8967
 21
-334.281
  0
LINE
  5
40D
100
AcDbEntity
  8
0
  6
ByLayer
 62
    5
370
   -1
100
AcDbLine
 10
-53.8967
 20
-334.281
 11
-53.6826
 21
-334.131
  0
LINE
  5
40E
100
AcDbEntity
  8
0
  6
ByLayer
 62
    5
370
   -1
100
AcDbLine
 10
-53.6826
 20
-334.131
 11
-53.4456
 21
-334.021
  0
LINE
  5
40F
100
AcDbEntity
  8
0
  6
ByLayer
 62
    5
370
   -1
100
AcDbLine
 10
-53.4456
 20
-334.021
 11
-53.193
 21
-333.953
  0
LINE
  5
410
100
AcDbEntity
  8
0
  6
ByLayer
 62
    5
370
   -1
100
AcDbLine
 10
-53.193
 20
-333.953
 11
-52.9326
 21
-333.93
  0
LINE
  5
411
100
AcDbEntity
  8
0
  6
ByLayer
 62
    5
370
   -1
100
AcDbLine
 10
-52.9326
 20
-333.93
 11
-52.6721
 21
-333.953
  0
LINE
  5
412
100
AcDbEntity
  8
0
  6
ByLayer
 62
    5
370
   -1
100
AcDbLine
 10
-52.6721
 20
-333.953
 11
-52.4195
 21
-334.021
  0
LINE
  5
413
100
AcDbEntity
  8
0
  6
ByLayer
 62
    5
370
   -1
100
AcDbLine
 10
-52.4195
 20
-334.021
 11
-52.1826
 21
-334.131
  0
LINE
  5
414
100
AcDbEntity
  8
0
  6
ByLayer
 62
    5
370
   -1
100
AcDbLine
 10
-52.1826
 20
-334.131
 11
-51.9684
 21
-334.281
  0
LINE
  5
415
100
AcDbEntity
  8
0
  6
ByLayer
 62
    5
370
   -1
100
AcDbLine
 10
-51.9684
 20
-334.281
 11
-51.7835
 21
-334.466
  0
LINE
  5
416
100
AcDbEntity
  8
0
  6
ByLayer
 62
    5
370
   -1
100
AcDbLine
 10
-51.7835
 20
-334.466
 11
-51.6335
 21
-334.68
  0
LINE
  5
417
100
AcDbEntity
  8
0
  6
ByLayer
 62
    5
370
   -1
100
AcDbLine
 10
-51.6335
 20
-334.68
 11
-51.523
 21
-334.917
  0
LINE
  5
418
100
AcDbEntity
  8
0
  6
ByLayer
 62
    5
370
   -1
100
AcDbLine
 10
-51.523
 20
-334.917
 11
-51.4553
 21
-335.17
  0
LINE
  5
419
100
AcDbEntity
  8
0
  6
ByLayer
 62
    5
370
   -1
100
AcDbLine
 10
-51.4553
 20
-335.17
 11
-51.4326
 21
-335.43
  0
LINE
  5
41A
100
AcDbEntity
  8
0
  6
ByLayer
 62
    5
370
   -1
100
AcDbLine
 10
-51.4326
 20
-335.43
 11
-51.4553
 21
-335.691
  0
LINE
  5
41B
100
AcDbEntity
  8
0
  6
ByLayer
 62
    5
370
   -1
100
AcDbLine
 10
-51.4553
 20
-335.691
 11
-51.523
 21
-335.943
  0
LINE
  5
41C
100
AcDbEntity
  8
0
  6
ByLayer
 62
    5
370
   -1
100
AcDbLine
 10
-51.523
 20
-335.943
 11
-51.6335
 21
-336.18
  0
LINE
  5
41D
100
AcDbEntity
  8
0
  6
ByLayer
 62
    5
370
   -1
100
AcDbLine
 10
-51.6335
 20
-336.18
 11
-51.7835
 21
-336.395
  0
LINE
  5
41E
100
AcDbEntity
  8
0
  6
ByLayer
 62
    5
370
   -1
100
AcDbLine
 10
-51.7835
 20
-336.395
 11
-51.9684
 21
-336.58
  0
LINE
  5
41F
100
AcDbEntity
  8
0
  6
ByLayer
 62
    5
370
   -1
100
AcDbLine
 10
-51.9684
 20
-336.58
 11
-52.1826
 21
-336.729
  0
LINE
  5
420
100
AcDbEntity
  8
0
  6
ByLayer
 62
    5
370
   -1
100
AcDbLine
 10
-52.1826
 20
-336.729
 11
-52.4195
 21
-336.84
  0
LINE
  5
421
100
AcDbEntity
  8
0
  6
ByLayer
 62
    5
370
   -1
100
AcDbLine
 10
-52.4195
 20
-336.84
 11
-52.6721
 21
-336.908
  0
LINE
  5
422
100
AcDbEntity
  8
0
  6
ByLayer
 62
    5
370
   -1
100
AcDbLine
 10
-52.6721
 20
-336.908
 11
-52.9326
 21
-336.93
  0
LINE
  5
423
100
AcDbEntity
  8
0
  6
ByLayer
 62
    5
370
   -1
100
AcDbLine
 10
-52.9326
 20
-336.93
 11
-53.193
 21
-336.908
  0
LINE
  5
424
100
AcDbEntity
  8
0
  6
ByLayer
 62
    5
370
   -1
100
AcDbLine
 10
-60.2198
 20
-356.214
 11
-60.4724
 21
-356.146
  0
LINE
  5
425
100
AcDbEntity
  8
0
  6
ByLayer
 62
    5
370
   -1
100
AcDbLine
 10
-60.4724
 20
-356.146
 11
-60.7094
 21
-356.035
  0
LINE
  5
426
100
AcDbEntity
  8
0
  6
ByLayer
 62
    5
370
   -1
100
AcDbLine
 10
-60.7094
 20
-356.035
 11
-60.9235
 21
-355.885
  0
LINE
  5
427
100
AcDbEntity
  8
0
  6
ByLayer
 62
    5
370
   -1
100
AcDbLine
 10
-60.9235
 20
-355.885
 11
-61.1084
 21
-355.701
  0
LINE
  5
428
100
AcDbEntity
  8
0
  6
ByLayer
 62
    5
370
   -1
100
AcDbLine
 10
-61.1084
 20
-355.701
 11
-61.2584
 21
-355.486
  0
LINE
  5
429
100
AcDbEntity
  8
0
  6
ByLayer
 62
    5
370
   -1
100
AcDbLine
 10
-61.2584
 20
-355.486
 11
-61.3689
 21
-355.249
  0
LINE
  5
42A
100
AcDbEntity
  8
0
  6
ByLayer
 62
    5
370
   -1
100
AcDbLine
 10
-61.3689
 20
-355.249
 11
-61.4366
 21
-354.997
  0
LINE
  5
42B
100
AcDbEntity
  8
0
  6
ByLayer
 62
    5
370
   -1
100
AcDbLine
 10
-61.4366
 20
-354.997
 11
-61.4594
 21
-354.736
  0
LINE
  5
42C
100
AcDbEntity
  8
0
  6
ByLayer
 62
    5
370
   -1
100
AcDbLine
 10
-61.4594
 20
-354.736
 11
-61.4366
 21
-354.476
  0
LINE
  5
42D
100
AcDbEntity
  8
0
  6
ByLayer
 62
    5
370
   -1
100
AcDbLine
 10
-61.4366
 20
-354.476
 11
-61.3689
 21
-354.223
  0
LINE
  5
42E
100
AcDbEntity
  8
0
  6
ByLayer
 62
    5
370
   -1
100
AcDbLine
 10
-61.3689
 20
-354.223
 11
-61.2584
 21
-353.986
  0
LINE
  5
42F
100
AcDbEntity
  8
0
  6
ByLayer
 62
    5
370
   -1
100
AcDbLine
 10
-61.2584
 20
-353.986
 11
-61.1084
 21
-353.772
  0
LINE
  5
430
100
AcDbEntity
  8
0
  6
ByLayer
 62
    5
370
   -1
100
AcDbLine
 10
-61.1084
 20
-353.772
 11
-60.9235
 21
-353.587
  0
LINE
  5
431
100
AcDbEntity
  8
0
  6
ByLayer
 62
    5
370
   -1
100
AcDbLine
 10
-60.9235
 20
-353.587
 11
-60.7094
 21
-353.437
  0
LINE
  5
432
100
AcDbEntity
  8
0
  6
ByLayer
 62
    5
370
   -1
100
AcDbLine
 10
-60.7094
 20
-353.437
 11
-60.4724
 21
-353.327
  0
LINE
  5
433
100
AcDbEntity
  8
0
  6
ByLayer
 62
    5
370
   -1
100
AcDbLine
 10
-60.4724
 20
-353.327
 11
-60.2198
 21
-353.259
  0
LINE
  5
434
100
AcDbEntity
  8
0
  6
ByLayer
 62
    5
370
   -1
100
AcDbLine
 10
-60.2198
 20
-353.259
 11
-59.9594
 21
-353.236
  0
LINE
  5
435
100
AcDbEntity
  8
0
  6
ByLayer
 62
    5
370
   -1
100
AcDbLine
 10
-59.9594
 20
-353.236
 11
-59.6989
 21
-353.259
  0
LINE
  5
436
100
AcDbEntity
  8
0
  6
ByLayer
 62
    5
370
   -1
100
AcDbLine
 10
-59.6989
 20
-353.259
 11
-59.4463
 21
-353.327
  0
LINE
  5
437
100
AcDbEntity
  8
0
  6
ByLayer
 62
    5
370
   -1
100
AcDbLine
 10
-59.4463
 20
-353.327
 11
-59.2094
 21
-353.437
  0
LINE
  5
438
100
AcDbEntity
  8
0
  6
ByLayer
 62
    5
370
   -1
100
AcDbLine
 10
-59.2094
 20
-353.437
 11
-58.9952
 21
-353.587
  0
LINE
  5
439
100
AcDbEntity
  8
0
  6
ByLayer
 62
    5
370
   -1
100
AcDbLine
 10
-58.9952
 20
-353.587
 11
-58.8103
 21
-353.772
  0
LINE
  5
43A
100
AcDbEntity
  8
0
  6
ByLayer
 62
    5
370
   -1
100
AcDbLine
 10
-58.8103
 20
-353.772
 11
-58.6603
 21
-353.986
  0
LINE
  5
43B
100
AcDbEntity
  8
0
  6
ByLayer
 62
    5
370
   -1
100
AcDbLine
 10
-58.6603
 20
-353.986
 11
-58.5498
 21
-354.223
  0
LINE
  5
43C
100
AcDbEntity
  8
0
  6
ByLayer
 62
    5
370
   -1
100
AcDbLine
 10
-58.5498
 20
-354.223
 11
-58.4821
 21
-354.476
  0
LINE
  5
43D
100
AcDbEntity
  8
0
  6
ByLayer
 62
    5
370
   -1
100
AcDbLine
 10
-58.4821
 20
-354.476
 11
-58.4594
 21
-354.736
  0
LINE
  5
43E
100
AcDbEntity
  8
0
  6
ByLayer
 62
    5
370
   -1
100
AcDbLine
 10
-58.4594
 20
-354.736
 11
-58.4821
 21
-354.997
  0
LINE
  5
43F
100
AcDbEntity
  8
0
  6
ByLayer
 62
    5
370
   -1
100
AcDbLine
 10
-58.4821
 20
-354.997
 11
-58.5498
 21
-355.249
  0
LINE
  5
440
100
AcDbEntity
  8
0
  6
ByLayer
 62
    5
370
   -1
100
AcDbLine
 10
-58.5498
 20
-355.249
 11
-58.6603
 21
-355.486
  0
LINE
  5
441
100
AcDbEntity
  8
0
  6
ByLayer
 62
    5
370
   -1
100
AcDbLine
 10
-58.6603
 20
-355.486
 11
-58.8103
 21
-355.701
  0
LINE
  5
442
100
AcDbEntity
  8
0
  6
ByLayer
 62
    5
370
   -1
100
AcDbLine
 10
-58.8103
 20
-355.701
 11
-58.9952
 21
-355.886
  0
LINE
  5
443
100
AcDbEntity
  8
0
  6
ByLayer
 62
    5
370
   -1
100
AcDbLine
 10
-58.9952
 20
-355.886
 11
-59.2094
 21
-356.035
  0
LINE
  5
444
100
AcDbEntity
  8
0
  6
ByLayer
 62
    5
370
   -1
100
AcDbLine
 10
-59.2094
 20
-356.035
 11
-59.4463
 21
-356.146
  0
LINE
  5
445
100
AcDbEntity
  8
0
  6
ByLayer
 62
    5
370
   -1
100
AcDbLine
 10
-59.4463
 20
-356.146
 11
-59.6989
 21
-356.214
  0
LINE
  5
446
100
AcDbEntity
  8
0
  6
ByLayer
 62
    5
370
   -1
100
AcDbLine
 10
-59.6989
 20
-356.214
 11
-59.9594
 21
-356.236
  0
LINE
  5
447
100
AcDbEntity
  8
0
  6
ByLayer
 62
    5
370
   -1
100
AcDbLine
 10
-59.9594
 20
-356.236
 11
-60.2198
 21
-356.214
  0
LINE
  5
448
100
AcDbEntity
  8
0
  6
ByLayer
 62
    5
370
   -1
100
AcDbLine
 10
59.6989
 20
-356.214
 11
59.4463
 21
-356.146
  0
LINE
  5
449
100
AcDbEntity
  8
0
  6
ByLayer
 62
    5
370
   -1
100
AcDbLine
 10
59.4463
 20
-356.146
 11
59.2094
 21
-356.035
  0
LINE
  5
44A
100
AcDbEntity
  8
0
  6
ByLayer
 62
    5
370
   -1
100
AcDbLine
 10
59.2094
 20
-356.035
 11
58.9952
 21
-355.886
  0
LINE
  5
44B
100
AcDbEntity
  8
0
  6
ByLayer
 62
    5
370
   -1
100
AcDbLine
 10
58.9952
 20
-355.886
 11
58.8103
 21
-355.701
  0
LINE
  5
44C
100
AcDbEntity
  8
0
  6
ByLayer
 62
    5
370
   -1
100
AcDbLine
 10
58.8103
 20
-355.701
 11
58.6603
 21
-355.486
  0
LINE
  5
44D
100
AcDbEntity
  8
0
  6
ByLayer
 62
    5
370
   -1
100
AcDbLine
 10
58.6603
 20
-355.486
 11
58.5498
 21
-355.249
  0
LINE
  5
44E
100
AcDbEntity
  8
0
  6
ByLayer
 62
    5
370
   -1
100
AcDbLine
 10
58.5498
 20
-355.249
 11
58.4821
 21
-354.997
  0
LINE
  5
44F
100
AcDbEntity
  8
0
  6
ByLayer
 62
    5
370
   -1
100
AcDbLine
 10
58.4821
 20
-354.997
 11
58.4594
 21
-354.736
  0
LINE
  5
450
100
AcDbEntity
  8
0
  6
ByLayer
 62
    5
370
   -1
100
AcDbLine
 10
58.4594
 20
-354.736
 11
58.4821
 21
-354.476
  0
LINE
  5
451
100
AcDbEntity
  8
0
  6
ByLayer
 62
    5
370
   -1
100
AcDbLine
 10
58.4821
 20
-354.476
 11
58.5498
 21
-354.223
  0
LINE
  5
452
100
AcDbEntity
  8
0
  6
ByLayer
 62
    5
370
   -1
100
AcDbLine
 10
58.5498
 20
-354.223
 11
58.6603
 21
-353.986
  0
LINE
  5
453
100
AcDbEntity
  8
0
  6
ByLayer
 62
    5
370
   -1
100
AcDbLine
 10
58.6603
 20
-353.986
 11
58.8103
 21
-353.772
  0
LINE
  5
454
100
AcDbEntity
  8
0
  6
ByLayer
 62
    5
370
   -1
100
AcDbLine
 10
58.8103
 20
-353.772
 11
58.9952
 21
-353.587
  0
LINE
  5
455
100
AcDbEntity
  8
0
  6
ByLayer
 62
    5
370
   -1
100
AcDbLine
 10
58.9952
 20
-353.587
 11
59.2094
 21
-353.437
  0
LINE
  5
456
100
AcDbEntity
  8
0
  6
ByLayer
 62
    5
370
   -1
100
AcDbLine
 10
59.2094
 20
-353.437
 11
59.4463
 21
-353.327
  0
LINE
  5
457
100
AcDbEntity
  8
0
  6
ByLayer
 62
    5
370
   -1
100
AcDbLine
 10
59.4463
 20
-353.327
 11
59.6989
 21
-353.259
  0
LINE
  5
458
100
AcDbEntity
  8
0
  6
ByLayer
 62
    5
370
   -1
100
AcDbLine
 10
59.6989
 20
-353.259
 11
59.9594
 21
-353.236
  0
LINE
  5
459
100
AcDbEntity
  8
0
  6
ByLayer
 62
    5
370
   -1
100
AcDbLine
 10
59.9594
 20
-353.236
 11
60.2198
 21
-353.259
  0
LINE
  5
45A
100
AcDbEntity
  8
0
  6
ByLayer
 62
    5
370
   -1
100
AcDbLine
 10
60.2198
 20
-353.259
 11
60.4724
 21
-353.327
  0
LINE
  5
45B
100
AcDbEntity
  8
0
  6
ByLayer
 62
    5
370
   -1
100
AcDbLine
 10
60.4724
 20
-353.327
 11
60.7094
 21
-353.437
  0
LINE
  5
45C
100
AcDbEntity
  8
0
  6
ByLayer
 62
    5
370
   -1
100
AcDbLine
 10
60.7094
 20
-353.437
 11
60.9235
 21
-353.587
  0
LINE
  5
45D
100
AcDbEntity
  8
0
  6
ByLayer
 62
    5
370
   -1
100
AcDbLine
 10
60.9235
 20
-353.587
 11
61.1084
 21
-353.772
  0
LINE
  5
45E
100
AcDbEntity
  8
0
  6
ByLayer
 62
    5
370
   -1
100
AcDbLine
 10
61.1084
 20
-353.772
 11
61.2584
 21
-353.986
  0
LINE
  5
45F
100
AcDbEntity
  8
0
  6
ByLayer
 62
    5
370
   -1
100
AcDbLine
 10
61.2584
 20
-353.986
 11
61.3689
 21
-354.223
  0
LINE
  5
460
100
AcDbEntity
  8
0
  6
ByLayer
 62
    5
370
   -1
100
AcDbLine
 10
61.3689
 20
-354.223
 11
61.4366
 21
-354.476
  0
LINE
  5
461
100
AcDbEntity
  8
0
  6
ByLayer
 62
    5
370
   -1
100
AcDbLine
 10
61.4366
 20
-354.476
 11
61.4594
 21
-354.736
  0
LINE
  5
462
100
AcDbEntity
  8
0
  6
ByLayer
 62
    5
370
   -1
100
AcDbLine
 10
61.4594
 20
-354.736
 11
61.4366
 21
-354.997
  0
LINE
  5
463
100
AcDbEntity
  8
0
  6
ByLayer
 62
    5
370
   -1
100
AcDbLine
 10
61.4366
 20
-354.997
 11
61.3689
 21
-355.249
  0
LINE
  5
464
100
AcDbEntity
  8
0
  6
ByLayer
 62
    5
370
   -1
100
AcDbLine
 10
61.3689
 20
-355.249
 11
61.2584
 21
-355.486
  0
LINE
  5
465
100
AcDbEntity
  8
0
  6
ByLayer
 62
    5
370
   -1
100
AcDbLine
 10
61.2584
 20
-355.486
 11
61.1084
 21
-355.701
  0
LINE
  5
466
100
AcDbEntity
  8
0
  6
ByLayer
 62
    5
370
   -1
100
AcDbLine
 10
61.1084
 20
-355.701
 11
60.9235
 21
-355.885
  0
LINE
  5
467
100
AcDbEntity
  8
0
  6
ByLayer
 62
    5
370
   -1
100
AcDbLine
 10
60.9235
 20
-355.885
 11
60.7094
 21
-356.035
  0
LINE
  5
468
100
AcDbEntity
  8
0
  6
ByLayer
 62
    5
370
   -1
100
AcDbLine
 10
60.7094
 20
-356.035
 11
60.4724
 21
-356.146
  0
LINE
  5
469
100
AcDbEntity
  8
0
  6
ByLayer
 62
    5
370
   -1
100
AcDbLine
 10
60.4724
 20
-356.146
 11
60.2198
 21
-356.214
  0
LINE
  5
46A
100
AcDbEntity
  8
0
  6
ByLayer
 62
    5
370
   -1
100
AcDbLine
 10
60.2198
 20
-356.214
 11
59.9594
 21
-356.236
  0
LINE
  5
46B
100
AcDbEntity
  8
0
  6
ByLayer
 62
    5
370
   -1
100
AcDbLine
 10
59.9594
 20
-356.236
 11
59.6989
 21
-356.214
  0
ENDSEC
  0
SECTION
  2
OBJECTS
  0
DICTIONARY
  5
C
330
0
100
AcDbDictionary
281
    1
  3
ACAD_GROUP
350
D
  0
DICTIONARY
  5
D
330
C
100
AcDbDictionary
281
    1
  0
ENDSEC
  0
EOF
