  0
SECTION
  2
BLOCKS
  0
ENDSEC
  0
SECTION
  2
ENTITIES
  0
LINE
  8
0
 10
1.91145
 20
-565.332
 11
2.04648
 21
-565.062
  0
LINE
  8
0
 10
2.04648
 20
-565.062
 11
2.04645
 21
-565.056
  0
LINE
  8
0
 10
2.04645
 20
-565.056
 11
3.14178
 21
-565.046
  0
LINE
  8
0
 10
3.14178
 20
-565.046
 11
3.14185
 21
-565.052
  0
LINE
  8
0
 10
3.14185
 20
-565.052
 11
5.9861
 21
-570.209
  0
LINE
  8
0
 10
5.9861
 20
-570.209
 11
7.22482
 21
-570.181
  0
LINE
  8
0
 10
7.22482
 20
-570.181
 11
9.69966
 21
-565.171
  0
LINE
  8
0
 10
9.69966
 20
-565.171
 11
9.82713
 21
-564.897
  0
LINE
  8
0
 10
9.82713
 20
-564.897
 11
9.8269
 21
-564.891
  0
LINE
  8
0
 10
9.8269
 20
-564.891
 11
10.9216
 21
-564.85
  0
LINE
  8
0
 10
10.9216
 20
-564.85
 11
10.9218
 21
-564.857
  0
LINE
  8
0
 10
10.9218
 20
-564.857
 11
13.9083
 21
-569.933
  0
LINE
  8
0
 10
13.9083
 20
-569.933
 11
15.1457
 21
-569.87
  0
LINE
  8
0
 10
15.1457
 20
-569.87
 11
17.4804
 21
-564.793
  0
LINE
  8
0
 10
17.4804
 20
-564.793
 11
17.6002
 21
-564.516
  0
LINE
  8
0
 10
17.6002
 20
-564.516
 11
17.5998
 21
-564.51
  0
LINE
  8
0
 10
17.5998
 20
-564.51
 11
18.6929
 21
-564.439
  0
LINE
  8
0
 10
18.6929
 20
-564.439
 11
18.6933
 21
-564.445
  0
LINE
  8
0
 10
18.6933
 20
-564.445
 11
21.8198
 21
-569.436
  0
LINE
  8
0
 10
21.8198
 20
-569.436
 11
23.055
 21
-569.339
  0
LINE
  8
0
 10
23.055
 20
-569.339
 11
25.2475
 21
-564.199
  0
LINE
  8
0
 10
25.2475
 20
-564.199
 11
25.3596
 21
-563.919
  0
LINE
  8
0
 10
25.3596
 20
-563.919
 11
25.3591
 21
-563.912
  0
LINE
  8
0
 10
25.3591
 20
-563.912
 11
26.4498
 21
-563.811
  0
LINE
  8
0
 10
26.4498
 20
-563.811
 11
26.4503
 21
-563.817
  0
LINE
  8
0
 10
26.4503
 20
-563.817
 11
29.7144
 21
-568.72
  0
LINE
  8
0
 10
29.7144
 20
-568.72
 11
30.9464
 21
-568.588
  0
LINE
  8
0
 10
30.9464
 20
-568.588
 11
32.9952
 21
-563.389
  0
LINE
  8
0
 10
32.9952
 20
-563.389
 11
33.0995
 21
-563.106
  0
LINE
  8
0
 10
33.0995
 20
-563.106
 11
33.0988
 21
-563.1
  0
LINE
  8
0
 10
33.0988
 20
-563.1
 11
34.1862
 21
-562.968
  0
LINE
  8
0
 10
34.1862
 20
-562.968
 11
34.187
 21
-562.974
  0
LINE
  8
0
 10
34.187
 20
-562.974
 11
37.586
 21
-567.784
  0
LINE
  8
0
 10
37.586
 20
-567.784
 11
38.8139
 21
-567.618
  0
LINE
  8
0
 10
38.8139
 20
-567.618
 11
40.7174
 21
-562.364
  0
LINE
  8
0
 10
40.7174
 20
-562.364
 11
40.8138
 21
-562.078
  0
LINE
  8
0
 10
40.8138
 20
-562.078
 11
40.8128
 21
-562.072
  0
LINE
  8
0
 10
40.8128
 20
-562.072
 11
41.8962
 21
-561.91
  0
LINE
  8
0
 10
41.8962
 20
-561.91
 11
41.8972
 21
-561.917
  0
LINE
  8
0
 10
41.8972
 20
-561.917
 11
45.4285
 21
-566.63
  0
LINE
  8
0
 10
45.4285
 20
-566.63
 11
46.6513
 21
-566.43
  0
LINE
  8
0
 10
46.6513
 20
-566.43
 11
48.4081
 21
-561.125
  0
LINE
  8
0
 10
48.4081
 20
-561.125
 11
48.4965
 21
-560.837
  0
LINE
  8
0
 10
48.4965
 20
-560.837
 11
48.4954
 21
-560.831
  0
LINE
  8
0
 10
48.4954
 20
-560.831
 11
49.5739
 21
-560.639
  0
LINE
  8
0
 10
49.5739
 20
-560.639
 11
49.575
 21
-560.645
  0
LINE
  8
0
 10
49.575
 20
-560.645
 11
53.236
 21
-565.258
  0
LINE
  8
0
 10
53.236
 20
-565.258
 11
54.4528
 21
-565.024
  0
LINE
  8
0
 10
54.4528
 20
-565.024
 11
56.0614
 21
-559.673
  0
LINE
  8
0
 10
56.0614
 20
-559.673
 11
56.1417
 21
-559.382
  0
LINE
  8
0
 10
56.1417
 20
-559.382
 11
56.1405
 21
-559.376
  0
LINE
  8
0
 10
56.1405
 20
-559.376
 11
57.2132
 21
-559.154
  0
LINE
  8
0
 10
57.2132
 20
-559.154
 11
57.2144
 21
-559.16
  0
LINE
  8
0
 10
57.2144
 20
-559.16
 11
61.0023
 21
-563.67
  0
LINE
  8
0
 10
61.0023
 20
-563.67
 11
62.2121
 21
-563.402
  0
LINE
  8
0
 10
62.2121
 20
-563.402
 11
63.6714
 21
-558.008
  0
LINE
  8
0
 10
63.6714
 20
-558.008
 11
63.7436
 21
-557.716
  0
LINE
  8
0
 10
63.7436
 20
-557.716
 11
63.7421
 21
-557.71
  0
LINE
  8
0
 10
63.7421
 20
-557.71
 11
64.8083
 21
-557.458
  0
LINE
  8
0
 10
64.8083
 20
-557.458
 11
64.8097
 21
-557.464
  0
LINE
  8
0
 10
64.8097
 20
-557.464
 11
68.7215
 21
-561.867
  0
LINE
  8
0
 10
68.7215
 20
-561.867
 11
69.9234
 21
-561.566
  0
LINE
  8
0
 10
69.9234
 20
-561.566
 11
71.2321
 21
-556.133
  0
LINE
  8
0
 10
71.2321
 20
-556.133
 11
71.2962
 21
-555.838
  0
LINE
  8
0
 10
71.2962
 20
-555.838
 11
71.2946
 21
-555.832
  0
LINE
  8
0
 10
71.2946
 20
-555.832
 11
72.3533
 21
-555.551
  0
LINE
  8
0
 10
72.3533
 20
-555.551
 11
72.3549
 21
-555.557
  0
LINE
  8
0
 10
72.3549
 20
-555.557
 11
76.3876
 21
-559.85
  0
LINE
  8
0
 10
76.3876
 20
-559.85
 11
77.5806
 21
-559.515
  0
LINE
  8
0
 10
77.5806
 20
-559.515
 11
78.7378
 21
-554.048
  0
LINE
  8
0
 10
78.7378
 20
-554.048
 11
78.7936
 21
-553.752
  0
LINE
  8
0
 10
78.7936
 20
-553.752
 11
78.7919
 21
-553.746
  0
LINE
  8
0
 10
78.7919
 20
-553.746
 11
79.8424
 21
-553.435
  0
LINE
  8
0
 10
79.8424
 20
-553.435
 11
79.8441
 21
-553.441
  0
LINE
  8
0
 10
79.8441
 20
-553.441
 11
83.9946
 21
-557.62
  0
LINE
  8
0
 10
83.9946
 20
-557.62
 11
85.1778
 21
-557.252
  0
LINE
  8
0
 10
85.1778
 20
-557.252
 11
86.1827
 21
-551.756
  0
LINE
  8
0
 10
86.1827
 20
-551.756
 11
86.2302
 21
-551.458
  0
LINE
  8
0
 10
86.2302
 20
-551.458
 11
86.2283
 21
-551.452
  0
LINE
  8
0
 10
86.2283
 20
-551.452
 11
87.2697
 21
-551.112
  0
LINE
  8
0
 10
87.2697
 20
-551.112
 11
87.2717
 21
-551.118
  0
LINE
  8
0
 10
87.2717
 20
-551.118
 11
91.5367
 21
-555.18
  0
LINE
  8
0
 10
91.5367
 20
-555.18
 11
92.7093
 21
-554.779
  0
LINE
  8
0
 10
92.7093
 20
-554.779
 11
93.5609
 21
-549.257
  0
LINE
  8
0
 10
93.5609
 20
-549.257
 11
93.6001
 21
-548.958
  0
LINE
  8
0
 10
93.6001
 20
-548.958
 11
93.5981
 21
-548.952
  0
LINE
  8
0
 10
93.5981
 20
-548.952
 11
94.6297
 21
-548.584
  0
LINE
  8
0
 10
94.6297
 20
-548.584
 11
94.6318
 21
-548.589
  0
LINE
  8
0
 10
94.6318
 20
-548.589
 11
99.008
 21
-552.531
  0
LINE
  8
0
 10
99.008
 20
-552.531
 11
100.169
 21
-552.098
  0
LINE
  8
0
 10
100.169
 20
-552.098
 11
100.867
 21
-546.554
  0
LINE
  8
0
 10
100.867
 20
-546.554
 11
100.898
 21
-546.254
  0
LINE
  8
0
 10
100.898
 20
-546.254
 11
100.895
 21
-546.248
  0
LINE
  8
0
 10
100.895
 20
-546.248
 11
101.916
 21
-545.851
  0
LINE
  8
0
 10
101.916
 20
-545.851
 11
101.919
 21
-545.857
  0
LINE
  8
0
 10
101.919
 20
-545.857
 11
106.403
 21
-549.675
  0
LINE
  8
0
 10
106.403
 20
-549.675
 11
107.551
 21
-549.21
  0
LINE
  8
0
 10
107.551
 20
-549.21
 11
108.095
 21
-543.649
  0
LINE
  8
0
 10
108.095
 20
-543.649
 11
108.117
 21
-543.348
  0
LINE
  8
0
 10
108.117
 20
-543.348
 11
108.115
 21
-543.342
  0
LINE
  8
0
 10
108.115
 20
-543.342
 11
109.125
 21
-542.917
  0
LINE
  8
0
 10
109.125
 20
-542.917
 11
109.127
 21
-542.923
  0
LINE
  8
0
 10
109.127
 20
-542.923
 11
113.715
 21
-546.615
  0
LINE
  8
0
 10
113.715
 20
-546.615
 11
114.851
 21
-546.119
  0
LINE
  8
0
 10
114.851
 20
-546.119
 11
115.239
 21
-540.544
  0
LINE
  8
0
 10
115.239
 20
-540.544
 11
115.253
 21
-540.243
  0
LINE
  8
0
 10
115.253
 20
-540.243
 11
115.251
 21
-540.237
  0
LINE
  8
0
 10
115.251
 20
-540.237
 11
116.248
 21
-539.784
  0
LINE
  8
0
 10
116.248
 20
-539.784
 11
116.251
 21
-539.79
  0
LINE
  8
0
 10
116.251
 20
-539.79
 11
120.94
 21
-543.353
  0
LINE
  8
0
 10
120.94
 20
-543.353
 11
122.061
 21
-542.825
  0
LINE
  8
0
 10
122.061
 20
-542.825
 11
122.295
 21
-537.242
  0
LINE
  8
0
 10
122.295
 20
-537.242
 11
122.3
 21
-536.94
  0
LINE
  8
0
 10
122.3
 20
-536.94
 11
122.298
 21
-536.935
  0
LINE
  8
0
 10
122.298
 20
-536.935
 11
123.282
 21
-536.454
  0
LINE
  8
0
 10
123.282
 20
-536.454
 11
123.285
 21
-536.46
  0
LINE
  8
0
 10
123.285
 20
-536.46
 11
128.071
 21
-539.891
  0
LINE
  8
0
 10
128.071
 20
-539.891
 11
129.177
 21
-539.333
  0
LINE
  8
0
 10
129.177
 20
-539.333
 11
129.255
 21
-533.745
  0
LINE
  8
0
 10
129.255
 20
-533.745
 11
129.253
 21
-533.443
  0
LINE
  8
0
 10
129.253
 20
-533.443
 11
129.25
 21
-533.438
  0
LINE
  8
0
 10
129.25
 20
-533.438
 11
130.221
 21
-532.93
  0
LINE
  8
0
 10
130.221
 20
-532.93
 11
130.223
 21
-532.936
  0
LINE
  8
0
 10
130.223
 20
-532.936
 11
135.104
 21
-536.233
  0
LINE
  8
0
 10
135.104
 20
-536.233
 11
136.193
 21
-535.643
  0
LINE
  8
0
 10
136.193
 20
-535.643
 11
136.116
 21
-530.056
  0
LINE
  8
0
 10
136.116
 20
-530.056
 11
136.105
 21
-529.755
  0
LINE
  8
0
 10
136.105
 20
-529.755
 11
136.102
 21
-529.749
  0
LINE
  8
0
 10
136.102
 20
-529.749
 11
137.059
 21
-529.215
  0
LINE
  8
0
 10
137.059
 20
-529.215
 11
137.062
 21
-529.22
  0
LINE
  8
0
 10
137.062
 20
-529.22
 11
142.031
 21
-532.38
  0
LINE
  8
0
 10
142.031
 20
-532.38
 11
143.104
 21
-531.761
  0
LINE
  8
0
 10
143.104
 20
-531.761
 11
142.872
 21
-526.178
  0
LINE
  8
0
 10
142.872
 20
-526.178
 11
142.853
 21
-525.877
  0
LINE
  8
0
 10
142.853
 20
-525.877
 11
142.85
 21
-525.871
  0
LINE
  8
0
 10
142.85
 20
-525.871
 11
143.79
 21
-525.31
  0
LINE
  8
0
 10
143.79
 20
-525.31
 11
143.794
 21
-525.316
  0
LINE
  8
0
 10
143.794
 20
-525.316
 11
148.85
 21
-528.336
  0
LINE
  8
0
 10
148.85
 20
-528.336
 11
149.905
 21
-527.687
  0
LINE
  8
0
 10
149.905
 20
-527.687
 11
149.517
 21
-522.113
  0
LINE
  8
0
 10
149.517
 20
-522.113
 11
149.49
 21
-521.812
  0
LINE
  8
0
 10
149.49
 20
-521.812
 11
149.486
 21
-521.807
  0
LINE
  8
0
 10
149.486
 20
-521.807
 11
150.411
 21
-521.22
  0
LINE
  8
0
 10
150.411
 20
-521.22
 11
150.415
 21
-521.226
  0
LINE
  8
0
 10
150.415
 20
-521.226
 11
155.553
 21
-524.105
  0
LINE
  8
0
 10
155.553
 20
-524.105
 11
156.589
 21
-523.427
  0
LINE
  8
0
 10
156.589
 20
-523.427
 11
156.047
 21
-517.865
  0
LINE
  8
0
 10
156.047
 20
-517.865
 11
156.011
 21
-517.565
  0
LINE
  8
0
 10
156.011
 20
-517.565
 11
156.008
 21
-517.56
  0
LINE
  8
0
 10
156.008
 20
-517.56
 11
156.916
 21
-516.948
  0
LINE
  8
0
 10
156.916
 20
-516.948
 11
156.919
 21
-516.953
  0
LINE
  8
0
 10
156.919
 20
-516.953
 11
162.135
 21
-519.688
  0
LINE
  8
0
 10
162.135
 20
-519.688
 11
163.153
 21
-518.982
  0
LINE
  8
0
 10
163.153
 20
-518.982
 11
162.456
 21
-513.437
  0
LINE
  8
0
 10
162.456
 20
-513.437
 11
162.412
 21
-513.139
  0
LINE
  8
0
 10
162.412
 20
-513.139
 11
162.408
 21
-513.134
  0
LINE
  8
0
 10
162.408
 20
-513.134
 11
163.299
 21
-512.497
  0
LINE
  8
0
 10
163.299
 20
-512.497
 11
163.303
 21
-512.502
  0
LINE
  8
0
 10
163.303
 20
-512.502
 11
168.593
 21
-515.091
  0
LINE
  8
0
 10
168.593
 20
-515.091
 11
169.59
 21
-514.356
  0
LINE
  8
0
 10
169.59
 20
-514.356
 11
168.74
 21
-508.833
  0
LINE
  8
0
 10
168.74
 20
-508.833
 11
168.687
 21
-508.536
  0
LINE
  8
0
 10
168.687
 20
-508.536
 11
168.683
 21
-508.531
  0
LINE
  8
0
 10
168.683
 20
-508.531
 11
169.556
 21
-507.869
  0
LINE
  8
0
 10
169.556
 20
-507.869
 11
169.56
 21
-507.874
  0
LINE
  8
0
 10
169.56
 20
-507.874
 11
174.92
 21
-510.315
  0
LINE
  8
0
 10
174.92
 20
-510.315
 11
175.897
 21
-509.553
  0
LINE
  8
0
 10
175.897
 20
-509.553
 11
174.893
 21
-504.056
  0
LINE
  8
0
 10
174.893
 20
-504.056
 11
174.832
 21
-503.76
  0
LINE
  8
0
 10
174.832
 20
-503.76
 11
174.828
 21
-503.756
  0
LINE
  8
0
 10
174.828
 20
-503.756
 11
175.682
 21
-503.07
  0
LINE
  8
0
 10
175.682
 20
-503.07
 11
175.686
 21
-503.075
  0
LINE
  8
0
 10
175.686
 20
-503.075
 11
181.112
 21
-505.366
  0
LINE
  8
0
 10
181.112
 20
-505.366
 11
182.067
 21
-504.577
  0
LINE
  8
0
 10
182.067
 20
-504.577
 11
180.911
 21
-499.11
  0
LINE
  8
0
 10
180.911
 20
-499.11
 11
180.842
 21
-498.816
  0
LINE
  8
0
 10
180.842
 20
-498.816
 11
180.838
 21
-498.811
  0
LINE
  8
0
 10
180.838
 20
-498.811
 11
181.673
 21
-498.102
  0
LINE
  8
0
 10
181.673
 20
-498.102
 11
181.677
 21
-498.107
  0
LINE
  8
0
 10
181.677
 20
-498.107
 11
187.164
 21
-500.246
  0
LINE
  8
0
 10
187.164
 20
-500.246
 11
188.097
 21
-499.431
  0
LINE
  8
0
 10
188.097
 20
-499.431
 11
186.789
 21
-493.998
  0
LINE
  8
0
 10
186.789
 20
-493.998
 11
186.712
 21
-493.706
  0
LINE
  8
0
 10
186.712
 20
-493.706
 11
186.708
 21
-493.702
  0
LINE
  8
0
 10
186.708
 20
-493.702
 11
187.523
 21
-492.969
  0
LINE
  8
0
 10
187.523
 20
-492.969
 11
187.527
 21
-492.974
  0
LINE
  8
0
 10
187.527
 20
-492.974
 11
193.071
 21
-494.96
  0
LINE
  8
0
 10
193.071
 20
-494.96
 11
193.981
 21
-494.119
  0
LINE
  8
0
 10
193.981
 20
-494.119
 11
192.523
 21
-488.725
  0
LINE
  8
0
 10
192.523
 20
-488.725
 11
192.438
 21
-488.435
  0
LINE
  8
0
 10
192.438
 20
-488.435
 11
192.433
 21
-488.431
  0
LINE
  8
0
 10
192.433
 20
-488.431
 11
193.227
 21
-487.676
  0
LINE
  8
0
 10
193.227
 20
-487.676
 11
193.232
 21
-487.681
  0
LINE
  8
0
 10
193.232
 20
-487.681
 11
198.829
 21
-489.512
  0
LINE
  8
0
 10
198.829
 20
-489.512
 11
199.716
 21
-488.646
  0
LINE
  8
0
 10
199.716
 20
-488.646
 11
198.108
 21
-483.294
  0
LINE
  8
0
 10
198.108
 20
-483.294
 11
198.015
 21
-483.008
  0
LINE
  8
0
 10
198.015
 20
-483.008
 11
198.01
 21
-483.003
  0
LINE
  8
0
 10
198.01
 20
-483.003
 11
198.783
 21
-482.227
  0
LINE
  8
0
 10
198.783
 20
-482.227
 11
198.787
 21
-482.231
  0
LINE
  8
0
 10
198.787
 20
-482.231
 11
204.434
 21
-483.906
  0
LINE
  8
0
 10
204.434
 20
-483.906
 11
205.296
 21
-483.016
  0
LINE
  8
0
 10
205.296
 20
-483.016
 11
203.54
 21
-477.711
  0
LINE
  8
0
 10
203.54
 20
-477.711
 11
203.439
 21
-477.427
  0
LINE
  8
0
 10
203.439
 20
-477.427
 11
203.434
 21
-477.422
  0
LINE
  8
0
 10
203.434
 20
-477.422
 11
204.185
 21
-476.625
  0
LINE
  8
0
 10
204.185
 20
-476.625
 11
204.19
 21
-476.629
  0
LINE
  8
0
 10
204.19
 20
-476.629
 11
209.88
 21
-478.146
  0
LINE
  8
0
 10
209.88
 20
-478.146
 11
210.717
 21
-477.232
  0
LINE
  8
0
 10
210.717
 20
-477.232
 11
208.814
 21
-471.978
  0
LINE
  8
0
 10
208.814
 20
-471.978
 11
208.705
 21
-471.697
  0
LINE
  8
0
 10
208.705
 20
-471.697
 11
208.701
 21
-471.693
  0
LINE
  8
0
 10
208.701
 20
-471.693
 11
209.429
 21
-470.875
  0
LINE
  8
0
 10
209.429
 20
-470.875
 11
209.434
 21
-470.879
  0
LINE
  8
0
 10
209.434
 20
-470.879
 11
215.164
 21
-472.237
  0
LINE
  8
0
 10
215.164
 20
-472.237
 11
215.976
 21
-471.301
  0
LINE
  8
0
 10
215.976
 20
-471.301
 11
213.928
 21
-466.102
  0
LINE
  8
0
 10
213.928
 20
-466.102
 11
213.811
 21
-465.823
  0
LINE
  8
0
 10
213.811
 20
-465.823
 11
213.806
 21
-465.819
  0
LINE
  8
0
 10
213.806
 20
-465.819
 11
214.511
 21
-464.981
  0
LINE
  8
0
 10
214.511
 20
-464.981
 11
214.516
 21
-464.985
  0
LINE
  8
0
 10
214.516
 20
-464.985
 11
220.282
 21
-466.184
  0
LINE
  8
0
 10
220.282
 20
-466.184
 11
221.067
 21
-465.225
  0
LINE
  8
0
 10
221.067
 20
-465.225
 11
218.875
 21
-460.085
  0
LINE
  8
0
 10
218.875
 20
-460.085
 11
218.751
 21
-459.81
  0
LINE
  8
0
 10
218.751
 20
-459.81
 11
218.746
 21
-459.806
  0
LINE
  8
0
 10
218.746
 20
-459.806
 11
219.428
 21
-458.949
  0
LINE
  8
0
 10
219.428
 20
-458.949
 11
219.433
 21
-458.953
  0
LINE
  8
0
 10
219.433
 20
-458.953
 11
225.23
 21
-459.991
  0
LINE
  8
0
 10
225.23
 20
-459.991
 11
225.988
 21
-459.01
  0
LINE
  8
0
 10
225.988
 20
-459.01
 11
223.654
 21
-453.933
  0
LINE
  8
0
 10
223.654
 20
-453.933
 11
223.522
 21
-453.662
  0
LINE
  8
0
 10
223.522
 20
-453.662
 11
223.517
 21
-453.658
  0
LINE
  8
0
 10
223.517
 20
-453.658
 11
224.175
 21
-452.782
  0
LINE
  8
0
 10
224.175
 20
-452.782
 11
224.18
 21
-452.786
  0
LINE
  8
0
 10
224.18
 20
-452.786
 11
230.004
 21
-453.662
  0
LINE
  8
0
 10
230.004
 20
-453.662
 11
230.734
 21
-452.661
  0
LINE
  8
0
 10
230.734
 20
-452.661
 11
228.26
 21
-447.65
  0
LINE
  8
0
 10
228.26
 20
-447.65
 11
228.12
 21
-447.383
  0
LINE
  8
0
 10
228.12
 20
-447.383
 11
228.115
 21
-447.379
  0
LINE
  8
0
 10
228.115
 20
-447.379
 11
228.748
 21
-446.486
  0
LINE
  8
0
 10
228.748
 20
-446.486
 11
228.753
 21
-446.489
  0
LINE
  8
0
 10
228.753
 20
-446.489
 11
234.6
 21
-447.203
  0
LINE
  8
0
 10
234.6
 20
-447.203
 11
235.302
 21
-446.182
  0
LINE
  8
0
 10
235.302
 20
-446.182
 11
232.689
 21
-441.242
  0
LINE
  8
0
 10
232.689
 20
-441.242
 11
232.542
 21
-440.979
  0
LINE
  8
0
 10
232.542
 20
-440.979
 11
232.537
 21
-440.976
  0
LINE
  8
0
 10
232.537
 20
-440.976
 11
233.145
 21
-440.064
  0
LINE
  8
0
 10
233.145
 20
-440.064
 11
233.15
 21
-440.068
  0
LINE
  8
0
 10
233.15
 20
-440.068
 11
239.014
 21
-440.619
  0
LINE
  8
0
 10
239.014
 20
-440.619
 11
239.687
 21
-439.579
  0
LINE
  8
0
 10
239.687
 20
-439.579
 11
236.939
 21
-434.714
  0
LINE
  8
0
 10
236.939
 20
-434.714
 11
236.785
 21
-434.455
  0
LINE
  8
0
 10
236.785
 20
-434.455
 11
236.779
 21
-434.451
  0
LINE
  8
0
 10
236.779
 20
-434.451
 11
237.362
 21
-433.524
  0
LINE
  8
0
 10
237.362
 20
-433.524
 11
237.367
 21
-433.527
  0
LINE
  8
0
 10
237.367
 20
-433.527
 11
243.244
 21
-433.915
  0
LINE
  8
0
 10
243.244
 20
-433.915
 11
243.888
 21
-432.856
  0
LINE
  8
0
 10
243.888
 20
-432.856
 11
241.005
 21
-428.07
  0
LINE
  8
0
 10
241.005
 20
-428.07
 11
240.844
 21
-427.815
  0
LINE
  8
0
 10
240.844
 20
-427.815
 11
240.839
 21
-427.811
  0
LINE
  8
0
 10
240.839
 20
-427.811
 11
241.395
 21
-426.868
  0
LINE
  8
0
 10
241.395
 20
-426.868
 11
241.4
 21
-426.871
  0
LINE
  8
0
 10
241.4
 20
-426.871
 11
247.286
 21
-427.096
  0
LINE
  8
0
 10
247.286
 20
-427.096
 11
247.9
 21
-426.02
  0
LINE
  8
0
 10
247.9
 20
-426.02
 11
244.886
 21
-421.315
  0
LINE
  8
0
 10
244.886
 20
-421.315
 11
244.717
 21
-421.065
  0
LINE
  8
0
 10
244.717
 20
-421.065
 11
244.712
 21
-421.061
  0
LINE
  8
0
 10
244.712
 20
-421.061
 11
245.242
 21
-420.103
  0
LINE
  8
0
 10
245.242
 20
-420.103
 11
245.247
 21
-420.106
  0
LINE
  8
0
 10
245.247
 20
-420.106
 11
251.136
 21
-420.167
  0
LINE
  8
0
 10
251.136
 20
-420.167
 11
251.721
 21
-419.074
  0
LINE
  8
0
 10
251.721
 20
-419.074
 11
248.576
 21
-414.455
  0
LINE
  8
0
 10
248.576
 20
-414.455
 11
248.401
 21
-414.209
  0
LINE
  8
0
 10
248.401
 20
-414.209
 11
248.396
 21
-414.206
  0
LINE
  8
0
 10
248.396
 20
-414.206
 11
248.899
 21
-413.233
  0
LINE
  8
0
 10
248.899
 20
-413.233
 11
248.904
 21
-413.236
  0
LINE
  8
0
 10
248.904
 20
-413.236
 11
254.793
 21
-413.133
  0
LINE
  8
0
 10
254.793
 20
-413.133
 11
255.347
 21
-412.025
  0
LINE
  8
0
 10
255.347
 20
-412.025
 11
252.075
 21
-407.495
  0
LINE
  8
0
 10
252.075
 20
-407.495
 11
251.893
 21
-407.254
  0
LINE
  8
0
 10
251.893
 20
-407.254
 11
251.888
 21
-407.252
  0
LINE
  8
0
 10
251.888
 20
-407.252
 11
252.363
 21
-406.265
  0
LINE
  8
0
 10
252.363
 20
-406.265
 11
252.369
 21
-406.268
  0
LINE
  8
0
 10
252.369
 20
-406.268
 11
258.253
 21
-406.001
  0
LINE
  8
0
 10
258.253
 20
-406.001
 11
258.775
 21
-404.878
  0
LINE
  8
0
 10
258.775
 20
-404.878
 11
255.379
 21
-400.44
  0
LINE
  8
0
 10
255.379
 20
-400.44
 11
255.19
 21
-400.205
  0
LINE
  8
0
 10
255.19
 20
-400.205
 11
255.185
 21
-400.202
  0
LINE
  8
0
 10
255.185
 20
-400.202
 11
255.633
 21
-399.203
  0
LINE
  8
0
 10
255.633
 20
-399.203
 11
255.639
 21
-399.206
  0
LINE
  8
0
 10
255.639
 20
-399.206
 11
261.513
 21
-398.776
  0
LINE
  8
0
 10
261.513
 20
-398.776
 11
262.004
 21
-397.638
  0
LINE
  8
0
 10
262.004
 20
-397.638
 11
258.486
 21
-393.297
  0
LINE
  8
0
 10
258.486
 20
-393.297
 11
258.291
 21
-393.067
  0
LINE
  8
0
 10
258.291
 20
-393.067
 11
258.285
 21
-393.064
  0
LINE
  8
0
 10
258.285
 20
-393.064
 11
258.705
 21
-392.053
  0
LINE
  8
0
 10
258.705
 20
-392.053
 11
258.711
 21
-392.055
  0
LINE
  8
0
 10
258.711
 20
-392.055
 11
264.57
 21
-391.462
  0
LINE
  8
0
 10
264.57
 20
-391.462
 11
265.03
 21
-390.311
  0
LINE
  8
0
 10
265.03
 20
-390.311
 11
261.393
 21
-386.07
  0
LINE
  8
0
 10
261.393
 20
-386.07
 11
261.191
 21
-385.845
  0
LINE
  8
0
 10
261.191
 20
-385.845
 11
261.185
 21
-385.843
  0
LINE
  8
0
 10
261.185
 20
-385.843
 11
261.577
 21
-384.82
  0
LINE
  8
0
 10
261.577
 20
-384.82
 11
261.583
 21
-384.822
  0
LINE
  8
0
 10
261.583
 20
-384.822
 11
267.424
 21
-384.066
  0
LINE
  8
0
 10
267.424
 20
-384.066
 11
267.851
 21
-382.903
  0
LINE
  8
0
 10
267.851
 20
-382.903
 11
264.097
 21
-378.764
  0
LINE
  8
0
 10
264.097
 20
-378.764
 11
263.89
 21
-378.545
  0
LINE
  8
0
 10
263.89
 20
-378.545
 11
263.884
 21
-378.543
  0
LINE
  8
0
 10
263.884
 20
-378.543
 11
264.247
 21
-377.51
  0
LINE
  8
0
 10
264.247
 20
-377.51
 11
264.253
 21
-377.512
  0
LINE
  8
0
 10
264.253
 20
-377.512
 11
270.071
 21
-376.594
  0
LINE
  8
0
 10
270.071
 20
-376.594
 11
270.466
 21
-375.42
  0
LINE
  8
0
 10
270.466
 20
-375.42
 11
266.598
 21
-371.387
  0
LINE
  8
0
 10
266.598
 20
-371.387
 11
266.384
 21
-371.174
  0
LINE
  8
0
 10
266.384
 20
-371.174
 11
266.378
 21
-371.172
  0
LINE
  8
0
 10
266.378
 20
-371.172
 11
266.713
 21
-370.129
  0
LINE
  8
0
 10
266.713
 20
-370.129
 11
266.719
 21
-370.131
  0
LINE
  8
0
 10
266.719
 20
-370.131
 11
272.509
 21
-369.051
  0
LINE
  8
0
 10
272.509
 20
-369.051
 11
272.871
 21
-367.867
  0
LINE
  8
0
 10
272.871
 20
-367.867
 11
268.893
 21
-363.942
  0
LINE
  8
0
 10
268.893
 20
-363.942
 11
268.673
 21
-363.736
  0
LINE
  8
0
 10
268.673
 20
-363.736
 11
268.667
 21
-363.734
  0
LINE
  8
0
 10
268.667
 20
-363.734
 11
268.973
 21
-362.682
  0
LINE
  8
0
 10
268.973
 20
-362.682
 11
268.979
 21
-362.684
  0
LINE
  8
0
 10
268.979
 20
-362.684
 11
274.736
 21
-361.444
  0
LINE
  8
0
 10
274.736
 20
-361.444
 11
275.065
 21
-360.249
  0
LINE
  8
0
 10
275.065
 20
-360.249
 11
270.979
 21
-356.437
  0
LINE
  8
0
 10
270.979
 20
-356.437
 11
270.754
 21
-356.237
  0
LINE
  8
0
 10
270.754
 20
-356.237
 11
270.748
 21
-356.235
  0
LINE
  8
0
 10
270.748
 20
-356.235
 11
271.024
 21
-355.175
  0
LINE
  8
0
 10
271.024
 20
-355.175
 11
271.03
 21
-355.176
  0
LINE
  8
0
 10
271.03
 20
-355.176
 11
276.751
 21
-353.777
  0
LINE
  8
0
 10
276.751
 20
-353.777
 11
277.047
 21
-352.574
  0
LINE
  8
0
 10
277.047
 20
-352.574
 11
272.857
 21
-348.877
  0
LINE
  8
0
 10
272.857
 20
-348.877
 11
272.626
 21
-348.683
  0
LINE
  8
0
 10
272.626
 20
-348.683
 11
272.62
 21
-348.681
  0
LINE
  8
0
 10
272.62
 20
-348.681
 11
272.866
 21
-347.614
  0
LINE
  8
0
 10
272.866
 20
-347.614
 11
272.873
 21
-347.615
  0
LINE
  8
0
 10
272.873
 20
-347.615
 11
278.552
 21
-346.057
  0
LINE
  8
0
 10
278.552
 20
-346.057
 11
278.814
 21
-344.846
  0
LINE
  8
0
 10
278.814
 20
-344.846
 11
274.523
 21
-341.267
  0
LINE
  8
0
 10
274.523
 20
-341.267
 11
274.287
 21
-341.08
  0
LINE
  8
0
 10
274.287
 20
-341.08
 11
274.281
 21
-341.078
  0
LINE
  8
0
 10
274.281
 20
-341.078
 11
274.498
 21
-340.005
  0
LINE
  8
0
 10
274.498
 20
-340.005
 11
274.504
 21
-340.006
  0
LINE
  8
0
 10
274.504
 20
-340.006
 11
280.138
 21
-338.291
  0
LINE
  8
0
 10
280.138
 20
-338.291
 11
280.367
 21
-337.073
  0
LINE
  8
0
 10
280.367
 20
-337.073
 11
275.977
 21
-333.615
  0
LINE
  8
0
 10
275.977
 20
-333.615
 11
275.736
 21
-333.433
  0
LINE
  8
0
 10
275.736
 20
-333.433
 11
275.73
 21
-333.432
  0
LINE
  8
0
 10
275.73
 20
-333.432
 11
275.917
 21
-332.353
  0
LINE
  8
0
 10
275.917
 20
-332.353
 11
275.923
 21
-332.354
  0
LINE
  8
0
 10
275.923
 20
-332.354
 11
281.508
 21
-330.483
  0
LINE
  8
0
 10
281.508
 20
-330.483
 11
281.702
 21
-329.259
  0
LINE
  8
0
 10
281.702
 20
-329.259
 11
277.218
 21
-325.924
  0
LINE
  8
0
 10
277.218
 20
-325.924
 11
276.972
 21
-325.75
  0
LINE
  8
0
 10
276.972
 20
-325.75
 11
276.966
 21
-325.749
  0
LINE
  8
0
 10
276.966
 20
-325.749
 11
277.123
 21
-324.665
  0
LINE
  8
0
 10
277.123
 20
-324.665
 11
277.129
 21
-324.666
  0
LINE
  8
0
 10
277.129
 20
-324.666
 11
282.659
 21
-322.64
  0
LINE
  8
0
 10
282.659
 20
-322.64
 11
282.82
 21
-321.411
  0
LINE
  8
0
 10
282.82
 20
-321.411
 11
278.245
 21
-318.202
  0
LINE
  8
0
 10
278.245
 20
-318.202
 11
277.994
 21
-318.035
  0
LINE
  8
0
 10
277.994
 20
-318.035
 11
277.988
 21
-318.034
  0
LINE
  8
0
 10
277.988
 20
-318.034
 11
278.115
 21
-316.946
  0
LINE
  8
0
 10
278.115
 20
-316.946
 11
278.121
 21
-316.947
  0
LINE
  8
0
 10
278.121
 20
-316.947
 11
283.593
 21
-314.768
  0
LINE
  8
0
 10
283.593
 20
-314.768
 11
283.719
 21
-313.535
  0
LINE
  8
0
 10
283.719
 20
-313.535
 11
279.057
 21
-310.455
  0
LINE
  8
0
 10
279.057
 20
-310.455
 11
278.801
 21
-310.294
  0
LINE
  8
0
 10
278.801
 20
-310.294
 11
278.795
 21
-310.294
  0
LINE
  8
0
 10
278.795
 20
-310.294
 11
278.892
 21
-309.203
  0
LINE
  8
0
 10
278.892
 20
-309.203
 11
278.898
 21
-309.203
  0
LINE
  8
0
 10
278.898
 20
-309.203
 11
284.307
 21
-306.873
  0
LINE
  8
0
 10
284.307
 20
-306.873
 11
284.399
 21
-305.638
  0
LINE
  8
0
 10
284.399
 20
-305.638
 11
279.653
 21
-302.688
  0
LINE
  8
0
 10
279.653
 20
-302.688
 11
279.393
 21
-302.534
  0
LINE
  8
0
 10
279.393
 20
-302.534
 11
279.387
 21
-302.534
  0
LINE
  8
0
 10
279.387
 20
-302.534
 11
279.453
 21
-301.441
  0
LINE
  8
0
 10
279.453
 20
-301.441
 11
279.459
 21
-301.441
  0
LINE
  8
0
 10
279.459
 20
-301.441
 11
284.801
 21
-298.962
  0
LINE
  8
0
 10
284.801
 20
-298.962
 11
284.859
 21
-297.724
  0
LINE
  8
0
 10
284.859
 20
-297.724
 11
280.033
 21
-294.907
  0
LINE
  8
0
 10
280.033
 20
-294.907
 11
279.769
 21
-294.761
  0
LINE
  8
0
 10
279.769
 20
-294.761
 11
279.762
 21
-294.761
  0
LINE
  8
0
 10
279.762
 20
-294.761
 11
279.798
 21
-293.666
  0
LINE
  8
0
 10
279.798
 20
-293.666
 11
279.804
 21
-293.666
  0
LINE
  8
0
 10
279.804
 20
-293.666
 11
285.076
 21
-291.039
  0
LINE
  8
0
 10
285.076
 20
-291.039
 11
285.098
 21
-289.801
  0
LINE
  8
0
 10
285.098
 20
-289.801
 11
280.196
 21
-287.119
  0
LINE
  8
0
 10
280.196
 20
-287.119
 11
279.928
 21
-286.98
  0
LINE
  8
0
 10
279.928
 20
-286.98
 11
279.922
 21
-286.98
  0
LINE
  8
0
 10
279.922
 20
-286.98
 11
279.927
 21
-285.885
  0
LINE
  8
0
 10
279.927
 20
-285.885
 11
279.933
 21
-285.885
  0
LINE
  8
0
 10
279.933
 20
-285.885
 11
285.129
 21
-283.113
  0
LINE
  8
0
 10
285.129
 20
-283.113
 11
285.118
 21
-281.874
  0
LINE
  8
0
 10
285.118
 20
-281.874
 11
280.143
 21
-279.329
  0
LINE
  8
0
 10
280.143
 20
-279.329
 11
279.871
 21
-279.198
  0
LINE
  8
0
 10
279.871
 20
-279.198
 11
279.865
 21
-279.198
  0
LINE
  8
0
 10
279.865
 20
-279.198
 11
279.84
 21
-278.103
  0
LINE
  8
0
 10
279.84
 20
-278.103
 11
279.846
 21
-278.103
  0
LINE
  8
0
 10
279.846
 20
-278.103
 11
284.963
 21
-275.187
  0
LINE
  8
0
 10
284.963
 20
-275.187
 11
284.917
 21
-273.949
  0
LINE
  8
0
 10
284.917
 20
-273.949
 11
279.873
 21
-271.544
  0
LINE
  8
0
 10
279.873
 20
-271.544
 11
279.598
 21
-271.42
  0
LINE
  8
0
 10
279.598
 20
-271.42
 11
279.592
 21
-271.421
  0
LINE
  8
0
 10
279.592
 20
-271.421
 11
279.536
 21
-270.327
  0
LINE
  8
0
 10
279.536
 20
-270.327
 11
279.542
 21
-270.326
  0
LINE
  8
0
 10
279.542
 20
-270.326
 11
284.576
 21
-267.27
  0
LINE
  8
0
 10
284.576
 20
-267.27
 11
284.496
 21
-266.033
  0
LINE
  8
0
 10
284.496
 20
-266.033
 11
279.387
 21
-263.769
  0
LINE
  8
0
 10
279.387
 20
-263.769
 11
279.109
 21
-263.653
  0
LINE
  8
0
 10
279.109
 20
-263.653
 11
279.103
 21
-263.654
  0
LINE
  8
0
 10
279.103
 20
-263.654
 11
279.016
 21
-262.562
  0
LINE
  8
0
 10
279.016
 20
-262.562
 11
279.023
 21
-262.561
  0
LINE
  8
0
 10
279.023
 20
-262.561
 11
283.97
 21
-259.366
  0
LINE
  8
0
 10
283.97
 20
-259.366
 11
283.855
 21
-258.132
  0
LINE
  8
0
 10
283.855
 20
-258.132
 11
278.685
 21
-256.011
  0
LINE
  8
0
 10
278.685
 20
-256.011
 11
278.404
 21
-255.903
  0
LINE
  8
0
 10
278.404
 20
-255.903
 11
278.398
 21
-255.904
  0
LINE
  8
0
 10
278.398
 20
-255.904
 11
278.281
 21
-254.815
  0
LINE
  8
0
 10
278.281
 20
-254.815
 11
278.287
 21
-254.814
  0
LINE
  8
0
 10
278.287
 20
-254.814
 11
283.144
 21
-251.482
  0
LINE
  8
0
 10
283.144
 20
-251.482
 11
282.995
 21
-250.252
  0
LINE
  8
0
 10
282.995
 20
-250.252
 11
277.768
 21
-248.276
  0
LINE
  8
0
 10
277.768
 20
-248.276
 11
277.484
 21
-248.175
  0
LINE
  8
0
 10
277.484
 20
-248.175
 11
277.477
 21
-248.176
  0
LINE
  8
0
 10
277.477
 20
-248.176
 11
277.331
 21
-247.091
  0
LINE
  8
0
 10
277.331
 20
-247.091
 11
277.337
 21
-247.09
  0
LINE
  8
0
 10
277.337
 20
-247.09
 11
282.099
 21
-243.624
  0
LINE
  8
0
 10
282.099
 20
-243.624
 11
281.916
 21
-242.399
  0
LINE
  8
0
 10
281.916
 20
-242.399
 11
276.636
 21
-240.568
  0
LINE
  8
0
 10
276.636
 20
-240.568
 11
276.349
 21
-240.476
  0
LINE
  8
0
 10
276.349
 20
-240.476
 11
276.343
 21
-240.477
  0
LINE
  8
0
 10
276.343
 20
-240.477
 11
276.166
 21
-239.396
  0
LINE
  8
0
 10
276.166
 20
-239.396
 11
276.172
 21
-239.395
  0
LINE
  8
0
 10
276.172
 20
-239.395
 11
280.836
 21
-235.798
  0
LINE
  8
0
 10
280.836
 20
-235.798
 11
280.619
 21
-234.579
  0
LINE
  8
0
 10
280.619
 20
-234.579
 11
275.29
 21
-232.896
  0
LINE
  8
0
 10
275.29
 20
-232.896
 11
275.001
 21
-232.811
  0
LINE
  8
0
 10
275.001
 20
-232.811
 11
274.995
 21
-232.812
  0
LINE
  8
0
 10
274.995
 20
-232.812
 11
274.788
 21
-231.737
  0
LINE
  8
0
 10
274.788
 20
-231.737
 11
274.794
 21
-231.736
  0
LINE
  8
0
 10
274.794
 20
-231.736
 11
279.356
 21
-228.011
  0
LINE
  8
0
 10
279.356
 20
-228.011
 11
279.105
 21
-226.797
  0
LINE
  8
0
 10
279.105
 20
-226.797
 11
273.732
 21
-225.263
  0
LINE
  8
0
 10
273.732
 20
-225.263
 11
273.44
 21
-225.187
  0
LINE
  8
0
 10
273.44
 20
-225.187
 11
273.434
 21
-225.188
  0
LINE
  8
0
 10
273.434
 20
-225.188
 11
273.197
 21
-224.119
  0
LINE
  8
0
 10
273.197
 20
-224.119
 11
273.203
 21
-224.117
  0
LINE
  8
0
 10
273.203
 20
-224.117
 11
277.66
 21
-220.267
  0
LINE
  8
0
 10
277.66
 20
-220.267
 11
277.375
 21
-219.061
  0
LINE
  8
0
 10
277.375
 20
-219.061
 11
271.962
 21
-217.677
  0
LINE
  8
0
 10
271.962
 20
-217.677
 11
271.668
 21
-217.609
  0
LINE
  8
0
 10
271.668
 20
-217.609
 11
271.662
 21
-217.611
  0
LINE
  8
0
 10
271.662
 20
-217.611
 11
271.395
 21
-216.548
  0
LINE
  8
0
 10
271.395
 20
-216.548
 11
271.401
 21
-216.547
  0
LINE
  8
0
 10
271.401
 20
-216.547
 11
275.749
 21
-212.574
  0
LINE
  8
0
 10
275.749
 20
-212.574
 11
275.431
 21
-211.376
  0
LINE
  8
0
 10
275.431
 20
-211.376
 11
269.981
 21
-210.143
  0
LINE
  8
0
 10
269.981
 20
-210.143
 11
269.686
 21
-210.083
  0
LINE
  8
0
 10
269.686
 20
-210.083
 11
269.68
 21
-210.085
  0
LINE
  8
0
 10
269.68
 20
-210.085
 11
269.384
 21
-209.03
  0
LINE
  8
0
 10
269.384
 20
-209.03
 11
269.39
 21
-209.029
  0
LINE
  8
0
 10
269.39
 20
-209.029
 11
273.626
 21
-204.937
  0
LINE
  8
0
 10
273.626
 20
-204.937
 11
273.275
 21
-203.748
  0
LINE
  8
0
 10
273.275
 20
-203.748
 11
267.792
 21
-202.667
  0
LINE
  8
0
 10
267.792
 20
-202.667
 11
267.495
 21
-202.616
  0
LINE
  8
0
 10
267.495
 20
-202.616
 11
267.489
 21
-202.617
  0
LINE
  8
0
 10
267.489
 20
-202.617
 11
267.164
 21
-201.571
  0
LINE
  8
0
 10
267.164
 20
-201.571
 11
267.17
 21
-201.569
  0
LINE
  8
0
 10
267.17
 20
-201.569
 11
271.291
 21
-197.361
  0
LINE
  8
0
 10
271.291
 20
-197.361
 11
270.907
 21
-196.183
  0
LINE
  8
0
 10
270.907
 20
-196.183
 11
265.396
 21
-195.255
  0
LINE
  8
0
 10
265.396
 20
-195.255
 11
265.098
 21
-195.212
  0
LINE
  8
0
 10
265.098
 20
-195.212
 11
265.092
 21
-195.214
  0
LINE
  8
0
 10
265.092
 20
-195.214
 11
264.738
 21
-194.177
  0
LINE
  8
0
 10
264.738
 20
-194.177
 11
264.744
 21
-194.175
  0
LINE
  8
0
 10
264.744
 20
-194.175
 11
268.746
 21
-189.854
  0
LINE
  8
0
 10
268.746
 20
-189.854
 11
268.329
 21
-188.687
  0
LINE
  8
0
 10
268.329
 20
-188.687
 11
262.795
 21
-187.912
  0
LINE
  8
0
 10
262.795
 20
-187.912
 11
262.496
 21
-187.877
  0
LINE
  8
0
 10
262.496
 20
-187.877
 11
262.49
 21
-187.879
  0
LINE
  8
0
 10
262.49
 20
-187.879
 11
262.107
 21
-186.853
  0
LINE
  8
0
 10
262.107
 20
-186.853
 11
262.113
 21
-186.851
  0
LINE
  8
0
 10
262.113
 20
-186.851
 11
265.993
 21
-182.42
  0
LINE
  8
0
 10
265.993
 20
-182.42
 11
265.544
 21
-181.265
  0
LINE
  8
0
 10
265.544
 20
-181.265
 11
259.991
 21
-180.645
  0
LINE
  8
0
 10
259.991
 20
-180.645
 11
259.691
 21
-180.618
  0
LINE
  8
0
 10
259.691
 20
-180.618
 11
259.685
 21
-180.62
  0
LINE
  8
0
 10
259.685
 20
-180.62
 11
259.274
 21
-179.605
  0
LINE
  8
0
 10
259.274
 20
-179.605
 11
259.28
 21
-179.602
  0
LINE
  8
0
 10
259.28
 20
-179.602
 11
263.035
 21
-175.066
  0
LINE
  8
0
 10
263.035
 20
-175.066
 11
262.554
 21
-173.924
  0
LINE
  8
0
 10
262.554
 20
-173.924
 11
256.986
 21
-173.458
  0
LINE
  8
0
 10
256.986
 20
-173.458
 11
256.685
 21
-173.439
  0
LINE
  8
0
 10
256.685
 20
-173.439
 11
256.679
 21
-173.442
  0
LINE
  8
0
 10
256.679
 20
-173.442
 11
256.24
 21
-172.438
  0
LINE
  8
0
 10
256.24
 20
-172.438
 11
256.246
 21
-172.436
  0
LINE
  8
0
 10
256.246
 20
-172.436
 11
259.874
 21
-167.796
  0
LINE
  8
0
 10
259.874
 20
-167.796
 11
259.362
 21
-166.668
  0
LINE
  8
0
 10
259.362
 20
-166.668
 11
253.782
 21
-166.357
  0
LINE
  8
0
 10
253.782
 20
-166.357
 11
253.481
 21
-166.347
  0
LINE
  8
0
 10
253.481
 20
-166.347
 11
253.475
 21
-166.35
  0
LINE
  8
0
 10
253.475
 20
-166.35
 11
253.008
 21
-165.359
  0
LINE
  8
0
 10
253.008
 20
-165.359
 11
253.014
 21
-165.356
  0
LINE
  8
0
 10
253.014
 20
-165.356
 11
256.512
 21
-160.618
  0
LINE
  8
0
 10
256.512
 20
-160.618
 11
255.968
 21
-159.504
  0
LINE
  8
0
 10
255.968
 20
-159.504
 11
250.382
 21
-159.348
  0
LINE
  8
0
 10
250.382
 20
-159.348
 11
250.081
 21
-159.347
  0
LINE
  8
0
 10
250.081
 20
-159.347
 11
250.075
 21
-159.349
  0
LINE
  8
0
 10
250.075
 20
-159.349
 11
249.581
 21
-158.372
  0
LINE
  8
0
 10
249.581
 20
-158.372
 11
249.587
 21
-158.369
  0
LINE
  8
0
 10
249.587
 20
-158.369
 11
252.951
 21
-153.535
  0
LINE
  8
0
 10
252.951
 20
-153.535
 11
252.377
 21
-152.437
  0
LINE
  8
0
 10
252.377
 20
-152.437
 11
246.789
 21
-152.437
  0
LINE
  8
0
 10
246.789
 20
-152.437
 11
246.487
 21
-152.444
  0
LINE
  8
0
 10
246.487
 20
-152.444
 11
246.482
 21
-152.446
  0
LINE
  8
0
 10
246.482
 20
-152.446
 11
245.961
 21
-151.483
  0
LINE
  8
0
 10
245.961
 20
-151.483
 11
245.966
 21
-151.48
  0
LINE
  8
0
 10
245.966
 20
-151.48
 11
249.195
 21
-146.555
  0
LINE
  8
0
 10
249.195
 20
-146.555
 11
248.591
 21
-145.473
  0
LINE
  8
0
 10
248.591
 20
-145.473
 11
243.005
 21
-145.628
  0
LINE
  8
0
 10
243.005
 20
-145.628
 11
242.704
 21
-145.643
  0
LINE
  8
0
 10
242.704
 20
-145.643
 11
242.698
 21
-145.646
  0
LINE
  8
0
 10
242.698
 20
-145.646
 11
242.15
 21
-144.697
  0
LINE
  8
0
 10
242.15
 20
-144.697
 11
242.156
 21
-144.694
  0
LINE
  8
0
 10
242.156
 20
-144.694
 11
245.247
 21
-139.681
  0
LINE
  8
0
 10
245.247
 20
-139.681
 11
244.612
 21
-138.617
  0
LINE
  8
0
 10
244.612
 20
-138.617
 11
239.033
 21
-138.927
  0
LINE
  8
0
 10
239.033
 20
-138.927
 11
238.732
 21
-138.95
  0
LINE
  8
0
 10
238.732
 20
-138.95
 11
238.727
 21
-138.953
  0
LINE
  8
0
 10
238.727
 20
-138.953
 11
238.153
 21
-138.02
  0
LINE
  8
0
 10
238.153
 20
-138.02
 11
238.158
 21
-138.017
  0
LINE
  8
0
 10
238.158
 20
-138.017
 11
241.108
 21
-132.92
  0
LINE
  8
0
 10
241.108
 20
-132.92
 11
240.445
 21
-131.873
  0
LINE
  8
0
 10
240.445
 20
-131.873
 11
234.876
 21
-132.338
  0
LINE
  8
0
 10
234.876
 20
-132.338
 11
234.576
 21
-132.37
  0
LINE
  8
0
 10
234.576
 20
-132.37
 11
234.571
 21
-132.374
  0
LINE
  8
0
 10
234.571
 20
-132.374
 11
233.971
 21
-131.457
  0
LINE
  8
0
 10
233.971
 20
-131.457
 11
233.977
 21
-131.454
  0
LINE
  8
0
 10
233.977
 20
-131.454
 11
236.784
 21
-126.276
  0
LINE
  8
0
 10
236.784
 20
-126.276
 11
236.091
 21
-125.249
  0
LINE
  8
0
 10
236.091
 20
-125.249
 11
230.538
 21
-125.868
  0
LINE
  8
0
 10
230.538
 20
-125.868
 11
230.239
 21
-125.909
  0
LINE
  8
0
 10
230.239
 20
-125.909
 11
230.234
 21
-125.912
  0
LINE
  8
0
 10
230.234
 20
-125.912
 11
229.609
 21
-125.012
  0
LINE
  8
0
 10
229.609
 20
-125.012
 11
229.614
 21
-125.009
  0
LINE
  8
0
 10
229.614
 20
-125.009
 11
232.276
 21
-119.755
  0
LINE
  8
0
 10
232.276
 20
-119.755
 11
231.556
 21
-118.748
  0
LINE
  8
0
 10
231.556
 20
-118.748
 11
226.022
 21
-119.521
  0
LINE
  8
0
 10
226.022
 20
-119.521
 11
225.724
 21
-119.57
  0
LINE
  8
0
 10
225.724
 20
-119.57
 11
225.719
 21
-119.574
  0
LINE
  8
0
 10
225.719
 20
-119.574
 11
225.069
 21
-118.692
  0
LINE
  8
0
 10
225.069
 20
-118.692
 11
225.074
 21
-118.688
  0
LINE
  8
0
 10
225.074
 20
-118.688
 11
227.589
 21
-113.362
  0
LINE
  8
0
 10
227.589
 20
-113.362
 11
226.841
 21
-112.375
  0
LINE
  8
0
 10
226.841
 20
-112.375
 11
221.33
 21
-113.302
  0
LINE
  8
0
 10
221.33
 20
-113.302
 11
221.034
 21
-113.359
  0
LINE
  8
0
 10
221.034
 20
-113.359
 11
221.029
 21
-113.363
  0
LINE
  8
0
 10
221.029
 20
-113.363
 11
220.355
 21
-112.499
  0
LINE
  8
0
 10
220.355
 20
-112.499
 11
220.36
 21
-112.496
  0
LINE
  8
0
 10
220.36
 20
-112.496
 11
222.727
 21
-107.102
  0
LINE
  8
0
 10
222.727
 20
-107.102
 11
221.951
 21
-106.136
  0
LINE
  8
0
 10
221.951
 20
-106.136
 11
216.468
 21
-107.216
  0
LINE
  8
0
 10
216.468
 20
-107.216
 11
216.174
 21
-107.281
  0
LINE
  8
0
 10
216.174
 20
-107.281
 11
216.169
 21
-107.285
  0
LINE
  8
0
 10
216.169
 20
-107.285
 11
215.471
 21
-106.441
  0
LINE
  8
0
 10
215.471
 20
-106.441
 11
215.476
 21
-106.437
  0
LINE
  8
0
 10
215.476
 20
-106.437
 11
217.691
 21
-100.98
  0
LINE
  8
0
 10
217.691
 20
-100.98
 11
216.889
 21
-100.036
  0
LINE
  8
0
 10
216.889
 20
-100.036
 11
211.439
 21
-101.268
  0
LINE
  8
0
 10
211.439
 20
-101.268
 11
211.146
 21
-101.341
  0
LINE
  8
0
 10
211.146
 20
-101.341
 11
211.141
 21
-101.345
  0
LINE
  8
0
 10
211.141
 20
-101.345
 11
210.421
 21
-100.52
  0
LINE
  8
0
 10
210.421
 20
-100.52
 11
210.425
 21
-100.516
  0
LINE
  8
0
 10
210.425
 20
-100.516
 11
212.488
 21
-94.9995
  0
LINE
  8
0
 10
212.488
 20
-94.9995
 11
211.66
 21
-94.0779
  0
LINE
  8
0
 10
211.66
 20
-94.0779
 11
206.246
 21
-95.4611
  0
LINE
  8
0
 10
206.246
 20
-95.4611
 11
205.955
 21
-95.5423
  0
LINE
  8
0
 10
205.955
 20
-95.5423
 11
205.951
 21
-95.5465
  0
LINE
  8
0
 10
205.951
 20
-95.5465
 11
205.207
 21
-94.7421
  0
LINE
  8
0
 10
205.207
 20
-94.7421
 11
205.212
 21
-94.7378
  0
LINE
  8
0
 10
205.212
 20
-94.7378
 11
207.121
 21
-89.1662
  0
LINE
  8
0
 10
207.121
 20
-89.1662
 11
206.267
 21
-88.268
  0
LINE
  8
0
 10
206.267
 20
-88.268
 11
200.894
 21
-89.8011
  0
LINE
  8
0
 10
200.894
 20
-89.8011
 11
200.605
 21
-89.8904
  0
LINE
  8
0
 10
200.605
 20
-89.8904
 11
200.601
 21
-89.8947
  0
LINE
  8
0
 10
200.601
 20
-89.8947
 11
199.835
 21
-89.1113
  0
LINE
  8
0
 10
199.835
 20
-89.1113
 11
199.84
 21
-89.1069
  0
LINE
  8
0
 10
199.84
 20
-89.1069
 11
201.593
 21
-83.4844
  0
LINE
  8
0
 10
201.593
 20
-83.4844
 11
200.715
 21
-82.6102
  0
LINE
  8
0
 10
200.715
 20
-82.6102
 11
195.386
 21
-84.2921
  0
LINE
  8
0
 10
195.386
 20
-84.2921
 11
195.1
 21
-84.3894
  0
LINE
  8
0
 10
195.1
 20
-84.3894
 11
195.096
 21
-84.3938
  0
LINE
  8
0
 10
195.096
 20
-84.3938
 11
194.309
 21
-83.6319
  0
LINE
  8
0
 10
194.309
 20
-83.6319
 11
194.313
 21
-83.6275
  0
LINE
  8
0
 10
194.313
 20
-83.6275
 11
195.91
 21
-77.9584
  0
LINE
  8
0
 10
195.91
 20
-77.9584
 11
195.007
 21
-77.109
  0
LINE
  8
0
 10
195.007
 20
-77.109
 11
189.727
 21
-78.9384
  0
LINE
  8
0
 10
189.727
 20
-78.9384
 11
189.445
 21
-79.0435
  0
LINE
  8
0
 10
189.445
 20
-79.0435
 11
189.441
 21
-79.0481
  0
LINE
  8
0
 10
189.441
 20
-79.0481
 11
188.633
 21
-78.3084
  0
LINE
  8
0
 10
188.633
 20
-78.3084
 11
188.637
 21
-78.3038
  0
LINE
  8
0
 10
188.637
 20
-78.3038
 11
190.075
 21
-72.5925
  0
LINE
  8
0
 10
190.075
 20
-72.5925
 11
189.149
 21
-71.7686
  0
LINE
  8
0
 10
189.149
 20
-71.7686
 11
183.922
 21
-73.744
  0
LINE
  8
0
 10
183.922
 20
-73.744
 11
183.643
 21
-73.857
  0
LINE
  8
0
 10
183.643
 20
-73.857
 11
183.638
 21
-73.8617
  0
LINE
  8
0
 10
183.638
 20
-73.8617
 11
182.81
 21
-73.1447
  0
LINE
  8
0
 10
182.81
 20
-73.1447
 11
182.814
 21
-73.14
  0
LINE
  8
0
 10
182.814
 20
-73.14
 11
184.093
 21
-67.3909
  0
LINE
  8
0
 10
184.093
 20
-67.3909
 11
183.145
 21
-66.593
  0
LINE
  8
0
 10
183.145
 20
-66.593
 11
177.975
 21
-68.713
  0
LINE
  8
0
 10
177.975
 20
-68.713
 11
177.698
 21
-68.8337
  0
LINE
  8
0
 10
177.698
 20
-68.8337
 11
177.694
 21
-68.8385
  0
LINE
  8
0
 10
177.694
 20
-68.8385
 11
176.847
 21
-68.1448
  0
LINE
  8
0
 10
176.847
 20
-68.1448
 11
176.851
 21
-68.14
  0
LINE
  8
0
 10
176.851
 20
-68.14
 11
177.969
 21
-62.3576
  0
LINE
  8
0
 10
177.969
 20
-62.3576
 11
176.999
 21
-61.5864
  0
LINE
  8
0
 10
176.999
 20
-61.5864
 11
171.89
 21
-63.8493
  0
LINE
  8
0
 10
171.89
 20
-63.8493
 11
171.617
 21
-63.9776
  0
LINE
  8
0
 10
171.617
 20
-63.9776
 11
171.613
 21
-63.9825
  0
LINE
  8
0
 10
171.613
 20
-63.9825
 11
170.746
 21
-63.3127
  0
LINE
  8
0
 10
170.746
 20
-63.3127
 11
170.75
 21
-63.3078
  0
LINE
  8
0
 10
170.75
 20
-63.3078
 11
171.707
 21
-57.4965
  0
LINE
  8
0
 10
171.707
 20
-57.4965
 11
170.717
 21
-56.7525
  0
LINE
  8
0
 10
170.717
 20
-56.7525
 11
165.672
 21
-59.1566
  0
LINE
  8
0
 10
165.672
 20
-59.1566
 11
165.403
 21
-59.2924
  0
LINE
  8
0
 10
165.403
 20
-59.2924
 11
165.399
 21
-59.2975
  0
LINE
  8
0
 10
165.399
 20
-59.2975
 11
164.514
 21
-58.652
  0
LINE
  8
0
 10
164.514
 20
-58.652
 11
164.518
 21
-58.6469
  0
LINE
  8
0
 10
164.518
 20
-58.6469
 11
165.313
 21
-52.8114
  0
LINE
  8
0
 10
165.313
 20
-52.8114
 11
164.302
 21
-52.0952
  0
LINE
  8
0
 10
164.302
 20
-52.0952
 11
159.326
 21
-54.6385
  0
LINE
  8
0
 10
159.326
 20
-54.6385
 11
159.061
 21
-54.7818
  0
LINE
  8
0
 10
159.061
 20
-54.7818
 11
159.057
 21
-54.7869
  0
LINE
  8
0
 10
159.057
 20
-54.7869
 11
158.155
 21
-54.1663
  0
LINE
  8
0
 10
158.155
 20
-54.1663
 11
158.158
 21
-54.1612
  0
LINE
  8
0
 10
158.158
 20
-54.1612
 11
158.791
 21
-48.3057
  0
LINE
  8
0
 10
158.791
 20
-48.3057
 11
157.76
 21
-47.618
  0
LINE
  8
0
 10
157.76
 20
-47.618
 11
152.857
 21
-50.2986
  0
LINE
  8
0
 10
152.857
 20
-50.2986
 11
152.596
 21
-50.4492
  0
LINE
  8
0
 10
152.596
 20
-50.4492
 11
152.593
 21
-50.4545
  0
LINE
  8
0
 10
152.593
 20
-50.4545
 11
151.673
 21
-49.8591
  0
LINE
  8
0
 10
151.673
 20
-49.8591
 11
151.677
 21
-49.8539
  0
LINE
  8
0
 10
151.677
 20
-49.8539
 11
152.146
 21
-43.9832
  0
LINE
  8
0
 10
152.146
 20
-43.9832
 11
151.097
 21
-43.3243
  0
LINE
  8
0
 10
151.097
 20
-43.3243
 11
146.27
 21
-46.1402
  0
LINE
  8
0
 10
146.27
 20
-46.1402
 11
146.013
 21
-46.2981
  0
LINE
  8
0
 10
146.013
 20
-46.2981
 11
146.01
 21
-46.3034
  0
LINE
  8
0
 10
146.01
 20
-46.3034
 11
145.074
 21
-45.7338
  0
LINE
  8
0
 10
145.074
 20
-45.7338
 11
145.078
 21
-45.7285
  0
LINE
  8
0
 10
145.078
 20
-45.7285
 11
145.384
 21
-39.847
  0
LINE
  8
0
 10
145.384
 20
-39.847
 11
144.317
 21
-39.2175
  0
LINE
  8
0
 10
144.317
 20
-39.2175
 11
139.57
 21
-42.1665
  0
LINE
  8
0
 10
139.57
 20
-42.1665
 11
139.318
 21
-42.3315
  0
LINE
  8
0
 10
139.318
 20
-42.3315
 11
139.315
 21
-42.3369
  0
LINE
  8
0
 10
139.315
 20
-42.3369
 11
138.363
 21
-41.7936
  0
LINE
  8
0
 10
138.363
 20
-41.7936
 11
138.366
 21
-41.7882
  0
LINE
  8
0
 10
138.366
 20
-41.7882
 11
138.509
 21
-35.9004
  0
LINE
  8
0
 10
138.509
 20
-35.9004
 11
137.425
 21
-35.3008
  0
LINE
  8
0
 10
137.425
 20
-35.3008
 11
132.762
 21
-38.3806
  0
LINE
  8
0
 10
132.762
 20
-38.3806
 11
132.514
 21
-38.5525
  0
LINE
  8
0
 10
132.514
 20
-38.5525
 11
132.511
 21
-38.558
  0
LINE
  8
0
 10
132.511
 20
-38.558
 11
131.545
 21
-38.0414
  0
LINE
  8
0
 10
131.545
 20
-38.0414
 11
131.548
 21
-38.0359
  0
LINE
  8
0
 10
131.548
 20
-38.0359
 11
131.527
 21
-32.1464
  0
LINE
  8
0
 10
131.527
 20
-32.1464
 11
130.427
 21
-31.5772
  0
LINE
  8
0
 10
130.427
 20
-31.5772
 11
125.852
 21
-34.7854
  0
LINE
  8
0
 10
125.852
 20
-34.7854
 11
125.609
 21
-34.9642
  0
LINE
  8
0
 10
125.609
 20
-34.9642
 11
125.606
 21
-34.9697
  0
LINE
  8
0
 10
125.606
 20
-34.9697
 11
124.626
 21
-34.4801
  0
LINE
  8
0
 10
124.626
 20
-34.4801
 11
124.629
 21
-34.4746
  0
LINE
  8
0
 10
124.629
 20
-34.4746
 11
124.444
 21
-28.5879
  0
LINE
  8
0
 10
124.444
 20
-28.5879
 11
123.328
 21
-28.0496
  0
LINE
  8
0
 10
123.328
 20
-28.0496
 11
118.844
 21
-31.3838
  0
LINE
  8
0
 10
118.844
 20
-31.3838
 11
118.606
 21
-31.5692
  0
LINE
  8
0
 10
118.606
 20
-31.5692
 11
118.603
 21
-31.5748
  0
LINE
  8
0
 10
118.603
 20
-31.5748
 11
117.61
 21
-31.1126
  0
LINE
  8
0
 10
117.61
 20
-31.1126
 11
117.613
 21
-31.107
  0
LINE
  8
0
 10
117.613
 20
-31.107
 11
117.264
 21
-25.2278
  0
LINE
  8
0
 10
117.264
 20
-25.2278
 11
116.134
 21
-24.7207
  0
LINE
  8
0
 10
116.134
 20
-24.7207
 11
111.744
 21
-28.1782
  0
LINE
  8
0
 10
111.744
 20
-28.1782
 11
111.511
 21
-28.3701
  0
LINE
  8
0
 10
111.511
 20
-28.3701
 11
111.509
 21
-28.3758
  0
LINE
  8
0
 10
111.509
 20
-28.3758
 11
110.503
 21
-27.9415
  0
LINE
  8
0
 10
110.503
 20
-27.9415
 11
110.506
 21
-27.9357
  0
LINE
  8
0
 10
110.506
 20
-27.9357
 11
109.994
 21
-22.0685
  0
LINE
  8
0
 10
109.994
 20
-22.0685
 11
108.85
 21
-21.593
  0
LINE
  8
0
 10
108.85
 20
-21.593
 11
104.558
 21
-25.1712
  0
LINE
  8
0
 10
104.558
 20
-25.1712
 11
104.331
 21
-25.3696
  0
LINE
  8
0
 10
104.331
 20
-25.3696
 11
104.328
 21
-25.3753
  0
LINE
  8
0
 10
104.328
 20
-25.3753
 11
103.311
 21
-24.9691
  0
LINE
  8
0
 10
103.311
 20
-24.9691
 11
103.313
 21
-24.9633
  0
LINE
  8
0
 10
103.313
 20
-24.9633
 11
102.639
 21
-19.1125
  0
LINE
  8
0
 10
102.639
 20
-19.1125
 11
101.482
 21
-18.669
  0
LINE
  8
0
 10
101.482
 20
-18.669
 11
97.2909
 21
-22.3652
  0
LINE
  8
0
 10
97.2909
 20
-22.3652
 11
97.0692
 21
-22.5697
  0
LINE
  8
0
 10
97.0692
 20
-22.5697
 11
97.067
 21
-22.5756
  0
LINE
  8
0
 10
97.067
 20
-22.5756
 11
96.0389
 21
-22.1977
  0
LINE
  8
0
 10
96.0389
 20
-22.1977
 11
96.041
 21
-22.1919
  0
LINE
  8
0
 10
96.041
 20
-22.1919
 11
95.2041
 21
-16.3622
  0
LINE
  8
0
 10
95.2041
 20
-16.3622
 11
94.0353
 21
-15.951
  0
LINE
  8
0
 10
94.0353
 20
-15.951
 11
89.9488
 21
-19.7622
  0
LINE
  8
0
 10
89.9488
 20
-19.7622
 11
89.7328
 21
-19.9729
  0
LINE
  8
0
 10
89.7328
 20
-19.9729
 11
89.7309
 21
-19.9788
  0
LINE
  8
0
 10
89.7309
 20
-19.9788
 11
88.6926
 21
-19.6297
  0
LINE
  8
0
 10
88.6926
 20
-19.6297
 11
88.6945
 21
-19.6238
  0
LINE
  8
0
 10
88.6945
 20
-19.6238
 11
87.6959
 21
-13.8195
  0
LINE
  8
0
 10
87.6959
 20
-13.8195
 11
86.5161
 21
-13.441
  0
LINE
  8
0
 10
86.5161
 20
-13.441
 11
82.5371
 21
-17.3643
  0
LINE
  8
0
 10
82.5371
 20
-17.3643
 11
82.3271
 21
-17.5809
  0
LINE
  8
0
 10
82.3271
 20
-17.5809
 11
82.3253
 21
-17.5869
  0
LINE
  8
0
 10
82.3253
 20
-17.5869
 11
81.2777
 21
-17.2668
  0
LINE
  8
0
 10
81.2777
 20
-17.2668
 11
81.2795
 21
-17.2608
  0
LINE
  8
0
 10
81.2795
 20
-17.2608
 11
80.1199
 21
-11.4866
  0
LINE
  8
0
 10
80.1199
 20
-11.4866
 11
78.9301
 21
-11.141
  0
LINE
  8
0
 10
78.9301
 20
-11.141
 11
75.0617
 21
-15.1734
  0
LINE
  8
0
 10
75.0617
 20
-15.1734
 11
74.8578
 21
-15.3958
  0
LINE
  8
0
 10
74.8578
 20
-15.3958
 11
74.8562
 21
-15.4018
  0
LINE
  8
0
 10
74.8562
 20
-15.4018
 11
73.8001
 21
-15.1109
  0
LINE
  8
0
 10
73.8001
 20
-15.1109
 11
73.8017
 21
-15.1049
  0
LINE
  8
0
 10
73.8017
 20
-15.1049
 11
72.4821
 21
-9.36517
  0
LINE
  8
0
 10
72.4821
 20
-9.36517
 11
71.2831
 21
-9.05281
  0
LINE
  8
0
 10
71.2831
 20
-9.05281
 11
67.5282
 21
-13.1912
  0
LINE
  8
0
 10
67.5282
 20
-13.1912
 11
67.3306
 21
-13.4191
  0
LINE
  8
0
 10
67.3306
 20
-13.4191
 11
67.3291
 21
-13.4251
  0
LINE
  8
0
 10
67.3291
 20
-13.4251
 11
66.2654
 21
-13.1638
  0
LINE
  8
0
 10
66.2654
 20
-13.1638
 11
66.2668
 21
-13.1577
  0
LINE
  8
0
 10
66.2668
 20
-13.1577
 11
64.7882
 21
-7.45686
  0
LINE
  8
0
 10
64.7882
 20
-7.45686
 11
63.5809
 21
-7.17796
  0
LINE
  8
0
 10
63.5809
 20
-7.17796
 11
59.9426
 21
-11.4191
  0
LINE
  8
0
 10
59.9426
 20
-11.4191
 11
59.7514
 21
-11.6525
  0
LINE
  8
0
 10
59.7514
 20
-11.6525
 11
59.7501
 21
-11.6585
  0
LINE
  8
0
 10
59.7501
 20
-11.6585
 11
58.6795
 21
-11.4268
  0
LINE
  8
0
 10
58.6795
 20
-11.4268
 11
58.6808
 21
-11.4207
  0
LINE
  8
0
 10
58.6808
 20
-11.4207
 11
57.0442
 21
-5.76318
  0
LINE
  8
0
 10
57.0442
 20
-5.76318
 11
55.8297
 21
-5.51794
  0
LINE
  8
0
 10
55.8297
 20
-5.51794
 11
52.3107
 21
-9.85861
  0
LINE
  8
0
 10
52.3107
 20
-9.85861
 11
52.126
 21
-10.0972
  0
LINE
  8
0
 10
52.126
 20
-10.0972
 11
52.1248
 21
-10.1033
  0
LINE
  8
0
 10
52.1248
 20
-10.1033
 11
51.0482
 21
-9.9014
  0
LINE
  8
0
 10
51.0482
 20
-9.9014
 11
51.0493
 21
-9.89531
  0
LINE
  8
0
 10
51.0493
 20
-9.89531
 11
49.2561
 21
-4.28543
  0
LINE
  8
0
 10
49.2561
 20
-4.28543
 11
48.0352
 21
-4.07404
  0
LINE
  8
0
 10
48.0352
 20
-4.07404
 11
44.6382
 21
-8.51085
  0
LINE
  8
0
 10
44.6382
 20
-8.51085
 11
44.4603
 21
-8.75446
  0
LINE
  8
0
 10
44.4603
 20
-8.75446
 11
44.4593
 21
-8.76059
  0
LINE
  8
0
 10
44.4593
 20
-8.76059
 11
43.3775
 21
-8.58873
  0
LINE
  8
0
 10
43.3775
 20
-8.58873
 11
43.3785
 21
-8.58258
  0
LINE
  8
0
 10
43.3785
 20
-8.58258
 11
41.43
 21
-3.02472
  0
LINE
  8
0
 10
41.43
 20
-3.02472
 11
40.2037
 21
-2.84737
  0
LINE
  8
0
 10
40.2037
 20
-2.84737
 11
36.9314
 21
-7.37689
  0
LINE
  8
0
 10
36.9314
 20
-7.37689
 11
36.7603
 21
-7.62534
  0
LINE
  8
0
 10
36.7603
 20
-7.62534
 11
36.7594
 21
-7.6315
  0
LINE
  8
0
 10
36.7594
 20
-7.6315
 11
35.6732
 21
-7.48979
  0
LINE
  8
0
 10
35.6732
 20
-7.48979
 11
35.674
 21
-7.48363
  0
LINE
  8
0
 10
35.674
 20
-7.48363
 11
33.5718
 21
-1.98207
  0
LINE
  8
0
 10
33.5718
 20
-1.98207
 11
32.3411
 21
-1.83887
  0
LINE
  8
0
 10
32.3411
 20
-1.83887
 11
29.1959
 21
-6.4576
  0
LINE
  8
0
 10
29.1959
 20
-6.4576
 11
29.0318
 21
-6.71072
  0
LINE
  8
0
 10
29.0318
 20
-6.71072
 11
29.0311
 21
-6.7169
  0
LINE
  8
0
 10
29.0311
 20
-6.7169
 11
27.9414
 21
-6.60542
  0
LINE
  8
0
 10
27.9414
 20
-6.60542
 11
27.9421
 21
-6.59924
  0
LINE
  8
0
 10
27.9421
 20
-6.59924
 11
25.6877
 21
-1.15826
  0
LINE
  8
0
 10
25.6877
 20
-1.15826
 11
24.4535
 21
-1.04932
  0
LINE
  8
0
 10
24.4535
 20
-1.04932
 11
21.4379
 21
-5.75371
  0
LINE
  8
0
 10
21.4379
 20
-5.75371
 11
21.2809
 21
-6.01128
  0
LINE
  8
0
 10
21.2809
 20
-6.01128
 11
21.2804
 21
-6.01747
  0
LINE
  8
0
 10
21.2804
 20
-6.01747
 11
20.188
 21
-5.93634
  0
LINE
  8
0
 10
20.188
 20
-5.93634
 11
20.1885
 21
-5.93015
  0
LINE
  8
0
 10
20.1885
 20
-5.93015
 11
17.7837
 21
-0.55394
  0
LINE
  8
0
 10
17.7837
 20
-0.55394
 11
16.547
 21
-0.47934
  0
LINE
  8
0
 10
16.547
 20
-0.47934
 11
13.6633
 21
-5.26575
  0
LINE
  8
0
 10
13.6633
 20
-5.26575
 11
13.5135
 21
-5.52759
  0
LINE
  8
0
 10
13.5135
 20
-5.52759
 11
13.5132
 21
-5.53378
  0
LINE
  8
0
 10
13.5132
 20
-5.53378
 11
12.419
 21
-5.48305
  0
LINE
  8
0
 10
12.419
 20
-5.48305
 11
12.4193
 21
-5.47685
  0
LINE
  8
0
 10
12.4193
 20
-5.47685
 11
9.86604
 21
-0.169556
  0
LINE
  8
0
 10
9.86604
 20
-0.169556
 11
8.62764
 21
-0.129379
  0
LINE
  8
0
 10
8.62764
 20
-0.129379
 11
5.8782
 21
-4.99408
  0
LINE
  8
0
 10
5.8782
 20
-4.99408
 11
5.73572
 21
-5.25998
  0
LINE
  8
0
 10
5.73572
 20
-5.25998
 11
5.7356
 21
-5.26619
  0
LINE
  8
0
 10
5.7356
 20
-5.26619
 11
4.6404
 21
-5.24591
  0
LINE
  8
0
 10
4.6404
 20
-5.24591
 11
4.6405
 21
-5.23967
  0
LINE
  8
0
 10
4.6405
 20
-5.23967
 11
1.9407
 21
-0.00543213
  0
LINE
  8
0
 10
1.9407
 20
-0.00543213
 11
0.701675
 21
0.000305176
  0
LINE
  8
0
 10
0.701675
 20
0.000305176
 11
-1.91145
 21
-4.93893
  0
LINE
  8
0
 10
-1.91145
 20
-4.93893
 11
-2.04648
 21
-5.20869
  0
LINE
  8
0
 10
-2.04648
 20
-5.20869
 11
-2.04645
 21
-5.2149
  0
LINE
  8
0
 10
-2.04645
 20
-5.2149
 11
-3.14178
 21
-5.22507
  0
LINE
  8
0
 10
-3.14178
 20
-5.22507
 11
-3.14185
 21
-5.21884
  0
LINE
  8
0
 10
-3.14185
 20
-5.21884
 11
-5.9861
 21
-0.0616608
  0
LINE
  8
0
 10
-5.9861
 20
-0.0616608
 11
-7.22482
 21
-0.0903625
  0
LINE
  8
0
 10
-7.22482
 20
-0.0903625
 11
-9.69966
 21
-5.10036
  0
LINE
  8
0
 10
-9.69966
 20
-5.10036
 11
-9.82713
 21
-5.37376
  0
LINE
  8
0
 10
-9.82713
 20
-5.37376
 11
-9.8269
 21
-5.37997
  0
LINE
  8
0
 10
-9.8269
 20
-5.37997
 11
-10.9216
 21
-5.42056
  0
LINE
  8
0
 10
-10.9216
 20
-5.42056
 11
-10.9218
 21
-5.41435
  0
LINE
  8
0
 10
-10.9218
 20
-5.41435
 11
-13.9083
 21
-0.338226
  0
LINE
  8
0
 10
-13.9083
 20
-0.338226
 11
-15.1457
 21
-0.401352
  0
LINE
  8
0
 10
-15.1457
 20
-0.401352
 11
-17.4804
 21
-5.47821
  0
LINE
  8
0
 10
-17.4804
 20
-5.47821
 11
-17.6002
 21
-5.75505
  0
LINE
  8
0
 10
-17.6002
 20
-5.75505
 11
-17.5998
 21
-5.76125
  0
LINE
  8
0
 10
-17.5998
 20
-5.76125
 11
-18.6929
 21
-5.83226
  0
LINE
  8
0
 10
-18.6929
 20
-5.83226
 11
-18.6933
 21
-5.82607
  0
LINE
  8
0
 10
-18.6933
 20
-5.82607
 11
-21.8198
 21
-0.8349
  0
LINE
  8
0
 10
-21.8198
 20
-0.8349
 11
-23.055
 21
-0.932404
  0
LINE
  8
0
 10
-23.055
 20
-0.932404
 11
-25.2475
 21
-6.07219
  0
LINE
  8
0
 10
-25.2475
 20
-6.07219
 11
-25.3596
 21
-6.35226
  0
LINE
  8
0
 10
-25.3596
 20
-6.35226
 11
-25.3591
 21
-6.35846
  0
LINE
  8
0
 10
-25.3591
 20
-6.35846
 11
-26.4498
 21
-6.45981
  0
LINE
  8
0
 10
-26.4498
 20
-6.45981
 11
-26.4503
 21
-6.45364
  0
LINE
  8
0
 10
-26.4503
 20
-6.45364
 11
-29.7144
 21
-1.55132
  0
LINE
  8
0
 10
-29.7144
 20
-1.55132
 11
-30.9464
 21
-1.68312
  0
LINE
  8
0
 10
-30.9464
 20
-1.68312
 11
-32.9952
 21
-6.88187
  0
LINE
  8
0
 10
-32.9952
 20
-6.88187
 11
-33.0995
 21
-7.16495
  0
LINE
  8
0
 10
-33.0995
 20
-7.16495
 11
-33.0988
 21
-7.17111
  0
LINE
  8
0
 10
-33.0988
 20
-7.17111
 11
-34.1862
 21
-7.30276
  0
LINE
  8
0
 10
-34.1862
 20
-7.30276
 11
-34.187
 21
-7.2966
  0
LINE
  8
0
 10
-34.187
 20
-7.2966
 11
-37.586
 21
-2.48691
  0
LINE
  8
0
 10
-37.586
 20
-2.48691
 11
-38.8139
 21
-2.65291
  0
LINE
  8
0
 10
-38.8139
 20
-2.65291
 11
-40.7174
 21
-7.9066
  0
LINE
  8
0
 10
-40.7174
 20
-7.9066
 11
-40.8138
 21
-8.19247
  0
LINE
  8
0
 10
-40.8138
 20
-8.19247
 11
-40.8128
 21
-8.19862
  0
LINE
  8
0
 10
-40.8128
 20
-8.19862
 11
-41.8962
 21
-8.36044
  0
LINE
  8
0
 10
-41.8962
 20
-8.36044
 11
-41.8972
 21
-8.35429
  0
LINE
  8
0
 10
-41.8972
 20
-8.35429
 11
-45.4285
 21
-3.64096
  0
LINE
  8
0
 10
-45.4285
 20
-3.64096
 11
-46.6513
 21
-3.84102
  0
LINE
  8
0
 10
-46.6513
 20
-3.84102
 11
-48.4081
 21
-9.14561
  0
LINE
  8
0
 10
-48.4081
 20
-9.14561
 11
-48.4965
 21
-9.43404
  0
LINE
  8
0
 10
-48.4965
 20
-9.43404
 11
-48.4954
 21
-9.44016
  0
LINE
  8
0
 10
-48.4954
 20
-9.44016
 11
-49.5739
 21
-9.63205
  0
LINE
  8
0
 10
-49.5739
 20
-9.63205
 11
-49.575
 21
-9.62593
  0
LINE
  8
0
 10
-49.575
 20
-9.62593
 11
-53.236
 21
-5.01257
  0
LINE
  8
0
 10
-53.236
 20
-5.01257
 11
-54.4528
 21
-5.24655
  0
LINE
  8
0
 10
-54.4528
 20
-5.24655
 11
-56.0614
 21
-10.5979
  0
LINE
  8
0
 10
-56.0614
 20
-10.5979
 11
-56.1417
 21
-10.8887
  0
LINE
  8
0
 10
-56.1417
 20
-10.8887
 11
-56.1405
 21
-10.8948
  0
LINE
  8
0
 10
-56.1405
 20
-10.8948
 11
-57.2132
 21
-11.1166
  0
LINE
  8
0
 10
-57.2132
 20
-11.1166
 11
-57.2144
 21
-11.1105
  0
LINE
  8
0
 10
-57.2144
 20
-11.1105
 11
-61.0023
 21
-6.60069
  0
LINE
  8
0
 10
-61.0023
 20
-6.60069
 11
-62.2121
 21
-6.86839
  0
LINE
  8
0
 10
-62.2121
 20
-6.86839
 11
-63.6714
 21
-12.2624
  0
LINE
  8
0
 10
-63.6714
 20
-12.2624
 11
-63.7436
 21
-12.5553
  0
LINE
  8
0
 10
-63.7436
 20
-12.5553
 11
-63.7421
 21
-12.5614
  0
LINE
  8
0
 10
-63.7421
 20
-12.5614
 11
-64.8083
 21
-12.8129
  0
LINE
  8
0
 10
-64.8083
 20
-12.8129
 11
-64.8097
 21
-12.8068
  0
LINE
  8
0
 10
-64.8097
 20
-12.8068
 11
-68.7215
 21
-8.40408
  0
LINE
  8
0
 10
-68.7215
 20
-8.40408
 11
-69.9234
 21
-8.70531
  0
LINE
  8
0
 10
-69.9234
 20
-8.70531
 11
-71.2321
 21
-14.1378
  0
LINE
  8
0
 10
-71.2321
 20
-14.1378
 11
-71.2962
 21
-14.4326
  0
LINE
  8
0
 10
-71.2962
 20
-14.4326
 11
-71.2946
 21
-14.4386
  0
LINE
  8
0
 10
-71.2946
 20
-14.4386
 11
-72.3533
 21
-14.7197
  0
LINE
  8
0
 10
-72.3533
 20
-14.7197
 11
-72.3549
 21
-14.7137
  0
LINE
  8
0
 10
-72.3549
 20
-14.7137
 11
-76.3876
 21
-10.4213
  0
LINE
  8
0
 10
-76.3876
 20
-10.4213
 11
-77.5806
 21
-10.7559
  0
LINE
  8
0
 10
-77.5806
 20
-10.7559
 11
-78.7378
 21
-16.2226
  0
LINE
  8
0
 10
-78.7378
 20
-16.2226
 11
-78.7936
 21
-16.5191
  0
LINE
  8
0
 10
-78.7936
 20
-16.5191
 11
-78.7919
 21
-16.5251
  0
LINE
  8
0
 10
-78.7919
 20
-16.5251
 11
-79.8424
 21
-16.8354
  0
LINE
  8
0
 10
-79.8424
 20
-16.8354
 11
-79.8441
 21
-16.8295
  0
LINE
  8
0
 10
-79.8441
 20
-16.8295
 11
-83.9946
 21
-12.6509
  0
LINE
  8
0
 10
-83.9946
 20
-12.6509
 11
-85.1778
 21
-13.0185
  0
LINE
  8
0
 10
-85.1778
 20
-13.0185
 11
-86.1827
 21
-18.5153
  0
LINE
  8
0
 10
-86.1827
 20
-18.5153
 11
-86.2302
 21
-18.8132
  0
LINE
  8
0
 10
-86.2302
 20
-18.8132
 11
-86.2283
 21
-18.8191
  0
LINE
  8
0
 10
-86.2283
 20
-18.8191
 11
-87.2697
 21
-19.1586
  0
LINE
  8
0
 10
-87.2697
 20
-19.1586
 11
-87.2717
 21
-19.1527
  0
LINE
  8
0
 10
-87.2717
 20
-19.1527
 11
-91.5367
 21
-15.0911
  0
LINE
  8
0
 10
-91.5367
 20
-15.0911
 11
-92.7093
 21
-15.4914
  0
LINE
  8
0
 10
-92.7093
 20
-15.4914
 11
-93.5609
 21
-21.0141
  0
LINE
  8
0
 10
-93.5609
 20
-21.0141
 11
-93.6001
 21
-21.3132
  0
LINE
  8
0
 10
-93.6001
 20
-21.3132
 11
-93.5981
 21
-21.319
  0
LINE
  8
0
 10
-93.5981
 20
-21.319
 11
-94.6297
 21
-21.6873
  0
LINE
  8
0
 10
-94.6297
 20
-21.6873
 11
-94.6318
 21
-21.6815
  0
LINE
  8
0
 10
-94.6318
 20
-21.6815
 11
-99.008
 21
-17.74
  0
LINE
  8
0
 10
-99.008
 20
-17.74
 11
-100.169
 21
-18.1728
  0
LINE
  8
0
 10
-100.169
 20
-18.1728
 11
-100.867
 21
-23.717
  0
LINE
  8
0
 10
-100.867
 20
-23.717
 11
-100.898
 21
-24.017
  0
LINE
  8
0
 10
-100.898
 20
-24.017
 11
-100.895
 21
-24.0229
  0
LINE
  8
0
 10
-100.895
 20
-24.0229
 11
-101.916
 21
-24.4196
  0
LINE
  8
0
 10
-101.916
 20
-24.4196
 11
-101.919
 21
-24.4139
  0
LINE
  8
0
 10
-101.919
 20
-24.4139
 11
-106.403
 21
-20.5956
  0
LINE
  8
0
 10
-106.403
 20
-20.5956
 11
-107.551
 21
-21.0605
  0
LINE
  8
0
 10
-107.551
 20
-21.0605
 11
-108.095
 21
-26.6219
  0
LINE
  8
0
 10
-108.095
 20
-26.6219
 11
-108.117
 21
-26.9227
  0
LINE
  8
0
 10
-108.117
 20
-26.9227
 11
-108.115
 21
-26.9285
  0
LINE
  8
0
 10
-108.115
 20
-26.9285
 11
-109.125
 21
-27.3535
  0
LINE
  8
0
 10
-109.125
 20
-27.3535
 11
-109.127
 21
-27.3478
  0
LINE
  8
0
 10
-109.127
 20
-27.3478
 11
-113.715
 21
-23.6556
  0
LINE
  8
0
 10
-113.715
 20
-23.6556
 11
-114.851
 21
-24.1522
  0
LINE
  8
0
 10
-114.851
 20
-24.1522
 11
-115.239
 21
-29.7266
  0
LINE
  8
0
 10
-115.239
 20
-29.7266
 11
-115.253
 21
-30.028
  0
LINE
  8
0
 10
-115.253
 20
-30.028
 11
-115.251
 21
-30.0336
  0
LINE
  8
0
 10
-115.251
 20
-30.0336
 11
-116.248
 21
-30.4866
  0
LINE
  8
0
 10
-116.248
 20
-30.4866
 11
-116.251
 21
-30.4809
  0
LINE
  8
0
 10
-116.251
 20
-30.4809
 11
-120.94
 21
-26.9178
  0
LINE
  8
0
 10
-120.94
 20
-26.9178
 11
-122.061
 21
-27.4457
  0
LINE
  8
0
 10
-122.061
 20
-27.4457
 11
-122.295
 21
-33.0288
  0
LINE
  8
0
 10
-122.295
 20
-33.0288
 11
-122.3
 21
-33.3304
  0
LINE
  8
0
 10
-122.3
 20
-33.3304
 11
-122.298
 21
-33.336
  0
LINE
  8
0
 10
-122.298
 20
-33.336
 11
-123.282
 21
-33.8165
  0
LINE
  8
0
 10
-123.282
 20
-33.8165
 11
-123.285
 21
-33.8109
  0
LINE
  8
0
 10
-123.285
 20
-33.8109
 11
-128.071
 21
-30.3795
  0
LINE
  8
0
 10
-128.071
 20
-30.3795
 11
-129.177
 21
-30.9384
  0
LINE
  8
0
 10
-129.177
 20
-30.9384
 11
-129.255
 21
-36.5257
  0
LINE
  8
0
 10
-129.255
 20
-36.5257
 11
-129.253
 21
-36.8274
  0
LINE
  8
0
 10
-129.253
 20
-36.8274
 11
-129.25
 21
-36.8329
  0
LINE
  8
0
 10
-129.25
 20
-36.8329
 11
-130.221
 21
-37.3406
  0
LINE
  8
0
 10
-130.221
 20
-37.3406
 11
-130.223
 21
-37.3351
  0
LINE
  8
0
 10
-130.223
 20
-37.3351
 11
-135.104
 21
-34.038
  0
LINE
  8
0
 10
-135.104
 20
-34.038
 11
-136.193
 21
-34.6275
  0
LINE
  8
0
 10
-136.193
 20
-34.6275
 11
-136.116
 21
-40.2149
  0
LINE
  8
0
 10
-136.116
 20
-40.2149
 11
-136.105
 21
-40.5163
  0
LINE
  8
0
 10
-136.105
 20
-40.5163
 11
-136.102
 21
-40.5218
  0
LINE
  8
0
 10
-136.102
 20
-40.5218
 11
-137.059
 21
-41.0562
  0
LINE
  8
0
 10
-137.059
 20
-41.0562
 11
-137.062
 21
-41.0508
  0
LINE
  8
0
 10
-137.062
 20
-41.0508
 11
-142.031
 21
-37.8907
  0
LINE
  8
0
 10
-142.031
 20
-37.8907
 11
-143.104
 21
-38.5102
  0
LINE
  8
0
 10
-143.104
 20
-38.5102
 11
-142.872
 21
-44.0933
  0
LINE
  8
0
 10
-142.872
 20
-44.0933
 11
-142.853
 21
-44.3943
  0
LINE
  8
0
 10
-142.853
 20
-44.3943
 11
-142.85
 21
-44.3997
  0
LINE
  8
0
 10
-142.85
 20
-44.3997
 11
-143.79
 21
-44.9605
  0
LINE
  8
0
 10
-143.79
 20
-44.9605
 11
-143.794
 21
-44.9552
  0
LINE
  8
0
 10
-143.794
 20
-44.9552
 11
-148.85
 21
-41.9344
  0
LINE
  8
0
 10
-148.85
 20
-41.9344
 11
-149.905
 21
-42.5836
  0
LINE
  8
0
 10
-149.905
 20
-42.5836
 11
-149.517
 21
-48.158
  0
LINE
  8
0
 10
-149.517
 20
-48.158
 11
-149.49
 21
-48.4584
  0
LINE
  8
0
 10
-149.49
 20
-48.4584
 11
-149.486
 21
-48.4637
  0
LINE
  8
0
 10
-149.486
 20
-48.4637
 11
-150.411
 21
-49.0504
  0
LINE
  8
0
 10
-150.411
 20
-49.0504
 11
-150.415
 21
-49.0452
  0
LINE
  8
0
 10
-150.415
 20
-49.0452
 11
-155.553
 21
-46.1662
  0
LINE
  8
0
 10
-155.553
 20
-46.1662
 11
-156.589
 21
-46.8444
  0
LINE
  8
0
 10
-156.589
 20
-46.8444
 11
-156.047
 21
-52.4059
  0
LINE
  8
0
 10
-156.047
 20
-52.4059
 11
-156.011
 21
-52.7054
  0
LINE
  8
0
 10
-156.011
 20
-52.7054
 11
-156.008
 21
-52.7106
  0
LINE
  8
0
 10
-156.008
 20
-52.7106
 11
-156.916
 21
-53.3228
  0
LINE
  8
0
 10
-156.916
 20
-53.3228
 11
-156.919
 21
-53.3177
  0
LINE
  8
0
 10
-156.919
 20
-53.3177
 11
-162.135
 21
-50.5826
  0
LINE
  8
0
 10
-162.135
 20
-50.5826
 11
-163.153
 21
-51.2894
  0
LINE
  8
0
 10
-163.153
 20
-51.2894
 11
-162.456
 21
-56.8336
  0
LINE
  8
0
 10
-162.456
 20
-56.8336
 11
-162.412
 21
-57.132
  0
LINE
  8
0
 10
-162.412
 20
-57.132
 11
-162.408
 21
-57.1371
  0
LINE
  8
0
 10
-162.408
 20
-57.1371
 11
-163.299
 21
-57.7744
  0
LINE
  8
0
 10
-163.299
 20
-57.7744
 11
-163.303
 21
-57.7693
  0
LINE
  8
0
 10
-163.303
 20
-57.7693
 11
-168.593
 21
-55.1803
  0
LINE
  8
0
 10
-168.593
 20
-55.1803
 11
-169.59
 21
-55.9151
  0
LINE
  8
0
 10
-169.59
 20
-55.9151
 11
-168.74
 21
-61.4379
  0
LINE
  8
0
 10
-168.74
 20
-61.4379
 11
-168.687
 21
-61.7349
  0
LINE
  8
0
 10
-168.687
 20
-61.7349
 11
-168.683
 21
-61.7399
  0
LINE
  8
0
 10
-168.683
 20
-61.7399
 11
-169.556
 21
-62.4016
  0
LINE
  8
0
 10
-169.556
 20
-62.4016
 11
-169.56
 21
-62.3967
  0
LINE
  8
0
 10
-169.56
 20
-62.3967
 11
-174.92
 21
-59.9557
  0
LINE
  8
0
 10
-174.92
 20
-59.9557
 11
-175.897
 21
-60.7179
  0
LINE
  8
0
 10
-175.897
 20
-60.7179
 11
-174.893
 21
-66.215
  0
LINE
  8
0
 10
-174.893
 20
-66.215
 11
-174.832
 21
-66.5104
  0
LINE
  8
0
 10
-174.832
 20
-66.5104
 11
-174.828
 21
-66.5153
  0
LINE
  8
0
 10
-174.828
 20
-66.5153
 11
-175.682
 21
-67.2011
  0
LINE
  8
0
 10
-175.682
 20
-67.2011
 11
-175.686
 21
-67.1962
  0
LINE
  8
0
 10
-175.686
 20
-67.1962
 11
-181.112
 21
-64.9052
  0
LINE
  8
0
 10
-181.112
 20
-64.9052
 11
-182.067
 21
-65.6943
  0
LINE
  8
0
 10
-182.067
 20
-65.6943
 11
-180.911
 21
-71.1613
  0
LINE
  8
0
 10
-180.911
 20
-71.1613
 11
-180.842
 21
-71.4549
  0
LINE
  8
0
 10
-180.842
 20
-71.4549
 11
-180.838
 21
-71.4597
  0
LINE
  8
0
 10
-180.838
 20
-71.4597
 11
-181.673
 21
-72.1689
  0
LINE
  8
0
 10
-181.673
 20
-72.1689
 11
-181.677
 21
-72.1642
  0
LINE
  8
0
 10
-181.677
 20
-72.1642
 11
-187.164
 21
-70.0249
  0
LINE
  8
0
 10
-187.164
 20
-70.0249
 11
-188.097
 21
-70.8402
  0
LINE
  8
0
 10
-188.097
 20
-70.8402
 11
-186.789
 21
-76.2729
  0
LINE
  8
0
 10
-186.789
 20
-76.2729
 11
-186.712
 21
-76.5646
  0
LINE
  8
0
 10
-186.712
 20
-76.5646
 11
-186.708
 21
-76.5692
  0
LINE
  8
0
 10
-186.708
 20
-76.5692
 11
-187.523
 21
-77.3014
  0
LINE
  8
0
 10
-187.523
 20
-77.3014
 11
-187.527
 21
-77.2968
  0
LINE
  8
0
 10
-187.527
 20
-77.2968
 11
-193.071
 21
-75.3108
  0
LINE
  8
0
 10
-193.071
 20
-75.3108
 11
-193.981
 21
-76.1517
  0
LINE
  8
0
 10
-193.981
 20
-76.1517
 11
-192.523
 21
-81.546
  0
LINE
  8
0
 10
-192.523
 20
-81.546
 11
-192.438
 21
-81.8354
  0
LINE
  8
0
 10
-192.438
 20
-81.8354
 11
-192.433
 21
-81.8399
  0
LINE
  8
0
 10
-192.433
 20
-81.8399
 11
-193.227
 21
-82.5945
  0
LINE
  8
0
 10
-193.227
 20
-82.5945
 11
-193.232
 21
-82.59
  0
LINE
  8
0
 10
-193.232
 20
-82.59
 11
-198.829
 21
-80.7589
  0
LINE
  8
0
 10
-198.829
 20
-80.7589
 11
-199.716
 21
-81.6248
  0
LINE
  8
0
 10
-199.716
 20
-81.6248
 11
-198.108
 21
-86.9765
  0
LINE
  8
0
 10
-198.108
 20
-86.9765
 11
-198.015
 21
-87.2634
  0
LINE
  8
0
 10
-198.015
 20
-87.2634
 11
-198.01
 21
-87.2678
  0
LINE
  8
0
 10
-198.01
 20
-87.2678
 11
-198.783
 21
-88.0441
  0
LINE
  8
0
 10
-198.783
 20
-88.0441
 11
-198.787
 21
-88.0397
  0
LINE
  8
0
 10
-198.787
 20
-88.0397
 11
-204.434
 21
-86.365
  0
LINE
  8
0
 10
-204.434
 20
-86.365
 11
-205.296
 21
-87.2552
  0
LINE
  8
0
 10
-205.296
 20
-87.2552
 11
-203.54
 21
-92.5601
  0
LINE
  8
0
 10
-203.54
 20
-92.5601
 11
-203.439
 21
-92.8443
  0
LINE
  8
0
 10
-203.439
 20
-92.8443
 11
-203.434
 21
-92.8485
  0
LINE
  8
0
 10
-203.434
 20
-92.8485
 11
-204.185
 21
-93.6461
  0
LINE
  8
0
 10
-204.185
 20
-93.6461
 11
-204.19
 21
-93.6418
  0
LINE
  8
0
 10
-204.19
 20
-93.6418
 11
-209.88
 21
-92.1246
  0
LINE
  8
0
 10
-209.88
 20
-92.1246
 11
-210.717
 21
-93.0385
  0
LINE
  8
0
 10
-210.717
 20
-93.0385
 11
-208.814
 21
-98.2925
  0
LINE
  8
0
 10
-208.814
 20
-98.2925
 11
-208.705
 21
-98.5738
  0
LINE
  8
0
 10
-208.705
 20
-98.5738
 11
-208.701
 21
-98.5779
  0
LINE
  8
0
 10
-208.701
 20
-98.5779
 11
-209.429
 21
-99.396
  0
LINE
  8
0
 10
-209.429
 20
-99.396
 11
-209.434
 21
-99.3919
  0
LINE
  8
0
 10
-209.434
 20
-99.3919
 11
-215.164
 21
-98.0335
  0
LINE
  8
0
 10
-215.164
 20
-98.0335
 11
-215.976
 21
-98.9703
  0
LINE
  8
0
 10
-215.976
 20
-98.9703
 11
-213.928
 21
-104.169
  0
LINE
  8
0
 10
-213.928
 20
-104.169
 11
-213.811
 21
-104.448
  0
LINE
  8
0
 10
-213.811
 20
-104.448
 11
-213.806
 21
-104.452
  0
LINE
  8
0
 10
-213.806
 20
-104.452
 11
-214.511
 21
-105.29
  0
LINE
  8
0
 10
-214.511
 20
-105.29
 11
-214.516
 21
-105.286
  0
LINE
  8
0
 10
-214.516
 20
-105.286
 11
-220.282
 21
-104.087
  0
LINE
  8
0
 10
-220.282
 20
-104.087
 11
-221.067
 21
-105.046
  0
LINE
  8
0
 10
-221.067
 20
-105.046
 11
-218.875
 21
-110.186
  0
LINE
  8
0
 10
-218.875
 20
-110.186
 11
-218.751
 21
-110.461
  0
LINE
  8
0
 10
-218.751
 20
-110.461
 11
-218.746
 21
-110.465
  0
LINE
  8
0
 10
-218.746
 20
-110.465
 11
-219.428
 21
-111.322
  0
LINE
  8
0
 10
-219.428
 20
-111.322
 11
-219.433
 21
-111.318
  0
LINE
  8
0
 10
-219.433
 20
-111.318
 11
-225.23
 21
-110.28
  0
LINE
  8
0
 10
-225.23
 20
-110.28
 11
-225.988
 21
-111.261
  0
LINE
  8
0
 10
-225.988
 20
-111.261
 11
-223.654
 21
-116.338
  0
LINE
  8
0
 10
-223.654
 20
-116.338
 11
-223.522
 21
-116.609
  0
LINE
  8
0
 10
-223.522
 20
-116.609
 11
-223.517
 21
-116.613
  0
LINE
  8
0
 10
-223.517
 20
-116.613
 11
-224.175
 21
-117.489
  0
LINE
  8
0
 10
-224.175
 20
-117.489
 11
-224.18
 21
-117.485
  0
LINE
  8
0
 10
-224.18
 20
-117.485
 11
-230.004
 21
-116.609
  0
LINE
  8
0
 10
-230.004
 20
-116.609
 11
-230.734
 21
-117.61
  0
LINE
  8
0
 10
-230.734
 20
-117.61
 11
-228.26
 21
-122.62
  0
LINE
  8
0
 10
-228.26
 20
-122.62
 11
-228.12
 21
-122.888
  0
LINE
  8
0
 10
-228.12
 20
-122.888
 11
-228.115
 21
-122.891
  0
LINE
  8
0
 10
-228.115
 20
-122.891
 11
-228.748
 21
-123.785
  0
LINE
  8
0
 10
-228.748
 20
-123.785
 11
-228.753
 21
-123.782
  0
LINE
  8
0
 10
-228.753
 20
-123.782
 11
-234.6
 21
-123.068
  0
LINE
  8
0
 10
-234.6
 20
-123.068
 11
-235.302
 21
-124.089
  0
LINE
  8
0
 10
-235.302
 20
-124.089
 11
-232.689
 21
-129.028
  0
LINE
  8
0
 10
-232.689
 20
-129.028
 11
-232.542
 21
-129.292
  0
LINE
  8
0
 10
-232.542
 20
-129.292
 11
-232.537
 21
-129.295
  0
LINE
  8
0
 10
-232.537
 20
-129.295
 11
-233.145
 21
-130.206
  0
LINE
  8
0
 10
-233.145
 20
-130.206
 11
-233.15
 21
-130.203
  0
LINE
  8
0
 10
-233.15
 20
-130.203
 11
-239.014
 21
-129.652
  0
LINE
  8
0
 10
-239.014
 20
-129.652
 11
-239.687
 21
-130.692
  0
LINE
  8
0
 10
-239.687
 20
-130.692
 11
-236.939
 21
-135.557
  0
LINE
  8
0
 10
-236.939
 20
-135.557
 11
-236.785
 21
-135.816
  0
LINE
  8
0
 10
-236.785
 20
-135.816
 11
-236.779
 21
-135.82
  0
LINE
  8
0
 10
-236.779
 20
-135.82
 11
-237.362
 21
-136.747
  0
LINE
  8
0
 10
-237.362
 20
-136.747
 11
-237.367
 21
-136.744
  0
LINE
  8
0
 10
-237.367
 20
-136.744
 11
-243.244
 21
-136.356
  0
LINE
  8
0
 10
-243.244
 20
-136.356
 11
-243.888
 21
-137.414
  0
LINE
  8
0
 10
-243.888
 20
-137.414
 11
-241.005
 21
-142.201
  0
LINE
  8
0
 10
-241.005
 20
-142.201
 11
-240.844
 21
-142.456
  0
LINE
  8
0
 10
-240.844
 20
-142.456
 11
-240.839
 21
-142.459
  0
LINE
  8
0
 10
-240.839
 20
-142.459
 11
-241.395
 21
-143.403
  0
LINE
  8
0
 10
-241.395
 20
-143.403
 11
-241.4
 21
-143.4
  0
LINE
  8
0
 10
-241.4
 20
-143.4
 11
-247.286
 21
-143.175
  0
LINE
  8
0
 10
-247.286
 20
-143.175
 11
-247.9
 21
-144.251
  0
LINE
  8
0
 10
-247.9
 20
-144.251
 11
-244.886
 21
-148.956
  0
LINE
  8
0
 10
-244.886
 20
-148.956
 11
-244.717
 21
-149.206
  0
LINE
  8
0
 10
-244.717
 20
-149.206
 11
-244.712
 21
-149.209
  0
LINE
  8
0
 10
-244.712
 20
-149.209
 11
-245.242
 21
-150.168
  0
LINE
  8
0
 10
-245.242
 20
-150.168
 11
-245.247
 21
-150.165
  0
LINE
  8
0
 10
-245.247
 20
-150.165
 11
-251.136
 21
-150.104
  0
LINE
  8
0
 10
-251.136
 20
-150.104
 11
-251.721
 21
-151.197
  0
LINE
  8
0
 10
-251.721
 20
-151.197
 11
-248.576
 21
-155.816
  0
LINE
  8
0
 10
-248.576
 20
-155.816
 11
-248.401
 21
-156.062
  0
LINE
  8
0
 10
-248.401
 20
-156.062
 11
-248.396
 21
-156.064
  0
LINE
  8
0
 10
-248.396
 20
-156.064
 11
-248.899
 21
-157.037
  0
LINE
  8
0
 10
-248.899
 20
-157.037
 11
-248.904
 21
-157.035
  0
LINE
  8
0
 10
-248.904
 20
-157.035
 11
-254.793
 21
-157.137
  0
LINE
  8
0
 10
-254.793
 20
-157.137
 11
-255.347
 21
-158.246
  0
LINE
  8
0
 10
-255.347
 20
-158.246
 11
-252.075
 21
-162.776
  0
LINE
  8
0
 10
-252.075
 20
-162.776
 11
-251.893
 21
-163.017
  0
LINE
  8
0
 10
-251.893
 20
-163.017
 11
-251.888
 21
-163.019
  0
LINE
  8
0
 10
-251.888
 20
-163.019
 11
-252.363
 21
-164.006
  0
LINE
  8
0
 10
-252.363
 20
-164.006
 11
-252.369
 21
-164.003
  0
LINE
  8
0
 10
-252.369
 20
-164.003
 11
-258.253
 21
-164.27
  0
LINE
  8
0
 10
-258.253
 20
-164.27
 11
-258.775
 21
-165.393
  0
LINE
  8
0
 10
-258.775
 20
-165.393
 11
-255.379
 21
-169.831
  0
LINE
  8
0
 10
-255.379
 20
-169.831
 11
-255.19
 21
-170.066
  0
LINE
  8
0
 10
-255.19
 20
-170.066
 11
-255.185
 21
-170.068
  0
LINE
  8
0
 10
-255.185
 20
-170.068
 11
-255.633
 21
-171.068
  0
LINE
  8
0
 10
-255.633
 20
-171.068
 11
-255.639
 21
-171.065
  0
LINE
  8
0
 10
-255.639
 20
-171.065
 11
-261.513
 21
-171.495
  0
LINE
  8
0
 10
-261.513
 20
-171.495
 11
-262.004
 21
-172.633
  0
LINE
  8
0
 10
-262.004
 20
-172.633
 11
-258.486
 21
-176.974
  0
LINE
  8
0
 10
-258.486
 20
-176.974
 11
-258.291
 21
-177.204
  0
LINE
  8
0
 10
-258.291
 20
-177.204
 11
-258.285
 21
-177.207
  0
LINE
  8
0
 10
-258.285
 20
-177.207
 11
-258.705
 21
-178.218
  0
LINE
  8
0
 10
-258.705
 20
-178.218
 11
-258.711
 21
-178.216
  0
LINE
  8
0
 10
-258.711
 20
-178.216
 11
-264.57
 21
-178.809
  0
LINE
  8
0
 10
-264.57
 20
-178.809
 11
-265.03
 21
-179.96
  0
LINE
  8
0
 10
-265.03
 20
-179.96
 11
-261.393
 21
-184.201
  0
LINE
  8
0
 10
-261.393
 20
-184.201
 11
-261.191
 21
-184.426
  0
LINE
  8
0
 10
-261.191
 20
-184.426
 11
-261.185
 21
-184.428
  0
LINE
  8
0
 10
-261.185
 20
-184.428
 11
-261.577
 21
-185.451
  0
LINE
  8
0
 10
-261.577
 20
-185.451
 11
-261.583
 21
-185.449
  0
LINE
  8
0
 10
-261.583
 20
-185.449
 11
-267.424
 21
-186.204
  0
LINE
  8
0
 10
-267.424
 20
-186.204
 11
-267.851
 21
-187.367
  0
LINE
  8
0
 10
-267.851
 20
-187.367
 11
-264.097
 21
-191.507
  0
LINE
  8
0
 10
-264.097
 20
-191.507
 11
-263.89
 21
-191.725
  0
LINE
  8
0
 10
-263.89
 20
-191.725
 11
-263.884
 21
-191.727
  0
LINE
  8
0
 10
-263.884
 20
-191.727
 11
-264.247
 21
-192.761
  0
LINE
  8
0
 10
-264.247
 20
-192.761
 11
-264.253
 21
-192.759
  0
LINE
  8
0
 10
-264.253
 20
-192.759
 11
-270.071
 21
-193.677
  0
LINE
  8
0
 10
-270.071
 20
-193.677
 11
-270.466
 21
-194.851
  0
LINE
  8
0
 10
-270.466
 20
-194.851
 11
-266.598
 21
-198.884
  0
LINE
  8
0
 10
-266.598
 20
-198.884
 11
-266.384
 21
-199.097
  0
LINE
  8
0
 10
-266.384
 20
-199.097
 11
-266.378
 21
-199.099
  0
LINE
  8
0
 10
-266.378
 20
-199.099
 11
-266.713
 21
-200.142
  0
LINE
  8
0
 10
-266.713
 20
-200.142
 11
-266.719
 21
-200.14
  0
LINE
  8
0
 10
-266.719
 20
-200.14
 11
-272.509
 21
-201.219
  0
LINE
  8
0
 10
-272.509
 20
-201.219
 11
-272.871
 21
-202.404
  0
LINE
  8
0
 10
-272.871
 20
-202.404
 11
-268.893
 21
-206.328
  0
LINE
  8
0
 10
-268.893
 20
-206.328
 11
-268.673
 21
-206.535
  0
LINE
  8
0
 10
-268.673
 20
-206.535
 11
-268.667
 21
-206.537
  0
LINE
  8
0
 10
-268.667
 20
-206.537
 11
-268.973
 21
-207.589
  0
LINE
  8
0
 10
-268.973
 20
-207.589
 11
-268.979
 21
-207.587
  0
LINE
  8
0
 10
-268.979
 20
-207.587
 11
-274.736
 21
-208.827
  0
LINE
  8
0
 10
-274.736
 20
-208.827
 11
-275.065
 21
-210.022
  0
LINE
  8
0
 10
-275.065
 20
-210.022
 11
-270.979
 21
-213.834
  0
LINE
  8
0
 10
-270.979
 20
-213.834
 11
-270.754
 21
-214.034
  0
LINE
  8
0
 10
-270.754
 20
-214.034
 11
-270.748
 21
-214.036
  0
LINE
  8
0
 10
-270.748
 20
-214.036
 11
-271.024
 21
-215.096
  0
LINE
  8
0
 10
-271.024
 20
-215.096
 11
-271.03
 21
-215.094
  0
LINE
  8
0
 10
-271.03
 20
-215.094
 11
-276.751
 21
-216.494
  0
LINE
  8
0
 10
-276.751
 20
-216.494
 11
-277.047
 21
-217.697
  0
LINE
  8
0
 10
-277.047
 20
-217.697
 11
-272.857
 21
-221.394
  0
LINE
  8
0
 10
-272.857
 20
-221.394
 11
-272.626
 21
-221.588
  0
LINE
  8
0
 10
-272.626
 20
-221.588
 11
-272.62
 21
-221.59
  0
LINE
  8
0
 10
-272.62
 20
-221.59
 11
-272.866
 21
-222.657
  0
LINE
  8
0
 10
-272.866
 20
-222.657
 11
-272.873
 21
-222.656
  0
LINE
  8
0
 10
-272.873
 20
-222.656
 11
-278.552
 21
-224.213
  0
LINE
  8
0
 10
-278.552
 20
-224.213
 11
-278.814
 21
-225.424
  0
LINE
  8
0
 10
-278.814
 20
-225.424
 11
-274.523
 21
-229.003
  0
LINE
  8
0
 10
-274.523
 20
-229.003
 11
-274.287
 21
-229.191
  0
LINE
  8
0
 10
-274.287
 20
-229.191
 11
-274.281
 21
-229.193
  0
LINE
  8
0
 10
-274.281
 20
-229.193
 11
-274.498
 21
-230.266
  0
LINE
  8
0
 10
-274.498
 20
-230.266
 11
-274.504
 21
-230.265
  0
LINE
  8
0
 10
-274.504
 20
-230.265
 11
-280.138
 21
-231.98
  0
LINE
  8
0
 10
-280.138
 20
-231.98
 11
-280.367
 21
-233.198
  0
LINE
  8
0
 10
-280.367
 20
-233.198
 11
-275.977
 21
-236.656
  0
LINE
  8
0
 10
-275.977
 20
-236.656
 11
-275.736
 21
-236.838
  0
LINE
  8
0
 10
-275.736
 20
-236.838
 11
-275.73
 21
-236.839
  0
LINE
  8
0
 10
-275.73
 20
-236.839
 11
-275.917
 21
-237.918
  0
LINE
  8
0
 10
-275.917
 20
-237.918
 11
-275.923
 21
-237.917
  0
LINE
  8
0
 10
-275.923
 20
-237.917
 11
-281.508
 21
-239.788
  0
LINE
  8
0
 10
-281.508
 20
-239.788
 11
-281.702
 21
-241.012
  0
LINE
  8
0
 10
-281.702
 20
-241.012
 11
-277.218
 21
-244.347
  0
LINE
  8
0
 10
-277.218
 20
-244.347
 11
-276.972
 21
-244.521
  0
LINE
  8
0
 10
-276.972
 20
-244.521
 11
-276.966
 21
-244.522
  0
LINE
  8
0
 10
-276.966
 20
-244.522
 11
-277.123
 21
-245.606
  0
LINE
  8
0
 10
-277.123
 20
-245.606
 11
-277.129
 21
-245.605
  0
LINE
  8
0
 10
-277.129
 20
-245.605
 11
-282.659
 21
-247.631
  0
LINE
  8
0
 10
-282.659
 20
-247.631
 11
-282.82
 21
-248.86
  0
LINE
  8
0
 10
-282.82
 20
-248.86
 11
-278.245
 21
-252.069
  0
LINE
  8
0
 10
-278.245
 20
-252.069
 11
-277.994
 21
-252.236
  0
LINE
  8
0
 10
-277.994
 20
-252.236
 11
-277.988
 21
-252.237
  0
LINE
  8
0
 10
-277.988
 20
-252.237
 11
-278.115
 21
-253.325
  0
LINE
  8
0
 10
-278.115
 20
-253.325
 11
-278.121
 21
-253.324
  0
LINE
  8
0
 10
-278.121
 20
-253.324
 11
-283.593
 21
-255.503
  0
LINE
  8
0
 10
-283.593
 20
-255.503
 11
-283.719
 21
-256.735
  0
LINE
  8
0
 10
-283.719
 20
-256.735
 11
-279.057
 21
-259.816
  0
LINE
  8
0
 10
-279.057
 20
-259.816
 11
-278.801
 21
-259.977
  0
LINE
  8
0
 10
-278.801
 20
-259.977
 11
-278.795
 21
-259.977
  0
LINE
  8
0
 10
-278.795
 20
-259.977
 11
-278.892
 21
-261.068
  0
LINE
  8
0
 10
-278.892
 20
-261.068
 11
-278.898
 21
-261.068
  0
LINE
  8
0
 10
-278.898
 20
-261.068
 11
-284.307
 21
-263.398
  0
LINE
  8
0
 10
-284.307
 20
-263.398
 11
-284.399
 21
-264.633
  0
LINE
  8
0
 10
-284.399
 20
-264.633
 11
-279.653
 21
-267.583
  0
LINE
  8
0
 10
-279.653
 20
-267.583
 11
-279.393
 21
-267.737
  0
LINE
  8
0
 10
-279.393
 20
-267.737
 11
-279.387
 21
-267.737
  0
LINE
  8
0
 10
-279.387
 20
-267.737
 11
-279.453
 21
-268.83
  0
LINE
  8
0
 10
-279.453
 20
-268.83
 11
-279.459
 21
-268.83
  0
LINE
  8
0
 10
-279.459
 20
-268.83
 11
-284.801
 21
-271.309
  0
LINE
  8
0
 10
-284.801
 20
-271.309
 11
-284.859
 21
-272.547
  0
LINE
  8
0
 10
-284.859
 20
-272.547
 11
-280.033
 21
-275.364
  0
LINE
  8
0
 10
-280.033
 20
-275.364
 11
-279.769
 21
-275.51
  0
LINE
  8
0
 10
-279.769
 20
-275.51
 11
-279.762
 21
-275.51
  0
LINE
  8
0
 10
-279.762
 20
-275.51
 11
-279.798
 21
-276.605
  0
LINE
  8
0
 10
-279.798
 20
-276.605
 11
-279.804
 21
-276.605
  0
LINE
  8
0
 10
-279.804
 20
-276.605
 11
-285.076
 21
-279.231
  0
LINE
  8
0
 10
-285.076
 20
-279.231
 11
-285.098
 21
-280.47
  0
LINE
  8
0
 10
-285.098
 20
-280.47
 11
-280.196
 21
-283.152
  0
LINE
  8
0
 10
-280.196
 20
-283.152
 11
-279.928
 21
-283.291
  0
LINE
  8
0
 10
-279.928
 20
-283.291
 11
-279.922
 21
-283.291
  0
LINE
  8
0
 10
-279.922
 20
-283.291
 11
-279.927
 21
-284.386
  0
LINE
  8
0
 10
-279.927
 20
-284.386
 11
-279.933
 21
-284.386
  0
LINE
  8
0
 10
-279.933
 20
-284.386
 11
-285.129
 21
-287.158
  0
LINE
  8
0
 10
-285.129
 20
-287.158
 11
-285.118
 21
-288.397
  0
LINE
  8
0
 10
-285.118
 20
-288.397
 11
-280.143
 21
-290.942
  0
LINE
  8
0
 10
-280.143
 20
-290.942
 11
-279.871
 21
-291.073
  0
LINE
  8
0
 10
-279.871
 20
-291.073
 11
-279.865
 21
-291.073
  0
LINE
  8
0
 10
-279.865
 20
-291.073
 11
-279.84
 21
-292.168
  0
LINE
  8
0
 10
-279.84
 20
-292.168
 11
-279.846
 21
-292.168
  0
LINE
  8
0
 10
-279.846
 20
-292.168
 11
-284.963
 21
-295.084
  0
LINE
  8
0
 10
-284.963
 20
-295.084
 11
-284.917
 21
-296.322
  0
LINE
  8
0
 10
-284.917
 20
-296.322
 11
-279.873
 21
-298.727
  0
LINE
  8
0
 10
-279.873
 20
-298.727
 11
-279.598
 21
-298.85
  0
LINE
  8
0
 10
-279.598
 20
-298.85
 11
-279.592
 21
-298.85
  0
LINE
  8
0
 10
-279.592
 20
-298.85
 11
-279.536
 21
-299.944
  0
LINE
  8
0
 10
-279.536
 20
-299.944
 11
-279.542
 21
-299.944
  0
LINE
  8
0
 10
-279.542
 20
-299.944
 11
-284.576
 21
-303.001
  0
LINE
  8
0
 10
-284.576
 20
-303.001
 11
-284.496
 21
-304.238
  0
LINE
  8
0
 10
-284.496
 20
-304.238
 11
-279.387
 21
-306.501
  0
LINE
  8
0
 10
-279.387
 20
-306.501
 11
-279.109
 21
-306.617
  0
LINE
  8
0
 10
-279.109
 20
-306.617
 11
-279.103
 21
-306.617
  0
LINE
  8
0
 10
-279.103
 20
-306.617
 11
-279.016
 21
-307.709
  0
LINE
  8
0
 10
-279.016
 20
-307.709
 11
-279.023
 21
-307.709
  0
LINE
  8
0
 10
-279.023
 20
-307.709
 11
-283.97
 21
-310.905
  0
LINE
  8
0
 10
-283.97
 20
-310.905
 11
-283.855
 21
-312.139
  0
LINE
  8
0
 10
-283.855
 20
-312.139
 11
-278.685
 21
-314.26
  0
LINE
  8
0
 10
-278.685
 20
-314.26
 11
-278.404
 21
-314.368
  0
LINE
  8
0
 10
-278.404
 20
-314.368
 11
-278.398
 21
-314.367
  0
LINE
  8
0
 10
-278.398
 20
-314.367
 11
-278.281
 21
-315.456
  0
LINE
  8
0
 10
-278.281
 20
-315.456
 11
-278.287
 21
-315.457
  0
LINE
  8
0
 10
-278.287
 20
-315.457
 11
-283.144
 21
-318.789
  0
LINE
  8
0
 10
-283.144
 20
-318.789
 11
-282.995
 21
-320.019
  0
LINE
  8
0
 10
-282.995
 20
-320.019
 11
-277.768
 21
-321.995
  0
LINE
  8
0
 10
-277.768
 20
-321.995
 11
-277.484
 21
-322.096
  0
LINE
  8
0
 10
-277.484
 20
-322.096
 11
-277.477
 21
-322.095
  0
LINE
  8
0
 10
-277.477
 20
-322.095
 11
-277.331
 21
-323.18
  0
LINE
  8
0
 10
-277.331
 20
-323.18
 11
-277.337
 21
-323.181
  0
LINE
  8
0
 10
-277.337
 20
-323.181
 11
-282.099
 21
-326.647
  0
LINE
  8
0
 10
-282.099
 20
-326.647
 11
-281.916
 21
-327.872
  0
LINE
  8
0
 10
-281.916
 20
-327.872
 11
-276.636
 21
-329.703
  0
LINE
  8
0
 10
-276.636
 20
-329.703
 11
-276.349
 21
-329.795
  0
LINE
  8
0
 10
-276.349
 20
-329.795
 11
-276.343
 21
-329.794
  0
LINE
  8
0
 10
-276.343
 20
-329.794
 11
-276.166
 21
-330.875
  0
LINE
  8
0
 10
-276.166
 20
-330.875
 11
-276.172
 21
-330.876
  0
LINE
  8
0
 10
-276.172
 20
-330.876
 11
-280.836
 21
-334.473
  0
LINE
  8
0
 10
-280.836
 20
-334.473
 11
-280.619
 21
-335.692
  0
LINE
  8
0
 10
-280.619
 20
-335.692
 11
-275.29
 21
-337.375
  0
LINE
  8
0
 10
-275.29
 20
-337.375
 11
-275.001
 21
-337.46
  0
LINE
  8
0
 10
-275.001
 20
-337.46
 11
-274.995
 21
-337.458
  0
LINE
  8
0
 10
-274.995
 20
-337.458
 11
-274.788
 21
-338.534
  0
LINE
  8
0
 10
-274.788
 20
-338.534
 11
-274.794
 21
-338.535
  0
LINE
  8
0
 10
-274.794
 20
-338.535
 11
-279.356
 21
-342.26
  0
LINE
  8
0
 10
-279.356
 20
-342.26
 11
-279.105
 21
-343.474
  0
LINE
  8
0
 10
-279.105
 20
-343.474
 11
-273.732
 21
-345.008
  0
LINE
  8
0
 10
-273.732
 20
-345.008
 11
-273.44
 21
-345.084
  0
LINE
  8
0
 10
-273.44
 20
-345.084
 11
-273.434
 21
-345.083
  0
LINE
  8
0
 10
-273.434
 20
-345.083
 11
-273.197
 21
-346.152
  0
LINE
  8
0
 10
-273.197
 20
-346.152
 11
-273.203
 21
-346.153
  0
LINE
  8
0
 10
-273.203
 20
-346.153
 11
-277.66
 21
-350.004
  0
LINE
  8
0
 10
-277.66
 20
-350.004
 11
-277.375
 21
-351.21
  0
LINE
  8
0
 10
-277.375
 20
-351.21
 11
-271.962
 21
-352.594
  0
LINE
  8
0
 10
-271.962
 20
-352.594
 11
-271.668
 21
-352.662
  0
LINE
  8
0
 10
-271.668
 20
-352.662
 11
-271.662
 21
-352.66
  0
LINE
  8
0
 10
-271.662
 20
-352.66
 11
-271.395
 21
-353.723
  0
LINE
  8
0
 10
-271.395
 20
-353.723
 11
-271.401
 21
-353.724
  0
LINE
  8
0
 10
-271.401
 20
-353.724
 11
-275.749
 21
-357.697
  0
LINE
  8
0
 10
-275.749
 20
-357.697
 11
-275.431
 21
-358.895
  0
LINE
  8
0
 10
-275.431
 20
-358.895
 11
-269.981
 21
-360.128
  0
LINE
  8
0
 10
-269.981
 20
-360.128
 11
-269.686
 21
-360.188
  0
LINE
  8
0
 10
-269.686
 20
-360.188
 11
-269.68
 21
-360.186
  0
LINE
  8
0
 10
-269.68
 20
-360.186
 11
-269.384
 21
-361.241
  0
LINE
  8
0
 10
-269.384
 20
-361.241
 11
-269.39
 21
-361.242
  0
LINE
  8
0
 10
-269.39
 20
-361.242
 11
-273.626
 21
-365.334
  0
LINE
  8
0
 10
-273.626
 20
-365.334
 11
-273.275
 21
-366.523
  0
LINE
  8
0
 10
-273.275
 20
-366.523
 11
-267.792
 21
-367.604
  0
LINE
  8
0
 10
-267.792
 20
-367.604
 11
-267.495
 21
-367.655
  0
LINE
  8
0
 10
-267.495
 20
-367.655
 11
-267.489
 21
-367.654
  0
LINE
  8
0
 10
-267.489
 20
-367.654
 11
-267.164
 21
-368.7
  0
LINE
  8
0
 10
-267.164
 20
-368.7
 11
-267.17
 21
-368.701
  0
LINE
  8
0
 10
-267.17
 20
-368.701
 11
-271.291
 21
-372.91
  0
LINE
  8
0
 10
-271.291
 20
-372.91
 11
-270.907
 21
-374.088
  0
LINE
  8
0
 10
-270.907
 20
-374.088
 11
-265.396
 21
-375.016
  0
LINE
  8
0
 10
-265.396
 20
-375.016
 11
-265.098
 21
-375.059
  0
LINE
  8
0
 10
-265.098
 20
-375.059
 11
-265.092
 21
-375.057
  0
LINE
  8
0
 10
-265.092
 20
-375.057
 11
-264.738
 21
-376.094
  0
LINE
  8
0
 10
-264.738
 20
-376.094
 11
-264.744
 21
-376.096
  0
LINE
  8
0
 10
-264.744
 20
-376.096
 11
-268.746
 21
-380.417
  0
LINE
  8
0
 10
-268.746
 20
-380.417
 11
-268.329
 21
-381.584
  0
LINE
  8
0
 10
-268.329
 20
-381.584
 11
-262.795
 21
-382.359
  0
LINE
  8
0
 10
-262.795
 20
-382.359
 11
-262.496
 21
-382.394
  0
LINE
  8
0
 10
-262.496
 20
-382.394
 11
-262.49
 21
-382.392
  0
LINE
  8
0
 10
-262.49
 20
-382.392
 11
-262.107
 21
-383.418
  0
LINE
  8
0
 10
-262.107
 20
-383.418
 11
-262.113
 21
-383.42
  0
LINE
  8
0
 10
-262.113
 20
-383.42
 11
-265.993
 21
-387.851
  0
LINE
  8
0
 10
-265.993
 20
-387.851
 11
-265.544
 21
-389.006
  0
LINE
  8
0
 10
-265.544
 20
-389.006
 11
-259.991
 21
-389.626
  0
LINE
  8
0
 10
-259.991
 20
-389.626
 11
-259.691
 21
-389.653
  0
LINE
  8
0
 10
-259.691
 20
-389.653
 11
-259.685
 21
-389.651
  0
LINE
  8
0
 10
-259.685
 20
-389.651
 11
-259.274
 21
-390.666
  0
LINE
  8
0
 10
-259.274
 20
-390.666
 11
-259.28
 21
-390.668
  0
LINE
  8
0
 10
-259.28
 20
-390.668
 11
-263.035
 21
-395.205
  0
LINE
  8
0
 10
-263.035
 20
-395.205
 11
-262.554
 21
-396.347
  0
LINE
  8
0
 10
-262.554
 20
-396.347
 11
-256.986
 21
-396.813
  0
LINE
  8
0
 10
-256.986
 20
-396.813
 11
-256.685
 21
-396.832
  0
LINE
  8
0
 10
-256.685
 20
-396.832
 11
-256.679
 21
-396.829
  0
LINE
  8
0
 10
-256.679
 20
-396.829
 11
-256.24
 21
-397.833
  0
LINE
  8
0
 10
-256.24
 20
-397.833
 11
-256.246
 21
-397.835
  0
LINE
  8
0
 10
-256.246
 20
-397.835
 11
-259.874
 21
-402.475
  0
LINE
  8
0
 10
-259.874
 20
-402.475
 11
-259.362
 21
-403.603
  0
LINE
  8
0
 10
-259.362
 20
-403.603
 11
-253.782
 21
-403.914
  0
LINE
  8
0
 10
-253.782
 20
-403.914
 11
-253.481
 21
-403.924
  0
LINE
  8
0
 10
-253.481
 20
-403.924
 11
-253.475
 21
-403.921
  0
LINE
  8
0
 10
-253.475
 20
-403.921
 11
-253.008
 21
-404.912
  0
LINE
  8
0
 10
-253.008
 20
-404.912
 11
-253.014
 21
-404.915
  0
LINE
  8
0
 10
-253.014
 20
-404.915
 11
-256.512
 21
-409.653
  0
LINE
  8
0
 10
-256.512
 20
-409.653
 11
-255.968
 21
-410.767
  0
LINE
  8
0
 10
-255.968
 20
-410.767
 11
-250.382
 21
-410.923
  0
LINE
  8
0
 10
-250.382
 20
-410.923
 11
-250.081
 21
-410.924
  0
LINE
  8
0
 10
-250.081
 20
-410.924
 11
-250.075
 21
-410.921
  0
LINE
  8
0
 10
-250.075
 20
-410.921
 11
-249.581
 21
-411.899
  0
LINE
  8
0
 10
-249.581
 20
-411.899
 11
-249.587
 21
-411.902
  0
LINE
  8
0
 10
-249.587
 20
-411.902
 11
-252.951
 21
-416.736
  0
LINE
  8
0
 10
-252.951
 20
-416.736
 11
-252.377
 21
-417.834
  0
LINE
  8
0
 10
-252.377
 20
-417.834
 11
-246.789
 21
-417.834
  0
LINE
  8
0
 10
-246.789
 20
-417.834
 11
-246.487
 21
-417.827
  0
LINE
  8
0
 10
-246.487
 20
-417.827
 11
-246.482
 21
-417.824
  0
LINE
  8
0
 10
-246.482
 20
-417.824
 11
-245.961
 21
-418.788
  0
LINE
  8
0
 10
-245.961
 20
-418.788
 11
-245.966
 21
-418.791
  0
LINE
  8
0
 10
-245.966
 20
-418.791
 11
-249.195
 21
-423.716
  0
LINE
  8
0
 10
-249.195
 20
-423.716
 11
-248.591
 21
-424.798
  0
LINE
  8
0
 10
-248.591
 20
-424.798
 11
-243.005
 21
-424.643
  0
LINE
  8
0
 10
-243.005
 20
-424.643
 11
-242.704
 21
-424.628
  0
LINE
  8
0
 10
-242.704
 20
-424.628
 11
-242.698
 21
-424.625
  0
LINE
  8
0
 10
-242.698
 20
-424.625
 11
-242.15
 21
-425.573
  0
LINE
  8
0
 10
-242.15
 20
-425.573
 11
-242.156
 21
-425.577
  0
LINE
  8
0
 10
-242.156
 20
-425.577
 11
-245.247
 21
-430.59
  0
LINE
  8
0
 10
-245.247
 20
-430.59
 11
-244.612
 21
-431.654
  0
LINE
  8
0
 10
-244.612
 20
-431.654
 11
-239.033
 21
-431.344
  0
LINE
  8
0
 10
-239.033
 20
-431.344
 11
-238.732
 21
-431.321
  0
LINE
  8
0
 10
-238.732
 20
-431.321
 11
-238.727
 21
-431.318
  0
LINE
  8
0
 10
-238.727
 20
-431.318
 11
-238.153
 21
-432.251
  0
LINE
  8
0
 10
-238.153
 20
-432.251
 11
-238.158
 21
-432.254
  0
LINE
  8
0
 10
-238.158
 20
-432.254
 11
-241.108
 21
-437.351
  0
LINE
  8
0
 10
-241.108
 20
-437.351
 11
-240.445
 21
-438.397
  0
LINE
  8
0
 10
-240.445
 20
-438.397
 11
-234.876
 21
-437.932
  0
LINE
  8
0
 10
-234.876
 20
-437.932
 11
-234.576
 21
-437.901
  0
LINE
  8
0
 10
-234.576
 20
-437.901
 11
-234.571
 21
-437.897
  0
LINE
  8
0
 10
-234.571
 20
-437.897
 11
-233.971
 21
-438.814
  0
LINE
  8
0
 10
-233.971
 20
-438.814
 11
-233.977
 21
-438.817
  0
LINE
  8
0
 10
-233.977
 20
-438.817
 11
-236.784
 21
-443.995
  0
LINE
  8
0
 10
-236.784
 20
-443.995
 11
-236.091
 21
-445.022
  0
LINE
  8
0
 10
-236.091
 20
-445.022
 11
-230.538
 21
-444.402
  0
LINE
  8
0
 10
-230.538
 20
-444.402
 11
-230.239
 21
-444.362
  0
LINE
  8
0
 10
-230.239
 20
-444.362
 11
-230.234
 21
-444.359
  0
LINE
  8
0
 10
-230.234
 20
-444.359
 11
-229.609
 21
-445.258
  0
LINE
  8
0
 10
-229.609
 20
-445.258
 11
-229.614
 21
-445.262
  0
LINE
  8
0
 10
-229.614
 20
-445.262
 11
-232.276
 21
-450.515
  0
LINE
  8
0
 10
-232.276
 20
-450.515
 11
-231.556
 21
-451.523
  0
LINE
  8
0
 10
-231.556
 20
-451.523
 11
-226.022
 21
-450.749
  0
LINE
  8
0
 10
-226.022
 20
-450.749
 11
-225.724
 21
-450.701
  0
LINE
  8
0
 10
-225.724
 20
-450.701
 11
-225.719
 21
-450.697
  0
LINE
  8
0
 10
-225.719
 20
-450.697
 11
-225.069
 21
-451.579
  0
LINE
  8
0
 10
-225.069
 20
-451.579
 11
-225.074
 21
-451.583
  0
LINE
  8
0
 10
-225.074
 20
-451.583
 11
-227.589
 21
-456.908
  0
LINE
  8
0
 10
-227.589
 20
-456.908
 11
-226.841
 21
-457.896
  0
LINE
  8
0
 10
-226.841
 20
-457.896
 11
-221.33
 21
-456.968
  0
LINE
  8
0
 10
-221.33
 20
-456.968
 11
-221.034
 21
-456.912
  0
LINE
  8
0
 10
-221.034
 20
-456.912
 11
-221.029
 21
-456.908
  0
LINE
  8
0
 10
-221.029
 20
-456.908
 11
-220.355
 21
-457.771
  0
LINE
  8
0
 10
-220.355
 20
-457.771
 11
-220.36
 21
-457.775
  0
LINE
  8
0
 10
-220.36
 20
-457.775
 11
-222.727
 21
-463.169
  0
LINE
  8
0
 10
-222.727
 20
-463.169
 11
-221.951
 21
-464.135
  0
LINE
  8
0
 10
-221.951
 20
-464.135
 11
-216.468
 21
-463.055
  0
LINE
  8
0
 10
-216.468
 20
-463.055
 11
-216.174
 21
-462.99
  0
LINE
  8
0
 10
-216.174
 20
-462.99
 11
-216.169
 21
-462.986
  0
LINE
  8
0
 10
-216.169
 20
-462.986
 11
-215.471
 21
-463.83
  0
LINE
  8
0
 10
-215.471
 20
-463.83
 11
-215.476
 21
-463.834
  0
LINE
  8
0
 10
-215.476
 20
-463.834
 11
-217.691
 21
-469.291
  0
LINE
  8
0
 10
-217.691
 20
-469.291
 11
-216.889
 21
-470.235
  0
LINE
  8
0
 10
-216.889
 20
-470.235
 11
-211.439
 21
-469.003
  0
LINE
  8
0
 10
-211.439
 20
-469.003
 11
-211.146
 21
-468.93
  0
LINE
  8
0
 10
-211.146
 20
-468.93
 11
-211.141
 21
-468.926
  0
LINE
  8
0
 10
-211.141
 20
-468.926
 11
-210.421
 21
-469.751
  0
LINE
  8
0
 10
-210.421
 20
-469.751
 11
-210.425
 21
-469.755
  0
LINE
  8
0
 10
-210.425
 20
-469.755
 11
-212.488
 21
-475.271
  0
LINE
  8
0
 10
-212.488
 20
-475.271
 11
-211.66
 21
-476.193
  0
LINE
  8
0
 10
-211.66
 20
-476.193
 11
-206.246
 21
-474.81
  0
LINE
  8
0
 10
-206.246
 20
-474.81
 11
-205.955
 21
-474.729
  0
LINE
  8
0
 10
-205.955
 20
-474.729
 11
-205.951
 21
-474.724
  0
LINE
  8
0
 10
-205.951
 20
-474.724
 11
-205.207
 21
-475.529
  0
LINE
  8
0
 10
-205.207
 20
-475.529
 11
-205.212
 21
-475.533
  0
LINE
  8
0
 10
-205.212
 20
-475.533
 11
-207.121
 21
-481.105
  0
LINE
  8
0
 10
-207.121
 20
-481.105
 11
-206.267
 21
-482.003
  0
LINE
  8
0
 10
-206.267
 20
-482.003
 11
-200.894
 21
-480.47
  0
LINE
  8
0
 10
-200.894
 20
-480.47
 11
-200.605
 21
-480.38
  0
LINE
  8
0
 10
-200.605
 20
-480.38
 11
-200.601
 21
-480.376
  0
LINE
  8
0
 10
-200.601
 20
-480.376
 11
-199.835
 21
-481.16
  0
LINE
  8
0
 10
-199.835
 20
-481.16
 11
-199.84
 21
-481.164
  0
LINE
  8
0
 10
-199.84
 20
-481.164
 11
-201.593
 21
-486.787
  0
LINE
  8
0
 10
-201.593
 20
-486.787
 11
-200.715
 21
-487.661
  0
LINE
  8
0
 10
-200.715
 20
-487.661
 11
-195.386
 21
-485.979
  0
LINE
  8
0
 10
-195.386
 20
-485.979
 11
-195.1
 21
-485.882
  0
LINE
  8
0
 10
-195.1
 20
-485.882
 11
-195.096
 21
-485.877
  0
LINE
  8
0
 10
-195.096
 20
-485.877
 11
-194.309
 21
-486.639
  0
LINE
  8
0
 10
-194.309
 20
-486.639
 11
-194.313
 21
-486.643
  0
LINE
  8
0
 10
-194.313
 20
-486.643
 11
-195.91
 21
-492.312
  0
LINE
  8
0
 10
-195.91
 20
-492.312
 11
-195.007
 21
-493.162
  0
LINE
  8
0
 10
-195.007
 20
-493.162
 11
-189.727
 21
-491.332
  0
LINE
  8
0
 10
-189.727
 20
-491.332
 11
-189.445
 21
-491.227
  0
LINE
  8
0
 10
-189.445
 20
-491.227
 11
-189.441
 21
-491.223
  0
LINE
  8
0
 10
-189.441
 20
-491.223
 11
-188.633
 21
-491.962
  0
LINE
  8
0
 10
-188.633
 20
-491.962
 11
-188.637
 21
-491.967
  0
LINE
  8
0
 10
-188.637
 20
-491.967
 11
-190.075
 21
-497.678
  0
LINE
  8
0
 10
-190.075
 20
-497.678
 11
-189.149
 21
-498.502
  0
LINE
  8
0
 10
-189.149
 20
-498.502
 11
-183.922
 21
-496.527
  0
LINE
  8
0
 10
-183.922
 20
-496.527
 11
-183.643
 21
-496.414
  0
LINE
  8
0
 10
-183.643
 20
-496.414
 11
-183.638
 21
-496.409
  0
LINE
  8
0
 10
-183.638
 20
-496.409
 11
-182.81
 21
-497.126
  0
LINE
  8
0
 10
-182.81
 20
-497.126
 11
-182.814
 21
-497.131
  0
LINE
  8
0
 10
-182.814
 20
-497.131
 11
-184.093
 21
-502.88
  0
LINE
  8
0
 10
-184.093
 20
-502.88
 11
-183.145
 21
-503.678
  0
LINE
  8
0
 10
-183.145
 20
-503.678
 11
-177.975
 21
-501.558
  0
LINE
  8
0
 10
-177.975
 20
-501.558
 11
-177.698
 21
-501.437
  0
LINE
  8
0
 10
-177.698
 20
-501.437
 11
-177.694
 21
-501.432
  0
LINE
  8
0
 10
-177.694
 20
-501.432
 11
-176.847
 21
-502.126
  0
LINE
  8
0
 10
-176.847
 20
-502.126
 11
-176.851
 21
-502.131
  0
LINE
  8
0
 10
-176.851
 20
-502.131
 11
-177.969
 21
-507.913
  0
LINE
  8
0
 10
-177.969
 20
-507.913
 11
-176.999
 21
-508.684
  0
LINE
  8
0
 10
-176.999
 20
-508.684
 11
-171.89
 21
-506.422
  0
LINE
  8
0
 10
-171.89
 20
-506.422
 11
-171.617
 21
-506.293
  0
LINE
  8
0
 10
-171.617
 20
-506.293
 11
-171.613
 21
-506.288
  0
LINE
  8
0
 10
-171.613
 20
-506.288
 11
-170.746
 21
-506.958
  0
LINE
  8
0
 10
-170.746
 20
-506.958
 11
-170.75
 21
-506.963
  0
LINE
  8
0
 10
-170.75
 20
-506.963
 11
-171.707
 21
-512.774
  0
LINE
  8
0
 10
-171.707
 20
-512.774
 11
-170.717
 21
-513.518
  0
LINE
  8
0
 10
-170.717
 20
-513.518
 11
-165.672
 21
-511.114
  0
LINE
  8
0
 10
-165.672
 20
-511.114
 11
-165.403
 21
-510.978
  0
LINE
  8
0
 10
-165.403
 20
-510.978
 11
-165.399
 21
-510.973
  0
LINE
  8
0
 10
-165.399
 20
-510.973
 11
-164.514
 21
-511.619
  0
LINE
  8
0
 10
-164.514
 20
-511.619
 11
-164.518
 21
-511.624
  0
LINE
  8
0
 10
-164.518
 20
-511.624
 11
-165.313
 21
-517.46
  0
LINE
  8
0
 10
-165.313
 20
-517.46
 11
-164.302
 21
-518.176
  0
LINE
  8
0
 10
-164.302
 20
-518.176
 11
-159.326
 21
-515.632
  0
LINE
  8
0
 10
-159.326
 20
-515.632
 11
-159.061
 21
-515.489
  0
LINE
  8
0
 10
-159.061
 20
-515.489
 11
-159.057
 21
-515.484
  0
LINE
  8
0
 10
-159.057
 20
-515.484
 11
-158.155
 21
-516.105
  0
LINE
  8
0
 10
-158.155
 20
-516.105
 11
-158.158
 21
-516.11
  0
LINE
  8
0
 10
-158.158
 20
-516.11
 11
-158.791
 21
-521.965
  0
LINE
  8
0
 10
-158.791
 20
-521.965
 11
-157.76
 21
-522.653
  0
LINE
  8
0
 10
-157.76
 20
-522.653
 11
-152.857
 21
-519.972
  0
LINE
  8
0
 10
-152.857
 20
-519.972
 11
-152.596
 21
-519.822
  0
LINE
  8
0
 10
-152.596
 20
-519.822
 11
-152.593
 21
-519.816
  0
LINE
  8
0
 10
-152.593
 20
-519.816
 11
-151.673
 21
-520.412
  0
LINE
  8
0
 10
-151.673
 20
-520.412
 11
-151.677
 21
-520.417
  0
LINE
  8
0
 10
-151.677
 20
-520.417
 11
-152.146
 21
-526.288
  0
LINE
  8
0
 10
-152.146
 20
-526.288
 11
-151.097
 21
-526.947
  0
LINE
  8
0
 10
-151.097
 20
-526.947
 11
-146.27
 21
-524.131
  0
LINE
  8
0
 10
-146.27
 20
-524.131
 11
-146.013
 21
-523.973
  0
LINE
  8
0
 10
-146.013
 20
-523.973
 11
-146.01
 21
-523.968
  0
LINE
  8
0
 10
-146.01
 20
-523.968
 11
-145.074
 21
-524.537
  0
LINE
  8
0
 10
-145.074
 20
-524.537
 11
-145.078
 21
-524.542
  0
LINE
  8
0
 10
-145.078
 20
-524.542
 11
-145.384
 21
-530.424
  0
LINE
  8
0
 10
-145.384
 20
-530.424
 11
-144.317
 21
-531.053
  0
LINE
  8
0
 10
-144.317
 20
-531.053
 11
-139.57
 21
-528.104
  0
LINE
  8
0
 10
-139.57
 20
-528.104
 11
-139.318
 21
-527.939
  0
LINE
  8
0
 10
-139.318
 20
-527.939
 11
-139.315
 21
-527.934
  0
LINE
  8
0
 10
-139.315
 20
-527.934
 11
-138.363
 21
-528.477
  0
LINE
  8
0
 10
-138.363
 20
-528.477
 11
-138.366
 21
-528.483
  0
LINE
  8
0
 10
-138.366
 20
-528.483
 11
-138.509
 21
-534.37
  0
LINE
  8
0
 10
-138.509
 20
-534.37
 11
-137.425
 21
-534.97
  0
LINE
  8
0
 10
-137.425
 20
-534.97
 11
-132.762
 21
-531.89
  0
LINE
  8
0
 10
-132.762
 20
-531.89
 11
-132.514
 21
-531.718
  0
LINE
  8
0
 10
-132.514
 20
-531.718
 11
-132.511
 21
-531.713
  0
LINE
  8
0
 10
-132.511
 20
-531.713
 11
-131.545
 21
-532.23
  0
LINE
  8
0
 10
-131.545
 20
-532.23
 11
-131.548
 21
-532.235
  0
LINE
  8
0
 10
-131.548
 20
-532.235
 11
-131.527
 21
-538.125
  0
LINE
  8
0
 10
-131.527
 20
-538.125
 11
-130.427
 21
-538.694
  0
LINE
  8
0
 10
-130.427
 20
-538.694
 11
-125.852
 21
-535.485
  0
LINE
  8
0
 10
-125.852
 20
-535.485
 11
-125.609
 21
-535.307
  0
LINE
  8
0
 10
-125.609
 20
-535.307
 11
-125.606
 21
-535.301
  0
LINE
  8
0
 10
-125.606
 20
-535.301
 11
-124.626
 21
-535.791
  0
LINE
  8
0
 10
-124.626
 20
-535.791
 11
-124.629
 21
-535.796
  0
LINE
  8
0
 10
-124.629
 20
-535.796
 11
-124.444
 21
-541.683
  0
LINE
  8
0
 10
-124.444
 20
-541.683
 11
-123.328
 21
-542.221
  0
LINE
  8
0
 10
-123.328
 20
-542.221
 11
-118.844
 21
-538.887
  0
LINE
  8
0
 10
-118.844
 20
-538.887
 11
-118.606
 21
-538.702
  0
LINE
  8
0
 10
-118.606
 20
-538.702
 11
-118.603
 21
-538.696
  0
LINE
  8
0
 10
-118.603
 20
-538.696
 11
-117.61
 21
-539.158
  0
LINE
  8
0
 10
-117.61
 20
-539.158
 11
-117.613
 21
-539.164
  0
LINE
  8
0
 10
-117.613
 20
-539.164
 11
-117.264
 21
-545.043
  0
LINE
  8
0
 10
-117.264
 20
-545.043
 11
-116.134
 21
-545.55
  0
LINE
  8
0
 10
-116.134
 20
-545.55
 11
-111.744
 21
-542.093
  0
LINE
  8
0
 10
-111.744
 20
-542.093
 11
-111.511
 21
-541.901
  0
LINE
  8
0
 10
-111.511
 20
-541.901
 11
-111.509
 21
-541.895
  0
LINE
  8
0
 10
-111.509
 20
-541.895
 11
-110.503
 21
-542.329
  0
LINE
  8
0
 10
-110.503
 20
-542.329
 11
-110.506
 21
-542.335
  0
LINE
  8
0
 10
-110.506
 20
-542.335
 11
-109.994
 21
-548.202
  0
LINE
  8
0
 10
-109.994
 20
-548.202
 11
-108.85
 21
-548.678
  0
LINE
  8
0
 10
-108.85
 20
-548.678
 11
-104.558
 21
-545.1
  0
LINE
  8
0
 10
-104.558
 20
-545.1
 11
-104.331
 21
-544.901
  0
LINE
  8
0
 10
-104.331
 20
-544.901
 11
-104.328
 21
-544.896
  0
LINE
  8
0
 10
-104.328
 20
-544.896
 11
-103.311
 21
-545.302
  0
LINE
  8
0
 10
-103.311
 20
-545.302
 11
-103.313
 21
-545.308
  0
LINE
  8
0
 10
-103.313
 20
-545.308
 11
-102.639
 21
-551.158
  0
LINE
  8
0
 10
-102.639
 20
-551.158
 11
-101.482
 21
-551.602
  0
LINE
  8
0
 10
-101.482
 20
-551.602
 11
-97.2909
 21
-547.906
  0
LINE
  8
0
 10
-97.2909
 20
-547.906
 11
-97.0692
 21
-547.701
  0
LINE
  8
0
 10
-97.0692
 20
-547.701
 11
-97.067
 21
-547.695
  0
LINE
  8
0
 10
-97.067
 20
-547.695
 11
-96.0389
 21
-548.073
  0
LINE
  8
0
 10
-96.0389
 20
-548.073
 11
-96.041
 21
-548.079
  0
LINE
  8
0
 10
-96.041
 20
-548.079
 11
-95.2041
 21
-553.909
  0
LINE
  8
0
 10
-95.2041
 20
-553.909
 11
-94.0353
 21
-554.32
  0
LINE
  8
0
 10
-94.0353
 20
-554.32
 11
-89.9488
 21
-550.509
  0
LINE
  8
0
 10
-89.9488
 20
-550.509
 11
-89.7328
 21
-550.298
  0
LINE
  8
0
 10
-89.7328
 20
-550.298
 11
-89.7309
 21
-550.292
  0
LINE
  8
0
 10
-89.7309
 20
-550.292
 11
-88.6926
 21
-550.641
  0
LINE
  8
0
 10
-88.6926
 20
-550.641
 11
-88.6945
 21
-550.647
  0
LINE
  8
0
 10
-88.6945
 20
-550.647
 11
-87.6959
 21
-556.451
  0
LINE
  8
0
 10
-87.6959
 20
-556.451
 11
-86.5161
 21
-556.83
  0
LINE
  8
0
 10
-86.5161
 20
-556.83
 11
-82.5371
 21
-552.907
  0
LINE
  8
0
 10
-82.5371
 20
-552.907
 11
-82.3271
 21
-552.69
  0
LINE
  8
0
 10
-82.3271
 20
-552.69
 11
-82.3253
 21
-552.684
  0
LINE
  8
0
 10
-82.3253
 20
-552.684
 11
-81.2777
 21
-553.004
  0
LINE
  8
0
 10
-81.2777
 20
-553.004
 11
-81.2795
 21
-553.01
  0
LINE
  8
0
 10
-81.2795
 20
-553.01
 11
-80.1199
 21
-558.784
  0
LINE
  8
0
 10
-80.1199
 20
-558.784
 11
-78.9301
 21
-559.13
  0
LINE
  8
0
 10
-78.9301
 20
-559.13
 11
-75.0617
 21
-555.097
  0
LINE
  8
0
 10
-75.0617
 20
-555.097
 11
-74.8578
 21
-554.875
  0
LINE
  8
0
 10
-74.8578
 20
-554.875
 11
-74.8562
 21
-554.869
  0
LINE
  8
0
 10
-74.8562
 20
-554.869
 11
-73.8001
 21
-555.16
  0
LINE
  8
0
 10
-73.8001
 20
-555.16
 11
-73.8017
 21
-555.166
  0
LINE
  8
0
 10
-73.8017
 20
-555.166
 11
-72.4821
 21
-560.906
  0
LINE
  8
0
 10
-72.4821
 20
-560.906
 11
-71.2831
 21
-561.218
  0
LINE
  8
0
 10
-71.2831
 20
-561.218
 11
-67.5282
 21
-557.08
  0
LINE
  8
0
 10
-67.5282
 20
-557.08
 11
-67.3306
 21
-556.852
  0
LINE
  8
0
 10
-67.3306
 20
-556.852
 11
-67.3291
 21
-556.846
  0
LINE
  8
0
 10
-67.3291
 20
-556.846
 11
-66.2654
 21
-557.107
  0
LINE
  8
0
 10
-66.2654
 20
-557.107
 11
-66.2668
 21
-557.113
  0
LINE
  8
0
 10
-66.2668
 20
-557.113
 11
-64.7882
 21
-562.814
  0
LINE
  8
0
 10
-64.7882
 20
-562.814
 11
-63.5809
 21
-563.093
  0
LINE
  8
0
 10
-63.5809
 20
-563.093
 11
-59.9426
 21
-558.852
  0
LINE
  8
0
 10
-59.9426
 20
-558.852
 11
-59.7514
 21
-558.618
  0
LINE
  8
0
 10
-59.7514
 20
-558.618
 11
-59.7501
 21
-558.612
  0
LINE
  8
0
 10
-59.7501
 20
-558.612
 11
-58.6795
 21
-558.844
  0
LINE
  8
0
 10
-58.6795
 20
-558.844
 11
-58.6808
 21
-558.85
  0
LINE
  8
0
 10
-58.6808
 20
-558.85
 11
-57.0442
 21
-564.508
  0
LINE
  8
0
 10
-57.0442
 20
-564.508
 11
-55.8297
 21
-564.753
  0
LINE
  8
0
 10
-55.8297
 20
-564.753
 11
-52.3107
 21
-560.412
  0
LINE
  8
0
 10
-52.3107
 20
-560.412
 11
-52.126
 21
-560.174
  0
LINE
  8
0
 10
-52.126
 20
-560.174
 11
-52.1248
 21
-560.168
  0
LINE
  8
0
 10
-52.1248
 20
-560.168
 11
-51.0482
 21
-560.369
  0
LINE
  8
0
 10
-51.0482
 20
-560.369
 11
-51.0493
 21
-560.376
  0
LINE
  8
0
 10
-51.0493
 20
-560.376
 11
-49.2561
 21
-565.985
  0
LINE
  8
0
 10
-49.2561
 20
-565.985
 11
-48.0352
 21
-566.197
  0
LINE
  8
0
 10
-48.0352
 20
-566.197
 11
-44.6382
 21
-561.76
  0
LINE
  8
0
 10
-44.6382
 20
-561.76
 11
-44.4603
 21
-561.516
  0
LINE
  8
0
 10
-44.4603
 20
-561.516
 11
-44.4593
 21
-561.51
  0
LINE
  8
0
 10
-44.4593
 20
-561.51
 11
-43.3775
 21
-561.682
  0
LINE
  8
0
 10
-43.3775
 20
-561.682
 11
-43.3785
 21
-561.688
  0
LINE
  8
0
 10
-43.3785
 20
-561.688
 11
-41.43
 21
-567.246
  0
LINE
  8
0
 10
-41.43
 20
-567.246
 11
-40.2037
 21
-567.424
  0
LINE
  8
0
 10
-40.2037
 20
-567.424
 11
-36.9314
 21
-562.894
  0
LINE
  8
0
 10
-36.9314
 20
-562.894
 11
-36.7603
 21
-562.646
  0
LINE
  8
0
 10
-36.7603
 20
-562.646
 11
-36.7594
 21
-562.639
  0
LINE
  8
0
 10
-36.7594
 20
-562.639
 11
-35.6732
 21
-562.781
  0
LINE
  8
0
 10
-35.6732
 20
-562.781
 11
-35.674
 21
-562.787
  0
LINE
  8
0
 10
-35.674
 20
-562.787
 11
-33.5718
 21
-568.289
  0
LINE
  8
0
 10
-33.5718
 20
-568.289
 11
-32.3411
 21
-568.432
  0
LINE
  8
0
 10
-32.3411
 20
-568.432
 11
-29.1959
 21
-563.813
  0
LINE
  8
0
 10
-29.1959
 20
-563.813
 11
-29.0318
 21
-563.56
  0
LINE
  8
0
 10
-29.0318
 20
-563.56
 11
-29.0311
 21
-563.554
  0
LINE
  8
0
 10
-29.0311
 20
-563.554
 11
-27.9414
 21
-563.665
  0
LINE
  8
0
 10
-27.9414
 20
-563.665
 11
-27.9421
 21
-563.672
  0
LINE
  8
0
 10
-27.9421
 20
-563.672
 11
-25.6877
 21
-569.113
  0
LINE
  8
0
 10
-25.6877
 20
-569.113
 11
-24.4535
 21
-569.222
  0
LINE
  8
0
 10
-24.4535
 20
-569.222
 11
-21.4379
 21
-564.517
  0
LINE
  8
0
 10
-21.4379
 20
-564.517
 11
-21.2809
 21
-564.26
  0
LINE
  8
0
 10
-21.2809
 20
-564.26
 11
-21.2804
 21
-564.253
  0
LINE
  8
0
 10
-21.2804
 20
-564.253
 11
-20.188
 21
-564.335
  0
LINE
  8
0
 10
-20.188
 20
-564.335
 11
-20.1885
 21
-564.341
  0
LINE
  8
0
 10
-20.1885
 20
-564.341
 11
-17.7837
 21
-569.717
  0
LINE
  8
0
 10
-17.7837
 20
-569.717
 11
-16.547
 21
-569.792
  0
LINE
  8
0
 10
-16.547
 20
-569.792
 11
-13.6633
 21
-565.005
  0
LINE
  8
0
 10
-13.6633
 20
-565.005
 11
-13.5135
 21
-564.743
  0
LINE
  8
0
 10
-13.5135
 20
-564.743
 11
-13.5132
 21
-564.737
  0
LINE
  8
0
 10
-13.5132
 20
-564.737
 11
-12.419
 21
-564.788
  0
LINE
  8
0
 10
-12.419
 20
-564.788
 11
-12.4193
 21
-564.794
  0
LINE
  8
0
 10
-12.4193
 20
-564.794
 11
-9.86604
 21
-570.101
  0
LINE
  8
0
 10
-9.86604
 20
-570.101
 11
-8.62764
 21
-570.141
  0
LINE
  8
0
 10
-8.62764
 20
-570.141
 11
-5.8782
 21
-565.277
  0
LINE
  8
0
 10
-5.8782
 20
-565.277
 11
-5.73572
 21
-565.011
  0
LINE
  8
0
 10
-5.73572
 20
-565.011
 11
-5.7356
 21
-565.005
  0
LINE
  8
0
 10
-5.7356
 20
-565.005
 11
-4.6404
 21
-565.025
  0
LINE
  8
0
 10
-4.6404
 20
-565.025
 11
-4.6405
 21
-565.031
  0
LINE
  8
0
 10
-4.6405
 20
-565.031
 11
-1.9407
 21
-570.265
  0
LINE
  8
0
 10
-1.9407
 20
-570.265
 11
-0.701675
 21
-570.271
  0
LINE
  8
0
 10
-0.701675
 20
-570.271
 11
1.91145
 21
-565.332
  0
LINE
  8
0
 10
5.90666
 20
-39.9701
 11
5.46249
 21
-39.698
  0
LINE
  8
0
 10
5.46249
 20
-39.698
 11
5.1382
 21
-39.2903
  0
LINE
  8
0
 10
5.1382
 20
-39.2903
 11
4.9729
 21
-38.7962
  0
LINE
  8
0
 10
4.9729
 20
-38.7962
 11
4.98653
 21
-38.2755
  0
LINE
  8
0
 10
4.98653
 20
-38.2755
 11
5.17746
 21
-37.7908
  0
LINE
  8
0
 10
5.17746
 20
-37.7908
 11
5.52264
 21
-37.4006
  0
LINE
  8
0
 10
5.52264
 20
-37.4006
 11
5.98045
 21
-37.152
  0
LINE
  8
0
 10
5.98045
 20
-37.152
 11
6.49568
 21
-37.075
  0
LINE
  8
0
 10
6.49568
 20
-37.075
 11
7.00616
 21
-37.1789
  0
LINE
  8
0
 10
7.00616
 20
-37.1789
 11
7.45035
 21
-37.4511
  0
LINE
  8
0
 10
7.45035
 20
-37.4511
 11
7.77464
 21
-37.8588
  0
LINE
  8
0
 10
7.77464
 20
-37.8588
 11
7.93994
 21
-38.3528
  0
LINE
  8
0
 10
7.93994
 20
-38.3528
 11
7.9263
 21
-38.8736
  0
LINE
  8
0
 10
7.9263
 20
-38.8736
 11
7.73538
 21
-39.3583
  0
LINE
  8
0
 10
7.73538
 20
-39.3583
 11
7.39018
 21
-39.7484
  0
LINE
  8
0
 10
7.39018
 20
-39.7484
 11
6.93237
 21
-39.997
  0
LINE
  8
0
 10
6.93237
 20
-39.997
 11
6.41716
 21
-40.074
  0
LINE
  8
0
 10
6.41716
 20
-40.074
 11
5.90666
 21
-39.9701
  0
LINE
  8
0
 10
-32.5183
 20
-42.0645
 11
-32.9996
 21
-41.8652
  0
LINE
  8
0
 10
-32.9996
 20
-41.8652
 11
-33.3837
 21
-41.5132
  0
LINE
  8
0
 10
-33.3837
 20
-41.5132
 11
-33.6243
 21
-41.0511
  0
LINE
  8
0
 10
-33.6243
 20
-41.0511
 11
-33.6923
 21
-40.5347
  0
LINE
  8
0
 10
-33.6923
 20
-40.5347
 11
-33.5795
 21
-40.0261
  0
LINE
  8
0
 10
-33.5795
 20
-40.0261
 11
-33.2996
 21
-39.5867
  0
LINE
  8
0
 10
-33.2996
 20
-39.5867
 11
-32.8863
 21
-39.2696
  0
LINE
  8
0
 10
-32.8863
 20
-39.2696
 11
-32.3895
 21
-39.1129
  0
LINE
  8
0
 10
-32.3895
 20
-39.1129
 11
-31.869
 21
-39.1356
  0
LINE
  8
0
 10
-31.869
 20
-39.1356
 11
-31.3877
 21
-39.335
  0
LINE
  8
0
 10
-31.3877
 20
-39.335
 11
-31.0036
 21
-39.6869
  0
LINE
  8
0
 10
-31.0036
 20
-39.6869
 11
-30.7631
 21
-40.149
  0
LINE
  8
0
 10
-30.7631
 20
-40.149
 11
-30.6951
 21
-40.6655
  0
LINE
  8
0
 10
-30.6951
 20
-40.6655
 11
-30.8079
 21
-41.1741
  0
LINE
  8
0
 10
-30.8079
 20
-41.1741
 11
-31.0878
 21
-41.6135
  0
LINE
  8
0
 10
-31.0878
 20
-41.6135
 11
-31.5011
 21
-41.9306
  0
LINE
  8
0
 10
-31.5011
 20
-41.9306
 11
-31.9979
 21
-42.0872
  0
LINE
  8
0
 10
-31.9979
 20
-42.0872
 11
-32.5183
 21
-42.0645
  0
LINE
  8
0
 10
44.6742
 20
-44.095
 11
44.1862
 21
-43.9125
  0
LINE
  8
0
 10
44.1862
 20
-43.9125
 11
43.7901
 21
-43.5742
  0
LINE
  8
0
 10
43.7901
 20
-43.5742
 11
43.5336
 21
-43.1208
  0
LINE
  8
0
 10
43.5336
 20
-43.1208
 11
43.4476
 21
-42.607
  0
LINE
  8
0
 10
43.4476
 20
-42.607
 11
43.5425
 21
-42.0948
  0
LINE
  8
0
 10
43.5425
 20
-42.0948
 11
43.8069
 21
-41.6459
  0
LINE
  8
0
 10
43.8069
 20
-41.6459
 11
44.2089
 21
-41.3146
  0
LINE
  8
0
 10
44.2089
 20
-41.3146
 11
44.7
 21
-41.1407
  0
LINE
  8
0
 10
44.7
 20
-41.1407
 11
45.2209
 21
-41.1452
  0
LINE
  8
0
 10
45.2209
 20
-41.1452
 11
45.7089
 21
-41.3277
  0
LINE
  8
0
 10
45.7089
 20
-41.3277
 11
46.105
 21
-41.666
  0
LINE
  8
0
 10
46.105
 20
-41.666
 11
46.3615
 21
-42.1194
  0
LINE
  8
0
 10
46.3615
 20
-42.1194
 11
46.4475
 21
-42.6332
  0
LINE
  8
0
 10
46.4475
 20
-42.6332
 11
46.3526
 21
-43.1454
  0
LINE
  8
0
 10
46.3526
 20
-43.1454
 11
46.0882
 21
-43.5943
  0
LINE
  8
0
 10
46.0882
 20
-43.5943
 11
45.6862
 21
-43.9256
  0
LINE
  8
0
 10
45.6862
 20
-43.9256
 11
45.1951
 21
-44.0995
  0
LINE
  8
0
 10
45.1951
 20
-44.0995
 11
44.6742
 21
-44.095
  0
LINE
  8
0
 10
-70.6492
 20
-50.0225
 11
-71.0836
 21
-49.735
  0
LINE
  8
0
 10
-71.0836
 20
-49.735
 11
-71.3935
 21
-49.3162
  0
LINE
  8
0
 10
-71.3935
 20
-49.3162
 11
-71.5414
 21
-48.8167
  0
LINE
  8
0
 10
-71.5414
 20
-48.8167
 11
-71.5096
 21
-48.2968
  0
LINE
  8
0
 10
-71.5096
 20
-48.2968
 11
-71.3019
 21
-47.819
  0
LINE
  8
0
 10
-71.3019
 20
-47.819
 11
-70.9433
 21
-47.4411
  0
LINE
  8
0
 10
-70.9433
 20
-47.4411
 11
-70.4771
 21
-47.2087
  0
LINE
  8
0
 10
-70.4771
 20
-47.2087
 11
-69.9595
 21
-47.1497
  0
LINE
  8
0
 10
-69.9595
 20
-47.1497
 11
-69.453
 21
-47.2713
  0
LINE
  8
0
 10
-69.453
 20
-47.2713
 11
-69.0186
 21
-47.5589
  0
LINE
  8
0
 10
-69.0186
 20
-47.5589
 11
-68.7087
 21
-47.9776
  0
LINE
  8
0
 10
-68.7087
 20
-47.9776
 11
-68.5607
 21
-48.4771
  0
LINE
  8
0
 10
-68.5607
 20
-48.4771
 11
-68.5925
 21
-48.9971
  0
LINE
  8
0
 10
-68.5925
 20
-48.9971
 11
-68.8003
 21
-49.4748
  0
LINE
  8
0
 10
-68.8003
 20
-49.4748
 11
-69.1589
 21
-49.8527
  0
LINE
  8
0
 10
-69.1589
 20
-49.8527
 11
-69.6251
 21
-50.0851
  0
LINE
  8
0
 10
-69.6251
 20
-50.0851
 11
-70.1427
 21
-50.1441
  0
LINE
  8
0
 10
-70.1427
 20
-50.1441
 11
-70.6492
 21
-50.0225
  0
LINE
  8
0
 10
-2.47563
 20
-521.533
 11
-4.951
 21
-521.494
  0
LINE
  8
0
 10
-4.951
 20
-521.494
 11
-7.42583
 21
-521.429
  0
LINE
  8
0
 10
-7.42583
 20
-521.429
 11
-9.89984
 21
-521.339
  0
LINE
  8
0
 10
-9.89984
 20
-521.339
 11
-12.3728
 21
-521.222
  0
LINE
  8
0
 10
-12.3728
 20
-521.222
 11
-14.8443
 21
-521.079
  0
LINE
  8
0
 10
-14.8443
 20
-521.079
 11
-17.3143
 21
-520.911
  0
LINE
  8
0
 10
-17.3143
 20
-520.911
 11
-19.7823
 21
-520.717
  0
LINE
  8
0
 10
-19.7823
 20
-520.717
 11
-22.2482
 21
-520.497
  0
LINE
  8
0
 10
-22.2482
 20
-520.497
 11
-24.7116
 21
-520.251
  0
LINE
  8
0
 10
-24.7116
 20
-520.251
 11
-27.1723
 21
-519.979
  0
LINE
  8
0
 10
-27.1723
 20
-519.979
 11
-29.6301
 21
-519.682
  0
LINE
  8
0
 10
-29.6301
 20
-519.682
 11
-32.0846
 21
-519.359
  0
LINE
  8
0
 10
-32.0846
 20
-519.359
 11
-34.5356
 21
-519.01
  0
LINE
  8
0
 10
-34.5356
 20
-519.01
 11
-36.9827
 21
-518.635
  0
LINE
  8
0
 10
-36.9827
 20
-518.635
 11
-39.4259
 21
-518.235
  0
LINE
  8
0
 10
-39.4259
 20
-518.235
 11
-41.8647
 21
-517.81
  0
LINE
  8
0
 10
-41.8647
 20
-517.81
 11
-44.2989
 21
-517.358
  0
LINE
  8
0
 10
-44.2989
 20
-517.358
 11
-46.7283
 21
-516.882
  0
LINE
  8
0
 10
-46.7283
 20
-516.882
 11
-49.1525
 21
-516.38
  0
LINE
  8
0
 10
-49.1525
 20
-516.38
 11
-51.5713
 21
-515.852
  0
LINE
  8
0
 10
-51.5713
 20
-515.852
 11
-53.9845
 21
-515.3
  0
LINE
  8
0
 10
-53.9845
 20
-515.3
 11
-56.3918
 21
-514.722
  0
LINE
  8
0
 10
-56.3918
 20
-514.722
 11
-58.7929
 21
-514.119
  0
LINE
  8
0
 10
-58.7929
 20
-514.119
 11
-61.1875
 21
-513.49
  0
LINE
  8
0
 10
-61.1875
 20
-513.49
 11
-63.5755
 21
-512.837
  0
LINE
  8
0
 10
-63.5755
 20
-512.837
 11
-65.9564
 21
-512.159
  0
LINE
  8
0
 10
-65.9564
 20
-512.159
 11
-68.3301
 21
-511.456
  0
LINE
  8
0
 10
-68.3301
 20
-511.456
 11
-70.6964
 21
-510.728
  0
LINE
  8
0
 10
-70.6964
 20
-510.728
 11
-73.0548
 21
-509.975
  0
LINE
  8
0
 10
-73.0548
 20
-509.975
 11
-75.4053
 21
-509.198
  0
LINE
  8
0
 10
-75.4053
 20
-509.198
 11
-77.7475
 21
-508.396
  0
LINE
  8
0
 10
-77.7475
 20
-508.396
 11
-80.0812
 21
-507.569
  0
LINE
  8
0
 10
-80.0812
 20
-507.569
 11
-82.4061
 21
-506.719
  0
LINE
  8
0
 10
-82.4061
 20
-506.719
 11
-84.7219
 21
-505.844
  0
LINE
  8
0
 10
-84.7219
 20
-505.844
 11
-87.0285
 21
-504.944
  0
LINE
  8
0
 10
-87.0285
 20
-504.944
 11
-89.3255
 21
-504.021
  0
LINE
  8
0
 10
-89.3255
 20
-504.021
 11
-91.6127
 21
-503.074
  0
LINE
  8
0
 10
-91.6127
 20
-503.074
 11
-93.8899
 21
-502.102
  0
LINE
  8
0
 10
-93.8899
 20
-502.102
 11
-96.1568
 21
-501.107
  0
LINE
  8
0
 10
-96.1568
 20
-501.107
 11
-98.4131
 21
-500.088
  0
LINE
  8
0
 10
-98.4131
 20
-500.088
 11
-100.659
 21
-499.046
  0
LINE
  8
0
 10
-100.659
 20
-499.046
 11
-102.893
 21
-497.98
  0
LINE
  8
0
 10
-102.893
 20
-497.98
 11
-105.116
 21
-496.891
  0
LINE
  8
0
 10
-105.116
 20
-496.891
 11
-107.328
 21
-495.779
  0
LINE
  8
0
 10
-107.328
 20
-495.779
 11
-109.528
 21
-494.643
  0
LINE
  8
0
 10
-109.528
 20
-494.643
 11
-111.716
 21
-493.485
  0
LINE
  8
0
 10
-111.716
 20
-493.485
 11
-113.892
 21
-492.303
  0
LINE
  8
0
 10
-113.892
 20
-492.303
 11
-116.055
 21
-491.099
  0
LINE
  8
0
 10
-116.055
 20
-491.099
 11
-118.205
 21
-489.873
  0
LINE
  8
0
 10
-118.205
 20
-489.873
 11
-120.343
 21
-488.624
  0
LINE
  8
0
 10
-120.343
 20
-488.624
 11
-122.467
 21
-487.352
  0
LINE
  8
0
 10
-122.467
 20
-487.352
 11
-124.578
 21
-486.059
  0
LINE
  8
0
 10
-124.578
 20
-486.059
 11
-126.675
 21
-484.743
  0
LINE
  8
0
 10
-126.675
 20
-484.743
 11
-128.758
 21
-483.406
  0
LINE
  8
0
 10
-128.758
 20
-483.406
 11
-130.828
 21
-482.047
  0
LINE
  8
0
 10
-130.828
 20
-482.047
 11
-132.882
 21
-480.666
  0
LINE
  8
0
 10
-132.882
 20
-480.666
 11
-134.923
 21
-479.264
  0
LINE
  8
0
 10
-134.923
 20
-479.264
 11
-136.948
 21
-477.84
  0
LINE
  8
0
 10
-136.948
 20
-477.84
 11
-138.959
 21
-476.396
  0
LINE
  8
0
 10
-138.959
 20
-476.396
 11
-140.954
 21
-474.93
  0
LINE
  8
0
 10
-140.954
 20
-474.93
 11
-142.934
 21
-473.443
  0
LINE
  8
0
 10
-142.934
 20
-473.443
 11
-144.898
 21
-471.936
  0
LINE
  8
0
 10
-144.898
 20
-471.936
 11
-146.846
 21
-470.409
  0
LINE
  8
0
 10
-146.846
 20
-470.409
 11
-148.778
 21
-468.861
  0
LINE
  8
0
 10
-148.778
 20
-468.861
 11
-150.694
 21
-467.293
  0
LINE
  8
0
 10
-150.694
 20
-467.293
 11
-152.593
 21
-465.705
  0
LINE
  8
0
 10
-152.593
 20
-465.705
 11
-154.475
 21
-464.097
  0
LINE
  8
0
 10
-154.475
 20
-464.097
 11
-156.341
 21
-462.47
  0
LINE
  8
0
 10
-156.341
 20
-462.47
 11
-158.189
 21
-460.823
  0
LINE
  8
0
 10
-158.189
 20
-460.823
 11
-160.021
 21
-459.156
  0
LINE
  8
0
 10
-160.021
 20
-459.156
 11
-161.834
 21
-457.471
  0
LINE
  8
0
 10
-161.834
 20
-457.471
 11
-163.63
 21
-455.767
  0
LINE
  8
0
 10
-163.63
 20
-455.767
 11
-165.408
 21
-454.044
  0
LINE
  8
0
 10
-165.408
 20
-454.044
 11
-167.167
 21
-452.303
  0
LINE
  8
0
 10
-167.167
 20
-452.303
 11
-168.909
 21
-450.543
  0
LINE
  8
0
 10
-168.909
 20
-450.543
 11
-170.632
 21
-448.765
  0
LINE
  8
0
 10
-170.632
 20
-448.765
 11
-172.336
 21
-446.97
  0
LINE
  8
0
 10
-172.336
 20
-446.97
 11
-174.021
 21
-445.156
  0
LINE
  8
0
 10
-174.021
 20
-445.156
 11
-175.687
 21
-443.325
  0
LINE
  8
0
 10
-175.687
 20
-443.325
 11
-177.334
 21
-441.476
  0
LINE
  8
0
 10
-177.334
 20
-441.476
 11
-178.962
 21
-439.611
  0
LINE
  8
0
 10
-178.962
 20
-439.611
 11
-180.569
 21
-437.728
  0
LINE
  8
0
 10
-180.569
 20
-437.728
 11
-182.157
 21
-435.829
  0
LINE
  8
0
 10
-182.157
 20
-435.829
 11
-183.725
 21
-433.913
  0
LINE
  8
0
 10
-183.725
 20
-433.913
 11
-185.273
 21
-431.981
  0
LINE
  8
0
 10
-185.273
 20
-431.981
 11
-186.801
 21
-430.033
  0
LINE
  8
0
 10
-186.801
 20
-430.033
 11
-188.308
 21
-428.069
  0
LINE
  8
0
 10
-188.308
 20
-428.069
 11
-189.794
 21
-426.089
  0
LINE
  8
0
 10
-189.794
 20
-426.089
 11
-191.26
 21
-424.094
  0
LINE
  8
0
 10
-191.26
 20
-424.094
 11
-192.705
 21
-422.084
  0
LINE
  8
0
 10
-192.705
 20
-422.084
 11
-194.128
 21
-420.058
  0
LINE
  8
0
 10
-194.128
 20
-420.058
 11
-195.53
 21
-418.018
  0
LINE
  8
0
 10
-195.53
 20
-418.018
 11
-196.911
 21
-415.963
  0
LINE
  8
0
 10
-196.911
 20
-415.963
 11
-198.27
 21
-413.894
  0
LINE
  8
0
 10
-198.27
 20
-413.894
 11
-199.608
 21
-411.81
  0
LINE
  8
0
 10
-199.608
 20
-411.81
 11
-200.924
 21
-409.713
  0
LINE
  8
0
 10
-200.924
 20
-409.713
 11
-202.217
 21
-407.602
  0
LINE
  8
0
 10
-202.217
 20
-407.602
 11
-203.488
 21
-405.478
  0
LINE
  8
0
 10
-203.488
 20
-405.478
 11
-204.737
 21
-403.341
  0
LINE
  8
0
 10
-204.737
 20
-403.341
 11
-205.964
 21
-401.19
  0
LINE
  8
0
 10
-205.964
 20
-401.19
 11
-207.168
 21
-399.027
  0
LINE
  8
0
 10
-207.168
 20
-399.027
 11
-208.349
 21
-396.851
  0
LINE
  8
0
 10
-208.349
 20
-396.851
 11
-209.508
 21
-394.663
  0
LINE
  8
0
 10
-209.508
 20
-394.663
 11
-210.643
 21
-392.464
  0
LINE
  8
0
 10
-210.643
 20
-392.464
 11
-211.756
 21
-390.252
  0
LINE
  8
0
 10
-211.756
 20
-390.252
 11
-212.845
 21
-388.029
  0
LINE
  8
0
 10
-212.845
 20
-388.029
 11
-213.911
 21
-385.794
  0
LINE
  8
0
 10
-213.911
 20
-385.794
 11
-214.953
 21
-383.549
  0
LINE
  8
0
 10
-214.953
 20
-383.549
 11
-215.972
 21
-381.292
  0
LINE
  8
0
 10
-215.972
 20
-381.292
 11
-216.967
 21
-379.025
  0
LINE
  8
0
 10
-216.967
 20
-379.025
 11
-217.938
 21
-376.748
  0
LINE
  8
0
 10
-217.938
 20
-376.748
 11
-218.885
 21
-374.461
  0
LINE
  8
0
 10
-218.885
 20
-374.461
 11
-219.809
 21
-372.164
  0
LINE
  8
0
 10
-219.809
 20
-372.164
 11
-220.708
 21
-369.857
  0
LINE
  8
0
 10
-220.708
 20
-369.857
 11
-221.583
 21
-367.542
  0
LINE
  8
0
 10
-221.583
 20
-367.542
 11
-222.434
 21
-365.217
  0
LINE
  8
0
 10
-222.434
 20
-365.217
 11
-223.26
 21
-362.883
  0
LINE
  8
0
 10
-223.26
 20
-362.883
 11
-224.062
 21
-360.541
  0
LINE
  8
0
 10
-224.062
 20
-360.541
 11
-224.84
 21
-358.19
  0
LINE
  8
0
 10
-224.84
 20
-358.19
 11
-225.592
 21
-355.832
  0
LINE
  8
0
 10
-225.592
 20
-355.832
 11
-226.32
 21
-353.466
  0
LINE
  8
0
 10
-226.32
 20
-353.466
 11
-227.023
 21
-351.092
  0
LINE
  8
0
 10
-227.023
 20
-351.092
 11
-227.702
 21
-348.711
  0
LINE
  8
0
 10
-227.702
 20
-348.711
 11
-228.355
 21
-346.323
  0
LINE
  8
0
 10
-228.355
 20
-346.323
 11
-228.983
 21
-343.928
  0
LINE
  8
0
 10
-228.983
 20
-343.928
 11
-229.586
 21
-341.527
  0
LINE
  8
0
 10
-229.586
 20
-341.527
 11
-230.164
 21
-339.12
  0
LINE
  8
0
 10
-230.164
 20
-339.12
 11
-230.717
 21
-336.707
  0
LINE
  8
0
 10
-230.717
 20
-336.707
 11
-231.244
 21
-334.288
  0
LINE
  8
0
 10
-231.244
 20
-334.288
 11
-231.746
 21
-331.864
  0
LINE
  8
0
 10
-231.746
 20
-331.864
 11
-232.223
 21
-329.434
  0
LINE
  8
0
 10
-232.223
 20
-329.434
 11
-232.674
 21
-327
  0
LINE
  8
0
 10
-232.674
 20
-327
 11
-233.1
 21
-324.561
  0
LINE
  8
0
 10
-233.1
 20
-324.561
 11
-233.5
 21
-322.118
  0
LINE
  8
0
 10
-233.5
 20
-322.118
 11
-233.874
 21
-319.671
  0
LINE
  8
0
 10
-233.874
 20
-319.671
 11
-234.223
 21
-317.22
  0
LINE
  8
0
 10
-234.223
 20
-317.22
 11
-234.546
 21
-314.766
  0
LINE
  8
0
 10
-234.546
 20
-314.766
 11
-234.844
 21
-312.308
  0
LINE
  8
0
 10
-234.844
 20
-312.308
 11
-235.115
 21
-309.847
  0
LINE
  8
0
 10
-235.115
 20
-309.847
 11
-235.361
 21
-307.384
  0
LINE
  8
0
 10
-235.361
 20
-307.384
 11
-235.581
 21
-304.918
  0
LINE
  8
0
 10
-235.581
 20
-304.918
 11
-235.776
 21
-302.45
  0
LINE
  8
0
 10
-235.776
 20
-302.45
 11
-235.944
 21
-299.98
  0
LINE
  8
0
 10
-235.944
 20
-299.98
 11
-236.086
 21
-297.508
  0
LINE
  8
0
 10
-236.086
 20
-297.508
 11
-236.203
 21
-295.035
  0
LINE
  8
0
 10
-236.203
 20
-295.035
 11
-236.294
 21
-292.561
  0
LINE
  8
0
 10
-236.294
 20
-292.561
 11
-236.359
 21
-290.086
  0
LINE
  8
0
 10
-236.359
 20
-290.086
 11
-236.397
 21
-287.611
  0
LINE
  8
0
 10
-236.397
 20
-287.611
 11
-236.41
 21
-285.135
  0
LINE
  8
0
 10
-236.41
 20
-285.135
 11
-236.397
 21
-282.66
  0
LINE
  8
0
 10
-236.397
 20
-282.66
 11
-236.359
 21
-280.184
  0
LINE
  8
0
 10
-236.359
 20
-280.184
 11
-236.294
 21
-277.71
  0
LINE
  8
0
 10
-236.294
 20
-277.71
 11
-236.203
 21
-275.236
  0
LINE
  8
0
 10
-236.203
 20
-275.236
 11
-236.086
 21
-272.763
  0
LINE
  8
0
 10
-236.086
 20
-272.763
 11
-235.944
 21
-270.291
  0
LINE
  8
0
 10
-235.944
 20
-270.291
 11
-235.776
 21
-267.821
  0
LINE
  8
0
 10
-235.776
 20
-267.821
 11
-235.581
 21
-265.353
  0
LINE
  8
0
 10
-235.581
 20
-265.353
 11
-235.361
 21
-262.887
  0
LINE
  8
0
 10
-235.361
 20
-262.887
 11
-235.115
 21
-260.424
  0
LINE
  8
0
 10
-235.115
 20
-260.424
 11
-234.844
 21
-257.963
  0
LINE
  8
0
 10
-234.844
 20
-257.963
 11
-234.546
 21
-255.505
  0
LINE
  8
0
 10
-234.546
 20
-255.505
 11
-234.223
 21
-253.051
  0
LINE
  8
0
 10
-234.223
 20
-253.051
 11
-233.874
 21
-250.6
  0
LINE
  8
0
 10
-233.874
 20
-250.6
 11
-233.5
 21
-248.153
  0
LINE
  8
0
 10
-233.5
 20
-248.153
 11
-233.1
 21
-245.71
  0
LINE
  8
0
 10
-233.1
 20
-245.71
 11
-232.674
 21
-243.271
  0
LINE
  8
0
 10
-232.674
 20
-243.271
 11
-232.223
 21
-240.837
  0
LINE
  8
0
 10
-232.223
 20
-240.837
 11
-231.746
 21
-238.407
  0
LINE
  8
0
 10
-231.746
 20
-238.407
 11
-231.244
 21
-235.983
  0
LINE
  8
0
 10
-231.244
 20
-235.983
 11
-230.717
 21
-233.564
  0
LINE
  8
0
 10
-230.717
 20
-233.564
 11
-230.164
 21
-231.151
  0
LINE
  8
0
 10
-230.164
 20
-231.151
 11
-229.586
 21
-228.744
  0
LINE
  8
0
 10
-229.586
 20
-228.744
 11
-228.983
 21
-226.343
  0
LINE
  8
0
 10
-228.983
 20
-226.343
 11
-228.355
 21
-223.948
  0
LINE
  8
0
 10
-228.355
 20
-223.948
 11
-227.702
 21
-221.56
  0
LINE
  8
0
 10
-227.702
 20
-221.56
 11
-227.023
 21
-219.179
  0
LINE
  8
0
 10
-227.023
 20
-219.179
 11
-226.32
 21
-216.805
  0
LINE
  8
0
 10
-226.32
 20
-216.805
 11
-225.592
 21
-214.439
  0
LINE
  8
0
 10
-225.592
 20
-214.439
 11
-224.84
 21
-212.081
  0
LINE
  8
0
 10
-224.84
 20
-212.081
 11
-224.062
 21
-209.73
  0
LINE
  8
0
 10
-224.062
 20
-209.73
 11
-223.26
 21
-207.388
  0
LINE
  8
0
 10
-223.26
 20
-207.388
 11
-222.434
 21
-205.054
  0
LINE
  8
0
 10
-222.434
 20
-205.054
 11
-221.583
 21
-202.729
  0
LINE
  8
0
 10
-221.583
 20
-202.729
 11
-220.708
 21
-200.414
  0
LINE
  8
0
 10
-220.708
 20
-200.414
 11
-219.809
 21
-198.107
  0
LINE
  8
0
 10
-219.809
 20
-198.107
 11
-218.885
 21
-195.81
  0
LINE
  8
0
 10
-218.885
 20
-195.81
 11
-217.938
 21
-193.523
  0
LINE
  8
0
 10
-217.938
 20
-193.523
 11
-216.967
 21
-191.246
  0
LINE
  8
0
 10
-216.967
 20
-191.246
 11
-215.972
 21
-188.979
  0
LINE
  8
0
 10
-215.972
 20
-188.979
 11
-214.953
 21
-186.722
  0
LINE
  8
0
 10
-214.953
 20
-186.722
 11
-213.911
 21
-184.477
  0
LINE
  8
0
 10
-213.911
 20
-184.477
 11
-212.845
 21
-182.242
  0
LINE
  8
0
 10
-212.845
 20
-182.242
 11
-211.756
 21
-180.019
  0
LINE
  8
0
 10
-211.756
 20
-180.019
 11
-210.643
 21
-177.807
  0
LINE
  8
0
 10
-210.643
 20
-177.807
 11
-209.508
 21
-175.607
  0
LINE
  8
0
 10
-209.508
 20
-175.607
 11
-208.349
 21
-173.42
  0
LINE
  8
0
 10
-208.349
 20
-173.42
 11
-207.168
 21
-171.244
  0
LINE
  8
0
 10
-207.168
 20
-171.244
 11
-205.964
 21
-169.081
  0
LINE
  8
0
 10
-205.964
 20
-169.081
 11
-204.737
 21
-166.93
  0
LINE
  8
0
 10
-204.737
 20
-166.93
 11
-203.488
 21
-164.793
  0
LINE
  8
0
 10
-203.488
 20
-164.793
 11
-202.217
 21
-162.668
  0
LINE
  8
0
 10
-202.217
 20
-162.668
 11
-200.924
 21
-160.558
  0
LINE
  8
0
 10
-200.924
 20
-160.558
 11
-199.608
 21
-158.46
  0
LINE
  8
0
 10
-199.608
 20
-158.46
 11
-198.27
 21
-156.377
  0
LINE
  8
0
 10
-198.27
 20
-156.377
 11
-196.911
 21
-154.308
  0
LINE
  8
0
 10
-196.911
 20
-154.308
 11
-195.53
 21
-152.253
  0
LINE
  8
0
 10
-195.53
 20
-152.253
 11
-194.128
 21
-150.213
  0
LINE
  8
0
 10
-194.128
 20
-150.213
 11
-192.705
 21
-148.187
  0
LINE
  8
0
 10
-192.705
 20
-148.187
 11
-191.26
 21
-146.177
  0
LINE
  8
0
 10
-191.26
 20
-146.177
 11
-189.794
 21
-144.182
  0
LINE
  8
0
 10
-189.794
 20
-144.182
 11
-188.308
 21
-142.202
  0
LINE
  8
0
 10
-188.308
 20
-142.202
 11
-186.801
 21
-140.238
  0
LINE
  8
0
 10
-186.801
 20
-140.238
 11
-185.273
 21
-138.29
  0
LINE
  8
0
 10
-185.273
 20
-138.29
 11
-183.725
 21
-136.358
  0
LINE
  8
0
 10
-183.725
 20
-136.358
 11
-182.157
 21
-134.442
  0
LINE
  8
0
 10
-182.157
 20
-134.442
 11
-180.569
 21
-132.543
  0
LINE
  8
0
 10
-180.569
 20
-132.543
 11
-178.962
 21
-130.66
  0
LINE
  8
0
 10
-178.962
 20
-130.66
 11
-177.334
 21
-128.794
  0
LINE
  8
0
 10
-177.334
 20
-128.794
 11
-175.687
 21
-126.946
  0
LINE
  8
0
 10
-175.687
 20
-126.946
 11
-174.021
 21
-125.115
  0
LINE
  8
0
 10
-174.021
 20
-125.115
 11
-172.336
 21
-123.301
  0
LINE
  8
0
 10
-172.336
 20
-123.301
 11
-170.632
 21
-121.506
  0
LINE
  8
0
 10
-170.632
 20
-121.506
 11
-168.909
 21
-119.728
  0
LINE
  8
0
 10
-168.909
 20
-119.728
 11
-167.167
 21
-117.968
  0
LINE
  8
0
 10
-167.167
 20
-117.968
 11
-165.408
 21
-116.227
  0
LINE
  8
0
 10
-165.408
 20
-116.227
 11
-163.63
 21
-114.504
  0
LINE
  8
0
 10
-163.63
 20
-114.504
 11
-161.834
 21
-112.8
  0
LINE
  8
0
 10
-161.834
 20
-112.8
 11
-160.021
 21
-111.114
  0
LINE
  8
0
 10
-160.021
 20
-111.114
 11
-158.189
 21
-109.448
  0
LINE
  8
0
 10
-158.189
 20
-109.448
 11
-156.341
 21
-107.801
  0
LINE
  8
0
 10
-156.341
 20
-107.801
 11
-154.475
 21
-106.174
  0
LINE
  8
0
 10
-154.475
 20
-106.174
 11
-152.593
 21
-104.566
  0
LINE
  8
0
 10
-152.593
 20
-104.566
 11
-150.694
 21
-102.978
  0
LINE
  8
0
 10
-150.694
 20
-102.978
 11
-148.778
 21
-101.41
  0
LINE
  8
0
 10
-148.778
 20
-101.41
 11
-146.846
 21
-99.8621
  0
LINE
  8
0
 10
-146.846
 20
-99.8621
 11
-144.898
 21
-98.3345
  0
LINE
  8
0
 10
-144.898
 20
-98.3345
 11
-142.934
 21
-96.8275
  0
LINE
  8
0
 10
-142.934
 20
-96.8275
 11
-140.954
 21
-95.341
  0
LINE
  8
0
 10
-140.954
 20
-95.341
 11
-138.959
 21
-93.8754
  0
LINE
  8
0
 10
-138.959
 20
-93.8754
 11
-136.948
 21
-92.4307
  0
LINE
  8
0
 10
-136.948
 20
-92.4307
 11
-134.923
 21
-91.0072
  0
LINE
  8
0
 10
-134.923
 20
-91.0072
 11
-132.882
 21
-89.6049
  0
LINE
  8
0
 10
-132.882
 20
-89.6049
 11
-130.828
 21
-88.2242
  0
LINE
  8
0
 10
-130.828
 20
-88.2242
 11
-128.758
 21
-86.865
  0
LINE
  8
0
 10
-128.758
 20
-86.865
 11
-126.675
 21
-85.5275
  0
LINE
  8
0
 10
-126.675
 20
-85.5275
 11
-124.578
 21
-84.2119
  0
LINE
  8
0
 10
-124.578
 20
-84.2119
 11
-122.467
 21
-82.9184
  0
LINE
  8
0
 10
-122.467
 20
-82.9184
 11
-120.343
 21
-81.647
  0
LINE
  8
0
 10
-120.343
 20
-81.647
 11
-118.205
 21
-80.398
  0
LINE
  8
0
 10
-118.205
 20
-80.398
 11
-116.055
 21
-79.1714
  0
LINE
  8
0
 10
-116.055
 20
-79.1714
 11
-113.892
 21
-77.9674
  0
LINE
  8
0
 10
-113.892
 20
-77.9674
 11
-111.716
 21
-76.7861
  0
LINE
  8
0
 10
-111.716
 20
-76.7861
 11
-109.528
 21
-75.6277
  0
LINE
  8
0
 10
-109.528
 20
-75.6277
 11
-107.328
 21
-74.4922
  0
LINE
  8
0
 10
-107.328
 20
-74.4922
 11
-105.116
 21
-73.3798
  0
LINE
  8
0
 10
-105.116
 20
-73.3798
 11
-102.893
 21
-72.2907
  0
LINE
  8
0
 10
-102.893
 20
-72.2907
 11
-100.659
 21
-71.2249
  0
LINE
  8
0
 10
-100.659
 20
-71.2249
 11
-98.4131
 21
-70.1825
  0
LINE
  8
0
 10
-98.4131
 20
-70.1825
 11
-96.1568
 21
-69.1638
  0
LINE
  8
0
 10
-96.1568
 20
-69.1638
 11
-93.8899
 21
-68.1687
  0
LINE
  8
0
 10
-93.8899
 20
-68.1687
 11
-91.6127
 21
-67.1974
  0
LINE
  8
0
 10
-91.6127
 20
-67.1974
 11
-89.3255
 21
-66.25
  0
LINE
  8
0
 10
-89.3255
 20
-66.25
 11
-87.0285
 21
-65.3266
  0
LINE
  8
0
 10
-87.0285
 20
-65.3266
 11
-84.7219
 21
-64.4273
  0
LINE
  8
0
 10
-84.7219
 20
-64.4273
 11
-82.4061
 21
-63.5522
  0
LINE
  8
0
 10
-82.4061
 20
-63.5522
 11
-80.0812
 21
-62.7014
  0
LINE
  8
0
 10
-80.0812
 20
-62.7014
 11
-77.7475
 21
-61.875
  0
LINE
  8
0
 10
-77.7475
 20
-61.875
 11
-75.4053
 21
-61.0731
  0
LINE
  8
0
 10
-75.4053
 20
-61.0731
 11
-73.0548
 21
-60.2957
  0
LINE
  8
0
 10
-73.0548
 20
-60.2957
 11
-70.6964
 21
-59.5431
  0
LINE
  8
0
 10
-70.6964
 20
-59.5431
 11
-68.3301
 21
-58.8151
  0
LINE
  8
0
 10
-68.3301
 20
-58.8151
 11
-65.9564
 21
-58.112
  0
LINE
  8
0
 10
-65.9564
 20
-58.112
 11
-63.5755
 21
-57.4337
  0
LINE
  8
0
 10
-63.5755
 20
-57.4337
 11
-61.1875
 21
-56.7805
  0
LINE
  8
0
 10
-61.1875
 20
-56.7805
 11
-58.7929
 21
-56.1523
  0
LINE
  8
0
 10
-58.7929
 20
-56.1523
 11
-56.3918
 21
-55.5491
  0
LINE
  8
0
 10
-56.3918
 20
-55.5491
 11
-53.9845
 21
-54.9712
  0
LINE
  8
0
 10
-53.9845
 20
-54.9712
 11
-51.5713
 21
-54.4185
  0
LINE
  8
0
 10
-51.5713
 20
-54.4185
 11
-49.1525
 21
-53.8911
  0
LINE
  8
0
 10
-49.1525
 20
-53.8911
 11
-46.7283
 21
-53.3891
  0
LINE
  8
0
 10
-46.7283
 20
-53.3891
 11
-44.2989
 21
-52.9125
  0
LINE
  8
0
 10
-44.2989
 20
-52.9125
 11
-41.8647
 21
-52.4613
  0
LINE
  8
0
 10
-41.8647
 20
-52.4613
 11
-39.4259
 21
-52.0357
  0
LINE
  8
0
 10
-39.4259
 20
-52.0357
 11
-36.9827
 21
-51.6356
  0
LINE
  8
0
 10
-36.9827
 20
-51.6356
 11
-34.5356
 21
-51.2611
  0
LINE
  8
0
 10
-34.5356
 20
-51.2611
 11
-32.0846
 21
-50.9123
  0
LINE
  8
0
 10
-32.0846
 20
-50.9123
 11
-29.6301
 21
-50.5892
  0
LINE
  8
0
 10
-29.6301
 20
-50.5892
 11
-27.1723
 21
-50.2917
  0
LINE
  8
0
 10
-27.1723
 20
-50.2917
 11
-24.7116
 21
-50.0201
  0
LINE
  8
0
 10
-24.7116
 20
-50.0201
 11
-22.2482
 21
-49.7742
  0
LINE
  8
0
 10
-22.2482
 20
-49.7742
 11
-19.7823
 21
-49.5541
  0
LINE
  8
0
 10
-19.7823
 20
-49.5541
 11
-17.3143
 21
-49.3599
  0
LINE
  8
0
 10
-17.3143
 20
-49.3599
 11
-14.8443
 21
-49.1915
  0
LINE
  8
0
 10
-14.8443
 20
-49.1915
 11
-12.3728
 21
-49.049
  0
LINE
  8
0
 10
-12.3728
 20
-49.049
 11
-9.89984
 21
-48.9324
  0
LINE
  8
0
 10
-9.89984
 20
-48.9324
 11
-7.42583
 21
-48.8416
  0
LINE
  8
0
 10
-7.42583
 20
-48.8416
 11
-4.951
 21
-48.7768
  0
LINE
  8
0
 10
-4.951
 20
-48.7768
 11
-2.47563
 21
-48.738
  0
LINE
  8
0
 10
-2.47563
 20
-48.738
 11
0
 21
-48.725
  0
LINE
  8
0
 10
0
 20
-48.725
 11
2.47563
 21
-48.738
  0
LINE
  8
0
 10
2.47563
 20
-48.738
 11
4.951
 21
-48.7768
  0
LINE
  8
0
 10
4.951
 20
-48.7768
 11
7.42583
 21
-48.8416
  0
LINE
  8
0
 10
7.42583
 20
-48.8416
 11
9.89984
 21
-48.9324
  0
LINE
  8
0
 10
9.89984
 20
-48.9324
 11
12.3728
 21
-49.049
  0
LINE
  8
0
 10
12.3728
 20
-49.049
 11
14.8443
 21
-49.1915
  0
LINE
  8
0
 10
14.8443
 20
-49.1915
 11
17.3143
 21
-49.3599
  0
LINE
  8
0
 10
17.3143
 20
-49.3599
 11
19.7823
 21
-49.5541
  0
LINE
  8
0
 10
19.7823
 20
-49.5541
 11
22.2482
 21
-49.7742
  0
LINE
  8
0
 10
22.2482
 20
-49.7742
 11
24.7116
 21
-50.0201
  0
LINE
  8
0
 10
24.7116
 20
-50.0201
 11
27.1723
 21
-50.2917
  0
LINE
  8
0
 10
27.1723
 20
-50.2917
 11
29.6301
 21
-50.5892
  0
LINE
  8
0
 10
29.6301
 20
-50.5892
 11
32.0846
 21
-50.9123
  0
LINE
  8
0
 10
32.0846
 20
-50.9123
 11
34.5356
 21
-51.2611
  0
LINE
  8
0
 10
34.5356
 20
-51.2611
 11
36.9827
 21
-51.6356
  0
LINE
  8
0
 10
36.9827
 20
-51.6356
 11
39.4259
 21
-52.0357
  0
LINE
  8
0
 10
39.4259
 20
-52.0357
 11
41.8647
 21
-52.4613
  0
LINE
  8
0
 10
41.8647
 20
-52.4613
 11
44.2989
 21
-52.9125
  0
LINE
  8
0
 10
44.2989
 20
-52.9125
 11
46.7283
 21
-53.3891
  0
LINE
  8
0
 10
46.7283
 20
-53.3891
 11
49.1525
 21
-53.8911
  0
LINE
  8
0
 10
49.1525
 20
-53.8911
 11
51.5713
 21
-54.4185
  0
LINE
  8
0
 10
51.5713
 20
-54.4185
 11
53.9845
 21
-54.9712
  0
LINE
  8
0
 10
53.9845
 20
-54.9712
 11
56.3918
 21
-55.5491
  0
LINE
  8
0
 10
56.3918
 20
-55.5491
 11
58.7929
 21
-56.1523
  0
LINE
  8
0
 10
58.7929
 20
-56.1523
 11
61.1875
 21
-56.7805
  0
LINE
  8
0
 10
61.1875
 20
-56.7805
 11
63.5755
 21
-57.4337
  0
LINE
  8
0
 10
63.5755
 20
-57.4337
 11
65.9564
 21
-58.112
  0
LINE
  8
0
 10
65.9564
 20
-58.112
 11
68.3301
 21
-58.8151
  0
LINE
  8
0
 10
68.3301
 20
-58.8151
 11
70.6964
 21
-59.5431
  0
LINE
  8
0
 10
70.6964
 20
-59.5431
 11
73.0548
 21
-60.2957
  0
LINE
  8
0
 10
73.0548
 20
-60.2957
 11
75.4053
 21
-61.0731
  0
LINE
  8
0
 10
75.4053
 20
-61.0731
 11
77.7475
 21
-61.875
  0
LINE
  8
0
 10
77.7475
 20
-61.875
 11
80.0812
 21
-62.7014
  0
LINE
  8
0
 10
80.0812
 20
-62.7014
 11
82.4061
 21
-63.5522
  0
LINE
  8
0
 10
82.4061
 20
-63.5522
 11
84.7219
 21
-64.4273
  0
LINE
  8
0
 10
84.7219
 20
-64.4273
 11
87.0285
 21
-65.3266
  0
LINE
  8
0
 10
87.0285
 20
-65.3266
 11
89.3255
 21
-66.25
  0
LINE
  8
0
 10
89.3255
 20
-66.25
 11
91.6127
 21
-67.1974
  0
LINE
  8
0
 10
91.6127
 20
-67.1974
 11
93.8899
 21
-68.1687
  0
LINE
  8
0
 10
93.8899
 20
-68.1687
 11
96.1568
 21
-69.1638
  0
LINE
  8
0
 10
96.1568
 20
-69.1638
 11
98.4131
 21
-70.1825
  0
LINE
  8
0
 10
98.4131
 20
-70.1825
 11
100.659
 21
-71.2249
  0
LINE
  8
0
 10
100.659
 20
-71.2249
 11
102.893
 21
-72.2907
  0
LINE
  8
0
 10
102.893
 20
-72.2907
 11
105.116
 21
-73.3798
  0
LINE
  8
0
 10
105.116
 20
-73.3798
 11
107.328
 21
-74.4922
  0
LINE
  8
0
 10
107.328
 20
-74.4922
 11
109.528
 21
-75.6277
  0
LINE
  8
0
 10
109.528
 20
-75.6277
 11
111.716
 21
-76.7861
  0
LINE
  8
0
 10
111.716
 20
-76.7861
 11
113.892
 21
-77.9674
  0
LINE
  8
0
 10
113.892
 20
-77.9674
 11
116.055
 21
-79.1714
  0
LINE
  8
0
 10
116.055
 20
-79.1714
 11
118.205
 21
-80.398
  0
LINE
  8
0
 10
118.205
 20
-80.398
 11
120.343
 21
-81.647
  0
LINE
  8
0
 10
120.343
 20
-81.647
 11
122.467
 21
-82.9184
  0
LINE
  8
0
 10
122.467
 20
-82.9184
 11
124.578
 21
-84.2119
  0
LINE
  8
0
 10
124.578
 20
-84.2119
 11
126.675
 21
-85.5275
  0
LINE
  8
0
 10
126.675
 20
-85.5275
 11
128.758
 21
-86.865
  0
LINE
  8
0
 10
128.758
 20
-86.865
 11
130.828
 21
-88.2242
  0
LINE
  8
0
 10
130.828
 20
-88.2242
 11
132.882
 21
-89.6049
  0
LINE
  8
0
 10
132.882
 20
-89.6049
 11
134.923
 21
-91.0072
  0
LINE
  8
0
 10
134.923
 20
-91.0072
 11
136.948
 21
-92.4307
  0
LINE
  8
0
 10
136.948
 20
-92.4307
 11
138.959
 21
-93.8754
  0
LINE
  8
0
 10
138.959
 20
-93.8754
 11
140.954
 21
-95.341
  0
LINE
  8
0
 10
140.954
 20
-95.341
 11
142.934
 21
-96.8275
  0
LINE
  8
0
 10
142.934
 20
-96.8275
 11
144.898
 21
-98.3345
  0
LINE
  8
0
 10
144.898
 20
-98.3345
 11
146.846
 21
-99.8621
  0
LINE
  8
0
 10
146.846
 20
-99.8621
 11
148.778
 21
-101.41
  0
LINE
  8
0
 10
148.778
 20
-101.41
 11
150.694
 21
-102.978
  0
LINE
  8
0
 10
150.694
 20
-102.978
 11
152.593
 21
-104.566
  0
LINE
  8
0
 10
152.593
 20
-104.566
 11
154.475
 21
-106.174
  0
LINE
  8
0
 10
154.475
 20
-106.174
 11
156.341
 21
-107.801
  0
LINE
  8
0
 10
156.341
 20
-107.801
 11
158.189
 21
-109.448
  0
LINE
  8
0
 10
158.189
 20
-109.448
 11
160.021
 21
-111.114
  0
LINE
  8
0
 10
160.021
 20
-111.114
 11
161.834
 21
-112.8
  0
LINE
  8
0
 10
161.834
 20
-112.8
 11
163.63
 21
-114.504
  0
LINE
  8
0
 10
163.63
 20
-114.504
 11
165.408
 21
-116.227
  0
LINE
  8
0
 10
165.408
 20
-116.227
 11
167.167
 21
-117.968
  0
LINE
  8
0
 10
167.167
 20
-117.968
 11
168.909
 21
-119.728
  0
LINE
  8
0
 10
168.909
 20
-119.728
 11
170.632
 21
-121.506
  0
LINE
  8
0
 10
170.632
 20
-121.506
 11
172.336
 21
-123.301
  0
LINE
  8
0
 10
172.336
 20
-123.301
 11
174.021
 21
-125.115
  0
LINE
  8
0
 10
174.021
 20
-125.115
 11
175.687
 21
-126.946
  0
LINE
  8
0
 10
175.687
 20
-126.946
 11
177.334
 21
-128.794
  0
LINE
  8
0
 10
177.334
 20
-128.794
 11
178.962
 21
-130.66
  0
LINE
  8
0
 10
178.962
 20
-130.66
 11
180.569
 21
-132.543
  0
LINE
  8
0
 10
180.569
 20
-132.543
 11
182.157
 21
-134.442
  0
LINE
  8
0
 10
182.157
 20
-134.442
 11
183.725
 21
-136.358
  0
LINE
  8
0
 10
183.725
 20
-136.358
 11
185.273
 21
-138.29
  0
LINE
  8
0
 10
185.273
 20
-138.29
 11
186.801
 21
-140.238
  0
LINE
  8
0
 10
186.801
 20
-140.238
 11
188.308
 21
-142.202
  0
LINE
  8
0
 10
188.308
 20
-142.202
 11
189.794
 21
-144.182
  0
LINE
  8
0
 10
189.794
 20
-144.182
 11
191.26
 21
-146.177
  0
LINE
  8
0
 10
191.26
 20
-146.177
 11
192.705
 21
-148.187
  0
LINE
  8
0
 10
192.705
 20
-148.187
 11
194.128
 21
-150.213
  0
LINE
  8
0
 10
194.128
 20
-150.213
 11
195.53
 21
-152.253
  0
LINE
  8
0
 10
195.53
 20
-152.253
 11
196.911
 21
-154.308
  0
LINE
  8
0
 10
196.911
 20
-154.308
 11
198.27
 21
-156.377
  0
LINE
  8
0
 10
198.27
 20
-156.377
 11
199.608
 21
-158.46
  0
LINE
  8
0
 10
199.608
 20
-158.46
 11
200.924
 21
-160.558
  0
LINE
  8
0
 10
200.924
 20
-160.558
 11
202.217
 21
-162.668
  0
LINE
  8
0
 10
202.217
 20
-162.668
 11
203.488
 21
-164.793
  0
LINE
  8
0
 10
203.488
 20
-164.793
 11
204.737
 21
-166.93
  0
LINE
  8
0
 10
204.737
 20
-166.93
 11
205.964
 21
-169.081
  0
LINE
  8
0
 10
205.964
 20
-169.081
 11
207.168
 21
-171.244
  0
LINE
  8
0
 10
207.168
 20
-171.244
 11
208.349
 21
-173.42
  0
LINE
  8
0
 10
208.349
 20
-173.42
 11
209.508
 21
-175.607
  0
LINE
  8
0
 10
209.508
 20
-175.607
 11
210.643
 21
-177.807
  0
LINE
  8
0
 10
210.643
 20
-177.807
 11
211.756
 21
-180.019
  0
LINE
  8
0
 10
211.756
 20
-180.019
 11
212.845
 21
-182.242
  0
LINE
  8
0
 10
212.845
 20
-182.242
 11
213.911
 21
-184.477
  0
LINE
  8
0
 10
213.911
 20
-184.477
 11
214.953
 21
-186.722
  0
LINE
  8
0
 10
214.953
 20
-186.722
 11
215.972
 21
-188.979
  0
LINE
  8
0
 10
215.972
 20
-188.979
 11
216.967
 21
-191.246
  0
LINE
  8
0
 10
216.967
 20
-191.246
 11
217.938
 21
-193.523
  0
LINE
  8
0
 10
217.938
 20
-193.523
 11
218.885
 21
-195.81
  0
LINE
  8
0
 10
218.885
 20
-195.81
 11
219.809
 21
-198.107
  0
LINE
  8
0
 10
219.809
 20
-198.107
 11
220.708
 21
-200.414
  0
LINE
  8
0
 10
220.708
 20
-200.414
 11
221.583
 21
-202.729
  0
LINE
  8
0
 10
221.583
 20
-202.729
 11
222.434
 21
-205.054
  0
LINE
  8
0
 10
222.434
 20
-205.054
 11
223.26
 21
-207.388
  0
LINE
  8
0
 10
223.26
 20
-207.388
 11
224.062
 21
-209.73
  0
LINE
  8
0
 10
224.062
 20
-209.73
 11
224.84
 21
-212.081
  0
LINE
  8
0
 10
224.84
 20
-212.081
 11
225.592
 21
-214.439
  0
LINE
  8
0
 10
225.592
 20
-214.439
 11
226.32
 21
-216.805
  0
LINE
  8
0
 10
226.32
 20
-216.805
 11
227.023
 21
-219.179
  0
LINE
  8
0
 10
227.023
 20
-219.179
 11
227.702
 21
-221.56
  0
LINE
  8
0
 10
227.702
 20
-221.56
 11
228.355
 21
-223.948
  0
LINE
  8
0
 10
228.355
 20
-223.948
 11
228.983
 21
-226.343
  0
LINE
  8
0
 10
228.983
 20
-226.343
 11
229.586
 21
-228.744
  0
LINE
  8
0
 10
229.586
 20
-228.744
 11
230.164
 21
-231.151
  0
LINE
  8
0
 10
230.164
 20
-231.151
 11
230.717
 21
-233.564
  0
LINE
  8
0
 10
230.717
 20
-233.564
 11
231.244
 21
-235.983
  0
LINE
  8
0
 10
231.244
 20
-235.983
 11
231.746
 21
-238.407
  0
LINE
  8
0
 10
231.746
 20
-238.407
 11
232.223
 21
-240.837
  0
LINE
  8
0
 10
232.223
 20
-240.837
 11
232.674
 21
-243.271
  0
LINE
  8
0
 10
232.674
 20
-243.271
 11
233.1
 21
-245.71
  0
LINE
  8
0
 10
233.1
 20
-245.71
 11
233.5
 21
-248.153
  0
LINE
  8
0
 10
233.5
 20
-248.153
 11
233.874
 21
-250.6
  0
LINE
  8
0
 10
233.874
 20
-250.6
 11
234.223
 21
-253.051
  0
LINE
  8
0
 10
234.223
 20
-253.051
 11
234.546
 21
-255.505
  0
LINE
  8
0
 10
234.546
 20
-255.505
 11
234.844
 21
-257.963
  0
LINE
  8
0
 10
234.844
 20
-257.963
 11
235.115
 21
-260.424
  0
LINE
  8
0
 10
235.115
 20
-260.424
 11
235.361
 21
-262.887
  0
LINE
  8
0
 10
235.361
 20
-262.887
 11
235.581
 21
-265.353
  0
LINE
  8
0
 10
235.581
 20
-265.353
 11
235.776
 21
-267.821
  0
LINE
  8
0
 10
235.776
 20
-267.821
 11
235.944
 21
-270.291
  0
LINE
  8
0
 10
235.944
 20
-270.291
 11
236.086
 21
-272.763
  0
LINE
  8
0
 10
236.086
 20
-272.763
 11
236.203
 21
-275.236
  0
LINE
  8
0
 10
236.203
 20
-275.236
 11
236.294
 21
-277.71
  0
LINE
  8
0
 10
236.294
 20
-277.71
 11
236.359
 21
-280.184
  0
LINE
  8
0
 10
236.359
 20
-280.184
 11
236.397
 21
-282.66
  0
LINE
  8
0
 10
236.397
 20
-282.66
 11
236.41
 21
-285.135
  0
LINE
  8
0
 10
236.41
 20
-285.135
 11
236.397
 21
-287.611
  0
LINE
  8
0
 10
236.397
 20
-287.611
 11
236.359
 21
-290.086
  0
LINE
  8
0
 10
236.359
 20
-290.086
 11
236.294
 21
-292.561
  0
LINE
  8
0
 10
236.294
 20
-292.561
 11
236.203
 21
-295.035
  0
LINE
  8
0
 10
236.203
 20
-295.035
 11
236.086
 21
-297.508
  0
LINE
  8
0
 10
236.086
 20
-297.508
 11
235.944
 21
-299.98
  0
LINE
  8
0
 10
235.944
 20
-299.98
 11
235.776
 21
-302.45
  0
LINE
  8
0
 10
235.776
 20
-302.45
 11
235.581
 21
-304.918
  0
LINE
  8
0
 10
235.581
 20
-304.918
 11
235.361
 21
-307.384
  0
LINE
  8
0
 10
235.361
 20
-307.384
 11
235.115
 21
-309.847
  0
LINE
  8
0
 10
235.115
 20
-309.847
 11
234.844
 21
-312.308
  0
LINE
  8
0
 10
234.844
 20
-312.308
 11
234.546
 21
-314.766
  0
LINE
  8
0
 10
234.546
 20
-314.766
 11
234.223
 21
-317.22
  0
LINE
  8
0
 10
234.223
 20
-317.22
 11
233.874
 21
-319.671
  0
LINE
  8
0
 10
233.874
 20
-319.671
 11
233.5
 21
-322.118
  0
LINE
  8
0
 10
233.5
 20
-322.118
 11
233.1
 21
-324.561
  0
LINE
  8
0
 10
233.1
 20
-324.561
 11
232.674
 21
-327
  0
LINE
  8
0
 10
232.674
 20
-327
 11
232.223
 21
-329.434
  0
LINE
  8
0
 10
232.223
 20
-329.434
 11
231.746
 21
-331.864
  0
LINE
  8
0
 10
231.746
 20
-331.864
 11
231.244
 21
-334.288
  0
LINE
  8
0
 10
231.244
 20
-334.288
 11
230.717
 21
-336.707
  0
LINE
  8
0
 10
230.717
 20
-336.707
 11
230.164
 21
-339.12
  0
LINE
  8
0
 10
230.164
 20
-339.12
 11
229.586
 21
-341.527
  0
LINE
  8
0
 10
229.586
 20
-341.527
 11
228.983
 21
-343.928
  0
LINE
  8
0
 10
228.983
 20
-343.928
 11
228.355
 21
-346.323
  0
LINE
  8
0
 10
228.355
 20
-346.323
 11
227.702
 21
-348.711
  0
LINE
  8
0
 10
227.702
 20
-348.711
 11
227.023
 21
-351.092
  0
LINE
  8
0
 10
227.023
 20
-351.092
 11
226.32
 21
-353.466
  0
LINE
  8
0
 10
226.32
 20
-353.466
 11
225.592
 21
-355.832
  0
LINE
  8
0
 10
225.592
 20
-355.832
 11
224.84
 21
-358.19
  0
LINE
  8
0
 10
224.84
 20
-358.19
 11
224.062
 21
-360.541
  0
LINE
  8
0
 10
224.062
 20
-360.541
 11
223.26
 21
-362.883
  0
LINE
  8
0
 10
223.26
 20
-362.883
 11
222.434
 21
-365.217
  0
LINE
  8
0
 10
222.434
 20
-365.217
 11
221.583
 21
-367.542
  0
LINE
  8
0
 10
221.583
 20
-367.542
 11
220.708
 21
-369.857
  0
LINE
  8
0
 10
220.708
 20
-369.857
 11
219.809
 21
-372.164
  0
LINE
  8
0
 10
219.809
 20
-372.164
 11
218.885
 21
-374.461
  0
LINE
  8
0
 10
218.885
 20
-374.461
 11
217.938
 21
-376.748
  0
LINE
  8
0
 10
217.938
 20
-376.748
 11
216.967
 21
-379.025
  0
LINE
  8
0
 10
216.967
 20
-379.025
 11
215.972
 21
-381.292
  0
LINE
  8
0
 10
215.972
 20
-381.292
 11
214.953
 21
-383.549
  0
LINE
  8
0
 10
214.953
 20
-383.549
 11
213.911
 21
-385.794
  0
LINE
  8
0
 10
213.911
 20
-385.794
 11
212.845
 21
-388.029
  0
LINE
  8
0
 10
212.845
 20
-388.029
 11
211.756
 21
-390.252
  0
LINE
  8
0
 10
211.756
 20
-390.252
 11
210.643
 21
-392.464
  0
LINE
  8
0
 10
210.643
 20
-392.464
 11
209.508
 21
-394.663
  0
LINE
  8
0
 10
209.508
 20
-394.663
 11
208.349
 21
-396.851
  0
LINE
  8
0
 10
208.349
 20
-396.851
 11
207.168
 21
-399.027
  0
LINE
  8
0
 10
207.168
 20
-399.027
 11
205.964
 21
-401.19
  0
LINE
  8
0
 10
205.964
 20
-401.19
 11
204.737
 21
-403.341
  0
LINE
  8
0
 10
204.737
 20
-403.341
 11
203.488
 21
-405.478
  0
LINE
  8
0
 10
203.488
 20
-405.478
 11
202.217
 21
-407.602
  0
LINE
  8
0
 10
202.217
 20
-407.602
 11
200.924
 21
-409.713
  0
LINE
  8
0
 10
200.924
 20
-409.713
 11
199.608
 21
-411.81
  0
LINE
  8
0
 10
199.608
 20
-411.81
 11
198.27
 21
-413.894
  0
LINE
  8
0
 10
198.27
 20
-413.894
 11
196.911
 21
-415.963
  0
LINE
  8
0
 10
196.911
 20
-415.963
 11
195.53
 21
-418.018
  0
LINE
  8
0
 10
195.53
 20
-418.018
 11
194.128
 21
-420.058
  0
LINE
  8
0
 10
194.128
 20
-420.058
 11
192.705
 21
-422.084
  0
LINE
  8
0
 10
192.705
 20
-422.084
 11
191.26
 21
-424.094
  0
LINE
  8
0
 10
191.26
 20
-424.094
 11
189.794
 21
-426.089
  0
LINE
  8
0
 10
189.794
 20
-426.089
 11
188.308
 21
-428.069
  0
LINE
  8
0
 10
188.308
 20
-428.069
 11
186.801
 21
-430.033
  0
LINE
  8
0
 10
186.801
 20
-430.033
 11
185.273
 21
-431.981
  0
LINE
  8
0
 10
185.273
 20
-431.981
 11
183.725
 21
-433.913
  0
LINE
  8
0
 10
183.725
 20
-433.913
 11
182.157
 21
-435.829
  0
LINE
  8
0
 10
182.157
 20
-435.829
 11
180.569
 21
-437.728
  0
LINE
  8
0
 10
180.569
 20
-437.728
 11
178.962
 21
-439.611
  0
LINE
  8
0
 10
178.962
 20
-439.611
 11
177.334
 21
-441.476
  0
LINE
  8
0
 10
177.334
 20
-441.476
 11
175.687
 21
-443.325
  0
LINE
  8
0
 10
175.687
 20
-443.325
 11
174.021
 21
-445.156
  0
LINE
  8
0
 10
174.021
 20
-445.156
 11
172.336
 21
-446.97
  0
LINE
  8
0
 10
172.336
 20
-446.97
 11
170.632
 21
-448.765
  0
LINE
  8
0
 10
170.632
 20
-448.765
 11
168.909
 21
-450.543
  0
LINE
  8
0
 10
168.909
 20
-450.543
 11
167.167
 21
-452.303
  0
LINE
  8
0
 10
167.167
 20
-452.303
 11
165.408
 21
-454.044
  0
LINE
  8
0
 10
165.408
 20
-454.044
 11
163.63
 21
-455.767
  0
LINE
  8
0
 10
163.63
 20
-455.767
 11
161.834
 21
-457.471
  0
LINE
  8
0
 10
161.834
 20
-457.471
 11
160.021
 21
-459.156
  0
LINE
  8
0
 10
160.021
 20
-459.156
 11
158.189
 21
-460.823
  0
LINE
  8
0
 10
158.189
 20
-460.823
 11
156.341
 21
-462.47
  0
LINE
  8
0
 10
156.341
 20
-462.47
 11
154.475
 21
-464.097
  0
LINE
  8
0
 10
154.475
 20
-464.097
 11
152.593
 21
-465.705
  0
LINE
  8
0
 10
152.593
 20
-465.705
 11
150.694
 21
-467.293
  0
LINE
  8
0
 10
150.694
 20
-467.293
 11
148.778
 21
-468.861
  0
LINE
  8
0
 10
148.778
 20
-468.861
 11
146.846
 21
-470.409
  0
LINE
  8
0
 10
146.846
 20
-470.409
 11
144.898
 21
-471.936
  0
LINE
  8
0
 10
144.898
 20
-471.936
 11
142.934
 21
-473.443
  0
LINE
  8
0
 10
142.934
 20
-473.443
 11
140.954
 21
-474.93
  0
LINE
  8
0
 10
140.954
 20
-474.93
 11
138.959
 21
-476.396
  0
LINE
  8
0
 10
138.959
 20
-476.396
 11
136.948
 21
-477.84
  0
LINE
  8
0
 10
136.948
 20
-477.84
 11
134.923
 21
-479.264
  0
LINE
  8
0
 10
134.923
 20
-479.264
 11
132.882
 21
-480.666
  0
LINE
  8
0
 10
132.882
 20
-480.666
 11
130.828
 21
-482.047
  0
LINE
  8
0
 10
130.828
 20
-482.047
 11
128.758
 21
-483.406
  0
LINE
  8
0
 10
128.758
 20
-483.406
 11
126.675
 21
-484.743
  0
LINE
  8
0
 10
126.675
 20
-484.743
 11
124.578
 21
-486.059
  0
LINE
  8
0
 10
124.578
 20
-486.059
 11
122.467
 21
-487.352
  0
LINE
  8
0
 10
122.467
 20
-487.352
 11
120.343
 21
-488.624
  0
LINE
  8
0
 10
120.343
 20
-488.624
 11
118.205
 21
-489.873
  0
LINE
  8
0
 10
118.205
 20
-489.873
 11
116.055
 21
-491.099
  0
LINE
  8
0
 10
116.055
 20
-491.099
 11
113.892
 21
-492.303
  0
LINE
  8
0
 10
113.892
 20
-492.303
 11
111.716
 21
-493.485
  0
LINE
  8
0
 10
111.716
 20
-493.485
 11
109.528
 21
-494.643
  0
LINE
  8
0
 10
109.528
 20
-494.643
 11
107.328
 21
-495.779
  0
LINE
  8
0
 10
107.328
 20
-495.779
 11
105.116
 21
-496.891
  0
LINE
  8
0
 10
105.116
 20
-496.891
 11
102.893
 21
-497.98
  0
LINE
  8
0
 10
102.893
 20
-497.98
 11
100.659
 21
-499.046
  0
LINE
  8
0
 10
100.659
 20
-499.046
 11
98.4131
 21
-500.088
  0
LINE
  8
0
 10
98.4131
 20
-500.088
 11
96.1568
 21
-501.107
  0
LINE
  8
0
 10
96.1568
 20
-501.107
 11
93.8899
 21
-502.102
  0
LINE
  8
0
 10
93.8899
 20
-502.102
 11
91.6127
 21
-503.074
  0
LINE
  8
0
 10
91.6127
 20
-503.074
 11
89.3255
 21
-504.021
  0
LINE
  8
0
 10
89.3255
 20
-504.021
 11
87.0285
 21
-504.944
  0
LINE
  8
0
 10
87.0285
 20
-504.944
 11
84.7219
 21
-505.844
  0
LINE
  8
0
 10
84.7219
 20
-505.844
 11
82.4061
 21
-506.719
  0
LINE
  8
0
 10
82.4061
 20
-506.719
 11
80.0812
 21
-507.569
  0
LINE
  8
0
 10
80.0812
 20
-507.569
 11
77.7475
 21
-508.396
  0
LINE
  8
0
 10
77.7475
 20
-508.396
 11
75.4053
 21
-509.198
  0
LINE
  8
0
 10
75.4053
 20
-509.198
 11
73.0548
 21
-509.975
  0
LINE
  8
0
 10
73.0548
 20
-509.975
 11
70.6964
 21
-510.728
  0
LINE
  8
0
 10
70.6964
 20
-510.728
 11
68.3301
 21
-511.456
  0
LINE
  8
0
 10
68.3301
 20
-511.456
 11
65.9564
 21
-512.159
  0
LINE
  8
0
 10
65.9564
 20
-512.159
 11
63.5755
 21
-512.837
  0
LINE
  8
0
 10
63.5755
 20
-512.837
 11
61.1875
 21
-513.49
  0
LINE
  8
0
 10
61.1875
 20
-513.49
 11
58.7929
 21
-514.119
  0
LINE
  8
0
 10
58.7929
 20
-514.119
 11
56.3918
 21
-514.722
  0
LINE
  8
0
 10
56.3918
 20
-514.722
 11
53.9845
 21
-515.3
  0
LINE
  8
0
 10
53.9845
 20
-515.3
 11
51.5713
 21
-515.852
  0
LINE
  8
0
 10
51.5713
 20
-515.852
 11
49.1525
 21
-516.38
  0
LINE
  8
0
 10
49.1525
 20
-516.38
 11
46.7283
 21
-516.882
  0
LINE
  8
0
 10
46.7283
 20
-516.882
 11
44.2989
 21
-517.358
  0
LINE
  8
0
 10
44.2989
 20
-517.358
 11
41.8647
 21
-517.81
  0
LINE
  8
0
 10
41.8647
 20
-517.81
 11
39.4259
 21
-518.235
  0
LINE
  8
0
 10
39.4259
 20
-518.235
 11
36.9827
 21
-518.635
  0
LINE
  8
0
 10
36.9827
 20
-518.635
 11
34.5356
 21
-519.01
  0
LINE
  8
0
 10
34.5356
 20
-519.01
 11
32.0846
 21
-519.359
  0
LINE
  8
0
 10
32.0846
 20
-519.359
 11
29.6301
 21
-519.682
  0
LINE
  8
0
 10
29.6301
 20
-519.682
 11
27.1723
 21
-519.979
  0
LINE
  8
0
 10
27.1723
 20
-519.979
 11
24.7116
 21
-520.251
  0
LINE
  8
0
 10
24.7116
 20
-520.251
 11
22.2482
 21
-520.497
  0
LINE
  8
0
 10
22.2482
 20
-520.497
 11
19.7823
 21
-520.717
  0
LINE
  8
0
 10
19.7823
 20
-520.717
 11
17.3143
 21
-520.911
  0
LINE
  8
0
 10
17.3143
 20
-520.911
 11
14.8443
 21
-521.079
  0
LINE
  8
0
 10
14.8443
 20
-521.079
 11
12.3728
 21
-521.222
  0
LINE
  8
0
 10
12.3728
 20
-521.222
 11
9.89984
 21
-521.339
  0
LINE
  8
0
 10
9.89984
 20
-521.339
 11
7.42583
 21
-521.429
  0
LINE
  8
0
 10
7.42583
 20
-521.429
 11
4.951
 21
-521.494
  0
LINE
  8
0
 10
4.951
 20
-521.494
 11
2.47563
 21
-521.533
  0
LINE
  8
0
 10
2.47563
 20
-521.533
 11
0
 21
-521.546
  0
LINE
  8
0
 10
0
 20
-521.546
 11
-2.47563
 21
-521.533
  0
LINE
  8
0
 10
81.8312
 20
-54.0512
 11
81.3778
 21
-53.7946
  0
LINE
  8
0
 10
81.3778
 20
-53.7946
 11
81.0395
 21
-53.3985
  0
LINE
  8
0
 10
81.0395
 20
-53.3985
 11
80.8571
 21
-52.9106
  0
LINE
  8
0
 10
80.8571
 20
-52.9106
 11
80.8525
 21
-52.3896
  0
LINE
  8
0
 10
80.8525
 20
-52.3896
 11
81.0264
 21
-51.8986
  0
LINE
  8
0
 10
81.0264
 20
-51.8986
 11
81.3578
 21
-51.4966
  0
LINE
  8
0
 10
81.3578
 20
-51.4966
 11
81.8066
 21
-51.2322
  0
LINE
  8
0
 10
81.8066
 20
-51.2322
 11
82.3188
 21
-51.1373
  0
LINE
  8
0
 10
82.3188
 20
-51.1373
 11
82.8326
 21
-51.2233
  0
LINE
  8
0
 10
82.8326
 20
-51.2233
 11
83.2861
 21
-51.4798
  0
LINE
  8
0
 10
83.2861
 20
-51.4798
 11
83.6244
 21
-51.8759
  0
LINE
  8
0
 10
83.6244
 20
-51.8759
 11
83.8068
 21
-52.3639
  0
LINE
  8
0
 10
83.8068
 20
-52.3639
 11
83.8114
 21
-52.8848
  0
LINE
  8
0
 10
83.8114
 20
-52.8848
 11
83.6375
 21
-53.3758
  0
LINE
  8
0
 10
83.6375
 20
-53.3758
 11
83.3061
 21
-53.7778
  0
LINE
  8
0
 10
83.3061
 20
-53.7778
 11
82.8573
 21
-54.0422
  0
LINE
  8
0
 10
82.8573
 20
-54.0422
 11
82.345
 21
-54.1371
  0
LINE
  8
0
 10
82.345
 20
-54.1371
 11
81.8312
 21
-54.0512
  0
LINE
  8
0
 10
-106.559
 20
-63.9691
 11
-107.033
 21
-63.7531
  0
LINE
  8
0
 10
-107.033
 20
-63.7531
 11
-107.405
 21
-63.3879
  0
LINE
  8
0
 10
-107.405
 20
-63.3879
 11
-107.629
 21
-62.9178
  0
LINE
  8
0
 10
-107.629
 20
-62.9178
 11
-107.679
 21
-62.3992
  0
LINE
  8
0
 10
-107.679
 20
-62.3992
 11
-107.549
 21
-61.8949
  0
LINE
  8
0
 10
-107.549
 20
-61.8949
 11
-107.253
 21
-61.4655
  0
LINE
  8
0
 10
-107.253
 20
-61.4655
 11
-106.829
 21
-61.163
  0
LINE
  8
0
 10
-106.829
 20
-61.163
 11
-106.327
 21
-61.0238
  0
LINE
  8
0
 10
-106.327
 20
-61.0238
 11
-105.808
 21
-61.0647
  0
LINE
  8
0
 10
-105.808
 20
-61.0647
 11
-105.334
 21
-61.2807
  0
LINE
  8
0
 10
-105.334
 20
-61.2807
 11
-104.962
 21
-61.6458
  0
LINE
  8
0
 10
-104.962
 20
-61.6458
 11
-104.738
 21
-62.116
  0
LINE
  8
0
 10
-104.738
 20
-62.116
 11
-104.688
 21
-62.6346
  0
LINE
  8
0
 10
-104.688
 20
-62.6346
 11
-104.819
 21
-63.1389
  0
LINE
  8
0
 10
-104.819
 20
-63.1389
 11
-105.114
 21
-63.5683
  0
LINE
  8
0
 10
-105.114
 20
-63.5683
 11
-105.538
 21
-63.8708
  0
LINE
  8
0
 10
-105.538
 20
-63.8708
 11
-106.04
 21
-64.01
  0
LINE
  8
0
 10
-106.04
 20
-64.01
 11
-106.559
 21
-63.9691
  0
LINE
  8
0
 10
116.973
 20
-69.6974
 11
116.566
 21
-69.3731
  0
LINE
  8
0
 10
116.566
 20
-69.3731
 11
116.293
 21
-68.929
  0
LINE
  8
0
 10
116.293
 20
-68.929
 11
116.19
 21
-68.4185
  0
LINE
  8
0
 10
116.19
 20
-68.4185
 11
116.267
 21
-67.9032
  0
LINE
  8
0
 10
116.267
 20
-67.9032
 11
116.515
 21
-67.4454
  0
LINE
  8
0
 10
116.515
 20
-67.4454
 11
116.905
 21
-67.1003
  0
LINE
  8
0
 10
116.905
 20
-67.1003
 11
117.39
 21
-66.9093
  0
LINE
  8
0
 10
117.39
 20
-66.9093
 11
117.911
 21
-66.8957
  0
LINE
  8
0
 10
117.911
 20
-66.8957
 11
118.405
 21
-67.061
  0
LINE
  8
0
 10
118.405
 20
-67.061
 11
118.812
 21
-67.3853
  0
LINE
  8
0
 10
118.812
 20
-67.3853
 11
119.085
 21
-67.8295
  0
LINE
  8
0
 10
119.085
 20
-67.8295
 11
119.189
 21
-68.3399
  0
LINE
  8
0
 10
119.189
 20
-68.3399
 11
119.112
 21
-68.8552
  0
LINE
  8
0
 10
119.112
 20
-68.8552
 11
118.863
 21
-69.313
  0
LINE
  8
0
 10
118.863
 20
-69.313
 11
118.473
 21
-69.6582
  0
LINE
  8
0
 10
118.473
 20
-69.6582
 11
117.988
 21
-69.8491
  0
LINE
  8
0
 10
117.988
 20
-69.8491
 11
117.467
 21
-69.8627
  0
LINE
  8
0
 10
117.467
 20
-69.8627
 11
116.973
 21
-69.6974
  0
LINE
  8
0
 10
-140.347
 20
-83.2224
 11
-140.771
 21
-82.9198
  0
LINE
  8
0
 10
-140.771
 20
-82.9198
 11
-141.066
 21
-82.4905
  0
LINE
  8
0
 10
-141.066
 20
-82.4905
 11
-141.197
 21
-81.9862
  0
LINE
  8
0
 10
-141.197
 20
-81.9862
 11
-141.147
 21
-81.4676
  0
LINE
  8
0
 10
-141.147
 20
-81.4676
 11
-140.923
 21
-80.9974
  0
LINE
  8
0
 10
-140.923
 20
-80.9974
 11
-140.551
 21
-80.6323
  0
LINE
  8
0
 10
-140.551
 20
-80.6323
 11
-140.077
 21
-80.4162
  0
LINE
  8
0
 10
-140.077
 20
-80.4162
 11
-139.558
 21
-80.3754
  0
LINE
  8
0
 10
-139.558
 20
-80.3754
 11
-139.056
 21
-80.5146
  0
LINE
  8
0
 10
-139.056
 20
-80.5146
 11
-138.632
 21
-80.8171
  0
LINE
  8
0
 10
-138.632
 20
-80.8171
 11
-138.337
 21
-81.2464
  0
LINE
  8
0
 10
-138.337
 20
-81.2464
 11
-138.206
 21
-81.7508
  0
LINE
  8
0
 10
-138.206
 20
-81.7508
 11
-138.256
 21
-82.2693
  0
LINE
  8
0
 10
-138.256
 20
-82.2693
 11
-138.48
 21
-82.7395
  0
LINE
  8
0
 10
-138.48
 20
-82.7395
 11
-138.852
 21
-83.1047
  0
LINE
  8
0
 10
-138.852
 20
-83.1047
 11
-139.326
 21
-83.3207
  0
LINE
  8
0
 10
-139.326
 20
-83.3207
 11
-139.845
 21
-83.3616
  0
LINE
  8
0
 10
-139.845
 20
-83.3616
 11
-140.347
 21
-83.2224
  0
LINE
  8
0
 10
149.697
 20
-90.889
 11
149.235
 21
-90.6485
  0
LINE
  8
0
 10
149.235
 20
-90.6485
 11
148.883
 21
-90.2644
  0
LINE
  8
0
 10
148.883
 20
-90.2644
 11
148.684
 21
-89.7831
  0
LINE
  8
0
 10
148.684
 20
-89.7831
 11
148.661
 21
-89.2627
  0
LINE
  8
0
 10
148.661
 20
-89.2627
 11
148.818
 21
-88.7658
  0
LINE
  8
0
 10
148.818
 20
-88.7658
 11
149.135
 21
-88.3525
  0
LINE
  8
0
 10
149.135
 20
-88.3525
 11
149.574
 21
-88.0726
  0
LINE
  8
0
 10
149.574
 20
-88.0726
 11
150.083
 21
-87.9599
  0
LINE
  8
0
 10
150.083
 20
-87.9599
 11
150.599
 21
-88.0279
  0
LINE
  8
0
 10
150.599
 20
-88.0279
 11
151.061
 21
-88.2684
  0
LINE
  8
0
 10
151.061
 20
-88.2684
 11
151.413
 21
-88.6525
  0
LINE
  8
0
 10
151.413
 20
-88.6525
 11
151.613
 21
-89.1338
  0
LINE
  8
0
 10
151.613
 20
-89.1338
 11
151.635
 21
-89.6542
  0
LINE
  8
0
 10
151.635
 20
-89.6542
 11
151.479
 21
-90.1511
  0
LINE
  8
0
 10
151.479
 20
-90.1511
 11
151.162
 21
-90.5644
  0
LINE
  8
0
 10
151.162
 20
-90.5644
 11
150.722
 21
-90.8443
  0
LINE
  8
0
 10
150.722
 20
-90.8443
 11
150.214
 21
-90.957
  0
LINE
  8
0
 10
150.214
 20
-90.957
 11
149.697
 21
-90.889
  0
LINE
  8
0
 10
-170.206
 20
-107.663
 11
-170.672
 21
-107.431
  0
LINE
  8
0
 10
-170.672
 20
-107.431
 11
-171.03
 21
-107.053
  0
LINE
  8
0
 10
-171.03
 20
-107.053
 11
-171.238
 21
-106.575
  0
LINE
  8
0
 10
-171.238
 20
-106.575
 11
-171.27
 21
-106.055
  0
LINE
  8
0
 10
-171.27
 20
-106.055
 11
-171.122
 21
-105.556
  0
LINE
  8
0
 10
-171.122
 20
-105.556
 11
-170.812
 21
-105.137
  0
LINE
  8
0
 10
-170.812
 20
-105.137
 11
-170.378
 21
-104.85
  0
LINE
  8
0
 10
-170.378
 20
-104.85
 11
-169.871
 21
-104.728
  0
LINE
  8
0
 10
-169.871
 20
-104.728
 11
-169.354
 21
-104.787
  0
LINE
  8
0
 10
-169.354
 20
-104.787
 11
-168.887
 21
-105.019
  0
LINE
  8
0
 10
-168.887
 20
-105.019
 11
-168.529
 21
-105.397
  0
LINE
  8
0
 10
-168.529
 20
-105.397
 11
-168.321
 21
-105.875
  0
LINE
  8
0
 10
-168.321
 20
-105.875
 11
-168.289
 21
-106.395
  0
LINE
  8
0
 10
-168.289
 20
-106.395
 11
-168.437
 21
-106.894
  0
LINE
  8
0
 10
-168.437
 20
-106.894
 11
-168.747
 21
-107.313
  0
LINE
  8
0
 10
-168.747
 20
-107.313
 11
-169.181
 21
-107.601
  0
LINE
  8
0
 10
-169.181
 20
-107.601
 11
-169.688
 21
-107.722
  0
LINE
  8
0
 10
-169.688
 20
-107.722
 11
-170.206
 21
-107.663
  0
LINE
  8
0
 10
178.241
 20
-116.698
 11
177.822
 21
-116.388
  0
LINE
  8
0
 10
177.822
 20
-116.388
 11
177.535
 21
-115.954
  0
LINE
  8
0
 10
177.535
 20
-115.954
 11
177.413
 21
-115.447
  0
LINE
  8
0
 10
177.413
 20
-115.447
 11
177.472
 21
-114.93
  0
LINE
  8
0
 10
177.472
 20
-114.93
 11
177.704
 21
-114.464
  0
LINE
  8
0
 10
177.704
 20
-114.464
 11
178.082
 21
-114.105
  0
LINE
  8
0
 10
178.082
 20
-114.105
 11
178.56
 21
-113.897
  0
LINE
  8
0
 10
178.56
 20
-113.897
 11
179.08
 21
-113.866
  0
LINE
  8
0
 10
179.08
 20
-113.866
 11
179.58
 21
-114.014
  0
LINE
  8
0
 10
179.58
 20
-114.014
 11
179.998
 21
-114.323
  0
LINE
  8
0
 10
179.998
 20
-114.323
 11
180.286
 21
-114.758
  0
LINE
  8
0
 10
180.286
 20
-114.758
 11
180.407
 21
-115.264
  0
LINE
  8
0
 10
180.407
 20
-115.264
 11
180.349
 21
-115.782
  0
LINE
  8
0
 10
180.349
 20
-115.782
 11
180.116
 21
-116.248
  0
LINE
  8
0
 10
180.116
 20
-116.248
 11
179.738
 21
-116.607
  0
LINE
  8
0
 10
179.738
 20
-116.607
 11
179.26
 21
-116.814
  0
LINE
  8
0
 10
179.26
 20
-116.814
 11
178.74
 21
-116.846
  0
LINE
  8
0
 10
178.74
 20
-116.846
 11
178.241
 21
-116.698
  0
LINE
  8
0
 10
-196.37
 20
-136.318
 11
-196.783
 21
-136.001
  0
LINE
  8
0
 10
-196.783
 20
-136.001
 11
-197.063
 21
-135.561
  0
LINE
  8
0
 10
-197.063
 20
-135.561
 11
-197.176
 21
-135.053
  0
LINE
  8
0
 10
-197.176
 20
-135.053
 11
-197.108
 21
-134.536
  0
LINE
  8
0
 10
-197.108
 20
-134.536
 11
-196.867
 21
-134.074
  0
LINE
  8
0
 10
-196.867
 20
-134.074
 11
-196.483
 21
-133.722
  0
LINE
  8
0
 10
-196.483
 20
-133.722
 11
-196.002
 21
-133.523
  0
LINE
  8
0
 10
-196.002
 20
-133.523
 11
-195.481
 21
-133.5
  0
LINE
  8
0
 10
-195.481
 20
-133.5
 11
-194.984
 21
-133.657
  0
LINE
  8
0
 10
-194.984
 20
-133.657
 11
-194.571
 21
-133.974
  0
LINE
  8
0
 10
-194.571
 20
-133.974
 11
-194.291
 21
-134.413
  0
LINE
  8
0
 10
-194.291
 20
-134.413
 11
-194.178
 21
-134.922
  0
LINE
  8
0
 10
-194.178
 20
-134.922
 11
-194.246
 21
-135.438
  0
LINE
  8
0
 10
-194.246
 20
-135.438
 11
-194.487
 21
-135.9
  0
LINE
  8
0
 10
-194.487
 20
-135.9
 11
-194.871
 21
-136.252
  0
LINE
  8
0
 10
-194.871
 20
-136.252
 11
-195.352
 21
-136.452
  0
LINE
  8
0
 10
-195.352
 20
-136.452
 11
-195.873
 21
-136.474
  0
LINE
  8
0
 10
-195.873
 20
-136.474
 11
-196.37
 21
-136.318
  0
LINE
  8
0
 10
202.866
 20
-146.879
 11
202.396
 21
-146.655
  0
LINE
  8
0
 10
202.396
 20
-146.655
 11
202.031
 21
-146.284
  0
LINE
  8
0
 10
202.031
 20
-146.284
 11
201.815
 21
-145.809
  0
LINE
  8
0
 10
201.815
 20
-145.809
 11
201.774
 21
-145.29
  0
LINE
  8
0
 10
201.774
 20
-145.29
 11
201.913
 21
-144.788
  0
LINE
  8
0
 10
201.913
 20
-144.788
 11
202.216
 21
-144.364
  0
LINE
  8
0
 10
202.216
 20
-144.364
 11
202.645
 21
-144.069
  0
LINE
  8
0
 10
202.645
 20
-144.069
 11
203.149
 21
-143.939
  0
LINE
  8
0
 10
203.149
 20
-143.939
 11
203.668
 21
-143.988
  0
LINE
  8
0
 10
203.668
 20
-143.988
 11
204.138
 21
-144.213
  0
LINE
  8
0
 10
204.138
 20
-144.213
 11
204.503
 21
-144.584
  0
LINE
  8
0
 10
204.503
 20
-144.584
 11
204.719
 21
-145.058
  0
LINE
  8
0
 10
204.719
 20
-145.058
 11
204.76
 21
-145.578
  0
LINE
  8
0
 10
204.76
 20
-145.578
 11
204.621
 21
-146.08
  0
LINE
  8
0
 10
204.621
 20
-146.08
 11
204.318
 21
-146.504
  0
LINE
  8
0
 10
204.318
 20
-146.504
 11
203.889
 21
-146.799
  0
LINE
  8
0
 10
203.889
 20
-146.799
 11
203.385
 21
-146.929
  0
LINE
  8
0
 10
203.385
 20
-146.929
 11
202.866
 21
-146.879
  0
LINE
  8
0
 10
-217.232
 20
-168.869
 11
-217.69
 21
-168.62
  0
LINE
  8
0
 10
-217.69
 20
-168.62
 11
-218.035
 21
-168.23
  0
LINE
  8
0
 10
-218.035
 20
-168.23
 11
-218.226
 21
-167.745
  0
LINE
  8
0
 10
-218.226
 20
-167.745
 11
-218.24
 21
-167.225
  0
LINE
  8
0
 10
-218.24
 20
-167.225
 11
-218.074
 21
-166.731
  0
LINE
  8
0
 10
-218.074
 20
-166.731
 11
-217.75
 21
-166.323
  0
LINE
  8
0
 10
-217.75
 20
-166.323
 11
-217.306
 21
-166.051
  0
LINE
  8
0
 10
-217.306
 20
-166.051
 11
-216.796
 21
-165.947
  0
LINE
  8
0
 10
-216.796
 20
-165.947
 11
-216.28
 21
-166.024
  0
LINE
  8
0
 10
-216.28
 20
-166.024
 11
-215.822
 21
-166.272
  0
LINE
  8
0
 10
-215.822
 20
-166.272
 11
-215.477
 21
-166.663
  0
LINE
  8
0
 10
-215.477
 20
-166.663
 11
-215.286
 21
-167.147
  0
LINE
  8
0
 10
-215.286
 20
-167.147
 11
-215.273
 21
-167.668
  0
LINE
  8
0
 10
-215.273
 20
-167.668
 11
-215.438
 21
-168.162
  0
LINE
  8
0
 10
-215.438
 20
-168.162
 11
-215.762
 21
-168.57
  0
LINE
  8
0
 10
-215.762
 20
-168.57
 11
-216.206
 21
-168.842
  0
LINE
  8
0
 10
-216.206
 20
-168.842
 11
-216.717
 21
-168.946
  0
LINE
  8
0
 10
-216.717
 20
-168.946
 11
-217.232
 21
-168.869
  0
LINE
  8
0
 10
221.997
 20
-180.317
 11
221.567
 21
-180.022
  0
LINE
  8
0
 10
221.567
 20
-180.022
 11
221.265
 21
-179.598
  0
LINE
  8
0
 10
221.265
 20
-179.598
 11
221.125
 21
-179.096
  0
LINE
  8
0
 10
221.125
 20
-179.096
 11
221.166
 21
-178.576
  0
LINE
  8
0
 10
221.166
 20
-178.576
 11
221.382
 21
-178.102
  0
LINE
  8
0
 10
221.382
 20
-178.102
 11
221.747
 21
-177.731
  0
LINE
  8
0
 10
221.747
 20
-177.731
 11
222.218
 21
-177.506
  0
LINE
  8
0
 10
222.218
 20
-177.506
 11
222.736
 21
-177.456
  0
LINE
  8
0
 10
222.736
 20
-177.456
 11
223.241
 21
-177.587
  0
LINE
  8
0
 10
223.241
 20
-177.587
 11
223.67
 21
-177.882
  0
LINE
  8
0
 10
223.67
 20
-177.882
 11
223.972
 21
-178.306
  0
LINE
  8
0
 10
223.972
 20
-178.306
 11
224.112
 21
-178.808
  0
LINE
  8
0
 10
224.112
 20
-178.808
 11
224.071
 21
-179.327
  0
LINE
  8
0
 10
224.071
 20
-179.327
 11
223.855
 21
-179.801
  0
LINE
  8
0
 10
223.855
 20
-179.801
 11
223.49
 21
-180.173
  0
LINE
  8
0
 10
223.49
 20
-180.173
 11
223.019
 21
-180.397
  0
LINE
  8
0
 10
223.019
 20
-180.397
 11
222.501
 21
-180.447
  0
LINE
  8
0
 10
222.501
 20
-180.447
 11
221.997
 21
-180.317
  0
LINE
  8
0
 10
-233.237
 20
-204.109
 11
-233.639
 21
-203.778
  0
LINE
  8
0
 10
-233.639
 20
-203.778
 11
-233.903
 21
-203.329
  0
LINE
  8
0
 10
-233.903
 20
-203.329
 11
-233.998
 21
-202.817
  0
LINE
  8
0
 10
-233.998
 20
-202.817
 11
-233.912
 21
-202.303
  0
LINE
  8
0
 10
-233.912
 20
-202.303
 11
-233.656
 21
-201.849
  0
LINE
  8
0
 10
-233.656
 20
-201.849
 11
-233.26
 21
-201.511
  0
LINE
  8
0
 10
-233.26
 20
-201.511
 11
-232.772
 21
-201.329
  0
LINE
  8
0
 10
-232.772
 20
-201.329
 11
-232.251
 21
-201.324
  0
LINE
  8
0
 10
-232.251
 20
-201.324
 11
-231.76
 21
-201.498
  0
LINE
  8
0
 10
-231.76
 20
-201.498
 11
-231.358
 21
-201.829
  0
LINE
  8
0
 10
-231.358
 20
-201.829
 11
-231.093
 21
-202.278
  0
LINE
  8
0
 10
-231.093
 20
-202.278
 11
-230.998
 21
-202.79
  0
LINE
  8
0
 10
-230.998
 20
-202.79
 11
-231.084
 21
-203.304
  0
LINE
  8
0
 10
-231.084
 20
-203.304
 11
-231.341
 21
-203.758
  0
LINE
  8
0
 10
-231.341
 20
-203.758
 11
-231.737
 21
-204.096
  0
LINE
  8
0
 10
-231.737
 20
-204.096
 11
-232.225
 21
-204.278
  0
LINE
  8
0
 10
-232.225
 20
-204.278
 11
-232.746
 21
-204.283
  0
LINE
  8
0
 10
-232.746
 20
-204.283
 11
-233.237
 21
-204.109
  0
LINE
  8
0
 10
236.138
 20
-216.543
 11
235.661
 21
-216.335
  0
LINE
  8
0
 10
235.661
 20
-216.335
 11
235.283
 21
-215.977
  0
LINE
  8
0
 10
235.283
 20
-215.977
 11
235.05
 21
-215.51
  0
LINE
  8
0
 10
235.05
 20
-215.51
 11
234.991
 21
-214.993
  0
LINE
  8
0
 10
234.991
 20
-214.993
 11
235.113
 21
-214.486
  0
LINE
  8
0
 10
235.113
 20
-214.486
 11
235.4
 21
-214.052
  0
LINE
  8
0
 10
235.4
 20
-214.052
 11
235.819
 21
-213.742
  0
LINE
  8
0
 10
235.819
 20
-213.742
 11
236.319
 21
-213.594
  0
LINE
  8
0
 10
236.319
 20
-213.594
 11
236.839
 21
-213.626
  0
LINE
  8
0
 10
236.839
 20
-213.626
 11
237.316
 21
-213.834
  0
LINE
  8
0
 10
237.316
 20
-213.834
 11
237.694
 21
-214.192
  0
LINE
  8
0
 10
237.694
 20
-214.192
 11
237.927
 21
-214.658
  0
LINE
  8
0
 10
237.927
 20
-214.658
 11
237.986
 21
-215.176
  0
LINE
  8
0
 10
237.986
 20
-215.176
 11
237.864
 21
-215.682
  0
LINE
  8
0
 10
237.864
 20
-215.682
 11
237.577
 21
-216.117
  0
LINE
  8
0
 10
237.577
 20
-216.117
 11
237.158
 21
-216.427
  0
LINE
  8
0
 10
237.158
 20
-216.427
 11
236.658
 21
-216.575
  0
LINE
  8
0
 10
236.658
 20
-216.575
 11
236.138
 21
-216.543
  0
LINE
  8
0
 10
-243.041
 20
-241.593
 11
-243.49
 21
-241.328
  0
LINE
  8
0
 10
-243.49
 20
-241.328
 11
-243.821
 21
-240.927
  0
LINE
  8
0
 10
-243.821
 20
-240.927
 11
-243.995
 21
-240.435
  0
LINE
  8
0
 10
-243.995
 20
-240.435
 11
-243.99
 21
-239.915
  0
LINE
  8
0
 10
-243.99
 20
-239.915
 11
-243.808
 21
-239.427
  0
LINE
  8
0
 10
-243.808
 20
-239.427
 11
-243.469
 21
-239.03
  0
LINE
  8
0
 10
-243.469
 20
-239.03
 11
-243.016
 21
-238.774
  0
LINE
  8
0
 10
-243.016
 20
-238.774
 11
-242.502
 21
-238.688
  0
LINE
  8
0
 10
-242.502
 20
-238.688
 11
-241.99
 21
-238.783
  0
LINE
  8
0
 10
-241.99
 20
-238.783
 11
-241.541
 21
-239.047
  0
LINE
  8
0
 10
-241.541
 20
-239.047
 11
-241.21
 21
-239.449
  0
LINE
  8
0
 10
-241.21
 20
-239.449
 11
-241.036
 21
-239.94
  0
LINE
  8
0
 10
-241.036
 20
-239.94
 11
-241.04
 21
-240.461
  0
LINE
  8
0
 10
-241.04
 20
-240.461
 11
-241.223
 21
-240.949
  0
LINE
  8
0
 10
-241.223
 20
-240.949
 11
-241.561
 21
-241.345
  0
LINE
  8
0
 10
-241.561
 20
-241.345
 11
-242.015
 21
-241.602
  0
LINE
  8
0
 10
-242.015
 20
-241.602
 11
-242.528
 21
-241.688
  0
LINE
  8
0
 10
-242.528
 20
-241.688
 11
-243.041
 21
-241.593
  0
LINE
  8
0
 10
243.961
 20
-254.328
 11
243.522
 21
-254.048
  0
LINE
  8
0
 10
243.522
 20
-254.048
 11
243.205
 21
-253.634
  0
LINE
  8
0
 10
243.205
 20
-253.634
 11
243.048
 21
-253.138
  0
LINE
  8
0
 10
243.048
 20
-253.138
 11
243.071
 21
-252.617
  0
LINE
  8
0
 10
243.071
 20
-252.617
 11
243.27
 21
-252.136
  0
LINE
  8
0
 10
243.27
 20
-252.136
 11
243.622
 21
-251.752
  0
LINE
  8
0
 10
243.622
 20
-251.752
 11
244.084
 21
-251.511
  0
LINE
  8
0
 10
244.084
 20
-251.511
 11
244.601
 21
-251.443
  0
LINE
  8
0
 10
244.601
 20
-251.443
 11
245.109
 21
-251.556
  0
LINE
  8
0
 10
245.109
 20
-251.556
 11
245.549
 21
-251.836
  0
LINE
  8
0
 10
245.549
 20
-251.836
 11
245.866
 21
-252.249
  0
LINE
  8
0
 10
245.866
 20
-252.249
 11
246.023
 21
-252.746
  0
LINE
  8
0
 10
246.023
 20
-252.746
 11
246
 21
-253.266
  0
LINE
  8
0
 10
246
 20
-253.266
 11
245.8
 21
-253.748
  0
LINE
  8
0
 10
245.8
 20
-253.748
 11
245.449
 21
-254.132
  0
LINE
  8
0
 10
245.449
 20
-254.132
 11
244.986
 21
-254.372
  0
LINE
  8
0
 10
244.986
 20
-254.372
 11
244.47
 21
-254.44
  0
LINE
  8
0
 10
244.47
 20
-254.44
 11
243.961
 21
-254.328
  0
LINE
  8
0
 10
-246.86
 20
-280.149
 11
-247.345
 21
-279.958
  0
LINE
  8
0
 10
-247.345
 20
-279.958
 11
-247.735
 21
-279.613
  0
LINE
  8
0
 10
-247.735
 20
-279.613
 11
-247.983
 21
-279.155
  0
LINE
  8
0
 10
-247.983
 20
-279.155
 11
-248.06
 21
-278.64
  0
LINE
  8
0
 10
-248.06
 20
-278.64
 11
-247.957
 21
-278.129
  0
LINE
  8
0
 10
-247.957
 20
-278.129
 11
-247.684
 21
-277.685
  0
LINE
  8
0
 10
-247.684
 20
-277.685
 11
-247.277
 21
-277.361
  0
LINE
  8
0
 10
-247.277
 20
-277.361
 11
-246.783
 21
-277.195
  0
LINE
  8
0
 10
-246.783
 20
-277.195
 11
-246.262
 21
-277.209
  0
LINE
  8
0
 10
-246.262
 20
-277.209
 11
-245.777
 21
-277.4
  0
LINE
  8
0
 10
-245.777
 20
-277.4
 11
-245.387
 21
-277.745
  0
LINE
  8
0
 10
-245.387
 20
-277.745
 11
-245.138
 21
-278.203
  0
LINE
  8
0
 10
-245.138
 20
-278.203
 11
-245.061
 21
-278.718
  0
LINE
  8
0
 10
-245.061
 20
-278.718
 11
-245.165
 21
-279.229
  0
LINE
  8
0
 10
-245.165
 20
-279.229
 11
-245.437
 21
-279.673
  0
LINE
  8
0
 10
-245.437
 20
-279.673
 11
-245.845
 21
-279.997
  0
LINE
  8
0
 10
-245.845
 20
-279.997
 11
-246.339
 21
-280.163
  0
LINE
  8
0
 10
-246.339
 20
-280.163
 11
-246.86
 21
-280.149
  0
LINE
  8
0
 10
246.262
 20
-293.062
 11
245.777
 21
-292.871
  0
LINE
  8
0
 10
245.777
 20
-292.871
 11
245.387
 21
-292.526
  0
LINE
  8
0
 10
245.387
 20
-292.526
 11
245.138
 21
-292.068
  0
LINE
  8
0
 10
245.138
 20
-292.068
 11
245.061
 21
-291.553
  0
LINE
  8
0
 10
245.061
 20
-291.553
 11
245.165
 21
-291.042
  0
LINE
  8
0
 10
245.165
 20
-291.042
 11
245.437
 21
-290.598
  0
LINE
  8
0
 10
245.437
 20
-290.598
 11
245.845
 21
-290.274
  0
LINE
  8
0
 10
245.845
 20
-290.274
 11
246.339
 21
-290.108
  0
LINE
  8
0
 10
246.339
 20
-290.108
 11
246.86
 21
-290.122
  0
LINE
  8
0
 10
246.86
 20
-290.122
 11
247.345
 21
-290.313
  0
LINE
  8
0
 10
247.345
 20
-290.313
 11
247.735
 21
-290.658
  0
LINE
  8
0
 10
247.735
 20
-290.658
 11
247.983
 21
-291.116
  0
LINE
  8
0
 10
247.983
 20
-291.116
 11
248.06
 21
-291.631
  0
LINE
  8
0
 10
248.06
 20
-291.631
 11
247.957
 21
-292.142
  0
LINE
  8
0
 10
247.957
 20
-292.142
 11
247.684
 21
-292.586
  0
LINE
  8
0
 10
247.684
 20
-292.586
 11
247.277
 21
-292.91
  0
LINE
  8
0
 10
247.277
 20
-292.91
 11
246.783
 21
-293.075
  0
LINE
  8
0
 10
246.783
 20
-293.075
 11
246.262
 21
-293.062
  0
LINE
  8
0
 10
-245.109
 20
-318.715
 11
-245.549
 21
-318.435
  0
LINE
  8
0
 10
-245.549
 20
-318.435
 11
-245.866
 21
-318.022
  0
LINE
  8
0
 10
-245.866
 20
-318.022
 11
-246.023
 21
-317.525
  0
LINE
  8
0
 10
-246.023
 20
-317.525
 11
-246
 21
-317.004
  0
LINE
  8
0
 10
-246
 20
-317.004
 11
-245.8
 21
-316.523
  0
LINE
  8
0
 10
-245.8
 20
-316.523
 11
-245.449
 21
-316.139
  0
LINE
  8
0
 10
-245.449
 20
-316.139
 11
-244.986
 21
-315.899
  0
LINE
  8
0
 10
-244.986
 20
-315.899
 11
-244.47
 21
-315.831
  0
LINE
  8
0
 10
-244.47
 20
-315.831
 11
-243.961
 21
-315.943
  0
LINE
  8
0
 10
-243.961
 20
-315.943
 11
-243.522
 21
-316.223
  0
LINE
  8
0
 10
-243.522
 20
-316.223
 11
-243.205
 21
-316.637
  0
LINE
  8
0
 10
-243.205
 20
-316.637
 11
-243.048
 21
-317.133
  0
LINE
  8
0
 10
-243.048
 20
-317.133
 11
-243.071
 21
-317.654
  0
LINE
  8
0
 10
-243.071
 20
-317.654
 11
-243.27
 21
-318.135
  0
LINE
  8
0
 10
-243.27
 20
-318.135
 11
-243.622
 21
-318.519
  0
LINE
  8
0
 10
-243.622
 20
-318.519
 11
-244.084
 21
-318.76
  0
LINE
  8
0
 10
-244.084
 20
-318.76
 11
-244.601
 21
-318.828
  0
LINE
  8
0
 10
-244.601
 20
-318.828
 11
-245.109
 21
-318.715
  0
LINE
  8
0
 10
241.99
 20
-331.488
 11
241.541
 21
-331.224
  0
LINE
  8
0
 10
241.541
 20
-331.224
 11
241.21
 21
-330.822
  0
LINE
  8
0
 10
241.21
 20
-330.822
 11
241.036
 21
-330.331
  0
LINE
  8
0
 10
241.036
 20
-330.331
 11
241.04
 21
-329.81
  0
LINE
  8
0
 10
241.04
 20
-329.81
 11
241.223
 21
-329.322
  0
LINE
  8
0
 10
241.223
 20
-329.322
 11
241.561
 21
-328.926
  0
LINE
  8
0
 10
241.561
 20
-328.926
 11
242.015
 21
-328.669
  0
LINE
  8
0
 10
242.015
 20
-328.669
 11
242.528
 21
-328.583
  0
LINE
  8
0
 10
242.528
 20
-328.583
 11
243.041
 21
-328.678
  0
LINE
  8
0
 10
243.041
 20
-328.678
 11
243.49
 21
-328.942
  0
LINE
  8
0
 10
243.49
 20
-328.942
 11
243.821
 21
-329.344
  0
LINE
  8
0
 10
243.821
 20
-329.344
 11
243.995
 21
-329.835
  0
LINE
  8
0
 10
243.995
 20
-329.835
 11
243.99
 21
-330.356
  0
LINE
  8
0
 10
243.99
 20
-330.356
 11
243.808
 21
-330.844
  0
LINE
  8
0
 10
243.808
 20
-330.844
 11
243.469
 21
-331.24
  0
LINE
  8
0
 10
243.469
 20
-331.24
 11
243.016
 21
-331.497
  0
LINE
  8
0
 10
243.016
 20
-331.497
 11
242.502
 21
-331.583
  0
LINE
  8
0
 10
242.502
 20
-331.583
 11
241.99
 21
-331.488
  0
LINE
  8
0
 10
-236.839
 20
-356.645
 11
-237.316
 21
-356.437
  0
LINE
  8
0
 10
-237.316
 20
-356.437
 11
-237.694
 21
-356.079
  0
LINE
  8
0
 10
-237.694
 20
-356.079
 11
-237.927
 21
-355.613
  0
LINE
  8
0
 10
-237.927
 20
-355.613
 11
-237.986
 21
-355.095
  0
LINE
  8
0
 10
-237.986
 20
-355.095
 11
-237.864
 21
-354.588
  0
LINE
  8
0
 10
-237.864
 20
-354.588
 11
-237.577
 21
-354.154
  0
LINE
  8
0
 10
-237.577
 20
-354.154
 11
-237.158
 21
-353.844
  0
LINE
  8
0
 10
-237.158
 20
-353.844
 11
-236.658
 21
-353.696
  0
LINE
  8
0
 10
-236.658
 20
-353.696
 11
-236.138
 21
-353.728
  0
LINE
  8
0
 10
-236.138
 20
-353.728
 11
-235.661
 21
-353.936
  0
LINE
  8
0
 10
-235.661
 20
-353.936
 11
-235.283
 21
-354.294
  0
LINE
  8
0
 10
-235.283
 20
-354.294
 11
-235.05
 21
-354.76
  0
LINE
  8
0
 10
-235.05
 20
-354.76
 11
-234.991
 21
-355.278
  0
LINE
  8
0
 10
-234.991
 20
-355.278
 11
-235.113
 21
-355.785
  0
LINE
  8
0
 10
-235.113
 20
-355.785
 11
-235.4
 21
-356.219
  0
LINE
  8
0
 10
-235.4
 20
-356.219
 11
-235.819
 21
-356.529
  0
LINE
  8
0
 10
-235.819
 20
-356.529
 11
-236.319
 21
-356.677
  0
LINE
  8
0
 10
-236.319
 20
-356.677
 11
-236.839
 21
-356.645
  0
LINE
  8
0
 10
231.76
 20
-368.773
 11
231.358
 21
-368.442
  0
LINE
  8
0
 10
231.358
 20
-368.442
 11
231.093
 21
-367.993
  0
LINE
  8
0
 10
231.093
 20
-367.993
 11
230.998
 21
-367.48
  0
LINE
  8
0
 10
230.998
 20
-367.48
 11
231.084
 21
-366.967
  0
LINE
  8
0
 10
231.084
 20
-366.967
 11
231.341
 21
-366.513
  0
LINE
  8
0
 10
231.341
 20
-366.513
 11
231.737
 21
-366.175
  0
LINE
  8
0
 10
231.737
 20
-366.175
 11
232.225
 21
-365.992
  0
LINE
  8
0
 10
232.225
 20
-365.992
 11
232.746
 21
-365.988
  0
LINE
  8
0
 10
232.746
 20
-365.988
 11
233.237
 21
-366.162
  0
LINE
  8
0
 10
233.237
 20
-366.162
 11
233.639
 21
-366.493
  0
LINE
  8
0
 10
233.639
 20
-366.493
 11
233.903
 21
-366.942
  0
LINE
  8
0
 10
233.903
 20
-366.942
 11
233.998
 21
-367.454
  0
LINE
  8
0
 10
233.998
 20
-367.454
 11
233.912
 21
-367.968
  0
LINE
  8
0
 10
233.912
 20
-367.968
 11
233.656
 21
-368.422
  0
LINE
  8
0
 10
233.656
 20
-368.422
 11
233.26
 21
-368.76
  0
LINE
  8
0
 10
233.26
 20
-368.76
 11
232.772
 21
-368.942
  0
LINE
  8
0
 10
232.772
 20
-368.942
 11
232.251
 21
-368.947
  0
LINE
  8
0
 10
232.251
 20
-368.947
 11
231.76
 21
-368.773
  0
LINE
  8
0
 10
-223.241
 20
-392.684
 11
-223.67
 21
-392.389
  0
LINE
  8
0
 10
-223.67
 20
-392.389
 11
-223.972
 21
-391.965
  0
LINE
  8
0
 10
-223.972
 20
-391.965
 11
-224.112
 21
-391.463
  0
LINE
  8
0
 10
-224.112
 20
-391.463
 11
-224.071
 21
-390.943
  0
LINE
  8
0
 10
-224.071
 20
-390.943
 11
-223.855
 21
-390.469
  0
LINE
  8
0
 10
-223.855
 20
-390.469
 11
-223.49
 21
-390.098
  0
LINE
  8
0
 10
-223.49
 20
-390.098
 11
-223.019
 21
-389.874
  0
LINE
  8
0
 10
-223.019
 20
-389.874
 11
-222.501
 21
-389.824
  0
LINE
  8
0
 10
-222.501
 20
-389.824
 11
-221.997
 21
-389.954
  0
LINE
  8
0
 10
-221.997
 20
-389.954
 11
-221.567
 21
-390.249
  0
LINE
  8
0
 10
-221.567
 20
-390.249
 11
-221.265
 21
-390.673
  0
LINE
  8
0
 10
-221.265
 20
-390.673
 11
-221.125
 21
-391.175
  0
LINE
  8
0
 10
-221.125
 20
-391.175
 11
-221.166
 21
-391.695
  0
LINE
  8
0
 10
-221.166
 20
-391.695
 11
-221.382
 21
-392.169
  0
LINE
  8
0
 10
-221.382
 20
-392.169
 11
-221.747
 21
-392.54
  0
LINE
  8
0
 10
-221.747
 20
-392.54
 11
-222.218
 21
-392.764
  0
LINE
  8
0
 10
-222.218
 20
-392.764
 11
-222.736
 21
-392.814
  0
LINE
  8
0
 10
-222.736
 20
-392.814
 11
-223.241
 21
-392.684
  0
LINE
  8
0
 10
216.28
 20
-404.247
 11
215.822
 21
-403.998
  0
LINE
  8
0
 10
215.822
 20
-403.998
 11
215.477
 21
-403.608
  0
LINE
  8
0
 10
215.477
 20
-403.608
 11
215.286
 21
-403.124
  0
LINE
  8
0
 10
215.286
 20
-403.124
 11
215.273
 21
-402.603
  0
LINE
  8
0
 10
215.273
 20
-402.603
 11
215.438
 21
-402.109
  0
LINE
  8
0
 10
215.438
 20
-402.109
 11
215.762
 21
-401.701
  0
LINE
  8
0
 10
215.762
 20
-401.701
 11
216.206
 21
-401.429
  0
LINE
  8
0
 10
216.206
 20
-401.429
 11
216.717
 21
-401.325
  0
LINE
  8
0
 10
216.717
 20
-401.325
 11
217.232
 21
-401.402
  0
LINE
  8
0
 10
217.232
 20
-401.402
 11
217.69
 21
-401.651
  0
LINE
  8
0
 10
217.69
 20
-401.651
 11
218.035
 21
-402.041
  0
LINE
  8
0
 10
218.035
 20
-402.041
 11
218.226
 21
-402.525
  0
LINE
  8
0
 10
218.226
 20
-402.525
 11
218.24
 21
-403.046
  0
LINE
  8
0
 10
218.24
 20
-403.046
 11
218.074
 21
-403.54
  0
LINE
  8
0
 10
218.074
 20
-403.54
 11
217.75
 21
-403.948
  0
LINE
  8
0
 10
217.75
 20
-403.948
 11
217.306
 21
-404.22
  0
LINE
  8
0
 10
217.306
 20
-404.22
 11
216.796
 21
-404.324
  0
LINE
  8
0
 10
216.796
 20
-404.324
 11
216.28
 21
-404.247
  0
LINE
  8
0
 10
-203.668
 20
-426.282
 11
-204.138
 21
-426.058
  0
LINE
  8
0
 10
-204.138
 20
-426.058
 11
-204.503
 21
-425.687
  0
LINE
  8
0
 10
-204.503
 20
-425.687
 11
-204.719
 21
-425.213
  0
LINE
  8
0
 10
-204.719
 20
-425.213
 11
-204.76
 21
-424.693
  0
LINE
  8
0
 10
-204.76
 20
-424.693
 11
-204.621
 21
-424.191
  0
LINE
  8
0
 10
-204.621
 20
-424.191
 11
-204.318
 21
-423.767
  0
LINE
  8
0
 10
-204.318
 20
-423.767
 11
-203.889
 21
-423.472
  0
LINE
  8
0
 10
-203.889
 20
-423.472
 11
-203.385
 21
-423.342
  0
LINE
  8
0
 10
-203.385
 20
-423.342
 11
-202.866
 21
-423.392
  0
LINE
  8
0
 10
-202.866
 20
-423.392
 11
-202.396
 21
-423.616
  0
LINE
  8
0
 10
-202.396
 20
-423.616
 11
-202.031
 21
-423.987
  0
LINE
  8
0
 10
-202.031
 20
-423.987
 11
-201.815
 21
-424.461
  0
LINE
  8
0
 10
-201.815
 20
-424.461
 11
-201.774
 21
-424.981
  0
LINE
  8
0
 10
-201.774
 20
-424.981
 11
-201.913
 21
-425.483
  0
LINE
  8
0
 10
-201.913
 20
-425.483
 11
-202.216
 21
-425.907
  0
LINE
  8
0
 10
-202.216
 20
-425.907
 11
-202.645
 21
-426.202
  0
LINE
  8
0
 10
-202.645
 20
-426.202
 11
-203.149
 21
-426.332
  0
LINE
  8
0
 10
-203.149
 20
-426.332
 11
-203.668
 21
-426.282
  0
LINE
  8
0
 10
194.984
 20
-436.614
 11
194.571
 21
-436.297
  0
LINE
  8
0
 10
194.571
 20
-436.297
 11
194.291
 21
-435.858
  0
LINE
  8
0
 10
194.291
 20
-435.858
 11
194.178
 21
-435.349
  0
LINE
  8
0
 10
194.178
 20
-435.349
 11
194.246
 21
-434.833
  0
LINE
  8
0
 10
194.246
 20
-434.833
 11
194.487
 21
-434.371
  0
LINE
  8
0
 10
194.487
 20
-434.371
 11
194.871
 21
-434.019
  0
LINE
  8
0
 10
194.871
 20
-434.019
 11
195.352
 21
-433.819
  0
LINE
  8
0
 10
195.352
 20
-433.819
 11
195.873
 21
-433.797
  0
LINE
  8
0
 10
195.873
 20
-433.797
 11
196.37
 21
-433.953
  0
LINE
  8
0
 10
196.37
 20
-433.953
 11
196.783
 21
-434.27
  0
LINE
  8
0
 10
196.783
 20
-434.27
 11
197.063
 21
-434.71
  0
LINE
  8
0
 10
197.063
 20
-434.71
 11
197.176
 21
-435.218
  0
LINE
  8
0
 10
197.176
 20
-435.218
 11
197.108
 21
-435.735
  0
LINE
  8
0
 10
197.108
 20
-435.735
 11
196.867
 21
-436.197
  0
LINE
  8
0
 10
196.867
 20
-436.197
 11
196.483
 21
-436.549
  0
LINE
  8
0
 10
196.483
 20
-436.549
 11
196.002
 21
-436.748
  0
LINE
  8
0
 10
196.002
 20
-436.748
 11
195.481
 21
-436.771
  0
LINE
  8
0
 10
195.481
 20
-436.771
 11
194.984
 21
-436.614
  0
LINE
  8
0
 10
-179.58
 20
-456.257
 11
-179.998
 21
-455.947
  0
LINE
  8
0
 10
-179.998
 20
-455.947
 11
-180.286
 21
-455.513
  0
LINE
  8
0
 10
-180.286
 20
-455.513
 11
-180.407
 21
-455.007
  0
LINE
  8
0
 10
-180.407
 20
-455.007
 11
-180.349
 21
-454.489
  0
LINE
  8
0
 10
-180.349
 20
-454.489
 11
-180.116
 21
-454.023
  0
LINE
  8
0
 10
-180.116
 20
-454.023
 11
-179.738
 21
-453.664
  0
LINE
  8
0
 10
-179.738
 20
-453.664
 11
-179.26
 21
-453.456
  0
LINE
  8
0
 10
-179.26
 20
-453.456
 11
-178.74
 21
-453.425
  0
LINE
  8
0
 10
-178.74
 20
-453.425
 11
-178.241
 21
-453.573
  0
LINE
  8
0
 10
-178.241
 20
-453.573
 11
-177.822
 21
-453.882
  0
LINE
  8
0
 10
-177.822
 20
-453.882
 11
-177.535
 21
-454.317
  0
LINE
  8
0
 10
-177.535
 20
-454.317
 11
-177.413
 21
-454.823
  0
LINE
  8
0
 10
-177.413
 20
-454.823
 11
-177.472
 21
-455.341
  0
LINE
  8
0
 10
-177.472
 20
-455.341
 11
-177.704
 21
-455.807
  0
LINE
  8
0
 10
-177.704
 20
-455.807
 11
-178.082
 21
-456.166
  0
LINE
  8
0
 10
-178.082
 20
-456.166
 11
-178.56
 21
-456.374
  0
LINE
  8
0
 10
-178.56
 20
-456.374
 11
-179.08
 21
-456.405
  0
LINE
  8
0
 10
-179.08
 20
-456.405
 11
-179.58
 21
-456.257
  0
LINE
  8
0
 10
169.354
 20
-465.484
 11
168.887
 21
-465.251
  0
LINE
  8
0
 10
168.887
 20
-465.251
 11
168.529
 21
-464.874
  0
LINE
  8
0
 10
168.529
 20
-464.874
 11
168.321
 21
-464.396
  0
LINE
  8
0
 10
168.321
 20
-464.396
 11
168.289
 21
-463.876
  0
LINE
  8
0
 10
168.289
 20
-463.876
 11
168.437
 21
-463.376
  0
LINE
  8
0
 10
168.437
 20
-463.376
 11
168.747
 21
-462.958
  0
LINE
  8
0
 10
168.747
 20
-462.958
 11
169.181
 21
-462.67
  0
LINE
  8
0
 10
169.181
 20
-462.67
 11
169.688
 21
-462.549
  0
LINE
  8
0
 10
169.688
 20
-462.549
 11
170.206
 21
-462.607
  0
LINE
  8
0
 10
170.206
 20
-462.607
 11
170.672
 21
-462.84
  0
LINE
  8
0
 10
170.672
 20
-462.84
 11
171.03
 21
-463.218
  0
LINE
  8
0
 10
171.03
 20
-463.218
 11
171.238
 21
-463.696
  0
LINE
  8
0
 10
171.238
 20
-463.696
 11
171.27
 21
-464.216
  0
LINE
  8
0
 10
171.27
 20
-464.216
 11
171.122
 21
-464.715
  0
LINE
  8
0
 10
171.122
 20
-464.715
 11
170.812
 21
-465.134
  0
LINE
  8
0
 10
170.812
 20
-465.134
 11
170.378
 21
-465.421
  0
LINE
  8
0
 10
170.378
 20
-465.421
 11
169.871
 21
-465.543
  0
LINE
  8
0
 10
169.871
 20
-465.543
 11
169.354
 21
-465.484
  0
LINE
  8
0
 10
-150.599
 20
-482.243
 11
-151.061
 21
-482.002
  0
LINE
  8
0
 10
-151.061
 20
-482.002
 11
-151.413
 21
-481.618
  0
LINE
  8
0
 10
-151.413
 20
-481.618
 11
-151.613
 21
-481.137
  0
LINE
  8
0
 10
-151.613
 20
-481.137
 11
-151.635
 21
-480.617
  0
LINE
  8
0
 10
-151.635
 20
-480.617
 11
-151.479
 21
-480.12
  0
LINE
  8
0
 10
-151.479
 20
-480.12
 11
-151.162
 21
-479.707
  0
LINE
  8
0
 10
-151.162
 20
-479.707
 11
-150.722
 21
-479.427
  0
LINE
  8
0
 10
-150.722
 20
-479.427
 11
-150.214
 21
-479.314
  0
LINE
  8
0
 10
-150.214
 20
-479.314
 11
-149.697
 21
-479.382
  0
LINE
  8
0
 10
-149.697
 20
-479.382
 11
-149.235
 21
-479.622
  0
LINE
  8
0
 10
-149.235
 20
-479.622
 11
-148.883
 21
-480.006
  0
LINE
  8
0
 10
-148.883
 20
-480.006
 11
-148.684
 21
-480.488
  0
LINE
  8
0
 10
-148.684
 20
-480.488
 11
-148.661
 21
-481.008
  0
LINE
  8
0
 10
-148.661
 20
-481.008
 11
-148.818
 21
-481.505
  0
LINE
  8
0
 10
-148.818
 20
-481.505
 11
-149.135
 21
-481.918
  0
LINE
  8
0
 10
-149.135
 20
-481.918
 11
-149.574
 21
-482.198
  0
LINE
  8
0
 10
-149.574
 20
-482.198
 11
-150.083
 21
-482.311
  0
LINE
  8
0
 10
-150.083
 20
-482.311
 11
-150.599
 21
-482.243
  0
LINE
  8
0
 10
139.056
 20
-489.756
 11
138.632
 21
-489.454
  0
LINE
  8
0
 10
138.632
 20
-489.454
 11
138.337
 21
-489.024
  0
LINE
  8
0
 10
138.337
 20
-489.024
 11
138.206
 21
-488.52
  0
LINE
  8
0
 10
138.206
 20
-488.52
 11
138.256
 21
-488.002
  0
LINE
  8
0
 10
138.256
 20
-488.002
 11
138.48
 21
-487.531
  0
LINE
  8
0
 10
138.48
 20
-487.531
 11
138.852
 21
-487.166
  0
LINE
  8
0
 10
138.852
 20
-487.166
 11
139.326
 21
-486.95
  0
LINE
  8
0
 10
139.326
 20
-486.95
 11
139.845
 21
-486.909
  0
LINE
  8
0
 10
139.845
 20
-486.909
 11
140.347
 21
-487.049
  0
LINE
  8
0
 10
140.347
 20
-487.049
 11
140.771
 21
-487.351
  0
LINE
  8
0
 10
140.771
 20
-487.351
 11
141.066
 21
-487.78
  0
LINE
  8
0
 10
141.066
 20
-487.78
 11
141.197
 21
-488.285
  0
LINE
  8
0
 10
141.197
 20
-488.285
 11
141.147
 21
-488.803
  0
LINE
  8
0
 10
141.147
 20
-488.803
 11
140.923
 21
-489.273
  0
LINE
  8
0
 10
140.923
 20
-489.273
 11
140.551
 21
-489.639
  0
LINE
  8
0
 10
140.551
 20
-489.639
 11
140.077
 21
-489.855
  0
LINE
  8
0
 10
140.077
 20
-489.855
 11
139.558
 21
-489.896
  0
LINE
  8
0
 10
139.558
 20
-489.896
 11
139.056
 21
-489.756
  0
LINE
  8
0
 10
-118.405
 20
-503.21
 11
-118.812
 21
-502.886
  0
LINE
  8
0
 10
-118.812
 20
-502.886
 11
-119.085
 21
-502.441
  0
LINE
  8
0
 10
-119.085
 20
-502.441
 11
-119.189
 21
-501.931
  0
LINE
  8
0
 10
-119.189
 20
-501.931
 11
-119.112
 21
-501.416
  0
LINE
  8
0
 10
-119.112
 20
-501.416
 11
-118.863
 21
-500.958
  0
LINE
  8
0
 10
-118.863
 20
-500.958
 11
-118.473
 21
-500.613
  0
LINE
  8
0
 10
-118.473
 20
-500.613
 11
-117.988
 21
-500.422
  0
LINE
  8
0
 10
-117.988
 20
-500.422
 11
-117.467
 21
-500.408
  0
LINE
  8
0
 10
-117.467
 20
-500.408
 11
-116.973
 21
-500.573
  0
LINE
  8
0
 10
-116.973
 20
-500.573
 11
-116.566
 21
-500.898
  0
LINE
  8
0
 10
-116.566
 20
-500.898
 11
-116.293
 21
-501.342
  0
LINE
  8
0
 10
-116.293
 20
-501.342
 11
-116.19
 21
-501.852
  0
LINE
  8
0
 10
-116.19
 20
-501.852
 11
-116.267
 21
-502.368
  0
LINE
  8
0
 10
-116.267
 20
-502.368
 11
-116.515
 21
-502.825
  0
LINE
  8
0
 10
-116.515
 20
-502.825
 11
-116.905
 21
-503.171
  0
LINE
  8
0
 10
-116.905
 20
-503.171
 11
-117.39
 21
-503.362
  0
LINE
  8
0
 10
-117.39
 20
-503.362
 11
-117.911
 21
-503.375
  0
LINE
  8
0
 10
-117.911
 20
-503.375
 11
-118.405
 21
-503.21
  0
LINE
  8
0
 10
105.808
 20
-509.206
 11
105.334
 21
-508.99
  0
LINE
  8
0
 10
105.334
 20
-508.99
 11
104.962
 21
-508.625
  0
LINE
  8
0
 10
104.962
 20
-508.625
 11
104.738
 21
-508.155
  0
LINE
  8
0
 10
104.738
 20
-508.155
 11
104.688
 21
-507.636
  0
LINE
  8
0
 10
104.688
 20
-507.636
 11
104.819
 21
-507.132
  0
LINE
  8
0
 10
104.819
 20
-507.132
 11
105.114
 21
-506.703
  0
LINE
  8
0
 10
105.114
 20
-506.703
 11
105.538
 21
-506.4
  0
LINE
  8
0
 10
105.538
 20
-506.4
 11
106.04
 21
-506.261
  0
LINE
  8
0
 10
106.04
 20
-506.261
 11
106.559
 21
-506.302
  0
LINE
  8
0
 10
106.559
 20
-506.302
 11
107.033
 21
-506.518
  0
LINE
  8
0
 10
107.033
 20
-506.518
 11
107.405
 21
-506.883
  0
LINE
  8
0
 10
107.405
 20
-506.883
 11
107.629
 21
-507.353
  0
LINE
  8
0
 10
107.629
 20
-507.353
 11
107.679
 21
-507.872
  0
LINE
  8
0
 10
107.679
 20
-507.872
 11
107.549
 21
-508.376
  0
LINE
  8
0
 10
107.549
 20
-508.376
 11
107.253
 21
-508.805
  0
LINE
  8
0
 10
107.253
 20
-508.805
 11
106.829
 21
-509.108
  0
LINE
  8
0
 10
106.829
 20
-509.108
 11
106.327
 21
-509.247
  0
LINE
  8
0
 10
106.327
 20
-509.247
 11
105.808
 21
-509.206
  0
LINE
  8
0
 10
-82.8326
 20
-519.048
 11
-83.2861
 21
-518.791
  0
LINE
  8
0
 10
-83.2861
 20
-518.791
 11
-83.6244
 21
-518.395
  0
LINE
  8
0
 10
-83.6244
 20
-518.395
 11
-83.8068
 21
-517.907
  0
LINE
  8
0
 10
-83.8068
 20
-517.907
 11
-83.8114
 21
-517.386
  0
LINE
  8
0
 10
-83.8114
 20
-517.386
 11
-83.6375
 21
-516.895
  0
LINE
  8
0
 10
-83.6375
 20
-516.895
 11
-83.3061
 21
-516.493
  0
LINE
  8
0
 10
-83.3061
 20
-516.493
 11
-82.8573
 21
-516.229
  0
LINE
  8
0
 10
-82.8573
 20
-516.229
 11
-82.345
 21
-516.134
  0
LINE
  8
0
 10
-82.345
 20
-516.134
 11
-81.8312
 21
-516.22
  0
LINE
  8
0
 10
-81.8312
 20
-516.22
 11
-81.3778
 21
-516.476
  0
LINE
  8
0
 10
-81.3778
 20
-516.476
 11
-81.0395
 21
-516.872
  0
LINE
  8
0
 10
-81.0395
 20
-516.872
 11
-80.8571
 21
-517.36
  0
LINE
  8
0
 10
-80.8571
 20
-517.36
 11
-80.8525
 21
-517.881
  0
LINE
  8
0
 10
-80.8525
 20
-517.881
 11
-81.0264
 21
-518.372
  0
LINE
  8
0
 10
-81.0264
 20
-518.372
 11
-81.3578
 21
-518.774
  0
LINE
  8
0
 10
-81.3578
 20
-518.774
 11
-81.8066
 21
-519.039
  0
LINE
  8
0
 10
-81.8066
 20
-519.039
 11
-82.3188
 21
-519.134
  0
LINE
  8
0
 10
-82.3188
 20
-519.134
 11
-82.8326
 21
-519.048
  0
LINE
  8
0
 10
69.453
 20
-523
 11
69.0186
 21
-522.712
  0
LINE
  8
0
 10
69.0186
 20
-522.712
 11
68.7087
 21
-522.293
  0
LINE
  8
0
 10
68.7087
 20
-522.293
 11
68.5607
 21
-521.794
  0
LINE
  8
0
 10
68.5607
 20
-521.794
 11
68.5925
 21
-521.274
  0
LINE
  8
0
 10
68.5925
 20
-521.274
 11
68.8003
 21
-520.796
  0
LINE
  8
0
 10
68.8003
 20
-520.796
 11
69.1589
 21
-520.418
  0
LINE
  8
0
 10
69.1589
 20
-520.418
 11
69.6251
 21
-520.186
  0
LINE
  8
0
 10
69.6251
 20
-520.186
 11
70.1427
 21
-520.127
  0
LINE
  8
0
 10
70.1427
 20
-520.127
 11
70.6492
 21
-520.248
  0
LINE
  8
0
 10
70.6492
 20
-520.248
 11
71.0836
 21
-520.536
  0
LINE
  8
0
 10
71.0836
 20
-520.536
 11
71.3935
 21
-520.955
  0
LINE
  8
0
 10
71.3935
 20
-520.955
 11
71.5414
 21
-521.454
  0
LINE
  8
0
 10
71.5414
 20
-521.454
 11
71.5096
 21
-521.974
  0
LINE
  8
0
 10
71.5096
 20
-521.974
 11
71.3019
 21
-522.452
  0
LINE
  8
0
 10
71.3019
 20
-522.452
 11
70.9433
 21
-522.83
  0
LINE
  8
0
 10
70.9433
 20
-522.83
 11
70.4771
 21
-523.062
  0
LINE
  8
0
 10
70.4771
 20
-523.062
 11
69.9595
 21
-523.121
  0
LINE
  8
0
 10
69.9595
 20
-523.121
 11
69.453
 21
-523
  0
LINE
  8
0
 10
-45.2209
 20
-529.126
 11
-45.7089
 21
-528.943
  0
LINE
  8
0
 10
-45.7089
 20
-528.943
 11
-46.105
 21
-528.605
  0
LINE
  8
0
 10
-46.105
 20
-528.605
 11
-46.3615
 21
-528.151
  0
LINE
  8
0
 10
-46.3615
 20
-528.151
 11
-46.4475
 21
-527.638
  0
LINE
  8
0
 10
-46.4475
 20
-527.638
 11
-46.3526
 21
-527.125
  0
LINE
  8
0
 10
-46.3526
 20
-527.125
 11
-46.0882
 21
-526.677
  0
LINE
  8
0
 10
-46.0882
 20
-526.677
 11
-45.6862
 21
-526.345
  0
LINE
  8
0
 10
-45.6862
 20
-526.345
 11
-45.1951
 21
-526.171
  0
LINE
  8
0
 10
-45.1951
 20
-526.171
 11
-44.6742
 21
-526.176
  0
LINE
  8
0
 10
-44.6742
 20
-526.176
 11
-44.1862
 21
-526.358
  0
LINE
  8
0
 10
-44.1862
 20
-526.358
 11
-43.7901
 21
-526.697
  0
LINE
  8
0
 10
-43.7901
 20
-526.697
 11
-43.5336
 21
-527.15
  0
LINE
  8
0
 10
-43.5336
 20
-527.15
 11
-43.4476
 21
-527.664
  0
LINE
  8
0
 10
-43.4476
 20
-527.664
 11
-43.5425
 21
-528.176
  0
LINE
  8
0
 10
-43.5425
 20
-528.176
 11
-43.8069
 21
-528.625
  0
LINE
  8
0
 10
-43.8069
 20
-528.625
 11
-44.2089
 21
-528.956
  0
LINE
  8
0
 10
-44.2089
 20
-528.956
 11
-44.7
 21
-529.13
  0
LINE
  8
0
 10
-44.7
 20
-529.13
 11
-45.2209
 21
-529.126
  0
LINE
  8
0
 10
31.869
 20
-531.135
 11
31.3877
 21
-530.936
  0
LINE
  8
0
 10
31.3877
 20
-530.936
 11
31.0036
 21
-530.584
  0
LINE
  8
0
 10
31.0036
 20
-530.584
 11
30.7631
 21
-530.122
  0
LINE
  8
0
 10
30.7631
 20
-530.122
 11
30.6951
 21
-529.605
  0
LINE
  8
0
 10
30.6951
 20
-529.605
 11
30.8079
 21
-529.097
  0
LINE
  8
0
 10
30.8079
 20
-529.097
 11
31.0878
 21
-528.657
  0
LINE
  8
0
 10
31.0878
 20
-528.657
 11
31.5011
 21
-528.34
  0
LINE
  8
0
 10
31.5011
 20
-528.34
 11
31.9979
 21
-528.184
  0
LINE
  8
0
 10
31.9979
 20
-528.184
 11
32.5183
 21
-528.206
  0
LINE
  8
0
 10
32.5183
 20
-528.206
 11
32.9996
 21
-528.406
  0
LINE
  8
0
 10
32.9996
 20
-528.406
 11
33.3837
 21
-528.758
  0
LINE
  8
0
 10
33.3837
 20
-528.758
 11
33.6243
 21
-529.22
  0
LINE
  8
0
 10
33.6243
 20
-529.22
 11
33.6923
 21
-529.736
  0
LINE
  8
0
 10
33.6923
 20
-529.736
 11
33.5795
 21
-530.245
  0
LINE
  8
0
 10
33.5795
 20
-530.245
 11
33.2996
 21
-530.684
  0
LINE
  8
0
 10
33.2996
 20
-530.684
 11
32.8863
 21
-531.001
  0
LINE
  8
0
 10
32.8863
 20
-531.001
 11
32.3895
 21
-531.158
  0
LINE
  8
0
 10
32.3895
 20
-531.158
 11
31.869
 21
-531.135
  0
LINE
  8
0
 10
-7.00616
 20
-533.092
 11
-7.45035
 21
-532.82
  0
LINE
  8
0
 10
-7.45035
 20
-532.82
 11
-7.77464
 21
-532.412
  0
LINE
  8
0
 10
-7.77464
 20
-532.412
 11
-7.93994
 21
-531.918
  0
LINE
  8
0
 10
-7.93994
 20
-531.918
 11
-7.9263
 21
-531.397
  0
LINE
  8
0
 10
-7.9263
 20
-531.397
 11
-7.73538
 21
-530.913
  0
LINE
  8
0
 10
-7.73538
 20
-530.913
 11
-7.39018
 21
-530.522
  0
LINE
  8
0
 10
-7.39018
 20
-530.522
 11
-6.93237
 21
-530.274
  0
LINE
  8
0
 10
-6.93237
 20
-530.274
 11
-6.41716
 21
-530.197
  0
LINE
  8
0
 10
-6.41716
 20
-530.197
 11
-5.90666
 21
-530.301
  0
LINE
  8
0
 10
-5.90666
 20
-530.301
 11
-5.46249
 21
-530.573
  0
LINE
  8
0
 10
-5.46249
 20
-530.573
 11
-5.1382
 21
-530.981
  0
LINE
  8
0
 10
-5.1382
 20
-530.981
 11
-4.9729
 21
-531.475
  0
LINE
  8
0
 10
-4.9729
 20
-531.475
 11
-4.98653
 21
-531.995
  0
LINE
  8
0
 10
-4.98653
 20
-531.995
 11
-5.17746
 21
-532.48
  0
LINE
  8
0
 10
-5.17746
 20
-532.48
 11
-5.52264
 21
-532.87
  0
LINE
  8
0
 10
-5.52264
 20
-532.87
 11
-5.98045
 21
-533.119
  0
LINE
  8
0
 10
-5.98045
 20
-533.119
 11
-6.49568
 21
-533.196
  0
LINE
  8
0
 10
-6.49568
 20
-533.196
 11
-7.00616
 21
-533.092
  0
ENDSEC
  0
SECTION
  2
OBJECTS
  0
DICTIONARY
  0
ENDSEC
  0
EOF
