999
dxfrw 0.6.3
  0
SECTION
  2
HEADER
  9
$ACADVER
  1
AC1021
  9
$DWGCODEPAGE
  3
ANSI_1252
  9
$INSBASE
 10
0
 20
0
 30
0
  9
$EXTMIN
 10
-197.856
 20
-395.712
 30
0
  9
$EXTMAX
 10
197.856
 20
0
 30
0
  9
$LIMMIN
 10
0
 20
0
  9
$LIMMAX
 10
420
 20
297
  9
$ORTHOMODE
 70
    0
  9
$REGENMODE
 70
    1
  9
$FILLMODE
 70
    1
  9
$QTEXTMODE
 70
    0
  9
$MIRRTEXT
 70
    0
  9
$LTSCALE
 40
1
  9
$ATTMODE
 70
    0
  9
$TEXTSIZE
 40
2.5
  9
$TRACEWID
 40
15.68
  9
$TEXTSTYLE
  7
STANDARD
  9
$CLAYER
  8
0
  9
$CELTYPE
  6
BYLAYER
  9
$CECOLOR
 62
  256
  9
$CELTSCALE
 40
1
  9
$DISPSILH
 70
    0
  9
$DIMSCALE
 40
2.5
  9
$DIMASZ
 40
0.1
  9
$DIMEXO
 40
0.025
  9
$DIMDLI
 40
3.75
  9
$DIMRND
 40
0
  9
$DIMDLE
 40
0
  9
$DIMEXE
 40
0.05
  9
$DIMTP
 40
0
  9
$DIMTM
 40
0
  9
$DIMTXT
 40
0.1
  9
$DIMCEN
 40
2.5
  9
$DIMTSZ
 40
0
  9
$DIMTOL
 70
    0
  9
$DIMLIM
 70
    0
  9
$DIMTIH
 70
    0
  9
$DIMTOH
 70
    0
  9
$DIMSE1
 70
    0
  9
$DIMSE2
 70
    0
  9
$DIMTAD
 70
    1
  9
$DIMZIN
 70
    8
  9
$DIMBLK
  1

  9
$DIMASO
 70
    1
  9
$DIMSHO
 70
    1
  9
$DIMPOST
  1

  9
$DIMAPOST
  1

  9
$DIMALT
 70
    0
  9
$DIMALTD
 70
    3
  9
$DIMALTF
 40
0.03937
  9
$DIMLFAC
 40
1
  9
$DIMTOFL
 70
    1
  9
$DIMTVP
 40
0
  9
$DIMTIX
 70
    0
  9
$DIMSOXD
 70
    0
  9
$DIMSAH
 70
    0
  9
$DIMBLK1
  1

  9
$DIMBLK2
  1

  9
$DIMSTYLE
  2
Standard
  9
$DIMCLRD
 70
    0
  9
$DIMCLRE
 70
    0
  9
$DIMCLRT
 70
    0
  9
$DIMTFAC
 40
1
  9
$DIMGAP
 40
0.025
  9
$DIMJUST
 70
    0
  9
$DIMSD1
 70
    0
  9
$DIMSD2
 70
    0
  9
$DIMTOLJ
 70
    0
  9
$DIMTZIN
 70
    8
  9
$DIMALTZ
 70
    0
  9
$DIMALTTZ
 70
    0
  9
$DIMUPT
 70
    0
  9
$DIMDEC
 70
    2
  9
$DIMTDEC
 70
    2
  9
$DIMALTU
 70
    2
  9
$DIMALTTD
 70
    3
  9
$DIMTXSTY
  7
STANDARD
  9
$DIMAUNIT
 70
    0
  9
$DIMADEC
 70
    0
  9
$DIMALTRND
 40
0
  9
$DIMAZIN
 70
    0
  9
$DIMDSEP
 70
   44
  9
$DIMATFIT
 70
    3
  9
$DIMFRAC
 70
    0
  9
$DIMLDRBLK
  1
STANDARD
  9
$DIMLUNIT
 70
    2
  9
$DIMLWD
 70
   -2
  9
$DIMLWE
 70
   -2
  9
$DIMTMOVE
 70
    0
  9
$DIMFXL
 40
1
  9
$DIMFXLON
 70
    0
  9
$DIMJOGANG
 40
0.7854
  9
$DIMTFILL
 70
    0
  9
$DIMTFILLCLR
 70
    0
  9
$DIMARCSYM
 70
    0
  9
$DIMLTYPE
  6

  9
$DIMLTEX1
  6

  9
$DIMLTEX2
  6

  9
$LUNITS
 70
    2
  9
$LUPREC
 70
    4
  9
$SKETCHINC
 40
1
  9
$FILLETRAD
 40
0
  9
$AUNITS
 70
    0
  9
$AUPREC
 70
    2
  9
$MENU
  1
.
  9
$ELEVATION
 40
0
  9
$PELEVATION
 40
0
  9
$THICKNESS
 40
0
  9
$LIMCHECK
 70
    0
  9
$CHAMFERA
 40
0
  9
$CHAMFERB
 40
0
  9
$CHAMFERC
 40
0
  9
$CHAMFERD
 40
0
  9
$SKPOLY
 70
    0
  9
$USRTIMER
 70
    1
  9
$ANGBASE
 50
0
  9
$ANGDIR
 70
    0
  9
$PDMODE
 70
   34
  9
$PDSIZE
 40
0
  9
$PLINEWID
 40
0
  9
$SPLFRAME
 70
    0
  9
$SPLINETYPE
 70
    2
  9
$SPLINESEGS
 70
    8
  9
$HANDSEED
  5
20000
  9
$SURFTAB1
 70
    6
  9
$SURFTAB2
 70
    6
  9
$SURFTYPE
 70
    6
  9
$SURFU
 70
    6
  9
$SURFV
 70
    6
  9
$UCSBASE
  2

  9
$UCSNAME
  2

  9
$UCSORG
 10
0
 20
0
 30
0
  9
$UCSXDIR
 10
1
 20
0
 30
0
  9
$UCSYDIR
 10
0
 20
1
 30
0
  9
$UCSORTHOREF
  2

  9
$UCSORTHOVIEW
 70
    0
  9
$UCSORGTOP
 10
0
 20
0
 30
0
  9
$UCSORGBOTTOM
 10
0
 20
0
 30
0
  9
$UCSORGLEFT
 10
0
 20
0
 30
0
  9
$UCSORGRIGHT
 10
0
 20
0
 30
0
  9
$UCSORGFRONT
 10
0
 20
0
 30
0
  9
$UCSORGBACK
 10
0
 20
0
 30
0
  9
$PUCSBASE
  2

  9
$PUCSNAME
  2

  9
$PUCSORG
 10
0
 20
0
 30
0
  9
$PUCSXDIR
 10
1
 20
0
 30
0
  9
$PUCSYDIR
 10
0
 20
1
 30
0
  9
$PUCSORTHOREF
  2

  9
$PUCSORTHOVIEW
 70
    0
  9
$PUCSORGTOP
 10
0
 20
0
 30
0
  9
$PUCSORGBOTTOM
 10
0
 20
0
 30
0
  9
$PUCSORGLEFT
 10
0
 20
0
 30
0
  9
$PUCSORGRIGHT
 10
0
 20
0
 30
0
  9
$PUCSORGFRONT
 10
0
 20
0
 30
0
  9
$PUCSORGBACK
 10
0
 20
0
 30
0
  9
$USERI1
 70
    0
  9
$USERI2
 70
    0
  9
$USERI3
 70
    0
  9
$USERI4
 70
    0
  9
$USERI5
 70
    0
  9
$USERR1
 40
0
  9
$USERR2
 40
0
  9
$USERR3
 40
0
  9
$USERR4
 40
0
  9
$USERR5
 40
0
  9
$WORLDVIEW
 70
    1
  9
$SHADEDGE
 70
    3
  9
$SHADEDIF
 70
   70
  9
$TILEMODE
 70
    1
  9
$MAXACTVP
 70
   64
  9
$PINSBASE
 10
0
 20
0
 30
0
  9
$PLIMCHECK
 70
    0
  9
$PEXTMIN
 10
0
 20
0
 30
0
  9
$PEXTMAX
 10
0
 20
0
 30
0
  9
$SNAPSTYLE
 70
    0
  9
$PLIMMIN
 10
0
 20
0
  9
$PLIMMAX
 10
1.212131009518984e-009
 20
1.714299570605433e-009
  9
$UNITMODE
 70
    0
  9
$VISRETAIN
 70
    1
  9
$PLINEGEN
 70
    0
  9
$PSLTSCALE
 70
    1
  9
$TREEDEPTH
 70
 3020
  9
$CMLSTYLE
  2
Standard
  9
$CMLJUST
 70
    0
  9
$CMLSCALE
 40
20
  9
$PROXYGRAPHICS
 70
    1
  9
$MEASUREMENT
 70
    1
  9
$CELWEIGHT
370
   -1
  9
$ENDCAPS
280
    0
  9
$JOINSTYLE
280
    0
  9
$LWDISPLAY
290
    0
  9
$INSUNITS
 70
    1
  9
$HYPERLINKBASE
  1

  9
$STYLESHEET
  1

  9
$XEDIT
290
    1
  9
$CEPSNTYPE
380
    0
  9
$PSTYLEMODE
290
    1
  9
$EXTNAMES
290
    1
  9
$PSVPSCALE
 40
1
  9
$OLESTARTUP
290
    0
  9
$SORTENTS
280
  127
  9
$INDEXCTL
280
    0
  9
$HIDETEXT
280
    1
  9
$XCLIPFRAME
290
    0
  9
$HALOGAP
280
    0
  9
$OBSCOLOR
 70
  257
  9
$OBSLTYPE
280
    0
  9
$INTERSECTIONDISPLAY
280
    0
  9
$INTERSECTIONCOLOR
 70
  257
  9
$DIMASSOC
280
    1
  9
$PROJECTNAME
  1

  9
$CAMERADISPLAY
290
    0
  9
$LENSLENGTH
 40
50
  9
$CAMERAHEIGHT
 40
0
  9
$STEPSPERSEC
 40
2
  9
$STEPSIZE
 40
50
  9
$3DDWFPREC
 40
2
  9
$PSOLWIDTH
 40
5
  9
$PSOLHEIGHT
 40
80
  9
$LOFTANG1
 40
1.570796326794897
  9
$LOFTANG2
 40
1.570796326794897
  9
$LOFTMAG1
 40
0
  9
$LOFTMAG2
 40
0
  9
$LOFTPARAM
 70
    7
  9
$LOFTNORMALS
280
    1
  9
$LATITUDE
 40
1
  9
$LONGITUDE
 40
1
  9
$NORTHDIRECTION
 40
0
  9
$TIMEZONE
 70
-8000
  9
$LIGHTGLYPHDISPLAY
280
    1
  9
$TILEMODELIGHTSYNCH
280
    1
  9
$SOLIDHIST
280
    1
  9
$SHOWHIST
280
    1
  9
$DWFFRAME
280
    2
  9
$DGNFRAME
280
    0
  9
$REALWORLDSCALE
290
    1
  9
$INTERFERECOLOR
 62
    1
  9
$CSHADOW
280
    0
  9
$SHADOWPLANELOCATION
 40
0
  0
ENDSEC
  0
SECTION
  2
CLASSES
  0
ENDSEC
  0
SECTION
  2
TABLES
  0
TABLE
  2
VPORT
  5
8
330
0
100
AcDbSymbolTable
 70
    1
  0
VPORT
  5
31
330
2
100
AcDbSymbolTableRecord
100
AcDbViewportTableRecord
  2
*ACTIVE
 70
    0
 10
0
 20
0
 11
1
 21
1
 12
622.5081958837454
 22
254.5196157034495
 13
0
 23
0
 14
10
 24
10
 15
10
 25
10
 16
0
 26
0
 36
1
 17
0
 27
0
 37
0
 40
790.4422633094782
 41
2.229681978798586
 42
50
 43
0
 44
0
 50
0
 51
0
 71
    0
 72
  100
 73
    1
 74
    3
 75
    0
 76
    1
 77
    0
 78
    0
281
    0
 65
    1
110
0
120
0
130
0
111
1
121
0
131
0
112
0
122
1
132
0
 79
    0
146
0
348
10020
 60
    7
 61
    5
292
1
282
    1
141
0
142
0
 63
  250
421
3358443
  0
ENDTAB
  0
TABLE
  2
LTYPE
  5
5
330
0
100
AcDbSymbolTable
 70
    4
  0
LTYPE
  5
14
330
5
100
AcDbSymbolTableRecord
100
AcDbLinetypeTableRecord
  2
ByBlock
 70
    0
  3

 72
   65
 73
    0
 40
0
  0
LTYPE
  5
15
330
5
100
AcDbSymbolTableRecord
100
AcDbLinetypeTableRecord
  2
ByLayer
 70
    0
  3

 72
   65
 73
    0
 40
0
  0
LTYPE
  5
16
330
5
100
AcDbSymbolTableRecord
100
AcDbLinetypeTableRecord
  2
Continuous
 70
    0
  3
Solid line
 72
   65
 73
    0
 40
0
  0
LTYPE
  5
32
330
5
100
AcDbSymbolTableRecord
100
AcDbLinetypeTableRecord
  2
DOT
 70
    0
  3
Dot . . . . . . . . . . . . . . . . . . . . . .
 72
   65
 73
    2
 40
6.35
 49
0
 74
    0
 49
-6.35
 74
    0
  0
LTYPE
  5
33
330
5
100
AcDbSymbolTableRecord
100
AcDbLinetypeTableRecord
  2
DOTTINY
 70
    0
  3
Dot (.15x) .....................................
 72
   65
 73
    2
 40
0.9525
 49
0
 74
    0
 49
-0.9525
 74
    0
  0
LTYPE
  5
34
330
5
100
AcDbSymbolTableRecord
100
AcDbLinetypeTableRecord
  2
DOT2
 70
    0
  3
Dot (.5x) .....................................
 72
   65
 73
    2
 40
3.175
 49
0
 74
    0
 49
-3.175
 74
    0
  0
LTYPE
  5
35
330
5
100
AcDbSymbolTableRecord
100
AcDbLinetypeTableRecord
  2
DOTX2
 70
    0
  3
Dot (2x) .  .  .  .  .  .  .  .  .  .  .  .  .
 72
   65
 73
    2
 40
12.7
 49
0
 74
    0
 49
-12.7
 74
    0
  0
LTYPE
  5
36
330
5
100
AcDbSymbolTableRecord
100
AcDbLinetypeTableRecord
  2
DASHED
 70
    0
  3
Dashed _ _ _ _ _ _ _ _ _ _ _ _ _ _ _ _ _
 72
   65
 73
    2
 40
19.05
 49
12.7
 74
    0
 49
-6.35
 74
    0
  0
LTYPE
  5
37
330
5
100
AcDbSymbolTableRecord
100
AcDbLinetypeTableRecord
  2
DASHEDTINY
 70
    0
  3
Dashed (.15x) _ _ _ _ _ _ _ _ _ _ _ _ _ _ _ _ _
 72
   65
 73
    2
 40
2.8575
 49
1.905
 74
    0
 49
-0.9525
 74
    0
  0
LTYPE
  5
38
330
5
100
AcDbSymbolTableRecord
100
AcDbLinetypeTableRecord
  2
DASHED2
 70
    0
  3
Dashed (.5x) _ _ _ _ _ _ _ _ _ _ _ _ _ _ _ _ _
 72
   65
 73
    2
 40
9.524999999999999
 49
6.35
 74
    0
 49
-3.175
 74
    0
  0
LTYPE
  5
39
330
5
100
AcDbSymbolTableRecord
100
AcDbLinetypeTableRecord
  2
DASHEDX2
 70
    0
  3
Dashed (2x) ____  ____  ____  ____  ____  ___
 72
   65
 73
    2
 40
38.09999999999999
 49
25.4
 74
    0
 49
-12.7
 74
    0
  0
LTYPE
  5
3A
330
5
100
AcDbSymbolTableRecord
100
AcDbLinetypeTableRecord
  2
DASHDOT
 70
    0
  3
Dash dot __ . __ . __ . __ . __ . __ . __ . __
 72
   65
 73
    4
 40
25.4
 49
12.7
 74
    0
 49
-6.35
 74
    0
 49
0
 74
    0
 49
-6.35
 74
    0
  0
LTYPE
  5
3B
330
5
100
AcDbSymbolTableRecord
100
AcDbLinetypeTableRecord
  2
DASHDOTTINY
 70
    0
  3
Dash dot (.15x) _._._._._._._._._._._._._._._.
 72
   65
 73
    4
 40
3.81
 49
1.905
 74
    0
 49
-0.9525
 74
    0
 49
0
 74
    0
 49
-0.9525
 74
    0
  0
LTYPE
  5
3C
330
5
100
AcDbSymbolTableRecord
100
AcDbLinetypeTableRecord
  2
DASHDOT2
 70
    0
  3
Dash dot (.5x) _._._._._._._._._._._._._._._.
 72
   65
 73
    4
 40
12.7
 49
6.35
 74
    0
 49
-3.175
 74
    0
 49
0
 74
    0
 49
-3.175
 74
    0
  0
LTYPE
  5
3D
330
5
100
AcDbSymbolTableRecord
100
AcDbLinetypeTableRecord
  2
DASHDOTX2
 70
    0
  3
Dash dot (2x) ____  .  ____  .  ____  .  ___
 72
   65
 73
    4
 40
50.8
 49
25.4
 74
    0
 49
-12.7
 74
    0
 49
0
 74
    0
 49
-12.7
 74
    0
  0
LTYPE
  5
3E
330
5
100
AcDbSymbolTableRecord
100
AcDbLinetypeTableRecord
  2
DIVIDE
 70
    0
  3
Divide ____ . . ____ . . ____ . . ____ . . ____
 72
   65
 73
    6
 40
31.75
 49
12.7
 74
    0
 49
-6.35
 74
    0
 49
0
 74
    0
 49
-6.35
 74
    0
 49
0
 74
    0
 49
-6.35
 74
    0
  0
LTYPE
  5
3F
330
5
100
AcDbSymbolTableRecord
100
AcDbLinetypeTableRecord
  2
DIVIDETINY
 70
    0
  3
Divide (.15x) __..__..__..__..__..__..__..__.._
 72
   65
 73
    6
 40
4.7625
 49
1.905
 74
    0
 49
-0.9525
 74
    0
 49
0
 74
    0
 49
-0.9525
 74
    0
 49
0
 74
    0
 49
-0.9525
 74
    0
  0
LTYPE
  5
40
330
5
100
AcDbSymbolTableRecord
100
AcDbLinetypeTableRecord
  2
DIVIDE2
 70
    0
  3
Divide (.5x) __..__..__..__..__..__..__..__.._
 72
   65
 73
    6
 40
15.875
 49
6.35
 74
    0
 49
-3.175
 74
    0
 49
0
 74
    0
 49
-3.175
 74
    0
 49
0
 74
    0
 49
-3.175
 74
    0
  0
LTYPE
  5
41
330
5
100
AcDbSymbolTableRecord
100
AcDbLinetypeTableRecord
  2
DIVIDEX2
 70
    0
  3
Divide (2x) ________  .  .  ________  .  .  _
 72
   65
 73
    6
 40
63.5
 49
25.4
 74
    0
 49
-12.7
 74
    0
 49
0
 74
    0
 49
-12.7
 74
    0
 49
0
 74
    0
 49
-12.7
 74
    0
  0
LTYPE
  5
42
330
5
100
AcDbSymbolTableRecord
100
AcDbLinetypeTableRecord
  2
BORDER
 70
    0
  3
Border __ __ . __ __ . __ __ . __ __ . __ __ .
 72
   65
 73
    6
 40
44.45
 49
12.7
 74
    0
 49
-6.35
 74
    0
 49
12.7
 74
    0
 49
-6.35
 74
    0
 49
0
 74
    0
 49
-6.35
 74
    0
  0
LTYPE
  5
43
330
5
100
AcDbSymbolTableRecord
100
AcDbLinetypeTableRecord
  2
BORDERTINY
 70
    0
  3
Border (.15x) __.__.__.__.__.__.__.__.__.__.__.
 72
   65
 73
    6
 40
6.6675
 49
1.905
 74
    0
 49
-0.9525
 74
    0
 49
1.905
 74
    0
 49
-0.9525
 74
    0
 49
0
 74
    0
 49
-0.9525
 74
    0
  0
LTYPE
  5
44
330
5
100
AcDbSymbolTableRecord
100
AcDbLinetypeTableRecord
  2
BORDER2
 70
    0
  3
Border (.5x) __.__.__.__.__.__.__.__.__.__.__.
 72
   65
 73
    6
 40
22.225
 49
6.35
 74
    0
 49
-3.175
 74
    0
 49
6.35
 74
    0
 49
-3.175
 74
    0
 49
0
 74
    0
 49
-3.175
 74
    0
  0
LTYPE
  5
45
330
5
100
AcDbSymbolTableRecord
100
AcDbLinetypeTableRecord
  2
BORDERX2
 70
    0
  3
Border (2x) ____  ____  .  ____  ____  .  ___
 72
   65
 73
    6
 40
88.89999999999999
 49
25.4
 74
    0
 49
-12.7
 74
    0
 49
25.4
 74
    0
 49
-12.7
 74
    0
 49
0
 74
    0
 49
-12.7
 74
    0
  0
LTYPE
  5
46
330
5
100
AcDbSymbolTableRecord
100
AcDbLinetypeTableRecord
  2
CENTER
 70
    0
  3
Center ____ _ ____ _ ____ _ ____ _ ____ _ ____
 72
   65
 73
    4
 40
50.8
 49
31.75
 74
    0
 49
-6.35
 74
    0
 49
6.35
 74
    0
 49
-6.35
 74
    0
  0
LTYPE
  5
47
330
5
100
AcDbSymbolTableRecord
100
AcDbLinetypeTableRecord
  2
CENTERTINY
 70
    0
  3
Center (.15x) ___ _ ___ _ ___ _ ___ _ ___ _ ___
 72
   65
 73
    4
 40
7.62
 49
4.7625
 74
    0
 49
-0.9525
 74
    0
 49
0.9525
 74
    0
 49
-0.9525
 74
    0
  0
LTYPE
  5
48
330
5
100
AcDbSymbolTableRecord
100
AcDbLinetypeTableRecord
  2
CENTER2
 70
    0
  3
Center (.5x) ___ _ ___ _ ___ _ ___ _ ___ _ ___
 72
   65
 73
    4
 40
28.575
 49
19.05
 74
    0
 49
-3.175
 74
    0
 49
3.175
 74
    0
 49
-3.175
 74
    0
  0
LTYPE
  5
49
330
5
100
AcDbSymbolTableRecord
100
AcDbLinetypeTableRecord
  2
CENTERX2
 70
    0
  3
Center (2x) ________  __  ________  __  _____
 72
   65
 73
    4
 40
101.6
 49
63.5
 74
    0
 49
-12.7
 74
    0
 49
12.7
 74
    0
 49
-12.7
 74
    0
  0
ENDTAB
  0
TABLE
  2
LAYER
  5
2
330
0
100
AcDbSymbolTable
 70
    1
  0
LAYER
  5
10
330
2
100
AcDbSymbolTableRecord
100
AcDbLayerTableRecord
  2
0
 70
    0
 62
    7
  6
CONTINUOUS
370
    0
390
F
  0
ENDTAB
  0
TABLE
  2
STYLE
  5
3
330
0
100
AcDbSymbolTable
 70
    3
  0
STYLE
  5
4A
330
2
100
AcDbSymbolTableRecord
100
AcDbTextStyleTableRecord
  2
Standard
 70
    0
 40
0
 41
1
 50
0
 71
    0
 42
1
  3
txt
  4

  0
ENDTAB
  0
TABLE
  2
VIEW
  5
6
330
0
100
AcDbSymbolTable
 70
    0
  0
ENDTAB
  0
TABLE
  2
UCS
  5
7
330
0
100
AcDbSymbolTable
 70
    0
  0
ENDTAB
  0
TABLE
  2
APPID
  5
9
330
0
100
AcDbSymbolTable
 70
    1
  0
APPID
  5
12
330
9
100
AcDbSymbolTableRecord
100
AcDbRegAppTableRecord
  2
ACAD
 70
    0
  0
APPID
  5
4B
330
9
100
AcDbSymbolTableRecord
100
AcDbRegAppTableRecord
  2
LibreCad
 70
    0
  0
ENDTAB
  0
TABLE
  2
DIMSTYLE
  5
A
330
0
100
AcDbSymbolTable
 70
    1
100
AcDbDimStyleTable
 71
    1
  0
DIMSTYLE
105
4C
330
A
100
AcDbSymbolTableRecord
100
AcDbDimStyleTableRecord
  2
Standard
 70
    0
 40
1
 41
0.1
 42
0.025
 43
0.38
 44
0.05
 45
0
 46
0
 47
0
 48
0
 49
1
140
0.1
141
0.09
142
2.5
143
25.4
144
1
145
0
146
1
147
0.025
148
0
 71
    0
 72
    0
 73
    0
 74
    1
 75
    0
 76
    0
 77
    0
 78
    1
 79
    0
170
    0
171
    2
172
    0
173
    0
174
    0
175
    0
176
    0
177
    0
178
    0
179
    0
271
    2
272
    4
273
    2
274
    2
275
    0
276
    0
277
    2
278
    0
279
    0
280
    0
281
    0
282
    0
283
    1
284
    0
285
    0
286
    0
288
    0
289
    3
340
standard
341

371
   -2
372
   -2
  0
ENDTAB
  0
TABLE
  2
BLOCK_RECORD
  5
1
330
0
100
AcDbSymbolTable
 70
    2
  0
BLOCK_RECORD
  5
1F
330
1
100
AcDbSymbolTableRecord
100
AcDbBlockTableRecord
  2
*Model_Space
 70
    0
280
    1
281
    0
  0
BLOCK_RECORD
  5
1E
330
1
100
AcDbSymbolTableRecord
100
AcDbBlockTableRecord
  2
*Paper_Space
 70
    0
280
    1
281
    0
  0
ENDTAB
  0
ENDSEC
  0
SECTION
  2
BLOCKS
  0
BLOCK
  5
20
330
1F
100
AcDbEntity
  8
0
100
AcDbBlockBegin
  2
*Model_Space
 70
    0
 10
0
 20
0
 30
0
  3
*Model_Space
  1

  0
ENDBLK
  5
21
330
1F
100
AcDbEntity
  8
0
100
AcDbBlockEnd
  0
BLOCK
  5
1C
330
1B
100
AcDbEntity
  8
0
100
AcDbBlockBegin
  2
*Paper_Space
 70
    0
 10
0
 20
0
 30
0
  3
*Paper_Space
  1

  0
ENDBLK
  5
1D
330
1F
100
AcDbEntity
  8
0
100
AcDbBlockEnd
  0
ENDSEC
  0
SECTION
  2
ENTITIES
  0
LINE
  5
4D
100
AcDbEntity
  8
0
  6
ByLayer
 62
    5
370
   -1
100
AcDbLine
 10
10.355
 20
-395.441
 11
20.6816
 21
-394.628
  0
LINE
  5
4E
100
AcDbEntity
  8
0
  6
ByLayer
 62
    5
370
   -1
100
AcDbLine
 10
20.6816
 20
-394.628
 11
30.9515
 21
-393.276
  0
LINE
  5
4F
100
AcDbEntity
  8
0
  6
ByLayer
 62
    5
370
   -1
100
AcDbLine
 10
30.9515
 20
-393.276
 11
41.1366
 21
-391.389
  0
LINE
  5
50
100
AcDbEntity
  8
0
  6
ByLayer
 62
    5
370
   -1
100
AcDbLine
 10
41.1366
 20
-391.389
 11
51.2089
 21
-388.97
  0
LINE
  5
51
100
AcDbEntity
  8
0
  6
ByLayer
 62
    5
370
   -1
100
AcDbLine
 10
51.2089
 20
-388.97
 11
61.1409
 21
-386.029
  0
LINE
  5
52
100
AcDbEntity
  8
0
  6
ByLayer
 62
    5
370
   -1
100
AcDbLine
 10
61.1409
 20
-386.029
 11
70.9053
 21
-382.571
  0
LINE
  5
53
100
AcDbEntity
  8
0
  6
ByLayer
 62
    5
370
   -1
100
AcDbLine
 10
70.9053
 20
-382.571
 11
80.4753
 21
-378.607
  0
LINE
  5
54
100
AcDbEntity
  8
0
  6
ByLayer
 62
    5
370
   -1
100
AcDbLine
 10
80.4753
 20
-378.607
 11
89.8248
 21
-374.147
  0
LINE
  5
55
100
AcDbEntity
  8
0
  6
ByLayer
 62
    5
370
   -1
100
AcDbLine
 10
89.8248
 20
-374.147
 11
98.9281
 21
-369.205
  0
LINE
  5
56
100
AcDbEntity
  8
0
  6
ByLayer
 62
    5
370
   -1
100
AcDbLine
 10
98.9281
 20
-369.205
 11
107.76
 21
-363.792
  0
LINE
  5
57
100
AcDbEntity
  8
0
  6
ByLayer
 62
    5
370
   -1
100
AcDbLine
 10
107.76
 20
-363.792
 11
116.297
 21
-357.925
  0
LINE
  5
58
100
AcDbEntity
  8
0
  6
ByLayer
 62
    5
370
   -1
100
AcDbLine
 10
116.297
 20
-357.925
 11
124.515
 21
-351.619
  0
LINE
  5
59
100
AcDbEntity
  8
0
  6
ByLayer
 62
    5
370
   -1
100
AcDbLine
 10
124.515
 20
-351.619
 11
132.392
 21
-344.892
  0
LINE
  5
5A
100
AcDbEntity
  8
0
  6
ByLayer
 62
    5
370
   -1
100
AcDbLine
 10
132.392
 20
-344.892
 11
139.905
 21
-337.762
  0
LINE
  5
5B
100
AcDbEntity
  8
0
  6
ByLayer
 62
    5
370
   -1
100
AcDbLine
 10
139.905
 20
-337.762
 11
147.036
 21
-330.248
  0
LINE
  5
5C
100
AcDbEntity
  8
0
  6
ByLayer
 62
    5
370
   -1
100
AcDbLine
 10
147.036
 20
-330.248
 11
153.763
 21
-322.371
  0
LINE
  5
5D
100
AcDbEntity
  8
0
  6
ByLayer
 62
    5
370
   -1
100
AcDbLine
 10
153.763
 20
-322.371
 11
160.069
 21
-314.153
  0
LINE
  5
5E
100
AcDbEntity
  8
0
  6
ByLayer
 62
    5
370
   -1
100
AcDbLine
 10
160.069
 20
-314.153
 11
165.936
 21
-305.616
  0
LINE
  5
5F
100
AcDbEntity
  8
0
  6
ByLayer
 62
    5
370
   -1
100
AcDbLine
 10
165.936
 20
-305.616
 11
171.348
 21
-296.784
  0
LINE
  5
60
100
AcDbEntity
  8
0
  6
ByLayer
 62
    5
370
   -1
100
AcDbLine
 10
171.348
 20
-296.784
 11
176.291
 21
-287.681
  0
LINE
  5
61
100
AcDbEntity
  8
0
  6
ByLayer
 62
    5
370
   -1
100
AcDbLine
 10
176.291
 20
-287.681
 11
180.751
 21
-278.331
  0
LINE
  5
62
100
AcDbEntity
  8
0
  6
ByLayer
 62
    5
370
   -1
100
AcDbLine
 10
180.751
 20
-278.331
 11
184.715
 21
-268.761
  0
LINE
  5
63
100
AcDbEntity
  8
0
  6
ByLayer
 62
    5
370
   -1
100
AcDbLine
 10
184.715
 20
-268.761
 11
188.172
 21
-258.997
  0
LINE
  5
64
100
AcDbEntity
  8
0
  6
ByLayer
 62
    5
370
   -1
100
AcDbLine
 10
188.172
 20
-258.997
 11
191.114
 21
-249.065
  0
LINE
  5
65
100
AcDbEntity
  8
0
  6
ByLayer
 62
    5
370
   -1
100
AcDbLine
 10
191.114
 20
-249.065
 11
193.533
 21
-238.993
  0
LINE
  5
66
100
AcDbEntity
  8
0
  6
ByLayer
 62
    5
370
   -1
100
AcDbLine
 10
193.533
 20
-238.993
 11
195.42
 21
-228.808
  0
LINE
  5
67
100
AcDbEntity
  8
0
  6
ByLayer
 62
    5
370
   -1
100
AcDbLine
 10
195.42
 20
-228.808
 11
196.772
 21
-218.538
  0
LINE
  5
68
100
AcDbEntity
  8
0
  6
ByLayer
 62
    5
370
   -1
100
AcDbLine
 10
196.772
 20
-218.538
 11
197.585
 21
-208.211
  0
LINE
  5
69
100
AcDbEntity
  8
0
  6
ByLayer
 62
    5
370
   -1
100
AcDbLine
 10
197.585
 20
-208.211
 11
197.856
 21
-197.856
  0
LINE
  5
6A
100
AcDbEntity
  8
0
  6
ByLayer
 62
    5
370
   -1
100
AcDbLine
 10
197.856
 20
-197.856
 11
197.585
 21
-187.501
  0
LINE
  5
6B
100
AcDbEntity
  8
0
  6
ByLayer
 62
    5
370
   -1
100
AcDbLine
 10
197.585
 20
-187.501
 11
196.772
 21
-177.175
  0
LINE
  5
6C
100
AcDbEntity
  8
0
  6
ByLayer
 62
    5
370
   -1
100
AcDbLine
 10
196.772
 20
-177.175
 11
195.42
 21
-166.905
  0
LINE
  5
6D
100
AcDbEntity
  8
0
  6
ByLayer
 62
    5
370
   -1
100
AcDbLine
 10
195.42
 20
-166.905
 11
193.533
 21
-156.72
  0
LINE
  5
6E
100
AcDbEntity
  8
0
  6
ByLayer
 62
    5
370
   -1
100
AcDbLine
 10
193.533
 20
-156.72
 11
191.114
 21
-146.647
  0
LINE
  5
6F
100
AcDbEntity
  8
0
  6
ByLayer
 62
    5
370
   -1
100
AcDbLine
 10
191.114
 20
-146.647
 11
188.172
 21
-136.715
  0
LINE
  5
70
100
AcDbEntity
  8
0
  6
ByLayer
 62
    5
370
   -1
100
AcDbLine
 10
188.172
 20
-136.715
 11
184.715
 21
-126.951
  0
LINE
  5
71
100
AcDbEntity
  8
0
  6
ByLayer
 62
    5
370
   -1
100
AcDbLine
 10
184.715
 20
-126.951
 11
180.751
 21
-117.381
  0
LINE
  5
72
100
AcDbEntity
  8
0
  6
ByLayer
 62
    5
370
   -1
100
AcDbLine
 10
180.751
 20
-117.381
 11
176.291
 21
-108.031
  0
LINE
  5
73
100
AcDbEntity
  8
0
  6
ByLayer
 62
    5
370
   -1
100
AcDbLine
 10
176.291
 20
-108.031
 11
171.348
 21
-98.9281
  0
LINE
  5
74
100
AcDbEntity
  8
0
  6
ByLayer
 62
    5
370
   -1
100
AcDbLine
 10
171.348
 20
-98.9281
 11
165.936
 21
-90.096
  0
LINE
  5
75
100
AcDbEntity
  8
0
  6
ByLayer
 62
    5
370
   -1
100
AcDbLine
 10
165.936
 20
-90.096
 11
160.069
 21
-81.5592
  0
LINE
  5
76
100
AcDbEntity
  8
0
  6
ByLayer
 62
    5
370
   -1
100
AcDbLine
 10
160.069
 20
-81.5592
 11
153.763
 21
-73.3412
  0
LINE
  5
77
100
AcDbEntity
  8
0
  6
ByLayer
 62
    5
370
   -1
100
AcDbLine
 10
153.763
 20
-73.3412
 11
147.036
 21
-65.4645
  0
LINE
  5
78
100
AcDbEntity
  8
0
  6
ByLayer
 62
    5
370
   -1
100
AcDbLine
 10
147.036
 20
-65.4645
 11
139.905
 21
-57.9507
  0
LINE
  5
79
100
AcDbEntity
  8
0
  6
ByLayer
 62
    5
370
   -1
100
AcDbLine
 10
139.905
 20
-57.9507
 11
132.392
 21
-50.8204
  0
LINE
  5
7A
100
AcDbEntity
  8
0
  6
ByLayer
 62
    5
370
   -1
100
AcDbLine
 10
132.392
 20
-50.8204
 11
124.515
 21
-44.093
  0
LINE
  5
7B
100
AcDbEntity
  8
0
  6
ByLayer
 62
    5
370
   -1
100
AcDbLine
 10
124.515
 20
-44.093
 11
116.297
 21
-37.7872
  0
LINE
  5
7C
100
AcDbEntity
  8
0
  6
ByLayer
 62
    5
370
   -1
100
AcDbLine
 10
116.297
 20
-37.7872
 11
107.76
 21
-31.92
  0
LINE
  5
7D
100
AcDbEntity
  8
0
  6
ByLayer
 62
    5
370
   -1
100
AcDbLine
 10
107.76
 20
-31.92
 11
98.9281
 21
-26.5077
  0
LINE
  5
7E
100
AcDbEntity
  8
0
  6
ByLayer
 62
    5
370
   -1
100
AcDbLine
 10
98.9281
 20
-26.5077
 11
89.8248
 21
-21.565
  0
LINE
  5
7F
100
AcDbEntity
  8
0
  6
ByLayer
 62
    5
370
   -1
100
AcDbLine
 10
89.8248
 20
-21.565
 11
80.4753
 21
-17.1056
  0
LINE
  5
80
100
AcDbEntity
  8
0
  6
ByLayer
 62
    5
370
   -1
100
AcDbLine
 10
80.4753
 20
-17.1056
 11
70.9053
 21
-13.1415
  0
LINE
  5
81
100
AcDbEntity
  8
0
  6
ByLayer
 62
    5
370
   -1
100
AcDbLine
 10
70.9053
 20
-13.1415
 11
61.1409
 21
-9.683759999999999
  0
LINE
  5
82
100
AcDbEntity
  8
0
  6
ByLayer
 62
    5
370
   -1
100
AcDbLine
 10
61.1409
 20
-9.683759999999999
 11
51.2089
 21
-6.74178
  0
LINE
  5
83
100
AcDbEntity
  8
0
  6
ByLayer
 62
    5
370
   -1
100
AcDbLine
 10
51.2089
 20
-6.74178
 11
41.1366
 21
-4.32362
  0
LINE
  5
84
100
AcDbEntity
  8
0
  6
ByLayer
 62
    5
370
   -1
100
AcDbLine
 10
41.1366
 20
-4.32362
 11
30.9515
 21
-2.43593
  0
LINE
  5
85
100
AcDbEntity
  8
0
  6
ByLayer
 62
    5
370
   -1
100
AcDbLine
 10
30.9515
 20
-2.43593
 11
20.6816
 21
-1.08386
  0
LINE
  5
86
100
AcDbEntity
  8
0
  6
ByLayer
 62
    5
370
   -1
100
AcDbLine
 10
20.6816
 20
-1.08386
 11
10.355
 21
-0.271149
  0
LINE
  5
87
100
AcDbEntity
  8
0
  6
ByLayer
 62
    5
370
   -1
100
AcDbLine
 10
10.355
 20
-0.271149
 11
0
 21
0
  0
LINE
  5
88
100
AcDbEntity
  8
0
  6
ByLayer
 62
    5
370
   -1
100
AcDbLine
 10
0
 20
0
 11
-10.355
 21
-0.271149
  0
LINE
  5
89
100
AcDbEntity
  8
0
  6
ByLayer
 62
    5
370
   -1
100
AcDbLine
 10
-10.355
 20
-0.271149
 11
-20.6816
 21
-1.08386
  0
LINE
  5
8A
100
AcDbEntity
  8
0
  6
ByLayer
 62
    5
370
   -1
100
AcDbLine
 10
-20.6816
 20
-1.08386
 11
-30.9515
 21
-2.43593
  0
LINE
  5
8B
100
AcDbEntity
  8
0
  6
ByLayer
 62
    5
370
   -1
100
AcDbLine
 10
-30.9515
 20
-2.43593
 11
-41.1366
 21
-4.32362
  0
LINE
  5
8C
100
AcDbEntity
  8
0
  6
ByLayer
 62
    5
370
   -1
100
AcDbLine
 10
-41.1366
 20
-4.32362
 11
-51.2089
 21
-6.74178
  0
LINE
  5
8D
100
AcDbEntity
  8
0
  6
ByLayer
 62
    5
370
   -1
100
AcDbLine
 10
-51.2089
 20
-6.74178
 11
-61.1409
 21
-9.683759999999999
  0
LINE
  5
8E
100
AcDbEntity
  8
0
  6
ByLayer
 62
    5
370
   -1
100
AcDbLine
 10
-61.1409
 20
-9.683759999999999
 11
-70.9053
 21
-13.1415
  0
LINE
  5
8F
100
AcDbEntity
  8
0
  6
ByLayer
 62
    5
370
   -1
100
AcDbLine
 10
-70.9053
 20
-13.1415
 11
-80.4753
 21
-17.1056
  0
LINE
  5
90
100
AcDbEntity
  8
0
  6
ByLayer
 62
    5
370
   -1
100
AcDbLine
 10
-80.4753
 20
-17.1056
 11
-89.8248
 21
-21.565
  0
LINE
  5
91
100
AcDbEntity
  8
0
  6
ByLayer
 62
    5
370
   -1
100
AcDbLine
 10
-89.8248
 20
-21.565
 11
-98.9281
 21
-26.5077
  0
LINE
  5
92
100
AcDbEntity
  8
0
  6
ByLayer
 62
    5
370
   -1
100
AcDbLine
 10
-98.9281
 20
-26.5077
 11
-107.76
 21
-31.92
  0
LINE
  5
93
100
AcDbEntity
  8
0
  6
ByLayer
 62
    5
370
   -1
100
AcDbLine
 10
-107.76
 20
-31.92
 11
-116.297
 21
-37.7872
  0
LINE
  5
94
100
AcDbEntity
  8
0
  6
ByLayer
 62
    5
370
   -1
100
AcDbLine
 10
-116.297
 20
-37.7872
 11
-124.515
 21
-44.093
  0
LINE
  5
95
100
AcDbEntity
  8
0
  6
ByLayer
 62
    5
370
   -1
100
AcDbLine
 10
-124.515
 20
-44.093
 11
-132.392
 21
-50.8204
  0
LINE
  5
96
100
AcDbEntity
  8
0
  6
ByLayer
 62
    5
370
   -1
100
AcDbLine
 10
-132.392
 20
-50.8204
 11
-139.905
 21
-57.9507
  0
LINE
  5
97
100
AcDbEntity
  8
0
  6
ByLayer
 62
    5
370
   -1
100
AcDbLine
 10
-139.905
 20
-57.9507
 11
-147.036
 21
-65.4645
  0
LINE
  5
98
100
AcDbEntity
  8
0
  6
ByLayer
 62
    5
370
   -1
100
AcDbLine
 10
-147.036
 20
-65.4645
 11
-153.763
 21
-73.3412
  0
LINE
  5
99
100
AcDbEntity
  8
0
  6
ByLayer
 62
    5
370
   -1
100
AcDbLine
 10
-153.763
 20
-73.3412
 11
-160.069
 21
-81.5592
  0
LINE
  5
9A
100
AcDbEntity
  8
0
  6
ByLayer
 62
    5
370
   -1
100
AcDbLine
 10
-160.069
 20
-81.5592
 11
-165.936
 21
-90.096
  0
LINE
  5
9B
100
AcDbEntity
  8
0
  6
ByLayer
 62
    5
370
   -1
100
AcDbLine
 10
-165.936
 20
-90.096
 11
-171.348
 21
-98.9281
  0
LINE
  5
9C
100
AcDbEntity
  8
0
  6
ByLayer
 62
    5
370
   -1
100
AcDbLine
 10
-171.348
 20
-98.9281
 11
-176.291
 21
-108.031
  0
LINE
  5
9D
100
AcDbEntity
  8
0
  6
ByLayer
 62
    5
370
   -1
100
AcDbLine
 10
-176.291
 20
-108.031
 11
-180.751
 21
-117.381
  0
LINE
  5
9E
100
AcDbEntity
  8
0
  6
ByLayer
 62
    5
370
   -1
100
AcDbLine
 10
-180.751
 20
-117.381
 11
-184.715
 21
-126.951
  0
LINE
  5
9F
100
AcDbEntity
  8
0
  6
ByLayer
 62
    5
370
   -1
100
AcDbLine
 10
-184.715
 20
-126.951
 11
-188.172
 21
-136.715
  0
LINE
  5
A0
100
AcDbEntity
  8
0
  6
ByLayer
 62
    5
370
   -1
100
AcDbLine
 10
-188.172
 20
-136.715
 11
-191.114
 21
-146.647
  0
LINE
  5
A1
100
AcDbEntity
  8
0
  6
ByLayer
 62
    5
370
   -1
100
AcDbLine
 10
-191.114
 20
-146.647
 11
-193.533
 21
-156.72
  0
LINE
  5
A2
100
AcDbEntity
  8
0
  6
ByLayer
 62
    5
370
   -1
100
AcDbLine
 10
-193.533
 20
-156.72
 11
-195.42
 21
-166.905
  0
LINE
  5
A3
100
AcDbEntity
  8
0
  6
ByLayer
 62
    5
370
   -1
100
AcDbLine
 10
-195.42
 20
-166.905
 11
-196.772
 21
-177.175
  0
LINE
  5
A4
100
AcDbEntity
  8
0
  6
ByLayer
 62
    5
370
   -1
100
AcDbLine
 10
-196.772
 20
-177.175
 11
-197.585
 21
-187.501
  0
LINE
  5
A5
100
AcDbEntity
  8
0
  6
ByLayer
 62
    5
370
   -1
100
AcDbLine
 10
-197.585
 20
-187.501
 11
-197.856
 21
-197.856
  0
LINE
  5
A6
100
AcDbEntity
  8
0
  6
ByLayer
 62
    5
370
   -1
100
AcDbLine
 10
-197.856
 20
-197.856
 11
-197.585
 21
-208.211
  0
LINE
  5
A7
100
AcDbEntity
  8
0
  6
ByLayer
 62
    5
370
   -1
100
AcDbLine
 10
-197.585
 20
-208.211
 11
-196.772
 21
-218.538
  0
LINE
  5
A8
100
AcDbEntity
  8
0
  6
ByLayer
 62
    5
370
   -1
100
AcDbLine
 10
-196.772
 20
-218.538
 11
-195.42
 21
-228.808
  0
LINE
  5
A9
100
AcDbEntity
  8
0
  6
ByLayer
 62
    5
370
   -1
100
AcDbLine
 10
-195.42
 20
-228.808
 11
-193.533
 21
-238.993
  0
LINE
  5
AA
100
AcDbEntity
  8
0
  6
ByLayer
 62
    5
370
   -1
100
AcDbLine
 10
-193.533
 20
-238.993
 11
-191.114
 21
-249.065
  0
LINE
  5
AB
100
AcDbEntity
  8
0
  6
ByLayer
 62
    5
370
   -1
100
AcDbLine
 10
-191.114
 20
-249.065
 11
-188.172
 21
-258.997
  0
LINE
  5
AC
100
AcDbEntity
  8
0
  6
ByLayer
 62
    5
370
   -1
100
AcDbLine
 10
-188.172
 20
-258.997
 11
-184.715
 21
-268.761
  0
LINE
  5
AD
100
AcDbEntity
  8
0
  6
ByLayer
 62
    5
370
   -1
100
AcDbLine
 10
-184.715
 20
-268.761
 11
-180.751
 21
-278.331
  0
LINE
  5
AE
100
AcDbEntity
  8
0
  6
ByLayer
 62
    5
370
   -1
100
AcDbLine
 10
-180.751
 20
-278.331
 11
-176.291
 21
-287.681
  0
LINE
  5
AF
100
AcDbEntity
  8
0
  6
ByLayer
 62
    5
370
   -1
100
AcDbLine
 10
-176.291
 20
-287.681
 11
-171.348
 21
-296.784
  0
LINE
  5
B0
100
AcDbEntity
  8
0
  6
ByLayer
 62
    5
370
   -1
100
AcDbLine
 10
-171.348
 20
-296.784
 11
-165.936
 21
-305.616
  0
LINE
  5
B1
100
AcDbEntity
  8
0
  6
ByLayer
 62
    5
370
   -1
100
AcDbLine
 10
-165.936
 20
-305.616
 11
-160.069
 21
-314.153
  0
LINE
  5
B2
100
AcDbEntity
  8
0
  6
ByLayer
 62
    5
370
   -1
100
AcDbLine
 10
-160.069
 20
-314.153
 11
-153.763
 21
-322.371
  0
LINE
  5
B3
100
AcDbEntity
  8
0
  6
ByLayer
 62
    5
370
   -1
100
AcDbLine
 10
-153.763
 20
-322.371
 11
-147.036
 21
-330.248
  0
LINE
  5
B4
100
AcDbEntity
  8
0
  6
ByLayer
 62
    5
370
   -1
100
AcDbLine
 10
-147.036
 20
-330.248
 11
-139.905
 21
-337.762
  0
LINE
  5
B5
100
AcDbEntity
  8
0
  6
ByLayer
 62
    5
370
   -1
100
AcDbLine
 10
-139.905
 20
-337.762
 11
-132.392
 21
-344.892
  0
LINE
  5
B6
100
AcDbEntity
  8
0
  6
ByLayer
 62
    5
370
   -1
100
AcDbLine
 10
-132.392
 20
-344.892
 11
-124.515
 21
-351.619
  0
LINE
  5
B7
100
AcDbEntity
  8
0
  6
ByLayer
 62
    5
370
   -1
100
AcDbLine
 10
-124.515
 20
-351.619
 11
-116.297
 21
-357.925
  0
LINE
  5
B8
100
AcDbEntity
  8
0
  6
ByLayer
 62
    5
370
   -1
100
AcDbLine
 10
-116.297
 20
-357.925
 11
-107.76
 21
-363.792
  0
LINE
  5
B9
100
AcDbEntity
  8
0
  6
ByLayer
 62
    5
370
   -1
100
AcDbLine
 10
-107.76
 20
-363.792
 11
-98.9281
 21
-369.205
  0
LINE
  5
BA
100
AcDbEntity
  8
0
  6
ByLayer
 62
    5
370
   -1
100
AcDbLine
 10
-98.9281
 20
-369.205
 11
-89.8248
 21
-374.147
  0
LINE
  5
BB
100
AcDbEntity
  8
0
  6
ByLayer
 62
    5
370
   -1
100
AcDbLine
 10
-89.8248
 20
-374.147
 11
-80.4753
 21
-378.607
  0
LINE
  5
BC
100
AcDbEntity
  8
0
  6
ByLayer
 62
    5
370
   -1
100
AcDbLine
 10
-80.4753
 20
-378.607
 11
-70.9053
 21
-382.571
  0
LINE
  5
BD
100
AcDbEntity
  8
0
  6
ByLayer
 62
    5
370
   -1
100
AcDbLine
 10
-70.9053
 20
-382.571
 11
-61.1409
 21
-386.029
  0
LINE
  5
BE
100
AcDbEntity
  8
0
  6
ByLayer
 62
    5
370
   -1
100
AcDbLine
 10
-61.1409
 20
-386.029
 11
-51.2089
 21
-388.97
  0
LINE
  5
BF
100
AcDbEntity
  8
0
  6
ByLayer
 62
    5
370
   -1
100
AcDbLine
 10
-51.2089
 20
-388.97
 11
-41.1366
 21
-391.389
  0
LINE
  5
C0
100
AcDbEntity
  8
0
  6
ByLayer
 62
    5
370
   -1
100
AcDbLine
 10
-41.1366
 20
-391.389
 11
-30.9515
 21
-393.276
  0
LINE
  5
C1
100
AcDbEntity
  8
0
  6
ByLayer
 62
    5
370
   -1
100
AcDbLine
 10
-30.9515
 20
-393.276
 11
-20.6816
 21
-394.628
  0
LINE
  5
C2
100
AcDbEntity
  8
0
  6
ByLayer
 62
    5
370
   -1
100
AcDbLine
 10
-20.6816
 20
-394.628
 11
-10.355
 21
-395.441
  0
LINE
  5
C3
100
AcDbEntity
  8
0
  6
ByLayer
 62
    5
370
   -1
100
AcDbLine
 10
-10.355
 20
-395.441
 11
0
 21
-395.712
  0
LINE
  5
C4
100
AcDbEntity
  8
0
  6
ByLayer
 62
    5
370
   -1
100
AcDbLine
 10
0
 20
-395.712
 11
10.355
 21
-395.441
  0
LINE
  5
C5
100
AcDbEntity
  8
0
  6
ByLayer
 62
    5
370
   -1
100
AcDbLine
 10
24.7395
 20
-27.7122
 11
24.487
 21
-27.6445
  0
LINE
  5
C6
100
AcDbEntity
  8
0
  6
ByLayer
 62
    5
370
   -1
100
AcDbLine
 10
24.487
 20
-27.6445
 11
24.25
 21
-27.534
  0
LINE
  5
C7
100
AcDbEntity
  8
0
  6
ByLayer
 62
    5
370
   -1
100
AcDbLine
 10
24.25
 20
-27.534
 11
24.0358
 21
-27.3841
  0
LINE
  5
C8
100
AcDbEntity
  8
0
  6
ByLayer
 62
    5
370
   -1
100
AcDbLine
 10
24.0358
 20
-27.3841
 11
23.8509
 21
-27.1992
  0
LINE
  5
C9
100
AcDbEntity
  8
0
  6
ByLayer
 62
    5
370
   -1
100
AcDbLine
 10
23.8509
 20
-27.1992
 11
23.701
 21
-26.985
  0
LINE
  5
CA
100
AcDbEntity
  8
0
  6
ByLayer
 62
    5
370
   -1
100
AcDbLine
 10
23.701
 20
-26.985
 11
23.5905
 21
-26.748
  0
LINE
  5
CB
100
AcDbEntity
  8
0
  6
ByLayer
 62
    5
370
   -1
100
AcDbLine
 10
23.5905
 20
-26.748
 11
23.5228
 21
-26.4955
  0
LINE
  5
CC
100
AcDbEntity
  8
0
  6
ByLayer
 62
    5
370
   -1
100
AcDbLine
 10
23.5228
 20
-26.4955
 11
23.5
 21
-26.235
  0
LINE
  5
CD
100
AcDbEntity
  8
0
  6
ByLayer
 62
    5
370
   -1
100
AcDbLine
 10
23.5
 20
-26.235
 11
23.5228
 21
-25.9745
  0
LINE
  5
CE
100
AcDbEntity
  8
0
  6
ByLayer
 62
    5
370
   -1
100
AcDbLine
 10
23.5228
 20
-25.9745
 11
23.5905
 21
-25.722
  0
LINE
  5
CF
100
AcDbEntity
  8
0
  6
ByLayer
 62
    5
370
   -1
100
AcDbLine
 10
23.5905
 20
-25.722
 11
23.701
 21
-25.485
  0
LINE
  5
D0
100
AcDbEntity
  8
0
  6
ByLayer
 62
    5
370
   -1
100
AcDbLine
 10
23.701
 20
-25.485
 11
23.8509
 21
-25.2708
  0
LINE
  5
D1
100
AcDbEntity
  8
0
  6
ByLayer
 62
    5
370
   -1
100
AcDbLine
 10
23.8509
 20
-25.2708
 11
24.0358
 21
-25.0859
  0
LINE
  5
D2
100
AcDbEntity
  8
0
  6
ByLayer
 62
    5
370
   -1
100
AcDbLine
 10
24.0358
 20
-25.0859
 11
24.25
 21
-24.936
  0
LINE
  5
D3
100
AcDbEntity
  8
0
  6
ByLayer
 62
    5
370
   -1
100
AcDbLine
 10
24.25
 20
-24.936
 11
24.487
 21
-24.8255
  0
LINE
  5
D4
100
AcDbEntity
  8
0
  6
ByLayer
 62
    5
370
   -1
100
AcDbLine
 10
24.487
 20
-24.8255
 11
24.7395
 21
-24.7578
  0
LINE
  5
D5
100
AcDbEntity
  8
0
  6
ByLayer
 62
    5
370
   -1
100
AcDbLine
 10
24.7395
 20
-24.7578
 11
25
 21
-24.735
  0
LINE
  5
D6
100
AcDbEntity
  8
0
  6
ByLayer
 62
    5
370
   -1
100
AcDbLine
 10
25
 20
-24.735
 11
25.2605
 21
-24.7578
  0
LINE
  5
D7
100
AcDbEntity
  8
0
  6
ByLayer
 62
    5
370
   -1
100
AcDbLine
 10
25.2605
 20
-24.7578
 11
25.513
 21
-24.8255
  0
LINE
  5
D8
100
AcDbEntity
  8
0
  6
ByLayer
 62
    5
370
   -1
100
AcDbLine
 10
25.513
 20
-24.8255
 11
25.75
 21
-24.936
  0
LINE
  5
D9
100
AcDbEntity
  8
0
  6
ByLayer
 62
    5
370
   -1
100
AcDbLine
 10
25.75
 20
-24.936
 11
25.9642
 21
-25.0859
  0
LINE
  5
DA
100
AcDbEntity
  8
0
  6
ByLayer
 62
    5
370
   -1
100
AcDbLine
 10
25.9642
 20
-25.0859
 11
26.1491
 21
-25.2708
  0
LINE
  5
DB
100
AcDbEntity
  8
0
  6
ByLayer
 62
    5
370
   -1
100
AcDbLine
 10
26.1491
 20
-25.2708
 11
26.299
 21
-25.485
  0
LINE
  5
DC
100
AcDbEntity
  8
0
  6
ByLayer
 62
    5
370
   -1
100
AcDbLine
 10
26.299
 20
-25.485
 11
26.4095
 21
-25.722
  0
LINE
  5
DD
100
AcDbEntity
  8
0
  6
ByLayer
 62
    5
370
   -1
100
AcDbLine
 10
26.4095
 20
-25.722
 11
26.4772
 21
-25.9745
  0
LINE
  5
DE
100
AcDbEntity
  8
0
  6
ByLayer
 62
    5
370
   -1
100
AcDbLine
 10
26.4772
 20
-25.9745
 11
26.5
 21
-26.235
  0
LINE
  5
DF
100
AcDbEntity
  8
0
  6
ByLayer
 62
    5
370
   -1
100
AcDbLine
 10
26.5
 20
-26.235
 11
26.4772
 21
-26.4955
  0
LINE
  5
E0
100
AcDbEntity
  8
0
  6
ByLayer
 62
    5
370
   -1
100
AcDbLine
 10
26.4772
 20
-26.4955
 11
26.4095
 21
-26.748
  0
LINE
  5
E1
100
AcDbEntity
  8
0
  6
ByLayer
 62
    5
370
   -1
100
AcDbLine
 10
26.4095
 20
-26.748
 11
26.299
 21
-26.985
  0
LINE
  5
E2
100
AcDbEntity
  8
0
  6
ByLayer
 62
    5
370
   -1
100
AcDbLine
 10
26.299
 20
-26.985
 11
26.1491
 21
-27.1992
  0
LINE
  5
E3
100
AcDbEntity
  8
0
  6
ByLayer
 62
    5
370
   -1
100
AcDbLine
 10
26.1491
 20
-27.1992
 11
25.9642
 21
-27.3841
  0
LINE
  5
E4
100
AcDbEntity
  8
0
  6
ByLayer
 62
    5
370
   -1
100
AcDbLine
 10
25.9642
 20
-27.3841
 11
25.75
 21
-27.534
  0
LINE
  5
E5
100
AcDbEntity
  8
0
  6
ByLayer
 62
    5
370
   -1
100
AcDbLine
 10
25.75
 20
-27.534
 11
25.513
 21
-27.6445
  0
LINE
  5
E6
100
AcDbEntity
  8
0
  6
ByLayer
 62
    5
370
   -1
100
AcDbLine
 10
25.513
 20
-27.6445
 11
25.2605
 21
-27.7122
  0
LINE
  5
E7
100
AcDbEntity
  8
0
  6
ByLayer
 62
    5
370
   -1
100
AcDbLine
 10
25.2605
 20
-27.7122
 11
25
 21
-27.735
  0
LINE
  5
E8
100
AcDbEntity
  8
0
  6
ByLayer
 62
    5
370
   -1
100
AcDbLine
 10
25
 20
-27.735
 11
24.7395
 21
-27.7122
  0
LINE
  5
E9
100
AcDbEntity
  8
0
  6
ByLayer
 62
    5
370
   -1
100
AcDbLine
 10
-25.2605
 20
-27.7122
 11
-25.513
 21
-27.6445
  0
LINE
  5
EA
100
AcDbEntity
  8
0
  6
ByLayer
 62
    5
370
   -1
100
AcDbLine
 10
-25.513
 20
-27.6445
 11
-25.75
 21
-27.534
  0
LINE
  5
EB
100
AcDbEntity
  8
0
  6
ByLayer
 62
    5
370
   -1
100
AcDbLine
 10
-25.75
 20
-27.534
 11
-25.9642
 21
-27.3841
  0
LINE
  5
EC
100
AcDbEntity
  8
0
  6
ByLayer
 62
    5
370
   -1
100
AcDbLine
 10
-25.9642
 20
-27.3841
 11
-26.1491
 21
-27.1992
  0
LINE
  5
ED
100
AcDbEntity
  8
0
  6
ByLayer
 62
    5
370
   -1
100
AcDbLine
 10
-26.1491
 20
-27.1992
 11
-26.299
 21
-26.985
  0
LINE
  5
EE
100
AcDbEntity
  8
0
  6
ByLayer
 62
    5
370
   -1
100
AcDbLine
 10
-26.299
 20
-26.985
 11
-26.4095
 21
-26.748
  0
LINE
  5
EF
100
AcDbEntity
  8
0
  6
ByLayer
 62
    5
370
   -1
100
AcDbLine
 10
-26.4095
 20
-26.748
 11
-26.4772
 21
-26.4955
  0
LINE
  5
F0
100
AcDbEntity
  8
0
  6
ByLayer
 62
    5
370
   -1
100
AcDbLine
 10
-26.4772
 20
-26.4955
 11
-26.5
 21
-26.235
  0
LINE
  5
F1
100
AcDbEntity
  8
0
  6
ByLayer
 62
    5
370
   -1
100
AcDbLine
 10
-26.5
 20
-26.235
 11
-26.4772
 21
-25.9745
  0
LINE
  5
F2
100
AcDbEntity
  8
0
  6
ByLayer
 62
    5
370
   -1
100
AcDbLine
 10
-26.4772
 20
-25.9745
 11
-26.4095
 21
-25.722
  0
LINE
  5
F3
100
AcDbEntity
  8
0
  6
ByLayer
 62
    5
370
   -1
100
AcDbLine
 10
-26.4095
 20
-25.722
 11
-26.299
 21
-25.485
  0
LINE
  5
F4
100
AcDbEntity
  8
0
  6
ByLayer
 62
    5
370
   -1
100
AcDbLine
 10
-26.299
 20
-25.485
 11
-26.1491
 21
-25.2708
  0
LINE
  5
F5
100
AcDbEntity
  8
0
  6
ByLayer
 62
    5
370
   -1
100
AcDbLine
 10
-26.1491
 20
-25.2708
 11
-25.9642
 21
-25.0859
  0
LINE
  5
F6
100
AcDbEntity
  8
0
  6
ByLayer
 62
    5
370
   -1
100
AcDbLine
 10
-25.9642
 20
-25.0859
 11
-25.75
 21
-24.936
  0
LINE
  5
F7
100
AcDbEntity
  8
0
  6
ByLayer
 62
    5
370
   -1
100
AcDbLine
 10
-25.75
 20
-24.936
 11
-25.513
 21
-24.8255
  0
LINE
  5
F8
100
AcDbEntity
  8
0
  6
ByLayer
 62
    5
370
   -1
100
AcDbLine
 10
-25.513
 20
-24.8255
 11
-25.2605
 21
-24.7578
  0
LINE
  5
F9
100
AcDbEntity
  8
0
  6
ByLayer
 62
    5
370
   -1
100
AcDbLine
 10
-25.2605
 20
-24.7578
 11
-25
 21
-24.735
  0
LINE
  5
FA
100
AcDbEntity
  8
0
  6
ByLayer
 62
    5
370
   -1
100
AcDbLine
 10
-25
 20
-24.735
 11
-24.7395
 21
-24.7578
  0
LINE
  5
FB
100
AcDbEntity
  8
0
  6
ByLayer
 62
    5
370
   -1
100
AcDbLine
 10
-24.7395
 20
-24.7578
 11
-24.487
 21
-24.8255
  0
LINE
  5
FC
100
AcDbEntity
  8
0
  6
ByLayer
 62
    5
370
   -1
100
AcDbLine
 10
-24.487
 20
-24.8255
 11
-24.25
 21
-24.936
  0
LINE
  5
FD
100
AcDbEntity
  8
0
  6
ByLayer
 62
    5
370
   -1
100
AcDbLine
 10
-24.25
 20
-24.936
 11
-24.0358
 21
-25.0859
  0
LINE
  5
FE
100
AcDbEntity
  8
0
  6
ByLayer
 62
    5
370
   -1
100
AcDbLine
 10
-24.0358
 20
-25.0859
 11
-23.8509
 21
-25.2708
  0
LINE
  5
FF
100
AcDbEntity
  8
0
  6
ByLayer
 62
    5
370
   -1
100
AcDbLine
 10
-23.8509
 20
-25.2708
 11
-23.701
 21
-25.485
  0
LINE
  5
100
100
AcDbEntity
  8
0
  6
ByLayer
 62
    5
370
   -1
100
AcDbLine
 10
-23.701
 20
-25.485
 11
-23.5905
 21
-25.722
  0
LINE
  5
101
100
AcDbEntity
  8
0
  6
ByLayer
 62
    5
370
   -1
100
AcDbLine
 10
-23.5905
 20
-25.722
 11
-23.5228
 21
-25.9745
  0
LINE
  5
102
100
AcDbEntity
  8
0
  6
ByLayer
 62
    5
370
   -1
100
AcDbLine
 10
-23.5228
 20
-25.9745
 11
-23.5
 21
-26.235
  0
LINE
  5
103
100
AcDbEntity
  8
0
  6
ByLayer
 62
    5
370
   -1
100
AcDbLine
 10
-23.5
 20
-26.235
 11
-23.5228
 21
-26.4955
  0
LINE
  5
104
100
AcDbEntity
  8
0
  6
ByLayer
 62
    5
370
   -1
100
AcDbLine
 10
-23.5228
 20
-26.4955
 11
-23.5905
 21
-26.748
  0
LINE
  5
105
100
AcDbEntity
  8
0
  6
ByLayer
 62
    5
370
   -1
100
AcDbLine
 10
-23.5905
 20
-26.748
 11
-23.701
 21
-26.985
  0
LINE
  5
106
100
AcDbEntity
  8
0
  6
ByLayer
 62
    5
370
   -1
100
AcDbLine
 10
-23.701
 20
-26.985
 11
-23.8509
 21
-27.1992
  0
LINE
  5
107
100
AcDbEntity
  8
0
  6
ByLayer
 62
    5
370
   -1
100
AcDbLine
 10
-23.8509
 20
-27.1992
 11
-24.0358
 21
-27.3841
  0
LINE
  5
108
100
AcDbEntity
  8
0
  6
ByLayer
 62
    5
370
   -1
100
AcDbLine
 10
-24.0358
 20
-27.3841
 11
-24.25
 21
-27.534
  0
LINE
  5
109
100
AcDbEntity
  8
0
  6
ByLayer
 62
    5
370
   -1
100
AcDbLine
 10
-24.25
 20
-27.534
 11
-24.487
 21
-27.6445
  0
LINE
  5
10A
100
AcDbEntity
  8
0
  6
ByLayer
 62
    5
370
   -1
100
AcDbLine
 10
-24.487
 20
-27.6445
 11
-24.7395
 21
-27.7122
  0
LINE
  5
10B
100
AcDbEntity
  8
0
  6
ByLayer
 62
    5
370
   -1
100
AcDbLine
 10
-24.7395
 20
-27.7122
 11
-25
 21
-27.735
  0
LINE
  5
10C
100
AcDbEntity
  8
0
  6
ByLayer
 62
    5
370
   -1
100
AcDbLine
 10
-25
 20
-27.735
 11
-25.2605
 21
-27.7122
  0
LINE
  5
10D
100
AcDbEntity
  8
0
  6
ByLayer
 62
    5
370
   -1
100
AcDbLine
 10
-7.81512
 20
-346.978
 11
-15.6088
 21
-346.364
  0
LINE
  5
10E
100
AcDbEntity
  8
0
  6
ByLayer
 62
    5
370
   -1
100
AcDbLine
 10
-15.6088
 20
-346.364
 11
-23.3597
 21
-345.344
  0
LINE
  5
10F
100
AcDbEntity
  8
0
  6
ByLayer
 62
    5
370
   -1
100
AcDbLine
 10
-23.3597
 20
-345.344
 11
-31.0466
 21
-343.919
  0
LINE
  5
110
100
AcDbEntity
  8
0
  6
ByLayer
 62
    5
370
   -1
100
AcDbLine
 10
-31.0466
 20
-343.919
 11
-38.6484
 21
-342.094
  0
LINE
  5
111
100
AcDbEntity
  8
0
  6
ByLayer
 62
    5
370
   -1
100
AcDbLine
 10
-38.6484
 20
-342.094
 11
-46.1443
 21
-339.874
  0
LINE
  5
112
100
AcDbEntity
  8
0
  6
ByLayer
 62
    5
370
   -1
100
AcDbLine
 10
-46.1443
 20
-339.874
 11
-53.5137
 21
-337.264
  0
LINE
  5
113
100
AcDbEntity
  8
0
  6
ByLayer
 62
    5
370
   -1
100
AcDbLine
 10
-53.5137
 20
-337.264
 11
-60.7364
 21
-334.272
  0
LINE
  5
114
100
AcDbEntity
  8
0
  6
ByLayer
 62
    5
370
   -1
100
AcDbLine
 10
-60.7364
 20
-334.272
 11
-67.79259999999999
 21
-330.907
  0
LINE
  5
115
100
AcDbEntity
  8
0
  6
ByLayer
 62
    5
370
   -1
100
AcDbLine
 10
-67.79259999999999
 20
-330.907
 11
-74.6631
 21
-327.176
  0
LINE
  5
116
100
AcDbEntity
  8
0
  6
ByLayer
 62
    5
370
   -1
100
AcDbLine
 10
-74.6631
 20
-327.176
 11
-81.3288
 21
-323.092
  0
LINE
  5
117
100
AcDbEntity
  8
0
  6
ByLayer
 62
    5
370
   -1
100
AcDbLine
 10
-81.3288
 20
-323.092
 11
-87.7717
 21
-318.664
  0
LINE
  5
118
100
AcDbEntity
  8
0
  6
ByLayer
 62
    5
370
   -1
100
AcDbLine
 10
-87.7717
 20
-318.664
 11
-93.974
 21
-313.904
  0
LINE
  5
119
100
AcDbEntity
  8
0
  6
ByLayer
 62
    5
370
   -1
100
AcDbLine
 10
-93.974
 20
-313.904
 11
-99.9187
 21
-308.827
  0
LINE
  5
11A
100
AcDbEntity
  8
0
  6
ByLayer
 62
    5
370
   -1
100
AcDbLine
 10
-99.9187
 20
-308.827
 11
-105.59
 21
-303.446
  0
LINE
  5
11B
100
AcDbEntity
  8
0
  6
ByLayer
 62
    5
370
   -1
100
AcDbLine
 10
-105.59
 20
-303.446
 11
-110.971
 21
-297.775
  0
LINE
  5
11C
100
AcDbEntity
  8
0
  6
ByLayer
 62
    5
370
   -1
100
AcDbLine
 10
-110.971
 20
-297.775
 11
-116.048
 21
-291.83
  0
LINE
  5
11D
100
AcDbEntity
  8
0
  6
ByLayer
 62
    5
370
   -1
100
AcDbLine
 10
-116.048
 20
-291.83
 11
-120.807
 21
-285.628
  0
LINE
  5
11E
100
AcDbEntity
  8
0
  6
ByLayer
 62
    5
370
   -1
100
AcDbLine
 10
-120.807
 20
-285.628
 11
-125.235
 21
-279.185
  0
LINE
  5
11F
100
AcDbEntity
  8
0
  6
ByLayer
 62
    5
370
   -1
100
AcDbLine
 10
-125.235
 20
-279.185
 11
-129.32
 21
-272.519
  0
LINE
  5
120
100
AcDbEntity
  8
0
  6
ByLayer
 62
    5
370
   -1
100
AcDbLine
 10
-129.32
 20
-272.519
 11
-133.051
 21
-265.649
  0
LINE
  5
121
100
AcDbEntity
  8
0
  6
ByLayer
 62
    5
370
   -1
100
AcDbLine
 10
-133.051
 20
-265.649
 11
-136.416
 21
-258.593
  0
LINE
  5
122
100
AcDbEntity
  8
0
  6
ByLayer
 62
    5
370
   -1
100
AcDbLine
 10
-136.416
 20
-258.593
 11
-139.408
 21
-251.37
  0
LINE
  5
123
100
AcDbEntity
  8
0
  6
ByLayer
 62
    5
370
   -1
100
AcDbLine
 10
-139.408
 20
-251.37
 11
-142.018
 21
-244
  0
LINE
  5
124
100
AcDbEntity
  8
0
  6
ByLayer
 62
    5
370
   -1
100
AcDbLine
 10
-142.018
 20
-244
 11
-144.238
 21
-236.505
  0
LINE
  5
125
100
AcDbEntity
  8
0
  6
ByLayer
 62
    5
370
   -1
100
AcDbLine
 10
-144.238
 20
-236.505
 11
-146.063
 21
-228.903
  0
LINE
  5
126
100
AcDbEntity
  8
0
  6
ByLayer
 62
    5
370
   -1
100
AcDbLine
 10
-146.063
 20
-228.903
 11
-147.488
 21
-221.216
  0
LINE
  5
127
100
AcDbEntity
  8
0
  6
ByLayer
 62
    5
370
   -1
100
AcDbLine
 10
-147.488
 20
-221.216
 11
-148.508
 21
-213.465
  0
LINE
  5
128
100
AcDbEntity
  8
0
  6
ByLayer
 62
    5
370
   -1
100
AcDbLine
 10
-148.508
 20
-213.465
 11
-149.121
 21
-205.671
  0
LINE
  5
129
100
AcDbEntity
  8
0
  6
ByLayer
 62
    5
370
   -1
100
AcDbLine
 10
-149.121
 20
-205.671
 11
-149.326
 21
-197.856
  0
LINE
  5
12A
100
AcDbEntity
  8
0
  6
ByLayer
 62
    5
370
   -1
100
AcDbLine
 10
-149.326
 20
-197.856
 11
-149.121
 21
-190.041
  0
LINE
  5
12B
100
AcDbEntity
  8
0
  6
ByLayer
 62
    5
370
   -1
100
AcDbLine
 10
-149.121
 20
-190.041
 11
-148.508
 21
-182.247
  0
LINE
  5
12C
100
AcDbEntity
  8
0
  6
ByLayer
 62
    5
370
   -1
100
AcDbLine
 10
-148.508
 20
-182.247
 11
-147.488
 21
-174.496
  0
LINE
  5
12D
100
AcDbEntity
  8
0
  6
ByLayer
 62
    5
370
   -1
100
AcDbLine
 10
-147.488
 20
-174.496
 11
-146.063
 21
-166.809
  0
LINE
  5
12E
100
AcDbEntity
  8
0
  6
ByLayer
 62
    5
370
   -1
100
AcDbLine
 10
-146.063
 20
-166.809
 11
-144.238
 21
-159.208
  0
LINE
  5
12F
100
AcDbEntity
  8
0
  6
ByLayer
 62
    5
370
   -1
100
AcDbLine
 10
-144.238
 20
-159.208
 11
-142.018
 21
-151.712
  0
LINE
  5
130
100
AcDbEntity
  8
0
  6
ByLayer
 62
    5
370
   -1
100
AcDbLine
 10
-142.018
 20
-151.712
 11
-139.408
 21
-144.342
  0
LINE
  5
131
100
AcDbEntity
  8
0
  6
ByLayer
 62
    5
370
   -1
100
AcDbLine
 10
-139.408
 20
-144.342
 11
-136.416
 21
-137.12
  0
LINE
  5
132
100
AcDbEntity
  8
0
  6
ByLayer
 62
    5
370
   -1
100
AcDbLine
 10
-136.416
 20
-137.12
 11
-133.051
 21
-130.063
  0
LINE
  5
133
100
AcDbEntity
  8
0
  6
ByLayer
 62
    5
370
   -1
100
AcDbLine
 10
-133.051
 20
-130.063
 11
-129.32
 21
-123.193
  0
LINE
  5
134
100
AcDbEntity
  8
0
  6
ByLayer
 62
    5
370
   -1
100
AcDbLine
 10
-129.32
 20
-123.193
 11
-125.235
 21
-116.527
  0
LINE
  5
135
100
AcDbEntity
  8
0
  6
ByLayer
 62
    5
370
   -1
100
AcDbLine
 10
-125.235
 20
-116.527
 11
-120.807
 21
-110.084
  0
LINE
  5
136
100
AcDbEntity
  8
0
  6
ByLayer
 62
    5
370
   -1
100
AcDbLine
 10
-120.807
 20
-110.084
 11
-116.048
 21
-103.882
  0
LINE
  5
137
100
AcDbEntity
  8
0
  6
ByLayer
 62
    5
370
   -1
100
AcDbLine
 10
-116.048
 20
-103.882
 11
-110.971
 21
-97.9374
  0
LINE
  5
138
100
AcDbEntity
  8
0
  6
ByLayer
 62
    5
370
   -1
100
AcDbLine
 10
-110.971
 20
-97.9374
 11
-105.59
 21
-92.2666
  0
LINE
  5
139
100
AcDbEntity
  8
0
  6
ByLayer
 62
    5
370
   -1
100
AcDbLine
 10
-105.59
 20
-92.2666
 11
-99.9187
 21
-86.8852
  0
LINE
  5
13A
100
AcDbEntity
  8
0
  6
ByLayer
 62
    5
370
   -1
100
AcDbLine
 10
-99.9187
 20
-86.8852
 11
-93.974
 21
-81.8079
  0
LINE
  5
13B
100
AcDbEntity
  8
0
  6
ByLayer
 62
    5
370
   -1
100
AcDbLine
 10
-93.974
 20
-81.8079
 11
-87.7717
 21
-77.0488
  0
LINE
  5
13C
100
AcDbEntity
  8
0
  6
ByLayer
 62
    5
370
   -1
100
AcDbLine
 10
-87.7717
 20
-77.0488
 11
-81.3288
 21
-72.6207
  0
LINE
  5
13D
100
AcDbEntity
  8
0
  6
ByLayer
 62
    5
370
   -1
100
AcDbLine
 10
-81.3288
 20
-72.6207
 11
-74.6631
 21
-68.5359
  0
LINE
  5
13E
100
AcDbEntity
  8
0
  6
ByLayer
 62
    5
370
   -1
100
AcDbLine
 10
-74.6631
 20
-68.5359
 11
-67.79259999999999
 21
-64.8056
  0
LINE
  5
13F
100
AcDbEntity
  8
0
  6
ByLayer
 62
    5
370
   -1
100
AcDbLine
 10
-67.79259999999999
 20
-64.8056
 11
-63.3175
 21
-62.6711
  0
LINE
  5
140
100
AcDbEntity
  8
0
  6
ByLayer
 62
    5
370
   -1
100
AcDbLine
 10
-63.3175
 20
-62.6711
 11
-63.3175
 21
-31.235
  0
LINE
  5
141
100
AcDbEntity
  8
0
  6
ByLayer
 62
    5
370
   -1
100
AcDbLine
 10
-63.3175
 20
-31.235
 11
-63.2947
 21
-30.9745
  0
LINE
  5
142
100
AcDbEntity
  8
0
  6
ByLayer
 62
    5
370
   -1
100
AcDbLine
 10
-63.2947
 20
-30.9745
 11
-63.2271
 21
-30.722
  0
LINE
  5
143
100
AcDbEntity
  8
0
  6
ByLayer
 62
    5
370
   -1
100
AcDbLine
 10
-63.2271
 20
-30.722
 11
-63.1166
 21
-30.485
  0
LINE
  5
144
100
AcDbEntity
  8
0
  6
ByLayer
 62
    5
370
   -1
100
AcDbLine
 10
-63.1166
 20
-30.485
 11
-62.9666
 21
-30.2708
  0
LINE
  5
145
100
AcDbEntity
  8
0
  6
ByLayer
 62
    5
370
   -1
100
AcDbLine
 10
-62.9666
 20
-30.2708
 11
-62.7817
 21
-30.0859
  0
LINE
  5
146
100
AcDbEntity
  8
0
  6
ByLayer
 62
    5
370
   -1
100
AcDbLine
 10
-62.7817
 20
-30.0859
 11
-62.5675
 21
-29.936
  0
LINE
  5
147
100
AcDbEntity
  8
0
  6
ByLayer
 62
    5
370
   -1
100
AcDbLine
 10
-62.5675
 20
-29.936
 11
-62.3306
 21
-29.8255
  0
LINE
  5
148
100
AcDbEntity
  8
0
  6
ByLayer
 62
    5
370
   -1
100
AcDbLine
 10
-62.3306
 20
-29.8255
 11
-62.078
 21
-29.7578
  0
LINE
  5
149
100
AcDbEntity
  8
0
  6
ByLayer
 62
    5
370
   -1
100
AcDbLine
 10
-62.078
 20
-29.7578
 11
-61.8175
 21
-29.735
  0
LINE
  5
14A
100
AcDbEntity
  8
0
  6
ByLayer
 62
    5
370
   -1
100
AcDbLine
 10
-61.8175
 20
-29.735
 11
-61.5571
 21
-29.7578
  0
LINE
  5
14B
100
AcDbEntity
  8
0
  6
ByLayer
 62
    5
370
   -1
100
AcDbLine
 10
-61.5571
 20
-29.7578
 11
-61.3045
 21
-29.8255
  0
LINE
  5
14C
100
AcDbEntity
  8
0
  6
ByLayer
 62
    5
370
   -1
100
AcDbLine
 10
-61.3045
 20
-29.8255
 11
-61.0675
 21
-29.936
  0
LINE
  5
14D
100
AcDbEntity
  8
0
  6
ByLayer
 62
    5
370
   -1
100
AcDbLine
 10
-61.0675
 20
-29.936
 11
-60.8533
 21
-30.0859
  0
LINE
  5
14E
100
AcDbEntity
  8
0
  6
ByLayer
 62
    5
370
   -1
100
AcDbLine
 10
-60.8533
 20
-30.0859
 11
-60.6685
 21
-30.2708
  0
LINE
  5
14F
100
AcDbEntity
  8
0
  6
ByLayer
 62
    5
370
   -1
100
AcDbLine
 10
-60.6685
 20
-30.2708
 11
-60.5185
 21
-30.485
  0
LINE
  5
150
100
AcDbEntity
  8
0
  6
ByLayer
 62
    5
370
   -1
100
AcDbLine
 10
-60.5185
 20
-30.485
 11
-60.408
 21
-30.722
  0
LINE
  5
151
100
AcDbEntity
  8
0
  6
ByLayer
 62
    5
370
   -1
100
AcDbLine
 10
-60.408
 20
-30.722
 11
-60.3403
 21
-30.9745
  0
LINE
  5
152
100
AcDbEntity
  8
0
  6
ByLayer
 62
    5
370
   -1
100
AcDbLine
 10
-60.3403
 20
-30.9745
 11
-60.3175
 21
-31.235
  0
LINE
  5
153
100
AcDbEntity
  8
0
  6
ByLayer
 62
    5
370
   -1
100
AcDbLine
 10
-60.3175
 20
-31.235
 11
60.3175
 21
-31.235
  0
LINE
  5
154
100
AcDbEntity
  8
0
  6
ByLayer
 62
    5
370
   -1
100
AcDbLine
 10
60.3175
 20
-31.235
 11
60.3403
 21
-30.9745
  0
LINE
  5
155
100
AcDbEntity
  8
0
  6
ByLayer
 62
    5
370
   -1
100
AcDbLine
 10
60.3403
 20
-30.9745
 11
60.408
 21
-30.722
  0
LINE
  5
156
100
AcDbEntity
  8
0
  6
ByLayer
 62
    5
370
   -1
100
AcDbLine
 10
60.408
 20
-30.722
 11
60.5185
 21
-30.485
  0
LINE
  5
157
100
AcDbEntity
  8
0
  6
ByLayer
 62
    5
370
   -1
100
AcDbLine
 10
60.5185
 20
-30.485
 11
60.6685
 21
-30.2708
  0
LINE
  5
158
100
AcDbEntity
  8
0
  6
ByLayer
 62
    5
370
   -1
100
AcDbLine
 10
60.6685
 20
-30.2708
 11
60.8533
 21
-30.0859
  0
LINE
  5
159
100
AcDbEntity
  8
0
  6
ByLayer
 62
    5
370
   -1
100
AcDbLine
 10
60.8533
 20
-30.0859
 11
61.0675
 21
-29.936
  0
LINE
  5
15A
100
AcDbEntity
  8
0
  6
ByLayer
 62
    5
370
   -1
100
AcDbLine
 10
61.0675
 20
-29.936
 11
61.3045
 21
-29.8255
  0
LINE
  5
15B
100
AcDbEntity
  8
0
  6
ByLayer
 62
    5
370
   -1
100
AcDbLine
 10
61.3045
 20
-29.8255
 11
61.5571
 21
-29.7578
  0
LINE
  5
15C
100
AcDbEntity
  8
0
  6
ByLayer
 62
    5
370
   -1
100
AcDbLine
 10
61.5571
 20
-29.7578
 11
61.8175
 21
-29.735
  0
LINE
  5
15D
100
AcDbEntity
  8
0
  6
ByLayer
 62
    5
370
   -1
100
AcDbLine
 10
61.8175
 20
-29.735
 11
62.078
 21
-29.7578
  0
LINE
  5
15E
100
AcDbEntity
  8
0
  6
ByLayer
 62
    5
370
   -1
100
AcDbLine
 10
62.078
 20
-29.7578
 11
62.3306
 21
-29.8255
  0
LINE
  5
15F
100
AcDbEntity
  8
0
  6
ByLayer
 62
    5
370
   -1
100
AcDbLine
 10
62.3306
 20
-29.8255
 11
62.5675
 21
-29.936
  0
LINE
  5
160
100
AcDbEntity
  8
0
  6
ByLayer
 62
    5
370
   -1
100
AcDbLine
 10
62.5675
 20
-29.936
 11
62.7817
 21
-30.0859
  0
LINE
  5
161
100
AcDbEntity
  8
0
  6
ByLayer
 62
    5
370
   -1
100
AcDbLine
 10
62.7817
 20
-30.0859
 11
62.9666
 21
-30.2708
  0
LINE
  5
162
100
AcDbEntity
  8
0
  6
ByLayer
 62
    5
370
   -1
100
AcDbLine
 10
62.9666
 20
-30.2708
 11
63.1166
 21
-30.485
  0
LINE
  5
163
100
AcDbEntity
  8
0
  6
ByLayer
 62
    5
370
   -1
100
AcDbLine
 10
63.1166
 20
-30.485
 11
63.2271
 21
-30.722
  0
LINE
  5
164
100
AcDbEntity
  8
0
  6
ByLayer
 62
    5
370
   -1
100
AcDbLine
 10
63.2271
 20
-30.722
 11
63.2947
 21
-30.9745
  0
LINE
  5
165
100
AcDbEntity
  8
0
  6
ByLayer
 62
    5
370
   -1
100
AcDbLine
 10
63.2947
 20
-30.9745
 11
63.3175
 21
-31.235
  0
LINE
  5
166
100
AcDbEntity
  8
0
  6
ByLayer
 62
    5
370
   -1
100
AcDbLine
 10
63.3175
 20
-31.235
 11
63.3175
 21
-62.6711
  0
LINE
  5
167
100
AcDbEntity
  8
0
  6
ByLayer
 62
    5
370
   -1
100
AcDbLine
 10
63.3175
 20
-62.6711
 11
67.79259999999999
 21
-64.8056
  0
LINE
  5
168
100
AcDbEntity
  8
0
  6
ByLayer
 62
    5
370
   -1
100
AcDbLine
 10
67.79259999999999
 20
-64.8056
 11
74.6631
 21
-68.5359
  0
LINE
  5
169
100
AcDbEntity
  8
0
  6
ByLayer
 62
    5
370
   -1
100
AcDbLine
 10
74.6631
 20
-68.5359
 11
81.3288
 21
-72.6207
  0
LINE
  5
16A
100
AcDbEntity
  8
0
  6
ByLayer
 62
    5
370
   -1
100
AcDbLine
 10
81.3288
 20
-72.6207
 11
87.7717
 21
-77.0488
  0
LINE
  5
16B
100
AcDbEntity
  8
0
  6
ByLayer
 62
    5
370
   -1
100
AcDbLine
 10
87.7717
 20
-77.0488
 11
93.974
 21
-81.8079
  0
LINE
  5
16C
100
AcDbEntity
  8
0
  6
ByLayer
 62
    5
370
   -1
100
AcDbLine
 10
93.974
 20
-81.8079
 11
99.9187
 21
-86.8852
  0
LINE
  5
16D
100
AcDbEntity
  8
0
  6
ByLayer
 62
    5
370
   -1
100
AcDbLine
 10
99.9187
 20
-86.8852
 11
105.59
 21
-92.2666
  0
LINE
  5
16E
100
AcDbEntity
  8
0
  6
ByLayer
 62
    5
370
   -1
100
AcDbLine
 10
105.59
 20
-92.2666
 11
110.971
 21
-97.9374
  0
LINE
  5
16F
100
AcDbEntity
  8
0
  6
ByLayer
 62
    5
370
   -1
100
AcDbLine
 10
110.971
 20
-97.9374
 11
116.048
 21
-103.882
  0
LINE
  5
170
100
AcDbEntity
  8
0
  6
ByLayer
 62
    5
370
   -1
100
AcDbLine
 10
116.048
 20
-103.882
 11
120.807
 21
-110.084
  0
LINE
  5
171
100
AcDbEntity
  8
0
  6
ByLayer
 62
    5
370
   -1
100
AcDbLine
 10
120.807
 20
-110.084
 11
125.235
 21
-116.527
  0
LINE
  5
172
100
AcDbEntity
  8
0
  6
ByLayer
 62
    5
370
   -1
100
AcDbLine
 10
125.235
 20
-116.527
 11
129.32
 21
-123.193
  0
LINE
  5
173
100
AcDbEntity
  8
0
  6
ByLayer
 62
    5
370
   -1
100
AcDbLine
 10
129.32
 20
-123.193
 11
133.051
 21
-130.063
  0
LINE
  5
174
100
AcDbEntity
  8
0
  6
ByLayer
 62
    5
370
   -1
100
AcDbLine
 10
133.051
 20
-130.063
 11
136.416
 21
-137.12
  0
LINE
  5
175
100
AcDbEntity
  8
0
  6
ByLayer
 62
    5
370
   -1
100
AcDbLine
 10
136.416
 20
-137.12
 11
139.408
 21
-144.342
  0
LINE
  5
176
100
AcDbEntity
  8
0
  6
ByLayer
 62
    5
370
   -1
100
AcDbLine
 10
139.408
 20
-144.342
 11
142.018
 21
-151.712
  0
LINE
  5
177
100
AcDbEntity
  8
0
  6
ByLayer
 62
    5
370
   -1
100
AcDbLine
 10
142.018
 20
-151.712
 11
144.238
 21
-159.208
  0
LINE
  5
178
100
AcDbEntity
  8
0
  6
ByLayer
 62
    5
370
   -1
100
AcDbLine
 10
144.238
 20
-159.208
 11
146.063
 21
-166.809
  0
LINE
  5
179
100
AcDbEntity
  8
0
  6
ByLayer
 62
    5
370
   -1
100
AcDbLine
 10
146.063
 20
-166.809
 11
147.488
 21
-174.496
  0
LINE
  5
17A
100
AcDbEntity
  8
0
  6
ByLayer
 62
    5
370
   -1
100
AcDbLine
 10
147.488
 20
-174.496
 11
148.508
 21
-182.247
  0
LINE
  5
17B
100
AcDbEntity
  8
0
  6
ByLayer
 62
    5
370
   -1
100
AcDbLine
 10
148.508
 20
-182.247
 11
149.121
 21
-190.041
  0
LINE
  5
17C
100
AcDbEntity
  8
0
  6
ByLayer
 62
    5
370
   -1
100
AcDbLine
 10
149.121
 20
-190.041
 11
149.326
 21
-197.856
  0
LINE
  5
17D
100
AcDbEntity
  8
0
  6
ByLayer
 62
    5
370
   -1
100
AcDbLine
 10
149.326
 20
-197.856
 11
149.121
 21
-205.671
  0
LINE
  5
17E
100
AcDbEntity
  8
0
  6
ByLayer
 62
    5
370
   -1
100
AcDbLine
 10
149.121
 20
-205.671
 11
148.508
 21
-213.465
  0
LINE
  5
17F
100
AcDbEntity
  8
0
  6
ByLayer
 62
    5
370
   -1
100
AcDbLine
 10
148.508
 20
-213.465
 11
147.488
 21
-221.216
  0
LINE
  5
180
100
AcDbEntity
  8
0
  6
ByLayer
 62
    5
370
   -1
100
AcDbLine
 10
147.488
 20
-221.216
 11
146.063
 21
-228.903
  0
LINE
  5
181
100
AcDbEntity
  8
0
  6
ByLayer
 62
    5
370
   -1
100
AcDbLine
 10
146.063
 20
-228.903
 11
144.238
 21
-236.505
  0
LINE
  5
182
100
AcDbEntity
  8
0
  6
ByLayer
 62
    5
370
   -1
100
AcDbLine
 10
144.238
 20
-236.505
 11
142.018
 21
-244
  0
LINE
  5
183
100
AcDbEntity
  8
0
  6
ByLayer
 62
    5
370
   -1
100
AcDbLine
 10
142.018
 20
-244
 11
139.408
 21
-251.37
  0
LINE
  5
184
100
AcDbEntity
  8
0
  6
ByLayer
 62
    5
370
   -1
100
AcDbLine
 10
139.408
 20
-251.37
 11
136.416
 21
-258.593
  0
LINE
  5
185
100
AcDbEntity
  8
0
  6
ByLayer
 62
    5
370
   -1
100
AcDbLine
 10
136.416
 20
-258.593
 11
133.051
 21
-265.649
  0
LINE
  5
186
100
AcDbEntity
  8
0
  6
ByLayer
 62
    5
370
   -1
100
AcDbLine
 10
133.051
 20
-265.649
 11
129.32
 21
-272.519
  0
LINE
  5
187
100
AcDbEntity
  8
0
  6
ByLayer
 62
    5
370
   -1
100
AcDbLine
 10
129.32
 20
-272.519
 11
125.235
 21
-279.185
  0
LINE
  5
188
100
AcDbEntity
  8
0
  6
ByLayer
 62
    5
370
   -1
100
AcDbLine
 10
125.235
 20
-279.185
 11
120.807
 21
-285.628
  0
LINE
  5
189
100
AcDbEntity
  8
0
  6
ByLayer
 62
    5
370
   -1
100
AcDbLine
 10
120.807
 20
-285.628
 11
116.048
 21
-291.83
  0
LINE
  5
18A
100
AcDbEntity
  8
0
  6
ByLayer
 62
    5
370
   -1
100
AcDbLine
 10
116.048
 20
-291.83
 11
110.971
 21
-297.775
  0
LINE
  5
18B
100
AcDbEntity
  8
0
  6
ByLayer
 62
    5
370
   -1
100
AcDbLine
 10
110.971
 20
-297.775
 11
105.59
 21
-303.446
  0
LINE
  5
18C
100
AcDbEntity
  8
0
  6
ByLayer
 62
    5
370
   -1
100
AcDbLine
 10
105.59
 20
-303.446
 11
99.9187
 21
-308.827
  0
LINE
  5
18D
100
AcDbEntity
  8
0
  6
ByLayer
 62
    5
370
   -1
100
AcDbLine
 10
99.9187
 20
-308.827
 11
93.974
 21
-313.904
  0
LINE
  5
18E
100
AcDbEntity
  8
0
  6
ByLayer
 62
    5
370
   -1
100
AcDbLine
 10
93.974
 20
-313.904
 11
87.7717
 21
-318.664
  0
LINE
  5
18F
100
AcDbEntity
  8
0
  6
ByLayer
 62
    5
370
   -1
100
AcDbLine
 10
87.7717
 20
-318.664
 11
81.3288
 21
-323.092
  0
LINE
  5
190
100
AcDbEntity
  8
0
  6
ByLayer
 62
    5
370
   -1
100
AcDbLine
 10
81.3288
 20
-323.092
 11
74.6631
 21
-327.176
  0
LINE
  5
191
100
AcDbEntity
  8
0
  6
ByLayer
 62
    5
370
   -1
100
AcDbLine
 10
74.6631
 20
-327.176
 11
67.79259999999999
 21
-330.907
  0
LINE
  5
192
100
AcDbEntity
  8
0
  6
ByLayer
 62
    5
370
   -1
100
AcDbLine
 10
67.79259999999999
 20
-330.907
 11
60.7364
 21
-334.272
  0
LINE
  5
193
100
AcDbEntity
  8
0
  6
ByLayer
 62
    5
370
   -1
100
AcDbLine
 10
60.7364
 20
-334.272
 11
53.5137
 21
-337.264
  0
LINE
  5
194
100
AcDbEntity
  8
0
  6
ByLayer
 62
    5
370
   -1
100
AcDbLine
 10
53.5137
 20
-337.264
 11
46.1443
 21
-339.874
  0
LINE
  5
195
100
AcDbEntity
  8
0
  6
ByLayer
 62
    5
370
   -1
100
AcDbLine
 10
46.1443
 20
-339.874
 11
38.6484
 21
-342.094
  0
LINE
  5
196
100
AcDbEntity
  8
0
  6
ByLayer
 62
    5
370
   -1
100
AcDbLine
 10
38.6484
 20
-342.094
 11
31.0466
 21
-343.919
  0
LINE
  5
197
100
AcDbEntity
  8
0
  6
ByLayer
 62
    5
370
   -1
100
AcDbLine
 10
31.0466
 20
-343.919
 11
23.3597
 21
-345.344
  0
LINE
  5
198
100
AcDbEntity
  8
0
  6
ByLayer
 62
    5
370
   -1
100
AcDbLine
 10
23.3597
 20
-345.344
 11
15.6088
 21
-346.364
  0
LINE
  5
199
100
AcDbEntity
  8
0
  6
ByLayer
 62
    5
370
   -1
100
AcDbLine
 10
15.6088
 20
-346.364
 11
7.81512
 21
-346.978
  0
LINE
  5
19A
100
AcDbEntity
  8
0
  6
ByLayer
 62
    5
370
   -1
100
AcDbLine
 10
7.81512
 20
-346.978
 11
0
 21
-347.182
  0
LINE
  5
19B
100
AcDbEntity
  8
0
  6
ByLayer
 62
    5
370
   -1
100
AcDbLine
 10
0
 20
-347.182
 11
-7.81512
 21
-346.978
  0
LINE
  5
19C
100
AcDbEntity
  8
0
  6
ByLayer
 62
    5
370
   -1
100
AcDbLine
 10
-68.078
 20
-37.7528
 11
-68.3306
 21
-37.6851
  0
LINE
  5
19D
100
AcDbEntity
  8
0
  6
ByLayer
 62
    5
370
   -1
100
AcDbLine
 10
-68.3306
 20
-37.6851
 11
-68.5675
 21
-37.5746
  0
LINE
  5
19E
100
AcDbEntity
  8
0
  6
ByLayer
 62
    5
370
   -1
100
AcDbLine
 10
-68.5675
 20
-37.5746
 11
-68.7817
 21
-37.4246
  0
LINE
  5
19F
100
AcDbEntity
  8
0
  6
ByLayer
 62
    5
370
   -1
100
AcDbLine
 10
-68.7817
 20
-37.4246
 11
-68.9666
 21
-37.2397
  0
LINE
  5
1A0
100
AcDbEntity
  8
0
  6
ByLayer
 62
    5
370
   -1
100
AcDbLine
 10
-68.9666
 20
-37.2397
 11
-69.11660000000001
 21
-37.0256
  0
LINE
  5
1A1
100
AcDbEntity
  8
0
  6
ByLayer
 62
    5
370
   -1
100
AcDbLine
 10
-69.11660000000001
 20
-37.0256
 11
-69.22709999999999
 21
-36.7886
  0
LINE
  5
1A2
100
AcDbEntity
  8
0
  6
ByLayer
 62
    5
370
   -1
100
AcDbLine
 10
-69.22709999999999
 20
-36.7886
 11
-69.29470000000001
 21
-36.536
  0
LINE
  5
1A3
100
AcDbEntity
  8
0
  6
ByLayer
 62
    5
370
   -1
100
AcDbLine
 10
-69.29470000000001
 20
-36.536
 11
-69.3175
 21
-36.2756
  0
LINE
  5
1A4
100
AcDbEntity
  8
0
  6
ByLayer
 62
    5
370
   -1
100
AcDbLine
 10
-69.3175
 20
-36.2756
 11
-69.29470000000001
 21
-36.0151
  0
LINE
  5
1A5
100
AcDbEntity
  8
0
  6
ByLayer
 62
    5
370
   -1
100
AcDbLine
 10
-69.29470000000001
 20
-36.0151
 11
-69.22709999999999
 21
-35.7625
  0
LINE
  5
1A6
100
AcDbEntity
  8
0
  6
ByLayer
 62
    5
370
   -1
100
AcDbLine
 10
-69.22709999999999
 20
-35.7625
 11
-69.11660000000001
 21
-35.5256
  0
LINE
  5
1A7
100
AcDbEntity
  8
0
  6
ByLayer
 62
    5
370
   -1
100
AcDbLine
 10
-69.11660000000001
 20
-35.5256
 11
-68.9666
 21
-35.3114
  0
LINE
  5
1A8
100
AcDbEntity
  8
0
  6
ByLayer
 62
    5
370
   -1
100
AcDbLine
 10
-68.9666
 20
-35.3114
 11
-68.7817
 21
-35.1265
  0
LINE
  5
1A9
100
AcDbEntity
  8
0
  6
ByLayer
 62
    5
370
   -1
100
AcDbLine
 10
-68.7817
 20
-35.1265
 11
-68.5675
 21
-34.9765
  0
LINE
  5
1AA
100
AcDbEntity
  8
0
  6
ByLayer
 62
    5
370
   -1
100
AcDbLine
 10
-68.5675
 20
-34.9765
 11
-68.3306
 21
-34.866
  0
LINE
  5
1AB
100
AcDbEntity
  8
0
  6
ByLayer
 62
    5
370
   -1
100
AcDbLine
 10
-68.3306
 20
-34.866
 11
-68.078
 21
-34.7984
  0
LINE
  5
1AC
100
AcDbEntity
  8
0
  6
ByLayer
 62
    5
370
   -1
100
AcDbLine
 10
-68.078
 20
-34.7984
 11
-67.8175
 21
-34.7756
  0
LINE
  5
1AD
100
AcDbEntity
  8
0
  6
ByLayer
 62
    5
370
   -1
100
AcDbLine
 10
-67.8175
 20
-34.7756
 11
-67.55710000000001
 21
-34.7984
  0
LINE
  5
1AE
100
AcDbEntity
  8
0
  6
ByLayer
 62
    5
370
   -1
100
AcDbLine
 10
-67.55710000000001
 20
-34.7984
 11
-67.3045
 21
-34.866
  0
LINE
  5
1AF
100
AcDbEntity
  8
0
  6
ByLayer
 62
    5
370
   -1
100
AcDbLine
 10
-67.3045
 20
-34.866
 11
-67.0675
 21
-34.9765
  0
LINE
  5
1B0
100
AcDbEntity
  8
0
  6
ByLayer
 62
    5
370
   -1
100
AcDbLine
 10
-67.0675
 20
-34.9765
 11
-66.8533
 21
-35.1265
  0
LINE
  5
1B1
100
AcDbEntity
  8
0
  6
ByLayer
 62
    5
370
   -1
100
AcDbLine
 10
-66.8533
 20
-35.1265
 11
-66.66849999999999
 21
-35.3114
  0
LINE
  5
1B2
100
AcDbEntity
  8
0
  6
ByLayer
 62
    5
370
   -1
100
AcDbLine
 10
-66.66849999999999
 20
-35.3114
 11
-66.5185
 21
-35.5256
  0
LINE
  5
1B3
100
AcDbEntity
  8
0
  6
ByLayer
 62
    5
370
   -1
100
AcDbLine
 10
-66.5185
 20
-35.5256
 11
-66.408
 21
-35.7625
  0
LINE
  5
1B4
100
AcDbEntity
  8
0
  6
ByLayer
 62
    5
370
   -1
100
AcDbLine
 10
-66.408
 20
-35.7625
 11
-66.3403
 21
-36.0151
  0
LINE
  5
1B5
100
AcDbEntity
  8
0
  6
ByLayer
 62
    5
370
   -1
100
AcDbLine
 10
-66.3403
 20
-36.0151
 11
-66.3175
 21
-36.2756
  0
LINE
  5
1B6
100
AcDbEntity
  8
0
  6
ByLayer
 62
    5
370
   -1
100
AcDbLine
 10
-66.3175
 20
-36.2756
 11
-66.3403
 21
-36.536
  0
LINE
  5
1B7
100
AcDbEntity
  8
0
  6
ByLayer
 62
    5
370
   -1
100
AcDbLine
 10
-66.3403
 20
-36.536
 11
-66.408
 21
-36.7886
  0
LINE
  5
1B8
100
AcDbEntity
  8
0
  6
ByLayer
 62
    5
370
   -1
100
AcDbLine
 10
-66.408
 20
-36.7886
 11
-66.5185
 21
-37.0256
  0
LINE
  5
1B9
100
AcDbEntity
  8
0
  6
ByLayer
 62
    5
370
   -1
100
AcDbLine
 10
-66.5185
 20
-37.0256
 11
-66.66849999999999
 21
-37.2397
  0
LINE
  5
1BA
100
AcDbEntity
  8
0
  6
ByLayer
 62
    5
370
   -1
100
AcDbLine
 10
-66.66849999999999
 20
-37.2397
 11
-66.8533
 21
-37.4246
  0
LINE
  5
1BB
100
AcDbEntity
  8
0
  6
ByLayer
 62
    5
370
   -1
100
AcDbLine
 10
-66.8533
 20
-37.4246
 11
-67.0675
 21
-37.5746
  0
LINE
  5
1BC
100
AcDbEntity
  8
0
  6
ByLayer
 62
    5
370
   -1
100
AcDbLine
 10
-67.0675
 20
-37.5746
 11
-67.3045
 21
-37.6851
  0
LINE
  5
1BD
100
AcDbEntity
  8
0
  6
ByLayer
 62
    5
370
   -1
100
AcDbLine
 10
-67.3045
 20
-37.6851
 11
-67.55710000000001
 21
-37.7528
  0
LINE
  5
1BE
100
AcDbEntity
  8
0
  6
ByLayer
 62
    5
370
   -1
100
AcDbLine
 10
-67.55710000000001
 20
-37.7528
 11
-67.8175
 21
-37.7756
  0
LINE
  5
1BF
100
AcDbEntity
  8
0
  6
ByLayer
 62
    5
370
   -1
100
AcDbLine
 10
-67.8175
 20
-37.7756
 11
-68.078
 21
-37.7528
  0
LINE
  5
1C0
100
AcDbEntity
  8
0
  6
ByLayer
 62
    5
370
   -1
100
AcDbLine
 10
67.55710000000001
 20
-37.7528
 11
67.3045
 21
-37.6851
  0
LINE
  5
1C1
100
AcDbEntity
  8
0
  6
ByLayer
 62
    5
370
   -1
100
AcDbLine
 10
67.3045
 20
-37.6851
 11
67.0675
 21
-37.5746
  0
LINE
  5
1C2
100
AcDbEntity
  8
0
  6
ByLayer
 62
    5
370
   -1
100
AcDbLine
 10
67.0675
 20
-37.5746
 11
66.8533
 21
-37.4246
  0
LINE
  5
1C3
100
AcDbEntity
  8
0
  6
ByLayer
 62
    5
370
   -1
100
AcDbLine
 10
66.8533
 20
-37.4246
 11
66.66849999999999
 21
-37.2397
  0
LINE
  5
1C4
100
AcDbEntity
  8
0
  6
ByLayer
 62
    5
370
   -1
100
AcDbLine
 10
66.66849999999999
 20
-37.2397
 11
66.5185
 21
-37.0256
  0
LINE
  5
1C5
100
AcDbEntity
  8
0
  6
ByLayer
 62
    5
370
   -1
100
AcDbLine
 10
66.5185
 20
-37.0256
 11
66.408
 21
-36.7886
  0
LINE
  5
1C6
100
AcDbEntity
  8
0
  6
ByLayer
 62
    5
370
   -1
100
AcDbLine
 10
66.408
 20
-36.7886
 11
66.3403
 21
-36.536
  0
LINE
  5
1C7
100
AcDbEntity
  8
0
  6
ByLayer
 62
    5
370
   -1
100
AcDbLine
 10
66.3403
 20
-36.536
 11
66.3175
 21
-36.2756
  0
LINE
  5
1C8
100
AcDbEntity
  8
0
  6
ByLayer
 62
    5
370
   -1
100
AcDbLine
 10
66.3175
 20
-36.2756
 11
66.3403
 21
-36.0151
  0
LINE
  5
1C9
100
AcDbEntity
  8
0
  6
ByLayer
 62
    5
370
   -1
100
AcDbLine
 10
66.3403
 20
-36.0151
 11
66.408
 21
-35.7625
  0
LINE
  5
1CA
100
AcDbEntity
  8
0
  6
ByLayer
 62
    5
370
   -1
100
AcDbLine
 10
66.408
 20
-35.7625
 11
66.5185
 21
-35.5256
  0
LINE
  5
1CB
100
AcDbEntity
  8
0
  6
ByLayer
 62
    5
370
   -1
100
AcDbLine
 10
66.5185
 20
-35.5256
 11
66.66849999999999
 21
-35.3114
  0
LINE
  5
1CC
100
AcDbEntity
  8
0
  6
ByLayer
 62
    5
370
   -1
100
AcDbLine
 10
66.66849999999999
 20
-35.3114
 11
66.8533
 21
-35.1265
  0
LINE
  5
1CD
100
AcDbEntity
  8
0
  6
ByLayer
 62
    5
370
   -1
100
AcDbLine
 10
66.8533
 20
-35.1265
 11
67.0675
 21
-34.9765
  0
LINE
  5
1CE
100
AcDbEntity
  8
0
  6
ByLayer
 62
    5
370
   -1
100
AcDbLine
 10
67.0675
 20
-34.9765
 11
67.3045
 21
-34.866
  0
LINE
  5
1CF
100
AcDbEntity
  8
0
  6
ByLayer
 62
    5
370
   -1
100
AcDbLine
 10
67.3045
 20
-34.866
 11
67.55710000000001
 21
-34.7984
  0
LINE
  5
1D0
100
AcDbEntity
  8
0
  6
ByLayer
 62
    5
370
   -1
100
AcDbLine
 10
67.55710000000001
 20
-34.7984
 11
67.8175
 21
-34.7756
  0
LINE
  5
1D1
100
AcDbEntity
  8
0
  6
ByLayer
 62
    5
370
   -1
100
AcDbLine
 10
67.8175
 20
-34.7756
 11
68.078
 21
-34.7984
  0
LINE
  5
1D2
100
AcDbEntity
  8
0
  6
ByLayer
 62
    5
370
   -1
100
AcDbLine
 10
68.078
 20
-34.7984
 11
68.3306
 21
-34.866
  0
LINE
  5
1D3
100
AcDbEntity
  8
0
  6
ByLayer
 62
    5
370
   -1
100
AcDbLine
 10
68.3306
 20
-34.866
 11
68.5675
 21
-34.9765
  0
LINE
  5
1D4
100
AcDbEntity
  8
0
  6
ByLayer
 62
    5
370
   -1
100
AcDbLine
 10
68.5675
 20
-34.9765
 11
68.7817
 21
-35.1265
  0
LINE
  5
1D5
100
AcDbEntity
  8
0
  6
ByLayer
 62
    5
370
   -1
100
AcDbLine
 10
68.7817
 20
-35.1265
 11
68.9666
 21
-35.3114
  0
LINE
  5
1D6
100
AcDbEntity
  8
0
  6
ByLayer
 62
    5
370
   -1
100
AcDbLine
 10
68.9666
 20
-35.3114
 11
69.11660000000001
 21
-35.5256
  0
LINE
  5
1D7
100
AcDbEntity
  8
0
  6
ByLayer
 62
    5
370
   -1
100
AcDbLine
 10
69.11660000000001
 20
-35.5256
 11
69.22709999999999
 21
-35.7625
  0
LINE
  5
1D8
100
AcDbEntity
  8
0
  6
ByLayer
 62
    5
370
   -1
100
AcDbLine
 10
69.22709999999999
 20
-35.7625
 11
69.29470000000001
 21
-36.0151
  0
LINE
  5
1D9
100
AcDbEntity
  8
0
  6
ByLayer
 62
    5
370
   -1
100
AcDbLine
 10
69.29470000000001
 20
-36.0151
 11
69.3175
 21
-36.2756
  0
LINE
  5
1DA
100
AcDbEntity
  8
0
  6
ByLayer
 62
    5
370
   -1
100
AcDbLine
 10
69.3175
 20
-36.2756
 11
69.29470000000001
 21
-36.536
  0
LINE
  5
1DB
100
AcDbEntity
  8
0
  6
ByLayer
 62
    5
370
   -1
100
AcDbLine
 10
69.29470000000001
 20
-36.536
 11
69.22709999999999
 21
-36.7886
  0
LINE
  5
1DC
100
AcDbEntity
  8
0
  6
ByLayer
 62
    5
370
   -1
100
AcDbLine
 10
69.22709999999999
 20
-36.7886
 11
69.11660000000001
 21
-37.0256
  0
LINE
  5
1DD
100
AcDbEntity
  8
0
  6
ByLayer
 62
    5
370
   -1
100
AcDbLine
 10
69.11660000000001
 20
-37.0256
 11
68.9666
 21
-37.2397
  0
LINE
  5
1DE
100
AcDbEntity
  8
0
  6
ByLayer
 62
    5
370
   -1
100
AcDbLine
 10
68.9666
 20
-37.2397
 11
68.7817
 21
-37.4246
  0
LINE
  5
1DF
100
AcDbEntity
  8
0
  6
ByLayer
 62
    5
370
   -1
100
AcDbLine
 10
68.7817
 20
-37.4246
 11
68.5675
 21
-37.5746
  0
LINE
  5
1E0
100
AcDbEntity
  8
0
  6
ByLayer
 62
    5
370
   -1
100
AcDbLine
 10
68.5675
 20
-37.5746
 11
68.3306
 21
-37.6851
  0
LINE
  5
1E1
100
AcDbEntity
  8
0
  6
ByLayer
 62
    5
370
   -1
100
AcDbLine
 10
68.3306
 20
-37.6851
 11
68.078
 21
-37.7528
  0
LINE
  5
1E2
100
AcDbEntity
  8
0
  6
ByLayer
 62
    5
370
   -1
100
AcDbLine
 10
68.078
 20
-37.7528
 11
67.8175
 21
-37.7756
  0
LINE
  5
1E3
100
AcDbEntity
  8
0
  6
ByLayer
 62
    5
370
   -1
100
AcDbLine
 10
67.8175
 20
-37.7756
 11
67.55710000000001
 21
-37.7528
  0
LINE
  5
1E4
100
AcDbEntity
  8
0
  6
ByLayer
 62
    5
370
   -1
100
AcDbLine
 10
91.32259999999999
 20
-40.7068
 11
91.06999999999999
 21
-40.6391
  0
LINE
  5
1E5
100
AcDbEntity
  8
0
  6
ByLayer
 62
    5
370
   -1
100
AcDbLine
 10
91.06999999999999
 20
-40.6391
 11
90.8331
 21
-40.5286
  0
LINE
  5
1E6
100
AcDbEntity
  8
0
  6
ByLayer
 62
    5
370
   -1
100
AcDbLine
 10
90.8331
 20
-40.5286
 11
90.6189
 21
-40.3787
  0
LINE
  5
1E7
100
AcDbEntity
  8
0
  6
ByLayer
 62
    5
370
   -1
100
AcDbLine
 10
90.6189
 20
-40.3787
 11
90.434
 21
-40.1938
  0
LINE
  5
1E8
100
AcDbEntity
  8
0
  6
ByLayer
 62
    5
370
   -1
100
AcDbLine
 10
90.434
 20
-40.1938
 11
90.28400000000001
 21
-39.9796
  0
LINE
  5
1E9
100
AcDbEntity
  8
0
  6
ByLayer
 62
    5
370
   -1
100
AcDbLine
 10
90.28400000000001
 20
-39.9796
 11
90.1735
 21
-39.7426
  0
LINE
  5
1EA
100
AcDbEntity
  8
0
  6
ByLayer
 62
    5
370
   -1
100
AcDbLine
 10
90.1735
 20
-39.7426
 11
90.10590000000001
 21
-39.4901
  0
LINE
  5
1EB
100
AcDbEntity
  8
0
  6
ByLayer
 62
    5
370
   -1
100
AcDbLine
 10
90.10590000000001
 20
-39.4901
 11
90.0831
 21
-39.2296
  0
LINE
  5
1EC
100
AcDbEntity
  8
0
  6
ByLayer
 62
    5
370
   -1
100
AcDbLine
 10
90.0831
 20
-39.2296
 11
90.10590000000001
 21
-38.9691
  0
LINE
  5
1ED
100
AcDbEntity
  8
0
  6
ByLayer
 62
    5
370
   -1
100
AcDbLine
 10
90.10590000000001
 20
-38.9691
 11
90.1735
 21
-38.7166
  0
LINE
  5
1EE
100
AcDbEntity
  8
0
  6
ByLayer
 62
    5
370
   -1
100
AcDbLine
 10
90.1735
 20
-38.7166
 11
90.28400000000001
 21
-38.4796
  0
LINE
  5
1EF
100
AcDbEntity
  8
0
  6
ByLayer
 62
    5
370
   -1
100
AcDbLine
 10
90.28400000000001
 20
-38.4796
 11
90.434
 21
-38.2654
  0
LINE
  5
1F0
100
AcDbEntity
  8
0
  6
ByLayer
 62
    5
370
   -1
100
AcDbLine
 10
90.434
 20
-38.2654
 11
90.6189
 21
-38.0805
  0
LINE
  5
1F1
100
AcDbEntity
  8
0
  6
ByLayer
 62
    5
370
   -1
100
AcDbLine
 10
90.6189
 20
-38.0805
 11
90.8331
 21
-37.9306
  0
LINE
  5
1F2
100
AcDbEntity
  8
0
  6
ByLayer
 62
    5
370
   -1
100
AcDbLine
 10
90.8331
 20
-37.9306
 11
91.06999999999999
 21
-37.8201
  0
LINE
  5
1F3
100
AcDbEntity
  8
0
  6
ByLayer
 62
    5
370
   -1
100
AcDbLine
 10
91.06999999999999
 20
-37.8201
 11
91.32259999999999
 21
-37.7524
  0
LINE
  5
1F4
100
AcDbEntity
  8
0
  6
ByLayer
 62
    5
370
   -1
100
AcDbLine
 10
91.32259999999999
 20
-37.7524
 11
91.5831
 21
-37.7296
  0
LINE
  5
1F5
100
AcDbEntity
  8
0
  6
ByLayer
 62
    5
370
   -1
100
AcDbLine
 10
91.5831
 20
-37.7296
 11
91.84350000000001
 21
-37.7524
  0
LINE
  5
1F6
100
AcDbEntity
  8
0
  6
ByLayer
 62
    5
370
   -1
100
AcDbLine
 10
91.84350000000001
 20
-37.7524
 11
92.09610000000001
 21
-37.8201
  0
LINE
  5
1F7
100
AcDbEntity
  8
0
  6
ByLayer
 62
    5
370
   -1
100
AcDbLine
 10
92.09610000000001
 20
-37.8201
 11
92.3331
 21
-37.9306
  0
LINE
  5
1F8
100
AcDbEntity
  8
0
  6
ByLayer
 62
    5
370
   -1
100
AcDbLine
 10
92.3331
 20
-37.9306
 11
92.5472
 21
-38.0805
  0
LINE
  5
1F9
100
AcDbEntity
  8
0
  6
ByLayer
 62
    5
370
   -1
100
AcDbLine
 10
92.5472
 20
-38.0805
 11
92.7321
 21
-38.2654
  0
LINE
  5
1FA
100
AcDbEntity
  8
0
  6
ByLayer
 62
    5
370
   -1
100
AcDbLine
 10
92.7321
 20
-38.2654
 11
92.88209999999999
 21
-38.4796
  0
LINE
  5
1FB
100
AcDbEntity
  8
0
  6
ByLayer
 62
    5
370
   -1
100
AcDbLine
 10
92.88209999999999
 20
-38.4796
 11
92.9926
 21
-38.7166
  0
LINE
  5
1FC
100
AcDbEntity
  8
0
  6
ByLayer
 62
    5
370
   -1
100
AcDbLine
 10
92.9926
 20
-38.7166
 11
93.0603
 21
-38.9691
  0
LINE
  5
1FD
100
AcDbEntity
  8
0
  6
ByLayer
 62
    5
370
   -1
100
AcDbLine
 10
93.0603
 20
-38.9691
 11
93.0831
 21
-39.2296
  0
LINE
  5
1FE
100
AcDbEntity
  8
0
  6
ByLayer
 62
    5
370
   -1
100
AcDbLine
 10
93.0831
 20
-39.2296
 11
93.0603
 21
-39.4901
  0
LINE
  5
1FF
100
AcDbEntity
  8
0
  6
ByLayer
 62
    5
370
   -1
100
AcDbLine
 10
93.0603
 20
-39.4901
 11
92.9926
 21
-39.7426
  0
LINE
  5
200
100
AcDbEntity
  8
0
  6
ByLayer
 62
    5
370
   -1
100
AcDbLine
 10
92.9926
 20
-39.7426
 11
92.88209999999999
 21
-39.9796
  0
LINE
  5
201
100
AcDbEntity
  8
0
  6
ByLayer
 62
    5
370
   -1
100
AcDbLine
 10
92.88209999999999
 20
-39.9796
 11
92.7321
 21
-40.1938
  0
LINE
  5
202
100
AcDbEntity
  8
0
  6
ByLayer
 62
    5
370
   -1
100
AcDbLine
 10
92.7321
 20
-40.1938
 11
92.5472
 21
-40.3787
  0
LINE
  5
203
100
AcDbEntity
  8
0
  6
ByLayer
 62
    5
370
   -1
100
AcDbLine
 10
92.5472
 20
-40.3787
 11
92.3331
 21
-40.5286
  0
LINE
  5
204
100
AcDbEntity
  8
0
  6
ByLayer
 62
    5
370
   -1
100
AcDbLine
 10
92.3331
 20
-40.5286
 11
92.09610000000001
 21
-40.6391
  0
LINE
  5
205
100
AcDbEntity
  8
0
  6
ByLayer
 62
    5
370
   -1
100
AcDbLine
 10
92.09610000000001
 20
-40.6391
 11
91.84350000000001
 21
-40.7068
  0
LINE
  5
206
100
AcDbEntity
  8
0
  6
ByLayer
 62
    5
370
   -1
100
AcDbLine
 10
91.84350000000001
 20
-40.7068
 11
91.5831
 21
-40.7296
  0
LINE
  5
207
100
AcDbEntity
  8
0
  6
ByLayer
 62
    5
370
   -1
100
AcDbLine
 10
91.5831
 20
-40.7296
 11
91.32259999999999
 21
-40.7068
  0
LINE
  5
208
100
AcDbEntity
  8
0
  6
ByLayer
 62
    5
370
   -1
100
AcDbLine
 10
-91.84350000000001
 20
-40.7068
 11
-92.09610000000001
 21
-40.6391
  0
LINE
  5
209
100
AcDbEntity
  8
0
  6
ByLayer
 62
    5
370
   -1
100
AcDbLine
 10
-92.09610000000001
 20
-40.6391
 11
-92.3331
 21
-40.5286
  0
LINE
  5
20A
100
AcDbEntity
  8
0
  6
ByLayer
 62
    5
370
   -1
100
AcDbLine
 10
-92.3331
 20
-40.5286
 11
-92.5472
 21
-40.3787
  0
LINE
  5
20B
100
AcDbEntity
  8
0
  6
ByLayer
 62
    5
370
   -1
100
AcDbLine
 10
-92.5472
 20
-40.3787
 11
-92.7321
 21
-40.1938
  0
LINE
  5
20C
100
AcDbEntity
  8
0
  6
ByLayer
 62
    5
370
   -1
100
AcDbLine
 10
-92.7321
 20
-40.1938
 11
-92.88209999999999
 21
-39.9796
  0
LINE
  5
20D
100
AcDbEntity
  8
0
  6
ByLayer
 62
    5
370
   -1
100
AcDbLine
 10
-92.88209999999999
 20
-39.9796
 11
-92.9926
 21
-39.7426
  0
LINE
  5
20E
100
AcDbEntity
  8
0
  6
ByLayer
 62
    5
370
   -1
100
AcDbLine
 10
-92.9926
 20
-39.7426
 11
-93.0603
 21
-39.4901
  0
LINE
  5
20F
100
AcDbEntity
  8
0
  6
ByLayer
 62
    5
370
   -1
100
AcDbLine
 10
-93.0603
 20
-39.4901
 11
-93.0831
 21
-39.2296
  0
LINE
  5
210
100
AcDbEntity
  8
0
  6
ByLayer
 62
    5
370
   -1
100
AcDbLine
 10
-93.0831
 20
-39.2296
 11
-93.0603
 21
-38.9691
  0
LINE
  5
211
100
AcDbEntity
  8
0
  6
ByLayer
 62
    5
370
   -1
100
AcDbLine
 10
-93.0603
 20
-38.9691
 11
-92.9926
 21
-38.7166
  0
LINE
  5
212
100
AcDbEntity
  8
0
  6
ByLayer
 62
    5
370
   -1
100
AcDbLine
 10
-92.9926
 20
-38.7166
 11
-92.88209999999999
 21
-38.4796
  0
LINE
  5
213
100
AcDbEntity
  8
0
  6
ByLayer
 62
    5
370
   -1
100
AcDbLine
 10
-92.88209999999999
 20
-38.4796
 11
-92.7321
 21
-38.2654
  0
LINE
  5
214
100
AcDbEntity
  8
0
  6
ByLayer
 62
    5
370
   -1
100
AcDbLine
 10
-92.7321
 20
-38.2654
 11
-92.5472
 21
-38.0805
  0
LINE
  5
215
100
AcDbEntity
  8
0
  6
ByLayer
 62
    5
370
   -1
100
AcDbLine
 10
-92.5472
 20
-38.0805
 11
-92.3331
 21
-37.9306
  0
LINE
  5
216
100
AcDbEntity
  8
0
  6
ByLayer
 62
    5
370
   -1
100
AcDbLine
 10
-92.3331
 20
-37.9306
 11
-92.09610000000001
 21
-37.8201
  0
LINE
  5
217
100
AcDbEntity
  8
0
  6
ByLayer
 62
    5
370
   -1
100
AcDbLine
 10
-92.09610000000001
 20
-37.8201
 11
-91.84350000000001
 21
-37.7524
  0
LINE
  5
218
100
AcDbEntity
  8
0
  6
ByLayer
 62
    5
370
   -1
100
AcDbLine
 10
-91.84350000000001
 20
-37.7524
 11
-91.5831
 21
-37.7296
  0
LINE
  5
219
100
AcDbEntity
  8
0
  6
ByLayer
 62
    5
370
   -1
100
AcDbLine
 10
-91.5831
 20
-37.7296
 11
-91.32259999999999
 21
-37.7524
  0
LINE
  5
21A
100
AcDbEntity
  8
0
  6
ByLayer
 62
    5
370
   -1
100
AcDbLine
 10
-91.32259999999999
 20
-37.7524
 11
-91.06999999999999
 21
-37.8201
  0
LINE
  5
21B
100
AcDbEntity
  8
0
  6
ByLayer
 62
    5
370
   -1
100
AcDbLine
 10
-91.06999999999999
 20
-37.8201
 11
-90.8331
 21
-37.9306
  0
LINE
  5
21C
100
AcDbEntity
  8
0
  6
ByLayer
 62
    5
370
   -1
100
AcDbLine
 10
-90.8331
 20
-37.9306
 11
-90.6189
 21
-38.0805
  0
LINE
  5
21D
100
AcDbEntity
  8
0
  6
ByLayer
 62
    5
370
   -1
100
AcDbLine
 10
-90.6189
 20
-38.0805
 11
-90.434
 21
-38.2654
  0
LINE
  5
21E
100
AcDbEntity
  8
0
  6
ByLayer
 62
    5
370
   -1
100
AcDbLine
 10
-90.434
 20
-38.2654
 11
-90.28400000000001
 21
-38.4796
  0
LINE
  5
21F
100
AcDbEntity
  8
0
  6
ByLayer
 62
    5
370
   -1
100
AcDbLine
 10
-90.28400000000001
 20
-38.4796
 11
-90.1735
 21
-38.7166
  0
LINE
  5
220
100
AcDbEntity
  8
0
  6
ByLayer
 62
    5
370
   -1
100
AcDbLine
 10
-90.1735
 20
-38.7166
 11
-90.10590000000001
 21
-38.9691
  0
LINE
  5
221
100
AcDbEntity
  8
0
  6
ByLayer
 62
    5
370
   -1
100
AcDbLine
 10
-90.10590000000001
 20
-38.9691
 11
-90.0831
 21
-39.2296
  0
LINE
  5
222
100
AcDbEntity
  8
0
  6
ByLayer
 62
    5
370
   -1
100
AcDbLine
 10
-90.0831
 20
-39.2296
 11
-90.10590000000001
 21
-39.4901
  0
LINE
  5
223
100
AcDbEntity
  8
0
  6
ByLayer
 62
    5
370
   -1
100
AcDbLine
 10
-90.10590000000001
 20
-39.4901
 11
-90.1735
 21
-39.7426
  0
LINE
  5
224
100
AcDbEntity
  8
0
  6
ByLayer
 62
    5
370
   -1
100
AcDbLine
 10
-90.1735
 20
-39.7426
 11
-90.28400000000001
 21
-39.9796
  0
LINE
  5
225
100
AcDbEntity
  8
0
  6
ByLayer
 62
    5
370
   -1
100
AcDbLine
 10
-90.28400000000001
 20
-39.9796
 11
-90.434
 21
-40.1938
  0
LINE
  5
226
100
AcDbEntity
  8
0
  6
ByLayer
 62
    5
370
   -1
100
AcDbLine
 10
-90.434
 20
-40.1938
 11
-90.6189
 21
-40.3787
  0
LINE
  5
227
100
AcDbEntity
  8
0
  6
ByLayer
 62
    5
370
   -1
100
AcDbLine
 10
-90.6189
 20
-40.3787
 11
-90.8331
 21
-40.5286
  0
LINE
  5
228
100
AcDbEntity
  8
0
  6
ByLayer
 62
    5
370
   -1
100
AcDbLine
 10
-90.8331
 20
-40.5286
 11
-91.06999999999999
 21
-40.6391
  0
LINE
  5
229
100
AcDbEntity
  8
0
  6
ByLayer
 62
    5
370
   -1
100
AcDbLine
 10
-91.06999999999999
 20
-40.6391
 11
-91.32259999999999
 21
-40.7068
  0
LINE
  5
22A
100
AcDbEntity
  8
0
  6
ByLayer
 62
    5
370
   -1
100
AcDbLine
 10
-91.32259999999999
 20
-40.7068
 11
-91.5831
 21
-40.7296
  0
LINE
  5
22B
100
AcDbEntity
  8
0
  6
ByLayer
 62
    5
370
   -1
100
AcDbLine
 10
-91.5831
 20
-40.7296
 11
-91.84350000000001
 21
-40.7068
  0
LINE
  5
22C
100
AcDbEntity
  8
0
  6
ByLayer
 62
    5
370
   -1
100
AcDbLine
 10
67.55710000000001
 20
-50.7616
 11
67.3045
 21
-50.6939
  0
LINE
  5
22D
100
AcDbEntity
  8
0
  6
ByLayer
 62
    5
370
   -1
100
AcDbLine
 10
67.3045
 20
-50.6939
 11
67.0675
 21
-50.5834
  0
LINE
  5
22E
100
AcDbEntity
  8
0
  6
ByLayer
 62
    5
370
   -1
100
AcDbLine
 10
67.0675
 20
-50.5834
 11
66.8533
 21
-50.4334
  0
LINE
  5
22F
100
AcDbEntity
  8
0
  6
ByLayer
 62
    5
370
   -1
100
AcDbLine
 10
66.8533
 20
-50.4334
 11
66.66849999999999
 21
-50.2485
  0
LINE
  5
230
100
AcDbEntity
  8
0
  6
ByLayer
 62
    5
370
   -1
100
AcDbLine
 10
66.66849999999999
 20
-50.2485
 11
66.5185
 21
-50.0343
  0
LINE
  5
231
100
AcDbEntity
  8
0
  6
ByLayer
 62
    5
370
   -1
100
AcDbLine
 10
66.5185
 20
-50.0343
 11
66.408
 21
-49.7974
  0
LINE
  5
232
100
AcDbEntity
  8
0
  6
ByLayer
 62
    5
370
   -1
100
AcDbLine
 10
66.408
 20
-49.7974
 11
66.3403
 21
-49.5448
  0
LINE
  5
233
100
AcDbEntity
  8
0
  6
ByLayer
 62
    5
370
   -1
100
AcDbLine
 10
66.3403
 20
-49.5448
 11
66.3175
 21
-49.2843
  0
LINE
  5
234
100
AcDbEntity
  8
0
  6
ByLayer
 62
    5
370
   -1
100
AcDbLine
 10
66.3175
 20
-49.2843
 11
66.3403
 21
-49.0239
  0
LINE
  5
235
100
AcDbEntity
  8
0
  6
ByLayer
 62
    5
370
   -1
100
AcDbLine
 10
66.3403
 20
-49.0239
 11
66.408
 21
-48.7713
  0
LINE
  5
236
100
AcDbEntity
  8
0
  6
ByLayer
 62
    5
370
   -1
100
AcDbLine
 10
66.408
 20
-48.7713
 11
66.5185
 21
-48.5343
  0
LINE
  5
237
100
AcDbEntity
  8
0
  6
ByLayer
 62
    5
370
   -1
100
AcDbLine
 10
66.5185
 20
-48.5343
 11
66.66849999999999
 21
-48.3202
  0
LINE
  5
238
100
AcDbEntity
  8
0
  6
ByLayer
 62
    5
370
   -1
100
AcDbLine
 10
66.66849999999999
 20
-48.3202
 11
66.8533
 21
-48.1353
  0
LINE
  5
239
100
AcDbEntity
  8
0
  6
ByLayer
 62
    5
370
   -1
100
AcDbLine
 10
66.8533
 20
-48.1353
 11
67.0675
 21
-47.9853
  0
LINE
  5
23A
100
AcDbEntity
  8
0
  6
ByLayer
 62
    5
370
   -1
100
AcDbLine
 10
67.0675
 20
-47.9853
 11
67.3045
 21
-47.8748
  0
LINE
  5
23B
100
AcDbEntity
  8
0
  6
ByLayer
 62
    5
370
   -1
100
AcDbLine
 10
67.3045
 20
-47.8748
 11
67.55710000000001
 21
-47.8071
  0
LINE
  5
23C
100
AcDbEntity
  8
0
  6
ByLayer
 62
    5
370
   -1
100
AcDbLine
 10
67.55710000000001
 20
-47.8071
 11
67.8175
 21
-47.7843
  0
LINE
  5
23D
100
AcDbEntity
  8
0
  6
ByLayer
 62
    5
370
   -1
100
AcDbLine
 10
67.8175
 20
-47.7843
 11
68.078
 21
-47.8071
  0
LINE
  5
23E
100
AcDbEntity
  8
0
  6
ByLayer
 62
    5
370
   -1
100
AcDbLine
 10
68.078
 20
-47.8071
 11
68.3306
 21
-47.8748
  0
LINE
  5
23F
100
AcDbEntity
  8
0
  6
ByLayer
 62
    5
370
   -1
100
AcDbLine
 10
68.3306
 20
-47.8748
 11
68.5675
 21
-47.9853
  0
LINE
  5
240
100
AcDbEntity
  8
0
  6
ByLayer
 62
    5
370
   -1
100
AcDbLine
 10
68.5675
 20
-47.9853
 11
68.7817
 21
-48.1353
  0
LINE
  5
241
100
AcDbEntity
  8
0
  6
ByLayer
 62
    5
370
   -1
100
AcDbLine
 10
68.7817
 20
-48.1353
 11
68.9666
 21
-48.3202
  0
LINE
  5
242
100
AcDbEntity
  8
0
  6
ByLayer
 62
    5
370
   -1
100
AcDbLine
 10
68.9666
 20
-48.3202
 11
69.11660000000001
 21
-48.5343
  0
LINE
  5
243
100
AcDbEntity
  8
0
  6
ByLayer
 62
    5
370
   -1
100
AcDbLine
 10
69.11660000000001
 20
-48.5343
 11
69.22709999999999
 21
-48.7713
  0
LINE
  5
244
100
AcDbEntity
  8
0
  6
ByLayer
 62
    5
370
   -1
100
AcDbLine
 10
69.22709999999999
 20
-48.7713
 11
69.29470000000001
 21
-49.0239
  0
LINE
  5
245
100
AcDbEntity
  8
0
  6
ByLayer
 62
    5
370
   -1
100
AcDbLine
 10
69.29470000000001
 20
-49.0239
 11
69.3175
 21
-49.2843
  0
LINE
  5
246
100
AcDbEntity
  8
0
  6
ByLayer
 62
    5
370
   -1
100
AcDbLine
 10
69.3175
 20
-49.2843
 11
69.29470000000001
 21
-49.5448
  0
LINE
  5
247
100
AcDbEntity
  8
0
  6
ByLayer
 62
    5
370
   -1
100
AcDbLine
 10
69.29470000000001
 20
-49.5448
 11
69.22709999999999
 21
-49.7974
  0
LINE
  5
248
100
AcDbEntity
  8
0
  6
ByLayer
 62
    5
370
   -1
100
AcDbLine
 10
69.22709999999999
 20
-49.7974
 11
69.11660000000001
 21
-50.0343
  0
LINE
  5
249
100
AcDbEntity
  8
0
  6
ByLayer
 62
    5
370
   -1
100
AcDbLine
 10
69.11660000000001
 20
-50.0343
 11
68.9666
 21
-50.2485
  0
LINE
  5
24A
100
AcDbEntity
  8
0
  6
ByLayer
 62
    5
370
   -1
100
AcDbLine
 10
68.9666
 20
-50.2485
 11
68.7817
 21
-50.4334
  0
LINE
  5
24B
100
AcDbEntity
  8
0
  6
ByLayer
 62
    5
370
   -1
100
AcDbLine
 10
68.7817
 20
-50.4334
 11
68.5675
 21
-50.5834
  0
LINE
  5
24C
100
AcDbEntity
  8
0
  6
ByLayer
 62
    5
370
   -1
100
AcDbLine
 10
68.5675
 20
-50.5834
 11
68.3306
 21
-50.6939
  0
LINE
  5
24D
100
AcDbEntity
  8
0
  6
ByLayer
 62
    5
370
   -1
100
AcDbLine
 10
68.3306
 20
-50.6939
 11
68.078
 21
-50.7616
  0
LINE
  5
24E
100
AcDbEntity
  8
0
  6
ByLayer
 62
    5
370
   -1
100
AcDbLine
 10
68.078
 20
-50.7616
 11
67.8175
 21
-50.7843
  0
LINE
  5
24F
100
AcDbEntity
  8
0
  6
ByLayer
 62
    5
370
   -1
100
AcDbLine
 10
67.8175
 20
-50.7843
 11
67.55710000000001
 21
-50.7616
  0
LINE
  5
250
100
AcDbEntity
  8
0
  6
ByLayer
 62
    5
370
   -1
100
AcDbLine
 10
-68.078
 20
-50.7616
 11
-68.3306
 21
-50.6939
  0
LINE
  5
251
100
AcDbEntity
  8
0
  6
ByLayer
 62
    5
370
   -1
100
AcDbLine
 10
-68.3306
 20
-50.6939
 11
-68.5675
 21
-50.5834
  0
LINE
  5
252
100
AcDbEntity
  8
0
  6
ByLayer
 62
    5
370
   -1
100
AcDbLine
 10
-68.5675
 20
-50.5834
 11
-68.7817
 21
-50.4334
  0
LINE
  5
253
100
AcDbEntity
  8
0
  6
ByLayer
 62
    5
370
   -1
100
AcDbLine
 10
-68.7817
 20
-50.4334
 11
-68.9666
 21
-50.2485
  0
LINE
  5
254
100
AcDbEntity
  8
0
  6
ByLayer
 62
    5
370
   -1
100
AcDbLine
 10
-68.9666
 20
-50.2485
 11
-69.11660000000001
 21
-50.0343
  0
LINE
  5
255
100
AcDbEntity
  8
0
  6
ByLayer
 62
    5
370
   -1
100
AcDbLine
 10
-69.11660000000001
 20
-50.0343
 11
-69.22709999999999
 21
-49.7974
  0
LINE
  5
256
100
AcDbEntity
  8
0
  6
ByLayer
 62
    5
370
   -1
100
AcDbLine
 10
-69.22709999999999
 20
-49.7974
 11
-69.29470000000001
 21
-49.5448
  0
LINE
  5
257
100
AcDbEntity
  8
0
  6
ByLayer
 62
    5
370
   -1
100
AcDbLine
 10
-69.29470000000001
 20
-49.5448
 11
-69.3175
 21
-49.2843
  0
LINE
  5
258
100
AcDbEntity
  8
0
  6
ByLayer
 62
    5
370
   -1
100
AcDbLine
 10
-69.3175
 20
-49.2843
 11
-69.29470000000001
 21
-49.0239
  0
LINE
  5
259
100
AcDbEntity
  8
0
  6
ByLayer
 62
    5
370
   -1
100
AcDbLine
 10
-69.29470000000001
 20
-49.0239
 11
-69.22709999999999
 21
-48.7713
  0
LINE
  5
25A
100
AcDbEntity
  8
0
  6
ByLayer
 62
    5
370
   -1
100
AcDbLine
 10
-69.22709999999999
 20
-48.7713
 11
-69.11660000000001
 21
-48.5343
  0
LINE
  5
25B
100
AcDbEntity
  8
0
  6
ByLayer
 62
    5
370
   -1
100
AcDbLine
 10
-69.11660000000001
 20
-48.5343
 11
-68.9666
 21
-48.3202
  0
LINE
  5
25C
100
AcDbEntity
  8
0
  6
ByLayer
 62
    5
370
   -1
100
AcDbLine
 10
-68.9666
 20
-48.3202
 11
-68.7817
 21
-48.1353
  0
LINE
  5
25D
100
AcDbEntity
  8
0
  6
ByLayer
 62
    5
370
   -1
100
AcDbLine
 10
-68.7817
 20
-48.1353
 11
-68.5675
 21
-47.9853
  0
LINE
  5
25E
100
AcDbEntity
  8
0
  6
ByLayer
 62
    5
370
   -1
100
AcDbLine
 10
-68.5675
 20
-47.9853
 11
-68.3306
 21
-47.8748
  0
LINE
  5
25F
100
AcDbEntity
  8
0
  6
ByLayer
 62
    5
370
   -1
100
AcDbLine
 10
-68.3306
 20
-47.8748
 11
-68.078
 21
-47.8071
  0
LINE
  5
260
100
AcDbEntity
  8
0
  6
ByLayer
 62
    5
370
   -1
100
AcDbLine
 10
-68.078
 20
-47.8071
 11
-67.8175
 21
-47.7843
  0
LINE
  5
261
100
AcDbEntity
  8
0
  6
ByLayer
 62
    5
370
   -1
100
AcDbLine
 10
-67.8175
 20
-47.7843
 11
-67.55710000000001
 21
-47.8071
  0
LINE
  5
262
100
AcDbEntity
  8
0
  6
ByLayer
 62
    5
370
   -1
100
AcDbLine
 10
-67.55710000000001
 20
-47.8071
 11
-67.3045
 21
-47.8748
  0
LINE
  5
263
100
AcDbEntity
  8
0
  6
ByLayer
 62
    5
370
   -1
100
AcDbLine
 10
-67.3045
 20
-47.8748
 11
-67.0675
 21
-47.9853
  0
LINE
  5
264
100
AcDbEntity
  8
0
  6
ByLayer
 62
    5
370
   -1
100
AcDbLine
 10
-67.0675
 20
-47.9853
 11
-66.8533
 21
-48.1353
  0
LINE
  5
265
100
AcDbEntity
  8
0
  6
ByLayer
 62
    5
370
   -1
100
AcDbLine
 10
-66.8533
 20
-48.1353
 11
-66.66849999999999
 21
-48.3202
  0
LINE
  5
266
100
AcDbEntity
  8
0
  6
ByLayer
 62
    5
370
   -1
100
AcDbLine
 10
-66.66849999999999
 20
-48.3202
 11
-66.5185
 21
-48.5343
  0
LINE
  5
267
100
AcDbEntity
  8
0
  6
ByLayer
 62
    5
370
   -1
100
AcDbLine
 10
-66.5185
 20
-48.5343
 11
-66.408
 21
-48.7713
  0
LINE
  5
268
100
AcDbEntity
  8
0
  6
ByLayer
 62
    5
370
   -1
100
AcDbLine
 10
-66.408
 20
-48.7713
 11
-66.3403
 21
-49.0239
  0
LINE
  5
269
100
AcDbEntity
  8
0
  6
ByLayer
 62
    5
370
   -1
100
AcDbLine
 10
-66.3403
 20
-49.0239
 11
-66.3175
 21
-49.2843
  0
LINE
  5
26A
100
AcDbEntity
  8
0
  6
ByLayer
 62
    5
370
   -1
100
AcDbLine
 10
-66.3175
 20
-49.2843
 11
-66.3403
 21
-49.5448
  0
LINE
  5
26B
100
AcDbEntity
  8
0
  6
ByLayer
 62
    5
370
   -1
100
AcDbLine
 10
-66.3403
 20
-49.5448
 11
-66.408
 21
-49.7974
  0
LINE
  5
26C
100
AcDbEntity
  8
0
  6
ByLayer
 62
    5
370
   -1
100
AcDbLine
 10
-66.408
 20
-49.7974
 11
-66.5185
 21
-50.0343
  0
LINE
  5
26D
100
AcDbEntity
  8
0
  6
ByLayer
 62
    5
370
   -1
100
AcDbLine
 10
-66.5185
 20
-50.0343
 11
-66.66849999999999
 21
-50.2485
  0
LINE
  5
26E
100
AcDbEntity
  8
0
  6
ByLayer
 62
    5
370
   -1
100
AcDbLine
 10
-66.66849999999999
 20
-50.2485
 11
-66.8533
 21
-50.4334
  0
LINE
  5
26F
100
AcDbEntity
  8
0
  6
ByLayer
 62
    5
370
   -1
100
AcDbLine
 10
-66.8533
 20
-50.4334
 11
-67.0675
 21
-50.5834
  0
LINE
  5
270
100
AcDbEntity
  8
0
  6
ByLayer
 62
    5
370
   -1
100
AcDbLine
 10
-67.0675
 20
-50.5834
 11
-67.3045
 21
-50.6939
  0
LINE
  5
271
100
AcDbEntity
  8
0
  6
ByLayer
 62
    5
370
   -1
100
AcDbLine
 10
-67.3045
 20
-50.6939
 11
-67.55710000000001
 21
-50.7616
  0
LINE
  5
272
100
AcDbEntity
  8
0
  6
ByLayer
 62
    5
370
   -1
100
AcDbLine
 10
-67.55710000000001
 20
-50.7616
 11
-67.8175
 21
-50.7843
  0
LINE
  5
273
100
AcDbEntity
  8
0
  6
ByLayer
 62
    5
370
   -1
100
AcDbLine
 10
-67.8175
 20
-50.7843
 11
-68.078
 21
-50.7616
  0
LINE
  5
274
100
AcDbEntity
  8
0
  6
ByLayer
 62
    5
370
   -1
100
AcDbLine
 10
-81.571
 20
-58.4993
 11
-81.8236
 21
-58.4316
  0
LINE
  5
275
100
AcDbEntity
  8
0
  6
ByLayer
 62
    5
370
   -1
100
AcDbLine
 10
-81.8236
 20
-58.4316
 11
-82.06059999999999
 21
-58.3211
  0
LINE
  5
276
100
AcDbEntity
  8
0
  6
ByLayer
 62
    5
370
   -1
100
AcDbLine
 10
-82.06059999999999
 20
-58.3211
 11
-82.2747
 21
-58.1712
  0
LINE
  5
277
100
AcDbEntity
  8
0
  6
ByLayer
 62
    5
370
   -1
100
AcDbLine
 10
-82.2747
 20
-58.1712
 11
-82.45959999999999
 21
-57.9863
  0
LINE
  5
278
100
AcDbEntity
  8
0
  6
ByLayer
 62
    5
370
   -1
100
AcDbLine
 10
-82.45959999999999
 20
-57.9863
 11
-82.6096
 21
-57.7721
  0
LINE
  5
279
100
AcDbEntity
  8
0
  6
ByLayer
 62
    5
370
   -1
100
AcDbLine
 10
-82.6096
 20
-57.7721
 11
-82.7201
 21
-57.5351
  0
LINE
  5
27A
100
AcDbEntity
  8
0
  6
ByLayer
 62
    5
370
   -1
100
AcDbLine
 10
-82.7201
 20
-57.5351
 11
-82.7878
 21
-57.2826
  0
LINE
  5
27B
100
AcDbEntity
  8
0
  6
ByLayer
 62
    5
370
   -1
100
AcDbLine
 10
-82.7878
 20
-57.2826
 11
-82.81059999999999
 21
-57.0221
  0
LINE
  5
27C
100
AcDbEntity
  8
0
  6
ByLayer
 62
    5
370
   -1
100
AcDbLine
 10
-82.81059999999999
 20
-57.0221
 11
-82.7878
 21
-56.7616
  0
LINE
  5
27D
100
AcDbEntity
  8
0
  6
ByLayer
 62
    5
370
   -1
100
AcDbLine
 10
-82.7878
 20
-56.7616
 11
-82.7201
 21
-56.5091
  0
LINE
  5
27E
100
AcDbEntity
  8
0
  6
ByLayer
 62
    5
370
   -1
100
AcDbLine
 10
-82.7201
 20
-56.5091
 11
-82.6096
 21
-56.2721
  0
LINE
  5
27F
100
AcDbEntity
  8
0
  6
ByLayer
 62
    5
370
   -1
100
AcDbLine
 10
-82.6096
 20
-56.2721
 11
-82.45959999999999
 21
-56.0579
  0
LINE
  5
280
100
AcDbEntity
  8
0
  6
ByLayer
 62
    5
370
   -1
100
AcDbLine
 10
-82.45959999999999
 20
-56.0579
 11
-82.2747
 21
-55.873
  0
LINE
  5
281
100
AcDbEntity
  8
0
  6
ByLayer
 62
    5
370
   -1
100
AcDbLine
 10
-82.2747
 20
-55.873
 11
-82.06059999999999
 21
-55.7231
  0
LINE
  5
282
100
AcDbEntity
  8
0
  6
ByLayer
 62
    5
370
   -1
100
AcDbLine
 10
-82.06059999999999
 20
-55.7231
 11
-81.8236
 21
-55.6126
  0
LINE
  5
283
100
AcDbEntity
  8
0
  6
ByLayer
 62
    5
370
   -1
100
AcDbLine
 10
-81.8236
 20
-55.6126
 11
-81.571
 21
-55.5449
  0
LINE
  5
284
100
AcDbEntity
  8
0
  6
ByLayer
 62
    5
370
   -1
100
AcDbLine
 10
-81.571
 20
-55.5449
 11
-81.31059999999999
 21
-55.5221
  0
LINE
  5
285
100
AcDbEntity
  8
0
  6
ByLayer
 62
    5
370
   -1
100
AcDbLine
 10
-81.31059999999999
 20
-55.5221
 11
-81.0501
 21
-55.5449
  0
LINE
  5
286
100
AcDbEntity
  8
0
  6
ByLayer
 62
    5
370
   -1
100
AcDbLine
 10
-81.0501
 20
-55.5449
 11
-80.7975
 21
-55.6126
  0
LINE
  5
287
100
AcDbEntity
  8
0
  6
ByLayer
 62
    5
370
   -1
100
AcDbLine
 10
-80.7975
 20
-55.6126
 11
-80.56059999999999
 21
-55.7231
  0
LINE
  5
288
100
AcDbEntity
  8
0
  6
ByLayer
 62
    5
370
   -1
100
AcDbLine
 10
-80.56059999999999
 20
-55.7231
 11
-80.3464
 21
-55.873
  0
LINE
  5
289
100
AcDbEntity
  8
0
  6
ByLayer
 62
    5
370
   -1
100
AcDbLine
 10
-80.3464
 20
-55.873
 11
-80.1615
 21
-56.0579
  0
LINE
  5
28A
100
AcDbEntity
  8
0
  6
ByLayer
 62
    5
370
   -1
100
AcDbLine
 10
-80.1615
 20
-56.0579
 11
-80.0115
 21
-56.2721
  0
LINE
  5
28B
100
AcDbEntity
  8
0
  6
ByLayer
 62
    5
370
   -1
100
AcDbLine
 10
-80.0115
 20
-56.2721
 11
-79.901
 21
-56.5091
  0
LINE
  5
28C
100
AcDbEntity
  8
0
  6
ByLayer
 62
    5
370
   -1
100
AcDbLine
 10
-79.901
 20
-56.5091
 11
-79.8334
 21
-56.7616
  0
LINE
  5
28D
100
AcDbEntity
  8
0
  6
ByLayer
 62
    5
370
   -1
100
AcDbLine
 10
-79.8334
 20
-56.7616
 11
-79.81059999999999
 21
-57.0221
  0
LINE
  5
28E
100
AcDbEntity
  8
0
  6
ByLayer
 62
    5
370
   -1
100
AcDbLine
 10
-79.81059999999999
 20
-57.0221
 11
-79.8334
 21
-57.2826
  0
LINE
  5
28F
100
AcDbEntity
  8
0
  6
ByLayer
 62
    5
370
   -1
100
AcDbLine
 10
-79.8334
 20
-57.2826
 11
-79.901
 21
-57.5351
  0
LINE
  5
290
100
AcDbEntity
  8
0
  6
ByLayer
 62
    5
370
   -1
100
AcDbLine
 10
-79.901
 20
-57.5351
 11
-80.0115
 21
-57.7721
  0
LINE
  5
291
100
AcDbEntity
  8
0
  6
ByLayer
 62
    5
370
   -1
100
AcDbLine
 10
-80.0115
 20
-57.7721
 11
-80.1615
 21
-57.9863
  0
LINE
  5
292
100
AcDbEntity
  8
0
  6
ByLayer
 62
    5
370
   -1
100
AcDbLine
 10
-80.1615
 20
-57.9863
 11
-80.3464
 21
-58.1712
  0
LINE
  5
293
100
AcDbEntity
  8
0
  6
ByLayer
 62
    5
370
   -1
100
AcDbLine
 10
-80.3464
 20
-58.1712
 11
-80.56059999999999
 21
-58.3211
  0
LINE
  5
294
100
AcDbEntity
  8
0
  6
ByLayer
 62
    5
370
   -1
100
AcDbLine
 10
-80.56059999999999
 20
-58.3211
 11
-80.7975
 21
-58.4316
  0
LINE
  5
295
100
AcDbEntity
  8
0
  6
ByLayer
 62
    5
370
   -1
100
AcDbLine
 10
-80.7975
 20
-58.4316
 11
-81.0501
 21
-58.4993
  0
LINE
  5
296
100
AcDbEntity
  8
0
  6
ByLayer
 62
    5
370
   -1
100
AcDbLine
 10
-81.0501
 20
-58.4993
 11
-81.31059999999999
 21
-58.5221
  0
LINE
  5
297
100
AcDbEntity
  8
0
  6
ByLayer
 62
    5
370
   -1
100
AcDbLine
 10
-81.31059999999999
 20
-58.5221
 11
-81.571
 21
-58.4993
  0
LINE
  5
298
100
AcDbEntity
  8
0
  6
ByLayer
 62
    5
370
   -1
100
AcDbLine
 10
81.0501
 20
-58.4993
 11
80.7975
 21
-58.4316
  0
LINE
  5
299
100
AcDbEntity
  8
0
  6
ByLayer
 62
    5
370
   -1
100
AcDbLine
 10
80.7975
 20
-58.4316
 11
80.56059999999999
 21
-58.3211
  0
LINE
  5
29A
100
AcDbEntity
  8
0
  6
ByLayer
 62
    5
370
   -1
100
AcDbLine
 10
80.56059999999999
 20
-58.3211
 11
80.3464
 21
-58.1712
  0
LINE
  5
29B
100
AcDbEntity
  8
0
  6
ByLayer
 62
    5
370
   -1
100
AcDbLine
 10
80.3464
 20
-58.1712
 11
80.1615
 21
-57.9863
  0
LINE
  5
29C
100
AcDbEntity
  8
0
  6
ByLayer
 62
    5
370
   -1
100
AcDbLine
 10
80.1615
 20
-57.9863
 11
80.0115
 21
-57.7721
  0
LINE
  5
29D
100
AcDbEntity
  8
0
  6
ByLayer
 62
    5
370
   -1
100
AcDbLine
 10
80.0115
 20
-57.7721
 11
79.901
 21
-57.5351
  0
LINE
  5
29E
100
AcDbEntity
  8
0
  6
ByLayer
 62
    5
370
   -1
100
AcDbLine
 10
79.901
 20
-57.5351
 11
79.8334
 21
-57.2826
  0
LINE
  5
29F
100
AcDbEntity
  8
0
  6
ByLayer
 62
    5
370
   -1
100
AcDbLine
 10
79.8334
 20
-57.2826
 11
79.81059999999999
 21
-57.0221
  0
LINE
  5
2A0
100
AcDbEntity
  8
0
  6
ByLayer
 62
    5
370
   -1
100
AcDbLine
 10
79.81059999999999
 20
-57.0221
 11
79.8334
 21
-56.7616
  0
LINE
  5
2A1
100
AcDbEntity
  8
0
  6
ByLayer
 62
    5
370
   -1
100
AcDbLine
 10
79.8334
 20
-56.7616
 11
79.901
 21
-56.5091
  0
LINE
  5
2A2
100
AcDbEntity
  8
0
  6
ByLayer
 62
    5
370
   -1
100
AcDbLine
 10
79.901
 20
-56.5091
 11
80.0115
 21
-56.2721
  0
LINE
  5
2A3
100
AcDbEntity
  8
0
  6
ByLayer
 62
    5
370
   -1
100
AcDbLine
 10
80.0115
 20
-56.2721
 11
80.1615
 21
-56.0579
  0
LINE
  5
2A4
100
AcDbEntity
  8
0
  6
ByLayer
 62
    5
370
   -1
100
AcDbLine
 10
80.1615
 20
-56.0579
 11
80.3464
 21
-55.873
  0
LINE
  5
2A5
100
AcDbEntity
  8
0
  6
ByLayer
 62
    5
370
   -1
100
AcDbLine
 10
80.3464
 20
-55.873
 11
80.56059999999999
 21
-55.7231
  0
LINE
  5
2A6
100
AcDbEntity
  8
0
  6
ByLayer
 62
    5
370
   -1
100
AcDbLine
 10
80.56059999999999
 20
-55.7231
 11
80.7975
 21
-55.6126
  0
LINE
  5
2A7
100
AcDbEntity
  8
0
  6
ByLayer
 62
    5
370
   -1
100
AcDbLine
 10
80.7975
 20
-55.6126
 11
81.0501
 21
-55.5449
  0
LINE
  5
2A8
100
AcDbEntity
  8
0
  6
ByLayer
 62
    5
370
   -1
100
AcDbLine
 10
81.0501
 20
-55.5449
 11
81.31059999999999
 21
-55.5221
  0
LINE
  5
2A9
100
AcDbEntity
  8
0
  6
ByLayer
 62
    5
370
   -1
100
AcDbLine
 10
81.31059999999999
 20
-55.5221
 11
81.571
 21
-55.5449
  0
LINE
  5
2AA
100
AcDbEntity
  8
0
  6
ByLayer
 62
    5
370
   -1
100
AcDbLine
 10
81.571
 20
-55.5449
 11
81.8236
 21
-55.6126
  0
LINE
  5
2AB
100
AcDbEntity
  8
0
  6
ByLayer
 62
    5
370
   -1
100
AcDbLine
 10
81.8236
 20
-55.6126
 11
82.06059999999999
 21
-55.7231
  0
LINE
  5
2AC
100
AcDbEntity
  8
0
  6
ByLayer
 62
    5
370
   -1
100
AcDbLine
 10
82.06059999999999
 20
-55.7231
 11
82.2747
 21
-55.873
  0
LINE
  5
2AD
100
AcDbEntity
  8
0
  6
ByLayer
 62
    5
370
   -1
100
AcDbLine
 10
82.2747
 20
-55.873
 11
82.45959999999999
 21
-56.0579
  0
LINE
  5
2AE
100
AcDbEntity
  8
0
  6
ByLayer
 62
    5
370
   -1
100
AcDbLine
 10
82.45959999999999
 20
-56.0579
 11
82.6096
 21
-56.2721
  0
LINE
  5
2AF
100
AcDbEntity
  8
0
  6
ByLayer
 62
    5
370
   -1
100
AcDbLine
 10
82.6096
 20
-56.2721
 11
82.7201
 21
-56.5091
  0
LINE
  5
2B0
100
AcDbEntity
  8
0
  6
ByLayer
 62
    5
370
   -1
100
AcDbLine
 10
82.7201
 20
-56.5091
 11
82.7878
 21
-56.7616
  0
LINE
  5
2B1
100
AcDbEntity
  8
0
  6
ByLayer
 62
    5
370
   -1
100
AcDbLine
 10
82.7878
 20
-56.7616
 11
82.81059999999999
 21
-57.0221
  0
LINE
  5
2B2
100
AcDbEntity
  8
0
  6
ByLayer
 62
    5
370
   -1
100
AcDbLine
 10
82.81059999999999
 20
-57.0221
 11
82.7878
 21
-57.2826
  0
LINE
  5
2B3
100
AcDbEntity
  8
0
  6
ByLayer
 62
    5
370
   -1
100
AcDbLine
 10
82.7878
 20
-57.2826
 11
82.7201
 21
-57.5351
  0
LINE
  5
2B4
100
AcDbEntity
  8
0
  6
ByLayer
 62
    5
370
   -1
100
AcDbLine
 10
82.7201
 20
-57.5351
 11
82.6096
 21
-57.7721
  0
LINE
  5
2B5
100
AcDbEntity
  8
0
  6
ByLayer
 62
    5
370
   -1
100
AcDbLine
 10
82.6096
 20
-57.7721
 11
82.45959999999999
 21
-57.9863
  0
LINE
  5
2B6
100
AcDbEntity
  8
0
  6
ByLayer
 62
    5
370
   -1
100
AcDbLine
 10
82.45959999999999
 20
-57.9863
 11
82.2747
 21
-58.1712
  0
LINE
  5
2B7
100
AcDbEntity
  8
0
  6
ByLayer
 62
    5
370
   -1
100
AcDbLine
 10
82.2747
 20
-58.1712
 11
82.06059999999999
 21
-58.3211
  0
LINE
  5
2B8
100
AcDbEntity
  8
0
  6
ByLayer
 62
    5
370
   -1
100
AcDbLine
 10
82.06059999999999
 20
-58.3211
 11
81.8236
 21
-58.4316
  0
LINE
  5
2B9
100
AcDbEntity
  8
0
  6
ByLayer
 62
    5
370
   -1
100
AcDbLine
 10
81.8236
 20
-58.4316
 11
81.571
 21
-58.4993
  0
LINE
  5
2BA
100
AcDbEntity
  8
0
  6
ByLayer
 62
    5
370
   -1
100
AcDbLine
 10
81.571
 20
-58.4993
 11
81.31059999999999
 21
-58.5221
  0
LINE
  5
2BB
100
AcDbEntity
  8
0
  6
ByLayer
 62
    5
370
   -1
100
AcDbLine
 10
81.31059999999999
 20
-58.5221
 11
81.0501
 21
-58.4993
  0
LINE
  5
2BC
100
AcDbEntity
  8
0
  6
ByLayer
 62
    5
370
   -1
100
AcDbLine
 10
158.366
 20
-107.75
 11
158.113
 21
-107.683
  0
LINE
  5
2BD
100
AcDbEntity
  8
0
  6
ByLayer
 62
    5
370
   -1
100
AcDbLine
 10
158.113
 20
-107.683
 11
157.877
 21
-107.572
  0
LINE
  5
2BE
100
AcDbEntity
  8
0
  6
ByLayer
 62
    5
370
   -1
100
AcDbLine
 10
157.877
 20
-107.572
 11
157.662
 21
-107.422
  0
LINE
  5
2BF
100
AcDbEntity
  8
0
  6
ByLayer
 62
    5
370
   -1
100
AcDbLine
 10
157.662
 20
-107.422
 11
157.477
 21
-107.237
  0
LINE
  5
2C0
100
AcDbEntity
  8
0
  6
ByLayer
 62
    5
370
   -1
100
AcDbLine
 10
157.477
 20
-107.237
 11
157.327
 21
-107.023
  0
LINE
  5
2C1
100
AcDbEntity
  8
0
  6
ByLayer
 62
    5
370
   -1
100
AcDbLine
 10
157.327
 20
-107.023
 11
157.217
 21
-106.786
  0
LINE
  5
2C2
100
AcDbEntity
  8
0
  6
ByLayer
 62
    5
370
   -1
100
AcDbLine
 10
157.217
 20
-106.786
 11
157.149
 21
-106.534
  0
LINE
  5
2C3
100
AcDbEntity
  8
0
  6
ByLayer
 62
    5
370
   -1
100
AcDbLine
 10
157.149
 20
-106.534
 11
157.127
 21
-106.273
  0
LINE
  5
2C4
100
AcDbEntity
  8
0
  6
ByLayer
 62
    5
370
   -1
100
AcDbLine
 10
157.127
 20
-106.273
 11
157.149
 21
-106.013
  0
LINE
  5
2C5
100
AcDbEntity
  8
0
  6
ByLayer
 62
    5
370
   -1
100
AcDbLine
 10
157.149
 20
-106.013
 11
157.217
 21
-105.76
  0
LINE
  5
2C6
100
AcDbEntity
  8
0
  6
ByLayer
 62
    5
370
   -1
100
AcDbLine
 10
157.217
 20
-105.76
 11
157.327
 21
-105.523
  0
LINE
  5
2C7
100
AcDbEntity
  8
0
  6
ByLayer
 62
    5
370
   -1
100
AcDbLine
 10
157.327
 20
-105.523
 11
157.477
 21
-105.309
  0
LINE
  5
2C8
100
AcDbEntity
  8
0
  6
ByLayer
 62
    5
370
   -1
100
AcDbLine
 10
157.477
 20
-105.309
 11
157.662
 21
-105.124
  0
LINE
  5
2C9
100
AcDbEntity
  8
0
  6
ByLayer
 62
    5
370
   -1
100
AcDbLine
 10
157.662
 20
-105.124
 11
157.877
 21
-104.974
  0
LINE
  5
2CA
100
AcDbEntity
  8
0
  6
ByLayer
 62
    5
370
   -1
100
AcDbLine
 10
157.877
 20
-104.974
 11
158.113
 21
-104.864
  0
LINE
  5
2CB
100
AcDbEntity
  8
0
  6
ByLayer
 62
    5
370
   -1
100
AcDbLine
 10
158.113
 20
-104.864
 11
158.366
 21
-104.796
  0
LINE
  5
2CC
100
AcDbEntity
  8
0
  6
ByLayer
 62
    5
370
   -1
100
AcDbLine
 10
158.366
 20
-104.796
 11
158.627
 21
-104.773
  0
LINE
  5
2CD
100
AcDbEntity
  8
0
  6
ByLayer
 62
    5
370
   -1
100
AcDbLine
 10
158.627
 20
-104.773
 11
158.887
 21
-104.796
  0
LINE
  5
2CE
100
AcDbEntity
  8
0
  6
ByLayer
 62
    5
370
   -1
100
AcDbLine
 10
158.887
 20
-104.796
 11
159.14
 21
-104.864
  0
LINE
  5
2CF
100
AcDbEntity
  8
0
  6
ByLayer
 62
    5
370
   -1
100
AcDbLine
 10
159.14
 20
-104.864
 11
159.377
 21
-104.974
  0
LINE
  5
2D0
100
AcDbEntity
  8
0
  6
ByLayer
 62
    5
370
   -1
100
AcDbLine
 10
159.377
 20
-104.974
 11
159.591
 21
-105.124
  0
LINE
  5
2D1
100
AcDbEntity
  8
0
  6
ByLayer
 62
    5
370
   -1
100
AcDbLine
 10
159.591
 20
-105.124
 11
159.776
 21
-105.309
  0
LINE
  5
2D2
100
AcDbEntity
  8
0
  6
ByLayer
 62
    5
370
   -1
100
AcDbLine
 10
159.776
 20
-105.309
 11
159.926
 21
-105.523
  0
LINE
  5
2D3
100
AcDbEntity
  8
0
  6
ByLayer
 62
    5
370
   -1
100
AcDbLine
 10
159.926
 20
-105.523
 11
160.036
 21
-105.76
  0
LINE
  5
2D4
100
AcDbEntity
  8
0
  6
ByLayer
 62
    5
370
   -1
100
AcDbLine
 10
160.036
 20
-105.76
 11
160.104
 21
-106.013
  0
LINE
  5
2D5
100
AcDbEntity
  8
0
  6
ByLayer
 62
    5
370
   -1
100
AcDbLine
 10
160.104
 20
-106.013
 11
160.127
 21
-106.273
  0
LINE
  5
2D6
100
AcDbEntity
  8
0
  6
ByLayer
 62
    5
370
   -1
100
AcDbLine
 10
160.127
 20
-106.273
 11
160.104
 21
-106.534
  0
LINE
  5
2D7
100
AcDbEntity
  8
0
  6
ByLayer
 62
    5
370
   -1
100
AcDbLine
 10
160.104
 20
-106.534
 11
160.036
 21
-106.786
  0
LINE
  5
2D8
100
AcDbEntity
  8
0
  6
ByLayer
 62
    5
370
   -1
100
AcDbLine
 10
160.036
 20
-106.786
 11
159.926
 21
-107.023
  0
LINE
  5
2D9
100
AcDbEntity
  8
0
  6
ByLayer
 62
    5
370
   -1
100
AcDbLine
 10
159.926
 20
-107.023
 11
159.776
 21
-107.237
  0
LINE
  5
2DA
100
AcDbEntity
  8
0
  6
ByLayer
 62
    5
370
   -1
100
AcDbLine
 10
159.776
 20
-107.237
 11
159.591
 21
-107.422
  0
LINE
  5
2DB
100
AcDbEntity
  8
0
  6
ByLayer
 62
    5
370
   -1
100
AcDbLine
 10
159.591
 20
-107.422
 11
159.377
 21
-107.572
  0
LINE
  5
2DC
100
AcDbEntity
  8
0
  6
ByLayer
 62
    5
370
   -1
100
AcDbLine
 10
159.377
 20
-107.572
 11
159.14
 21
-107.683
  0
LINE
  5
2DD
100
AcDbEntity
  8
0
  6
ByLayer
 62
    5
370
   -1
100
AcDbLine
 10
159.14
 20
-107.683
 11
158.887
 21
-107.75
  0
LINE
  5
2DE
100
AcDbEntity
  8
0
  6
ByLayer
 62
    5
370
   -1
100
AcDbLine
 10
158.887
 20
-107.75
 11
158.627
 21
-107.773
  0
LINE
  5
2DF
100
AcDbEntity
  8
0
  6
ByLayer
 62
    5
370
   -1
100
AcDbLine
 10
158.627
 20
-107.773
 11
158.366
 21
-107.75
  0
LINE
  5
2E0
100
AcDbEntity
  8
0
  6
ByLayer
 62
    5
370
   -1
100
AcDbLine
 10
-158.887
 20
-107.75
 11
-159.14
 21
-107.683
  0
LINE
  5
2E1
100
AcDbEntity
  8
0
  6
ByLayer
 62
    5
370
   -1
100
AcDbLine
 10
-159.14
 20
-107.683
 11
-159.377
 21
-107.572
  0
LINE
  5
2E2
100
AcDbEntity
  8
0
  6
ByLayer
 62
    5
370
   -1
100
AcDbLine
 10
-159.377
 20
-107.572
 11
-159.591
 21
-107.422
  0
LINE
  5
2E3
100
AcDbEntity
  8
0
  6
ByLayer
 62
    5
370
   -1
100
AcDbLine
 10
-159.591
 20
-107.422
 11
-159.776
 21
-107.237
  0
LINE
  5
2E4
100
AcDbEntity
  8
0
  6
ByLayer
 62
    5
370
   -1
100
AcDbLine
 10
-159.776
 20
-107.237
 11
-159.926
 21
-107.023
  0
LINE
  5
2E5
100
AcDbEntity
  8
0
  6
ByLayer
 62
    5
370
   -1
100
AcDbLine
 10
-159.926
 20
-107.023
 11
-160.036
 21
-106.786
  0
LINE
  5
2E6
100
AcDbEntity
  8
0
  6
ByLayer
 62
    5
370
   -1
100
AcDbLine
 10
-160.036
 20
-106.786
 11
-160.104
 21
-106.534
  0
LINE
  5
2E7
100
AcDbEntity
  8
0
  6
ByLayer
 62
    5
370
   -1
100
AcDbLine
 10
-160.104
 20
-106.534
 11
-160.127
 21
-106.273
  0
LINE
  5
2E8
100
AcDbEntity
  8
0
  6
ByLayer
 62
    5
370
   -1
100
AcDbLine
 10
-160.127
 20
-106.273
 11
-160.104
 21
-106.013
  0
LINE
  5
2E9
100
AcDbEntity
  8
0
  6
ByLayer
 62
    5
370
   -1
100
AcDbLine
 10
-160.104
 20
-106.013
 11
-160.036
 21
-105.76
  0
LINE
  5
2EA
100
AcDbEntity
  8
0
  6
ByLayer
 62
    5
370
   -1
100
AcDbLine
 10
-160.036
 20
-105.76
 11
-159.926
 21
-105.523
  0
LINE
  5
2EB
100
AcDbEntity
  8
0
  6
ByLayer
 62
    5
370
   -1
100
AcDbLine
 10
-159.926
 20
-105.523
 11
-159.776
 21
-105.309
  0
LINE
  5
2EC
100
AcDbEntity
  8
0
  6
ByLayer
 62
    5
370
   -1
100
AcDbLine
 10
-159.776
 20
-105.309
 11
-159.591
 21
-105.124
  0
LINE
  5
2ED
100
AcDbEntity
  8
0
  6
ByLayer
 62
    5
370
   -1
100
AcDbLine
 10
-159.591
 20
-105.124
 11
-159.377
 21
-104.974
  0
LINE
  5
2EE
100
AcDbEntity
  8
0
  6
ByLayer
 62
    5
370
   -1
100
AcDbLine
 10
-159.377
 20
-104.974
 11
-159.14
 21
-104.864
  0
LINE
  5
2EF
100
AcDbEntity
  8
0
  6
ByLayer
 62
    5
370
   -1
100
AcDbLine
 10
-159.14
 20
-104.864
 11
-158.887
 21
-104.796
  0
LINE
  5
2F0
100
AcDbEntity
  8
0
  6
ByLayer
 62
    5
370
   -1
100
AcDbLine
 10
-158.887
 20
-104.796
 11
-158.627
 21
-104.773
  0
LINE
  5
2F1
100
AcDbEntity
  8
0
  6
ByLayer
 62
    5
370
   -1
100
AcDbLine
 10
-158.627
 20
-104.773
 11
-158.366
 21
-104.796
  0
LINE
  5
2F2
100
AcDbEntity
  8
0
  6
ByLayer
 62
    5
370
   -1
100
AcDbLine
 10
-158.366
 20
-104.796
 11
-158.113
 21
-104.864
  0
LINE
  5
2F3
100
AcDbEntity
  8
0
  6
ByLayer
 62
    5
370
   -1
100
AcDbLine
 10
-158.113
 20
-104.864
 11
-157.877
 21
-104.974
  0
LINE
  5
2F4
100
AcDbEntity
  8
0
  6
ByLayer
 62
    5
370
   -1
100
AcDbLine
 10
-157.877
 20
-104.974
 11
-157.662
 21
-105.124
  0
LINE
  5
2F5
100
AcDbEntity
  8
0
  6
ByLayer
 62
    5
370
   -1
100
AcDbLine
 10
-157.662
 20
-105.124
 11
-157.477
 21
-105.309
  0
LINE
  5
2F6
100
AcDbEntity
  8
0
  6
ByLayer
 62
    5
370
   -1
100
AcDbLine
 10
-157.477
 20
-105.309
 11
-157.327
 21
-105.523
  0
LINE
  5
2F7
100
AcDbEntity
  8
0
  6
ByLayer
 62
    5
370
   -1
100
AcDbLine
 10
-157.327
 20
-105.523
 11
-157.217
 21
-105.76
  0
LINE
  5
2F8
100
AcDbEntity
  8
0
  6
ByLayer
 62
    5
370
   -1
100
AcDbLine
 10
-157.217
 20
-105.76
 11
-157.149
 21
-106.013
  0
LINE
  5
2F9
100
AcDbEntity
  8
0
  6
ByLayer
 62
    5
370
   -1
100
AcDbLine
 10
-157.149
 20
-106.013
 11
-157.127
 21
-106.273
  0
LINE
  5
2FA
100
AcDbEntity
  8
0
  6
ByLayer
 62
    5
370
   -1
100
AcDbLine
 10
-157.127
 20
-106.273
 11
-157.149
 21
-106.534
  0
LINE
  5
2FB
100
AcDbEntity
  8
0
  6
ByLayer
 62
    5
370
   -1
100
AcDbLine
 10
-157.149
 20
-106.534
 11
-157.217
 21
-106.786
  0
LINE
  5
2FC
100
AcDbEntity
  8
0
  6
ByLayer
 62
    5
370
   -1
100
AcDbLine
 10
-157.217
 20
-106.786
 11
-157.327
 21
-107.023
  0
LINE
  5
2FD
100
AcDbEntity
  8
0
  6
ByLayer
 62
    5
370
   -1
100
AcDbLine
 10
-157.327
 20
-107.023
 11
-157.477
 21
-107.237
  0
LINE
  5
2FE
100
AcDbEntity
  8
0
  6
ByLayer
 62
    5
370
   -1
100
AcDbLine
 10
-157.477
 20
-107.237
 11
-157.662
 21
-107.422
  0
LINE
  5
2FF
100
AcDbEntity
  8
0
  6
ByLayer
 62
    5
370
   -1
100
AcDbLine
 10
-157.662
 20
-107.422
 11
-157.877
 21
-107.572
  0
LINE
  5
300
100
AcDbEntity
  8
0
  6
ByLayer
 62
    5
370
   -1
100
AcDbLine
 10
-157.877
 20
-107.572
 11
-158.113
 21
-107.683
  0
LINE
  5
301
100
AcDbEntity
  8
0
  6
ByLayer
 62
    5
370
   -1
100
AcDbLine
 10
-158.113
 20
-107.683
 11
-158.366
 21
-107.75
  0
LINE
  5
302
100
AcDbEntity
  8
0
  6
ByLayer
 62
    5
370
   -1
100
AcDbLine
 10
-158.366
 20
-107.75
 11
-158.627
 21
-107.773
  0
LINE
  5
303
100
AcDbEntity
  8
0
  6
ByLayer
 62
    5
370
   -1
100
AcDbLine
 10
-158.627
 20
-107.773
 11
-158.887
 21
-107.75
  0
LINE
  5
304
100
AcDbEntity
  8
0
  6
ByLayer
 62
    5
370
   -1
100
AcDbLine
 10
-141.094
 20
-118.023
 11
-141.347
 21
-117.955
  0
LINE
  5
305
100
AcDbEntity
  8
0
  6
ByLayer
 62
    5
370
   -1
100
AcDbLine
 10
-141.347
 20
-117.955
 11
-141.584
 21
-117.845
  0
LINE
  5
306
100
AcDbEntity
  8
0
  6
ByLayer
 62
    5
370
   -1
100
AcDbLine
 10
-141.584
 20
-117.845
 11
-141.798
 21
-117.695
  0
LINE
  5
307
100
AcDbEntity
  8
0
  6
ByLayer
 62
    5
370
   -1
100
AcDbLine
 10
-141.798
 20
-117.695
 11
-141.983
 21
-117.51
  0
LINE
  5
308
100
AcDbEntity
  8
0
  6
ByLayer
 62
    5
370
   -1
100
AcDbLine
 10
-141.983
 20
-117.51
 11
-142.133
 21
-117.296
  0
LINE
  5
309
100
AcDbEntity
  8
0
  6
ByLayer
 62
    5
370
   -1
100
AcDbLine
 10
-142.133
 20
-117.296
 11
-142.244
 21
-117.059
  0
LINE
  5
30A
100
AcDbEntity
  8
0
  6
ByLayer
 62
    5
370
   -1
100
AcDbLine
 10
-142.244
 20
-117.059
 11
-142.311
 21
-116.806
  0
LINE
  5
30B
100
AcDbEntity
  8
0
  6
ByLayer
 62
    5
370
   -1
100
AcDbLine
 10
-142.311
 20
-116.806
 11
-142.334
 21
-116.546
  0
LINE
  5
30C
100
AcDbEntity
  8
0
  6
ByLayer
 62
    5
370
   -1
100
AcDbLine
 10
-142.334
 20
-116.546
 11
-142.311
 21
-116.285
  0
LINE
  5
30D
100
AcDbEntity
  8
0
  6
ByLayer
 62
    5
370
   -1
100
AcDbLine
 10
-142.311
 20
-116.285
 11
-142.244
 21
-116.033
  0
LINE
  5
30E
100
AcDbEntity
  8
0
  6
ByLayer
 62
    5
370
   -1
100
AcDbLine
 10
-142.244
 20
-116.033
 11
-142.133
 21
-115.796
  0
LINE
  5
30F
100
AcDbEntity
  8
0
  6
ByLayer
 62
    5
370
   -1
100
AcDbLine
 10
-142.133
 20
-115.796
 11
-141.983
 21
-115.581
  0
LINE
  5
310
100
AcDbEntity
  8
0
  6
ByLayer
 62
    5
370
   -1
100
AcDbLine
 10
-141.983
 20
-115.581
 11
-141.798
 21
-115.396
  0
LINE
  5
311
100
AcDbEntity
  8
0
  6
ByLayer
 62
    5
370
   -1
100
AcDbLine
 10
-141.798
 20
-115.396
 11
-141.584
 21
-115.247
  0
LINE
  5
312
100
AcDbEntity
  8
0
  6
ByLayer
 62
    5
370
   -1
100
AcDbLine
 10
-141.584
 20
-115.247
 11
-141.347
 21
-115.136
  0
LINE
  5
313
100
AcDbEntity
  8
0
  6
ByLayer
 62
    5
370
   -1
100
AcDbLine
 10
-141.347
 20
-115.136
 11
-141.094
 21
-115.068
  0
LINE
  5
314
100
AcDbEntity
  8
0
  6
ByLayer
 62
    5
370
   -1
100
AcDbLine
 10
-141.094
 20
-115.068
 11
-140.834
 21
-115.046
  0
LINE
  5
315
100
AcDbEntity
  8
0
  6
ByLayer
 62
    5
370
   -1
100
AcDbLine
 10
-140.834
 20
-115.046
 11
-140.574
 21
-115.068
  0
LINE
  5
316
100
AcDbEntity
  8
0
  6
ByLayer
 62
    5
370
   -1
100
AcDbLine
 10
-140.574
 20
-115.068
 11
-140.321
 21
-115.136
  0
LINE
  5
317
100
AcDbEntity
  8
0
  6
ByLayer
 62
    5
370
   -1
100
AcDbLine
 10
-140.321
 20
-115.136
 11
-140.084
 21
-115.247
  0
LINE
  5
318
100
AcDbEntity
  8
0
  6
ByLayer
 62
    5
370
   -1
100
AcDbLine
 10
-140.084
 20
-115.247
 11
-139.87
 21
-115.396
  0
LINE
  5
319
100
AcDbEntity
  8
0
  6
ByLayer
 62
    5
370
   -1
100
AcDbLine
 10
-139.87
 20
-115.396
 11
-139.685
 21
-115.581
  0
LINE
  5
31A
100
AcDbEntity
  8
0
  6
ByLayer
 62
    5
370
   -1
100
AcDbLine
 10
-139.685
 20
-115.581
 11
-139.535
 21
-115.796
  0
LINE
  5
31B
100
AcDbEntity
  8
0
  6
ByLayer
 62
    5
370
   -1
100
AcDbLine
 10
-139.535
 20
-115.796
 11
-139.424
 21
-116.033
  0
LINE
  5
31C
100
AcDbEntity
  8
0
  6
ByLayer
 62
    5
370
   -1
100
AcDbLine
 10
-139.424
 20
-116.033
 11
-139.357
 21
-116.285
  0
LINE
  5
31D
100
AcDbEntity
  8
0
  6
ByLayer
 62
    5
370
   -1
100
AcDbLine
 10
-139.357
 20
-116.285
 11
-139.334
 21
-116.546
  0
LINE
  5
31E
100
AcDbEntity
  8
0
  6
ByLayer
 62
    5
370
   -1
100
AcDbLine
 10
-139.334
 20
-116.546
 11
-139.357
 21
-116.806
  0
LINE
  5
31F
100
AcDbEntity
  8
0
  6
ByLayer
 62
    5
370
   -1
100
AcDbLine
 10
-139.357
 20
-116.806
 11
-139.424
 21
-117.059
  0
LINE
  5
320
100
AcDbEntity
  8
0
  6
ByLayer
 62
    5
370
   -1
100
AcDbLine
 10
-139.424
 20
-117.059
 11
-139.535
 21
-117.296
  0
LINE
  5
321
100
AcDbEntity
  8
0
  6
ByLayer
 62
    5
370
   -1
100
AcDbLine
 10
-139.535
 20
-117.296
 11
-139.685
 21
-117.51
  0
LINE
  5
322
100
AcDbEntity
  8
0
  6
ByLayer
 62
    5
370
   -1
100
AcDbLine
 10
-139.685
 20
-117.51
 11
-139.87
 21
-117.695
  0
LINE
  5
323
100
AcDbEntity
  8
0
  6
ByLayer
 62
    5
370
   -1
100
AcDbLine
 10
-139.87
 20
-117.695
 11
-140.084
 21
-117.845
  0
LINE
  5
324
100
AcDbEntity
  8
0
  6
ByLayer
 62
    5
370
   -1
100
AcDbLine
 10
-140.084
 20
-117.845
 11
-140.321
 21
-117.955
  0
LINE
  5
325
100
AcDbEntity
  8
0
  6
ByLayer
 62
    5
370
   -1
100
AcDbLine
 10
-140.321
 20
-117.955
 11
-140.574
 21
-118.023
  0
LINE
  5
326
100
AcDbEntity
  8
0
  6
ByLayer
 62
    5
370
   -1
100
AcDbLine
 10
-140.574
 20
-118.023
 11
-140.834
 21
-118.046
  0
LINE
  5
327
100
AcDbEntity
  8
0
  6
ByLayer
 62
    5
370
   -1
100
AcDbLine
 10
-140.834
 20
-118.046
 11
-141.094
 21
-118.023
  0
LINE
  5
328
100
AcDbEntity
  8
0
  6
ByLayer
 62
    5
370
   -1
100
AcDbLine
 10
140.574
 20
-118.023
 11
140.321
 21
-117.955
  0
LINE
  5
329
100
AcDbEntity
  8
0
  6
ByLayer
 62
    5
370
   -1
100
AcDbLine
 10
140.321
 20
-117.955
 11
140.084
 21
-117.845
  0
LINE
  5
32A
100
AcDbEntity
  8
0
  6
ByLayer
 62
    5
370
   -1
100
AcDbLine
 10
140.084
 20
-117.845
 11
139.87
 21
-117.695
  0
LINE
  5
32B
100
AcDbEntity
  8
0
  6
ByLayer
 62
    5
370
   -1
100
AcDbLine
 10
139.87
 20
-117.695
 11
139.685
 21
-117.51
  0
LINE
  5
32C
100
AcDbEntity
  8
0
  6
ByLayer
 62
    5
370
   -1
100
AcDbLine
 10
139.685
 20
-117.51
 11
139.535
 21
-117.296
  0
LINE
  5
32D
100
AcDbEntity
  8
0
  6
ByLayer
 62
    5
370
   -1
100
AcDbLine
 10
139.535
 20
-117.296
 11
139.424
 21
-117.059
  0
LINE
  5
32E
100
AcDbEntity
  8
0
  6
ByLayer
 62
    5
370
   -1
100
AcDbLine
 10
139.424
 20
-117.059
 11
139.357
 21
-116.806
  0
LINE
  5
32F
100
AcDbEntity
  8
0
  6
ByLayer
 62
    5
370
   -1
100
AcDbLine
 10
139.357
 20
-116.806
 11
139.334
 21
-116.546
  0
LINE
  5
330
100
AcDbEntity
  8
0
  6
ByLayer
 62
    5
370
   -1
100
AcDbLine
 10
139.334
 20
-116.546
 11
139.357
 21
-116.285
  0
LINE
  5
331
100
AcDbEntity
  8
0
  6
ByLayer
 62
    5
370
   -1
100
AcDbLine
 10
139.357
 20
-116.285
 11
139.424
 21
-116.033
  0
LINE
  5
332
100
AcDbEntity
  8
0
  6
ByLayer
 62
    5
370
   -1
100
AcDbLine
 10
139.424
 20
-116.033
 11
139.535
 21
-115.796
  0
LINE
  5
333
100
AcDbEntity
  8
0
  6
ByLayer
 62
    5
370
   -1
100
AcDbLine
 10
139.535
 20
-115.796
 11
139.685
 21
-115.581
  0
LINE
  5
334
100
AcDbEntity
  8
0
  6
ByLayer
 62
    5
370
   -1
100
AcDbLine
 10
139.685
 20
-115.581
 11
139.87
 21
-115.396
  0
LINE
  5
335
100
AcDbEntity
  8
0
  6
ByLayer
 62
    5
370
   -1
100
AcDbLine
 10
139.87
 20
-115.396
 11
140.084
 21
-115.247
  0
LINE
  5
336
100
AcDbEntity
  8
0
  6
ByLayer
 62
    5
370
   -1
100
AcDbLine
 10
140.084
 20
-115.247
 11
140.321
 21
-115.136
  0
LINE
  5
337
100
AcDbEntity
  8
0
  6
ByLayer
 62
    5
370
   -1
100
AcDbLine
 10
140.321
 20
-115.136
 11
140.574
 21
-115.068
  0
LINE
  5
338
100
AcDbEntity
  8
0
  6
ByLayer
 62
    5
370
   -1
100
AcDbLine
 10
140.574
 20
-115.068
 11
140.834
 21
-115.046
  0
LINE
  5
339
100
AcDbEntity
  8
0
  6
ByLayer
 62
    5
370
   -1
100
AcDbLine
 10
140.834
 20
-115.046
 11
141.094
 21
-115.068
  0
LINE
  5
33A
100
AcDbEntity
  8
0
  6
ByLayer
 62
    5
370
   -1
100
AcDbLine
 10
141.094
 20
-115.068
 11
141.347
 21
-115.136
  0
LINE
  5
33B
100
AcDbEntity
  8
0
  6
ByLayer
 62
    5
370
   -1
100
AcDbLine
 10
141.347
 20
-115.136
 11
141.584
 21
-115.247
  0
LINE
  5
33C
100
AcDbEntity
  8
0
  6
ByLayer
 62
    5
370
   -1
100
AcDbLine
 10
141.584
 20
-115.247
 11
141.798
 21
-115.396
  0
LINE
  5
33D
100
AcDbEntity
  8
0
  6
ByLayer
 62
    5
370
   -1
100
AcDbLine
 10
141.798
 20
-115.396
 11
141.983
 21
-115.581
  0
LINE
  5
33E
100
AcDbEntity
  8
0
  6
ByLayer
 62
    5
370
   -1
100
AcDbLine
 10
141.983
 20
-115.581
 11
142.133
 21
-115.796
  0
LINE
  5
33F
100
AcDbEntity
  8
0
  6
ByLayer
 62
    5
370
   -1
100
AcDbLine
 10
142.133
 20
-115.796
 11
142.244
 21
-116.033
  0
LINE
  5
340
100
AcDbEntity
  8
0
  6
ByLayer
 62
    5
370
   -1
100
AcDbLine
 10
142.244
 20
-116.033
 11
142.311
 21
-116.285
  0
LINE
  5
341
100
AcDbEntity
  8
0
  6
ByLayer
 62
    5
370
   -1
100
AcDbLine
 10
142.311
 20
-116.285
 11
142.334
 21
-116.546
  0
LINE
  5
342
100
AcDbEntity
  8
0
  6
ByLayer
 62
    5
370
   -1
100
AcDbLine
 10
142.334
 20
-116.546
 11
142.311
 21
-116.806
  0
LINE
  5
343
100
AcDbEntity
  8
0
  6
ByLayer
 62
    5
370
   -1
100
AcDbLine
 10
142.311
 20
-116.806
 11
142.244
 21
-117.059
  0
LINE
  5
344
100
AcDbEntity
  8
0
  6
ByLayer
 62
    5
370
   -1
100
AcDbLine
 10
142.244
 20
-117.059
 11
142.133
 21
-117.296
  0
LINE
  5
345
100
AcDbEntity
  8
0
  6
ByLayer
 62
    5
370
   -1
100
AcDbLine
 10
142.133
 20
-117.296
 11
141.983
 21
-117.51
  0
LINE
  5
346
100
AcDbEntity
  8
0
  6
ByLayer
 62
    5
370
   -1
100
AcDbLine
 10
141.983
 20
-117.51
 11
141.798
 21
-117.695
  0
LINE
  5
347
100
AcDbEntity
  8
0
  6
ByLayer
 62
    5
370
   -1
100
AcDbLine
 10
141.798
 20
-117.695
 11
141.584
 21
-117.845
  0
LINE
  5
348
100
AcDbEntity
  8
0
  6
ByLayer
 62
    5
370
   -1
100
AcDbLine
 10
141.584
 20
-117.845
 11
141.347
 21
-117.955
  0
LINE
  5
349
100
AcDbEntity
  8
0
  6
ByLayer
 62
    5
370
   -1
100
AcDbLine
 10
141.347
 20
-117.955
 11
141.094
 21
-118.023
  0
LINE
  5
34A
100
AcDbEntity
  8
0
  6
ByLayer
 62
    5
370
   -1
100
AcDbLine
 10
141.094
 20
-118.023
 11
140.834
 21
-118.046
  0
LINE
  5
34B
100
AcDbEntity
  8
0
  6
ByLayer
 62
    5
370
   -1
100
AcDbLine
 10
140.834
 20
-118.046
 11
140.574
 21
-118.023
  0
LINE
  5
34C
100
AcDbEntity
  8
0
  6
ByLayer
 62
    5
370
   -1
100
AcDbLine
 10
-164.031
 20
-198.369
 11
-164.098
 21
-198.117
  0
LINE
  5
34D
100
AcDbEntity
  8
0
  6
ByLayer
 62
    5
370
   -1
100
AcDbLine
 10
-164.098
 20
-198.117
 11
-164.121
 21
-197.856
  0
LINE
  5
34E
100
AcDbEntity
  8
0
  6
ByLayer
 62
    5
370
   -1
100
AcDbLine
 10
-164.121
 20
-197.856
 11
-164.098
 21
-197.596
  0
LINE
  5
34F
100
AcDbEntity
  8
0
  6
ByLayer
 62
    5
370
   -1
100
AcDbLine
 10
-164.098
 20
-197.596
 11
-164.031
 21
-197.343
  0
LINE
  5
350
100
AcDbEntity
  8
0
  6
ByLayer
 62
    5
370
   -1
100
AcDbLine
 10
-164.031
 20
-197.343
 11
-163.92
 21
-197.106
  0
LINE
  5
351
100
AcDbEntity
  8
0
  6
ByLayer
 62
    5
370
   -1
100
AcDbLine
 10
-163.92
 20
-197.106
 11
-163.77
 21
-196.892
  0
LINE
  5
352
100
AcDbEntity
  8
0
  6
ByLayer
 62
    5
370
   -1
100
AcDbLine
 10
-163.77
 20
-196.892
 11
-163.585
 21
-196.707
  0
LINE
  5
353
100
AcDbEntity
  8
0
  6
ByLayer
 62
    5
370
   -1
100
AcDbLine
 10
-163.585
 20
-196.707
 11
-163.371
 21
-196.557
  0
LINE
  5
354
100
AcDbEntity
  8
0
  6
ByLayer
 62
    5
370
   -1
100
AcDbLine
 10
-163.371
 20
-196.557
 11
-163.134
 21
-196.447
  0
LINE
  5
355
100
AcDbEntity
  8
0
  6
ByLayer
 62
    5
370
   -1
100
AcDbLine
 10
-163.134
 20
-196.447
 11
-162.882
 21
-196.379
  0
LINE
  5
356
100
AcDbEntity
  8
0
  6
ByLayer
 62
    5
370
   -1
100
AcDbLine
 10
-162.882
 20
-196.379
 11
-162.621
 21
-196.356
  0
LINE
  5
357
100
AcDbEntity
  8
0
  6
ByLayer
 62
    5
370
   -1
100
AcDbLine
 10
-162.621
 20
-196.356
 11
-162.361
 21
-196.379
  0
LINE
  5
358
100
AcDbEntity
  8
0
  6
ByLayer
 62
    5
370
   -1
100
AcDbLine
 10
-162.361
 20
-196.379
 11
-162.108
 21
-196.447
  0
LINE
  5
359
100
AcDbEntity
  8
0
  6
ByLayer
 62
    5
370
   -1
100
AcDbLine
 10
-162.108
 20
-196.447
 11
-161.871
 21
-196.557
  0
LINE
  5
35A
100
AcDbEntity
  8
0
  6
ByLayer
 62
    5
370
   -1
100
AcDbLine
 10
-161.871
 20
-196.557
 11
-161.657
 21
-196.707
  0
LINE
  5
35B
100
AcDbEntity
  8
0
  6
ByLayer
 62
    5
370
   -1
100
AcDbLine
 10
-161.657
 20
-196.707
 11
-161.472
 21
-196.892
  0
LINE
  5
35C
100
AcDbEntity
  8
0
  6
ByLayer
 62
    5
370
   -1
100
AcDbLine
 10
-161.472
 20
-196.892
 11
-161.322
 21
-197.106
  0
LINE
  5
35D
100
AcDbEntity
  8
0
  6
ByLayer
 62
    5
370
   -1
100
AcDbLine
 10
-161.322
 20
-197.106
 11
-161.212
 21
-197.343
  0
LINE
  5
35E
100
AcDbEntity
  8
0
  6
ByLayer
 62
    5
370
   -1
100
AcDbLine
 10
-161.212
 20
-197.343
 11
-161.144
 21
-197.596
  0
LINE
  5
35F
100
AcDbEntity
  8
0
  6
ByLayer
 62
    5
370
   -1
100
AcDbLine
 10
-161.144
 20
-197.596
 11
-161.121
 21
-197.856
  0
LINE
  5
360
100
AcDbEntity
  8
0
  6
ByLayer
 62
    5
370
   -1
100
AcDbLine
 10
-161.121
 20
-197.856
 11
-161.144
 21
-198.117
  0
LINE
  5
361
100
AcDbEntity
  8
0
  6
ByLayer
 62
    5
370
   -1
100
AcDbLine
 10
-161.144
 20
-198.117
 11
-161.212
 21
-198.369
  0
LINE
  5
362
100
AcDbEntity
  8
0
  6
ByLayer
 62
    5
370
   -1
100
AcDbLine
 10
-161.212
 20
-198.369
 11
-161.322
 21
-198.606
  0
LINE
  5
363
100
AcDbEntity
  8
0
  6
ByLayer
 62
    5
370
   -1
100
AcDbLine
 10
-161.322
 20
-198.606
 11
-161.472
 21
-198.82
  0
LINE
  5
364
100
AcDbEntity
  8
0
  6
ByLayer
 62
    5
370
   -1
100
AcDbLine
 10
-161.472
 20
-198.82
 11
-161.657
 21
-199.005
  0
LINE
  5
365
100
AcDbEntity
  8
0
  6
ByLayer
 62
    5
370
   -1
100
AcDbLine
 10
-161.657
 20
-199.005
 11
-161.871
 21
-199.155
  0
LINE
  5
366
100
AcDbEntity
  8
0
  6
ByLayer
 62
    5
370
   -1
100
AcDbLine
 10
-161.871
 20
-199.155
 11
-162.108
 21
-199.266
  0
LINE
  5
367
100
AcDbEntity
  8
0
  6
ByLayer
 62
    5
370
   -1
100
AcDbLine
 10
-162.108
 20
-199.266
 11
-162.361
 21
-199.333
  0
LINE
  5
368
100
AcDbEntity
  8
0
  6
ByLayer
 62
    5
370
   -1
100
AcDbLine
 10
-162.361
 20
-199.333
 11
-162.621
 21
-199.356
  0
LINE
  5
369
100
AcDbEntity
  8
0
  6
ByLayer
 62
    5
370
   -1
100
AcDbLine
 10
-162.621
 20
-199.356
 11
-162.882
 21
-199.333
  0
LINE
  5
36A
100
AcDbEntity
  8
0
  6
ByLayer
 62
    5
370
   -1
100
AcDbLine
 10
-162.882
 20
-199.333
 11
-163.134
 21
-199.266
  0
LINE
  5
36B
100
AcDbEntity
  8
0
  6
ByLayer
 62
    5
370
   -1
100
AcDbLine
 10
-163.134
 20
-199.266
 11
-163.371
 21
-199.155
  0
LINE
  5
36C
100
AcDbEntity
  8
0
  6
ByLayer
 62
    5
370
   -1
100
AcDbLine
 10
-163.371
 20
-199.155
 11
-163.585
 21
-199.005
  0
LINE
  5
36D
100
AcDbEntity
  8
0
  6
ByLayer
 62
    5
370
   -1
100
AcDbLine
 10
-163.585
 20
-199.005
 11
-163.77
 21
-198.82
  0
LINE
  5
36E
100
AcDbEntity
  8
0
  6
ByLayer
 62
    5
370
   -1
100
AcDbLine
 10
-163.77
 20
-198.82
 11
-163.92
 21
-198.606
  0
LINE
  5
36F
100
AcDbEntity
  8
0
  6
ByLayer
 62
    5
370
   -1
100
AcDbLine
 10
-163.92
 20
-198.606
 11
-164.031
 21
-198.369
  0
LINE
  5
370
100
AcDbEntity
  8
0
  6
ByLayer
 62
    5
370
   -1
100
AcDbLine
 10
182.906
 20
-199.333
 11
182.653
 21
-199.266
  0
LINE
  5
371
100
AcDbEntity
  8
0
  6
ByLayer
 62
    5
370
   -1
100
AcDbLine
 10
182.653
 20
-199.266
 11
182.416
 21
-199.155
  0
LINE
  5
372
100
AcDbEntity
  8
0
  6
ByLayer
 62
    5
370
   -1
100
AcDbLine
 10
182.416
 20
-199.155
 11
182.202
 21
-199.005
  0
LINE
  5
373
100
AcDbEntity
  8
0
  6
ByLayer
 62
    5
370
   -1
100
AcDbLine
 10
182.202
 20
-199.005
 11
182.017
 21
-198.82
  0
LINE
  5
374
100
AcDbEntity
  8
0
  6
ByLayer
 62
    5
370
   -1
100
AcDbLine
 10
182.017
 20
-198.82
 11
181.867
 21
-198.606
  0
LINE
  5
375
100
AcDbEntity
  8
0
  6
ByLayer
 62
    5
370
   -1
100
AcDbLine
 10
181.867
 20
-198.606
 11
181.757
 21
-198.369
  0
LINE
  5
376
100
AcDbEntity
  8
0
  6
ByLayer
 62
    5
370
   -1
100
AcDbLine
 10
181.757
 20
-198.369
 11
181.689
 21
-198.117
  0
LINE
  5
377
100
AcDbEntity
  8
0
  6
ByLayer
 62
    5
370
   -1
100
AcDbLine
 10
181.689
 20
-198.117
 11
181.666
 21
-197.856
  0
LINE
  5
378
100
AcDbEntity
  8
0
  6
ByLayer
 62
    5
370
   -1
100
AcDbLine
 10
181.666
 20
-197.856
 11
181.689
 21
-197.596
  0
LINE
  5
379
100
AcDbEntity
  8
0
  6
ByLayer
 62
    5
370
   -1
100
AcDbLine
 10
181.689
 20
-197.596
 11
181.757
 21
-197.343
  0
LINE
  5
37A
100
AcDbEntity
  8
0
  6
ByLayer
 62
    5
370
   -1
100
AcDbLine
 10
181.757
 20
-197.343
 11
181.867
 21
-197.106
  0
LINE
  5
37B
100
AcDbEntity
  8
0
  6
ByLayer
 62
    5
370
   -1
100
AcDbLine
 10
181.867
 20
-197.106
 11
182.017
 21
-196.892
  0
LINE
  5
37C
100
AcDbEntity
  8
0
  6
ByLayer
 62
    5
370
   -1
100
AcDbLine
 10
182.017
 20
-196.892
 11
182.202
 21
-196.707
  0
LINE
  5
37D
100
AcDbEntity
  8
0
  6
ByLayer
 62
    5
370
   -1
100
AcDbLine
 10
182.202
 20
-196.707
 11
182.416
 21
-196.557
  0
LINE
  5
37E
100
AcDbEntity
  8
0
  6
ByLayer
 62
    5
370
   -1
100
AcDbLine
 10
182.416
 20
-196.557
 11
182.653
 21
-196.447
  0
LINE
  5
37F
100
AcDbEntity
  8
0
  6
ByLayer
 62
    5
370
   -1
100
AcDbLine
 10
182.653
 20
-196.447
 11
182.906
 21
-196.379
  0
LINE
  5
380
100
AcDbEntity
  8
0
  6
ByLayer
 62
    5
370
   -1
100
AcDbLine
 10
182.906
 20
-196.379
 11
183.166
 21
-196.356
  0
LINE
  5
381
100
AcDbEntity
  8
0
  6
ByLayer
 62
    5
370
   -1
100
AcDbLine
 10
183.166
 20
-196.356
 11
183.427
 21
-196.379
  0
LINE
  5
382
100
AcDbEntity
  8
0
  6
ByLayer
 62
    5
370
   -1
100
AcDbLine
 10
183.427
 20
-196.379
 11
183.679
 21
-196.447
  0
LINE
  5
383
100
AcDbEntity
  8
0
  6
ByLayer
 62
    5
370
   -1
100
AcDbLine
 10
183.679
 20
-196.447
 11
183.916
 21
-196.557
  0
LINE
  5
384
100
AcDbEntity
  8
0
  6
ByLayer
 62
    5
370
   -1
100
AcDbLine
 10
183.916
 20
-196.557
 11
184.13
 21
-196.707
  0
LINE
  5
385
100
AcDbEntity
  8
0
  6
ByLayer
 62
    5
370
   -1
100
AcDbLine
 10
184.13
 20
-196.707
 11
184.315
 21
-196.892
  0
LINE
  5
386
100
AcDbEntity
  8
0
  6
ByLayer
 62
    5
370
   -1
100
AcDbLine
 10
184.315
 20
-196.892
 11
184.465
 21
-197.106
  0
LINE
  5
387
100
AcDbEntity
  8
0
  6
ByLayer
 62
    5
370
   -1
100
AcDbLine
 10
184.465
 20
-197.106
 11
184.576
 21
-197.343
  0
LINE
  5
388
100
AcDbEntity
  8
0
  6
ByLayer
 62
    5
370
   -1
100
AcDbLine
 10
184.576
 20
-197.343
 11
184.643
 21
-197.596
  0
LINE
  5
389
100
AcDbEntity
  8
0
  6
ByLayer
 62
    5
370
   -1
100
AcDbLine
 10
184.643
 20
-197.596
 11
184.666
 21
-197.856
  0
LINE
  5
38A
100
AcDbEntity
  8
0
  6
ByLayer
 62
    5
370
   -1
100
AcDbLine
 10
184.666
 20
-197.856
 11
184.643
 21
-198.117
  0
LINE
  5
38B
100
AcDbEntity
  8
0
  6
ByLayer
 62
    5
370
   -1
100
AcDbLine
 10
184.643
 20
-198.117
 11
184.576
 21
-198.369
  0
LINE
  5
38C
100
AcDbEntity
  8
0
  6
ByLayer
 62
    5
370
   -1
100
AcDbLine
 10
184.576
 20
-198.369
 11
184.465
 21
-198.606
  0
LINE
  5
38D
100
AcDbEntity
  8
0
  6
ByLayer
 62
    5
370
   -1
100
AcDbLine
 10
184.465
 20
-198.606
 11
184.315
 21
-198.82
  0
LINE
  5
38E
100
AcDbEntity
  8
0
  6
ByLayer
 62
    5
370
   -1
100
AcDbLine
 10
184.315
 20
-198.82
 11
184.13
 21
-199.005
  0
LINE
  5
38F
100
AcDbEntity
  8
0
  6
ByLayer
 62
    5
370
   -1
100
AcDbLine
 10
184.13
 20
-199.005
 11
183.916
 21
-199.155
  0
LINE
  5
390
100
AcDbEntity
  8
0
  6
ByLayer
 62
    5
370
   -1
100
AcDbLine
 10
183.916
 20
-199.155
 11
183.679
 21
-199.266
  0
LINE
  5
391
100
AcDbEntity
  8
0
  6
ByLayer
 62
    5
370
   -1
100
AcDbLine
 10
183.679
 20
-199.266
 11
183.427
 21
-199.333
  0
LINE
  5
392
100
AcDbEntity
  8
0
  6
ByLayer
 62
    5
370
   -1
100
AcDbLine
 10
183.427
 20
-199.333
 11
183.166
 21
-199.356
  0
LINE
  5
393
100
AcDbEntity
  8
0
  6
ByLayer
 62
    5
370
   -1
100
AcDbLine
 10
183.166
 20
-199.356
 11
182.906
 21
-199.333
  0
LINE
  5
394
100
AcDbEntity
  8
0
  6
ByLayer
 62
    5
370
   -1
100
AcDbLine
 10
162.361
 20
-199.333
 11
162.108
 21
-199.266
  0
LINE
  5
395
100
AcDbEntity
  8
0
  6
ByLayer
 62
    5
370
   -1
100
AcDbLine
 10
162.108
 20
-199.266
 11
161.871
 21
-199.155
  0
LINE
  5
396
100
AcDbEntity
  8
0
  6
ByLayer
 62
    5
370
   -1
100
AcDbLine
 10
161.871
 20
-199.155
 11
161.657
 21
-199.005
  0
LINE
  5
397
100
AcDbEntity
  8
0
  6
ByLayer
 62
    5
370
   -1
100
AcDbLine
 10
161.657
 20
-199.005
 11
161.472
 21
-198.82
  0
LINE
  5
398
100
AcDbEntity
  8
0
  6
ByLayer
 62
    5
370
   -1
100
AcDbLine
 10
161.472
 20
-198.82
 11
161.322
 21
-198.606
  0
LINE
  5
399
100
AcDbEntity
  8
0
  6
ByLayer
 62
    5
370
   -1
100
AcDbLine
 10
161.322
 20
-198.606
 11
161.212
 21
-198.369
  0
LINE
  5
39A
100
AcDbEntity
  8
0
  6
ByLayer
 62
    5
370
   -1
100
AcDbLine
 10
161.212
 20
-198.369
 11
161.144
 21
-198.117
  0
LINE
  5
39B
100
AcDbEntity
  8
0
  6
ByLayer
 62
    5
370
   -1
100
AcDbLine
 10
161.144
 20
-198.117
 11
161.121
 21
-197.856
  0
LINE
  5
39C
100
AcDbEntity
  8
0
  6
ByLayer
 62
    5
370
   -1
100
AcDbLine
 10
161.121
 20
-197.856
 11
161.144
 21
-197.596
  0
LINE
  5
39D
100
AcDbEntity
  8
0
  6
ByLayer
 62
    5
370
   -1
100
AcDbLine
 10
161.144
 20
-197.596
 11
161.212
 21
-197.343
  0
LINE
  5
39E
100
AcDbEntity
  8
0
  6
ByLayer
 62
    5
370
   -1
100
AcDbLine
 10
161.212
 20
-197.343
 11
161.322
 21
-197.106
  0
LINE
  5
39F
100
AcDbEntity
  8
0
  6
ByLayer
 62
    5
370
   -1
100
AcDbLine
 10
161.322
 20
-197.106
 11
161.472
 21
-196.892
  0
LINE
  5
3A0
100
AcDbEntity
  8
0
  6
ByLayer
 62
    5
370
   -1
100
AcDbLine
 10
161.472
 20
-196.892
 11
161.657
 21
-196.707
  0
LINE
  5
3A1
100
AcDbEntity
  8
0
  6
ByLayer
 62
    5
370
   -1
100
AcDbLine
 10
161.657
 20
-196.707
 11
161.871
 21
-196.557
  0
LINE
  5
3A2
100
AcDbEntity
  8
0
  6
ByLayer
 62
    5
370
   -1
100
AcDbLine
 10
161.871
 20
-196.557
 11
162.108
 21
-196.447
  0
LINE
  5
3A3
100
AcDbEntity
  8
0
  6
ByLayer
 62
    5
370
   -1
100
AcDbLine
 10
162.108
 20
-196.447
 11
162.361
 21
-196.379
  0
LINE
  5
3A4
100
AcDbEntity
  8
0
  6
ByLayer
 62
    5
370
   -1
100
AcDbLine
 10
162.361
 20
-196.379
 11
162.621
 21
-196.356
  0
LINE
  5
3A5
100
AcDbEntity
  8
0
  6
ByLayer
 62
    5
370
   -1
100
AcDbLine
 10
162.621
 20
-196.356
 11
162.882
 21
-196.379
  0
LINE
  5
3A6
100
AcDbEntity
  8
0
  6
ByLayer
 62
    5
370
   -1
100
AcDbLine
 10
162.882
 20
-196.379
 11
163.134
 21
-196.447
  0
LINE
  5
3A7
100
AcDbEntity
  8
0
  6
ByLayer
 62
    5
370
   -1
100
AcDbLine
 10
163.134
 20
-196.447
 11
163.371
 21
-196.557
  0
LINE
  5
3A8
100
AcDbEntity
  8
0
  6
ByLayer
 62
    5
370
   -1
100
AcDbLine
 10
163.371
 20
-196.557
 11
163.585
 21
-196.707
  0
LINE
  5
3A9
100
AcDbEntity
  8
0
  6
ByLayer
 62
    5
370
   -1
100
AcDbLine
 10
163.585
 20
-196.707
 11
163.77
 21
-196.892
  0
LINE
  5
3AA
100
AcDbEntity
  8
0
  6
ByLayer
 62
    5
370
   -1
100
AcDbLine
 10
163.77
 20
-196.892
 11
163.92
 21
-197.106
  0
LINE
  5
3AB
100
AcDbEntity
  8
0
  6
ByLayer
 62
    5
370
   -1
100
AcDbLine
 10
163.92
 20
-197.106
 11
164.031
 21
-197.343
  0
LINE
  5
3AC
100
AcDbEntity
  8
0
  6
ByLayer
 62
    5
370
   -1
100
AcDbLine
 10
164.031
 20
-197.343
 11
164.098
 21
-197.596
  0
LINE
  5
3AD
100
AcDbEntity
  8
0
  6
ByLayer
 62
    5
370
   -1
100
AcDbLine
 10
164.098
 20
-197.596
 11
164.121
 21
-197.856
  0
LINE
  5
3AE
100
AcDbEntity
  8
0
  6
ByLayer
 62
    5
370
   -1
100
AcDbLine
 10
164.121
 20
-197.856
 11
164.098
 21
-198.117
  0
LINE
  5
3AF
100
AcDbEntity
  8
0
  6
ByLayer
 62
    5
370
   -1
100
AcDbLine
 10
164.098
 20
-198.117
 11
164.031
 21
-198.369
  0
LINE
  5
3B0
100
AcDbEntity
  8
0
  6
ByLayer
 62
    5
370
   -1
100
AcDbLine
 10
164.031
 20
-198.369
 11
163.92
 21
-198.606
  0
LINE
  5
3B1
100
AcDbEntity
  8
0
  6
ByLayer
 62
    5
370
   -1
100
AcDbLine
 10
163.92
 20
-198.606
 11
163.77
 21
-198.82
  0
LINE
  5
3B2
100
AcDbEntity
  8
0
  6
ByLayer
 62
    5
370
   -1
100
AcDbLine
 10
163.77
 20
-198.82
 11
163.585
 21
-199.005
  0
LINE
  5
3B3
100
AcDbEntity
  8
0
  6
ByLayer
 62
    5
370
   -1
100
AcDbLine
 10
163.585
 20
-199.005
 11
163.371
 21
-199.155
  0
LINE
  5
3B4
100
AcDbEntity
  8
0
  6
ByLayer
 62
    5
370
   -1
100
AcDbLine
 10
163.371
 20
-199.155
 11
163.134
 21
-199.266
  0
LINE
  5
3B5
100
AcDbEntity
  8
0
  6
ByLayer
 62
    5
370
   -1
100
AcDbLine
 10
163.134
 20
-199.266
 11
162.882
 21
-199.333
  0
LINE
  5
3B6
100
AcDbEntity
  8
0
  6
ByLayer
 62
    5
370
   -1
100
AcDbLine
 10
162.882
 20
-199.333
 11
162.621
 21
-199.356
  0
LINE
  5
3B7
100
AcDbEntity
  8
0
  6
ByLayer
 62
    5
370
   -1
100
AcDbLine
 10
162.621
 20
-199.356
 11
162.361
 21
-199.333
  0
LINE
  5
3B8
100
AcDbEntity
  8
0
  6
ByLayer
 62
    5
370
   -1
100
AcDbLine
 10
140.574
 20
-280.644
 11
140.321
 21
-280.576
  0
LINE
  5
3B9
100
AcDbEntity
  8
0
  6
ByLayer
 62
    5
370
   -1
100
AcDbLine
 10
140.321
 20
-280.576
 11
140.084
 21
-280.466
  0
LINE
  5
3BA
100
AcDbEntity
  8
0
  6
ByLayer
 62
    5
370
   -1
100
AcDbLine
 10
140.084
 20
-280.466
 11
139.87
 21
-280.316
  0
LINE
  5
3BB
100
AcDbEntity
  8
0
  6
ByLayer
 62
    5
370
   -1
100
AcDbLine
 10
139.87
 20
-280.316
 11
139.685
 21
-280.131
  0
LINE
  5
3BC
100
AcDbEntity
  8
0
  6
ByLayer
 62
    5
370
   -1
100
AcDbLine
 10
139.685
 20
-280.131
 11
139.535
 21
-279.917
  0
LINE
  5
3BD
100
AcDbEntity
  8
0
  6
ByLayer
 62
    5
370
   -1
100
AcDbLine
 10
139.535
 20
-279.917
 11
139.424
 21
-279.68
  0
LINE
  5
3BE
100
AcDbEntity
  8
0
  6
ByLayer
 62
    5
370
   -1
100
AcDbLine
 10
139.424
 20
-279.68
 11
139.357
 21
-279.427
  0
LINE
  5
3BF
100
AcDbEntity
  8
0
  6
ByLayer
 62
    5
370
   -1
100
AcDbLine
 10
139.357
 20
-279.427
 11
139.334
 21
-279.167
  0
LINE
  5
3C0
100
AcDbEntity
  8
0
  6
ByLayer
 62
    5
370
   -1
100
AcDbLine
 10
139.334
 20
-279.167
 11
139.357
 21
-278.906
  0
LINE
  5
3C1
100
AcDbEntity
  8
0
  6
ByLayer
 62
    5
370
   -1
100
AcDbLine
 10
139.357
 20
-278.906
 11
139.424
 21
-278.654
  0
LINE
  5
3C2
100
AcDbEntity
  8
0
  6
ByLayer
 62
    5
370
   -1
100
AcDbLine
 10
139.424
 20
-278.654
 11
139.535
 21
-278.417
  0
LINE
  5
3C3
100
AcDbEntity
  8
0
  6
ByLayer
 62
    5
370
   -1
100
AcDbLine
 10
139.535
 20
-278.417
 11
139.685
 21
-278.203
  0
LINE
  5
3C4
100
AcDbEntity
  8
0
  6
ByLayer
 62
    5
370
   -1
100
AcDbLine
 10
139.685
 20
-278.203
 11
139.87
 21
-278.018
  0
LINE
  5
3C5
100
AcDbEntity
  8
0
  6
ByLayer
 62
    5
370
   -1
100
AcDbLine
 10
139.87
 20
-278.018
 11
140.084
 21
-277.868
  0
LINE
  5
3C6
100
AcDbEntity
  8
0
  6
ByLayer
 62
    5
370
   -1
100
AcDbLine
 10
140.084
 20
-277.868
 11
140.321
 21
-277.757
  0
LINE
  5
3C7
100
AcDbEntity
  8
0
  6
ByLayer
 62
    5
370
   -1
100
AcDbLine
 10
140.321
 20
-277.757
 11
140.574
 21
-277.689
  0
LINE
  5
3C8
100
AcDbEntity
  8
0
  6
ByLayer
 62
    5
370
   -1
100
AcDbLine
 10
140.574
 20
-277.689
 11
140.834
 21
-277.667
  0
LINE
  5
3C9
100
AcDbEntity
  8
0
  6
ByLayer
 62
    5
370
   -1
100
AcDbLine
 10
140.834
 20
-277.667
 11
141.094
 21
-277.689
  0
LINE
  5
3CA
100
AcDbEntity
  8
0
  6
ByLayer
 62
    5
370
   -1
100
AcDbLine
 10
141.094
 20
-277.689
 11
141.347
 21
-277.757
  0
LINE
  5
3CB
100
AcDbEntity
  8
0
  6
ByLayer
 62
    5
370
   -1
100
AcDbLine
 10
141.347
 20
-277.757
 11
141.584
 21
-277.868
  0
LINE
  5
3CC
100
AcDbEntity
  8
0
  6
ByLayer
 62
    5
370
   -1
100
AcDbLine
 10
141.584
 20
-277.868
 11
141.798
 21
-278.018
  0
LINE
  5
3CD
100
AcDbEntity
  8
0
  6
ByLayer
 62
    5
370
   -1
100
AcDbLine
 10
141.798
 20
-278.018
 11
141.983
 21
-278.203
  0
LINE
  5
3CE
100
AcDbEntity
  8
0
  6
ByLayer
 62
    5
370
   -1
100
AcDbLine
 10
141.983
 20
-278.203
 11
142.133
 21
-278.417
  0
LINE
  5
3CF
100
AcDbEntity
  8
0
  6
ByLayer
 62
    5
370
   -1
100
AcDbLine
 10
142.133
 20
-278.417
 11
142.244
 21
-278.654
  0
LINE
  5
3D0
100
AcDbEntity
  8
0
  6
ByLayer
 62
    5
370
   -1
100
AcDbLine
 10
142.244
 20
-278.654
 11
142.311
 21
-278.906
  0
LINE
  5
3D1
100
AcDbEntity
  8
0
  6
ByLayer
 62
    5
370
   -1
100
AcDbLine
 10
142.311
 20
-278.906
 11
142.334
 21
-279.167
  0
LINE
  5
3D2
100
AcDbEntity
  8
0
  6
ByLayer
 62
    5
370
   -1
100
AcDbLine
 10
142.334
 20
-279.167
 11
142.311
 21
-279.427
  0
LINE
  5
3D3
100
AcDbEntity
  8
0
  6
ByLayer
 62
    5
370
   -1
100
AcDbLine
 10
142.311
 20
-279.427
 11
142.244
 21
-279.68
  0
LINE
  5
3D4
100
AcDbEntity
  8
0
  6
ByLayer
 62
    5
370
   -1
100
AcDbLine
 10
142.244
 20
-279.68
 11
142.133
 21
-279.917
  0
LINE
  5
3D5
100
AcDbEntity
  8
0
  6
ByLayer
 62
    5
370
   -1
100
AcDbLine
 10
142.133
 20
-279.917
 11
141.983
 21
-280.131
  0
LINE
  5
3D6
100
AcDbEntity
  8
0
  6
ByLayer
 62
    5
370
   -1
100
AcDbLine
 10
141.983
 20
-280.131
 11
141.798
 21
-280.316
  0
LINE
  5
3D7
100
AcDbEntity
  8
0
  6
ByLayer
 62
    5
370
   -1
100
AcDbLine
 10
141.798
 20
-280.316
 11
141.584
 21
-280.466
  0
LINE
  5
3D8
100
AcDbEntity
  8
0
  6
ByLayer
 62
    5
370
   -1
100
AcDbLine
 10
141.584
 20
-280.466
 11
141.347
 21
-280.576
  0
LINE
  5
3D9
100
AcDbEntity
  8
0
  6
ByLayer
 62
    5
370
   -1
100
AcDbLine
 10
141.347
 20
-280.576
 11
141.094
 21
-280.644
  0
LINE
  5
3DA
100
AcDbEntity
  8
0
  6
ByLayer
 62
    5
370
   -1
100
AcDbLine
 10
141.094
 20
-280.644
 11
140.834
 21
-280.667
  0
LINE
  5
3DB
100
AcDbEntity
  8
0
  6
ByLayer
 62
    5
370
   -1
100
AcDbLine
 10
140.834
 20
-280.667
 11
140.574
 21
-280.644
  0
LINE
  5
3DC
100
AcDbEntity
  8
0
  6
ByLayer
 62
    5
370
   -1
100
AcDbLine
 10
-141.094
 20
-280.644
 11
-141.347
 21
-280.576
  0
LINE
  5
3DD
100
AcDbEntity
  8
0
  6
ByLayer
 62
    5
370
   -1
100
AcDbLine
 10
-141.347
 20
-280.576
 11
-141.584
 21
-280.466
  0
LINE
  5
3DE
100
AcDbEntity
  8
0
  6
ByLayer
 62
    5
370
   -1
100
AcDbLine
 10
-141.584
 20
-280.466
 11
-141.798
 21
-280.316
  0
LINE
  5
3DF
100
AcDbEntity
  8
0
  6
ByLayer
 62
    5
370
   -1
100
AcDbLine
 10
-141.798
 20
-280.316
 11
-141.983
 21
-280.131
  0
LINE
  5
3E0
100
AcDbEntity
  8
0
  6
ByLayer
 62
    5
370
   -1
100
AcDbLine
 10
-141.983
 20
-280.131
 11
-142.133
 21
-279.917
  0
LINE
  5
3E1
100
AcDbEntity
  8
0
  6
ByLayer
 62
    5
370
   -1
100
AcDbLine
 10
-142.133
 20
-279.917
 11
-142.244
 21
-279.68
  0
LINE
  5
3E2
100
AcDbEntity
  8
0
  6
ByLayer
 62
    5
370
   -1
100
AcDbLine
 10
-142.244
 20
-279.68
 11
-142.311
 21
-279.427
  0
LINE
  5
3E3
100
AcDbEntity
  8
0
  6
ByLayer
 62
    5
370
   -1
100
AcDbLine
 10
-142.311
 20
-279.427
 11
-142.334
 21
-279.167
  0
LINE
  5
3E4
100
AcDbEntity
  8
0
  6
ByLayer
 62
    5
370
   -1
100
AcDbLine
 10
-142.334
 20
-279.167
 11
-142.311
 21
-278.906
  0
LINE
  5
3E5
100
AcDbEntity
  8
0
  6
ByLayer
 62
    5
370
   -1
100
AcDbLine
 10
-142.311
 20
-278.906
 11
-142.244
 21
-278.654
  0
LINE
  5
3E6
100
AcDbEntity
  8
0
  6
ByLayer
 62
    5
370
   -1
100
AcDbLine
 10
-142.244
 20
-278.654
 11
-142.133
 21
-278.417
  0
LINE
  5
3E7
100
AcDbEntity
  8
0
  6
ByLayer
 62
    5
370
   -1
100
AcDbLine
 10
-142.133
 20
-278.417
 11
-141.983
 21
-278.203
  0
LINE
  5
3E8
100
AcDbEntity
  8
0
  6
ByLayer
 62
    5
370
   -1
100
AcDbLine
 10
-141.983
 20
-278.203
 11
-141.798
 21
-278.018
  0
LINE
  5
3E9
100
AcDbEntity
  8
0
  6
ByLayer
 62
    5
370
   -1
100
AcDbLine
 10
-141.798
 20
-278.018
 11
-141.584
 21
-277.868
  0
LINE
  5
3EA
100
AcDbEntity
  8
0
  6
ByLayer
 62
    5
370
   -1
100
AcDbLine
 10
-141.584
 20
-277.868
 11
-141.347
 21
-277.757
  0
LINE
  5
3EB
100
AcDbEntity
  8
0
  6
ByLayer
 62
    5
370
   -1
100
AcDbLine
 10
-141.347
 20
-277.757
 11
-141.094
 21
-277.689
  0
LINE
  5
3EC
100
AcDbEntity
  8
0
  6
ByLayer
 62
    5
370
   -1
100
AcDbLine
 10
-141.094
 20
-277.689
 11
-140.834
 21
-277.667
  0
LINE
  5
3ED
100
AcDbEntity
  8
0
  6
ByLayer
 62
    5
370
   -1
100
AcDbLine
 10
-140.834
 20
-277.667
 11
-140.574
 21
-277.689
  0
LINE
  5
3EE
100
AcDbEntity
  8
0
  6
ByLayer
 62
    5
370
   -1
100
AcDbLine
 10
-140.574
 20
-277.689
 11
-140.321
 21
-277.757
  0
LINE
  5
3EF
100
AcDbEntity
  8
0
  6
ByLayer
 62
    5
370
   -1
100
AcDbLine
 10
-140.321
 20
-277.757
 11
-140.084
 21
-277.868
  0
LINE
  5
3F0
100
AcDbEntity
  8
0
  6
ByLayer
 62
    5
370
   -1
100
AcDbLine
 10
-140.084
 20
-277.868
 11
-139.87
 21
-278.018
  0
LINE
  5
3F1
100
AcDbEntity
  8
0
  6
ByLayer
 62
    5
370
   -1
100
AcDbLine
 10
-139.87
 20
-278.018
 11
-139.685
 21
-278.203
  0
LINE
  5
3F2
100
AcDbEntity
  8
0
  6
ByLayer
 62
    5
370
   -1
100
AcDbLine
 10
-139.685
 20
-278.203
 11
-139.535
 21
-278.417
  0
LINE
  5
3F3
100
AcDbEntity
  8
0
  6
ByLayer
 62
    5
370
   -1
100
AcDbLine
 10
-139.535
 20
-278.417
 11
-139.424
 21
-278.654
  0
LINE
  5
3F4
100
AcDbEntity
  8
0
  6
ByLayer
 62
    5
370
   -1
100
AcDbLine
 10
-139.424
 20
-278.654
 11
-139.357
 21
-278.906
  0
LINE
  5
3F5
100
AcDbEntity
  8
0
  6
ByLayer
 62
    5
370
   -1
100
AcDbLine
 10
-139.357
 20
-278.906
 11
-139.334
 21
-279.167
  0
LINE
  5
3F6
100
AcDbEntity
  8
0
  6
ByLayer
 62
    5
370
   -1
100
AcDbLine
 10
-139.334
 20
-279.167
 11
-139.357
 21
-279.427
  0
LINE
  5
3F7
100
AcDbEntity
  8
0
  6
ByLayer
 62
    5
370
   -1
100
AcDbLine
 10
-139.357
 20
-279.427
 11
-139.424
 21
-279.68
  0
LINE
  5
3F8
100
AcDbEntity
  8
0
  6
ByLayer
 62
    5
370
   -1
100
AcDbLine
 10
-139.424
 20
-279.68
 11
-139.535
 21
-279.917
  0
LINE
  5
3F9
100
AcDbEntity
  8
0
  6
ByLayer
 62
    5
370
   -1
100
AcDbLine
 10
-139.535
 20
-279.917
 11
-139.685
 21
-280.131
  0
LINE
  5
3FA
100
AcDbEntity
  8
0
  6
ByLayer
 62
    5
370
   -1
100
AcDbLine
 10
-139.685
 20
-280.131
 11
-139.87
 21
-280.316
  0
LINE
  5
3FB
100
AcDbEntity
  8
0
  6
ByLayer
 62
    5
370
   -1
100
AcDbLine
 10
-139.87
 20
-280.316
 11
-140.084
 21
-280.466
  0
LINE
  5
3FC
100
AcDbEntity
  8
0
  6
ByLayer
 62
    5
370
   -1
100
AcDbLine
 10
-140.084
 20
-280.466
 11
-140.321
 21
-280.576
  0
LINE
  5
3FD
100
AcDbEntity
  8
0
  6
ByLayer
 62
    5
370
   -1
100
AcDbLine
 10
-140.321
 20
-280.576
 11
-140.574
 21
-280.644
  0
LINE
  5
3FE
100
AcDbEntity
  8
0
  6
ByLayer
 62
    5
370
   -1
100
AcDbLine
 10
-140.574
 20
-280.644
 11
-140.834
 21
-280.667
  0
LINE
  5
3FF
100
AcDbEntity
  8
0
  6
ByLayer
 62
    5
370
   -1
100
AcDbLine
 10
-140.834
 20
-280.667
 11
-141.094
 21
-280.644
  0
LINE
  5
400
100
AcDbEntity
  8
0
  6
ByLayer
 62
    5
370
   -1
100
AcDbLine
 10
-158.887
 20
-290.916
 11
-159.14
 21
-290.849
  0
LINE
  5
401
100
AcDbEntity
  8
0
  6
ByLayer
 62
    5
370
   -1
100
AcDbLine
 10
-159.14
 20
-290.849
 11
-159.377
 21
-290.738
  0
LINE
  5
402
100
AcDbEntity
  8
0
  6
ByLayer
 62
    5
370
   -1
100
AcDbLine
 10
-159.377
 20
-290.738
 11
-159.591
 21
-290.588
  0
LINE
  5
403
100
AcDbEntity
  8
0
  6
ByLayer
 62
    5
370
   -1
100
AcDbLine
 10
-159.591
 20
-290.588
 11
-159.776
 21
-290.403
  0
LINE
  5
404
100
AcDbEntity
  8
0
  6
ByLayer
 62
    5
370
   -1
100
AcDbLine
 10
-159.776
 20
-290.403
 11
-159.926
 21
-290.189
  0
LINE
  5
405
100
AcDbEntity
  8
0
  6
ByLayer
 62
    5
370
   -1
100
AcDbLine
 10
-159.926
 20
-290.189
 11
-160.036
 21
-289.952
  0
LINE
  5
406
100
AcDbEntity
  8
0
  6
ByLayer
 62
    5
370
   -1
100
AcDbLine
 10
-160.036
 20
-289.952
 11
-160.104
 21
-289.7
  0
LINE
  5
407
100
AcDbEntity
  8
0
  6
ByLayer
 62
    5
370
   -1
100
AcDbLine
 10
-160.104
 20
-289.7
 11
-160.127
 21
-289.439
  0
LINE
  5
408
100
AcDbEntity
  8
0
  6
ByLayer
 62
    5
370
   -1
100
AcDbLine
 10
-160.127
 20
-289.439
 11
-160.104
 21
-289.179
  0
LINE
  5
409
100
AcDbEntity
  8
0
  6
ByLayer
 62
    5
370
   -1
100
AcDbLine
 10
-160.104
 20
-289.179
 11
-160.036
 21
-288.926
  0
LINE
  5
40A
100
AcDbEntity
  8
0
  6
ByLayer
 62
    5
370
   -1
100
AcDbLine
 10
-160.036
 20
-288.926
 11
-159.926
 21
-288.689
  0
LINE
  5
40B
100
AcDbEntity
  8
0
  6
ByLayer
 62
    5
370
   -1
100
AcDbLine
 10
-159.926
 20
-288.689
 11
-159.776
 21
-288.475
  0
LINE
  5
40C
100
AcDbEntity
  8
0
  6
ByLayer
 62
    5
370
   -1
100
AcDbLine
 10
-159.776
 20
-288.475
 11
-159.591
 21
-288.29
  0
LINE
  5
40D
100
AcDbEntity
  8
0
  6
ByLayer
 62
    5
370
   -1
100
AcDbLine
 10
-159.591
 20
-288.29
 11
-159.377
 21
-288.14
  0
LINE
  5
40E
100
AcDbEntity
  8
0
  6
ByLayer
 62
    5
370
   -1
100
AcDbLine
 10
-159.377
 20
-288.14
 11
-159.14
 21
-288.03
  0
LINE
  5
40F
100
AcDbEntity
  8
0
  6
ByLayer
 62
    5
370
   -1
100
AcDbLine
 10
-159.14
 20
-288.03
 11
-158.887
 21
-287.962
  0
LINE
  5
410
100
AcDbEntity
  8
0
  6
ByLayer
 62
    5
370
   -1
100
AcDbLine
 10
-158.887
 20
-287.962
 11
-158.627
 21
-287.939
  0
LINE
  5
411
100
AcDbEntity
  8
0
  6
ByLayer
 62
    5
370
   -1
100
AcDbLine
 10
-158.627
 20
-287.939
 11
-158.366
 21
-287.962
  0
LINE
  5
412
100
AcDbEntity
  8
0
  6
ByLayer
 62
    5
370
   -1
100
AcDbLine
 10
-158.366
 20
-287.962
 11
-158.113
 21
-288.03
  0
LINE
  5
413
100
AcDbEntity
  8
0
  6
ByLayer
 62
    5
370
   -1
100
AcDbLine
 10
-158.113
 20
-288.03
 11
-157.877
 21
-288.14
  0
LINE
  5
414
100
AcDbEntity
  8
0
  6
ByLayer
 62
    5
370
   -1
100
AcDbLine
 10
-157.877
 20
-288.14
 11
-157.662
 21
-288.29
  0
LINE
  5
415
100
AcDbEntity
  8
0
  6
ByLayer
 62
    5
370
   -1
100
AcDbLine
 10
-157.662
 20
-288.29
 11
-157.477
 21
-288.475
  0
LINE
  5
416
100
AcDbEntity
  8
0
  6
ByLayer
 62
    5
370
   -1
100
AcDbLine
 10
-157.477
 20
-288.475
 11
-157.327
 21
-288.689
  0
LINE
  5
417
100
AcDbEntity
  8
0
  6
ByLayer
 62
    5
370
   -1
100
AcDbLine
 10
-157.327
 20
-288.689
 11
-157.217
 21
-288.926
  0
LINE
  5
418
100
AcDbEntity
  8
0
  6
ByLayer
 62
    5
370
   -1
100
AcDbLine
 10
-157.217
 20
-288.926
 11
-157.149
 21
-289.179
  0
LINE
  5
419
100
AcDbEntity
  8
0
  6
ByLayer
 62
    5
370
   -1
100
AcDbLine
 10
-157.149
 20
-289.179
 11
-157.127
 21
-289.439
  0
LINE
  5
41A
100
AcDbEntity
  8
0
  6
ByLayer
 62
    5
370
   -1
100
AcDbLine
 10
-157.127
 20
-289.439
 11
-157.149
 21
-289.7
  0
LINE
  5
41B
100
AcDbEntity
  8
0
  6
ByLayer
 62
    5
370
   -1
100
AcDbLine
 10
-157.149
 20
-289.7
 11
-157.217
 21
-289.952
  0
LINE
  5
41C
100
AcDbEntity
  8
0
  6
ByLayer
 62
    5
370
   -1
100
AcDbLine
 10
-157.217
 20
-289.952
 11
-157.327
 21
-290.189
  0
LINE
  5
41D
100
AcDbEntity
  8
0
  6
ByLayer
 62
    5
370
   -1
100
AcDbLine
 10
-157.327
 20
-290.189
 11
-157.477
 21
-290.403
  0
LINE
  5
41E
100
AcDbEntity
  8
0
  6
ByLayer
 62
    5
370
   -1
100
AcDbLine
 10
-157.477
 20
-290.403
 11
-157.662
 21
-290.588
  0
LINE
  5
41F
100
AcDbEntity
  8
0
  6
ByLayer
 62
    5
370
   -1
100
AcDbLine
 10
-157.662
 20
-290.588
 11
-157.877
 21
-290.738
  0
LINE
  5
420
100
AcDbEntity
  8
0
  6
ByLayer
 62
    5
370
   -1
100
AcDbLine
 10
-157.877
 20
-290.738
 11
-158.113
 21
-290.849
  0
LINE
  5
421
100
AcDbEntity
  8
0
  6
ByLayer
 62
    5
370
   -1
100
AcDbLine
 10
-158.113
 20
-290.849
 11
-158.366
 21
-290.916
  0
LINE
  5
422
100
AcDbEntity
  8
0
  6
ByLayer
 62
    5
370
   -1
100
AcDbLine
 10
-158.366
 20
-290.916
 11
-158.627
 21
-290.939
  0
LINE
  5
423
100
AcDbEntity
  8
0
  6
ByLayer
 62
    5
370
   -1
100
AcDbLine
 10
-158.627
 20
-290.939
 11
-158.887
 21
-290.916
  0
LINE
  5
424
100
AcDbEntity
  8
0
  6
ByLayer
 62
    5
370
   -1
100
AcDbLine
 10
158.366
 20
-290.916
 11
158.113
 21
-290.849
  0
LINE
  5
425
100
AcDbEntity
  8
0
  6
ByLayer
 62
    5
370
   -1
100
AcDbLine
 10
158.113
 20
-290.849
 11
157.877
 21
-290.738
  0
LINE
  5
426
100
AcDbEntity
  8
0
  6
ByLayer
 62
    5
370
   -1
100
AcDbLine
 10
157.877
 20
-290.738
 11
157.662
 21
-290.588
  0
LINE
  5
427
100
AcDbEntity
  8
0
  6
ByLayer
 62
    5
370
   -1
100
AcDbLine
 10
157.662
 20
-290.588
 11
157.477
 21
-290.403
  0
LINE
  5
428
100
AcDbEntity
  8
0
  6
ByLayer
 62
    5
370
   -1
100
AcDbLine
 10
157.477
 20
-290.403
 11
157.327
 21
-290.189
  0
LINE
  5
429
100
AcDbEntity
  8
0
  6
ByLayer
 62
    5
370
   -1
100
AcDbLine
 10
157.327
 20
-290.189
 11
157.217
 21
-289.952
  0
LINE
  5
42A
100
AcDbEntity
  8
0
  6
ByLayer
 62
    5
370
   -1
100
AcDbLine
 10
157.217
 20
-289.952
 11
157.149
 21
-289.7
  0
LINE
  5
42B
100
AcDbEntity
  8
0
  6
ByLayer
 62
    5
370
   -1
100
AcDbLine
 10
157.149
 20
-289.7
 11
157.127
 21
-289.439
  0
LINE
  5
42C
100
AcDbEntity
  8
0
  6
ByLayer
 62
    5
370
   -1
100
AcDbLine
 10
157.127
 20
-289.439
 11
157.149
 21
-289.179
  0
LINE
  5
42D
100
AcDbEntity
  8
0
  6
ByLayer
 62
    5
370
   -1
100
AcDbLine
 10
157.149
 20
-289.179
 11
157.217
 21
-288.926
  0
LINE
  5
42E
100
AcDbEntity
  8
0
  6
ByLayer
 62
    5
370
   -1
100
AcDbLine
 10
157.217
 20
-288.926
 11
157.327
 21
-288.689
  0
LINE
  5
42F
100
AcDbEntity
  8
0
  6
ByLayer
 62
    5
370
   -1
100
AcDbLine
 10
157.327
 20
-288.689
 11
157.477
 21
-288.475
  0
LINE
  5
430
100
AcDbEntity
  8
0
  6
ByLayer
 62
    5
370
   -1
100
AcDbLine
 10
157.477
 20
-288.475
 11
157.662
 21
-288.29
  0
LINE
  5
431
100
AcDbEntity
  8
0
  6
ByLayer
 62
    5
370
   -1
100
AcDbLine
 10
157.662
 20
-288.29
 11
157.877
 21
-288.14
  0
LINE
  5
432
100
AcDbEntity
  8
0
  6
ByLayer
 62
    5
370
   -1
100
AcDbLine
 10
157.877
 20
-288.14
 11
158.113
 21
-288.03
  0
LINE
  5
433
100
AcDbEntity
  8
0
  6
ByLayer
 62
    5
370
   -1
100
AcDbLine
 10
158.113
 20
-288.03
 11
158.366
 21
-287.962
  0
LINE
  5
434
100
AcDbEntity
  8
0
  6
ByLayer
 62
    5
370
   -1
100
AcDbLine
 10
158.366
 20
-287.962
 11
158.627
 21
-287.939
  0
LINE
  5
435
100
AcDbEntity
  8
0
  6
ByLayer
 62
    5
370
   -1
100
AcDbLine
 10
158.627
 20
-287.939
 11
158.887
 21
-287.962
  0
LINE
  5
436
100
AcDbEntity
  8
0
  6
ByLayer
 62
    5
370
   -1
100
AcDbLine
 10
158.887
 20
-287.962
 11
159.14
 21
-288.03
  0
LINE
  5
437
100
AcDbEntity
  8
0
  6
ByLayer
 62
    5
370
   -1
100
AcDbLine
 10
159.14
 20
-288.03
 11
159.377
 21
-288.14
  0
LINE
  5
438
100
AcDbEntity
  8
0
  6
ByLayer
 62
    5
370
   -1
100
AcDbLine
 10
159.377
 20
-288.14
 11
159.591
 21
-288.29
  0
LINE
  5
439
100
AcDbEntity
  8
0
  6
ByLayer
 62
    5
370
   -1
100
AcDbLine
 10
159.591
 20
-288.29
 11
159.776
 21
-288.475
  0
LINE
  5
43A
100
AcDbEntity
  8
0
  6
ByLayer
 62
    5
370
   -1
100
AcDbLine
 10
159.776
 20
-288.475
 11
159.926
 21
-288.689
  0
LINE
  5
43B
100
AcDbEntity
  8
0
  6
ByLayer
 62
    5
370
   -1
100
AcDbLine
 10
159.926
 20
-288.689
 11
160.036
 21
-288.926
  0
LINE
  5
43C
100
AcDbEntity
  8
0
  6
ByLayer
 62
    5
370
   -1
100
AcDbLine
 10
160.036
 20
-288.926
 11
160.104
 21
-289.179
  0
LINE
  5
43D
100
AcDbEntity
  8
0
  6
ByLayer
 62
    5
370
   -1
100
AcDbLine
 10
160.104
 20
-289.179
 11
160.127
 21
-289.439
  0
LINE
  5
43E
100
AcDbEntity
  8
0
  6
ByLayer
 62
    5
370
   -1
100
AcDbLine
 10
160.127
 20
-289.439
 11
160.104
 21
-289.7
  0
LINE
  5
43F
100
AcDbEntity
  8
0
  6
ByLayer
 62
    5
370
   -1
100
AcDbLine
 10
160.104
 20
-289.7
 11
160.036
 21
-289.952
  0
LINE
  5
440
100
AcDbEntity
  8
0
  6
ByLayer
 62
    5
370
   -1
100
AcDbLine
 10
160.036
 20
-289.952
 11
159.926
 21
-290.189
  0
LINE
  5
441
100
AcDbEntity
  8
0
  6
ByLayer
 62
    5
370
   -1
100
AcDbLine
 10
159.926
 20
-290.189
 11
159.776
 21
-290.403
  0
LINE
  5
442
100
AcDbEntity
  8
0
  6
ByLayer
 62
    5
370
   -1
100
AcDbLine
 10
159.776
 20
-290.403
 11
159.591
 21
-290.588
  0
LINE
  5
443
100
AcDbEntity
  8
0
  6
ByLayer
 62
    5
370
   -1
100
AcDbLine
 10
159.591
 20
-290.588
 11
159.377
 21
-290.738
  0
LINE
  5
444
100
AcDbEntity
  8
0
  6
ByLayer
 62
    5
370
   -1
100
AcDbLine
 10
159.377
 20
-290.738
 11
159.14
 21
-290.849
  0
LINE
  5
445
100
AcDbEntity
  8
0
  6
ByLayer
 62
    5
370
   -1
100
AcDbLine
 10
159.14
 20
-290.849
 11
158.887
 21
-290.916
  0
LINE
  5
446
100
AcDbEntity
  8
0
  6
ByLayer
 62
    5
370
   -1
100
AcDbLine
 10
158.887
 20
-290.916
 11
158.627
 21
-290.939
  0
LINE
  5
447
100
AcDbEntity
  8
0
  6
ByLayer
 62
    5
370
   -1
100
AcDbLine
 10
158.627
 20
-290.939
 11
158.366
 21
-290.916
  0
LINE
  5
448
100
AcDbEntity
  8
0
  6
ByLayer
 62
    5
370
   -1
100
AcDbLine
 10
-81.571
 20
-340.167
 11
-81.8236
 21
-340.1
  0
LINE
  5
449
100
AcDbEntity
  8
0
  6
ByLayer
 62
    5
370
   -1
100
AcDbLine
 10
-81.8236
 20
-340.1
 11
-82.06059999999999
 21
-339.989
  0
LINE
  5
44A
100
AcDbEntity
  8
0
  6
ByLayer
 62
    5
370
   -1
100
AcDbLine
 10
-82.06059999999999
 20
-339.989
 11
-82.2747
 21
-339.839
  0
LINE
  5
44B
100
AcDbEntity
  8
0
  6
ByLayer
 62
    5
370
   -1
100
AcDbLine
 10
-82.2747
 20
-339.839
 11
-82.45959999999999
 21
-339.654
  0
LINE
  5
44C
100
AcDbEntity
  8
0
  6
ByLayer
 62
    5
370
   -1
100
AcDbLine
 10
-82.45959999999999
 20
-339.654
 11
-82.6096
 21
-339.44
  0
LINE
  5
44D
100
AcDbEntity
  8
0
  6
ByLayer
 62
    5
370
   -1
100
AcDbLine
 10
-82.6096
 20
-339.44
 11
-82.7201
 21
-339.203
  0
LINE
  5
44E
100
AcDbEntity
  8
0
  6
ByLayer
 62
    5
370
   -1
100
AcDbLine
 10
-82.7201
 20
-339.203
 11
-82.7878
 21
-338.951
  0
LINE
  5
44F
100
AcDbEntity
  8
0
  6
ByLayer
 62
    5
370
   -1
100
AcDbLine
 10
-82.7878
 20
-338.951
 11
-82.81059999999999
 21
-338.69
  0
LINE
  5
450
100
AcDbEntity
  8
0
  6
ByLayer
 62
    5
370
   -1
100
AcDbLine
 10
-82.81059999999999
 20
-338.69
 11
-82.7878
 21
-338.43
  0
LINE
  5
451
100
AcDbEntity
  8
0
  6
ByLayer
 62
    5
370
   -1
100
AcDbLine
 10
-82.7878
 20
-338.43
 11
-82.7201
 21
-338.177
  0
LINE
  5
452
100
AcDbEntity
  8
0
  6
ByLayer
 62
    5
370
   -1
100
AcDbLine
 10
-82.7201
 20
-338.177
 11
-82.6096
 21
-337.94
  0
LINE
  5
453
100
AcDbEntity
  8
0
  6
ByLayer
 62
    5
370
   -1
100
AcDbLine
 10
-82.6096
 20
-337.94
 11
-82.45959999999999
 21
-337.726
  0
LINE
  5
454
100
AcDbEntity
  8
0
  6
ByLayer
 62
    5
370
   -1
100
AcDbLine
 10
-82.45959999999999
 20
-337.726
 11
-82.2747
 21
-337.541
  0
LINE
  5
455
100
AcDbEntity
  8
0
  6
ByLayer
 62
    5
370
   -1
100
AcDbLine
 10
-82.2747
 20
-337.541
 11
-82.06059999999999
 21
-337.391
  0
LINE
  5
456
100
AcDbEntity
  8
0
  6
ByLayer
 62
    5
370
   -1
100
AcDbLine
 10
-82.06059999999999
 20
-337.391
 11
-81.8236
 21
-337.281
  0
LINE
  5
457
100
AcDbEntity
  8
0
  6
ByLayer
 62
    5
370
   -1
100
AcDbLine
 10
-81.8236
 20
-337.281
 11
-81.571
 21
-337.213
  0
LINE
  5
458
100
AcDbEntity
  8
0
  6
ByLayer
 62
    5
370
   -1
100
AcDbLine
 10
-81.571
 20
-337.213
 11
-81.31059999999999
 21
-337.19
  0
LINE
  5
459
100
AcDbEntity
  8
0
  6
ByLayer
 62
    5
370
   -1
100
AcDbLine
 10
-81.31059999999999
 20
-337.19
 11
-81.0501
 21
-337.213
  0
LINE
  5
45A
100
AcDbEntity
  8
0
  6
ByLayer
 62
    5
370
   -1
100
AcDbLine
 10
-81.0501
 20
-337.213
 11
-80.7975
 21
-337.281
  0
LINE
  5
45B
100
AcDbEntity
  8
0
  6
ByLayer
 62
    5
370
   -1
100
AcDbLine
 10
-80.7975
 20
-337.281
 11
-80.56059999999999
 21
-337.391
  0
LINE
  5
45C
100
AcDbEntity
  8
0
  6
ByLayer
 62
    5
370
   -1
100
AcDbLine
 10
-80.56059999999999
 20
-337.391
 11
-80.3464
 21
-337.541
  0
LINE
  5
45D
100
AcDbEntity
  8
0
  6
ByLayer
 62
    5
370
   -1
100
AcDbLine
 10
-80.3464
 20
-337.541
 11
-80.1615
 21
-337.726
  0
LINE
  5
45E
100
AcDbEntity
  8
0
  6
ByLayer
 62
    5
370
   -1
100
AcDbLine
 10
-80.1615
 20
-337.726
 11
-80.0115
 21
-337.94
  0
LINE
  5
45F
100
AcDbEntity
  8
0
  6
ByLayer
 62
    5
370
   -1
100
AcDbLine
 10
-80.0115
 20
-337.94
 11
-79.901
 21
-338.177
  0
LINE
  5
460
100
AcDbEntity
  8
0
  6
ByLayer
 62
    5
370
   -1
100
AcDbLine
 10
-79.901
 20
-338.177
 11
-79.8334
 21
-338.43
  0
LINE
  5
461
100
AcDbEntity
  8
0
  6
ByLayer
 62
    5
370
   -1
100
AcDbLine
 10
-79.8334
 20
-338.43
 11
-79.81059999999999
 21
-338.69
  0
LINE
  5
462
100
AcDbEntity
  8
0
  6
ByLayer
 62
    5
370
   -1
100
AcDbLine
 10
-79.81059999999999
 20
-338.69
 11
-79.8334
 21
-338.951
  0
LINE
  5
463
100
AcDbEntity
  8
0
  6
ByLayer
 62
    5
370
   -1
100
AcDbLine
 10
-79.8334
 20
-338.951
 11
-79.901
 21
-339.203
  0
LINE
  5
464
100
AcDbEntity
  8
0
  6
ByLayer
 62
    5
370
   -1
100
AcDbLine
 10
-79.901
 20
-339.203
 11
-80.0115
 21
-339.44
  0
LINE
  5
465
100
AcDbEntity
  8
0
  6
ByLayer
 62
    5
370
   -1
100
AcDbLine
 10
-80.0115
 20
-339.44
 11
-80.1615
 21
-339.654
  0
LINE
  5
466
100
AcDbEntity
  8
0
  6
ByLayer
 62
    5
370
   -1
100
AcDbLine
 10
-80.1615
 20
-339.654
 11
-80.3464
 21
-339.839
  0
LINE
  5
467
100
AcDbEntity
  8
0
  6
ByLayer
 62
    5
370
   -1
100
AcDbLine
 10
-80.3464
 20
-339.839
 11
-80.56059999999999
 21
-339.989
  0
LINE
  5
468
100
AcDbEntity
  8
0
  6
ByLayer
 62
    5
370
   -1
100
AcDbLine
 10
-80.56059999999999
 20
-339.989
 11
-80.7975
 21
-340.1
  0
LINE
  5
469
100
AcDbEntity
  8
0
  6
ByLayer
 62
    5
370
   -1
100
AcDbLine
 10
-80.7975
 20
-340.1
 11
-81.0501
 21
-340.167
  0
LINE
  5
46A
100
AcDbEntity
  8
0
  6
ByLayer
 62
    5
370
   -1
100
AcDbLine
 10
-81.0501
 20
-340.167
 11
-81.31059999999999
 21
-340.19
  0
LINE
  5
46B
100
AcDbEntity
  8
0
  6
ByLayer
 62
    5
370
   -1
100
AcDbLine
 10
-81.31059999999999
 20
-340.19
 11
-81.571
 21
-340.167
  0
LINE
  5
46C
100
AcDbEntity
  8
0
  6
ByLayer
 62
    5
370
   -1
100
AcDbLine
 10
81.0501
 20
-340.167
 11
80.7975
 21
-340.1
  0
LINE
  5
46D
100
AcDbEntity
  8
0
  6
ByLayer
 62
    5
370
   -1
100
AcDbLine
 10
80.7975
 20
-340.1
 11
80.56059999999999
 21
-339.989
  0
LINE
  5
46E
100
AcDbEntity
  8
0
  6
ByLayer
 62
    5
370
   -1
100
AcDbLine
 10
80.56059999999999
 20
-339.989
 11
80.3464
 21
-339.839
  0
LINE
  5
46F
100
AcDbEntity
  8
0
  6
ByLayer
 62
    5
370
   -1
100
AcDbLine
 10
80.3464
 20
-339.839
 11
80.1615
 21
-339.654
  0
LINE
  5
470
100
AcDbEntity
  8
0
  6
ByLayer
 62
    5
370
   -1
100
AcDbLine
 10
80.1615
 20
-339.654
 11
80.0115
 21
-339.44
  0
LINE
  5
471
100
AcDbEntity
  8
0
  6
ByLayer
 62
    5
370
   -1
100
AcDbLine
 10
80.0115
 20
-339.44
 11
79.901
 21
-339.203
  0
LINE
  5
472
100
AcDbEntity
  8
0
  6
ByLayer
 62
    5
370
   -1
100
AcDbLine
 10
79.901
 20
-339.203
 11
79.8334
 21
-338.951
  0
LINE
  5
473
100
AcDbEntity
  8
0
  6
ByLayer
 62
    5
370
   -1
100
AcDbLine
 10
79.8334
 20
-338.951
 11
79.81059999999999
 21
-338.69
  0
LINE
  5
474
100
AcDbEntity
  8
0
  6
ByLayer
 62
    5
370
   -1
100
AcDbLine
 10
79.81059999999999
 20
-338.69
 11
79.8334
 21
-338.43
  0
LINE
  5
475
100
AcDbEntity
  8
0
  6
ByLayer
 62
    5
370
   -1
100
AcDbLine
 10
79.8334
 20
-338.43
 11
79.901
 21
-338.177
  0
LINE
  5
476
100
AcDbEntity
  8
0
  6
ByLayer
 62
    5
370
   -1
100
AcDbLine
 10
79.901
 20
-338.177
 11
80.0115
 21
-337.94
  0
LINE
  5
477
100
AcDbEntity
  8
0
  6
ByLayer
 62
    5
370
   -1
100
AcDbLine
 10
80.0115
 20
-337.94
 11
80.1615
 21
-337.726
  0
LINE
  5
478
100
AcDbEntity
  8
0
  6
ByLayer
 62
    5
370
   -1
100
AcDbLine
 10
80.1615
 20
-337.726
 11
80.3464
 21
-337.541
  0
LINE
  5
479
100
AcDbEntity
  8
0
  6
ByLayer
 62
    5
370
   -1
100
AcDbLine
 10
80.3464
 20
-337.541
 11
80.56059999999999
 21
-337.391
  0
LINE
  5
47A
100
AcDbEntity
  8
0
  6
ByLayer
 62
    5
370
   -1
100
AcDbLine
 10
80.56059999999999
 20
-337.391
 11
80.7975
 21
-337.281
  0
LINE
  5
47B
100
AcDbEntity
  8
0
  6
ByLayer
 62
    5
370
   -1
100
AcDbLine
 10
80.7975
 20
-337.281
 11
81.0501
 21
-337.213
  0
LINE
  5
47C
100
AcDbEntity
  8
0
  6
ByLayer
 62
    5
370
   -1
100
AcDbLine
 10
81.0501
 20
-337.213
 11
81.31059999999999
 21
-337.19
  0
LINE
  5
47D
100
AcDbEntity
  8
0
  6
ByLayer
 62
    5
370
   -1
100
AcDbLine
 10
81.31059999999999
 20
-337.19
 11
81.571
 21
-337.213
  0
LINE
  5
47E
100
AcDbEntity
  8
0
  6
ByLayer
 62
    5
370
   -1
100
AcDbLine
 10
81.571
 20
-337.213
 11
81.8236
 21
-337.281
  0
LINE
  5
47F
100
AcDbEntity
  8
0
  6
ByLayer
 62
    5
370
   -1
100
AcDbLine
 10
81.8236
 20
-337.281
 11
82.06059999999999
 21
-337.391
  0
LINE
  5
480
100
AcDbEntity
  8
0
  6
ByLayer
 62
    5
370
   -1
100
AcDbLine
 10
82.06059999999999
 20
-337.391
 11
82.2747
 21
-337.541
  0
LINE
  5
481
100
AcDbEntity
  8
0
  6
ByLayer
 62
    5
370
   -1
100
AcDbLine
 10
82.2747
 20
-337.541
 11
82.45959999999999
 21
-337.726
  0
LINE
  5
482
100
AcDbEntity
  8
0
  6
ByLayer
 62
    5
370
   -1
100
AcDbLine
 10
82.45959999999999
 20
-337.726
 11
82.6096
 21
-337.94
  0
LINE
  5
483
100
AcDbEntity
  8
0
  6
ByLayer
 62
    5
370
   -1
100
AcDbLine
 10
82.6096
 20
-337.94
 11
82.7201
 21
-338.177
  0
LINE
  5
484
100
AcDbEntity
  8
0
  6
ByLayer
 62
    5
370
   -1
100
AcDbLine
 10
82.7201
 20
-338.177
 11
82.7878
 21
-338.43
  0
LINE
  5
485
100
AcDbEntity
  8
0
  6
ByLayer
 62
    5
370
   -1
100
AcDbLine
 10
82.7878
 20
-338.43
 11
82.81059999999999
 21
-338.69
  0
LINE
  5
486
100
AcDbEntity
  8
0
  6
ByLayer
 62
    5
370
   -1
100
AcDbLine
 10
82.81059999999999
 20
-338.69
 11
82.7878
 21
-338.951
  0
LINE
  5
487
100
AcDbEntity
  8
0
  6
ByLayer
 62
    5
370
   -1
100
AcDbLine
 10
82.7878
 20
-338.951
 11
82.7201
 21
-339.203
  0
LINE
  5
488
100
AcDbEntity
  8
0
  6
ByLayer
 62
    5
370
   -1
100
AcDbLine
 10
82.7201
 20
-339.203
 11
82.6096
 21
-339.44
  0
LINE
  5
489
100
AcDbEntity
  8
0
  6
ByLayer
 62
    5
370
   -1
100
AcDbLine
 10
82.6096
 20
-339.44
 11
82.45959999999999
 21
-339.654
  0
LINE
  5
48A
100
AcDbEntity
  8
0
  6
ByLayer
 62
    5
370
   -1
100
AcDbLine
 10
82.45959999999999
 20
-339.654
 11
82.2747
 21
-339.839
  0
LINE
  5
48B
100
AcDbEntity
  8
0
  6
ByLayer
 62
    5
370
   -1
100
AcDbLine
 10
82.2747
 20
-339.839
 11
82.06059999999999
 21
-339.989
  0
LINE
  5
48C
100
AcDbEntity
  8
0
  6
ByLayer
 62
    5
370
   -1
100
AcDbLine
 10
82.06059999999999
 20
-339.989
 11
81.8236
 21
-340.1
  0
LINE
  5
48D
100
AcDbEntity
  8
0
  6
ByLayer
 62
    5
370
   -1
100
AcDbLine
 10
81.8236
 20
-340.1
 11
81.571
 21
-340.167
  0
LINE
  5
48E
100
AcDbEntity
  8
0
  6
ByLayer
 62
    5
370
   -1
100
AcDbLine
 10
81.571
 20
-340.167
 11
81.31059999999999
 21
-340.19
  0
LINE
  5
48F
100
AcDbEntity
  8
0
  6
ByLayer
 62
    5
370
   -1
100
AcDbLine
 10
81.31059999999999
 20
-340.19
 11
81.0501
 21
-340.167
  0
LINE
  5
490
100
AcDbEntity
  8
0
  6
ByLayer
 62
    5
370
   -1
100
AcDbLine
 10
-91.84350000000001
 20
-357.96
 11
-92.09610000000001
 21
-357.892
  0
LINE
  5
491
100
AcDbEntity
  8
0
  6
ByLayer
 62
    5
370
   -1
100
AcDbLine
 10
-92.09610000000001
 20
-357.892
 11
-92.3331
 21
-357.782
  0
LINE
  5
492
100
AcDbEntity
  8
0
  6
ByLayer
 62
    5
370
   -1
100
AcDbLine
 10
-92.3331
 20
-357.782
 11
-92.5472
 21
-357.632
  0
LINE
  5
493
100
AcDbEntity
  8
0
  6
ByLayer
 62
    5
370
   -1
100
AcDbLine
 10
-92.5472
 20
-357.632
 11
-92.7321
 21
-357.447
  0
LINE
  5
494
100
AcDbEntity
  8
0
  6
ByLayer
 62
    5
370
   -1
100
AcDbLine
 10
-92.7321
 20
-357.447
 11
-92.88209999999999
 21
-357.233
  0
LINE
  5
495
100
AcDbEntity
  8
0
  6
ByLayer
 62
    5
370
   -1
100
AcDbLine
 10
-92.88209999999999
 20
-357.233
 11
-92.9926
 21
-356.996
  0
LINE
  5
496
100
AcDbEntity
  8
0
  6
ByLayer
 62
    5
370
   -1
100
AcDbLine
 10
-92.9926
 20
-356.996
 11
-93.0603
 21
-356.743
  0
LINE
  5
497
100
AcDbEntity
  8
0
  6
ByLayer
 62
    5
370
   -1
100
AcDbLine
 10
-93.0603
 20
-356.743
 11
-93.0831
 21
-356.483
  0
LINE
  5
498
100
AcDbEntity
  8
0
  6
ByLayer
 62
    5
370
   -1
100
AcDbLine
 10
-93.0831
 20
-356.483
 11
-93.0603
 21
-356.222
  0
LINE
  5
499
100
AcDbEntity
  8
0
  6
ByLayer
 62
    5
370
   -1
100
AcDbLine
 10
-93.0603
 20
-356.222
 11
-92.9926
 21
-355.97
  0
LINE
  5
49A
100
AcDbEntity
  8
0
  6
ByLayer
 62
    5
370
   -1
100
AcDbLine
 10
-92.9926
 20
-355.97
 11
-92.88209999999999
 21
-355.733
  0
LINE
  5
49B
100
AcDbEntity
  8
0
  6
ByLayer
 62
    5
370
   -1
100
AcDbLine
 10
-92.88209999999999
 20
-355.733
 11
-92.7321
 21
-355.518
  0
LINE
  5
49C
100
AcDbEntity
  8
0
  6
ByLayer
 62
    5
370
   -1
100
AcDbLine
 10
-92.7321
 20
-355.518
 11
-92.5472
 21
-355.334
  0
LINE
  5
49D
100
AcDbEntity
  8
0
  6
ByLayer
 62
    5
370
   -1
100
AcDbLine
 10
-92.5472
 20
-355.334
 11
-92.3331
 21
-355.184
  0
LINE
  5
49E
100
AcDbEntity
  8
0
  6
ByLayer
 62
    5
370
   -1
100
AcDbLine
 10
-92.3331
 20
-355.184
 11
-92.09610000000001
 21
-355.073
  0
LINE
  5
49F
100
AcDbEntity
  8
0
  6
ByLayer
 62
    5
370
   -1
100
AcDbLine
 10
-92.09610000000001
 20
-355.073
 11
-91.84350000000001
 21
-355.005
  0
LINE
  5
4A0
100
AcDbEntity
  8
0
  6
ByLayer
 62
    5
370
   -1
100
AcDbLine
 10
-91.84350000000001
 20
-355.005
 11
-91.5831
 21
-354.983
  0
LINE
  5
4A1
100
AcDbEntity
  8
0
  6
ByLayer
 62
    5
370
   -1
100
AcDbLine
 10
-91.5831
 20
-354.983
 11
-91.32259999999999
 21
-355.005
  0
LINE
  5
4A2
100
AcDbEntity
  8
0
  6
ByLayer
 62
    5
370
   -1
100
AcDbLine
 10
-91.32259999999999
 20
-355.005
 11
-91.06999999999999
 21
-355.073
  0
LINE
  5
4A3
100
AcDbEntity
  8
0
  6
ByLayer
 62
    5
370
   -1
100
AcDbLine
 10
-91.06999999999999
 20
-355.073
 11
-90.8331
 21
-355.184
  0
LINE
  5
4A4
100
AcDbEntity
  8
0
  6
ByLayer
 62
    5
370
   -1
100
AcDbLine
 10
-90.8331
 20
-355.184
 11
-90.6189
 21
-355.334
  0
LINE
  5
4A5
100
AcDbEntity
  8
0
  6
ByLayer
 62
    5
370
   -1
100
AcDbLine
 10
-90.6189
 20
-355.334
 11
-90.434
 21
-355.518
  0
LINE
  5
4A6
100
AcDbEntity
  8
0
  6
ByLayer
 62
    5
370
   -1
100
AcDbLine
 10
-90.434
 20
-355.518
 11
-90.28400000000001
 21
-355.733
  0
LINE
  5
4A7
100
AcDbEntity
  8
0
  6
ByLayer
 62
    5
370
   -1
100
AcDbLine
 10
-90.28400000000001
 20
-355.733
 11
-90.1735
 21
-355.97
  0
LINE
  5
4A8
100
AcDbEntity
  8
0
  6
ByLayer
 62
    5
370
   -1
100
AcDbLine
 10
-90.1735
 20
-355.97
 11
-90.10590000000001
 21
-356.222
  0
LINE
  5
4A9
100
AcDbEntity
  8
0
  6
ByLayer
 62
    5
370
   -1
100
AcDbLine
 10
-90.10590000000001
 20
-356.222
 11
-90.0831
 21
-356.483
  0
LINE
  5
4AA
100
AcDbEntity
  8
0
  6
ByLayer
 62
    5
370
   -1
100
AcDbLine
 10
-90.0831
 20
-356.483
 11
-90.10590000000001
 21
-356.743
  0
LINE
  5
4AB
100
AcDbEntity
  8
0
  6
ByLayer
 62
    5
370
   -1
100
AcDbLine
 10
-90.10590000000001
 20
-356.743
 11
-90.1735
 21
-356.996
  0
LINE
  5
4AC
100
AcDbEntity
  8
0
  6
ByLayer
 62
    5
370
   -1
100
AcDbLine
 10
-90.1735
 20
-356.996
 11
-90.28400000000001
 21
-357.233
  0
LINE
  5
4AD
100
AcDbEntity
  8
0
  6
ByLayer
 62
    5
370
   -1
100
AcDbLine
 10
-90.28400000000001
 20
-357.233
 11
-90.434
 21
-357.447
  0
LINE
  5
4AE
100
AcDbEntity
  8
0
  6
ByLayer
 62
    5
370
   -1
100
AcDbLine
 10
-90.434
 20
-357.447
 11
-90.6189
 21
-357.632
  0
LINE
  5
4AF
100
AcDbEntity
  8
0
  6
ByLayer
 62
    5
370
   -1
100
AcDbLine
 10
-90.6189
 20
-357.632
 11
-90.8331
 21
-357.782
  0
LINE
  5
4B0
100
AcDbEntity
  8
0
  6
ByLayer
 62
    5
370
   -1
100
AcDbLine
 10
-90.8331
 20
-357.782
 11
-91.06999999999999
 21
-357.892
  0
LINE
  5
4B1
100
AcDbEntity
  8
0
  6
ByLayer
 62
    5
370
   -1
100
AcDbLine
 10
-91.06999999999999
 20
-357.892
 11
-91.32259999999999
 21
-357.96
  0
LINE
  5
4B2
100
AcDbEntity
  8
0
  6
ByLayer
 62
    5
370
   -1
100
AcDbLine
 10
-91.32259999999999
 20
-357.96
 11
-91.5831
 21
-357.983
  0
LINE
  5
4B3
100
AcDbEntity
  8
0
  6
ByLayer
 62
    5
370
   -1
100
AcDbLine
 10
-91.5831
 20
-357.983
 11
-91.84350000000001
 21
-357.96
  0
LINE
  5
4B4
100
AcDbEntity
  8
0
  6
ByLayer
 62
    5
370
   -1
100
AcDbLine
 10
91.32259999999999
 20
-357.96
 11
91.06999999999999
 21
-357.892
  0
LINE
  5
4B5
100
AcDbEntity
  8
0
  6
ByLayer
 62
    5
370
   -1
100
AcDbLine
 10
91.06999999999999
 20
-357.892
 11
90.8331
 21
-357.782
  0
LINE
  5
4B6
100
AcDbEntity
  8
0
  6
ByLayer
 62
    5
370
   -1
100
AcDbLine
 10
90.8331
 20
-357.782
 11
90.6189
 21
-357.632
  0
LINE
  5
4B7
100
AcDbEntity
  8
0
  6
ByLayer
 62
    5
370
   -1
100
AcDbLine
 10
90.6189
 20
-357.632
 11
90.434
 21
-357.447
  0
LINE
  5
4B8
100
AcDbEntity
  8
0
  6
ByLayer
 62
    5
370
   -1
100
AcDbLine
 10
90.434
 20
-357.447
 11
90.28400000000001
 21
-357.233
  0
LINE
  5
4B9
100
AcDbEntity
  8
0
  6
ByLayer
 62
    5
370
   -1
100
AcDbLine
 10
90.28400000000001
 20
-357.233
 11
90.1735
 21
-356.996
  0
LINE
  5
4BA
100
AcDbEntity
  8
0
  6
ByLayer
 62
    5
370
   -1
100
AcDbLine
 10
90.1735
 20
-356.996
 11
90.10590000000001
 21
-356.743
  0
LINE
  5
4BB
100
AcDbEntity
  8
0
  6
ByLayer
 62
    5
370
   -1
100
AcDbLine
 10
90.10590000000001
 20
-356.743
 11
90.0831
 21
-356.483
  0
LINE
  5
4BC
100
AcDbEntity
  8
0
  6
ByLayer
 62
    5
370
   -1
100
AcDbLine
 10
90.0831
 20
-356.483
 11
90.10590000000001
 21
-356.222
  0
LINE
  5
4BD
100
AcDbEntity
  8
0
  6
ByLayer
 62
    5
370
   -1
100
AcDbLine
 10
90.10590000000001
 20
-356.222
 11
90.1735
 21
-355.97
  0
LINE
  5
4BE
100
AcDbEntity
  8
0
  6
ByLayer
 62
    5
370
   -1
100
AcDbLine
 10
90.1735
 20
-355.97
 11
90.28400000000001
 21
-355.733
  0
LINE
  5
4BF
100
AcDbEntity
  8
0
  6
ByLayer
 62
    5
370
   -1
100
AcDbLine
 10
90.28400000000001
 20
-355.733
 11
90.434
 21
-355.518
  0
LINE
  5
4C0
100
AcDbEntity
  8
0
  6
ByLayer
 62
    5
370
   -1
100
AcDbLine
 10
90.434
 20
-355.518
 11
90.6189
 21
-355.334
  0
LINE
  5
4C1
100
AcDbEntity
  8
0
  6
ByLayer
 62
    5
370
   -1
100
AcDbLine
 10
90.6189
 20
-355.334
 11
90.8331
 21
-355.184
  0
LINE
  5
4C2
100
AcDbEntity
  8
0
  6
ByLayer
 62
    5
370
   -1
100
AcDbLine
 10
90.8331
 20
-355.184
 11
91.06999999999999
 21
-355.073
  0
LINE
  5
4C3
100
AcDbEntity
  8
0
  6
ByLayer
 62
    5
370
   -1
100
AcDbLine
 10
91.06999999999999
 20
-355.073
 11
91.32259999999999
 21
-355.005
  0
LINE
  5
4C4
100
AcDbEntity
  8
0
  6
ByLayer
 62
    5
370
   -1
100
AcDbLine
 10
91.32259999999999
 20
-355.005
 11
91.5831
 21
-354.983
  0
LINE
  5
4C5
100
AcDbEntity
  8
0
  6
ByLayer
 62
    5
370
   -1
100
AcDbLine
 10
91.5831
 20
-354.983
 11
91.84350000000001
 21
-355.005
  0
LINE
  5
4C6
100
AcDbEntity
  8
0
  6
ByLayer
 62
    5
370
   -1
100
AcDbLine
 10
91.84350000000001
 20
-355.005
 11
92.09610000000001
 21
-355.073
  0
LINE
  5
4C7
100
AcDbEntity
  8
0
  6
ByLayer
 62
    5
370
   -1
100
AcDbLine
 10
92.09610000000001
 20
-355.073
 11
92.3331
 21
-355.184
  0
LINE
  5
4C8
100
AcDbEntity
  8
0
  6
ByLayer
 62
    5
370
   -1
100
AcDbLine
 10
92.3331
 20
-355.184
 11
92.5472
 21
-355.334
  0
LINE
  5
4C9
100
AcDbEntity
  8
0
  6
ByLayer
 62
    5
370
   -1
100
AcDbLine
 10
92.5472
 20
-355.334
 11
92.7321
 21
-355.518
  0
LINE
  5
4CA
100
AcDbEntity
  8
0
  6
ByLayer
 62
    5
370
   -1
100
AcDbLine
 10
92.7321
 20
-355.518
 11
92.88209999999999
 21
-355.733
  0
LINE
  5
4CB
100
AcDbEntity
  8
0
  6
ByLayer
 62
    5
370
   -1
100
AcDbLine
 10
92.88209999999999
 20
-355.733
 11
92.9926
 21
-355.97
  0
LINE
  5
4CC
100
AcDbEntity
  8
0
  6
ByLayer
 62
    5
370
   -1
100
AcDbLine
 10
92.9926
 20
-355.97
 11
93.0603
 21
-356.222
  0
LINE
  5
4CD
100
AcDbEntity
  8
0
  6
ByLayer
 62
    5
370
   -1
100
AcDbLine
 10
93.0603
 20
-356.222
 11
93.0831
 21
-356.483
  0
LINE
  5
4CE
100
AcDbEntity
  8
0
  6
ByLayer
 62
    5
370
   -1
100
AcDbLine
 10
93.0831
 20
-356.483
 11
93.0603
 21
-356.743
  0
LINE
  5
4CF
100
AcDbEntity
  8
0
  6
ByLayer
 62
    5
370
   -1
100
AcDbLine
 10
93.0603
 20
-356.743
 11
92.9926
 21
-356.996
  0
LINE
  5
4D0
100
AcDbEntity
  8
0
  6
ByLayer
 62
    5
370
   -1
100
AcDbLine
 10
92.9926
 20
-356.996
 11
92.88209999999999
 21
-357.233
  0
LINE
  5
4D1
100
AcDbEntity
  8
0
  6
ByLayer
 62
    5
370
   -1
100
AcDbLine
 10
92.88209999999999
 20
-357.233
 11
92.7321
 21
-357.447
  0
LINE
  5
4D2
100
AcDbEntity
  8
0
  6
ByLayer
 62
    5
370
   -1
100
AcDbLine
 10
92.7321
 20
-357.447
 11
92.5472
 21
-357.632
  0
LINE
  5
4D3
100
AcDbEntity
  8
0
  6
ByLayer
 62
    5
370
   -1
100
AcDbLine
 10
92.5472
 20
-357.632
 11
92.3331
 21
-357.782
  0
LINE
  5
4D4
100
AcDbEntity
  8
0
  6
ByLayer
 62
    5
370
   -1
100
AcDbLine
 10
92.3331
 20
-357.782
 11
92.09610000000001
 21
-357.892
  0
LINE
  5
4D5
100
AcDbEntity
  8
0
  6
ByLayer
 62
    5
370
   -1
100
AcDbLine
 10
92.09610000000001
 20
-357.892
 11
91.84350000000001
 21
-357.96
  0
LINE
  5
4D6
100
AcDbEntity
  8
0
  6
ByLayer
 62
    5
370
   -1
100
AcDbLine
 10
91.84350000000001
 20
-357.96
 11
91.5831
 21
-357.983
  0
LINE
  5
4D7
100
AcDbEntity
  8
0
  6
ByLayer
 62
    5
370
   -1
100
AcDbLine
 10
91.5831
 20
-357.983
 11
91.32259999999999
 21
-357.96
  0
LINE
  5
4D8
100
AcDbEntity
  8
0
  6
ByLayer
 62
    5
370
   -1
100
AcDbLine
 10
-0.260468
 20
-361.954
 11
-0.513016
 21
-361.887
  0
LINE
  5
4D9
100
AcDbEntity
  8
0
  6
ByLayer
 62
    5
370
   -1
100
AcDbLine
 10
-0.513016
 20
-361.887
 11
-0.75
 21
-361.776
  0
LINE
  5
4DA
100
AcDbEntity
  8
0
  6
ByLayer
 62
    5
370
   -1
100
AcDbLine
 10
-0.75
 20
-361.776
 11
-0.964172
 21
-361.626
  0
LINE
  5
4DB
100
AcDbEntity
  8
0
  6
ByLayer
 62
    5
370
   -1
100
AcDbLine
 10
-0.964172
 20
-361.626
 11
-1.14906
 21
-361.441
  0
LINE
  5
4DC
100
AcDbEntity
  8
0
  6
ByLayer
 62
    5
370
   -1
100
AcDbLine
 10
-1.14906
 20
-361.441
 11
-1.29903
 21
-361.227
  0
LINE
  5
4DD
100
AcDbEntity
  8
0
  6
ByLayer
 62
    5
370
   -1
100
AcDbLine
 10
-1.29903
 20
-361.227
 11
-1.40953
 21
-360.99
  0
LINE
  5
4DE
100
AcDbEntity
  8
0
  6
ByLayer
 62
    5
370
   -1
100
AcDbLine
 10
-1.40953
 20
-360.99
 11
-1.4772
 21
-360.738
  0
LINE
  5
4DF
100
AcDbEntity
  8
0
  6
ByLayer
 62
    5
370
   -1
100
AcDbLine
 10
-1.4772
 20
-360.738
 11
-1.5
 21
-360.477
  0
LINE
  5
4E0
100
AcDbEntity
  8
0
  6
ByLayer
 62
    5
370
   -1
100
AcDbLine
 10
-1.5
 20
-360.477
 11
-1.4772
 21
-360.217
  0
LINE
  5
4E1
100
AcDbEntity
  8
0
  6
ByLayer
 62
    5
370
   -1
100
AcDbLine
 10
-1.4772
 20
-360.217
 11
-1.40953
 21
-359.964
  0
LINE
  5
4E2
100
AcDbEntity
  8
0
  6
ByLayer
 62
    5
370
   -1
100
AcDbLine
 10
-1.40953
 20
-359.964
 11
-1.29903
 21
-359.727
  0
LINE
  5
4E3
100
AcDbEntity
  8
0
  6
ByLayer
 62
    5
370
   -1
100
AcDbLine
 10
-1.29903
 20
-359.727
 11
-1.14906
 21
-359.513
  0
LINE
  5
4E4
100
AcDbEntity
  8
0
  6
ByLayer
 62
    5
370
   -1
100
AcDbLine
 10
-1.14906
 20
-359.513
 11
-0.964172
 21
-359.328
  0
LINE
  5
4E5
100
AcDbEntity
  8
0
  6
ByLayer
 62
    5
370
   -1
100
AcDbLine
 10
-0.964172
 20
-359.328
 11
-0.749985
 21
-359.178
  0
LINE
  5
4E6
100
AcDbEntity
  8
0
  6
ByLayer
 62
    5
370
   -1
100
AcDbLine
 10
-0.749985
 20
-359.178
 11
-0.513016
 21
-359.068
  0
LINE
  5
4E7
100
AcDbEntity
  8
0
  6
ByLayer
 62
    5
370
   -1
100
AcDbLine
 10
-0.513016
 20
-359.068
 11
-0.260468
 21
-359
  0
LINE
  5
4E8
100
AcDbEntity
  8
0
  6
ByLayer
 62
    5
370
   -1
100
AcDbLine
 10
-0.260468
 20
-359
 11
0
 21
-358.977
  0
LINE
  5
4E9
100
AcDbEntity
  8
0
  6
ByLayer
 62
    5
370
   -1
100
AcDbLine
 10
0
 20
-358.977
 11
0.260468
 21
-359
  0
LINE
  5
4EA
100
AcDbEntity
  8
0
  6
ByLayer
 62
    5
370
   -1
100
AcDbLine
 10
0.260468
 20
-359
 11
0.513016
 21
-359.068
  0
LINE
  5
4EB
100
AcDbEntity
  8
0
  6
ByLayer
 62
    5
370
   -1
100
AcDbLine
 10
0.513016
 20
-359.068
 11
0.75
 21
-359.178
  0
LINE
  5
4EC
100
AcDbEntity
  8
0
  6
ByLayer
 62
    5
370
   -1
100
AcDbLine
 10
0.75
 20
-359.178
 11
0.964172
 21
-359.328
  0
LINE
  5
4ED
100
AcDbEntity
  8
0
  6
ByLayer
 62
    5
370
   -1
100
AcDbLine
 10
0.964172
 20
-359.328
 11
1.14906
 21
-359.513
  0
LINE
  5
4EE
100
AcDbEntity
  8
0
  6
ByLayer
 62
    5
370
   -1
100
AcDbLine
 10
1.14906
 20
-359.513
 11
1.29903
 21
-359.727
  0
LINE
  5
4EF
100
AcDbEntity
  8
0
  6
ByLayer
 62
    5
370
   -1
100
AcDbLine
 10
1.29903
 20
-359.727
 11
1.40953
 21
-359.964
  0
LINE
  5
4F0
100
AcDbEntity
  8
0
  6
ByLayer
 62
    5
370
   -1
100
AcDbLine
 10
1.40953
 20
-359.964
 11
1.4772
 21
-360.217
  0
LINE
  5
4F1
100
AcDbEntity
  8
0
  6
ByLayer
 62
    5
370
   -1
100
AcDbLine
 10
1.4772
 20
-360.217
 11
1.5
 21
-360.477
  0
LINE
  5
4F2
100
AcDbEntity
  8
0
  6
ByLayer
 62
    5
370
   -1
100
AcDbLine
 10
1.5
 20
-360.477
 11
1.4772
 21
-360.738
  0
LINE
  5
4F3
100
AcDbEntity
  8
0
  6
ByLayer
 62
    5
370
   -1
100
AcDbLine
 10
1.4772
 20
-360.738
 11
1.40953
 21
-360.99
  0
LINE
  5
4F4
100
AcDbEntity
  8
0
  6
ByLayer
 62
    5
370
   -1
100
AcDbLine
 10
1.40953
 20
-360.99
 11
1.29903
 21
-361.227
  0
LINE
  5
4F5
100
AcDbEntity
  8
0
  6
ByLayer
 62
    5
370
   -1
100
AcDbLine
 10
1.29903
 20
-361.227
 11
1.14906
 21
-361.441
  0
LINE
  5
4F6
100
AcDbEntity
  8
0
  6
ByLayer
 62
    5
370
   -1
100
AcDbLine
 10
1.14906
 20
-361.441
 11
0.964172
 21
-361.626
  0
LINE
  5
4F7
100
AcDbEntity
  8
0
  6
ByLayer
 62
    5
370
   -1
100
AcDbLine
 10
0.964172
 20
-361.626
 11
0.749985
 21
-361.776
  0
LINE
  5
4F8
100
AcDbEntity
  8
0
  6
ByLayer
 62
    5
370
   -1
100
AcDbLine
 10
0.749985
 20
-361.776
 11
0.513016
 21
-361.887
  0
LINE
  5
4F9
100
AcDbEntity
  8
0
  6
ByLayer
 62
    5
370
   -1
100
AcDbLine
 10
0.513016
 20
-361.887
 11
0.260468
 21
-361.954
  0
LINE
  5
4FA
100
AcDbEntity
  8
0
  6
ByLayer
 62
    5
370
   -1
100
AcDbLine
 10
0.260468
 20
-361.954
 11
0
 21
-361.977
  0
LINE
  5
4FB
100
AcDbEntity
  8
0
  6
ByLayer
 62
    5
370
   -1
100
AcDbLine
 10
0
 20
-361.977
 11
-0.260468
 21
-361.954
  0
LINE
  5
4FC
100
AcDbEntity
  8
0
  6
ByLayer
 62
    5
370
   -1
100
AcDbLine
 10
-0.260468
 20
-382.499
 11
-0.513016
 21
-382.432
  0
LINE
  5
4FD
100
AcDbEntity
  8
0
  6
ByLayer
 62
    5
370
   -1
100
AcDbLine
 10
-0.513016
 20
-382.432
 11
-0.75
 21
-382.321
  0
LINE
  5
4FE
100
AcDbEntity
  8
0
  6
ByLayer
 62
    5
370
   -1
100
AcDbLine
 10
-0.75
 20
-382.321
 11
-0.964172
 21
-382.171
  0
LINE
  5
4FF
100
AcDbEntity
  8
0
  6
ByLayer
 62
    5
370
   -1
100
AcDbLine
 10
-0.964172
 20
-382.171
 11
-1.14906
 21
-381.986
  0
LINE
  5
500
100
AcDbEntity
  8
0
  6
ByLayer
 62
    5
370
   -1
100
AcDbLine
 10
-1.14906
 20
-381.986
 11
-1.29903
 21
-381.772
  0
LINE
  5
501
100
AcDbEntity
  8
0
  6
ByLayer
 62
    5
370
   -1
100
AcDbLine
 10
-1.29903
 20
-381.772
 11
-1.40953
 21
-381.535
  0
LINE
  5
502
100
AcDbEntity
  8
0
  6
ByLayer
 62
    5
370
   -1
100
AcDbLine
 10
-1.40953
 20
-381.535
 11
-1.4772
 21
-381.283
  0
LINE
  5
503
100
AcDbEntity
  8
0
  6
ByLayer
 62
    5
370
   -1
100
AcDbLine
 10
-1.4772
 20
-381.283
 11
-1.5
 21
-381.022
  0
LINE
  5
504
100
AcDbEntity
  8
0
  6
ByLayer
 62
    5
370
   -1
100
AcDbLine
 10
-1.5
 20
-381.022
 11
-1.4772
 21
-380.762
  0
LINE
  5
505
100
AcDbEntity
  8
0
  6
ByLayer
 62
    5
370
   -1
100
AcDbLine
 10
-1.4772
 20
-380.762
 11
-1.40953
 21
-380.509
  0
LINE
  5
506
100
AcDbEntity
  8
0
  6
ByLayer
 62
    5
370
   -1
100
AcDbLine
 10
-1.40953
 20
-380.509
 11
-1.29903
 21
-380.272
  0
LINE
  5
507
100
AcDbEntity
  8
0
  6
ByLayer
 62
    5
370
   -1
100
AcDbLine
 10
-1.29903
 20
-380.272
 11
-1.14906
 21
-380.058
  0
LINE
  5
508
100
AcDbEntity
  8
0
  6
ByLayer
 62
    5
370
   -1
100
AcDbLine
 10
-1.14906
 20
-380.058
 11
-0.964172
 21
-379.873
  0
LINE
  5
509
100
AcDbEntity
  8
0
  6
ByLayer
 62
    5
370
   -1
100
AcDbLine
 10
-0.964172
 20
-379.873
 11
-0.749985
 21
-379.723
  0
LINE
  5
50A
100
AcDbEntity
  8
0
  6
ByLayer
 62
    5
370
   -1
100
AcDbLine
 10
-0.749985
 20
-379.723
 11
-0.513016
 21
-379.613
  0
LINE
  5
50B
100
AcDbEntity
  8
0
  6
ByLayer
 62
    5
370
   -1
100
AcDbLine
 10
-0.513016
 20
-379.613
 11
-0.260468
 21
-379.545
  0
LINE
  5
50C
100
AcDbEntity
  8
0
  6
ByLayer
 62
    5
370
   -1
100
AcDbLine
 10
-0.260468
 20
-379.545
 11
0
 21
-379.522
  0
LINE
  5
50D
100
AcDbEntity
  8
0
  6
ByLayer
 62
    5
370
   -1
100
AcDbLine
 10
0
 20
-379.522
 11
0.260468
 21
-379.545
  0
LINE
  5
50E
100
AcDbEntity
  8
0
  6
ByLayer
 62
    5
370
   -1
100
AcDbLine
 10
0.260468
 20
-379.545
 11
0.513016
 21
-379.613
  0
LINE
  5
50F
100
AcDbEntity
  8
0
  6
ByLayer
 62
    5
370
   -1
100
AcDbLine
 10
0.513016
 20
-379.613
 11
0.75
 21
-379.723
  0
LINE
  5
510
100
AcDbEntity
  8
0
  6
ByLayer
 62
    5
370
   -1
100
AcDbLine
 10
0.75
 20
-379.723
 11
0.964172
 21
-379.873
  0
LINE
  5
511
100
AcDbEntity
  8
0
  6
ByLayer
 62
    5
370
   -1
100
AcDbLine
 10
0.964172
 20
-379.873
 11
1.14906
 21
-380.058
  0
LINE
  5
512
100
AcDbEntity
  8
0
  6
ByLayer
 62
    5
370
   -1
100
AcDbLine
 10
1.14906
 20
-380.058
 11
1.29903
 21
-380.272
  0
LINE
  5
513
100
AcDbEntity
  8
0
  6
ByLayer
 62
    5
370
   -1
100
AcDbLine
 10
1.29903
 20
-380.272
 11
1.40953
 21
-380.509
  0
LINE
  5
514
100
AcDbEntity
  8
0
  6
ByLayer
 62
    5
370
   -1
100
AcDbLine
 10
1.40953
 20
-380.509
 11
1.4772
 21
-380.762
  0
LINE
  5
515
100
AcDbEntity
  8
0
  6
ByLayer
 62
    5
370
   -1
100
AcDbLine
 10
1.4772
 20
-380.762
 11
1.5
 21
-381.022
  0
LINE
  5
516
100
AcDbEntity
  8
0
  6
ByLayer
 62
    5
370
   -1
100
AcDbLine
 10
1.5
 20
-381.022
 11
1.4772
 21
-381.283
  0
LINE
  5
517
100
AcDbEntity
  8
0
  6
ByLayer
 62
    5
370
   -1
100
AcDbLine
 10
1.4772
 20
-381.283
 11
1.40953
 21
-381.535
  0
LINE
  5
518
100
AcDbEntity
  8
0
  6
ByLayer
 62
    5
370
   -1
100
AcDbLine
 10
1.40953
 20
-381.535
 11
1.29903
 21
-381.772
  0
LINE
  5
519
100
AcDbEntity
  8
0
  6
ByLayer
 62
    5
370
   -1
100
AcDbLine
 10
1.29903
 20
-381.772
 11
1.14906
 21
-381.986
  0
LINE
  5
51A
100
AcDbEntity
  8
0
  6
ByLayer
 62
    5
370
   -1
100
AcDbLine
 10
1.14906
 20
-381.986
 11
0.964172
 21
-382.171
  0
LINE
  5
51B
100
AcDbEntity
  8
0
  6
ByLayer
 62
    5
370
   -1
100
AcDbLine
 10
0.964172
 20
-382.171
 11
0.749985
 21
-382.321
  0
LINE
  5
51C
100
AcDbEntity
  8
0
  6
ByLayer
 62
    5
370
   -1
100
AcDbLine
 10
0.749985
 20
-382.321
 11
0.513016
 21
-382.432
  0
LINE
  5
51D
100
AcDbEntity
  8
0
  6
ByLayer
 62
    5
370
   -1
100
AcDbLine
 10
0.513016
 20
-382.432
 11
0.260468
 21
-382.499
  0
LINE
  5
51E
100
AcDbEntity
  8
0
  6
ByLayer
 62
    5
370
   -1
100
AcDbLine
 10
0.260468
 20
-382.499
 11
0
 21
-382.522
  0
LINE
  5
51F
100
AcDbEntity
  8
0
  6
ByLayer
 62
    5
370
   -1
100
AcDbLine
 10
0
 20
-382.522
 11
-0.260468
 21
-382.499
  0
LINE
  5
520
100
AcDbEntity
  8
0
  6
ByLayer
 62
    5
370
   -1
100
AcDbLine
 10
-182.416
 20
-199.155
 11
-182.653
 21
-199.266
  0
LINE
  5
521
100
AcDbEntity
  8
0
  6
ByLayer
 62
    5
370
   -1
100
AcDbLine
 10
-182.653
 20
-199.266
 11
-182.906
 21
-199.333
  0
LINE
  5
522
100
AcDbEntity
  8
0
  6
ByLayer
 62
    5
370
   -1
100
AcDbLine
 10
-182.906
 20
-199.333
 11
-183.166
 21
-199.356
  0
LINE
  5
523
100
AcDbEntity
  8
0
  6
ByLayer
 62
    5
370
   -1
100
AcDbLine
 10
-183.166
 20
-199.356
 11
-183.427
 21
-199.333
  0
LINE
  5
524
100
AcDbEntity
  8
0
  6
ByLayer
 62
    5
370
   -1
100
AcDbLine
 10
-183.427
 20
-199.333
 11
-183.679
 21
-199.266
  0
LINE
  5
525
100
AcDbEntity
  8
0
  6
ByLayer
 62
    5
370
   -1
100
AcDbLine
 10
-183.679
 20
-199.266
 11
-183.916
 21
-199.155
  0
LINE
  5
526
100
AcDbEntity
  8
0
  6
ByLayer
 62
    5
370
   -1
100
AcDbLine
 10
-183.916
 20
-199.155
 11
-184.13
 21
-199.005
  0
LINE
  5
527
100
AcDbEntity
  8
0
  6
ByLayer
 62
    5
370
   -1
100
AcDbLine
 10
-184.13
 20
-199.005
 11
-184.315
 21
-198.82
  0
LINE
  5
528
100
AcDbEntity
  8
0
  6
ByLayer
 62
    5
370
   -1
100
AcDbLine
 10
-184.315
 20
-198.82
 11
-184.465
 21
-198.606
  0
LINE
  5
529
100
AcDbEntity
  8
0
  6
ByLayer
 62
    5
370
   -1
100
AcDbLine
 10
-184.465
 20
-198.606
 11
-184.576
 21
-198.369
  0
LINE
  5
52A
100
AcDbEntity
  8
0
  6
ByLayer
 62
    5
370
   -1
100
AcDbLine
 10
-184.576
 20
-198.369
 11
-184.643
 21
-198.117
  0
LINE
  5
52B
100
AcDbEntity
  8
0
  6
ByLayer
 62
    5
370
   -1
100
AcDbLine
 10
-184.643
 20
-198.117
 11
-184.666
 21
-197.856
  0
LINE
  5
52C
100
AcDbEntity
  8
0
  6
ByLayer
 62
    5
370
   -1
100
AcDbLine
 10
-184.666
 20
-197.856
 11
-184.643
 21
-197.596
  0
LINE
  5
52D
100
AcDbEntity
  8
0
  6
ByLayer
 62
    5
370
   -1
100
AcDbLine
 10
-184.643
 20
-197.596
 11
-184.576
 21
-197.343
  0
LINE
  5
52E
100
AcDbEntity
  8
0
  6
ByLayer
 62
    5
370
   -1
100
AcDbLine
 10
-184.576
 20
-197.343
 11
-184.465
 21
-197.106
  0
LINE
  5
52F
100
AcDbEntity
  8
0
  6
ByLayer
 62
    5
370
   -1
100
AcDbLine
 10
-184.465
 20
-197.106
 11
-184.315
 21
-196.892
  0
LINE
  5
530
100
AcDbEntity
  8
0
  6
ByLayer
 62
    5
370
   -1
100
AcDbLine
 10
-184.315
 20
-196.892
 11
-184.13
 21
-196.707
  0
LINE
  5
531
100
AcDbEntity
  8
0
  6
ByLayer
 62
    5
370
   -1
100
AcDbLine
 10
-184.13
 20
-196.707
 11
-183.916
 21
-196.557
  0
LINE
  5
532
100
AcDbEntity
  8
0
  6
ByLayer
 62
    5
370
   -1
100
AcDbLine
 10
-183.916
 20
-196.557
 11
-183.679
 21
-196.447
  0
LINE
  5
533
100
AcDbEntity
  8
0
  6
ByLayer
 62
    5
370
   -1
100
AcDbLine
 10
-183.679
 20
-196.447
 11
-183.427
 21
-196.379
  0
LINE
  5
534
100
AcDbEntity
  8
0
  6
ByLayer
 62
    5
370
   -1
100
AcDbLine
 10
-183.427
 20
-196.379
 11
-183.166
 21
-196.356
  0
LINE
  5
535
100
AcDbEntity
  8
0
  6
ByLayer
 62
    5
370
   -1
100
AcDbLine
 10
-183.166
 20
-196.356
 11
-182.906
 21
-196.379
  0
LINE
  5
536
100
AcDbEntity
  8
0
  6
ByLayer
 62
    5
370
   -1
100
AcDbLine
 10
-182.906
 20
-196.379
 11
-182.653
 21
-196.447
  0
LINE
  5
537
100
AcDbEntity
  8
0
  6
ByLayer
 62
    5
370
   -1
100
AcDbLine
 10
-182.653
 20
-196.447
 11
-182.416
 21
-196.557
  0
LINE
  5
538
100
AcDbEntity
  8
0
  6
ByLayer
 62
    5
370
   -1
100
AcDbLine
 10
-182.416
 20
-196.557
 11
-182.202
 21
-196.707
  0
LINE
  5
539
100
AcDbEntity
  8
0
  6
ByLayer
 62
    5
370
   -1
100
AcDbLine
 10
-182.202
 20
-196.707
 11
-182.017
 21
-196.892
  0
LINE
  5
53A
100
AcDbEntity
  8
0
  6
ByLayer
 62
    5
370
   -1
100
AcDbLine
 10
-182.017
 20
-196.892
 11
-181.867
 21
-197.106
  0
LINE
  5
53B
100
AcDbEntity
  8
0
  6
ByLayer
 62
    5
370
   -1
100
AcDbLine
 10
-181.867
 20
-197.106
 11
-181.757
 21
-197.343
  0
LINE
  5
53C
100
AcDbEntity
  8
0
  6
ByLayer
 62
    5
370
   -1
100
AcDbLine
 10
-181.757
 20
-197.343
 11
-181.689
 21
-197.596
  0
LINE
  5
53D
100
AcDbEntity
  8
0
  6
ByLayer
 62
    5
370
   -1
100
AcDbLine
 10
-181.689
 20
-197.596
 11
-181.666
 21
-197.856
  0
LINE
  5
53E
100
AcDbEntity
  8
0
  6
ByLayer
 62
    5
370
   -1
100
AcDbLine
 10
-181.666
 20
-197.856
 11
-181.689
 21
-198.117
  0
LINE
  5
53F
100
AcDbEntity
  8
0
  6
ByLayer
 62
    5
370
   -1
100
AcDbLine
 10
-181.689
 20
-198.117
 11
-181.757
 21
-198.369
  0
LINE
  5
540
100
AcDbEntity
  8
0
  6
ByLayer
 62
    5
370
   -1
100
AcDbLine
 10
-181.757
 20
-198.369
 11
-181.867
 21
-198.606
  0
LINE
  5
541
100
AcDbEntity
  8
0
  6
ByLayer
 62
    5
370
   -1
100
AcDbLine
 10
-181.867
 20
-198.606
 11
-182.017
 21
-198.82
  0
LINE
  5
542
100
AcDbEntity
  8
0
  6
ByLayer
 62
    5
370
   -1
100
AcDbLine
 10
-182.017
 20
-198.82
 11
-182.202
 21
-199.005
  0
LINE
  5
543
100
AcDbEntity
  8
0
  6
ByLayer
 62
    5
370
   -1
100
AcDbLine
 10
-182.202
 20
-199.005
 11
-182.416
 21
-199.155
  0
ENDSEC
  0
SECTION
  2
OBJECTS
  0
DICTIONARY
  5
C
330
0
100
AcDbDictionary
281
    1
  3
ACAD_GROUP
350
D
  0
DICTIONARY
  5
D
330
C
100
AcDbDictionary
281
    1
  0
ENDSEC
  0
EOF
