solid OpenSCAD_Model
  facet normal 0.573576 0.819152 -0
    outer loop
      vertex 2.89254 3.4472 0
      vertex 2.25 3.89711 11.3
      vertex 2.89254 3.4472 11.3
    endloop
  endfacet
  facet normal 0.573576 0.819152 0
    outer loop
      vertex 2.25 3.89711 11.3
      vertex 2.89254 3.4472 0
      vertex 2.25 3.89711 0
    endloop
  endfacet
  facet normal -0.258818 -0.965926 0
    outer loop
      vertex -1.53909 -4.22862 0
      vertex -0.781416 -4.43163 11.3
      vertex -1.53909 -4.22862 11.3
    endloop
  endfacet
  facet normal -0.258818 -0.965926 -0
    outer loop
      vertex -0.781416 -4.43163 11.3
      vertex -1.53909 -4.22862 0
      vertex -0.781416 -4.43163 0
    endloop
  endfacet
  facet normal -0.258818 0.965926 0
    outer loop
      vertex -0.781416 4.43163 0
      vertex -1.53909 4.22862 11.3
      vertex -0.781416 4.43163 11.3
    endloop
  endfacet
  facet normal -0.258818 0.965926 0
    outer loop
      vertex -1.53909 4.22862 11.3
      vertex -0.781416 4.43163 0
      vertex -1.53909 4.22862 0
    endloop
  endfacet
  facet normal -0.906308 0.422618 0
    outer loop
      vertex -4.22862 1.53909 0
      vertex -3.89711 2.25 11.3
      vertex -3.89711 2.25 0
    endloop
  endfacet
  facet normal -0.906308 0.422618 0
    outer loop
      vertex -3.89711 2.25 11.3
      vertex -4.22862 1.53909 0
      vertex -4.22862 1.53909 11.3
    endloop
  endfacet
  facet normal -0.906308 -0.422618 0
    outer loop
      vertex -3.89711 -2.25 0
      vertex -4.22862 -1.53909 11.3
      vertex -4.22862 -1.53909 0
    endloop
  endfacet
  facet normal -0.906308 -0.422618 0
    outer loop
      vertex -4.22862 -1.53909 11.3
      vertex -3.89711 -2.25 0
      vertex -3.89711 -2.25 11.3
    endloop
  endfacet
  facet normal 0.906307 0.422619 0
    outer loop
      vertex 4.22862 1.53909 11.3
      vertex 3.89711 2.25 0
      vertex 3.89711 2.25 11.3
    endloop
  endfacet
  facet normal 0.906307 0.422619 0
    outer loop
      vertex 3.89711 2.25 0
      vertex 4.22862 1.53909 11.3
      vertex 4.22862 1.53909 0
    endloop
  endfacet
  facet normal 0.819152 0.573576 0
    outer loop
      vertex 3.89711 2.25 11.3
      vertex 3.4472 2.89254 0
      vertex 3.4472 2.89254 11.3
    endloop
  endfacet
  facet normal 0.819152 0.573576 0
    outer loop
      vertex 3.4472 2.89254 0
      vertex 3.89711 2.25 11.3
      vertex 3.89711 2.25 0
    endloop
  endfacet
  facet normal 0.707107 0.707107 0
    outer loop
      vertex 3.4472 2.89254 11.3
      vertex 2.89254 3.4472 0
      vertex 2.89254 3.4472 11.3
    endloop
  endfacet
  facet normal 0.707107 0.707107 0
    outer loop
      vertex 2.89254 3.4472 0
      vertex 3.4472 2.89254 11.3
      vertex 3.4472 2.89254 0
    endloop
  endfacet
  facet normal 0.422618 0.906308 -0
    outer loop
      vertex 2.25 3.89711 0
      vertex 1.53909 4.22862 11.3
      vertex 2.25 3.89711 11.3
    endloop
  endfacet
  facet normal 0.422618 0.906308 0
    outer loop
      vertex 1.53909 4.22862 11.3
      vertex 2.25 3.89711 0
      vertex 1.53909 4.22862 0
    endloop
  endfacet
  facet normal 0.087157 0.996195 -0
    outer loop
      vertex 0.781416 4.43163 0
      vertex 0 4.5 11.3
      vertex 0.781416 4.43163 11.3
    endloop
  endfacet
  facet normal 0.087157 0.996195 0
    outer loop
      vertex 0 4.5 11.3
      vertex 0.781416 4.43163 0
      vertex 0 4.5 0
    endloop
  endfacet
  facet normal 0.258818 0.965926 -0
    outer loop
      vertex 1.53909 4.22862 0
      vertex 0.781416 4.43163 11.3
      vertex 1.53909 4.22862 11.3
    endloop
  endfacet
  facet normal 0.258818 0.965926 0
    outer loop
      vertex 0.781416 4.43163 11.3
      vertex 1.53909 4.22862 0
      vertex 0.781416 4.43163 0
    endloop
  endfacet
  facet normal -0.996195 0.087157 0
    outer loop
      vertex -4.5 0 0
      vertex -4.43163 0.781416 11.3
      vertex -4.43163 0.781416 0
    endloop
  endfacet
  facet normal -0.996195 0.087157 0
    outer loop
      vertex -4.43163 0.781416 11.3
      vertex -4.5 0 0
      vertex -4.5 0 11.3
    endloop
  endfacet
  facet normal -0.707107 0.707107 0
    outer loop
      vertex -3.4472 2.89254 0
      vertex -2.89254 3.4472 11.3
      vertex -2.89254 3.4472 0
    endloop
  endfacet
  facet normal -0.707107 0.707107 0
    outer loop
      vertex -2.89254 3.4472 11.3
      vertex -3.4472 2.89254 0
      vertex -3.4472 2.89254 11.3
    endloop
  endfacet
  facet normal -0.422619 0.906307 0
    outer loop
      vertex -1.53909 4.22862 0
      vertex -2.25 3.89711 11.3
      vertex -1.53909 4.22862 11.3
    endloop
  endfacet
  facet normal -0.422619 0.906307 0
    outer loop
      vertex -2.25 3.89711 11.3
      vertex -1.53909 4.22862 0
      vertex -2.25 3.89711 0
    endloop
  endfacet
  facet normal -0.087157 0.996195 0
    outer loop
      vertex 0 4.5 0
      vertex -0.781416 4.43163 11.3
      vertex 0 4.5 11.3
    endloop
  endfacet
  facet normal -0.087157 0.996195 0
    outer loop
      vertex -0.781416 4.43163 11.3
      vertex 0 4.5 0
      vertex -0.781416 4.43163 0
    endloop
  endfacet
  facet normal -0.573576 0.819152 0
    outer loop
      vertex -2.25 3.89711 0
      vertex -2.89254 3.4472 11.3
      vertex -2.25 3.89711 11.3
    endloop
  endfacet
  facet normal -0.573576 0.819152 0
    outer loop
      vertex -2.89254 3.4472 11.3
      vertex -2.25 3.89711 0
      vertex -2.89254 3.4472 0
    endloop
  endfacet
  facet normal 0.996195 0.087157 0
    outer loop
      vertex 4.5 0 11.3
      vertex 4.43163 0.781416 0
      vertex 4.43163 0.781416 11.3
    endloop
  endfacet
  facet normal 0.996195 0.087157 0
    outer loop
      vertex 4.43163 0.781416 0
      vertex 4.5 0 11.3
      vertex 4.5 0 0
    endloop
  endfacet
  facet normal 0.087157 -0.996195 0
    outer loop
      vertex 0 -4.5 0
      vertex 0.781416 -4.43163 11.3
      vertex 0 -4.5 11.3
    endloop
  endfacet
  facet normal 0.087157 -0.996195 0
    outer loop
      vertex 0.781416 -4.43163 11.3
      vertex 0 -4.5 0
      vertex 0.781416 -4.43163 0
    endloop
  endfacet
  facet normal 0.258818 -0.965926 0
    outer loop
      vertex 0.781416 -4.43163 0
      vertex 1.53909 -4.22862 11.3
      vertex 0.781416 -4.43163 11.3
    endloop
  endfacet
  facet normal 0.258818 -0.965926 0
    outer loop
      vertex 1.53909 -4.22862 11.3
      vertex 0.781416 -4.43163 0
      vertex 1.53909 -4.22862 0
    endloop
  endfacet
  facet normal 0.819152 -0.573576 0
    outer loop
      vertex 3.4472 -2.89254 11.3
      vertex 3.89711 -2.25 0
      vertex 3.89711 -2.25 11.3
    endloop
  endfacet
  facet normal 0.819152 -0.573576 0
    outer loop
      vertex 3.89711 -2.25 0
      vertex 3.4472 -2.89254 11.3
      vertex 3.4472 -2.89254 0
    endloop
  endfacet
  facet normal -0.707107 -0.707107 0
    outer loop
      vertex -2.89254 -3.4472 0
      vertex -3.4472 -2.89254 11.3
      vertex -3.4472 -2.89254 0
    endloop
  endfacet
  facet normal -0.707107 -0.707107 0
    outer loop
      vertex -3.4472 -2.89254 11.3
      vertex -2.89254 -3.4472 0
      vertex -2.89254 -3.4472 11.3
    endloop
  endfacet
  facet normal -0.996195 -0.087157 0
    outer loop
      vertex -4.43163 -0.781416 0
      vertex -4.5 0 11.3
      vertex -4.5 0 0
    endloop
  endfacet
  facet normal -0.996195 -0.087157 0
    outer loop
      vertex -4.5 0 11.3
      vertex -4.43163 -0.781416 0
      vertex -4.43163 -0.781416 11.3
    endloop
  endfacet
  facet normal 0 0 -1
    outer loop
      vertex 1.5 0 0
      vertex 4.5 0 0
      vertex 4.43163 -0.781416 0
    endloop
  endfacet
  facet normal 0 0 -1
    outer loop
      vertex 1.47721 -0.260471 0
      vertex 4.43163 -0.781416 0
      vertex 4.22862 -1.53909 0
    endloop
  endfacet
  facet normal 0 0 -1
    outer loop
      vertex 4.5 0 0
      vertex 1.5 0 0
      vertex 4.43163 0.781416 0
    endloop
  endfacet
  facet normal 0 0 -1
    outer loop
      vertex 1.40954 -0.51303 0
      vertex 4.22862 -1.53909 0
      vertex 3.89711 -2.25 0
    endloop
  endfacet
  facet normal 0 0 -1
    outer loop
      vertex 1.47721 0.260471 0
      vertex 4.43163 0.781416 0
      vertex 1.5 0 0
    endloop
  endfacet
  facet normal 0 0 -1
    outer loop
      vertex 1.29904 -0.749999 0
      vertex 3.89711 -2.25 0
      vertex 3.4472 -2.89254 0
    endloop
  endfacet
  facet normal -0 0 -1
    outer loop
      vertex 4.43163 0.781416 0
      vertex 1.47721 0.260471 0
      vertex 4.22862 1.53909 0
    endloop
  endfacet
  facet normal 0 0 -1
    outer loop
      vertex 1.14907 -0.964181 0
      vertex 3.4472 -2.89254 0
      vertex 2.89254 -3.4472 0
    endloop
  endfacet
  facet normal 0 0 -1
    outer loop
      vertex 1.40954 0.51303 0
      vertex 4.22862 1.53909 0
      vertex 1.47721 0.260471 0
    endloop
  endfacet
  facet normal -0 0 -1
    outer loop
      vertex 4.22862 1.53909 0
      vertex 1.40954 0.51303 0
      vertex 3.89711 2.25 0
    endloop
  endfacet
  facet normal 0 0 -1
    outer loop
      vertex 0.964181 -1.14907 0
      vertex 2.89254 -3.4472 0
      vertex 2.25 -3.89711 0
    endloop
  endfacet
  facet normal 0 0 -1
    outer loop
      vertex 0.749999 -1.29904 0
      vertex 2.25 -3.89711 0
      vertex 1.53909 -4.22862 0
    endloop
  endfacet
  facet normal 0 0 -1
    outer loop
      vertex 1.29904 0.749999 0
      vertex 3.89711 2.25 0
      vertex 1.40954 0.51303 0
    endloop
  endfacet
  facet normal -0 0 -1
    outer loop
      vertex 3.89711 2.25 0
      vertex 1.29904 0.749999 0
      vertex 3.4472 2.89254 0
    endloop
  endfacet
  facet normal 0 0 -1
    outer loop
      vertex 4.43163 -0.781416 0
      vertex 1.47721 -0.260471 0
      vertex 1.5 0 0
    endloop
  endfacet
  facet normal 0 0 -1
    outer loop
      vertex 4.22862 -1.53909 0
      vertex 1.40954 -0.51303 0
      vertex 1.47721 -0.260471 0
    endloop
  endfacet
  facet normal 0 0 -1
    outer loop
      vertex 3.89711 -2.25 0
      vertex 1.29904 -0.749999 0
      vertex 1.40954 -0.51303 0
    endloop
  endfacet
  facet normal 0 0 -1
    outer loop
      vertex 3.4472 -2.89254 0
      vertex 1.14907 -0.964181 0
      vertex 1.29904 -0.749999 0
    endloop
  endfacet
  facet normal 0 0 -1
    outer loop
      vertex 2.89254 -3.4472 0
      vertex 0.964181 -1.14907 0
      vertex 1.14907 -0.964181 0
    endloop
  endfacet
  facet normal 0 0 -1
    outer loop
      vertex 0.51303 -1.40954 0
      vertex 1.53909 -4.22862 0
      vertex 0.781416 -4.43163 0
    endloop
  endfacet
  facet normal 0 0 -1
    outer loop
      vertex 2.25 -3.89711 0
      vertex 0.749999 -1.29904 0
      vertex 0.964181 -1.14907 0
    endloop
  endfacet
  facet normal 0 0 -1
    outer loop
      vertex 1.53909 -4.22862 0
      vertex 0.51303 -1.40954 0
      vertex 0.749999 -1.29904 0
    endloop
  endfacet
  facet normal 0 0 -1
    outer loop
      vertex 0.781416 -4.43163 0
      vertex 0.260471 -1.47721 0
      vertex 0.51303 -1.40954 0
    endloop
  endfacet
  facet normal 0 0 -1
    outer loop
      vertex 0 -4.5 0
      vertex 0.260471 -1.47721 0
      vertex 0.781416 -4.43163 0
    endloop
  endfacet
  facet normal 0 0 -1
    outer loop
      vertex 0 -4.5 0
      vertex 0 -1.5 0
      vertex 0.260471 -1.47721 0
    endloop
  endfacet
  facet normal 0 0 -1
    outer loop
      vertex 0 -4.5 0
      vertex -0.260471 -1.47721 0
      vertex 0 -1.5 0
    endloop
  endfacet
  facet normal 0 0 -1
    outer loop
      vertex -0.781416 -4.43163 0
      vertex -0.260471 -1.47721 0
      vertex 0 -4.5 0
    endloop
  endfacet
  facet normal -0 0 -1
    outer loop
      vertex -0.260471 -1.47721 0
      vertex -0.781416 -4.43163 0
      vertex -0.51303 -1.40954 0
    endloop
  endfacet
  facet normal 0 0 -1
    outer loop
      vertex -1.53909 -4.22862 0
      vertex -0.51303 -1.40954 0
      vertex -0.781416 -4.43163 0
    endloop
  endfacet
  facet normal -0 0 -1
    outer loop
      vertex -0.51303 -1.40954 0
      vertex -1.53909 -4.22862 0
      vertex -0.75 -1.29904 0
    endloop
  endfacet
  facet normal 0 0 -1
    outer loop
      vertex -2.25 -3.89711 0
      vertex -0.75 -1.29904 0
      vertex -1.53909 -4.22862 0
    endloop
  endfacet
  facet normal -0 0 -1
    outer loop
      vertex -0.75 -1.29904 0
      vertex -2.25 -3.89711 0
      vertex -0.964181 -1.14907 0
    endloop
  endfacet
  facet normal 0 0 -1
    outer loop
      vertex -2.89254 -3.4472 0
      vertex -0.964181 -1.14907 0
      vertex -2.25 -3.89711 0
    endloop
  endfacet
  facet normal -0 0 -1
    outer loop
      vertex -0.964181 -1.14907 0
      vertex -2.89254 -3.4472 0
      vertex -1.14907 -0.964181 0
    endloop
  endfacet
  facet normal -0 0 -1
    outer loop
      vertex -1.14907 -0.964181 0
      vertex -3.4472 -2.89254 0
      vertex -1.29904 -0.75 0
    endloop
  endfacet
  facet normal 0 0 -1
    outer loop
      vertex -3.4472 -2.89254 0
      vertex -1.14907 -0.964181 0
      vertex -2.89254 -3.4472 0
    endloop
  endfacet
  facet normal 0 0 -1
    outer loop
      vertex 1.14907 0.964181 0
      vertex 3.4472 2.89254 0
      vertex 1.29904 0.749999 0
    endloop
  endfacet
  facet normal -0 0 -1
    outer loop
      vertex 3.4472 2.89254 0
      vertex 1.14907 0.964181 0
      vertex 2.89254 3.4472 0
    endloop
  endfacet
  facet normal 0 0 -1
    outer loop
      vertex 0.964181 1.14907 0
      vertex 2.89254 3.4472 0
      vertex 1.14907 0.964181 0
    endloop
  endfacet
  facet normal -0 0 -1
    outer loop
      vertex 2.89254 3.4472 0
      vertex 0.964181 1.14907 0
      vertex 2.25 3.89711 0
    endloop
  endfacet
  facet normal 0 0 -1
    outer loop
      vertex 0.75 1.29904 0
      vertex 2.25 3.89711 0
      vertex 0.964181 1.14907 0
    endloop
  endfacet
  facet normal -0 0 -1
    outer loop
      vertex 2.25 3.89711 0
      vertex 0.75 1.29904 0
      vertex 1.53909 4.22862 0
    endloop
  endfacet
  facet normal 0 0 -1
    outer loop
      vertex 0.51303 1.40954 0
      vertex 1.53909 4.22862 0
      vertex 0.75 1.29904 0
    endloop
  endfacet
  facet normal -0 0 -1
    outer loop
      vertex 1.53909 4.22862 0
      vertex 0.51303 1.40954 0
      vertex 0.781416 4.43163 0
    endloop
  endfacet
  facet normal 0 0 -1
    outer loop
      vertex 0.260471 1.47721 0
      vertex 0.781416 4.43163 0
      vertex 0.51303 1.40954 0
    endloop
  endfacet
  facet normal 0 0 -1
    outer loop
      vertex 0 1.5 0
      vertex 0.781416 4.43163 0
      vertex 0.260471 1.47721 0
    endloop
  endfacet
  facet normal 0 0 -1
    outer loop
      vertex 0 1.5 0
      vertex 0 4.5 0
      vertex 0.781416 4.43163 0
    endloop
  endfacet
  facet normal 0 0 -1
    outer loop
      vertex -0.260471 1.47721 0
      vertex 0 4.5 0
      vertex 0 1.5 0
    endloop
  endfacet
  facet normal 0 0 -1
    outer loop
      vertex -0.781416 4.43163 0
      vertex -0.260471 1.47721 0
      vertex -0.51303 1.40954 0
    endloop
  endfacet
  facet normal 0 0 -1
    outer loop
      vertex -1.53909 4.22862 0
      vertex -0.51303 1.40954 0
      vertex -0.749999 1.29904 0
    endloop
  endfacet
  facet normal 0 0 -1
    outer loop
      vertex -0.260471 1.47721 0
      vertex -0.781416 4.43163 0
      vertex 0 4.5 0
    endloop
  endfacet
  facet normal 0 0 -1
    outer loop
      vertex -2.25 3.89711 0
      vertex -0.749999 1.29904 0
      vertex -0.964181 1.14907 0
    endloop
  endfacet
  facet normal 0 0 -1
    outer loop
      vertex -2.89254 3.4472 0
      vertex -0.964181 1.14907 0
      vertex -1.14907 0.964181 0
    endloop
  endfacet
  facet normal 0 0 -1
    outer loop
      vertex -3.4472 2.89254 0
      vertex -1.14907 0.964181 0
      vertex -1.29904 0.75 0
    endloop
  endfacet
  facet normal 0 0 -1
    outer loop
      vertex -3.89711 2.25 0
      vertex -1.29904 0.75 0
      vertex -1.40954 0.51303 0
    endloop
  endfacet
  facet normal 0 0 -1
    outer loop
      vertex -4.22862 1.53909 0
      vertex -1.40954 0.51303 0
      vertex -1.47721 0.260471 0
    endloop
  endfacet
  facet normal 0 0 -1
    outer loop
      vertex -0.51303 1.40954 0
      vertex -1.53909 4.22862 0
      vertex -0.781416 4.43163 0
    endloop
  endfacet
  facet normal 0 0 -1
    outer loop
      vertex -4.43163 0.781416 0
      vertex -1.47721 0.260471 0
      vertex -1.5 0 0
    endloop
  endfacet
  facet normal 0 0 -1
    outer loop
      vertex -3.89711 -2.25 0
      vertex -1.29904 -0.75 0
      vertex -3.4472 -2.89254 0
    endloop
  endfacet
  facet normal 0 0 -1
    outer loop
      vertex -0.749999 1.29904 0
      vertex -2.25 3.89711 0
      vertex -1.53909 4.22862 0
    endloop
  endfacet
  facet normal -0 0 -1
    outer loop
      vertex -1.29904 -0.75 0
      vertex -3.89711 -2.25 0
      vertex -1.40954 -0.51303 0
    endloop
  endfacet
  facet normal 0 0 -1
    outer loop
      vertex -4.22862 -1.53909 0
      vertex -1.40954 -0.51303 0
      vertex -3.89711 -2.25 0
    endloop
  endfacet
  facet normal 0 0 -1
    outer loop
      vertex -0.964181 1.14907 0
      vertex -2.89254 3.4472 0
      vertex -2.25 3.89711 0
    endloop
  endfacet
  facet normal -0 0 -1
    outer loop
      vertex -1.40954 -0.51303 0
      vertex -4.22862 -1.53909 0
      vertex -1.47721 -0.260471 0
    endloop
  endfacet
  facet normal 0 0 -1
    outer loop
      vertex -1.14907 0.964181 0
      vertex -3.4472 2.89254 0
      vertex -2.89254 3.4472 0
    endloop
  endfacet
  facet normal 0 0 -1
    outer loop
      vertex -4.43163 -0.781416 0
      vertex -1.47721 -0.260471 0
      vertex -4.22862 -1.53909 0
    endloop
  endfacet
  facet normal 0 0 -1
    outer loop
      vertex -1.29904 0.75 0
      vertex -3.89711 2.25 0
      vertex -3.4472 2.89254 0
    endloop
  endfacet
  facet normal -0 0 -1
    outer loop
      vertex -1.47721 -0.260471 0
      vertex -4.43163 -0.781416 0
      vertex -1.5 0 0
    endloop
  endfacet
  facet normal 0 0 -1
    outer loop
      vertex -1.40954 0.51303 0
      vertex -4.22862 1.53909 0
      vertex -3.89711 2.25 0
    endloop
  endfacet
  facet normal 0 0 -1
    outer loop
      vertex -4.5 0 0
      vertex -1.5 0 0
      vertex -4.43163 -0.781416 0
    endloop
  endfacet
  facet normal 0 0 -1
    outer loop
      vertex -1.47721 0.260471 0
      vertex -4.43163 0.781416 0
      vertex -4.22862 1.53909 0
    endloop
  endfacet
  facet normal 0 0 -1
    outer loop
      vertex -1.5 0 0
      vertex -4.5 0 0
      vertex -4.43163 0.781416 0
    endloop
  endfacet
  facet normal 0.965926 0.258818 0
    outer loop
      vertex 4.43163 0.781416 11.3
      vertex 4.22862 1.53909 0
      vertex 4.22862 1.53909 11.3
    endloop
  endfacet
  facet normal 0.965926 0.258818 0
    outer loop
      vertex 4.22862 1.53909 0
      vertex 4.43163 0.781416 11.3
      vertex 4.43163 0.781416 0
    endloop
  endfacet
  facet normal 0 0 1
    outer loop
      vertex 1.5 0 11.3
      vertex 4.5 0 11.3
      vertex 4.43163 0.781416 11.3
    endloop
  endfacet
  facet normal 0 0 1
    outer loop
      vertex 1.47721 0.260471 11.3
      vertex 4.43163 0.781416 11.3
      vertex 4.22862 1.53909 11.3
    endloop
  endfacet
  facet normal 0 0 1
    outer loop
      vertex 4.5 0 11.3
      vertex 1.5 0 11.3
      vertex 4.43163 -0.781416 11.3
    endloop
  endfacet
  facet normal 0 0 1
    outer loop
      vertex 1.40954 0.51303 11.3
      vertex 4.22862 1.53909 11.3
      vertex 3.89711 2.25 11.3
    endloop
  endfacet
  facet normal -0 0 1
    outer loop
      vertex 1.47721 -0.260471 11.3
      vertex 4.43163 -0.781416 11.3
      vertex 1.5 0 11.3
    endloop
  endfacet
  facet normal 0 0 1
    outer loop
      vertex 1.29904 0.749999 11.3
      vertex 3.89711 2.25 11.3
      vertex 3.4472 2.89254 11.3
    endloop
  endfacet
  facet normal 0 0 1
    outer loop
      vertex 4.43163 -0.781416 11.3
      vertex 1.47721 -0.260471 11.3
      vertex 4.22862 -1.53909 11.3
    endloop
  endfacet
  facet normal 0 0 1
    outer loop
      vertex 1.14907 0.964181 11.3
      vertex 3.4472 2.89254 11.3
      vertex 2.89254 3.4472 11.3
    endloop
  endfacet
  facet normal -0 0 1
    outer loop
      vertex 1.40954 -0.51303 11.3
      vertex 4.22862 -1.53909 11.3
      vertex 1.47721 -0.260471 11.3
    endloop
  endfacet
  facet normal 0 0 1
    outer loop
      vertex 0.964181 1.14907 11.3
      vertex 2.89254 3.4472 11.3
      vertex 2.25 3.89711 11.3
    endloop
  endfacet
  facet normal 0 0 1
    outer loop
      vertex 4.22862 -1.53909 11.3
      vertex 1.40954 -0.51303 11.3
      vertex 3.89711 -2.25 11.3
    endloop
  endfacet
  facet normal 0 0 1
    outer loop
      vertex 0.75 1.29904 11.3
      vertex 2.25 3.89711 11.3
      vertex 1.53909 4.22862 11.3
    endloop
  endfacet
  facet normal -0 0 1
    outer loop
      vertex 1.29904 -0.749999 11.3
      vertex 3.89711 -2.25 11.3
      vertex 1.40954 -0.51303 11.3
    endloop
  endfacet
  facet normal 0 0 1
    outer loop
      vertex 3.89711 -2.25 11.3
      vertex 1.29904 -0.749999 11.3
      vertex 3.4472 -2.89254 11.3
    endloop
  endfacet
  facet normal 0 0 1
    outer loop
      vertex 4.43163 0.781416 11.3
      vertex 1.47721 0.260471 11.3
      vertex 1.5 0 11.3
    endloop
  endfacet
  facet normal 0 0 1
    outer loop
      vertex 4.22862 1.53909 11.3
      vertex 1.40954 0.51303 11.3
      vertex 1.47721 0.260471 11.3
    endloop
  endfacet
  facet normal 0 0 1
    outer loop
      vertex 3.89711 2.25 11.3
      vertex 1.29904 0.749999 11.3
      vertex 1.40954 0.51303 11.3
    endloop
  endfacet
  facet normal 0 0 1
    outer loop
      vertex 3.4472 2.89254 11.3
      vertex 1.14907 0.964181 11.3
      vertex 1.29904 0.749999 11.3
    endloop
  endfacet
  facet normal 0 0 1
    outer loop
      vertex 2.89254 3.4472 11.3
      vertex 0.964181 1.14907 11.3
      vertex 1.14907 0.964181 11.3
    endloop
  endfacet
  facet normal 0 0 1
    outer loop
      vertex 0.51303 1.40954 11.3
      vertex 1.53909 4.22862 11.3
      vertex 0.781416 4.43163 11.3
    endloop
  endfacet
  facet normal 0 0 1
    outer loop
      vertex 2.25 3.89711 11.3
      vertex 0.75 1.29904 11.3
      vertex 0.964181 1.14907 11.3
    endloop
  endfacet
  facet normal 0 0 1
    outer loop
      vertex 1.53909 4.22862 11.3
      vertex 0.51303 1.40954 11.3
      vertex 0.75 1.29904 11.3
    endloop
  endfacet
  facet normal 0 0 1
    outer loop
      vertex 0.781416 4.43163 11.3
      vertex 0.260471 1.47721 11.3
      vertex 0.51303 1.40954 11.3
    endloop
  endfacet
  facet normal 0 0 1
    outer loop
      vertex 0 4.5 11.3
      vertex 0.260471 1.47721 11.3
      vertex 0.781416 4.43163 11.3
    endloop
  endfacet
  facet normal 0 0 1
    outer loop
      vertex 0 4.5 11.3
      vertex 0 1.5 11.3
      vertex 0.260471 1.47721 11.3
    endloop
  endfacet
  facet normal 0 0 1
    outer loop
      vertex 0 4.5 11.3
      vertex -0.260471 1.47721 11.3
      vertex 0 1.5 11.3
    endloop
  endfacet
  facet normal -0 0 1
    outer loop
      vertex -0.781416 4.43163 11.3
      vertex -0.260471 1.47721 11.3
      vertex 0 4.5 11.3
    endloop
  endfacet
  facet normal 0 0 1
    outer loop
      vertex -0.260471 1.47721 11.3
      vertex -0.781416 4.43163 11.3
      vertex -0.51303 1.40954 11.3
    endloop
  endfacet
  facet normal -0 0 1
    outer loop
      vertex -1.53909 4.22862 11.3
      vertex -0.51303 1.40954 11.3
      vertex -0.781416 4.43163 11.3
    endloop
  endfacet
  facet normal 0 0 1
    outer loop
      vertex -0.51303 1.40954 11.3
      vertex -1.53909 4.22862 11.3
      vertex -0.749999 1.29904 11.3
    endloop
  endfacet
  facet normal -0 0 1
    outer loop
      vertex -2.25 3.89711 11.3
      vertex -0.749999 1.29904 11.3
      vertex -1.53909 4.22862 11.3
    endloop
  endfacet
  facet normal 0 0 1
    outer loop
      vertex -0.749999 1.29904 11.3
      vertex -2.25 3.89711 11.3
      vertex -0.964181 1.14907 11.3
    endloop
  endfacet
  facet normal -0 0 1
    outer loop
      vertex -2.89254 3.4472 11.3
      vertex -0.964181 1.14907 11.3
      vertex -2.25 3.89711 11.3
    endloop
  endfacet
  facet normal 0 0 1
    outer loop
      vertex -0.964181 1.14907 11.3
      vertex -2.89254 3.4472 11.3
      vertex -1.14907 0.964181 11.3
    endloop
  endfacet
  facet normal 0 0 1
    outer loop
      vertex -1.14907 0.964181 11.3
      vertex -3.4472 2.89254 11.3
      vertex -1.29904 0.75 11.3
    endloop
  endfacet
  facet normal -0 0 1
    outer loop
      vertex -3.4472 2.89254 11.3
      vertex -1.14907 0.964181 11.3
      vertex -2.89254 3.4472 11.3
    endloop
  endfacet
  facet normal -0 0 1
    outer loop
      vertex 1.14907 -0.964181 11.3
      vertex 3.4472 -2.89254 11.3
      vertex 1.29904 -0.749999 11.3
    endloop
  endfacet
  facet normal 0 0 1
    outer loop
      vertex 3.4472 -2.89254 11.3
      vertex 1.14907 -0.964181 11.3
      vertex 2.89254 -3.4472 11.3
    endloop
  endfacet
  facet normal -0 0 1
    outer loop
      vertex 0.964181 -1.14907 11.3
      vertex 2.89254 -3.4472 11.3
      vertex 1.14907 -0.964181 11.3
    endloop
  endfacet
  facet normal 0 0 1
    outer loop
      vertex 2.89254 -3.4472 11.3
      vertex 0.964181 -1.14907 11.3
      vertex 2.25 -3.89711 11.3
    endloop
  endfacet
  facet normal -0 0 1
    outer loop
      vertex 0.749999 -1.29904 11.3
      vertex 2.25 -3.89711 11.3
      vertex 0.964181 -1.14907 11.3
    endloop
  endfacet
  facet normal 0 0 1
    outer loop
      vertex 2.25 -3.89711 11.3
      vertex 0.749999 -1.29904 11.3
      vertex 1.53909 -4.22862 11.3
    endloop
  endfacet
  facet normal -0 0 1
    outer loop
      vertex 0.51303 -1.40954 11.3
      vertex 1.53909 -4.22862 11.3
      vertex 0.749999 -1.29904 11.3
    endloop
  endfacet
  facet normal 0 0 1
    outer loop
      vertex 1.53909 -4.22862 11.3
      vertex 0.51303 -1.40954 11.3
      vertex 0.781416 -4.43163 11.3
    endloop
  endfacet
  facet normal -0 0 1
    outer loop
      vertex 0.260471 -1.47721 11.3
      vertex 0.781416 -4.43163 11.3
      vertex 0.51303 -1.40954 11.3
    endloop
  endfacet
  facet normal -0 0 1
    outer loop
      vertex 0 -1.5 11.3
      vertex 0.781416 -4.43163 11.3
      vertex 0.260471 -1.47721 11.3
    endloop
  endfacet
  facet normal 0 0 1
    outer loop
      vertex 0 -1.5 11.3
      vertex 0 -4.5 11.3
      vertex 0.781416 -4.43163 11.3
    endloop
  endfacet
  facet normal 0 0 1
    outer loop
      vertex -0.260471 -1.47721 11.3
      vertex 0 -4.5 11.3
      vertex 0 -1.5 11.3
    endloop
  endfacet
  facet normal 0 0 1
    outer loop
      vertex -0.781416 -4.43163 11.3
      vertex -0.260471 -1.47721 11.3
      vertex -0.51303 -1.40954 11.3
    endloop
  endfacet
  facet normal 0 0 1
    outer loop
      vertex -1.53909 -4.22862 11.3
      vertex -0.51303 -1.40954 11.3
      vertex -0.75 -1.29904 11.3
    endloop
  endfacet
  facet normal 0 0 1
    outer loop
      vertex -0.260471 -1.47721 11.3
      vertex -0.781416 -4.43163 11.3
      vertex 0 -4.5 11.3
    endloop
  endfacet
  facet normal 0 0 1
    outer loop
      vertex -2.25 -3.89711 11.3
      vertex -0.75 -1.29904 11.3
      vertex -0.964181 -1.14907 11.3
    endloop
  endfacet
  facet normal 0 0 1
    outer loop
      vertex -2.89254 -3.4472 11.3
      vertex -0.964181 -1.14907 11.3
      vertex -1.14907 -0.964181 11.3
    endloop
  endfacet
  facet normal 0 0 1
    outer loop
      vertex -3.4472 -2.89254 11.3
      vertex -1.14907 -0.964181 11.3
      vertex -1.29904 -0.75 11.3
    endloop
  endfacet
  facet normal 0 0 1
    outer loop
      vertex -3.89711 -2.25 11.3
      vertex -1.29904 -0.75 11.3
      vertex -1.40954 -0.51303 11.3
    endloop
  endfacet
  facet normal 0 0 1
    outer loop
      vertex -4.22862 -1.53909 11.3
      vertex -1.40954 -0.51303 11.3
      vertex -1.47721 -0.260471 11.3
    endloop
  endfacet
  facet normal 0 0 1
    outer loop
      vertex -0.51303 -1.40954 11.3
      vertex -1.53909 -4.22862 11.3
      vertex -0.781416 -4.43163 11.3
    endloop
  endfacet
  facet normal 0 0 1
    outer loop
      vertex -4.43163 -0.781416 11.3
      vertex -1.47721 -0.260471 11.3
      vertex -1.5 0 11.3
    endloop
  endfacet
  facet normal -0 0 1
    outer loop
      vertex -3.89711 2.25 11.3
      vertex -1.29904 0.75 11.3
      vertex -3.4472 2.89254 11.3
    endloop
  endfacet
  facet normal 0 0 1
    outer loop
      vertex -1.29904 0.75 11.3
      vertex -3.89711 2.25 11.3
      vertex -1.40954 0.51303 11.3
    endloop
  endfacet
  facet normal 0 0 1
    outer loop
      vertex -0.75 -1.29904 11.3
      vertex -2.25 -3.89711 11.3
      vertex -1.53909 -4.22862 11.3
    endloop
  endfacet
  facet normal -0 0 1
    outer loop
      vertex -4.22862 1.53909 11.3
      vertex -1.40954 0.51303 11.3
      vertex -3.89711 2.25 11.3
    endloop
  endfacet
  facet normal 0 0 1
    outer loop
      vertex -0.964181 -1.14907 11.3
      vertex -2.89254 -3.4472 11.3
      vertex -2.25 -3.89711 11.3
    endloop
  endfacet
  facet normal 0 0 1
    outer loop
      vertex -1.40954 0.51303 11.3
      vertex -4.22862 1.53909 11.3
      vertex -1.47721 0.260471 11.3
    endloop
  endfacet
  facet normal 0 0 1
    outer loop
      vertex -1.14907 -0.964181 11.3
      vertex -3.4472 -2.89254 11.3
      vertex -2.89254 -3.4472 11.3
    endloop
  endfacet
  facet normal -0 0 1
    outer loop
      vertex -4.43163 0.781416 11.3
      vertex -1.47721 0.260471 11.3
      vertex -4.22862 1.53909 11.3
    endloop
  endfacet
  facet normal 0 0 1
    outer loop
      vertex -1.29904 -0.75 11.3
      vertex -3.89711 -2.25 11.3
      vertex -3.4472 -2.89254 11.3
    endloop
  endfacet
  facet normal 0 0 1
    outer loop
      vertex -1.47721 0.260471 11.3
      vertex -4.43163 0.781416 11.3
      vertex -1.5 0 11.3
    endloop
  endfacet
  facet normal 0 0 1
    outer loop
      vertex -1.40954 -0.51303 11.3
      vertex -4.22862 -1.53909 11.3
      vertex -3.89711 -2.25 11.3
    endloop
  endfacet
  facet normal 0 0 1
    outer loop
      vertex -4.5 0 11.3
      vertex -1.5 0 11.3
      vertex -4.43163 0.781416 11.3
    endloop
  endfacet
  facet normal 0 0 1
    outer loop
      vertex -1.47721 -0.260471 11.3
      vertex -4.43163 -0.781416 11.3
      vertex -4.22862 -1.53909 11.3
    endloop
  endfacet
  facet normal 0 0 1
    outer loop
      vertex -1.5 0 11.3
      vertex -4.5 0 11.3
      vertex -4.43163 -0.781416 11.3
    endloop
  endfacet
  facet normal -0.965926 0.258818 0
    outer loop
      vertex -4.43163 0.781416 0
      vertex -4.22862 1.53909 11.3
      vertex -4.22862 1.53909 0
    endloop
  endfacet
  facet normal -0.965926 0.258818 0
    outer loop
      vertex -4.22862 1.53909 11.3
      vertex -4.43163 0.781416 0
      vertex -4.43163 0.781416 11.3
    endloop
  endfacet
  facet normal -0.819152 0.573576 0
    outer loop
      vertex -3.89711 2.25 0
      vertex -3.4472 2.89254 11.3
      vertex -3.4472 2.89254 0
    endloop
  endfacet
  facet normal -0.819152 0.573576 0
    outer loop
      vertex -3.4472 2.89254 11.3
      vertex -3.89711 2.25 0
      vertex -3.89711 2.25 11.3
    endloop
  endfacet
  facet normal 0.996195 -0.087157 0
    outer loop
      vertex 4.43163 -0.781416 11.3
      vertex 4.5 0 0
      vertex 4.5 0 11.3
    endloop
  endfacet
  facet normal 0.996195 -0.087157 0
    outer loop
      vertex 4.5 0 0
      vertex 4.43163 -0.781416 11.3
      vertex 4.43163 -0.781416 0
    endloop
  endfacet
  facet normal 0.965926 -0.258818 0
    outer loop
      vertex 4.22862 -1.53909 11.3
      vertex 4.43163 -0.781416 0
      vertex 4.43163 -0.781416 11.3
    endloop
  endfacet
  facet normal 0.965926 -0.258818 0
    outer loop
      vertex 4.43163 -0.781416 0
      vertex 4.22862 -1.53909 11.3
      vertex 4.22862 -1.53909 0
    endloop
  endfacet
  facet normal 0.422619 -0.906307 0
    outer loop
      vertex 1.53909 -4.22862 0
      vertex 2.25 -3.89711 11.3
      vertex 1.53909 -4.22862 11.3
    endloop
  endfacet
  facet normal 0.422619 -0.906307 0
    outer loop
      vertex 2.25 -3.89711 11.3
      vertex 1.53909 -4.22862 0
      vertex 2.25 -3.89711 0
    endloop
  endfacet
  facet normal 0.707107 -0.707107 0
    outer loop
      vertex 2.89254 -3.4472 11.3
      vertex 3.4472 -2.89254 0
      vertex 3.4472 -2.89254 11.3
    endloop
  endfacet
  facet normal 0.707107 -0.707107 0
    outer loop
      vertex 3.4472 -2.89254 0
      vertex 2.89254 -3.4472 11.3
      vertex 2.89254 -3.4472 0
    endloop
  endfacet
  facet normal 0.573576 -0.819152 0
    outer loop
      vertex 2.25 -3.89711 0
      vertex 2.89254 -3.4472 11.3
      vertex 2.25 -3.89711 11.3
    endloop
  endfacet
  facet normal 0.573576 -0.819152 0
    outer loop
      vertex 2.89254 -3.4472 11.3
      vertex 2.25 -3.89711 0
      vertex 2.89254 -3.4472 0
    endloop
  endfacet
  facet normal 0.906307 -0.422619 0
    outer loop
      vertex 3.89711 -2.25 11.3
      vertex 4.22862 -1.53909 0
      vertex 4.22862 -1.53909 11.3
    endloop
  endfacet
  facet normal 0.906307 -0.422619 0
    outer loop
      vertex 4.22862 -1.53909 0
      vertex 3.89711 -2.25 11.3
      vertex 3.89711 -2.25 0
    endloop
  endfacet
  facet normal -0.087157 -0.996195 0
    outer loop
      vertex -0.781416 -4.43163 0
      vertex 0 -4.5 11.3
      vertex -0.781416 -4.43163 11.3
    endloop
  endfacet
  facet normal -0.087157 -0.996195 -0
    outer loop
      vertex 0 -4.5 11.3
      vertex -0.781416 -4.43163 0
      vertex 0 -4.5 0
    endloop
  endfacet
  facet normal -0.573576 -0.819152 0
    outer loop
      vertex -2.89254 -3.4472 0
      vertex -2.25 -3.89711 11.3
      vertex -2.89254 -3.4472 11.3
    endloop
  endfacet
  facet normal -0.573576 -0.819152 -0
    outer loop
      vertex -2.25 -3.89711 11.3
      vertex -2.89254 -3.4472 0
      vertex -2.25 -3.89711 0
    endloop
  endfacet
  facet normal -0.965926 -0.258818 0
    outer loop
      vertex -4.22862 -1.53909 0
      vertex -4.43163 -0.781416 11.3
      vertex -4.43163 -0.781416 0
    endloop
  endfacet
  facet normal -0.965926 -0.258818 0
    outer loop
      vertex -4.43163 -0.781416 11.3
      vertex -4.22862 -1.53909 0
      vertex -4.22862 -1.53909 11.3
    endloop
  endfacet
  facet normal -0.819152 -0.573576 0
    outer loop
      vertex -3.4472 -2.89254 0
      vertex -3.89711 -2.25 11.3
      vertex -3.89711 -2.25 0
    endloop
  endfacet
  facet normal -0.819152 -0.573576 0
    outer loop
      vertex -3.89711 -2.25 11.3
      vertex -3.4472 -2.89254 0
      vertex -3.4472 -2.89254 11.3
    endloop
  endfacet
  facet normal -0.422618 -0.906308 0
    outer loop
      vertex -2.25 -3.89711 0
      vertex -1.53909 -4.22862 11.3
      vertex -2.25 -3.89711 11.3
    endloop
  endfacet
  facet normal -0.422618 -0.906308 -0
    outer loop
      vertex -1.53909 -4.22862 11.3
      vertex -2.25 -3.89711 0
      vertex -1.53909 -4.22862 0
    endloop
  endfacet
  facet normal -0.573579 -0.819151 0
    outer loop
      vertex 0.75 1.29904 0
      vertex 0.964181 1.14907 11.3
      vertex 0.75 1.29904 11.3
    endloop
  endfacet
  facet normal -0.573579 -0.819151 -0
    outer loop
      vertex 0.964181 1.14907 11.3
      vertex 0.75 1.29904 0
      vertex 0.964181 1.14907 0
    endloop
  endfacet
  facet normal 0.906309 -0.422616 0
    outer loop
      vertex -1.40954 0.51303 11.3
      vertex -1.29904 0.75 0
      vertex -1.29904 0.75 11.3
    endloop
  endfacet
  facet normal 0.906309 -0.422616 0
    outer loop
      vertex -1.29904 0.75 0
      vertex -1.40954 0.51303 11.3
      vertex -1.40954 0.51303 0
    endloop
  endfacet
  facet normal 0.422616 0.906309 -0
    outer loop
      vertex -0.51303 -1.40954 0
      vertex -0.75 -1.29904 11.3
      vertex -0.51303 -1.40954 11.3
    endloop
  endfacet
  facet normal 0.422616 0.906309 0
    outer loop
      vertex -0.75 -1.29904 11.3
      vertex -0.51303 -1.40954 0
      vertex -0.75 -1.29904 0
    endloop
  endfacet
  facet normal 0.258818 -0.965926 0
    outer loop
      vertex -0.51303 1.40954 0
      vertex -0.260471 1.47721 11.3
      vertex -0.51303 1.40954 11.3
    endloop
  endfacet
  facet normal 0.258818 -0.965926 0
    outer loop
      vertex -0.260471 1.47721 11.3
      vertex -0.51303 1.40954 0
      vertex -0.260471 1.47721 0
    endloop
  endfacet
  facet normal 0.819151 -0.573579 0
    outer loop
      vertex -1.29904 0.75 11.3
      vertex -1.14907 0.964181 0
      vertex -1.14907 0.964181 11.3
    endloop
  endfacet
  facet normal 0.819151 -0.573579 0
    outer loop
      vertex -1.14907 0.964181 0
      vertex -1.29904 0.75 11.3
      vertex -1.29904 0.75 0
    endloop
  endfacet
  facet normal 0.906309 0.422616 0
    outer loop
      vertex -1.29904 -0.75 11.3
      vertex -1.40954 -0.51303 0
      vertex -1.40954 -0.51303 11.3
    endloop
  endfacet
  facet normal 0.906309 0.422616 0
    outer loop
      vertex -1.40954 -0.51303 0
      vertex -1.29904 -0.75 11.3
      vertex -1.29904 -0.75 0
    endloop
  endfacet
  facet normal -0.965926 -0.258818 0
    outer loop
      vertex 1.47721 0.260471 0
      vertex 1.40954 0.51303 11.3
      vertex 1.40954 0.51303 0
    endloop
  endfacet
  facet normal -0.965926 -0.258818 0
    outer loop
      vertex 1.40954 0.51303 11.3
      vertex 1.47721 0.260471 0
      vertex 1.47721 0.260471 11.3
    endloop
  endfacet
  facet normal -0.906308 -0.422618 0
    outer loop
      vertex 1.40954 0.51303 0
      vertex 1.29904 0.749999 11.3
      vertex 1.29904 0.749999 0
    endloop
  endfacet
  facet normal -0.906308 -0.422618 0
    outer loop
      vertex 1.29904 0.749999 11.3
      vertex 1.40954 0.51303 0
      vertex 1.40954 0.51303 11.3
    endloop
  endfacet
  facet normal -0.819152 -0.573577 0
    outer loop
      vertex 1.29904 0.749999 0
      vertex 1.14907 0.964181 11.3
      vertex 1.14907 0.964181 0
    endloop
  endfacet
  facet normal -0.819152 -0.573577 0
    outer loop
      vertex 1.14907 0.964181 11.3
      vertex 1.29904 0.749999 0
      vertex 1.29904 0.749999 11.3
    endloop
  endfacet
  facet normal -0.707107 -0.707107 0
    outer loop
      vertex 1.14907 0.964181 0
      vertex 0.964181 1.14907 11.3
      vertex 0.964181 1.14907 0
    endloop
  endfacet
  facet normal -0.707107 -0.707107 0
    outer loop
      vertex 0.964181 1.14907 11.3
      vertex 1.14907 0.964181 0
      vertex 1.14907 0.964181 11.3
    endloop
  endfacet
  facet normal -0.422616 -0.906309 0
    outer loop
      vertex 0.51303 1.40954 0
      vertex 0.75 1.29904 11.3
      vertex 0.51303 1.40954 11.3
    endloop
  endfacet
  facet normal -0.422616 -0.906309 -0
    outer loop
      vertex 0.75 1.29904 11.3
      vertex 0.51303 1.40954 0
      vertex 0.75 1.29904 0
    endloop
  endfacet
  facet normal -0.0871584 -0.996194 0
    outer loop
      vertex 0 1.5 0
      vertex 0.260471 1.47721 11.3
      vertex 0 1.5 11.3
    endloop
  endfacet
  facet normal -0.0871584 -0.996194 -0
    outer loop
      vertex 0.260471 1.47721 11.3
      vertex 0 1.5 0
      vertex 0.260471 1.47721 0
    endloop
  endfacet
  facet normal 0.707107 -0.707107 0
    outer loop
      vertex -1.14907 0.964181 11.3
      vertex -0.964181 1.14907 0
      vertex -0.964181 1.14907 11.3
    endloop
  endfacet
  facet normal 0.707107 -0.707107 0
    outer loop
      vertex -0.964181 1.14907 0
      vertex -1.14907 0.964181 11.3
      vertex -1.14907 0.964181 0
    endloop
  endfacet
  facet normal 0.422618 -0.906308 0
    outer loop
      vertex -0.749999 1.29904 0
      vertex -0.51303 1.40954 11.3
      vertex -0.749999 1.29904 11.3
    endloop
  endfacet
  facet normal 0.422618 -0.906308 0
    outer loop
      vertex -0.51303 1.40954 11.3
      vertex -0.749999 1.29904 0
      vertex -0.51303 1.40954 0
    endloop
  endfacet
  facet normal 0.0871584 -0.996194 0
    outer loop
      vertex -0.260471 1.47721 0
      vertex 0 1.5 11.3
      vertex -0.260471 1.47721 11.3
    endloop
  endfacet
  facet normal 0.0871584 -0.996194 0
    outer loop
      vertex 0 1.5 11.3
      vertex -0.260471 1.47721 0
      vertex 0 1.5 0
    endloop
  endfacet
  facet normal 0.573577 -0.819152 0
    outer loop
      vertex -0.964181 1.14907 0
      vertex -0.749999 1.29904 11.3
      vertex -0.964181 1.14907 11.3
    endloop
  endfacet
  facet normal 0.573577 -0.819152 0
    outer loop
      vertex -0.749999 1.29904 11.3
      vertex -0.964181 1.14907 0
      vertex -0.749999 1.29904 0
    endloop
  endfacet
  facet normal -0.996194 -0.0871584 0
    outer loop
      vertex 1.5 0 0
      vertex 1.47721 0.260471 11.3
      vertex 1.47721 0.260471 0
    endloop
  endfacet
  facet normal -0.996194 -0.0871584 0
    outer loop
      vertex 1.47721 0.260471 11.3
      vertex 1.5 0 0
      vertex 1.5 0 11.3
    endloop
  endfacet
  facet normal -0.422618 0.906308 0
    outer loop
      vertex 0.749999 -1.29904 0
      vertex 0.51303 -1.40954 11.3
      vertex 0.749999 -1.29904 11.3
    endloop
  endfacet
  facet normal -0.422618 0.906308 0
    outer loop
      vertex 0.51303 -1.40954 11.3
      vertex 0.749999 -1.29904 0
      vertex 0.51303 -1.40954 0
    endloop
  endfacet
  facet normal -0.573577 0.819152 0
    outer loop
      vertex 0.964181 -1.14907 0
      vertex 0.749999 -1.29904 11.3
      vertex 0.964181 -1.14907 11.3
    endloop
  endfacet
  facet normal -0.573577 0.819152 0
    outer loop
      vertex 0.749999 -1.29904 11.3
      vertex 0.964181 -1.14907 0
      vertex 0.749999 -1.29904 0
    endloop
  endfacet
  facet normal -0.819152 0.573577 0
    outer loop
      vertex 1.14907 -0.964181 0
      vertex 1.29904 -0.749999 11.3
      vertex 1.29904 -0.749999 0
    endloop
  endfacet
  facet normal -0.819152 0.573577 0
    outer loop
      vertex 1.29904 -0.749999 11.3
      vertex 1.14907 -0.964181 0
      vertex 1.14907 -0.964181 11.3
    endloop
  endfacet
  facet normal 0.707107 0.707107 0
    outer loop
      vertex -0.964181 -1.14907 11.3
      vertex -1.14907 -0.964181 0
      vertex -1.14907 -0.964181 11.3
    endloop
  endfacet
  facet normal 0.707107 0.707107 0
    outer loop
      vertex -1.14907 -0.964181 0
      vertex -0.964181 -1.14907 11.3
      vertex -0.964181 -1.14907 0
    endloop
  endfacet
  facet normal 0.573579 0.819151 -0
    outer loop
      vertex -0.75 -1.29904 0
      vertex -0.964181 -1.14907 11.3
      vertex -0.75 -1.29904 11.3
    endloop
  endfacet
  facet normal 0.573579 0.819151 0
    outer loop
      vertex -0.964181 -1.14907 11.3
      vertex -0.75 -1.29904 0
      vertex -0.964181 -1.14907 0
    endloop
  endfacet
  facet normal 0.996194 0.0871584 0
    outer loop
      vertex -1.47721 -0.260471 11.3
      vertex -1.5 0 0
      vertex -1.5 0 11.3
    endloop
  endfacet
  facet normal 0.996194 0.0871584 0
    outer loop
      vertex -1.5 0 0
      vertex -1.47721 -0.260471 11.3
      vertex -1.47721 -0.260471 0
    endloop
  endfacet
  facet normal -0.258818 -0.965926 0
    outer loop
      vertex 0.260471 1.47721 0
      vertex 0.51303 1.40954 11.3
      vertex 0.260471 1.47721 11.3
    endloop
  endfacet
  facet normal -0.258818 -0.965926 -0
    outer loop
      vertex 0.51303 1.40954 11.3
      vertex 0.260471 1.47721 0
      vertex 0.51303 1.40954 0
    endloop
  endfacet
  facet normal 0.996194 -0.0871584 0
    outer loop
      vertex -1.5 0 11.3
      vertex -1.47721 0.260471 0
      vertex -1.47721 0.260471 11.3
    endloop
  endfacet
  facet normal 0.996194 -0.0871584 0
    outer loop
      vertex -1.47721 0.260471 0
      vertex -1.5 0 11.3
      vertex -1.5 0 0
    endloop
  endfacet
  facet normal -0.996194 0.0871584 0
    outer loop
      vertex 1.47721 -0.260471 0
      vertex 1.5 0 11.3
      vertex 1.5 0 0
    endloop
  endfacet
  facet normal -0.996194 0.0871584 0
    outer loop
      vertex 1.5 0 11.3
      vertex 1.47721 -0.260471 0
      vertex 1.47721 -0.260471 11.3
    endloop
  endfacet
  facet normal -0.965926 0.258818 0
    outer loop
      vertex 1.40954 -0.51303 0
      vertex 1.47721 -0.260471 11.3
      vertex 1.47721 -0.260471 0
    endloop
  endfacet
  facet normal -0.965926 0.258818 0
    outer loop
      vertex 1.47721 -0.260471 11.3
      vertex 1.40954 -0.51303 0
      vertex 1.40954 -0.51303 11.3
    endloop
  endfacet
  facet normal -0.0871584 0.996194 0
    outer loop
      vertex 0.260471 -1.47721 0
      vertex 0 -1.5 11.3
      vertex 0.260471 -1.47721 11.3
    endloop
  endfacet
  facet normal -0.0871584 0.996194 0
    outer loop
      vertex 0 -1.5 11.3
      vertex 0.260471 -1.47721 0
      vertex 0 -1.5 0
    endloop
  endfacet
  facet normal -0.258818 0.965926 0
    outer loop
      vertex 0.51303 -1.40954 0
      vertex 0.260471 -1.47721 11.3
      vertex 0.51303 -1.40954 11.3
    endloop
  endfacet
  facet normal -0.258818 0.965926 0
    outer loop
      vertex 0.260471 -1.47721 11.3
      vertex 0.51303 -1.40954 0
      vertex 0.260471 -1.47721 0
    endloop
  endfacet
  facet normal -0.707107 0.707107 0
    outer loop
      vertex 0.964181 -1.14907 0
      vertex 1.14907 -0.964181 11.3
      vertex 1.14907 -0.964181 0
    endloop
  endfacet
  facet normal -0.707107 0.707107 0
    outer loop
      vertex 1.14907 -0.964181 11.3
      vertex 0.964181 -1.14907 0
      vertex 0.964181 -1.14907 11.3
    endloop
  endfacet
  facet normal -0.906308 0.422618 0
    outer loop
      vertex 1.29904 -0.749999 0
      vertex 1.40954 -0.51303 11.3
      vertex 1.40954 -0.51303 0
    endloop
  endfacet
  facet normal -0.906308 0.422618 0
    outer loop
      vertex 1.40954 -0.51303 11.3
      vertex 1.29904 -0.749999 0
      vertex 1.29904 -0.749999 11.3
    endloop
  endfacet
  facet normal 0.258818 0.965926 -0
    outer loop
      vertex -0.260471 -1.47721 0
      vertex -0.51303 -1.40954 11.3
      vertex -0.260471 -1.47721 11.3
    endloop
  endfacet
  facet normal 0.258818 0.965926 0
    outer loop
      vertex -0.51303 -1.40954 11.3
      vertex -0.260471 -1.47721 0
      vertex -0.51303 -1.40954 0
    endloop
  endfacet
  facet normal 0.0871584 0.996194 -0
    outer loop
      vertex 0 -1.5 0
      vertex -0.260471 -1.47721 11.3
      vertex 0 -1.5 11.3
    endloop
  endfacet
  facet normal 0.0871584 0.996194 0
    outer loop
      vertex -0.260471 -1.47721 11.3
      vertex 0 -1.5 0
      vertex -0.260471 -1.47721 0
    endloop
  endfacet
  facet normal 0.965926 0.258818 0
    outer loop
      vertex -1.40954 -0.51303 11.3
      vertex -1.47721 -0.260471 0
      vertex -1.47721 -0.260471 11.3
    endloop
  endfacet
  facet normal 0.965926 0.258818 0
    outer loop
      vertex -1.47721 -0.260471 0
      vertex -1.40954 -0.51303 11.3
      vertex -1.40954 -0.51303 0
    endloop
  endfacet
  facet normal 0.819151 0.573579 0
    outer loop
      vertex -1.14907 -0.964181 11.3
      vertex -1.29904 -0.75 0
      vertex -1.29904 -0.75 11.3
    endloop
  endfacet
  facet normal 0.819151 0.573579 0
    outer loop
      vertex -1.29904 -0.75 0
      vertex -1.14907 -0.964181 11.3
      vertex -1.14907 -0.964181 0
    endloop
  endfacet
  facet normal 0.965926 -0.258818 0
    outer loop
      vertex -1.47721 0.260471 11.3
      vertex -1.40954 0.51303 0
      vertex -1.40954 0.51303 11.3
    endloop
  endfacet
  facet normal 0.965926 -0.258818 0
    outer loop
      vertex -1.40954 0.51303 0
      vertex -1.47721 0.260471 11.3
      vertex -1.47721 0.260471 0
    endloop
  endfacet
endsolid OpenSCAD_Model
