solid OpenSCAD_Model
  facet normal 0.996195 -0.0871558 0
    outer loop
      vertex 3.93923 3.30541 11.3
      vertex 4 4 0
      vertex 4 4 11.3
    endloop
  endfacet
  facet normal 0.996195 -0.0871558 0
    outer loop
      vertex 4 4 0
      vertex 3.93923 3.30541 11.3
      vertex 3.93923 3.30541 0
    endloop
  endfacet
  facet normal 0 0 -1
    outer loop
      vertex 1.29904 4.75 0
      vertex 4 4 0
      vertex 1.40954 4.51303 0
    endloop
  endfacet
  facet normal -0 0 -1
    outer loop
      vertex 4 17.97 0
      vertex 1.47721 17.7095 0
      vertex 1.5 17.97 0
    endloop
  endfacet
  facet normal 0 0 -1
    outer loop
      vertex 1.14907 4.96418 0
      vertex 4 4 0
      vertex 1.29904 4.75 0
    endloop
  endfacet
  facet normal 0 0 -1
    outer loop
      vertex 4 17.97 0
      vertex 1.40954 17.457 0
      vertex 1.47721 17.7095 0
    endloop
  endfacet
  facet normal 0 0 -1
    outer loop
      vertex 0.964181 5.14907 0
      vertex 4 4 0
      vertex 1.14907 4.96418 0
    endloop
  endfacet
  facet normal 0 0 -1
    outer loop
      vertex 4 17.97 0
      vertex 1.29904 17.22 0
      vertex 1.40954 17.457 0
    endloop
  endfacet
  facet normal 0 0 -1
    outer loop
      vertex 4 4 0
      vertex 0.964181 5.14907 0
      vertex 4 17.97 0
    endloop
  endfacet
  facet normal 0 0 -1
    outer loop
      vertex 4 17.97 0
      vertex 1.14907 17.0058 0
      vertex 1.29904 17.22 0
    endloop
  endfacet
  facet normal 0 0 -1
    outer loop
      vertex 0.964181 16.8209 0
      vertex 4 17.97 0
      vertex 0.964181 5.14907 0
    endloop
  endfacet
  facet normal 0 0 -1
    outer loop
      vertex 4 17.97 0
      vertex 0.964181 16.8209 0
      vertex 1.14907 17.0058 0
    endloop
  endfacet
  facet normal 0 0 -1
    outer loop
      vertex 0.75 5.29904 0
      vertex 0.964181 16.8209 0
      vertex 0.964181 5.14907 0
    endloop
  endfacet
  facet normal 0 0 -1
    outer loop
      vertex 0.75 5.29904 0
      vertex 0.749999 16.671 0
      vertex 0.964181 16.8209 0
    endloop
  endfacet
  facet normal 0 0 -1
    outer loop
      vertex 0.51303 5.40954 0
      vertex 0.749999 16.671 0
      vertex 0.75 5.29904 0
    endloop
  endfacet
  facet normal 0 0 -1
    outer loop
      vertex 0.51303 5.40954 0
      vertex 0.51303 16.5605 0
      vertex 0.749999 16.671 0
    endloop
  endfacet
  facet normal 0 0 -1
    outer loop
      vertex 0.260471 5.47721 0
      vertex 0.51303 16.5605 0
      vertex 0.51303 5.40954 0
    endloop
  endfacet
  facet normal 0 0 -1
    outer loop
      vertex 0.260471 5.47721 0
      vertex 0.260471 16.4928 0
      vertex 0.51303 16.5605 0
    endloop
  endfacet
  facet normal 0 0 -1
    outer loop
      vertex 0 5.5 0
      vertex 0.260471 16.4928 0
      vertex 0.260471 5.47721 0
    endloop
  endfacet
  facet normal 0 0 -1
    outer loop
      vertex 0 5.5 0
      vertex 0 16.47 0
      vertex 0.260471 16.4928 0
    endloop
  endfacet
  facet normal 0 0 -1
    outer loop
      vertex -0.260471 5.47721 0
      vertex 0 16.47 0
      vertex 0 5.5 0
    endloop
  endfacet
  facet normal 0 0 -1
    outer loop
      vertex -0.260471 5.47721 0
      vertex -0.260471 16.4928 0
      vertex 0 16.47 0
    endloop
  endfacet
  facet normal 0 0 -1
    outer loop
      vertex -0.51303 5.40954 0
      vertex -0.260471 16.4928 0
      vertex -0.260471 5.47721 0
    endloop
  endfacet
  facet normal 0 0 -1
    outer loop
      vertex -0.51303 5.40954 0
      vertex -0.51303 16.5605 0
      vertex -0.260471 16.4928 0
    endloop
  endfacet
  facet normal 0 0 -1
    outer loop
      vertex -0.749999 5.29904 0
      vertex -0.51303 16.5605 0
      vertex -0.51303 5.40954 0
    endloop
  endfacet
  facet normal 0 0 -1
    outer loop
      vertex -0.749999 5.29904 0
      vertex -0.75 16.671 0
      vertex -0.51303 16.5605 0
    endloop
  endfacet
  facet normal 0 0 -1
    outer loop
      vertex -0.964181 5.14907 0
      vertex -0.75 16.671 0
      vertex -0.749999 5.29904 0
    endloop
  endfacet
  facet normal 0 0 -1
    outer loop
      vertex -0.964181 5.14907 0
      vertex -0.964181 16.8209 0
      vertex -0.75 16.671 0
    endloop
  endfacet
  facet normal 0 0 -1
    outer loop
      vertex -4 4 0
      vertex -0.964181 5.14907 0
      vertex -1.14907 4.96418 0
    endloop
  endfacet
  facet normal -0 0 -1
    outer loop
      vertex -0.964181 5.14907 0
      vertex -4 4 0
      vertex -0.964181 16.8209 0
    endloop
  endfacet
  facet normal 0 0 -1
    outer loop
      vertex -4 4 0
      vertex -1.14907 4.96418 0
      vertex -1.29904 4.75 0
    endloop
  endfacet
  facet normal 0 0 -1
    outer loop
      vertex -4 17.97 0
      vertex -0.964181 16.8209 0
      vertex -4 4 0
    endloop
  endfacet
  facet normal 0 0 -1
    outer loop
      vertex -4 4 0
      vertex -1.29904 4.75 0
      vertex -1.40954 4.51303 0
    endloop
  endfacet
  facet normal 0 0 -1
    outer loop
      vertex -0.964181 16.8209 0
      vertex -4 17.97 0
      vertex -1.14907 17.0058 0
    endloop
  endfacet
  facet normal 0 0 -1
    outer loop
      vertex -4 4 0
      vertex -1.40954 4.51303 0
      vertex -1.47721 4.26047 0
    endloop
  endfacet
  facet normal 0 0 -1
    outer loop
      vertex -1.14907 17.0058 0
      vertex -4 17.97 0
      vertex -1.29904 17.22 0
    endloop
  endfacet
  facet normal 0 0 -1
    outer loop
      vertex -4 4 0
      vertex -1.47721 4.26047 0
      vertex -1.5 4 0
    endloop
  endfacet
  facet normal 0 0 -1
    outer loop
      vertex -1.29904 17.22 0
      vertex -4 17.97 0
      vertex -1.40954 17.457 0
    endloop
  endfacet
  facet normal 0 0 -1
    outer loop
      vertex 3.93923 3.30541 0
      vertex 1.47721 3.73953 0
      vertex 1.5 4 0
    endloop
  endfacet
  facet normal 0 0 -1
    outer loop
      vertex 2.57115 0.935822 0
      vertex 1.40954 3.48697 0
      vertex 1.47721 3.73953 0
    endloop
  endfacet
  facet normal 0 0 -1
    outer loop
      vertex 0.749999 2.70096 0
      vertex 2 0.535898 0
      vertex 1.36808 0.241229 0
    endloop
  endfacet
  facet normal 0 0 -1
    outer loop
      vertex 2.57115 0.935822 0
      vertex 1.29904 3.25 0
      vertex 1.40954 3.48697 0
    endloop
  endfacet
  facet normal 0 0 -1
    outer loop
      vertex 2.57115 0.935822 0
      vertex 1.14907 3.03582 0
      vertex 1.29904 3.25 0
    endloop
  endfacet
  facet normal 0 0 -1
    outer loop
      vertex 2.57115 0.935822 0
      vertex 0.964181 2.85093 0
      vertex 1.14907 3.03582 0
    endloop
  endfacet
  facet normal 0 0 -1
    outer loop
      vertex 2 0.535898 0
      vertex 0.749999 2.70096 0
      vertex 0.964181 2.85093 0
    endloop
  endfacet
  facet normal 0 0 -1
    outer loop
      vertex 0.51303 2.59046 0
      vertex 1.36808 0.241229 0
      vertex 0.694592 0.0607681 0
    endloop
  endfacet
  facet normal 0 0 -1
    outer loop
      vertex 1.36808 0.241229 0
      vertex 0.51303 2.59046 0
      vertex 0.749999 2.70096 0
    endloop
  endfacet
  facet normal 0 0 -1
    outer loop
      vertex 0.694592 0.0607681 0
      vertex 0.260471 2.52279 0
      vertex 0.51303 2.59046 0
    endloop
  endfacet
  facet normal 0 0 -1
    outer loop
      vertex 0 0 0
      vertex 0.260471 2.52279 0
      vertex 0.694592 0.0607681 0
    endloop
  endfacet
  facet normal 0 0 -1
    outer loop
      vertex 0 0 0
      vertex 0 2.5 0
      vertex 0.260471 2.52279 0
    endloop
  endfacet
  facet normal 0 0 -1
    outer loop
      vertex 0 0 0
      vertex -0.260471 2.52279 0
      vertex 0 2.5 0
    endloop
  endfacet
  facet normal 0 0 -1
    outer loop
      vertex -0.694592 0.0607681 0
      vertex -0.260471 2.52279 0
      vertex 0 0 0
    endloop
  endfacet
  facet normal -0 0 -1
    outer loop
      vertex -0.260471 2.52279 0
      vertex -0.694592 0.0607681 0
      vertex -0.51303 2.59046 0
    endloop
  endfacet
  facet normal 0 0 -1
    outer loop
      vertex -1.36808 0.241229 0
      vertex -0.51303 2.59046 0
      vertex -0.694592 0.0607681 0
    endloop
  endfacet
  facet normal -0 0 -1
    outer loop
      vertex -0.51303 2.59046 0
      vertex -1.36808 0.241229 0
      vertex -0.75 2.70096 0
    endloop
  endfacet
  facet normal 0 0 -1
    outer loop
      vertex -2 0.535898 0
      vertex -0.75 2.70096 0
      vertex -1.36808 0.241229 0
    endloop
  endfacet
  facet normal -0 0 -1
    outer loop
      vertex -0.75 2.70096 0
      vertex -2 0.535898 0
      vertex -0.964181 2.85093 0
    endloop
  endfacet
  facet normal 0 0 -1
    outer loop
      vertex -2.57115 0.935822 0
      vertex -0.964181 2.85093 0
      vertex -2 0.535898 0
    endloop
  endfacet
  facet normal -0 0 -1
    outer loop
      vertex -0.964181 2.85093 0
      vertex -2.57115 0.935822 0
      vertex -1.14907 3.03582 0
    endloop
  endfacet
  facet normal 0 0 -1
    outer loop
      vertex -3.06418 1.42885 0
      vertex -1.14907 3.03582 0
      vertex -2.57115 0.935822 0
    endloop
  endfacet
  facet normal -0 0 -1
    outer loop
      vertex -1.14907 3.03582 0
      vertex -3.06418 1.42885 0
      vertex -1.29904 3.25 0
    endloop
  endfacet
  facet normal 0 0 -1
    outer loop
      vertex -1.47721 17.7095 0
      vertex -4 17.97 0
      vertex -1.5 17.97 0
    endloop
  endfacet
  facet normal 0 0 -1
    outer loop
      vertex -3.4641 2 0
      vertex -1.29904 3.25 0
      vertex -3.06418 1.42885 0
    endloop
  endfacet
  facet normal -0 0 -1
    outer loop
      vertex -1.29904 3.25 0
      vertex -3.4641 2 0
      vertex -1.40954 3.48697 0
    endloop
  endfacet
  facet normal 0 0 -1
    outer loop
      vertex -3.75877 2.63192 0
      vertex -1.40954 3.48697 0
      vertex -3.4641 2 0
    endloop
  endfacet
  facet normal 0 0 -1
    outer loop
      vertex -1.40954 17.457 0
      vertex -4 17.97 0
      vertex -1.47721 17.7095 0
    endloop
  endfacet
  facet normal -0 0 -1
    outer loop
      vertex -1.40954 3.48697 0
      vertex -3.75877 2.63192 0
      vertex -1.47721 3.73953 0
    endloop
  endfacet
  facet normal 0 -0 -1
    outer loop
      vertex -3.93923 18.6646 0
      vertex -1.5 17.97 0
      vertex -4 17.97 0
    endloop
  endfacet
  facet normal 0 0 -1
    outer loop
      vertex -3.93923 3.30541 0
      vertex -1.47721 3.73953 0
      vertex -3.75877 2.63192 0
    endloop
  endfacet
  facet normal 0 0 -1
    outer loop
      vertex -1.5 17.97 0
      vertex -2.57115 21.0342 0
      vertex -2 21.4341 0
    endloop
  endfacet
  facet normal -0 0 -1
    outer loop
      vertex -1.47721 3.73953 0
      vertex -3.93923 3.30541 0
      vertex -1.5 4 0
    endloop
  endfacet
  facet normal 0 0 -1
    outer loop
      vertex -1.5 17.97 0
      vertex -3.06418 20.5411 0
      vertex -2.57115 21.0342 0
    endloop
  endfacet
  facet normal -0 0 -1
    outer loop
      vertex -1.5 4 0
      vertex -3.93923 3.30541 0
      vertex -4 4 0
    endloop
  endfacet
  facet normal 0 0 -1
    outer loop
      vertex -1.5 17.97 0
      vertex -3.4641 19.97 0
      vertex -3.06418 20.5411 0
    endloop
  endfacet
  facet normal 0 0 -1
    outer loop
      vertex -1.5 17.97 0
      vertex -3.75877 19.3381 0
      vertex -3.4641 19.97 0
    endloop
  endfacet
  facet normal 0 0 -1
    outer loop
      vertex -1.5 17.97 0
      vertex -3.93923 18.6646 0
      vertex -3.75877 19.3381 0
    endloop
  endfacet
  facet normal 0 0 -1
    outer loop
      vertex 1.5 4 0
      vertex 4 4 0
      vertex 3.93923 3.30541 0
    endloop
  endfacet
  facet normal 0 0 -1
    outer loop
      vertex 1.47721 4.26047 0
      vertex 4 4 0
      vertex 1.5 4 0
    endloop
  endfacet
  facet normal 0 0 -1
    outer loop
      vertex 1.47721 3.73953 0
      vertex 3.93923 3.30541 0
      vertex 3.75877 2.63192 0
    endloop
  endfacet
  facet normal 0 0 -1
    outer loop
      vertex 1.40954 4.51303 0
      vertex 4 4 0
      vertex 1.47721 4.26047 0
    endloop
  endfacet
  facet normal 0 0 -1
    outer loop
      vertex 1.47721 3.73953 0
      vertex 3.75877 2.63192 0
      vertex 3.4641 2 0
    endloop
  endfacet
  facet normal 0 0 -1
    outer loop
      vertex 4 17.97 0
      vertex 1.5 17.97 0
      vertex 3.93923 18.6646 0
    endloop
  endfacet
  facet normal 0 0 -1
    outer loop
      vertex 1.47721 3.73953 0
      vertex 3.4641 2 0
      vertex 3.06418 1.42885 0
    endloop
  endfacet
  facet normal 0 0 -1
    outer loop
      vertex 1.47721 18.2305 0
      vertex 3.93923 18.6646 0
      vertex 1.5 17.97 0
    endloop
  endfacet
  facet normal 0 0 -1
    outer loop
      vertex 1.47721 3.73953 0
      vertex 3.06418 1.42885 0
      vertex 2.57115 0.935822 0
    endloop
  endfacet
  facet normal -0 0 -1
    outer loop
      vertex 3.93923 18.6646 0
      vertex 1.47721 18.2305 0
      vertex 3.75877 19.3381 0
    endloop
  endfacet
  facet normal -0 0 -1
    outer loop
      vertex 3.75877 19.3381 0
      vertex 1.40954 18.483 0
      vertex 3.4641 19.97 0
    endloop
  endfacet
  facet normal 0 0 -1
    outer loop
      vertex 0.964181 2.85093 0
      vertex 2.57115 0.935822 0
      vertex 2 0.535898 0
    endloop
  endfacet
  facet normal 0 0 -1
    outer loop
      vertex 1.40954 18.483 0
      vertex 3.75877 19.3381 0
      vertex 1.47721 18.2305 0
    endloop
  endfacet
  facet normal 0 0 -1
    outer loop
      vertex 1.29904 18.72 0
      vertex 3.4641 19.97 0
      vertex 1.40954 18.483 0
    endloop
  endfacet
  facet normal -0 0 -1
    outer loop
      vertex 3.4641 19.97 0
      vertex 1.29904 18.72 0
      vertex 3.06418 20.5411 0
    endloop
  endfacet
  facet normal 0 0 -1
    outer loop
      vertex 1.14907 18.9342 0
      vertex 3.06418 20.5411 0
      vertex 1.29904 18.72 0
    endloop
  endfacet
  facet normal -0 0 -1
    outer loop
      vertex 3.06418 20.5411 0
      vertex 1.14907 18.9342 0
      vertex 2.57115 21.0342 0
    endloop
  endfacet
  facet normal 0 0 -1
    outer loop
      vertex 0.964181 19.1191 0
      vertex 2.57115 21.0342 0
      vertex 1.14907 18.9342 0
    endloop
  endfacet
  facet normal -0 0 -1
    outer loop
      vertex 2.57115 21.0342 0
      vertex 0.964181 19.1191 0
      vertex 2 21.4341 0
    endloop
  endfacet
  facet normal 0 0 -1
    outer loop
      vertex 0.75 19.269 0
      vertex 2 21.4341 0
      vertex 0.964181 19.1191 0
    endloop
  endfacet
  facet normal -0 0 -1
    outer loop
      vertex 2 21.4341 0
      vertex 0.75 19.269 0
      vertex 1.36808 21.7288 0
    endloop
  endfacet
  facet normal 0 0 -1
    outer loop
      vertex 0.51303 19.3795 0
      vertex 1.36808 21.7288 0
      vertex 0.75 19.269 0
    endloop
  endfacet
  facet normal -0 0 -1
    outer loop
      vertex 1.36808 21.7288 0
      vertex 0.51303 19.3795 0
      vertex 0.694592 21.9092 0
    endloop
  endfacet
  facet normal 0 0 -1
    outer loop
      vertex 0.260471 19.4472 0
      vertex 0.694592 21.9092 0
      vertex 0.51303 19.3795 0
    endloop
  endfacet
  facet normal 0 0 -1
    outer loop
      vertex 0 19.47 0
      vertex 0.694592 21.9092 0
      vertex 0.260471 19.4472 0
    endloop
  endfacet
  facet normal 0 0 -1
    outer loop
      vertex 0 19.47 0
      vertex 0 21.97 0
      vertex 0.694592 21.9092 0
    endloop
  endfacet
  facet normal 0 0 -1
    outer loop
      vertex -0.260471 19.4472 0
      vertex 0 21.97 0
      vertex 0 19.47 0
    endloop
  endfacet
  facet normal 0 0 -1
    outer loop
      vertex -0.694592 21.9092 0
      vertex -0.260471 19.4472 0
      vertex -0.51303 19.3795 0
    endloop
  endfacet
  facet normal 0 0 -1
    outer loop
      vertex -0.260471 19.4472 0
      vertex -0.694592 21.9092 0
      vertex 0 21.97 0
    endloop
  endfacet
  facet normal 0 0 -1
    outer loop
      vertex -1.36808 21.7288 0
      vertex -0.51303 19.3795 0
      vertex -0.749999 19.269 0
    endloop
  endfacet
  facet normal 0 0 -1
    outer loop
      vertex -2 21.4341 0
      vertex -0.749999 19.269 0
      vertex -0.964181 19.1191 0
    endloop
  endfacet
  facet normal 0 0 -1
    outer loop
      vertex -2 21.4341 0
      vertex -0.964181 19.1191 0
      vertex -1.14907 18.9342 0
    endloop
  endfacet
  facet normal 0 0 -1
    outer loop
      vertex -2 21.4341 0
      vertex -1.14907 18.9342 0
      vertex -1.29904 18.72 0
    endloop
  endfacet
  facet normal 0 0 -1
    outer loop
      vertex -0.51303 19.3795 0
      vertex -1.36808 21.7288 0
      vertex -0.694592 21.9092 0
    endloop
  endfacet
  facet normal 0 0 -1
    outer loop
      vertex -2 21.4341 0
      vertex -1.29904 18.72 0
      vertex -1.40954 18.483 0
    endloop
  endfacet
  facet normal 0 0 -1
    outer loop
      vertex -2 21.4341 0
      vertex -1.40954 18.483 0
      vertex -1.47721 18.2305 0
    endloop
  endfacet
  facet normal 0 0 -1
    outer loop
      vertex -2 21.4341 0
      vertex -1.47721 18.2305 0
      vertex -1.5 17.97 0
    endloop
  endfacet
  facet normal 0 0 -1
    outer loop
      vertex -0.749999 19.269 0
      vertex -2 21.4341 0
      vertex -1.36808 21.7288 0
    endloop
  endfacet
  facet normal 0 0 1
    outer loop
      vertex 1.29904 17.22 11.3
      vertex 4 17.97 11.3
      vertex 1.40954 17.457 11.3
    endloop
  endfacet
  facet normal 0 0 1
    outer loop
      vertex 4 4 11.3
      vertex 1.47721 4.26047 11.3
      vertex 1.5 4 11.3
    endloop
  endfacet
  facet normal 0 0 1
    outer loop
      vertex 1.14907 17.0058 11.3
      vertex 4 17.97 11.3
      vertex 1.29904 17.22 11.3
    endloop
  endfacet
  facet normal 0 0 1
    outer loop
      vertex 4 4 11.3
      vertex 1.40954 4.51303 11.3
      vertex 1.47721 4.26047 11.3
    endloop
  endfacet
  facet normal 0 0 1
    outer loop
      vertex 0.964181 16.8209 11.3
      vertex 4 17.97 11.3
      vertex 1.14907 17.0058 11.3
    endloop
  endfacet
  facet normal 0 0 1
    outer loop
      vertex 4 4 11.3
      vertex 1.29904 4.75 11.3
      vertex 1.40954 4.51303 11.3
    endloop
  endfacet
  facet normal 0 0 1
    outer loop
      vertex 4 17.97 11.3
      vertex 0.964181 16.8209 11.3
      vertex 4 4 11.3
    endloop
  endfacet
  facet normal 0 0 1
    outer loop
      vertex 4 4 11.3
      vertex 1.14907 4.96418 11.3
      vertex 1.29904 4.75 11.3
    endloop
  endfacet
  facet normal -0 0 1
    outer loop
      vertex 0.964181 5.14907 11.3
      vertex 4 4 11.3
      vertex 0.964181 16.8209 11.3
    endloop
  endfacet
  facet normal 0 0 1
    outer loop
      vertex 4 4 11.3
      vertex 0.964181 5.14907 11.3
      vertex 1.14907 4.96418 11.3
    endloop
  endfacet
  facet normal 0 0 1
    outer loop
      vertex 0.964181 16.8209 11.3
      vertex 0.75 5.29904 11.3
      vertex 0.964181 5.14907 11.3
    endloop
  endfacet
  facet normal -0 0 1
    outer loop
      vertex 0.749999 16.671 11.3
      vertex 0.75 5.29904 11.3
      vertex 0.964181 16.8209 11.3
    endloop
  endfacet
  facet normal -0 0 1
    outer loop
      vertex 0.51303 16.5605 11.3
      vertex 0.75 5.29904 11.3
      vertex 0.749999 16.671 11.3
    endloop
  endfacet
  facet normal 0 0 1
    outer loop
      vertex 0.51303 16.5605 11.3
      vertex 0.51303 5.40954 11.3
      vertex 0.75 5.29904 11.3
    endloop
  endfacet
  facet normal -0 0 1
    outer loop
      vertex 0.260471 16.4928 11.3
      vertex 0.51303 5.40954 11.3
      vertex 0.51303 16.5605 11.3
    endloop
  endfacet
  facet normal 0 0 1
    outer loop
      vertex 0.260471 16.4928 11.3
      vertex 0.260471 5.47721 11.3
      vertex 0.51303 5.40954 11.3
    endloop
  endfacet
  facet normal -0 0 1
    outer loop
      vertex 0 16.47 11.3
      vertex 0.260471 5.47721 11.3
      vertex 0.260471 16.4928 11.3
    endloop
  endfacet
  facet normal 0 0 1
    outer loop
      vertex 0 16.47 11.3
      vertex 0 5.5 11.3
      vertex 0.260471 5.47721 11.3
    endloop
  endfacet
  facet normal 0 0 1
    outer loop
      vertex -0.260471 16.4928 11.3
      vertex 0 5.5 11.3
      vertex 0 16.47 11.3
    endloop
  endfacet
  facet normal 0 0 1
    outer loop
      vertex -0.260471 16.4928 11.3
      vertex -0.260471 5.47721 11.3
      vertex 0 5.5 11.3
    endloop
  endfacet
  facet normal 0 0 1
    outer loop
      vertex -0.51303 16.5605 11.3
      vertex -0.260471 5.47721 11.3
      vertex -0.260471 16.4928 11.3
    endloop
  endfacet
  facet normal 0 0 1
    outer loop
      vertex -0.51303 16.5605 11.3
      vertex -0.51303 5.40954 11.3
      vertex -0.260471 5.47721 11.3
    endloop
  endfacet
  facet normal 0 0 1
    outer loop
      vertex -0.51303 16.5605 11.3
      vertex -0.749999 5.29904 11.3
      vertex -0.51303 5.40954 11.3
    endloop
  endfacet
  facet normal 0 0 1
    outer loop
      vertex -0.75 16.671 11.3
      vertex -0.749999 5.29904 11.3
      vertex -0.51303 16.5605 11.3
    endloop
  endfacet
  facet normal 0 0 1
    outer loop
      vertex -0.964181 16.8209 11.3
      vertex -0.749999 5.29904 11.3
      vertex -0.75 16.671 11.3
    endloop
  endfacet
  facet normal 0 0 1
    outer loop
      vertex -0.964181 16.8209 11.3
      vertex -0.964181 5.14907 11.3
      vertex -0.749999 5.29904 11.3
    endloop
  endfacet
  facet normal 0 0 1
    outer loop
      vertex -4 17.97 11.3
      vertex -0.964181 16.8209 11.3
      vertex -1.14907 17.0058 11.3
    endloop
  endfacet
  facet normal 0 0 1
    outer loop
      vertex -0.964181 16.8209 11.3
      vertex -4 17.97 11.3
      vertex -0.964181 5.14907 11.3
    endloop
  endfacet
  facet normal 0 0 1
    outer loop
      vertex -4 17.97 11.3
      vertex -1.14907 17.0058 11.3
      vertex -1.29904 17.22 11.3
    endloop
  endfacet
  facet normal 0 0 1
    outer loop
      vertex -4 4 11.3
      vertex -0.964181 5.14907 11.3
      vertex -4 17.97 11.3
    endloop
  endfacet
  facet normal 0 0 1
    outer loop
      vertex -4 17.97 11.3
      vertex -1.29904 17.22 11.3
      vertex -1.40954 17.457 11.3
    endloop
  endfacet
  facet normal 0 0 1
    outer loop
      vertex -0.964181 5.14907 11.3
      vertex -4 4 11.3
      vertex -1.14907 4.96418 11.3
    endloop
  endfacet
  facet normal 0 0 1
    outer loop
      vertex -4 17.97 11.3
      vertex -1.40954 17.457 11.3
      vertex -1.47721 17.7095 11.3
    endloop
  endfacet
  facet normal 0 0 1
    outer loop
      vertex -1.14907 4.96418 11.3
      vertex -4 4 11.3
      vertex -1.29904 4.75 11.3
    endloop
  endfacet
  facet normal -0 0 1
    outer loop
      vertex -4 17.97 11.3
      vertex -1.47721 17.7095 11.3
      vertex -1.5 17.97 11.3
    endloop
  endfacet
  facet normal 0 0 1
    outer loop
      vertex -1.29904 4.75 11.3
      vertex -4 4 11.3
      vertex -1.40954 4.51303 11.3
    endloop
  endfacet
  facet normal 0 0 1
    outer loop
      vertex 1.5 17.97 11.3
      vertex 4 17.97 11.3
      vertex 3.93923 18.6646 11.3
    endloop
  endfacet
  facet normal 0 0 1
    outer loop
      vertex 1.47721 17.7095 11.3
      vertex 4 17.97 11.3
      vertex 1.5 17.97 11.3
    endloop
  endfacet
  facet normal 0 0 1
    outer loop
      vertex 1.47721 18.2305 11.3
      vertex 3.93923 18.6646 11.3
      vertex 3.75877 19.3381 11.3
    endloop
  endfacet
  facet normal 0 0 1
    outer loop
      vertex 1.40954 17.457 11.3
      vertex 4 17.97 11.3
      vertex 1.47721 17.7095 11.3
    endloop
  endfacet
  facet normal 0 0 1
    outer loop
      vertex 1.40954 18.483 11.3
      vertex 3.75877 19.3381 11.3
      vertex 3.4641 19.97 11.3
    endloop
  endfacet
  facet normal 0 0 1
    outer loop
      vertex 4 4 11.3
      vertex 1.5 4 11.3
      vertex 3.93923 3.30541 11.3
    endloop
  endfacet
  facet normal 0 0 1
    outer loop
      vertex 1.29904 18.72 11.3
      vertex 3.4641 19.97 11.3
      vertex 3.06418 20.5411 11.3
    endloop
  endfacet
  facet normal -0 0 1
    outer loop
      vertex 1.47721 3.73953 11.3
      vertex 3.93923 3.30541 11.3
      vertex 1.5 4 11.3
    endloop
  endfacet
  facet normal 0 0 1
    outer loop
      vertex 1.14907 18.9342 11.3
      vertex 3.06418 20.5411 11.3
      vertex 2.57115 21.0342 11.3
    endloop
  endfacet
  facet normal 0 0 1
    outer loop
      vertex 3.93923 3.30541 11.3
      vertex 1.47721 3.73953 11.3
      vertex 3.75877 2.63192 11.3
    endloop
  endfacet
  facet normal 0 0 1
    outer loop
      vertex 0.964181 19.1191 11.3
      vertex 2.57115 21.0342 11.3
      vertex 2 21.4341 11.3
    endloop
  endfacet
  facet normal -0 0 1
    outer loop
      vertex 1.40954 3.48697 11.3
      vertex 3.75877 2.63192 11.3
      vertex 1.47721 3.73953 11.3
    endloop
  endfacet
  facet normal 0 0 1
    outer loop
      vertex 3.75877 2.63192 11.3
      vertex 1.40954 3.48697 11.3
      vertex 3.4641 2 11.3
    endloop
  endfacet
  facet normal 0 0 1
    outer loop
      vertex 3.93923 18.6646 11.3
      vertex 1.47721 18.2305 11.3
      vertex 1.5 17.97 11.3
    endloop
  endfacet
  facet normal 0 0 1
    outer loop
      vertex 3.75877 19.3381 11.3
      vertex 1.40954 18.483 11.3
      vertex 1.47721 18.2305 11.3
    endloop
  endfacet
  facet normal 0 0 1
    outer loop
      vertex 0.75 19.269 11.3
      vertex 2 21.4341 11.3
      vertex 1.36808 21.7288 11.3
    endloop
  endfacet
  facet normal 0 0 1
    outer loop
      vertex 3.4641 19.97 11.3
      vertex 1.29904 18.72 11.3
      vertex 1.40954 18.483 11.3
    endloop
  endfacet
  facet normal 0 0 1
    outer loop
      vertex 3.06418 20.5411 11.3
      vertex 1.14907 18.9342 11.3
      vertex 1.29904 18.72 11.3
    endloop
  endfacet
  facet normal 0 0 1
    outer loop
      vertex 2.57115 21.0342 11.3
      vertex 0.964181 19.1191 11.3
      vertex 1.14907 18.9342 11.3
    endloop
  endfacet
  facet normal 0 0 1
    outer loop
      vertex 2 21.4341 11.3
      vertex 0.75 19.269 11.3
      vertex 0.964181 19.1191 11.3
    endloop
  endfacet
  facet normal 0 0 1
    outer loop
      vertex 0.51303 19.3795 11.3
      vertex 1.36808 21.7288 11.3
      vertex 0.694592 21.9092 11.3
    endloop
  endfacet
  facet normal 0 0 1
    outer loop
      vertex 1.36808 21.7288 11.3
      vertex 0.51303 19.3795 11.3
      vertex 0.75 19.269 11.3
    endloop
  endfacet
  facet normal 0 0 1
    outer loop
      vertex 0.694592 21.9092 11.3
      vertex 0.260471 19.4472 11.3
      vertex 0.51303 19.3795 11.3
    endloop
  endfacet
  facet normal 0 0 1
    outer loop
      vertex 0 21.97 11.3
      vertex 0.260471 19.4472 11.3
      vertex 0.694592 21.9092 11.3
    endloop
  endfacet
  facet normal 0 0 1
    outer loop
      vertex 0 21.97 11.3
      vertex 0 19.47 11.3
      vertex 0.260471 19.4472 11.3
    endloop
  endfacet
  facet normal 0 0 1
    outer loop
      vertex 0 21.97 11.3
      vertex -0.260471 19.4472 11.3
      vertex 0 19.47 11.3
    endloop
  endfacet
  facet normal -0 0 1
    outer loop
      vertex -0.694592 21.9092 11.3
      vertex -0.260471 19.4472 11.3
      vertex 0 21.97 11.3
    endloop
  endfacet
  facet normal 0 0 1
    outer loop
      vertex -0.260471 19.4472 11.3
      vertex -0.694592 21.9092 11.3
      vertex -0.51303 19.3795 11.3
    endloop
  endfacet
  facet normal -0 0 1
    outer loop
      vertex -1.36808 21.7288 11.3
      vertex -0.51303 19.3795 11.3
      vertex -0.694592 21.9092 11.3
    endloop
  endfacet
  facet normal 0 0 1
    outer loop
      vertex -0.51303 19.3795 11.3
      vertex -1.36808 21.7288 11.3
      vertex -0.749999 19.269 11.3
    endloop
  endfacet
  facet normal -0 0 1
    outer loop
      vertex -2 21.4341 11.3
      vertex -0.749999 19.269 11.3
      vertex -1.36808 21.7288 11.3
    endloop
  endfacet
  facet normal 0 0 1
    outer loop
      vertex -0.749999 19.269 11.3
      vertex -2 21.4341 11.3
      vertex -0.964181 19.1191 11.3
    endloop
  endfacet
  facet normal -0 0 1
    outer loop
      vertex -2.57115 21.0342 11.3
      vertex -0.964181 19.1191 11.3
      vertex -2 21.4341 11.3
    endloop
  endfacet
  facet normal 0 0 1
    outer loop
      vertex -0.964181 19.1191 11.3
      vertex -2.57115 21.0342 11.3
      vertex -1.14907 18.9342 11.3
    endloop
  endfacet
  facet normal -0 0 1
    outer loop
      vertex -3.06418 20.5411 11.3
      vertex -1.14907 18.9342 11.3
      vertex -2.57115 21.0342 11.3
    endloop
  endfacet
  facet normal 0 0 1
    outer loop
      vertex -1.14907 18.9342 11.3
      vertex -3.06418 20.5411 11.3
      vertex -1.29904 18.72 11.3
    endloop
  endfacet
  facet normal 0 0 1
    outer loop
      vertex -1.29904 18.72 11.3
      vertex -3.4641 19.97 11.3
      vertex -1.40954 18.483 11.3
    endloop
  endfacet
  facet normal -0 0 1
    outer loop
      vertex -3.4641 19.97 11.3
      vertex -1.29904 18.72 11.3
      vertex -3.06418 20.5411 11.3
    endloop
  endfacet
  facet normal -0 0 1
    outer loop
      vertex 1.29904 3.25 11.3
      vertex 3.4641 2 11.3
      vertex 1.40954 3.48697 11.3
    endloop
  endfacet
  facet normal 0 0 1
    outer loop
      vertex 3.4641 2 11.3
      vertex 1.29904 3.25 11.3
      vertex 3.06418 1.42885 11.3
    endloop
  endfacet
  facet normal -0 0 1
    outer loop
      vertex 1.14907 3.03582 11.3
      vertex 3.06418 1.42885 11.3
      vertex 1.29904 3.25 11.3
    endloop
  endfacet
  facet normal 0 0 1
    outer loop
      vertex 3.06418 1.42885 11.3
      vertex 1.14907 3.03582 11.3
      vertex 2.57115 0.935822 11.3
    endloop
  endfacet
  facet normal -0 0 1
    outer loop
      vertex 0.964181 2.85093 11.3
      vertex 2.57115 0.935822 11.3
      vertex 1.14907 3.03582 11.3
    endloop
  endfacet
  facet normal 0 0 1
    outer loop
      vertex 2.57115 0.935822 11.3
      vertex 0.964181 2.85093 11.3
      vertex 2 0.535898 11.3
    endloop
  endfacet
  facet normal -0 0 1
    outer loop
      vertex 0.749999 2.70096 11.3
      vertex 2 0.535898 11.3
      vertex 0.964181 2.85093 11.3
    endloop
  endfacet
  facet normal 0 0 1
    outer loop
      vertex 2 0.535898 11.3
      vertex 0.749999 2.70096 11.3
      vertex 1.36808 0.241229 11.3
    endloop
  endfacet
  facet normal -0 0 1
    outer loop
      vertex 0.51303 2.59046 11.3
      vertex 1.36808 0.241229 11.3
      vertex 0.749999 2.70096 11.3
    endloop
  endfacet
  facet normal 0 0 1
    outer loop
      vertex 1.36808 0.241229 11.3
      vertex 0.51303 2.59046 11.3
      vertex 0.694592 0.0607681 11.3
    endloop
  endfacet
  facet normal -0 0 1
    outer loop
      vertex 0.260471 2.52279 11.3
      vertex 0.694592 0.0607681 11.3
      vertex 0.51303 2.59046 11.3
    endloop
  endfacet
  facet normal -0 0 1
    outer loop
      vertex 0 2.5 11.3
      vertex 0.694592 0.0607681 11.3
      vertex 0.260471 2.52279 11.3
    endloop
  endfacet
  facet normal 0 0 1
    outer loop
      vertex 0 2.5 11.3
      vertex 0 0 11.3
      vertex 0.694592 0.0607681 11.3
    endloop
  endfacet
  facet normal 0 0 1
    outer loop
      vertex -0.260471 2.52279 11.3
      vertex 0 0 11.3
      vertex 0 2.5 11.3
    endloop
  endfacet
  facet normal 0 0 1
    outer loop
      vertex -0.694592 0.0607681 11.3
      vertex -0.260471 2.52279 11.3
      vertex -0.51303 2.59046 11.3
    endloop
  endfacet
  facet normal 0 0 1
    outer loop
      vertex -0.260471 2.52279 11.3
      vertex -0.694592 0.0607681 11.3
      vertex 0 0 11.3
    endloop
  endfacet
  facet normal 0 0 1
    outer loop
      vertex -1.36808 0.241229 11.3
      vertex -0.51303 2.59046 11.3
      vertex -0.75 2.70096 11.3
    endloop
  endfacet
  facet normal 0 0 1
    outer loop
      vertex -2 0.535898 11.3
      vertex -0.75 2.70096 11.3
      vertex -0.964181 2.85093 11.3
    endloop
  endfacet
  facet normal 0 0 1
    outer loop
      vertex -2.57115 0.935822 11.3
      vertex -0.964181 2.85093 11.3
      vertex -1.14907 3.03582 11.3
    endloop
  endfacet
  facet normal 0 0 1
    outer loop
      vertex -3.06418 1.42885 11.3
      vertex -1.14907 3.03582 11.3
      vertex -1.29904 3.25 11.3
    endloop
  endfacet
  facet normal 0 0 1
    outer loop
      vertex -0.51303 2.59046 11.3
      vertex -1.36808 0.241229 11.3
      vertex -0.694592 0.0607681 11.3
    endloop
  endfacet
  facet normal 0 0 1
    outer loop
      vertex -3.4641 2 11.3
      vertex -1.29904 3.25 11.3
      vertex -1.40954 3.48697 11.3
    endloop
  endfacet
  facet normal 0 0 1
    outer loop
      vertex -3.75877 2.63192 11.3
      vertex -1.40954 3.48697 11.3
      vertex -1.47721 3.73953 11.3
    endloop
  endfacet
  facet normal 0 0 1
    outer loop
      vertex -3.93923 3.30541 11.3
      vertex -1.47721 3.73953 11.3
      vertex -1.5 4 11.3
    endloop
  endfacet
  facet normal 0 0 1
    outer loop
      vertex -0.75 2.70096 11.3
      vertex -2 0.535898 11.3
      vertex -1.36808 0.241229 11.3
    endloop
  endfacet
  facet normal 0 0 1
    outer loop
      vertex -1.40954 4.51303 11.3
      vertex -4 4 11.3
      vertex -1.47721 4.26047 11.3
    endloop
  endfacet
  facet normal -0 0 1
    outer loop
      vertex -3.75877 19.3381 11.3
      vertex -1.40954 18.483 11.3
      vertex -3.4641 19.97 11.3
    endloop
  endfacet
  facet normal 0 0 1
    outer loop
      vertex -1.47721 4.26047 11.3
      vertex -4 4 11.3
      vertex -1.5 4 11.3
    endloop
  endfacet
  facet normal 0 0 1
    outer loop
      vertex -1.40954 18.483 11.3
      vertex -3.75877 19.3381 11.3
      vertex -1.47721 18.2305 11.3
    endloop
  endfacet
  facet normal 0 -0 1
    outer loop
      vertex -3.93923 3.30541 11.3
      vertex -1.5 4 11.3
      vertex -4 4 11.3
    endloop
  endfacet
  facet normal -0 0 1
    outer loop
      vertex -3.93923 18.6646 11.3
      vertex -1.47721 18.2305 11.3
      vertex -3.75877 19.3381 11.3
    endloop
  endfacet
  facet normal 0 0 1
    outer loop
      vertex -0.964181 2.85093 11.3
      vertex -2.57115 0.935822 11.3
      vertex -2 0.535898 11.3
    endloop
  endfacet
  facet normal 0 0 1
    outer loop
      vertex -1.47721 18.2305 11.3
      vertex -3.93923 18.6646 11.3
      vertex -1.5 17.97 11.3
    endloop
  endfacet
  facet normal 0 0 1
    outer loop
      vertex -1.14907 3.03582 11.3
      vertex -3.06418 1.42885 11.3
      vertex -2.57115 0.935822 11.3
    endloop
  endfacet
  facet normal 0 0 1
    outer loop
      vertex -1.5 17.97 11.3
      vertex -3.93923 18.6646 11.3
      vertex -4 17.97 11.3
    endloop
  endfacet
  facet normal 0 0 1
    outer loop
      vertex -1.29904 3.25 11.3
      vertex -3.4641 2 11.3
      vertex -3.06418 1.42885 11.3
    endloop
  endfacet
  facet normal 0 0 1
    outer loop
      vertex -1.40954 3.48697 11.3
      vertex -3.75877 2.63192 11.3
      vertex -3.4641 2 11.3
    endloop
  endfacet
  facet normal 0 0 1
    outer loop
      vertex -1.47721 3.73953 11.3
      vertex -3.93923 3.30541 11.3
      vertex -3.75877 2.63192 11.3
    endloop
  endfacet
  facet normal 0.906307 0.422619 0
    outer loop
      vertex 3.75877 19.3381 11.3
      vertex 3.4641 19.97 0
      vertex 3.4641 19.97 11.3
    endloop
  endfacet
  facet normal 0.906307 0.422619 0
    outer loop
      vertex 3.4641 19.97 0
      vertex 3.75877 19.3381 11.3
      vertex 3.75877 19.3381 0
    endloop
  endfacet
  facet normal 1 -0 0
    outer loop
      vertex 4 4 11.3
      vertex 4 17.97 0
      vertex 4 17.97 11.3
    endloop
  endfacet
  facet normal 1 0 0
    outer loop
      vertex 4 17.97 0
      vertex 4 4 11.3
      vertex 4 4 0
    endloop
  endfacet
  facet normal -0.0871545 -0.996195 0
    outer loop
      vertex -0.694592 0.0607681 0
      vertex 0 0 11.3
      vertex -0.694592 0.0607681 11.3
    endloop
  endfacet
  facet normal -0.0871545 -0.996195 -0
    outer loop
      vertex 0 0 11.3
      vertex -0.694592 0.0607681 0
      vertex 0 0 0
    endloop
  endfacet
  facet normal -0.819152 -0.573576 0
    outer loop
      vertex -3.06418 1.42885 0
      vertex -3.4641 2 11.3
      vertex -3.4641 2 0
    endloop
  endfacet
  facet normal -0.819152 -0.573576 0
    outer loop
      vertex -3.4641 2 11.3
      vertex -3.06418 1.42885 0
      vertex -3.06418 1.42885 11.3
    endloop
  endfacet
  facet normal -0.965926 -0.25882 0
    outer loop
      vertex -3.75877 2.63192 0
      vertex -3.93923 3.30541 11.3
      vertex -3.93923 3.30541 0
    endloop
  endfacet
  facet normal -0.965926 -0.25882 0
    outer loop
      vertex -3.93923 3.30541 11.3
      vertex -3.75877 2.63192 0
      vertex -3.75877 2.63192 11.3
    endloop
  endfacet
  facet normal -0.965926 0.258819 0
    outer loop
      vertex -3.93923 18.6646 0
      vertex -3.75877 19.3381 11.3
      vertex -3.75877 19.3381 0
    endloop
  endfacet
  facet normal -0.965926 0.258819 0
    outer loop
      vertex -3.75877 19.3381 11.3
      vertex -3.93923 18.6646 0
      vertex -3.93923 18.6646 11.3
    endloop
  endfacet
  facet normal -1 0 0
    outer loop
      vertex -4 4 0
      vertex -4 17.97 11.3
      vertex -4 17.97 0
    endloop
  endfacet
  facet normal -1 -0 0
    outer loop
      vertex -4 17.97 11.3
      vertex -4 4 0
      vertex -4 4 11.3
    endloop
  endfacet
  facet normal -0.996195 0.0871558 0
    outer loop
      vertex -4 17.97 0
      vertex -3.93923 18.6646 11.3
      vertex -3.93923 18.6646 0
    endloop
  endfacet
  facet normal -0.996195 0.0871558 0
    outer loop
      vertex -3.93923 18.6646 11.3
      vertex -4 17.97 0
      vertex -4 17.97 11.3
    endloop
  endfacet
  facet normal -0.996195 -0.0871558 0
    outer loop
      vertex -3.93923 3.30541 0
      vertex -4 4 11.3
      vertex -4 4 0
    endloop
  endfacet
  facet normal -0.996195 -0.0871558 0
    outer loop
      vertex -4 4 11.3
      vertex -3.93923 3.30541 0
      vertex -3.93923 3.30541 11.3
    endloop
  endfacet
  facet normal 0.573578 0.819151 -0
    outer loop
      vertex 2.57115 21.0342 0
      vertex 2 21.4341 11.3
      vertex 2.57115 21.0342 11.3
    endloop
  endfacet
  facet normal 0.573578 0.819151 0
    outer loop
      vertex 2 21.4341 11.3
      vertex 2.57115 21.0342 0
      vertex 2 21.4341 0
    endloop
  endfacet
  facet normal 0.965926 0.258819 0
    outer loop
      vertex 3.93923 18.6646 11.3
      vertex 3.75877 19.3381 0
      vertex 3.75877 19.3381 11.3
    endloop
  endfacet
  facet normal 0.965926 0.258819 0
    outer loop
      vertex 3.75877 19.3381 0
      vertex 3.93923 18.6646 11.3
      vertex 3.93923 18.6646 0
    endloop
  endfacet
  facet normal 0.996195 0.0871558 0
    outer loop
      vertex 4 17.97 11.3
      vertex 3.93923 18.6646 0
      vertex 3.93923 18.6646 11.3
    endloop
  endfacet
  facet normal 0.996195 0.0871558 0
    outer loop
      vertex 3.93923 18.6646 0
      vertex 4 17.97 11.3
      vertex 4 17.97 0
    endloop
  endfacet
  facet normal 0.573576 -0.819153 0
    outer loop
      vertex 2 0.535898 0
      vertex 2.57115 0.935822 11.3
      vertex 2 0.535898 11.3
    endloop
  endfacet
  facet normal 0.573576 -0.819153 0
    outer loop
      vertex 2.57115 0.935822 11.3
      vertex 2 0.535898 0
      vertex 2.57115 0.935822 0
    endloop
  endfacet
  facet normal -0.25882 -0.965926 0
    outer loop
      vertex -1.36808 0.241229 0
      vertex -0.694592 0.0607681 11.3
      vertex -1.36808 0.241229 11.3
    endloop
  endfacet
  facet normal -0.25882 -0.965926 -0
    outer loop
      vertex -0.694592 0.0607681 11.3
      vertex -1.36808 0.241229 0
      vertex -0.694592 0.0607681 0
    endloop
  endfacet
  facet normal -0.573576 -0.819152 0
    outer loop
      vertex -2.57115 0.935822 0
      vertex -2 0.535898 11.3
      vertex -2.57115 0.935822 11.3
    endloop
  endfacet
  facet normal -0.573576 -0.819152 -0
    outer loop
      vertex -2 0.535898 11.3
      vertex -2.57115 0.935822 0
      vertex -2 0.535898 0
    endloop
  endfacet
  facet normal 0.422619 -0.906307 0
    outer loop
      vertex 1.36808 0.241229 0
      vertex 2 0.535898 11.3
      vertex 1.36808 0.241229 11.3
    endloop
  endfacet
  facet normal 0.422619 -0.906307 0
    outer loop
      vertex 2 0.535898 11.3
      vertex 1.36808 0.241229 0
      vertex 2 0.535898 0
    endloop
  endfacet
  facet normal 0.25882 -0.965926 0
    outer loop
      vertex 0.694592 0.0607681 0
      vertex 1.36808 0.241229 11.3
      vertex 0.694592 0.0607681 11.3
    endloop
  endfacet
  facet normal 0.25882 -0.965926 0
    outer loop
      vertex 1.36808 0.241229 11.3
      vertex 0.694592 0.0607681 0
      vertex 1.36808 0.241229 0
    endloop
  endfacet
  facet normal -0.707107 -0.707107 0
    outer loop
      vertex -2.57115 0.935822 0
      vertex -3.06418 1.42885 11.3
      vertex -3.06418 1.42885 0
    endloop
  endfacet
  facet normal -0.707107 -0.707107 0
    outer loop
      vertex -3.06418 1.42885 11.3
      vertex -2.57115 0.935822 0
      vertex -2.57115 0.935822 11.3
    endloop
  endfacet
  facet normal -0.906308 -0.422618 0
    outer loop
      vertex -3.4641 2 0
      vertex -3.75877 2.63192 11.3
      vertex -3.75877 2.63192 0
    endloop
  endfacet
  facet normal -0.906308 -0.422618 0
    outer loop
      vertex -3.75877 2.63192 11.3
      vertex -3.4641 2 0
      vertex -3.4641 2 11.3
    endloop
  endfacet
  facet normal 0.258816 0.965927 -0
    outer loop
      vertex 1.36808 21.7288 0
      vertex 0.694592 21.9092 11.3
      vertex 1.36808 21.7288 11.3
    endloop
  endfacet
  facet normal 0.258816 0.965927 0
    outer loop
      vertex 0.694592 21.9092 11.3
      vertex 1.36808 21.7288 0
      vertex 0.694592 21.9092 0
    endloop
  endfacet
  facet normal 0.819152 0.573576 0
    outer loop
      vertex 3.4641 19.97 11.3
      vertex 3.06418 20.5411 0
      vertex 3.06418 20.5411 11.3
    endloop
  endfacet
  facet normal 0.819152 0.573576 0
    outer loop
      vertex 3.06418 20.5411 0
      vertex 3.4641 19.97 11.3
      vertex 3.4641 19.97 0
    endloop
  endfacet
  facet normal -0.707106 0.707107 0
    outer loop
      vertex -2.57115 21.0342 0
      vertex -3.06418 20.5411 11.3
      vertex -2.57115 21.0342 11.3
    endloop
  endfacet
  facet normal -0.707106 0.707107 0
    outer loop
      vertex -3.06418 20.5411 11.3
      vertex -2.57115 21.0342 0
      vertex -3.06418 20.5411 0
    endloop
  endfacet
  facet normal 0.906307 -0.422619 0
    outer loop
      vertex 3.4641 2 11.3
      vertex 3.75877 2.63192 0
      vertex 3.75877 2.63192 11.3
    endloop
  endfacet
  facet normal 0.906307 -0.422619 0
    outer loop
      vertex 3.75877 2.63192 0
      vertex 3.4641 2 11.3
      vertex 3.4641 2 0
    endloop
  endfacet
  facet normal 0.707107 -0.707107 0
    outer loop
      vertex 2.57115 0.935822 11.3
      vertex 3.06418 1.42885 0
      vertex 3.06418 1.42885 11.3
    endloop
  endfacet
  facet normal 0.707107 -0.707107 0
    outer loop
      vertex 3.06418 1.42885 0
      vertex 2.57115 0.935822 11.3
      vertex 2.57115 0.935822 0
    endloop
  endfacet
  facet normal -0.422618 -0.906308 0
    outer loop
      vertex -2 0.535898 0
      vertex -1.36808 0.241229 11.3
      vertex -2 0.535898 11.3
    endloop
  endfacet
  facet normal -0.422618 -0.906308 -0
    outer loop
      vertex -1.36808 0.241229 11.3
      vertex -2 0.535898 0
      vertex -1.36808 0.241229 0
    endloop
  endfacet
  facet normal -0.906307 0.422619 0
    outer loop
      vertex -3.75877 19.3381 0
      vertex -3.4641 19.97 11.3
      vertex -3.4641 19.97 0
    endloop
  endfacet
  facet normal -0.906307 0.422619 0
    outer loop
      vertex -3.4641 19.97 11.3
      vertex -3.75877 19.3381 0
      vertex -3.75877 19.3381 11.3
    endloop
  endfacet
  facet normal -0.819152 0.573576 0
    outer loop
      vertex -3.4641 19.97 0
      vertex -3.06418 20.5411 11.3
      vertex -3.06418 20.5411 0
    endloop
  endfacet
  facet normal -0.819152 0.573576 0
    outer loop
      vertex -3.06418 20.5411 11.3
      vertex -3.4641 19.97 0
      vertex -3.4641 19.97 11.3
    endloop
  endfacet
  facet normal -0.42262 0.906307 0
    outer loop
      vertex -1.36808 21.7288 0
      vertex -2 21.4341 11.3
      vertex -1.36808 21.7288 11.3
    endloop
  endfacet
  facet normal -0.42262 0.906307 0
    outer loop
      vertex -2 21.4341 11.3
      vertex -1.36808 21.7288 0
      vertex -2 21.4341 0
    endloop
  endfacet
  facet normal -0.258816 0.965927 0
    outer loop
      vertex -0.694592 21.9092 0
      vertex -1.36808 21.7288 11.3
      vertex -0.694592 21.9092 11.3
    endloop
  endfacet
  facet normal -0.258816 0.965927 0
    outer loop
      vertex -1.36808 21.7288 11.3
      vertex -0.694592 21.9092 0
      vertex -1.36808 21.7288 0
    endloop
  endfacet
  facet normal -0.573578 0.819151 0
    outer loop
      vertex -2 21.4341 0
      vertex -2.57115 21.0342 11.3
      vertex -2 21.4341 11.3
    endloop
  endfacet
  facet normal -0.573578 0.819151 0
    outer loop
      vertex -2.57115 21.0342 11.3
      vertex -2 21.4341 0
      vertex -2.57115 21.0342 0
    endloop
  endfacet
  facet normal -0.0871573 0.996195 0
    outer loop
      vertex 0 21.97 0
      vertex -0.694592 21.9092 11.3
      vertex 0 21.97 11.3
    endloop
  endfacet
  facet normal -0.0871573 0.996195 0
    outer loop
      vertex -0.694592 21.9092 11.3
      vertex 0 21.97 0
      vertex -0.694592 21.9092 0
    endloop
  endfacet
  facet normal 0.707106 0.707107 -0
    outer loop
      vertex 3.06418 20.5411 0
      vertex 2.57115 21.0342 11.3
      vertex 3.06418 20.5411 11.3
    endloop
  endfacet
  facet normal 0.707106 0.707107 0
    outer loop
      vertex 2.57115 21.0342 11.3
      vertex 3.06418 20.5411 0
      vertex 2.57115 21.0342 0
    endloop
  endfacet
  facet normal 0.422619 0.906307 -0
    outer loop
      vertex 2 21.4341 0
      vertex 1.36808 21.7288 11.3
      vertex 2 21.4341 11.3
    endloop
  endfacet
  facet normal 0.422619 0.906307 0
    outer loop
      vertex 1.36808 21.7288 11.3
      vertex 2 21.4341 0
      vertex 1.36808 21.7288 0
    endloop
  endfacet
  facet normal 0.819153 -0.573576 0
    outer loop
      vertex 3.06418 1.42885 11.3
      vertex 3.4641 2 0
      vertex 3.4641 2 11.3
    endloop
  endfacet
  facet normal 0.819153 -0.573576 0
    outer loop
      vertex 3.4641 2 0
      vertex 3.06418 1.42885 11.3
      vertex 3.06418 1.42885 0
    endloop
  endfacet
  facet normal 0.965926 -0.25882 0
    outer loop
      vertex 3.75877 2.63192 11.3
      vertex 3.93923 3.30541 0
      vertex 3.93923 3.30541 11.3
    endloop
  endfacet
  facet normal 0.965926 -0.25882 0
    outer loop
      vertex 3.93923 3.30541 0
      vertex 3.75877 2.63192 11.3
      vertex 3.75877 2.63192 0
    endloop
  endfacet
  facet normal 0.0871545 -0.996195 0
    outer loop
      vertex 0 0 0
      vertex 0.694592 0.0607681 11.3
      vertex 0 0 11.3
    endloop
  endfacet
  facet normal 0.0871545 -0.996195 0
    outer loop
      vertex 0.694592 0.0607681 11.3
      vertex 0 0 0
      vertex 0.694592 0.0607681 0
    endloop
  endfacet
  facet normal 0.0871573 0.996195 -0
    outer loop
      vertex 0.694592 21.9092 0
      vertex 0 21.97 11.3
      vertex 0.694592 21.9092 11.3
    endloop
  endfacet
  facet normal 0.0871573 0.996195 0
    outer loop
      vertex 0 21.97 11.3
      vertex 0.694592 21.9092 0
      vertex 0 21.97 0
    endloop
  endfacet
  facet normal -0.996194 -0.0871584 0
    outer loop
      vertex 1.5 4 0
      vertex 1.47721 4.26047 11.3
      vertex 1.47721 4.26047 0
    endloop
  endfacet
  facet normal -0.996194 -0.0871584 0
    outer loop
      vertex 1.47721 4.26047 11.3
      vertex 1.5 4 0
      vertex 1.5 4 11.3
    endloop
  endfacet
  facet normal 0.0871584 -0.996194 0
    outer loop
      vertex -0.260471 5.47721 0
      vertex 0 5.5 11.3
      vertex -0.260471 5.47721 11.3
    endloop
  endfacet
  facet normal 0.0871584 -0.996194 0
    outer loop
      vertex 0 5.5 11.3
      vertex -0.260471 5.47721 0
      vertex 0 5.5 0
    endloop
  endfacet
  facet normal -0.0871548 0.996195 0
    outer loop
      vertex 0.260471 2.52279 0
      vertex 0 2.5 11.3
      vertex 0.260471 2.52279 11.3
    endloop
  endfacet
  facet normal -0.0871548 0.996195 0
    outer loop
      vertex 0 2.5 11.3
      vertex 0.260471 2.52279 0
      vertex 0 2.5 0
    endloop
  endfacet
  facet normal -0.573579 -0.819151 0
    outer loop
      vertex 0.75 5.29904 0
      vertex 0.964181 5.14907 11.3
      vertex 0.75 5.29904 11.3
    endloop
  endfacet
  facet normal -0.573579 -0.819151 -0
    outer loop
      vertex 0.964181 5.14907 11.3
      vertex 0.75 5.29904 0
      vertex 0.964181 5.14907 0
    endloop
  endfacet
  facet normal 0.819151 -0.573579 0
    outer loop
      vertex -1.29904 4.75 11.3
      vertex -1.14907 4.96418 0
      vertex -1.14907 4.96418 11.3
    endloop
  endfacet
  facet normal 0.819151 -0.573579 0
    outer loop
      vertex -1.14907 4.96418 0
      vertex -1.29904 4.75 11.3
      vertex -1.29904 4.75 0
    endloop
  endfacet
  facet normal 0.422618 -0.906308 0
    outer loop
      vertex -0.749999 5.29904 0
      vertex -0.51303 5.40954 11.3
      vertex -0.749999 5.29904 11.3
    endloop
  endfacet
  facet normal 0.422618 -0.906308 0
    outer loop
      vertex -0.51303 5.40954 11.3
      vertex -0.749999 5.29904 0
      vertex -0.51303 5.40954 0
    endloop
  endfacet
  facet normal -0.906308 0.422618 0
    outer loop
      vertex 1.29904 3.25 0
      vertex 1.40954 3.48697 11.3
      vertex 1.40954 3.48697 0
    endloop
  endfacet
  facet normal -0.906308 0.422618 0
    outer loop
      vertex 1.40954 3.48697 11.3
      vertex 1.29904 3.25 0
      vertex 1.29904 3.25 11.3
    endloop
  endfacet
  facet normal -0.906309 -0.422616 0
    outer loop
      vertex 1.40954 4.51303 0
      vertex 1.29904 4.75 11.3
      vertex 1.29904 4.75 0
    endloop
  endfacet
  facet normal -0.906309 -0.422616 0
    outer loop
      vertex 1.29904 4.75 11.3
      vertex 1.40954 4.51303 0
      vertex 1.40954 4.51303 11.3
    endloop
  endfacet
  facet normal -0.965926 -0.258818 0
    outer loop
      vertex 1.47721 4.26047 0
      vertex 1.40954 4.51303 11.3
      vertex 1.40954 4.51303 0
    endloop
  endfacet
  facet normal -0.965926 -0.258818 0
    outer loop
      vertex 1.40954 4.51303 11.3
      vertex 1.47721 4.26047 0
      vertex 1.47721 4.26047 11.3
    endloop
  endfacet
  facet normal -0.819151 -0.573579 0
    outer loop
      vertex 1.29904 4.75 0
      vertex 1.14907 4.96418 11.3
      vertex 1.14907 4.96418 0
    endloop
  endfacet
  facet normal -0.819151 -0.573579 0
    outer loop
      vertex 1.14907 4.96418 11.3
      vertex 1.29904 4.75 0
      vertex 1.29904 4.75 11.3
    endloop
  endfacet
  facet normal -0.258818 -0.965926 0
    outer loop
      vertex 0.260471 5.47721 0
      vertex 0.51303 5.40954 11.3
      vertex 0.260471 5.47721 11.3
    endloop
  endfacet
  facet normal -0.258818 -0.965926 -0
    outer loop
      vertex 0.51303 5.40954 11.3
      vertex 0.260471 5.47721 0
      vertex 0.51303 5.40954 0
    endloop
  endfacet
  facet normal -0.0871584 -0.996194 0
    outer loop
      vertex 0 5.5 0
      vertex 0.260471 5.47721 11.3
      vertex 0 5.5 11.3
    endloop
  endfacet
  facet normal -0.0871584 -0.996194 -0
    outer loop
      vertex 0.260471 5.47721 11.3
      vertex 0 5.5 0
      vertex 0.260471 5.47721 0
    endloop
  endfacet
  facet normal -0.422616 -0.906309 0
    outer loop
      vertex 0.51303 5.40954 0
      vertex 0.75 5.29904 11.3
      vertex 0.51303 5.40954 11.3
    endloop
  endfacet
  facet normal -0.422616 -0.906309 -0
    outer loop
      vertex 0.75 5.29904 11.3
      vertex 0.51303 5.40954 0
      vertex 0.75 5.29904 0
    endloop
  endfacet
  facet normal 0.965926 -0.258818 0
    outer loop
      vertex -1.47721 4.26047 11.3
      vertex -1.40954 4.51303 0
      vertex -1.40954 4.51303 11.3
    endloop
  endfacet
  facet normal 0.965926 -0.258818 0
    outer loop
      vertex -1.40954 4.51303 0
      vertex -1.47721 4.26047 11.3
      vertex -1.47721 4.26047 0
    endloop
  endfacet
  facet normal 0.906309 -0.422616 0
    outer loop
      vertex -1.40954 4.51303 11.3
      vertex -1.29904 4.75 0
      vertex -1.29904 4.75 11.3
    endloop
  endfacet
  facet normal 0.906309 -0.422616 0
    outer loop
      vertex -1.29904 4.75 0
      vertex -1.40954 4.51303 11.3
      vertex -1.40954 4.51303 0
    endloop
  endfacet
  facet normal 0.996194 -0.0871584 0
    outer loop
      vertex -1.5 4 11.3
      vertex -1.47721 4.26047 0
      vertex -1.47721 4.26047 11.3
    endloop
  endfacet
  facet normal 0.996194 -0.0871584 0
    outer loop
      vertex -1.47721 4.26047 0
      vertex -1.5 4 11.3
      vertex -1.5 4 0
    endloop
  endfacet
  facet normal 0.573577 -0.819152 0
    outer loop
      vertex -0.964181 5.14907 0
      vertex -0.749999 5.29904 11.3
      vertex -0.964181 5.14907 11.3
    endloop
  endfacet
  facet normal 0.573577 -0.819152 0
    outer loop
      vertex -0.749999 5.29904 11.3
      vertex -0.964181 5.14907 0
      vertex -0.749999 5.29904 0
    endloop
  endfacet
  facet normal 0.258818 -0.965926 0
    outer loop
      vertex -0.51303 5.40954 0
      vertex -0.260471 5.47721 11.3
      vertex -0.51303 5.40954 11.3
    endloop
  endfacet
  facet normal 0.258818 -0.965926 0
    outer loop
      vertex -0.260471 5.47721 11.3
      vertex -0.51303 5.40954 0
      vertex -0.260471 5.47721 0
    endloop
  endfacet
  facet normal -0.258818 0.965926 0
    outer loop
      vertex 0.51303 2.59046 0
      vertex 0.260471 2.52279 11.3
      vertex 0.51303 2.59046 11.3
    endloop
  endfacet
  facet normal -0.258818 0.965926 0
    outer loop
      vertex 0.260471 2.52279 11.3
      vertex 0.51303 2.59046 0
      vertex 0.260471 2.52279 0
    endloop
  endfacet
  facet normal -0.573577 0.819152 0
    outer loop
      vertex 0.964181 2.85093 0
      vertex 0.749999 2.70096 11.3
      vertex 0.964181 2.85093 11.3
    endloop
  endfacet
  facet normal -0.573577 0.819152 0
    outer loop
      vertex 0.749999 2.70096 11.3
      vertex 0.964181 2.85093 0
      vertex 0.749999 2.70096 0
    endloop
  endfacet
  facet normal 0.422616 0.906309 -0
    outer loop
      vertex -0.51303 2.59046 0
      vertex -0.75 2.70096 11.3
      vertex -0.51303 2.59046 11.3
    endloop
  endfacet
  facet normal 0.422616 0.906309 0
    outer loop
      vertex -0.75 2.70096 11.3
      vertex -0.51303 2.59046 0
      vertex -0.75 2.70096 0
    endloop
  endfacet
  facet normal 0.0871548 0.996195 -0
    outer loop
      vertex 0 2.5 0
      vertex -0.260471 2.52279 11.3
      vertex 0 2.5 11.3
    endloop
  endfacet
  facet normal 0.0871548 0.996195 0
    outer loop
      vertex -0.260471 2.52279 11.3
      vertex 0 2.5 0
      vertex -0.260471 2.52279 0
    endloop
  endfacet
  facet normal 0.819152 0.573577 0
    outer loop
      vertex -1.14907 3.03582 11.3
      vertex -1.29904 3.25 0
      vertex -1.29904 3.25 11.3
    endloop
  endfacet
  facet normal 0.819152 0.573577 0
    outer loop
      vertex -1.29904 3.25 0
      vertex -1.14907 3.03582 11.3
      vertex -1.14907 3.03582 0
    endloop
  endfacet
  facet normal 0.965926 0.258818 0
    outer loop
      vertex -1.40954 3.48697 11.3
      vertex -1.47721 3.73953 0
      vertex -1.47721 3.73953 11.3
    endloop
  endfacet
  facet normal 0.965926 0.258818 0
    outer loop
      vertex -1.47721 3.73953 0
      vertex -1.40954 3.48697 11.3
      vertex -1.40954 3.48697 0
    endloop
  endfacet
  facet normal -0.707107 -0.707107 0
    outer loop
      vertex 1.14907 4.96418 0
      vertex 0.964181 5.14907 11.3
      vertex 0.964181 5.14907 0
    endloop
  endfacet
  facet normal -0.707107 -0.707107 0
    outer loop
      vertex 0.964181 5.14907 11.3
      vertex 1.14907 4.96418 0
      vertex 1.14907 4.96418 11.3
    endloop
  endfacet
  facet normal 0.996194 0.0871581 0
    outer loop
      vertex -1.47721 3.73953 11.3
      vertex -1.5 4 0
      vertex -1.5 4 11.3
    endloop
  endfacet
  facet normal 0.996194 0.0871581 0
    outer loop
      vertex -1.5 4 0
      vertex -1.47721 3.73953 11.3
      vertex -1.47721 3.73953 0
    endloop
  endfacet
  facet normal 0.707107 -0.707107 0
    outer loop
      vertex -1.14907 4.96418 11.3
      vertex -0.964181 5.14907 0
      vertex -0.964181 5.14907 11.3
    endloop
  endfacet
  facet normal 0.707107 -0.707107 0
    outer loop
      vertex -0.964181 5.14907 0
      vertex -1.14907 4.96418 11.3
      vertex -1.14907 4.96418 0
    endloop
  endfacet
  facet normal -0.422618 0.906308 0
    outer loop
      vertex 0.749999 2.70096 0
      vertex 0.51303 2.59046 11.3
      vertex 0.749999 2.70096 11.3
    endloop
  endfacet
  facet normal -0.422618 0.906308 0
    outer loop
      vertex 0.51303 2.59046 11.3
      vertex 0.749999 2.70096 0
      vertex 0.51303 2.59046 0
    endloop
  endfacet
  facet normal -0.707107 0.707107 0
    outer loop
      vertex 0.964181 2.85093 0
      vertex 1.14907 3.03582 11.3
      vertex 1.14907 3.03582 0
    endloop
  endfacet
  facet normal -0.707107 0.707107 0
    outer loop
      vertex 1.14907 3.03582 11.3
      vertex 0.964181 2.85093 0
      vertex 0.964181 2.85093 11.3
    endloop
  endfacet
  facet normal -0.965926 0.258818 0
    outer loop
      vertex 1.40954 3.48697 0
      vertex 1.47721 3.73953 11.3
      vertex 1.47721 3.73953 0
    endloop
  endfacet
  facet normal -0.965926 0.258818 0
    outer loop
      vertex 1.47721 3.73953 11.3
      vertex 1.40954 3.48697 0
      vertex 1.40954 3.48697 11.3
    endloop
  endfacet
  facet normal -0.996194 0.0871581 0
    outer loop
      vertex 1.47721 3.73953 0
      vertex 1.5 4 11.3
      vertex 1.5 4 0
    endloop
  endfacet
  facet normal -0.996194 0.0871581 0
    outer loop
      vertex 1.5 4 11.3
      vertex 1.47721 3.73953 0
      vertex 1.47721 3.73953 11.3
    endloop
  endfacet
  facet normal 0.258818 0.965926 -0
    outer loop
      vertex -0.260471 2.52279 0
      vertex -0.51303 2.59046 11.3
      vertex -0.260471 2.52279 11.3
    endloop
  endfacet
  facet normal 0.258818 0.965926 0
    outer loop
      vertex -0.51303 2.59046 11.3
      vertex -0.260471 2.52279 0
      vertex -0.51303 2.59046 0
    endloop
  endfacet
  facet normal 0.707107 0.707107 0
    outer loop
      vertex -0.964181 2.85093 11.3
      vertex -1.14907 3.03582 0
      vertex -1.14907 3.03582 11.3
    endloop
  endfacet
  facet normal 0.707107 0.707107 0
    outer loop
      vertex -1.14907 3.03582 0
      vertex -0.964181 2.85093 11.3
      vertex -0.964181 2.85093 0
    endloop
  endfacet
  facet normal 0.906308 0.422618 0
    outer loop
      vertex -1.29904 3.25 11.3
      vertex -1.40954 3.48697 0
      vertex -1.40954 3.48697 11.3
    endloop
  endfacet
  facet normal 0.906308 0.422618 0
    outer loop
      vertex -1.40954 3.48697 0
      vertex -1.29904 3.25 11.3
      vertex -1.29904 3.25 0
    endloop
  endfacet
  facet normal -0.819152 0.573577 0
    outer loop
      vertex 1.14907 3.03582 0
      vertex 1.29904 3.25 11.3
      vertex 1.29904 3.25 0
    endloop
  endfacet
  facet normal -0.819152 0.573577 0
    outer loop
      vertex 1.29904 3.25 11.3
      vertex 1.14907 3.03582 0
      vertex 1.14907 3.03582 11.3
    endloop
  endfacet
  facet normal 0.573579 0.819151 -0
    outer loop
      vertex -0.75 2.70096 0
      vertex -0.964181 2.85093 11.3
      vertex -0.75 2.70096 11.3
    endloop
  endfacet
  facet normal 0.573579 0.819151 0
    outer loop
      vertex -0.964181 2.85093 11.3
      vertex -0.75 2.70096 0
      vertex -0.964181 2.85093 0
    endloop
  endfacet
  facet normal -0.996195 -0.0871578 0
    outer loop
      vertex 1.5 17.97 0
      vertex 1.47721 18.2305 11.3
      vertex 1.47721 18.2305 0
    endloop
  endfacet
  facet normal -0.996195 -0.0871578 0
    outer loop
      vertex 1.47721 18.2305 11.3
      vertex 1.5 17.97 0
      vertex 1.5 17.97 11.3
    endloop
  endfacet
  facet normal 0.996195 -0.0871578 0
    outer loop
      vertex -1.5 17.97 11.3
      vertex -1.47721 18.2305 0
      vertex -1.47721 18.2305 11.3
    endloop
  endfacet
  facet normal 0.996195 -0.0871578 0
    outer loop
      vertex -1.47721 18.2305 0
      vertex -1.5 17.97 11.3
      vertex -1.5 17.97 0
    endloop
  endfacet
  facet normal 0.0871512 -0.996195 0
    outer loop
      vertex -0.260471 19.4472 0
      vertex 0 19.47 11.3
      vertex -0.260471 19.4472 11.3
    endloop
  endfacet
  facet normal 0.0871512 -0.996195 0
    outer loop
      vertex 0 19.47 11.3
      vertex -0.260471 19.4472 0
      vertex 0 19.47 0
    endloop
  endfacet
  facet normal -0.707107 -0.707107 0
    outer loop
      vertex 1.14907 18.9342 0
      vertex 0.964181 19.1191 11.3
      vertex 0.964181 19.1191 0
    endloop
  endfacet
  facet normal -0.707107 -0.707107 0
    outer loop
      vertex 0.964181 19.1191 11.3
      vertex 1.14907 18.9342 0
      vertex 1.14907 18.9342 11.3
    endloop
  endfacet
  facet normal 0.707107 -0.707107 0
    outer loop
      vertex -1.14907 18.9342 11.3
      vertex -0.964181 19.1191 0
      vertex -0.964181 19.1191 11.3
    endloop
  endfacet
  facet normal 0.707107 -0.707107 0
    outer loop
      vertex -0.964181 19.1191 0
      vertex -1.14907 18.9342 11.3
      vertex -1.14907 18.9342 0
    endloop
  endfacet
  facet normal 0.422624 -0.906305 0
    outer loop
      vertex -0.749999 19.269 0
      vertex -0.51303 19.3795 11.3
      vertex -0.749999 19.269 11.3
    endloop
  endfacet
  facet normal 0.422624 -0.906305 0
    outer loop
      vertex -0.51303 19.3795 11.3
      vertex -0.749999 19.269 0
      vertex -0.51303 19.3795 0
    endloop
  endfacet
  facet normal -0.707107 0.707107 0
    outer loop
      vertex 0.964181 16.8209 0
      vertex 1.14907 17.0058 11.3
      vertex 1.14907 17.0058 0
    endloop
  endfacet
  facet normal -0.707107 0.707107 0
    outer loop
      vertex 1.14907 17.0058 11.3
      vertex 0.964181 16.8209 0
      vertex 0.964181 16.8209 11.3
    endloop
  endfacet
  facet normal 0.965925 0.258821 0
    outer loop
      vertex -1.40954 17.457 11.3
      vertex -1.47721 17.7095 0
      vertex -1.47721 17.7095 11.3
    endloop
  endfacet
  facet normal 0.965925 0.258821 0
    outer loop
      vertex -1.47721 17.7095 0
      vertex -1.40954 17.457 11.3
      vertex -1.40954 17.457 0
    endloop
  endfacet
  facet normal -0.906309 -0.422615 0
    outer loop
      vertex 1.40954 18.483 0
      vertex 1.29904 18.72 11.3
      vertex 1.29904 18.72 0
    endloop
  endfacet
  facet normal -0.906309 -0.422615 0
    outer loop
      vertex 1.29904 18.72 11.3
      vertex 1.40954 18.483 0
      vertex 1.40954 18.483 11.3
    endloop
  endfacet
  facet normal -0.965925 -0.258821 0
    outer loop
      vertex 1.47721 18.2305 0
      vertex 1.40954 18.483 11.3
      vertex 1.40954 18.483 0
    endloop
  endfacet
  facet normal -0.965925 -0.258821 0
    outer loop
      vertex 1.40954 18.483 11.3
      vertex 1.47721 18.2305 0
      vertex 1.47721 18.2305 11.3
    endloop
  endfacet
  facet normal -0.819152 -0.573577 0
    outer loop
      vertex 1.29904 18.72 0
      vertex 1.14907 18.9342 11.3
      vertex 1.14907 18.9342 0
    endloop
  endfacet
  facet normal -0.819152 -0.573577 0
    outer loop
      vertex 1.14907 18.9342 11.3
      vertex 1.29904 18.72 0
      vertex 1.29904 18.72 11.3
    endloop
  endfacet
  facet normal -0.422622 -0.906306 0
    outer loop
      vertex 0.51303 19.3795 0
      vertex 0.75 19.269 11.3
      vertex 0.51303 19.3795 11.3
    endloop
  endfacet
  facet normal -0.422622 -0.906306 -0
    outer loop
      vertex 0.75 19.269 11.3
      vertex 0.51303 19.3795 0
      vertex 0.75 19.269 0
    endloop
  endfacet
  facet normal -0.258818 -0.965926 0
    outer loop
      vertex 0.260471 19.4472 0
      vertex 0.51303 19.3795 11.3
      vertex 0.260471 19.4472 11.3
    endloop
  endfacet
  facet normal -0.258818 -0.965926 -0
    outer loop
      vertex 0.51303 19.3795 11.3
      vertex 0.260471 19.4472 0
      vertex 0.51303 19.3795 0
    endloop
  endfacet
  facet normal -0.573576 -0.819152 0
    outer loop
      vertex 0.75 19.269 0
      vertex 0.964181 19.1191 11.3
      vertex 0.75 19.269 11.3
    endloop
  endfacet
  facet normal -0.573576 -0.819152 -0
    outer loop
      vertex 0.964181 19.1191 11.3
      vertex 0.75 19.269 0
      vertex 0.964181 19.1191 0
    endloop
  endfacet
  facet normal 0.906309 -0.422615 0
    outer loop
      vertex -1.40954 18.483 11.3
      vertex -1.29904 18.72 0
      vertex -1.29904 18.72 11.3
    endloop
  endfacet
  facet normal 0.906309 -0.422615 0
    outer loop
      vertex -1.29904 18.72 0
      vertex -1.40954 18.483 11.3
      vertex -1.40954 18.483 0
    endloop
  endfacet
  facet normal 0.819152 -0.573577 0
    outer loop
      vertex -1.29904 18.72 11.3
      vertex -1.14907 18.9342 0
      vertex -1.14907 18.9342 11.3
    endloop
  endfacet
  facet normal 0.819152 -0.573577 0
    outer loop
      vertex -1.14907 18.9342 0
      vertex -1.29904 18.72 11.3
      vertex -1.29904 18.72 0
    endloop
  endfacet
  facet normal 0.965925 -0.258821 0
    outer loop
      vertex -1.47721 18.2305 11.3
      vertex -1.40954 18.483 0
      vertex -1.40954 18.483 11.3
    endloop
  endfacet
  facet normal 0.965925 -0.258821 0
    outer loop
      vertex -1.40954 18.483 0
      vertex -1.47721 18.2305 11.3
      vertex -1.47721 18.2305 0
    endloop
  endfacet
  facet normal 0.573574 -0.819153 0
    outer loop
      vertex -0.964181 19.1191 0
      vertex -0.749999 19.269 11.3
      vertex -0.964181 19.1191 11.3
    endloop
  endfacet
  facet normal 0.573574 -0.819153 0
    outer loop
      vertex -0.749999 19.269 11.3
      vertex -0.964181 19.1191 0
      vertex -0.749999 19.269 0
    endloop
  endfacet
  facet normal 0.258818 -0.965926 0
    outer loop
      vertex -0.51303 19.3795 0
      vertex -0.260471 19.4472 11.3
      vertex -0.51303 19.3795 11.3
    endloop
  endfacet
  facet normal 0.258818 -0.965926 0
    outer loop
      vertex -0.260471 19.4472 11.3
      vertex -0.51303 19.3795 0
      vertex -0.260471 19.4472 0
    endloop
  endfacet
  facet normal -0.573574 0.819153 0
    outer loop
      vertex 0.964181 16.8209 0
      vertex 0.749999 16.671 11.3
      vertex 0.964181 16.8209 11.3
    endloop
  endfacet
  facet normal -0.573574 0.819153 0
    outer loop
      vertex 0.749999 16.671 11.3
      vertex 0.964181 16.8209 0
      vertex 0.749999 16.671 0
    endloop
  endfacet
  facet normal 0.573576 0.819152 -0
    outer loop
      vertex -0.75 16.671 0
      vertex -0.964181 16.8209 11.3
      vertex -0.75 16.671 11.3
    endloop
  endfacet
  facet normal 0.573576 0.819152 0
    outer loop
      vertex -0.964181 16.8209 11.3
      vertex -0.75 16.671 0
      vertex -0.964181 16.8209 0
    endloop
  endfacet
  facet normal 0.258818 0.965926 -0
    outer loop
      vertex -0.260471 16.4928 0
      vertex -0.51303 16.5605 11.3
      vertex -0.260471 16.4928 11.3
    endloop
  endfacet
  facet normal 0.258818 0.965926 0
    outer loop
      vertex -0.51303 16.5605 11.3
      vertex -0.260471 16.4928 0
      vertex -0.51303 16.5605 0
    endloop
  endfacet
  facet normal 0.819152 0.573577 0
    outer loop
      vertex -1.14907 17.0058 11.3
      vertex -1.29904 17.22 0
      vertex -1.29904 17.22 11.3
    endloop
  endfacet
  facet normal 0.819152 0.573577 0
    outer loop
      vertex -1.29904 17.22 0
      vertex -1.14907 17.0058 11.3
      vertex -1.14907 17.0058 0
    endloop
  endfacet
  facet normal 0.707107 0.707107 0
    outer loop
      vertex -0.964181 16.8209 11.3
      vertex -1.14907 17.0058 0
      vertex -1.14907 17.0058 11.3
    endloop
  endfacet
  facet normal 0.707107 0.707107 0
    outer loop
      vertex -1.14907 17.0058 0
      vertex -0.964181 16.8209 11.3
      vertex -0.964181 16.8209 0
    endloop
  endfacet
  facet normal 0.996195 0.0871578 0
    outer loop
      vertex -1.47721 17.7095 11.3
      vertex -1.5 17.97 0
      vertex -1.5 17.97 11.3
    endloop
  endfacet
  facet normal 0.996195 0.0871578 0
    outer loop
      vertex -1.5 17.97 0
      vertex -1.47721 17.7095 11.3
      vertex -1.47721 17.7095 0
    endloop
  endfacet
  facet normal -0.0871512 -0.996195 0
    outer loop
      vertex 0 19.47 0
      vertex 0.260471 19.4472 11.3
      vertex 0 19.47 11.3
    endloop
  endfacet
  facet normal -0.0871512 -0.996195 -0
    outer loop
      vertex 0.260471 19.4472 11.3
      vertex 0 19.47 0
      vertex 0.260471 19.4472 0
    endloop
  endfacet
  facet normal -0.0871584 0.996194 0
    outer loop
      vertex 0.260471 16.4928 0
      vertex 0 16.47 11.3
      vertex 0.260471 16.4928 11.3
    endloop
  endfacet
  facet normal -0.0871584 0.996194 0
    outer loop
      vertex 0 16.47 11.3
      vertex 0.260471 16.4928 0
      vertex 0 16.47 0
    endloop
  endfacet
  facet normal -0.422618 0.906308 0
    outer loop
      vertex 0.749999 16.671 0
      vertex 0.51303 16.5605 11.3
      vertex 0.749999 16.671 11.3
    endloop
  endfacet
  facet normal -0.422618 0.906308 0
    outer loop
      vertex 0.51303 16.5605 11.3
      vertex 0.749999 16.671 0
      vertex 0.51303 16.5605 0
    endloop
  endfacet
  facet normal -0.819152 0.573577 0
    outer loop
      vertex 1.14907 17.0058 0
      vertex 1.29904 17.22 11.3
      vertex 1.29904 17.22 0
    endloop
  endfacet
  facet normal -0.819152 0.573577 0
    outer loop
      vertex 1.29904 17.22 11.3
      vertex 1.14907 17.0058 0
      vertex 1.14907 17.0058 11.3
    endloop
  endfacet
  facet normal -0.965925 0.258821 0
    outer loop
      vertex 1.40954 17.457 0
      vertex 1.47721 17.7095 11.3
      vertex 1.47721 17.7095 0
    endloop
  endfacet
  facet normal -0.965925 0.258821 0
    outer loop
      vertex 1.47721 17.7095 11.3
      vertex 1.40954 17.457 0
      vertex 1.40954 17.457 11.3
    endloop
  endfacet
  facet normal -0.996195 0.0871578 0
    outer loop
      vertex 1.47721 17.7095 0
      vertex 1.5 17.97 11.3
      vertex 1.5 17.97 0
    endloop
  endfacet
  facet normal -0.996195 0.0871578 0
    outer loop
      vertex 1.5 17.97 11.3
      vertex 1.47721 17.7095 0
      vertex 1.47721 17.7095 11.3
    endloop
  endfacet
  facet normal 0.422616 0.906309 -0
    outer loop
      vertex -0.51303 16.5605 0
      vertex -0.75 16.671 11.3
      vertex -0.51303 16.5605 11.3
    endloop
  endfacet
  facet normal 0.422616 0.906309 0
    outer loop
      vertex -0.75 16.671 11.3
      vertex -0.51303 16.5605 0
      vertex -0.75 16.671 0
    endloop
  endfacet
  facet normal 0.0871584 0.996194 -0
    outer loop
      vertex 0 16.47 0
      vertex -0.260471 16.4928 11.3
      vertex 0 16.47 11.3
    endloop
  endfacet
  facet normal 0.0871584 0.996194 0
    outer loop
      vertex -0.260471 16.4928 11.3
      vertex 0 16.47 0
      vertex -0.260471 16.4928 0
    endloop
  endfacet
  facet normal -0.258818 0.965926 0
    outer loop
      vertex 0.51303 16.5605 0
      vertex 0.260471 16.4928 11.3
      vertex 0.51303 16.5605 11.3
    endloop
  endfacet
  facet normal -0.258818 0.965926 0
    outer loop
      vertex 0.260471 16.4928 11.3
      vertex 0.51303 16.5605 0
      vertex 0.260471 16.4928 0
    endloop
  endfacet
  facet normal -0.906309 0.422615 0
    outer loop
      vertex 1.29904 17.22 0
      vertex 1.40954 17.457 11.3
      vertex 1.40954 17.457 0
    endloop
  endfacet
  facet normal -0.906309 0.422615 0
    outer loop
      vertex 1.40954 17.457 11.3
      vertex 1.29904 17.22 0
      vertex 1.29904 17.22 11.3
    endloop
  endfacet
  facet normal 0.906309 0.422615 0
    outer loop
      vertex -1.29904 17.22 11.3
      vertex -1.40954 17.457 0
      vertex -1.40954 17.457 11.3
    endloop
  endfacet
  facet normal 0.906309 0.422615 0
    outer loop
      vertex -1.40954 17.457 0
      vertex -1.29904 17.22 11.3
      vertex -1.29904 17.22 0
    endloop
  endfacet
endsolid OpenSCAD_Model
