solid OpenSCAD_Model
  facet normal 0.996195 0.087156 0
    outer loop
      vertex 4 33.2483 11.3
      vertex 3.93923 33.9428 0
      vertex 3.93923 33.9428 11.3
    endloop
  endfacet
  facet normal 0.996195 0.087156 0
    outer loop
      vertex 3.93923 33.9428 0
      vertex 4 33.2483 11.3
      vertex 4 33.2483 0
    endloop
  endfacet
  facet normal 0 0 -1
    outer loop
      vertex 1.29904 4.75 0
      vertex 4 4 0
      vertex 1.40954 4.51303 0
    endloop
  endfacet
  facet normal -0 0 -1
    outer loop
      vertex 4 33.2483 0
      vertex 1.47721 32.9878 0
      vertex 1.5 33.2483 0
    endloop
  endfacet
  facet normal 0 0 -1
    outer loop
      vertex 1.14907 4.96418 0
      vertex 4 4 0
      vertex 1.29904 4.75 0
    endloop
  endfacet
  facet normal 0 0 -1
    outer loop
      vertex 4 33.2483 0
      vertex 1.40954 32.7352 0
      vertex 1.47721 32.9878 0
    endloop
  endfacet
  facet normal 0 0 -1
    outer loop
      vertex 0.964181 5.14907 0
      vertex 4 4 0
      vertex 1.14907 4.96418 0
    endloop
  endfacet
  facet normal 0 0 -1
    outer loop
      vertex 4 33.2483 0
      vertex 1.29904 32.4983 0
      vertex 1.40954 32.7352 0
    endloop
  endfacet
  facet normal 0 0 -1
    outer loop
      vertex 0.75 5.29904 0
      vertex 4 4 0
      vertex 0.964181 5.14907 0
    endloop
  endfacet
  facet normal 0 0 -1
    outer loop
      vertex 4 33.2483 0
      vertex 1.14907 32.2841 0
      vertex 1.29904 32.4983 0
    endloop
  endfacet
  facet normal 0 0 -1
    outer loop
      vertex 4 4 0
      vertex 0.75 5.29904 0
      vertex 4 33.2483 0
    endloop
  endfacet
  facet normal 0 0 -1
    outer loop
      vertex 4 33.2483 0
      vertex 0.964181 32.0992 0
      vertex 1.14907 32.2841 0
    endloop
  endfacet
  facet normal 0 0 -1
    outer loop
      vertex 0.749999 31.9492 0
      vertex 4 33.2483 0
      vertex 0.75 5.29904 0
    endloop
  endfacet
  facet normal 0 0 -1
    outer loop
      vertex 4 33.2483 0
      vertex 0.749999 31.9492 0
      vertex 0.964181 32.0992 0
    endloop
  endfacet
  facet normal 0 0 -1
    outer loop
      vertex 0.51303 5.40954 0
      vertex 0.749999 31.9492 0
      vertex 0.75 5.29904 0
    endloop
  endfacet
  facet normal 0 0 -1
    outer loop
      vertex 0.51303 5.40954 0
      vertex 0.51303 31.8387 0
      vertex 0.749999 31.9492 0
    endloop
  endfacet
  facet normal 0 0 -1
    outer loop
      vertex 0.260471 5.47721 0
      vertex 0.51303 31.8387 0
      vertex 0.51303 5.40954 0
    endloop
  endfacet
  facet normal 0 0 -1
    outer loop
      vertex 0.260471 5.47721 0
      vertex 0.260471 31.771 0
      vertex 0.51303 31.8387 0
    endloop
  endfacet
  facet normal 0 0 -1
    outer loop
      vertex 0 5.5 0
      vertex 0.260471 31.771 0
      vertex 0.260471 5.47721 0
    endloop
  endfacet
  facet normal 0 0 -1
    outer loop
      vertex 0 5.5 0
      vertex 0 31.7483 0
      vertex 0.260471 31.771 0
    endloop
  endfacet
  facet normal 0 0 -1
    outer loop
      vertex -0.260471 5.47721 0
      vertex 0 31.7483 0
      vertex 0 5.5 0
    endloop
  endfacet
  facet normal 0 0 -1
    outer loop
      vertex -0.260471 5.47721 0
      vertex -0.260471 31.771 0
      vertex 0 31.7483 0
    endloop
  endfacet
  facet normal 0 0 -1
    outer loop
      vertex -0.51303 5.40954 0
      vertex -0.260471 31.771 0
      vertex -0.260471 5.47721 0
    endloop
  endfacet
  facet normal 0 0 -1
    outer loop
      vertex -0.51303 5.40954 0
      vertex -0.51303 31.8387 0
      vertex -0.260471 31.771 0
    endloop
  endfacet
  facet normal 0 0 -1
    outer loop
      vertex -0.749999 5.29904 0
      vertex -0.51303 31.8387 0
      vertex -0.51303 5.40954 0
    endloop
  endfacet
  facet normal 0 0 -1
    outer loop
      vertex -0.749999 5.29904 0
      vertex -0.75 31.9492 0
      vertex -0.51303 31.8387 0
    endloop
  endfacet
  facet normal 0 0 -1
    outer loop
      vertex -4 4 0
      vertex -0.749999 5.29904 0
      vertex -0.964181 5.14907 0
    endloop
  endfacet
  facet normal -0 0 -1
    outer loop
      vertex -0.749999 5.29904 0
      vertex -4 4 0
      vertex -0.75 31.9492 0
    endloop
  endfacet
  facet normal 0 0 -1
    outer loop
      vertex -4 4 0
      vertex -0.964181 5.14907 0
      vertex -1.14907 4.96418 0
    endloop
  endfacet
  facet normal 0 0 -1
    outer loop
      vertex -4 33.2483 0
      vertex -0.75 31.9492 0
      vertex -4 4 0
    endloop
  endfacet
  facet normal 0 0 -1
    outer loop
      vertex -4 4 0
      vertex -1.14907 4.96418 0
      vertex -1.29904 4.75 0
    endloop
  endfacet
  facet normal 0 0 -1
    outer loop
      vertex -0.75 31.9492 0
      vertex -4 33.2483 0
      vertex -0.964181 32.0992 0
    endloop
  endfacet
  facet normal 0 0 -1
    outer loop
      vertex -4 4 0
      vertex -1.29904 4.75 0
      vertex -1.40954 4.51303 0
    endloop
  endfacet
  facet normal 0 0 -1
    outer loop
      vertex -0.964181 32.0992 0
      vertex -4 33.2483 0
      vertex -1.14907 32.2841 0
    endloop
  endfacet
  facet normal 0 0 -1
    outer loop
      vertex -4 4 0
      vertex -1.40954 4.51303 0
      vertex -1.47721 4.26047 0
    endloop
  endfacet
  facet normal 0 0 -1
    outer loop
      vertex -1.14907 32.2841 0
      vertex -4 33.2483 0
      vertex -1.29904 32.4983 0
    endloop
  endfacet
  facet normal 0 0 -1
    outer loop
      vertex -4 4 0
      vertex -1.47721 4.26047 0
      vertex -1.5 4 0
    endloop
  endfacet
  facet normal 0 0 -1
    outer loop
      vertex -1.29904 32.4983 0
      vertex -4 33.2483 0
      vertex -1.40954 32.7352 0
    endloop
  endfacet
  facet normal 0 0 -1
    outer loop
      vertex 3.93923 3.30541 0
      vertex 1.47721 3.73953 0
      vertex 1.5 4 0
    endloop
  endfacet
  facet normal 0 0 -1
    outer loop
      vertex 2.57115 0.935822 0
      vertex 1.40954 3.48697 0
      vertex 1.47721 3.73953 0
    endloop
  endfacet
  facet normal 0 0 -1
    outer loop
      vertex 0.749999 2.70096 0
      vertex 2 0.535898 0
      vertex 1.36808 0.241229 0
    endloop
  endfacet
  facet normal 0 0 -1
    outer loop
      vertex 2.57115 0.935822 0
      vertex 1.29904 3.25 0
      vertex 1.40954 3.48697 0
    endloop
  endfacet
  facet normal 0 0 -1
    outer loop
      vertex 2.57115 0.935822 0
      vertex 1.14907 3.03582 0
      vertex 1.29904 3.25 0
    endloop
  endfacet
  facet normal 0 0 -1
    outer loop
      vertex 2.57115 0.935822 0
      vertex 0.964181 2.85093 0
      vertex 1.14907 3.03582 0
    endloop
  endfacet
  facet normal 0 0 -1
    outer loop
      vertex 2 0.535898 0
      vertex 0.749999 2.70096 0
      vertex 0.964181 2.85093 0
    endloop
  endfacet
  facet normal 0 0 -1
    outer loop
      vertex 0.51303 2.59046 0
      vertex 1.36808 0.241229 0
      vertex 0.694592 0.0607681 0
    endloop
  endfacet
  facet normal 0 0 -1
    outer loop
      vertex 1.36808 0.241229 0
      vertex 0.51303 2.59046 0
      vertex 0.749999 2.70096 0
    endloop
  endfacet
  facet normal 0 0 -1
    outer loop
      vertex 0.694592 0.0607681 0
      vertex 0.260471 2.52279 0
      vertex 0.51303 2.59046 0
    endloop
  endfacet
  facet normal 0 0 -1
    outer loop
      vertex 0 0 0
      vertex 0.260471 2.52279 0
      vertex 0.694592 0.0607681 0
    endloop
  endfacet
  facet normal 0 0 -1
    outer loop
      vertex 0 0 0
      vertex 0 2.5 0
      vertex 0.260471 2.52279 0
    endloop
  endfacet
  facet normal 0 0 -1
    outer loop
      vertex 0 0 0
      vertex -0.260471 2.52279 0
      vertex 0 2.5 0
    endloop
  endfacet
  facet normal 0 0 -1
    outer loop
      vertex -0.694592 0.0607681 0
      vertex -0.260471 2.52279 0
      vertex 0 0 0
    endloop
  endfacet
  facet normal -0 0 -1
    outer loop
      vertex -0.260471 2.52279 0
      vertex -0.694592 0.0607681 0
      vertex -0.51303 2.59046 0
    endloop
  endfacet
  facet normal 0 0 -1
    outer loop
      vertex -1.36808 0.241229 0
      vertex -0.51303 2.59046 0
      vertex -0.694592 0.0607681 0
    endloop
  endfacet
  facet normal -0 0 -1
    outer loop
      vertex -0.51303 2.59046 0
      vertex -1.36808 0.241229 0
      vertex -0.75 2.70096 0
    endloop
  endfacet
  facet normal 0 0 -1
    outer loop
      vertex -2 0.535898 0
      vertex -0.75 2.70096 0
      vertex -1.36808 0.241229 0
    endloop
  endfacet
  facet normal -0 0 -1
    outer loop
      vertex -0.75 2.70096 0
      vertex -2 0.535898 0
      vertex -0.964181 2.85093 0
    endloop
  endfacet
  facet normal 0 0 -1
    outer loop
      vertex -2.57115 0.935822 0
      vertex -0.964181 2.85093 0
      vertex -2 0.535898 0
    endloop
  endfacet
  facet normal -0 0 -1
    outer loop
      vertex -0.964181 2.85093 0
      vertex -2.57115 0.935822 0
      vertex -1.14907 3.03582 0
    endloop
  endfacet
  facet normal 0 0 -1
    outer loop
      vertex -3.06418 1.42885 0
      vertex -1.14907 3.03582 0
      vertex -2.57115 0.935822 0
    endloop
  endfacet
  facet normal -0 0 -1
    outer loop
      vertex -1.14907 3.03582 0
      vertex -3.06418 1.42885 0
      vertex -1.29904 3.25 0
    endloop
  endfacet
  facet normal 0 0 -1
    outer loop
      vertex -1.47721 32.9878 0
      vertex -4 33.2483 0
      vertex -1.5 33.2483 0
    endloop
  endfacet
  facet normal 0 0 -1
    outer loop
      vertex -3.4641 2 0
      vertex -1.29904 3.25 0
      vertex -3.06418 1.42885 0
    endloop
  endfacet
  facet normal -0 0 -1
    outer loop
      vertex -1.29904 3.25 0
      vertex -3.4641 2 0
      vertex -1.40954 3.48697 0
    endloop
  endfacet
  facet normal 0 0 -1
    outer loop
      vertex -3.75877 2.63192 0
      vertex -1.40954 3.48697 0
      vertex -3.4641 2 0
    endloop
  endfacet
  facet normal 0 0 -1
    outer loop
      vertex -1.40954 32.7352 0
      vertex -4 33.2483 0
      vertex -1.47721 32.9878 0
    endloop
  endfacet
  facet normal -0 0 -1
    outer loop
      vertex -1.40954 3.48697 0
      vertex -3.75877 2.63192 0
      vertex -1.47721 3.73953 0
    endloop
  endfacet
  facet normal 0 -0 -1
    outer loop
      vertex -3.93923 33.9428 0
      vertex -1.5 33.2483 0
      vertex -4 33.2483 0
    endloop
  endfacet
  facet normal 0 0 -1
    outer loop
      vertex -3.93923 3.30541 0
      vertex -1.47721 3.73953 0
      vertex -3.75877 2.63192 0
    endloop
  endfacet
  facet normal 0 0 -1
    outer loop
      vertex -1.5 33.2483 0
      vertex -2.57115 36.3124 0
      vertex -2 36.7124 0
    endloop
  endfacet
  facet normal -0 0 -1
    outer loop
      vertex -1.47721 3.73953 0
      vertex -3.93923 3.30541 0
      vertex -1.5 4 0
    endloop
  endfacet
  facet normal 0 0 -1
    outer loop
      vertex -1.5 33.2483 0
      vertex -3.06418 35.8194 0
      vertex -2.57115 36.3124 0
    endloop
  endfacet
  facet normal -0 0 -1
    outer loop
      vertex -1.5 4 0
      vertex -3.93923 3.30541 0
      vertex -4 4 0
    endloop
  endfacet
  facet normal 0 0 -1
    outer loop
      vertex -1.5 33.2483 0
      vertex -3.4641 35.2483 0
      vertex -3.06418 35.8194 0
    endloop
  endfacet
  facet normal 0 0 -1
    outer loop
      vertex -1.5 33.2483 0
      vertex -3.75877 34.6163 0
      vertex -3.4641 35.2483 0
    endloop
  endfacet
  facet normal 0 0 -1
    outer loop
      vertex -1.5 33.2483 0
      vertex -3.93923 33.9428 0
      vertex -3.75877 34.6163 0
    endloop
  endfacet
  facet normal 0 0 -1
    outer loop
      vertex 1.5 4 0
      vertex 4 4 0
      vertex 3.93923 3.30541 0
    endloop
  endfacet
  facet normal 0 0 -1
    outer loop
      vertex 1.47721 4.26047 0
      vertex 4 4 0
      vertex 1.5 4 0
    endloop
  endfacet
  facet normal 0 0 -1
    outer loop
      vertex 1.47721 3.73953 0
      vertex 3.93923 3.30541 0
      vertex 3.75877 2.63192 0
    endloop
  endfacet
  facet normal 0 0 -1
    outer loop
      vertex 1.40954 4.51303 0
      vertex 4 4 0
      vertex 1.47721 4.26047 0
    endloop
  endfacet
  facet normal 0 0 -1
    outer loop
      vertex 1.47721 3.73953 0
      vertex 3.75877 2.63192 0
      vertex 3.4641 2 0
    endloop
  endfacet
  facet normal 0 0 -1
    outer loop
      vertex 4 33.2483 0
      vertex 1.5 33.2483 0
      vertex 3.93923 33.9428 0
    endloop
  endfacet
  facet normal 0 0 -1
    outer loop
      vertex 1.47721 3.73953 0
      vertex 3.4641 2 0
      vertex 3.06418 1.42885 0
    endloop
  endfacet
  facet normal 0 0 -1
    outer loop
      vertex 1.47721 33.5087 0
      vertex 3.93923 33.9428 0
      vertex 1.5 33.2483 0
    endloop
  endfacet
  facet normal 0 0 -1
    outer loop
      vertex 1.47721 3.73953 0
      vertex 3.06418 1.42885 0
      vertex 2.57115 0.935822 0
    endloop
  endfacet
  facet normal -0 0 -1
    outer loop
      vertex 3.93923 33.9428 0
      vertex 1.47721 33.5087 0
      vertex 3.75877 34.6163 0
    endloop
  endfacet
  facet normal -0 0 -1
    outer loop
      vertex 3.75877 34.6163 0
      vertex 1.40954 33.7613 0
      vertex 3.4641 35.2483 0
    endloop
  endfacet
  facet normal 0 0 -1
    outer loop
      vertex 0.964181 2.85093 0
      vertex 2.57115 0.935822 0
      vertex 2 0.535898 0
    endloop
  endfacet
  facet normal 0 0 -1
    outer loop
      vertex 1.40954 33.7613 0
      vertex 3.75877 34.6163 0
      vertex 1.47721 33.5087 0
    endloop
  endfacet
  facet normal 0 0 -1
    outer loop
      vertex 1.29904 33.9983 0
      vertex 3.4641 35.2483 0
      vertex 1.40954 33.7613 0
    endloop
  endfacet
  facet normal -0 0 -1
    outer loop
      vertex 3.4641 35.2483 0
      vertex 1.29904 33.9983 0
      vertex 3.06418 35.8194 0
    endloop
  endfacet
  facet normal 0 0 -1
    outer loop
      vertex 1.14907 34.2124 0
      vertex 3.06418 35.8194 0
      vertex 1.29904 33.9983 0
    endloop
  endfacet
  facet normal -0 0 -1
    outer loop
      vertex 3.06418 35.8194 0
      vertex 1.14907 34.2124 0
      vertex 2.57115 36.3124 0
    endloop
  endfacet
  facet normal 0 0 -1
    outer loop
      vertex 0.964181 34.3973 0
      vertex 2.57115 36.3124 0
      vertex 1.14907 34.2124 0
    endloop
  endfacet
  facet normal -0 0 -1
    outer loop
      vertex 2.57115 36.3124 0
      vertex 0.964181 34.3973 0
      vertex 2 36.7124 0
    endloop
  endfacet
  facet normal 0 0 -1
    outer loop
      vertex 0.75 34.5473 0
      vertex 2 36.7124 0
      vertex 0.964181 34.3973 0
    endloop
  endfacet
  facet normal -0 0 -1
    outer loop
      vertex 2 36.7124 0
      vertex 0.75 34.5473 0
      vertex 1.36808 37.007 0
    endloop
  endfacet
  facet normal 0 0 -1
    outer loop
      vertex 0.51303 34.6578 0
      vertex 1.36808 37.007 0
      vertex 0.75 34.5473 0
    endloop
  endfacet
  facet normal -0 0 -1
    outer loop
      vertex 1.36808 37.007 0
      vertex 0.51303 34.6578 0
      vertex 0.694592 37.1875 0
    endloop
  endfacet
  facet normal 0 0 -1
    outer loop
      vertex 0.260471 34.7255 0
      vertex 0.694592 37.1875 0
      vertex 0.51303 34.6578 0
    endloop
  endfacet
  facet normal 0 0 -1
    outer loop
      vertex 0 34.7483 0
      vertex 0.694592 37.1875 0
      vertex 0.260471 34.7255 0
    endloop
  endfacet
  facet normal 0 0 -1
    outer loop
      vertex 0 34.7483 0
      vertex 0 37.2483 0
      vertex 0.694592 37.1875 0
    endloop
  endfacet
  facet normal 0 0 -1
    outer loop
      vertex -0.260471 34.7255 0
      vertex 0 37.2483 0
      vertex 0 34.7483 0
    endloop
  endfacet
  facet normal 0 0 -1
    outer loop
      vertex -0.694592 37.1875 0
      vertex -0.260471 34.7255 0
      vertex -0.51303 34.6578 0
    endloop
  endfacet
  facet normal 0 0 -1
    outer loop
      vertex -0.260471 34.7255 0
      vertex -0.694592 37.1875 0
      vertex 0 37.2483 0
    endloop
  endfacet
  facet normal 0 0 -1
    outer loop
      vertex -1.36808 37.007 0
      vertex -0.51303 34.6578 0
      vertex -0.749999 34.5473 0
    endloop
  endfacet
  facet normal 0 0 -1
    outer loop
      vertex -2 36.7124 0
      vertex -0.749999 34.5473 0
      vertex -0.964181 34.3973 0
    endloop
  endfacet
  facet normal 0 0 -1
    outer loop
      vertex -2 36.7124 0
      vertex -0.964181 34.3973 0
      vertex -1.14907 34.2124 0
    endloop
  endfacet
  facet normal 0 0 -1
    outer loop
      vertex -2 36.7124 0
      vertex -1.14907 34.2124 0
      vertex -1.29904 33.9983 0
    endloop
  endfacet
  facet normal 0 0 -1
    outer loop
      vertex -0.51303 34.6578 0
      vertex -1.36808 37.007 0
      vertex -0.694592 37.1875 0
    endloop
  endfacet
  facet normal 0 0 -1
    outer loop
      vertex -2 36.7124 0
      vertex -1.29904 33.9983 0
      vertex -1.40954 33.7613 0
    endloop
  endfacet
  facet normal 0 0 -1
    outer loop
      vertex -2 36.7124 0
      vertex -1.40954 33.7613 0
      vertex -1.47721 33.5087 0
    endloop
  endfacet
  facet normal 0 0 -1
    outer loop
      vertex -2 36.7124 0
      vertex -1.47721 33.5087 0
      vertex -1.5 33.2483 0
    endloop
  endfacet
  facet normal 0 0 -1
    outer loop
      vertex -0.749999 34.5473 0
      vertex -2 36.7124 0
      vertex -1.36808 37.007 0
    endloop
  endfacet
  facet normal 0 0 1
    outer loop
      vertex 1.29904 32.4983 11.3
      vertex 4 33.2483 11.3
      vertex 1.40954 32.7352 11.3
    endloop
  endfacet
  facet normal 0 0 1
    outer loop
      vertex 4 4 11.3
      vertex 1.47721 4.26047 11.3
      vertex 1.5 4 11.3
    endloop
  endfacet
  facet normal 0 0 1
    outer loop
      vertex 1.14907 32.2841 11.3
      vertex 4 33.2483 11.3
      vertex 1.29904 32.4983 11.3
    endloop
  endfacet
  facet normal 0 0 1
    outer loop
      vertex 4 4 11.3
      vertex 1.40954 4.51303 11.3
      vertex 1.47721 4.26047 11.3
    endloop
  endfacet
  facet normal 0 0 1
    outer loop
      vertex 0.964181 32.0992 11.3
      vertex 4 33.2483 11.3
      vertex 1.14907 32.2841 11.3
    endloop
  endfacet
  facet normal 0 0 1
    outer loop
      vertex 4 4 11.3
      vertex 1.29904 4.75 11.3
      vertex 1.40954 4.51303 11.3
    endloop
  endfacet
  facet normal 0 0 1
    outer loop
      vertex 0.749999 31.9492 11.3
      vertex 4 33.2483 11.3
      vertex 0.964181 32.0992 11.3
    endloop
  endfacet
  facet normal 0 0 1
    outer loop
      vertex 4 4 11.3
      vertex 1.14907 4.96418 11.3
      vertex 1.29904 4.75 11.3
    endloop
  endfacet
  facet normal 0 0 1
    outer loop
      vertex 4 33.2483 11.3
      vertex 0.749999 31.9492 11.3
      vertex 4 4 11.3
    endloop
  endfacet
  facet normal 0 0 1
    outer loop
      vertex 4 4 11.3
      vertex 0.964181 5.14907 11.3
      vertex 1.14907 4.96418 11.3
    endloop
  endfacet
  facet normal 0 0 1
    outer loop
      vertex 4 4 11.3
      vertex 0.75 5.29904 11.3
      vertex 0.964181 5.14907 11.3
    endloop
  endfacet
  facet normal 0 0 1
    outer loop
      vertex 4 4 11.3
      vertex 0.749999 31.9492 11.3
      vertex 0.75 5.29904 11.3
    endloop
  endfacet
  facet normal -0 0 1
    outer loop
      vertex 0.51303 31.8387 11.3
      vertex 0.75 5.29904 11.3
      vertex 0.749999 31.9492 11.3
    endloop
  endfacet
  facet normal 0 0 1
    outer loop
      vertex 0.51303 31.8387 11.3
      vertex 0.51303 5.40954 11.3
      vertex 0.75 5.29904 11.3
    endloop
  endfacet
  facet normal -0 0 1
    outer loop
      vertex 0.260471 31.771 11.3
      vertex 0.51303 5.40954 11.3
      vertex 0.51303 31.8387 11.3
    endloop
  endfacet
  facet normal 0 0 1
    outer loop
      vertex 0.260471 31.771 11.3
      vertex 0.260471 5.47721 11.3
      vertex 0.51303 5.40954 11.3
    endloop
  endfacet
  facet normal -0 0 1
    outer loop
      vertex 0 31.7483 11.3
      vertex 0.260471 5.47721 11.3
      vertex 0.260471 31.771 11.3
    endloop
  endfacet
  facet normal 0 0 1
    outer loop
      vertex 0 31.7483 11.3
      vertex 0 5.5 11.3
      vertex 0.260471 5.47721 11.3
    endloop
  endfacet
  facet normal 0 0 1
    outer loop
      vertex -0.260471 31.771 11.3
      vertex 0 5.5 11.3
      vertex 0 31.7483 11.3
    endloop
  endfacet
  facet normal 0 0 1
    outer loop
      vertex -0.260471 31.771 11.3
      vertex -0.260471 5.47721 11.3
      vertex 0 5.5 11.3
    endloop
  endfacet
  facet normal 0 0 1
    outer loop
      vertex -0.51303 31.8387 11.3
      vertex -0.260471 5.47721 11.3
      vertex -0.260471 31.771 11.3
    endloop
  endfacet
  facet normal 0 0 1
    outer loop
      vertex -0.51303 31.8387 11.3
      vertex -0.51303 5.40954 11.3
      vertex -0.260471 5.47721 11.3
    endloop
  endfacet
  facet normal 0 0 1
    outer loop
      vertex -0.51303 31.8387 11.3
      vertex -0.749999 5.29904 11.3
      vertex -0.51303 5.40954 11.3
    endloop
  endfacet
  facet normal 0 0 1
    outer loop
      vertex -0.75 31.9492 11.3
      vertex -0.749999 5.29904 11.3
      vertex -0.51303 31.8387 11.3
    endloop
  endfacet
  facet normal 0 0 1
    outer loop
      vertex -4 33.2483 11.3
      vertex -0.75 31.9492 11.3
      vertex -0.964181 32.0992 11.3
    endloop
  endfacet
  facet normal 0 0 1
    outer loop
      vertex -0.75 31.9492 11.3
      vertex -4 33.2483 11.3
      vertex -0.749999 5.29904 11.3
    endloop
  endfacet
  facet normal 0 0 1
    outer loop
      vertex -4 33.2483 11.3
      vertex -0.964181 32.0992 11.3
      vertex -1.14907 32.2841 11.3
    endloop
  endfacet
  facet normal 0 0 1
    outer loop
      vertex -4 4 11.3
      vertex -0.749999 5.29904 11.3
      vertex -4 33.2483 11.3
    endloop
  endfacet
  facet normal 0 0 1
    outer loop
      vertex -4 33.2483 11.3
      vertex -1.14907 32.2841 11.3
      vertex -1.29904 32.4983 11.3
    endloop
  endfacet
  facet normal 0 0 1
    outer loop
      vertex -0.749999 5.29904 11.3
      vertex -4 4 11.3
      vertex -0.964181 5.14907 11.3
    endloop
  endfacet
  facet normal 0 0 1
    outer loop
      vertex -4 33.2483 11.3
      vertex -1.29904 32.4983 11.3
      vertex -1.40954 32.7352 11.3
    endloop
  endfacet
  facet normal 0 0 1
    outer loop
      vertex -0.964181 5.14907 11.3
      vertex -4 4 11.3
      vertex -1.14907 4.96418 11.3
    endloop
  endfacet
  facet normal 0 0 1
    outer loop
      vertex -4 33.2483 11.3
      vertex -1.40954 32.7352 11.3
      vertex -1.47721 32.9878 11.3
    endloop
  endfacet
  facet normal 0 0 1
    outer loop
      vertex -1.14907 4.96418 11.3
      vertex -4 4 11.3
      vertex -1.29904 4.75 11.3
    endloop
  endfacet
  facet normal -0 0 1
    outer loop
      vertex -4 33.2483 11.3
      vertex -1.47721 32.9878 11.3
      vertex -1.5 33.2483 11.3
    endloop
  endfacet
  facet normal 0 0 1
    outer loop
      vertex -1.29904 4.75 11.3
      vertex -4 4 11.3
      vertex -1.40954 4.51303 11.3
    endloop
  endfacet
  facet normal 0 0 1
    outer loop
      vertex 1.5 33.2483 11.3
      vertex 4 33.2483 11.3
      vertex 3.93923 33.9428 11.3
    endloop
  endfacet
  facet normal 0 0 1
    outer loop
      vertex 1.47721 32.9878 11.3
      vertex 4 33.2483 11.3
      vertex 1.5 33.2483 11.3
    endloop
  endfacet
  facet normal 0 0 1
    outer loop
      vertex 1.47721 33.5087 11.3
      vertex 3.93923 33.9428 11.3
      vertex 3.75877 34.6163 11.3
    endloop
  endfacet
  facet normal 0 0 1
    outer loop
      vertex 1.40954 32.7352 11.3
      vertex 4 33.2483 11.3
      vertex 1.47721 32.9878 11.3
    endloop
  endfacet
  facet normal 0 0 1
    outer loop
      vertex 1.40954 33.7613 11.3
      vertex 3.75877 34.6163 11.3
      vertex 3.4641 35.2483 11.3
    endloop
  endfacet
  facet normal 0 0 1
    outer loop
      vertex 4 4 11.3
      vertex 1.5 4 11.3
      vertex 3.93923 3.30541 11.3
    endloop
  endfacet
  facet normal 0 0 1
    outer loop
      vertex 1.29904 33.9983 11.3
      vertex 3.4641 35.2483 11.3
      vertex 3.06418 35.8194 11.3
    endloop
  endfacet
  facet normal -0 0 1
    outer loop
      vertex 1.47721 3.73953 11.3
      vertex 3.93923 3.30541 11.3
      vertex 1.5 4 11.3
    endloop
  endfacet
  facet normal 0 0 1
    outer loop
      vertex 1.14907 34.2124 11.3
      vertex 3.06418 35.8194 11.3
      vertex 2.57115 36.3124 11.3
    endloop
  endfacet
  facet normal 0 0 1
    outer loop
      vertex 3.93923 3.30541 11.3
      vertex 1.47721 3.73953 11.3
      vertex 3.75877 2.63192 11.3
    endloop
  endfacet
  facet normal 0 0 1
    outer loop
      vertex 0.964181 34.3973 11.3
      vertex 2.57115 36.3124 11.3
      vertex 2 36.7124 11.3
    endloop
  endfacet
  facet normal -0 0 1
    outer loop
      vertex 1.40954 3.48697 11.3
      vertex 3.75877 2.63192 11.3
      vertex 1.47721 3.73953 11.3
    endloop
  endfacet
  facet normal 0 0 1
    outer loop
      vertex 3.75877 2.63192 11.3
      vertex 1.40954 3.48697 11.3
      vertex 3.4641 2 11.3
    endloop
  endfacet
  facet normal 0 0 1
    outer loop
      vertex 3.93923 33.9428 11.3
      vertex 1.47721 33.5087 11.3
      vertex 1.5 33.2483 11.3
    endloop
  endfacet
  facet normal 0 0 1
    outer loop
      vertex 3.75877 34.6163 11.3
      vertex 1.40954 33.7613 11.3
      vertex 1.47721 33.5087 11.3
    endloop
  endfacet
  facet normal 0 0 1
    outer loop
      vertex 0.75 34.5473 11.3
      vertex 2 36.7124 11.3
      vertex 1.36808 37.007 11.3
    endloop
  endfacet
  facet normal 0 0 1
    outer loop
      vertex 3.4641 35.2483 11.3
      vertex 1.29904 33.9983 11.3
      vertex 1.40954 33.7613 11.3
    endloop
  endfacet
  facet normal 0 0 1
    outer loop
      vertex 3.06418 35.8194 11.3
      vertex 1.14907 34.2124 11.3
      vertex 1.29904 33.9983 11.3
    endloop
  endfacet
  facet normal 0 0 1
    outer loop
      vertex 2.57115 36.3124 11.3
      vertex 0.964181 34.3973 11.3
      vertex 1.14907 34.2124 11.3
    endloop
  endfacet
  facet normal 0 0 1
    outer loop
      vertex 2 36.7124 11.3
      vertex 0.75 34.5473 11.3
      vertex 0.964181 34.3973 11.3
    endloop
  endfacet
  facet normal 0 0 1
    outer loop
      vertex 0.51303 34.6578 11.3
      vertex 1.36808 37.007 11.3
      vertex 0.694592 37.1875 11.3
    endloop
  endfacet
  facet normal 0 0 1
    outer loop
      vertex 1.36808 37.007 11.3
      vertex 0.51303 34.6578 11.3
      vertex 0.75 34.5473 11.3
    endloop
  endfacet
  facet normal 0 0 1
    outer loop
      vertex 0.694592 37.1875 11.3
      vertex 0.260471 34.7255 11.3
      vertex 0.51303 34.6578 11.3
    endloop
  endfacet
  facet normal 0 0 1
    outer loop
      vertex 0 37.2483 11.3
      vertex 0.260471 34.7255 11.3
      vertex 0.694592 37.1875 11.3
    endloop
  endfacet
  facet normal 0 0 1
    outer loop
      vertex 0 37.2483 11.3
      vertex 0 34.7483 11.3
      vertex 0.260471 34.7255 11.3
    endloop
  endfacet
  facet normal 0 0 1
    outer loop
      vertex 0 37.2483 11.3
      vertex -0.260471 34.7255 11.3
      vertex 0 34.7483 11.3
    endloop
  endfacet
  facet normal -0 0 1
    outer loop
      vertex -0.694592 37.1875 11.3
      vertex -0.260471 34.7255 11.3
      vertex 0 37.2483 11.3
    endloop
  endfacet
  facet normal 0 0 1
    outer loop
      vertex -0.260471 34.7255 11.3
      vertex -0.694592 37.1875 11.3
      vertex -0.51303 34.6578 11.3
    endloop
  endfacet
  facet normal -0 0 1
    outer loop
      vertex -1.36808 37.007 11.3
      vertex -0.51303 34.6578 11.3
      vertex -0.694592 37.1875 11.3
    endloop
  endfacet
  facet normal 0 0 1
    outer loop
      vertex -0.51303 34.6578 11.3
      vertex -1.36808 37.007 11.3
      vertex -0.749999 34.5473 11.3
    endloop
  endfacet
  facet normal -0 0 1
    outer loop
      vertex -2 36.7124 11.3
      vertex -0.749999 34.5473 11.3
      vertex -1.36808 37.007 11.3
    endloop
  endfacet
  facet normal 0 0 1
    outer loop
      vertex -0.749999 34.5473 11.3
      vertex -2 36.7124 11.3
      vertex -0.964181 34.3973 11.3
    endloop
  endfacet
  facet normal -0 0 1
    outer loop
      vertex -2.57115 36.3124 11.3
      vertex -0.964181 34.3973 11.3
      vertex -2 36.7124 11.3
    endloop
  endfacet
  facet normal 0 0 1
    outer loop
      vertex -0.964181 34.3973 11.3
      vertex -2.57115 36.3124 11.3
      vertex -1.14907 34.2124 11.3
    endloop
  endfacet
  facet normal -0 0 1
    outer loop
      vertex -3.06418 35.8194 11.3
      vertex -1.14907 34.2124 11.3
      vertex -2.57115 36.3124 11.3
    endloop
  endfacet
  facet normal 0 0 1
    outer loop
      vertex -1.14907 34.2124 11.3
      vertex -3.06418 35.8194 11.3
      vertex -1.29904 33.9983 11.3
    endloop
  endfacet
  facet normal 0 0 1
    outer loop
      vertex -1.29904 33.9983 11.3
      vertex -3.4641 35.2483 11.3
      vertex -1.40954 33.7613 11.3
    endloop
  endfacet
  facet normal -0 0 1
    outer loop
      vertex -3.4641 35.2483 11.3
      vertex -1.29904 33.9983 11.3
      vertex -3.06418 35.8194 11.3
    endloop
  endfacet
  facet normal -0 0 1
    outer loop
      vertex 1.29904 3.25 11.3
      vertex 3.4641 2 11.3
      vertex 1.40954 3.48697 11.3
    endloop
  endfacet
  facet normal 0 0 1
    outer loop
      vertex 3.4641 2 11.3
      vertex 1.29904 3.25 11.3
      vertex 3.06418 1.42885 11.3
    endloop
  endfacet
  facet normal -0 0 1
    outer loop
      vertex 1.14907 3.03582 11.3
      vertex 3.06418 1.42885 11.3
      vertex 1.29904 3.25 11.3
    endloop
  endfacet
  facet normal 0 0 1
    outer loop
      vertex 3.06418 1.42885 11.3
      vertex 1.14907 3.03582 11.3
      vertex 2.57115 0.935822 11.3
    endloop
  endfacet
  facet normal -0 0 1
    outer loop
      vertex 0.964181 2.85093 11.3
      vertex 2.57115 0.935822 11.3
      vertex 1.14907 3.03582 11.3
    endloop
  endfacet
  facet normal 0 0 1
    outer loop
      vertex 2.57115 0.935822 11.3
      vertex 0.964181 2.85093 11.3
      vertex 2 0.535898 11.3
    endloop
  endfacet
  facet normal -0 0 1
    outer loop
      vertex 0.749999 2.70096 11.3
      vertex 2 0.535898 11.3
      vertex 0.964181 2.85093 11.3
    endloop
  endfacet
  facet normal 0 0 1
    outer loop
      vertex 2 0.535898 11.3
      vertex 0.749999 2.70096 11.3
      vertex 1.36808 0.241229 11.3
    endloop
  endfacet
  facet normal -0 0 1
    outer loop
      vertex 0.51303 2.59046 11.3
      vertex 1.36808 0.241229 11.3
      vertex 0.749999 2.70096 11.3
    endloop
  endfacet
  facet normal 0 0 1
    outer loop
      vertex 1.36808 0.241229 11.3
      vertex 0.51303 2.59046 11.3
      vertex 0.694592 0.0607681 11.3
    endloop
  endfacet
  facet normal -0 0 1
    outer loop
      vertex 0.260471 2.52279 11.3
      vertex 0.694592 0.0607681 11.3
      vertex 0.51303 2.59046 11.3
    endloop
  endfacet
  facet normal -0 0 1
    outer loop
      vertex 0 2.5 11.3
      vertex 0.694592 0.0607681 11.3
      vertex 0.260471 2.52279 11.3
    endloop
  endfacet
  facet normal 0 0 1
    outer loop
      vertex 0 2.5 11.3
      vertex 0 0 11.3
      vertex 0.694592 0.0607681 11.3
    endloop
  endfacet
  facet normal 0 0 1
    outer loop
      vertex -0.260471 2.52279 11.3
      vertex 0 0 11.3
      vertex 0 2.5 11.3
    endloop
  endfacet
  facet normal 0 0 1
    outer loop
      vertex -0.694592 0.0607681 11.3
      vertex -0.260471 2.52279 11.3
      vertex -0.51303 2.59046 11.3
    endloop
  endfacet
  facet normal 0 0 1
    outer loop
      vertex -0.260471 2.52279 11.3
      vertex -0.694592 0.0607681 11.3
      vertex 0 0 11.3
    endloop
  endfacet
  facet normal 0 0 1
    outer loop
      vertex -1.36808 0.241229 11.3
      vertex -0.51303 2.59046 11.3
      vertex -0.75 2.70096 11.3
    endloop
  endfacet
  facet normal 0 0 1
    outer loop
      vertex -2 0.535898 11.3
      vertex -0.75 2.70096 11.3
      vertex -0.964181 2.85093 11.3
    endloop
  endfacet
  facet normal 0 0 1
    outer loop
      vertex -2.57115 0.935822 11.3
      vertex -0.964181 2.85093 11.3
      vertex -1.14907 3.03582 11.3
    endloop
  endfacet
  facet normal 0 0 1
    outer loop
      vertex -3.06418 1.42885 11.3
      vertex -1.14907 3.03582 11.3
      vertex -1.29904 3.25 11.3
    endloop
  endfacet
  facet normal 0 0 1
    outer loop
      vertex -0.51303 2.59046 11.3
      vertex -1.36808 0.241229 11.3
      vertex -0.694592 0.0607681 11.3
    endloop
  endfacet
  facet normal 0 0 1
    outer loop
      vertex -3.4641 2 11.3
      vertex -1.29904 3.25 11.3
      vertex -1.40954 3.48697 11.3
    endloop
  endfacet
  facet normal 0 0 1
    outer loop
      vertex -3.75877 2.63192 11.3
      vertex -1.40954 3.48697 11.3
      vertex -1.47721 3.73953 11.3
    endloop
  endfacet
  facet normal 0 0 1
    outer loop
      vertex -3.93923 3.30541 11.3
      vertex -1.47721 3.73953 11.3
      vertex -1.5 4 11.3
    endloop
  endfacet
  facet normal 0 0 1
    outer loop
      vertex -0.75 2.70096 11.3
      vertex -2 0.535898 11.3
      vertex -1.36808 0.241229 11.3
    endloop
  endfacet
  facet normal 0 0 1
    outer loop
      vertex -1.40954 4.51303 11.3
      vertex -4 4 11.3
      vertex -1.47721 4.26047 11.3
    endloop
  endfacet
  facet normal -0 0 1
    outer loop
      vertex -3.75877 34.6163 11.3
      vertex -1.40954 33.7613 11.3
      vertex -3.4641 35.2483 11.3
    endloop
  endfacet
  facet normal 0 0 1
    outer loop
      vertex -1.47721 4.26047 11.3
      vertex -4 4 11.3
      vertex -1.5 4 11.3
    endloop
  endfacet
  facet normal 0 0 1
    outer loop
      vertex -1.40954 33.7613 11.3
      vertex -3.75877 34.6163 11.3
      vertex -1.47721 33.5087 11.3
    endloop
  endfacet
  facet normal 0 -0 1
    outer loop
      vertex -3.93923 3.30541 11.3
      vertex -1.5 4 11.3
      vertex -4 4 11.3
    endloop
  endfacet
  facet normal -0 0 1
    outer loop
      vertex -3.93923 33.9428 11.3
      vertex -1.47721 33.5087 11.3
      vertex -3.75877 34.6163 11.3
    endloop
  endfacet
  facet normal 0 0 1
    outer loop
      vertex -0.964181 2.85093 11.3
      vertex -2.57115 0.935822 11.3
      vertex -2 0.535898 11.3
    endloop
  endfacet
  facet normal 0 0 1
    outer loop
      vertex -1.47721 33.5087 11.3
      vertex -3.93923 33.9428 11.3
      vertex -1.5 33.2483 11.3
    endloop
  endfacet
  facet normal 0 0 1
    outer loop
      vertex -1.14907 3.03582 11.3
      vertex -3.06418 1.42885 11.3
      vertex -2.57115 0.935822 11.3
    endloop
  endfacet
  facet normal 0 0 1
    outer loop
      vertex -1.5 33.2483 11.3
      vertex -3.93923 33.9428 11.3
      vertex -4 33.2483 11.3
    endloop
  endfacet
  facet normal 0 0 1
    outer loop
      vertex -1.29904 3.25 11.3
      vertex -3.4641 2 11.3
      vertex -3.06418 1.42885 11.3
    endloop
  endfacet
  facet normal 0 0 1
    outer loop
      vertex -1.40954 3.48697 11.3
      vertex -3.75877 2.63192 11.3
      vertex -3.4641 2 11.3
    endloop
  endfacet
  facet normal 0 0 1
    outer loop
      vertex -1.47721 3.73953 11.3
      vertex -3.93923 3.30541 11.3
      vertex -3.75877 2.63192 11.3
    endloop
  endfacet
  facet normal 0.965926 0.258819 0
    outer loop
      vertex 3.93923 33.9428 11.3
      vertex 3.75877 34.6163 0
      vertex 3.75877 34.6163 11.3
    endloop
  endfacet
  facet normal 0.965926 0.258819 0
    outer loop
      vertex 3.75877 34.6163 0
      vertex 3.93923 33.9428 11.3
      vertex 3.93923 33.9428 0
    endloop
  endfacet
  facet normal 0.996195 -0.0871558 0
    outer loop
      vertex 3.93923 3.30541 11.3
      vertex 4 4 0
      vertex 4 4 11.3
    endloop
  endfacet
  facet normal 0.996195 -0.0871558 0
    outer loop
      vertex 4 4 0
      vertex 3.93923 3.30541 11.3
      vertex 3.93923 3.30541 0
    endloop
  endfacet
  facet normal -0.819152 -0.573576 0
    outer loop
      vertex -3.06418 1.42885 0
      vertex -3.4641 2 11.3
      vertex -3.4641 2 0
    endloop
  endfacet
  facet normal -0.819152 -0.573576 0
    outer loop
      vertex -3.4641 2 11.3
      vertex -3.06418 1.42885 0
      vertex -3.06418 1.42885 11.3
    endloop
  endfacet
  facet normal -0.965926 -0.25882 0
    outer loop
      vertex -3.75877 2.63192 0
      vertex -3.93923 3.30541 11.3
      vertex -3.93923 3.30541 0
    endloop
  endfacet
  facet normal -0.965926 -0.25882 0
    outer loop
      vertex -3.93923 3.30541 11.3
      vertex -3.75877 2.63192 0
      vertex -3.75877 2.63192 11.3
    endloop
  endfacet
  facet normal -0.965926 0.258819 0
    outer loop
      vertex -3.93923 33.9428 0
      vertex -3.75877 34.6163 11.3
      vertex -3.75877 34.6163 0
    endloop
  endfacet
  facet normal -0.965926 0.258819 0
    outer loop
      vertex -3.75877 34.6163 11.3
      vertex -3.93923 33.9428 0
      vertex -3.93923 33.9428 11.3
    endloop
  endfacet
  facet normal -1 0 0
    outer loop
      vertex -4 4 0
      vertex -4 33.2483 11.3
      vertex -4 33.2483 0
    endloop
  endfacet
  facet normal -1 -0 0
    outer loop
      vertex -4 33.2483 11.3
      vertex -4 4 0
      vertex -4 4 11.3
    endloop
  endfacet
  facet normal -0.996195 0.087156 0
    outer loop
      vertex -4 33.2483 0
      vertex -3.93923 33.9428 11.3
      vertex -3.93923 33.9428 0
    endloop
  endfacet
  facet normal -0.996195 0.087156 0
    outer loop
      vertex -3.93923 33.9428 11.3
      vertex -4 33.2483 0
      vertex -4 33.2483 11.3
    endloop
  endfacet
  facet normal -0.996195 -0.0871558 0
    outer loop
      vertex -3.93923 3.30541 0
      vertex -4 4 11.3
      vertex -4 4 0
    endloop
  endfacet
  facet normal -0.996195 -0.0871558 0
    outer loop
      vertex -4 4 11.3
      vertex -3.93923 3.30541 0
      vertex -3.93923 3.30541 11.3
    endloop
  endfacet
  facet normal 1 -0 0
    outer loop
      vertex 4 4 11.3
      vertex 4 33.2483 0
      vertex 4 33.2483 11.3
    endloop
  endfacet
  facet normal 1 0 0
    outer loop
      vertex 4 33.2483 0
      vertex 4 4 11.3
      vertex 4 4 0
    endloop
  endfacet
  facet normal 0.965926 -0.25882 0
    outer loop
      vertex 3.75877 2.63192 11.3
      vertex 3.93923 3.30541 0
      vertex 3.93923 3.30541 11.3
    endloop
  endfacet
  facet normal 0.965926 -0.25882 0
    outer loop
      vertex 3.93923 3.30541 0
      vertex 3.75877 2.63192 11.3
      vertex 3.75877 2.63192 0
    endloop
  endfacet
  facet normal 0.573576 -0.819153 0
    outer loop
      vertex 2 0.535898 0
      vertex 2.57115 0.935822 11.3
      vertex 2 0.535898 11.3
    endloop
  endfacet
  facet normal 0.573576 -0.819153 0
    outer loop
      vertex 2.57115 0.935822 11.3
      vertex 2 0.535898 0
      vertex 2.57115 0.935822 0
    endloop
  endfacet
  facet normal -0.25882 -0.965926 0
    outer loop
      vertex -1.36808 0.241229 0
      vertex -0.694592 0.0607681 11.3
      vertex -1.36808 0.241229 11.3
    endloop
  endfacet
  facet normal -0.25882 -0.965926 -0
    outer loop
      vertex -0.694592 0.0607681 11.3
      vertex -1.36808 0.241229 0
      vertex -0.694592 0.0607681 0
    endloop
  endfacet
  facet normal -0.573576 -0.819152 0
    outer loop
      vertex -2.57115 0.935822 0
      vertex -2 0.535898 11.3
      vertex -2.57115 0.935822 11.3
    endloop
  endfacet
  facet normal -0.573576 -0.819152 -0
    outer loop
      vertex -2 0.535898 11.3
      vertex -2.57115 0.935822 0
      vertex -2 0.535898 0
    endloop
  endfacet
  facet normal 0.422619 -0.906307 0
    outer loop
      vertex 1.36808 0.241229 0
      vertex 2 0.535898 11.3
      vertex 1.36808 0.241229 11.3
    endloop
  endfacet
  facet normal 0.422619 -0.906307 0
    outer loop
      vertex 2 0.535898 11.3
      vertex 1.36808 0.241229 0
      vertex 2 0.535898 0
    endloop
  endfacet
  facet normal 0.25882 -0.965926 0
    outer loop
      vertex 0.694592 0.0607681 0
      vertex 1.36808 0.241229 11.3
      vertex 0.694592 0.0607681 11.3
    endloop
  endfacet
  facet normal 0.25882 -0.965926 0
    outer loop
      vertex 1.36808 0.241229 11.3
      vertex 0.694592 0.0607681 0
      vertex 1.36808 0.241229 0
    endloop
  endfacet
  facet normal -0.707107 -0.707107 0
    outer loop
      vertex -2.57115 0.935822 0
      vertex -3.06418 1.42885 11.3
      vertex -3.06418 1.42885 0
    endloop
  endfacet
  facet normal -0.707107 -0.707107 0
    outer loop
      vertex -3.06418 1.42885 11.3
      vertex -2.57115 0.935822 0
      vertex -2.57115 0.935822 11.3
    endloop
  endfacet
  facet normal -0.906308 -0.422618 0
    outer loop
      vertex -3.4641 2 0
      vertex -3.75877 2.63192 11.3
      vertex -3.75877 2.63192 0
    endloop
  endfacet
  facet normal -0.906308 -0.422618 0
    outer loop
      vertex -3.75877 2.63192 11.3
      vertex -3.4641 2 0
      vertex -3.4641 2 11.3
    endloop
  endfacet
  facet normal 0.422615 0.906309 -0
    outer loop
      vertex 2 36.7124 0
      vertex 1.36808 37.007 11.3
      vertex 2 36.7124 11.3
    endloop
  endfacet
  facet normal 0.422615 0.906309 0
    outer loop
      vertex 1.36808 37.007 11.3
      vertex 2 36.7124 0
      vertex 1.36808 37.007 0
    endloop
  endfacet
  facet normal -0.707106 0.707107 0
    outer loop
      vertex -2.57115 36.3124 0
      vertex -3.06418 35.8194 11.3
      vertex -2.57115 36.3124 11.3
    endloop
  endfacet
  facet normal -0.707106 0.707107 0
    outer loop
      vertex -3.06418 35.8194 11.3
      vertex -2.57115 36.3124 0
      vertex -3.06418 35.8194 0
    endloop
  endfacet
  facet normal 0.906307 -0.422619 0
    outer loop
      vertex 3.4641 2 11.3
      vertex 3.75877 2.63192 0
      vertex 3.75877 2.63192 11.3
    endloop
  endfacet
  facet normal 0.906307 -0.422619 0
    outer loop
      vertex 3.75877 2.63192 0
      vertex 3.4641 2 11.3
      vertex 3.4641 2 0
    endloop
  endfacet
  facet normal 0.707107 -0.707107 0
    outer loop
      vertex 2.57115 0.935822 11.3
      vertex 3.06418 1.42885 0
      vertex 3.06418 1.42885 11.3
    endloop
  endfacet
  facet normal 0.707107 -0.707107 0
    outer loop
      vertex 3.06418 1.42885 0
      vertex 2.57115 0.935822 11.3
      vertex 2.57115 0.935822 0
    endloop
  endfacet
  facet normal -0.422618 -0.906308 0
    outer loop
      vertex -2 0.535898 0
      vertex -1.36808 0.241229 11.3
      vertex -2 0.535898 11.3
    endloop
  endfacet
  facet normal -0.422618 -0.906308 -0
    outer loop
      vertex -1.36808 0.241229 11.3
      vertex -2 0.535898 0
      vertex -1.36808 0.241229 0
    endloop
  endfacet
  facet normal -0.906308 0.422618 0
    outer loop
      vertex -3.75877 34.6163 0
      vertex -3.4641 35.2483 11.3
      vertex -3.4641 35.2483 0
    endloop
  endfacet
  facet normal -0.906308 0.422618 0
    outer loop
      vertex -3.4641 35.2483 11.3
      vertex -3.75877 34.6163 0
      vertex -3.75877 34.6163 11.3
    endloop
  endfacet
  facet normal -0.819153 0.573575 0
    outer loop
      vertex -3.4641 35.2483 0
      vertex -3.06418 35.8194 11.3
      vertex -3.06418 35.8194 0
    endloop
  endfacet
  facet normal -0.819153 0.573575 0
    outer loop
      vertex -3.06418 35.8194 11.3
      vertex -3.4641 35.2483 0
      vertex -3.4641 35.2483 11.3
    endloop
  endfacet
  facet normal -0.422616 0.906309 0
    outer loop
      vertex -1.36808 37.007 0
      vertex -2 36.7124 11.3
      vertex -1.36808 37.007 11.3
    endloop
  endfacet
  facet normal -0.422616 0.906309 0
    outer loop
      vertex -2 36.7124 11.3
      vertex -1.36808 37.007 0
      vertex -2 36.7124 0
    endloop
  endfacet
  facet normal -0.258821 0.965925 0
    outer loop
      vertex -0.694592 37.1875 0
      vertex -1.36808 37.007 11.3
      vertex -0.694592 37.1875 11.3
    endloop
  endfacet
  facet normal -0.258821 0.965925 0
    outer loop
      vertex -1.36808 37.007 11.3
      vertex -0.694592 37.1875 0
      vertex -1.36808 37.007 0
    endloop
  endfacet
  facet normal -0.573578 0.819151 0
    outer loop
      vertex -2 36.7124 0
      vertex -2.57115 36.3124 11.3
      vertex -2 36.7124 11.3
    endloop
  endfacet
  facet normal -0.573578 0.819151 0
    outer loop
      vertex -2.57115 36.3124 11.3
      vertex -2 36.7124 0
      vertex -2.57115 36.3124 0
    endloop
  endfacet
  facet normal -0.0871545 0.996195 0
    outer loop
      vertex 0 37.2483 0
      vertex -0.694592 37.1875 11.3
      vertex 0 37.2483 11.3
    endloop
  endfacet
  facet normal -0.0871545 0.996195 0
    outer loop
      vertex -0.694592 37.1875 11.3
      vertex 0 37.2483 0
      vertex -0.694592 37.1875 0
    endloop
  endfacet
  facet normal 0.258821 0.965925 -0
    outer loop
      vertex 1.36808 37.007 0
      vertex 0.694592 37.1875 11.3
      vertex 1.36808 37.007 11.3
    endloop
  endfacet
  facet normal 0.258821 0.965925 0
    outer loop
      vertex 0.694592 37.1875 11.3
      vertex 1.36808 37.007 0
      vertex 0.694592 37.1875 0
    endloop
  endfacet
  facet normal 0.707106 0.707107 -0
    outer loop
      vertex 3.06418 35.8194 0
      vertex 2.57115 36.3124 11.3
      vertex 3.06418 35.8194 11.3
    endloop
  endfacet
  facet normal 0.707106 0.707107 0
    outer loop
      vertex 2.57115 36.3124 11.3
      vertex 3.06418 35.8194 0
      vertex 2.57115 36.3124 0
    endloop
  endfacet
  facet normal 0.573578 0.819151 -0
    outer loop
      vertex 2.57115 36.3124 0
      vertex 2 36.7124 11.3
      vertex 2.57115 36.3124 11.3
    endloop
  endfacet
  facet normal 0.573578 0.819151 0
    outer loop
      vertex 2 36.7124 11.3
      vertex 2.57115 36.3124 0
      vertex 2 36.7124 0
    endloop
  endfacet
  facet normal 0.819153 -0.573576 0
    outer loop
      vertex 3.06418 1.42885 11.3
      vertex 3.4641 2 0
      vertex 3.4641 2 11.3
    endloop
  endfacet
  facet normal 0.819153 -0.573576 0
    outer loop
      vertex 3.4641 2 0
      vertex 3.06418 1.42885 11.3
      vertex 3.06418 1.42885 0
    endloop
  endfacet
  facet normal 0.0871545 -0.996195 0
    outer loop
      vertex 0 0 0
      vertex 0.694592 0.0607681 11.3
      vertex 0 0 11.3
    endloop
  endfacet
  facet normal 0.0871545 -0.996195 0
    outer loop
      vertex 0.694592 0.0607681 11.3
      vertex 0 0 0
      vertex 0.694592 0.0607681 0
    endloop
  endfacet
  facet normal -0.0871545 -0.996195 0
    outer loop
      vertex -0.694592 0.0607681 0
      vertex 0 0 11.3
      vertex -0.694592 0.0607681 11.3
    endloop
  endfacet
  facet normal -0.0871545 -0.996195 -0
    outer loop
      vertex 0 0 11.3
      vertex -0.694592 0.0607681 0
      vertex 0 0 0
    endloop
  endfacet
  facet normal 0.0871545 0.996195 -0
    outer loop
      vertex 0.694592 37.1875 0
      vertex 0 37.2483 11.3
      vertex 0.694592 37.1875 11.3
    endloop
  endfacet
  facet normal 0.0871545 0.996195 0
    outer loop
      vertex 0 37.2483 11.3
      vertex 0.694592 37.1875 0
      vertex 0 37.2483 0
    endloop
  endfacet
  facet normal 0.906308 0.422618 0
    outer loop
      vertex 3.75877 34.6163 11.3
      vertex 3.4641 35.2483 0
      vertex 3.4641 35.2483 11.3
    endloop
  endfacet
  facet normal 0.906308 0.422618 0
    outer loop
      vertex 3.4641 35.2483 0
      vertex 3.75877 34.6163 11.3
      vertex 3.75877 34.6163 0
    endloop
  endfacet
  facet normal 0.819153 0.573575 0
    outer loop
      vertex 3.4641 35.2483 11.3
      vertex 3.06418 35.8194 0
      vertex 3.06418 35.8194 11.3
    endloop
  endfacet
  facet normal 0.819153 0.573575 0
    outer loop
      vertex 3.06418 35.8194 0
      vertex 3.4641 35.2483 11.3
      vertex 3.4641 35.2483 0
    endloop
  endfacet
  facet normal -0.996194 -0.0871584 0
    outer loop
      vertex 1.5 4 0
      vertex 1.47721 4.26047 11.3
      vertex 1.47721 4.26047 0
    endloop
  endfacet
  facet normal -0.996194 -0.0871584 0
    outer loop
      vertex 1.47721 4.26047 11.3
      vertex 1.5 4 0
      vertex 1.5 4 11.3
    endloop
  endfacet
  facet normal 0.0871584 -0.996194 0
    outer loop
      vertex -0.260471 5.47721 0
      vertex 0 5.5 11.3
      vertex -0.260471 5.47721 11.3
    endloop
  endfacet
  facet normal 0.0871584 -0.996194 0
    outer loop
      vertex 0 5.5 11.3
      vertex -0.260471 5.47721 0
      vertex 0 5.5 0
    endloop
  endfacet
  facet normal -0.0871548 0.996195 0
    outer loop
      vertex 0.260471 2.52279 0
      vertex 0 2.5 11.3
      vertex 0.260471 2.52279 11.3
    endloop
  endfacet
  facet normal -0.0871548 0.996195 0
    outer loop
      vertex 0 2.5 11.3
      vertex 0.260471 2.52279 0
      vertex 0 2.5 0
    endloop
  endfacet
  facet normal -0.573579 -0.819151 0
    outer loop
      vertex 0.75 5.29904 0
      vertex 0.964181 5.14907 11.3
      vertex 0.75 5.29904 11.3
    endloop
  endfacet
  facet normal -0.573579 -0.819151 -0
    outer loop
      vertex 0.964181 5.14907 11.3
      vertex 0.75 5.29904 0
      vertex 0.964181 5.14907 0
    endloop
  endfacet
  facet normal 0.819151 -0.573579 0
    outer loop
      vertex -1.29904 4.75 11.3
      vertex -1.14907 4.96418 0
      vertex -1.14907 4.96418 11.3
    endloop
  endfacet
  facet normal 0.819151 -0.573579 0
    outer loop
      vertex -1.14907 4.96418 0
      vertex -1.29904 4.75 11.3
      vertex -1.29904 4.75 0
    endloop
  endfacet
  facet normal 0.422618 -0.906308 0
    outer loop
      vertex -0.749999 5.29904 0
      vertex -0.51303 5.40954 11.3
      vertex -0.749999 5.29904 11.3
    endloop
  endfacet
  facet normal 0.422618 -0.906308 0
    outer loop
      vertex -0.51303 5.40954 11.3
      vertex -0.749999 5.29904 0
      vertex -0.51303 5.40954 0
    endloop
  endfacet
  facet normal -0.906308 0.422618 0
    outer loop
      vertex 1.29904 3.25 0
      vertex 1.40954 3.48697 11.3
      vertex 1.40954 3.48697 0
    endloop
  endfacet
  facet normal -0.906308 0.422618 0
    outer loop
      vertex 1.40954 3.48697 11.3
      vertex 1.29904 3.25 0
      vertex 1.29904 3.25 11.3
    endloop
  endfacet
  facet normal -0.906309 -0.422616 0
    outer loop
      vertex 1.40954 4.51303 0
      vertex 1.29904 4.75 11.3
      vertex 1.29904 4.75 0
    endloop
  endfacet
  facet normal -0.906309 -0.422616 0
    outer loop
      vertex 1.29904 4.75 11.3
      vertex 1.40954 4.51303 0
      vertex 1.40954 4.51303 11.3
    endloop
  endfacet
  facet normal -0.965926 -0.258818 0
    outer loop
      vertex 1.47721 4.26047 0
      vertex 1.40954 4.51303 11.3
      vertex 1.40954 4.51303 0
    endloop
  endfacet
  facet normal -0.965926 -0.258818 0
    outer loop
      vertex 1.40954 4.51303 11.3
      vertex 1.47721 4.26047 0
      vertex 1.47721 4.26047 11.3
    endloop
  endfacet
  facet normal -0.819151 -0.573579 0
    outer loop
      vertex 1.29904 4.75 0
      vertex 1.14907 4.96418 11.3
      vertex 1.14907 4.96418 0
    endloop
  endfacet
  facet normal -0.819151 -0.573579 0
    outer loop
      vertex 1.14907 4.96418 11.3
      vertex 1.29904 4.75 0
      vertex 1.29904 4.75 11.3
    endloop
  endfacet
  facet normal -0.258818 -0.965926 0
    outer loop
      vertex 0.260471 5.47721 0
      vertex 0.51303 5.40954 11.3
      vertex 0.260471 5.47721 11.3
    endloop
  endfacet
  facet normal -0.258818 -0.965926 -0
    outer loop
      vertex 0.51303 5.40954 11.3
      vertex 0.260471 5.47721 0
      vertex 0.51303 5.40954 0
    endloop
  endfacet
  facet normal -0.0871584 -0.996194 0
    outer loop
      vertex 0 5.5 0
      vertex 0.260471 5.47721 11.3
      vertex 0 5.5 11.3
    endloop
  endfacet
  facet normal -0.0871584 -0.996194 -0
    outer loop
      vertex 0.260471 5.47721 11.3
      vertex 0 5.5 0
      vertex 0.260471 5.47721 0
    endloop
  endfacet
  facet normal -0.422616 -0.906309 0
    outer loop
      vertex 0.51303 5.40954 0
      vertex 0.75 5.29904 11.3
      vertex 0.51303 5.40954 11.3
    endloop
  endfacet
  facet normal -0.422616 -0.906309 -0
    outer loop
      vertex 0.75 5.29904 11.3
      vertex 0.51303 5.40954 0
      vertex 0.75 5.29904 0
    endloop
  endfacet
  facet normal 0.965926 -0.258818 0
    outer loop
      vertex -1.47721 4.26047 11.3
      vertex -1.40954 4.51303 0
      vertex -1.40954 4.51303 11.3
    endloop
  endfacet
  facet normal 0.965926 -0.258818 0
    outer loop
      vertex -1.40954 4.51303 0
      vertex -1.47721 4.26047 11.3
      vertex -1.47721 4.26047 0
    endloop
  endfacet
  facet normal 0.906309 -0.422616 0
    outer loop
      vertex -1.40954 4.51303 11.3
      vertex -1.29904 4.75 0
      vertex -1.29904 4.75 11.3
    endloop
  endfacet
  facet normal 0.906309 -0.422616 0
    outer loop
      vertex -1.29904 4.75 0
      vertex -1.40954 4.51303 11.3
      vertex -1.40954 4.51303 0
    endloop
  endfacet
  facet normal 0.996194 -0.0871584 0
    outer loop
      vertex -1.5 4 11.3
      vertex -1.47721 4.26047 0
      vertex -1.47721 4.26047 11.3
    endloop
  endfacet
  facet normal 0.996194 -0.0871584 0
    outer loop
      vertex -1.47721 4.26047 0
      vertex -1.5 4 11.3
      vertex -1.5 4 0
    endloop
  endfacet
  facet normal 0.573577 -0.819152 0
    outer loop
      vertex -0.964181 5.14907 0
      vertex -0.749999 5.29904 11.3
      vertex -0.964181 5.14907 11.3
    endloop
  endfacet
  facet normal 0.573577 -0.819152 0
    outer loop
      vertex -0.749999 5.29904 11.3
      vertex -0.964181 5.14907 0
      vertex -0.749999 5.29904 0
    endloop
  endfacet
  facet normal 0.258818 -0.965926 0
    outer loop
      vertex -0.51303 5.40954 0
      vertex -0.260471 5.47721 11.3
      vertex -0.51303 5.40954 11.3
    endloop
  endfacet
  facet normal 0.258818 -0.965926 0
    outer loop
      vertex -0.260471 5.47721 11.3
      vertex -0.51303 5.40954 0
      vertex -0.260471 5.47721 0
    endloop
  endfacet
  facet normal -0.258818 0.965926 0
    outer loop
      vertex 0.51303 2.59046 0
      vertex 0.260471 2.52279 11.3
      vertex 0.51303 2.59046 11.3
    endloop
  endfacet
  facet normal -0.258818 0.965926 0
    outer loop
      vertex 0.260471 2.52279 11.3
      vertex 0.51303 2.59046 0
      vertex 0.260471 2.52279 0
    endloop
  endfacet
  facet normal -0.819152 0.573577 0
    outer loop
      vertex 1.14907 3.03582 0
      vertex 1.29904 3.25 11.3
      vertex 1.29904 3.25 0
    endloop
  endfacet
  facet normal -0.819152 0.573577 0
    outer loop
      vertex 1.29904 3.25 11.3
      vertex 1.14907 3.03582 0
      vertex 1.14907 3.03582 11.3
    endloop
  endfacet
  facet normal -0.573577 0.819152 0
    outer loop
      vertex 0.964181 2.85093 0
      vertex 0.749999 2.70096 11.3
      vertex 0.964181 2.85093 11.3
    endloop
  endfacet
  facet normal -0.573577 0.819152 0
    outer loop
      vertex 0.749999 2.70096 11.3
      vertex 0.964181 2.85093 0
      vertex 0.749999 2.70096 0
    endloop
  endfacet
  facet normal 0.422616 0.906309 -0
    outer loop
      vertex -0.51303 2.59046 0
      vertex -0.75 2.70096 11.3
      vertex -0.51303 2.59046 11.3
    endloop
  endfacet
  facet normal 0.422616 0.906309 0
    outer loop
      vertex -0.75 2.70096 11.3
      vertex -0.51303 2.59046 0
      vertex -0.75 2.70096 0
    endloop
  endfacet
  facet normal 0.0871548 0.996195 -0
    outer loop
      vertex 0 2.5 0
      vertex -0.260471 2.52279 11.3
      vertex 0 2.5 11.3
    endloop
  endfacet
  facet normal 0.0871548 0.996195 0
    outer loop
      vertex -0.260471 2.52279 11.3
      vertex 0 2.5 0
      vertex -0.260471 2.52279 0
    endloop
  endfacet
  facet normal 0.819152 0.573577 0
    outer loop
      vertex -1.14907 3.03582 11.3
      vertex -1.29904 3.25 0
      vertex -1.29904 3.25 11.3
    endloop
  endfacet
  facet normal 0.819152 0.573577 0
    outer loop
      vertex -1.29904 3.25 0
      vertex -1.14907 3.03582 11.3
      vertex -1.14907 3.03582 0
    endloop
  endfacet
  facet normal 0.707107 0.707107 0
    outer loop
      vertex -0.964181 2.85093 11.3
      vertex -1.14907 3.03582 0
      vertex -1.14907 3.03582 11.3
    endloop
  endfacet
  facet normal 0.707107 0.707107 0
    outer loop
      vertex -1.14907 3.03582 0
      vertex -0.964181 2.85093 11.3
      vertex -0.964181 2.85093 0
    endloop
  endfacet
  facet normal 0.965926 0.258818 0
    outer loop
      vertex -1.40954 3.48697 11.3
      vertex -1.47721 3.73953 0
      vertex -1.47721 3.73953 11.3
    endloop
  endfacet
  facet normal 0.965926 0.258818 0
    outer loop
      vertex -1.47721 3.73953 0
      vertex -1.40954 3.48697 11.3
      vertex -1.40954 3.48697 0
    endloop
  endfacet
  facet normal -0.707107 -0.707107 0
    outer loop
      vertex 1.14907 4.96418 0
      vertex 0.964181 5.14907 11.3
      vertex 0.964181 5.14907 0
    endloop
  endfacet
  facet normal -0.707107 -0.707107 0
    outer loop
      vertex 0.964181 5.14907 11.3
      vertex 1.14907 4.96418 0
      vertex 1.14907 4.96418 11.3
    endloop
  endfacet
  facet normal 0.996194 0.0871581 0
    outer loop
      vertex -1.47721 3.73953 11.3
      vertex -1.5 4 0
      vertex -1.5 4 11.3
    endloop
  endfacet
  facet normal 0.996194 0.0871581 0
    outer loop
      vertex -1.5 4 0
      vertex -1.47721 3.73953 11.3
      vertex -1.47721 3.73953 0
    endloop
  endfacet
  facet normal 0.707107 -0.707107 0
    outer loop
      vertex -1.14907 4.96418 11.3
      vertex -0.964181 5.14907 0
      vertex -0.964181 5.14907 11.3
    endloop
  endfacet
  facet normal 0.707107 -0.707107 0
    outer loop
      vertex -0.964181 5.14907 0
      vertex -1.14907 4.96418 11.3
      vertex -1.14907 4.96418 0
    endloop
  endfacet
  facet normal -0.422618 0.906308 0
    outer loop
      vertex 0.749999 2.70096 0
      vertex 0.51303 2.59046 11.3
      vertex 0.749999 2.70096 11.3
    endloop
  endfacet
  facet normal -0.422618 0.906308 0
    outer loop
      vertex 0.51303 2.59046 11.3
      vertex 0.749999 2.70096 0
      vertex 0.51303 2.59046 0
    endloop
  endfacet
  facet normal -0.707107 0.707107 0
    outer loop
      vertex 0.964181 2.85093 0
      vertex 1.14907 3.03582 11.3
      vertex 1.14907 3.03582 0
    endloop
  endfacet
  facet normal -0.707107 0.707107 0
    outer loop
      vertex 1.14907 3.03582 11.3
      vertex 0.964181 2.85093 0
      vertex 0.964181 2.85093 11.3
    endloop
  endfacet
  facet normal -0.965926 0.258818 0
    outer loop
      vertex 1.40954 3.48697 0
      vertex 1.47721 3.73953 11.3
      vertex 1.47721 3.73953 0
    endloop
  endfacet
  facet normal -0.965926 0.258818 0
    outer loop
      vertex 1.47721 3.73953 11.3
      vertex 1.40954 3.48697 0
      vertex 1.40954 3.48697 11.3
    endloop
  endfacet
  facet normal -0.996194 0.0871581 0
    outer loop
      vertex 1.47721 3.73953 0
      vertex 1.5 4 11.3
      vertex 1.5 4 0
    endloop
  endfacet
  facet normal -0.996194 0.0871581 0
    outer loop
      vertex 1.5 4 11.3
      vertex 1.47721 3.73953 0
      vertex 1.47721 3.73953 11.3
    endloop
  endfacet
  facet normal 0.258818 0.965926 -0
    outer loop
      vertex -0.260471 2.52279 0
      vertex -0.51303 2.59046 11.3
      vertex -0.260471 2.52279 11.3
    endloop
  endfacet
  facet normal 0.258818 0.965926 0
    outer loop
      vertex -0.51303 2.59046 11.3
      vertex -0.260471 2.52279 0
      vertex -0.51303 2.59046 0
    endloop
  endfacet
  facet normal 0.573579 0.819151 -0
    outer loop
      vertex -0.75 2.70096 0
      vertex -0.964181 2.85093 11.3
      vertex -0.75 2.70096 11.3
    endloop
  endfacet
  facet normal 0.573579 0.819151 0
    outer loop
      vertex -0.964181 2.85093 11.3
      vertex -0.75 2.70096 0
      vertex -0.964181 2.85093 0
    endloop
  endfacet
  facet normal 0.906308 0.422618 0
    outer loop
      vertex -1.29904 3.25 11.3
      vertex -1.40954 3.48697 0
      vertex -1.40954 3.48697 11.3
    endloop
  endfacet
  facet normal 0.906308 0.422618 0
    outer loop
      vertex -1.40954 3.48697 0
      vertex -1.29904 3.25 11.3
      vertex -1.29904 3.25 0
    endloop
  endfacet
  facet normal -0.996194 -0.0871584 0
    outer loop
      vertex 1.5 33.2483 0
      vertex 1.47721 33.5087 11.3
      vertex 1.47721 33.5087 0
    endloop
  endfacet
  facet normal -0.996194 -0.0871584 0
    outer loop
      vertex 1.47721 33.5087 11.3
      vertex 1.5 33.2483 0
      vertex 1.5 33.2483 11.3
    endloop
  endfacet
  facet normal 0.996194 -0.0871584 0
    outer loop
      vertex -1.5 33.2483 11.3
      vertex -1.47721 33.5087 0
      vertex -1.47721 33.5087 11.3
    endloop
  endfacet
  facet normal 0.996194 -0.0871584 0
    outer loop
      vertex -1.47721 33.5087 0
      vertex -1.5 33.2483 11.3
      vertex -1.5 33.2483 0
    endloop
  endfacet
  facet normal 0.087144 -0.996196 0
    outer loop
      vertex -0.260471 34.7255 0
      vertex 0 34.7483 11.3
      vertex -0.260471 34.7255 11.3
    endloop
  endfacet
  facet normal 0.087144 -0.996196 0
    outer loop
      vertex 0 34.7483 11.3
      vertex -0.260471 34.7255 0
      vertex 0 34.7483 0
    endloop
  endfacet
  facet normal -0.0871584 0.996194 0
    outer loop
      vertex 0.260471 31.771 0
      vertex 0 31.7483 11.3
      vertex 0.260471 31.771 11.3
    endloop
  endfacet
  facet normal -0.0871584 0.996194 0
    outer loop
      vertex 0 31.7483 11.3
      vertex 0.260471 31.771 0
      vertex 0 31.7483 0
    endloop
  endfacet
  facet normal -0.707103 -0.70711 0
    outer loop
      vertex 0.964181 34.3973 0
      vertex 1.14907 34.2124 11.3
      vertex 0.964181 34.3973 11.3
    endloop
  endfacet
  facet normal -0.707103 -0.70711 -0
    outer loop
      vertex 1.14907 34.2124 11.3
      vertex 0.964181 34.3973 0
      vertex 1.14907 34.2124 0
    endloop
  endfacet
  facet normal 0.707103 -0.70711 0
    outer loop
      vertex -1.14907 34.2124 0
      vertex -0.964181 34.3973 11.3
      vertex -1.14907 34.2124 11.3
    endloop
  endfacet
  facet normal 0.707103 -0.70711 0
    outer loop
      vertex -0.964181 34.3973 11.3
      vertex -1.14907 34.2124 0
      vertex -0.964181 34.3973 0
    endloop
  endfacet
  facet normal 0.42263 -0.906302 0
    outer loop
      vertex -0.749999 34.5473 0
      vertex -0.51303 34.6578 11.3
      vertex -0.749999 34.5473 11.3
    endloop
  endfacet
  facet normal 0.42263 -0.906302 0
    outer loop
      vertex -0.51303 34.6578 11.3
      vertex -0.749999 34.5473 0
      vertex -0.51303 34.6578 0
    endloop
  endfacet
  facet normal -0.906308 -0.422618 0
    outer loop
      vertex 1.40954 33.7613 0
      vertex 1.29904 33.9983 11.3
      vertex 1.29904 33.9983 0
    endloop
  endfacet
  facet normal -0.906308 -0.422618 0
    outer loop
      vertex 1.29904 33.9983 11.3
      vertex 1.40954 33.7613 0
      vertex 1.40954 33.7613 11.3
    endloop
  endfacet
  facet normal -0.965926 -0.258818 0
    outer loop
      vertex 1.47721 33.5087 0
      vertex 1.40954 33.7613 11.3
      vertex 1.40954 33.7613 0
    endloop
  endfacet
  facet normal -0.965926 -0.258818 0
    outer loop
      vertex 1.40954 33.7613 11.3
      vertex 1.47721 33.5087 0
      vertex 1.47721 33.5087 11.3
    endloop
  endfacet
  facet normal -0.819154 -0.573573 0
    outer loop
      vertex 1.29904 33.9983 0
      vertex 1.14907 34.2124 11.3
      vertex 1.14907 34.2124 0
    endloop
  endfacet
  facet normal -0.819154 -0.573573 0
    outer loop
      vertex 1.14907 34.2124 11.3
      vertex 1.29904 33.9983 0
      vertex 1.29904 33.9983 11.3
    endloop
  endfacet
  facet normal -0.422628 -0.906303 0
    outer loop
      vertex 0.51303 34.6578 0
      vertex 0.75 34.5473 11.3
      vertex 0.51303 34.6578 11.3
    endloop
  endfacet
  facet normal -0.422628 -0.906303 -0
    outer loop
      vertex 0.75 34.5473 11.3
      vertex 0.51303 34.6578 0
      vertex 0.75 34.5473 0
    endloop
  endfacet
  facet normal -0.258818 -0.965926 0
    outer loop
      vertex 0.260471 34.7255 0
      vertex 0.51303 34.6578 11.3
      vertex 0.260471 34.7255 11.3
    endloop
  endfacet
  facet normal -0.258818 -0.965926 -0
    outer loop
      vertex 0.51303 34.6578 11.3
      vertex 0.260471 34.7255 0
      vertex 0.51303 34.6578 0
    endloop
  endfacet
  facet normal -0.573576 -0.819152 0
    outer loop
      vertex 0.75 34.5473 0
      vertex 0.964181 34.3973 11.3
      vertex 0.75 34.5473 11.3
    endloop
  endfacet
  facet normal -0.573576 -0.819152 -0
    outer loop
      vertex 0.964181 34.3973 11.3
      vertex 0.75 34.5473 0
      vertex 0.964181 34.3973 0
    endloop
  endfacet
  facet normal 0.906308 -0.422618 0
    outer loop
      vertex -1.40954 33.7613 11.3
      vertex -1.29904 33.9983 0
      vertex -1.29904 33.9983 11.3
    endloop
  endfacet
  facet normal 0.906308 -0.422618 0
    outer loop
      vertex -1.29904 33.9983 0
      vertex -1.40954 33.7613 11.3
      vertex -1.40954 33.7613 0
    endloop
  endfacet
  facet normal 0.819154 -0.573573 0
    outer loop
      vertex -1.29904 33.9983 11.3
      vertex -1.14907 34.2124 0
      vertex -1.14907 34.2124 11.3
    endloop
  endfacet
  facet normal 0.819154 -0.573573 0
    outer loop
      vertex -1.14907 34.2124 0
      vertex -1.29904 33.9983 11.3
      vertex -1.29904 33.9983 0
    endloop
  endfacet
  facet normal 0.965926 -0.258818 0
    outer loop
      vertex -1.47721 33.5087 11.3
      vertex -1.40954 33.7613 0
      vertex -1.40954 33.7613 11.3
    endloop
  endfacet
  facet normal 0.965926 -0.258818 0
    outer loop
      vertex -1.40954 33.7613 0
      vertex -1.47721 33.5087 11.3
      vertex -1.47721 33.5087 0
    endloop
  endfacet
  facet normal 0.573574 -0.819153 0
    outer loop
      vertex -0.964181 34.3973 0
      vertex -0.749999 34.5473 11.3
      vertex -0.964181 34.3973 11.3
    endloop
  endfacet
  facet normal 0.573574 -0.819153 0
    outer loop
      vertex -0.749999 34.5473 11.3
      vertex -0.964181 34.3973 0
      vertex -0.749999 34.5473 0
    endloop
  endfacet
  facet normal 0.258818 -0.965926 0
    outer loop
      vertex -0.51303 34.6578 0
      vertex -0.260471 34.7255 11.3
      vertex -0.51303 34.6578 11.3
    endloop
  endfacet
  facet normal 0.258818 -0.965926 0
    outer loop
      vertex -0.260471 34.7255 11.3
      vertex -0.51303 34.6578 0
      vertex -0.260471 34.7255 0
    endloop
  endfacet
  facet normal -0.996194 0.0871584 0
    outer loop
      vertex 1.47721 32.9878 0
      vertex 1.5 33.2483 11.3
      vertex 1.5 33.2483 0
    endloop
  endfacet
  facet normal -0.996194 0.0871584 0
    outer loop
      vertex 1.5 33.2483 11.3
      vertex 1.47721 32.9878 0
      vertex 1.47721 32.9878 11.3
    endloop
  endfacet
  facet normal -0.258818 0.965926 0
    outer loop
      vertex 0.51303 31.8387 0
      vertex 0.260471 31.771 11.3
      vertex 0.51303 31.8387 11.3
    endloop
  endfacet
  facet normal -0.258818 0.965926 0
    outer loop
      vertex 0.260471 31.771 11.3
      vertex 0.51303 31.8387 0
      vertex 0.260471 31.771 0
    endloop
  endfacet
  facet normal -0.087144 -0.996196 0
    outer loop
      vertex 0 34.7483 0
      vertex 0.260471 34.7255 11.3
      vertex 0 34.7483 11.3
    endloop
  endfacet
  facet normal -0.087144 -0.996196 -0
    outer loop
      vertex 0.260471 34.7255 11.3
      vertex 0 34.7483 0
      vertex 0.260471 34.7255 0
    endloop
  endfacet
  facet normal -0.906311 0.422612 0
    outer loop
      vertex 1.29904 32.4983 0
      vertex 1.40954 32.7352 11.3
      vertex 1.40954 32.7352 0
    endloop
  endfacet
  facet normal -0.906311 0.422612 0
    outer loop
      vertex 1.40954 32.7352 11.3
      vertex 1.29904 32.4983 0
      vertex 1.29904 32.4983 11.3
    endloop
  endfacet
  facet normal 0.422616 0.906309 -0
    outer loop
      vertex -0.51303 31.8387 0
      vertex -0.75 31.9492 11.3
      vertex -0.51303 31.8387 11.3
    endloop
  endfacet
  facet normal 0.422616 0.906309 0
    outer loop
      vertex -0.75 31.9492 11.3
      vertex -0.51303 31.8387 0
      vertex -0.75 31.9492 0
    endloop
  endfacet
  facet normal 0.819149 0.57358 0
    outer loop
      vertex -1.14907 32.2841 11.3
      vertex -1.29904 32.4983 0
      vertex -1.29904 32.4983 11.3
    endloop
  endfacet
  facet normal 0.819149 0.57358 0
    outer loop
      vertex -1.29904 32.4983 0
      vertex -1.14907 32.2841 11.3
      vertex -1.14907 32.2841 0
    endloop
  endfacet
  facet normal 0.996194 0.0871584 0
    outer loop
      vertex -1.47721 32.9878 11.3
      vertex -1.5 33.2483 0
      vertex -1.5 33.2483 11.3
    endloop
  endfacet
  facet normal 0.996194 0.0871584 0
    outer loop
      vertex -1.5 33.2483 0
      vertex -1.47721 32.9878 11.3
      vertex -1.47721 32.9878 0
    endloop
  endfacet
  facet normal -0.70711 0.707103 0
    outer loop
      vertex 0.964181 32.0992 0
      vertex 1.14907 32.2841 11.3
      vertex 1.14907 32.2841 0
    endloop
  endfacet
  facet normal -0.70711 0.707103 0
    outer loop
      vertex 1.14907 32.2841 11.3
      vertex 0.964181 32.0992 0
      vertex 0.964181 32.0992 11.3
    endloop
  endfacet
  facet normal -0.573574 0.819153 0
    outer loop
      vertex 0.964181 32.0992 0
      vertex 0.749999 31.9492 11.3
      vertex 0.964181 32.0992 11.3
    endloop
  endfacet
  facet normal -0.573574 0.819153 0
    outer loop
      vertex 0.749999 31.9492 11.3
      vertex 0.964181 32.0992 0
      vertex 0.749999 31.9492 0
    endloop
  endfacet
  facet normal -0.965925 0.258821 0
    outer loop
      vertex 1.40954 32.7352 0
      vertex 1.47721 32.9878 11.3
      vertex 1.47721 32.9878 0
    endloop
  endfacet
  facet normal -0.965925 0.258821 0
    outer loop
      vertex 1.47721 32.9878 11.3
      vertex 1.40954 32.7352 0
      vertex 1.40954 32.7352 11.3
    endloop
  endfacet
  facet normal 0.258818 0.965926 -0
    outer loop
      vertex -0.260471 31.771 0
      vertex -0.51303 31.8387 11.3
      vertex -0.260471 31.771 11.3
    endloop
  endfacet
  facet normal 0.258818 0.965926 0
    outer loop
      vertex -0.51303 31.8387 11.3
      vertex -0.260471 31.771 0
      vertex -0.51303 31.8387 0
    endloop
  endfacet
  facet normal 0.573576 0.819152 -0
    outer loop
      vertex -0.75 31.9492 0
      vertex -0.964181 32.0992 11.3
      vertex -0.75 31.9492 11.3
    endloop
  endfacet
  facet normal 0.573576 0.819152 0
    outer loop
      vertex -0.964181 32.0992 11.3
      vertex -0.75 31.9492 0
      vertex -0.964181 32.0992 0
    endloop
  endfacet
  facet normal 0.70711 0.707103 0
    outer loop
      vertex -0.964181 32.0992 11.3
      vertex -1.14907 32.2841 0
      vertex -1.14907 32.2841 11.3
    endloop
  endfacet
  facet normal 0.70711 0.707103 0
    outer loop
      vertex -1.14907 32.2841 0
      vertex -0.964181 32.0992 11.3
      vertex -0.964181 32.0992 0
    endloop
  endfacet
  facet normal 0.965925 0.258821 0
    outer loop
      vertex -1.40954 32.7352 11.3
      vertex -1.47721 32.9878 0
      vertex -1.47721 32.9878 11.3
    endloop
  endfacet
  facet normal 0.965925 0.258821 0
    outer loop
      vertex -1.47721 32.9878 0
      vertex -1.40954 32.7352 11.3
      vertex -1.40954 32.7352 0
    endloop
  endfacet
  facet normal 0.906311 0.422612 0
    outer loop
      vertex -1.29904 32.4983 11.3
      vertex -1.40954 32.7352 0
      vertex -1.40954 32.7352 11.3
    endloop
  endfacet
  facet normal 0.906311 0.422612 0
    outer loop
      vertex -1.40954 32.7352 0
      vertex -1.29904 32.4983 11.3
      vertex -1.29904 32.4983 0
    endloop
  endfacet
  facet normal -0.819149 0.57358 0
    outer loop
      vertex 1.14907 32.2841 0
      vertex 1.29904 32.4983 11.3
      vertex 1.29904 32.4983 0
    endloop
  endfacet
  facet normal -0.819149 0.57358 0
    outer loop
      vertex 1.29904 32.4983 11.3
      vertex 1.14907 32.2841 0
      vertex 1.14907 32.2841 11.3
    endloop
  endfacet
  facet normal -0.422618 0.906308 0
    outer loop
      vertex 0.749999 31.9492 0
      vertex 0.51303 31.8387 11.3
      vertex 0.749999 31.9492 11.3
    endloop
  endfacet
  facet normal -0.422618 0.906308 0
    outer loop
      vertex 0.51303 31.8387 11.3
      vertex 0.749999 31.9492 0
      vertex 0.51303 31.8387 0
    endloop
  endfacet
  facet normal 0.0871584 0.996194 -0
    outer loop
      vertex 0 31.7483 0
      vertex -0.260471 31.771 11.3
      vertex 0 31.7483 11.3
    endloop
  endfacet
  facet normal 0.0871584 0.996194 0
    outer loop
      vertex -0.260471 31.771 11.3
      vertex 0 31.7483 0
      vertex -0.260471 31.771 0
    endloop
  endfacet
endsolid OpenSCAD_Model
