  0
SECTION
  2
BLOCKS
  0
ENDSEC
  0
SECTION
  2
ENTITIES
  0
LINE
  8
0
 10
240.757
 20
186.343
 11
0
 21
186.343
  0
LINE
  8
0
 10
0
 20
186.343
 11
0
 21
-186.343
  0
LINE
  8
0
 10
0
 20
-186.343
 11
240.757
 21
-186.343
  0
LINE
  8
0
 10
240.757
 20
-186.343
 11
240.757
 21
186.343
  0
LINE
  8
0
 10
33.4305
 20
170.495
 11
33.1572
 21
170.531
  0
LINE
  8
0
 10
33.1572
 20
170.531
 11
32.8881
 21
170.591
  0
LINE
  8
0
 10
32.8881
 20
170.591
 11
32.6252
 21
170.673
  0
LINE
  8
0
 10
32.6252
 20
170.673
 11
32.3705
 21
170.779
  0
LINE
  8
0
 10
32.3705
 20
170.779
 11
32.126
 21
170.906
  0
LINE
  8
0
 10
32.126
 20
170.906
 11
31.8935
 21
171.054
  0
LINE
  8
0
 10
31.8935
 20
171.054
 11
31.6747
 21
171.222
  0
LINE
  8
0
 10
31.6747
 20
171.222
 11
31.4715
 21
171.408
  0
LINE
  8
0
 10
31.4715
 20
171.408
 11
31.2853
 21
171.612
  0
LINE
  8
0
 10
31.2853
 20
171.612
 11
31.1174
 21
171.83
  0
LINE
  8
0
 10
31.1174
 20
171.83
 11
30.9693
 21
172.063
  0
LINE
  8
0
 10
30.9693
 20
172.063
 11
30.842
 21
172.307
  0
LINE
  8
0
 10
30.842
 20
172.307
 11
30.7365
 21
172.562
  0
LINE
  8
0
 10
30.7365
 20
172.562
 11
30.6536
 21
172.825
  0
LINE
  8
0
 10
30.6536
 20
172.825
 11
30.594
 21
173.094
  0
LINE
  8
0
 10
30.594
 20
173.094
 11
30.558
 21
173.367
  0
LINE
  8
0
 10
30.558
 20
173.367
 11
30.546
 21
173.643
  0
LINE
  8
0
 10
30.546
 20
173.643
 11
30.558
 21
173.918
  0
LINE
  8
0
 10
30.558
 20
173.918
 11
30.594
 21
174.192
  0
LINE
  8
0
 10
30.594
 20
174.192
 11
30.6536
 21
174.461
  0
LINE
  8
0
 10
30.6536
 20
174.461
 11
30.7365
 21
174.724
  0
LINE
  8
0
 10
30.7365
 20
174.724
 11
30.842
 21
174.978
  0
LINE
  8
0
 10
30.842
 20
174.978
 11
30.9693
 21
175.223
  0
LINE
  8
0
 10
30.9693
 20
175.223
 11
31.1174
 21
175.455
  0
LINE
  8
0
 10
31.1174
 20
175.455
 11
31.2853
 21
175.674
  0
LINE
  8
0
 10
31.2853
 20
175.674
 11
31.4715
 21
175.877
  0
LINE
  8
0
 10
31.4715
 20
175.877
 11
31.6747
 21
176.064
  0
LINE
  8
0
 10
31.6747
 20
176.064
 11
31.8935
 21
176.231
  0
LINE
  8
0
 10
31.8935
 20
176.231
 11
32.126
 21
176.38
  0
LINE
  8
0
 10
32.126
 20
176.38
 11
32.3705
 21
176.507
  0
LINE
  8
0
 10
32.3705
 20
176.507
 11
32.6252
 21
176.612
  0
LINE
  8
0
 10
32.6252
 20
176.612
 11
32.8881
 21
176.695
  0
LINE
  8
0
 10
32.8881
 20
176.695
 11
33.1572
 21
176.755
  0
LINE
  8
0
 10
33.1572
 20
176.755
 11
33.4305
 21
176.791
  0
LINE
  8
0
 10
33.4305
 20
176.791
 11
33.706
 21
176.803
  0
LINE
  8
0
 10
33.706
 20
176.803
 11
33.9814
 21
176.791
  0
LINE
  8
0
 10
33.9814
 20
176.791
 11
34.2547
 21
176.755
  0
LINE
  8
0
 10
34.2547
 20
176.755
 11
34.5238
 21
176.695
  0
LINE
  8
0
 10
34.5238
 20
176.695
 11
34.7867
 21
176.612
  0
LINE
  8
0
 10
34.7867
 20
176.612
 11
35.0414
 21
176.507
  0
LINE
  8
0
 10
35.0414
 20
176.507
 11
35.286
 21
176.38
  0
LINE
  8
0
 10
35.286
 20
176.38
 11
35.5185
 21
176.231
  0
LINE
  8
0
 10
35.5185
 20
176.231
 11
35.7372
 21
176.064
  0
LINE
  8
0
 10
35.7372
 20
176.064
 11
35.9404
 21
175.877
  0
LINE
  8
0
 10
35.9404
 20
175.877
 11
36.1267
 21
175.674
  0
LINE
  8
0
 10
36.1267
 20
175.674
 11
36.2945
 21
175.455
  0
LINE
  8
0
 10
36.2945
 20
175.455
 11
36.4426
 21
175.223
  0
LINE
  8
0
 10
36.4426
 20
175.223
 11
36.5699
 21
174.978
  0
LINE
  8
0
 10
36.5699
 20
174.978
 11
36.6754
 21
174.724
  0
LINE
  8
0
 10
36.6754
 20
174.724
 11
36.7583
 21
174.461
  0
LINE
  8
0
 10
36.7583
 20
174.461
 11
36.8179
 21
174.192
  0
LINE
  8
0
 10
36.8179
 20
174.192
 11
36.8539
 21
173.918
  0
LINE
  8
0
 10
36.8539
 20
173.918
 11
36.866
 21
173.643
  0
LINE
  8
0
 10
36.866
 20
173.643
 11
36.8539
 21
173.367
  0
LINE
  8
0
 10
36.8539
 20
173.367
 11
36.8179
 21
173.094
  0
LINE
  8
0
 10
36.8179
 20
173.094
 11
36.7583
 21
172.825
  0
LINE
  8
0
 10
36.7583
 20
172.825
 11
36.6754
 21
172.562
  0
LINE
  8
0
 10
36.6754
 20
172.562
 11
36.5699
 21
172.307
  0
LINE
  8
0
 10
36.5699
 20
172.307
 11
36.4426
 21
172.063
  0
LINE
  8
0
 10
36.4426
 20
172.063
 11
36.2945
 21
171.83
  0
LINE
  8
0
 10
36.2945
 20
171.83
 11
36.1267
 21
171.612
  0
LINE
  8
0
 10
36.1267
 20
171.612
 11
35.9404
 21
171.408
  0
LINE
  8
0
 10
35.9404
 20
171.408
 11
35.7372
 21
171.222
  0
LINE
  8
0
 10
35.7372
 20
171.222
 11
35.5185
 21
171.054
  0
LINE
  8
0
 10
35.5185
 20
171.054
 11
35.286
 21
170.906
  0
LINE
  8
0
 10
35.286
 20
170.906
 11
35.0414
 21
170.779
  0
LINE
  8
0
 10
35.0414
 20
170.779
 11
34.7867
 21
170.673
  0
LINE
  8
0
 10
34.7867
 20
170.673
 11
34.5238
 21
170.591
  0
LINE
  8
0
 10
34.5238
 20
170.591
 11
34.2547
 21
170.531
  0
LINE
  8
0
 10
34.2547
 20
170.531
 11
33.9814
 21
170.495
  0
LINE
  8
0
 10
33.9814
 20
170.495
 11
33.706
 21
170.483
  0
LINE
  8
0
 10
33.706
 20
170.483
 11
33.4305
 21
170.495
  0
LINE
  8
0
 10
203.939
 20
174.192
 11
203.999
 21
174.461
  0
LINE
  8
0
 10
203.999
 20
174.461
 11
204.081
 21
174.724
  0
LINE
  8
0
 10
204.081
 20
174.724
 11
204.187
 21
174.978
  0
LINE
  8
0
 10
204.187
 20
174.978
 11
204.314
 21
175.223
  0
LINE
  8
0
 10
204.314
 20
175.223
 11
204.462
 21
175.455
  0
LINE
  8
0
 10
204.462
 20
175.455
 11
204.63
 21
175.674
  0
LINE
  8
0
 10
204.63
 20
175.674
 11
204.816
 21
175.877
  0
LINE
  8
0
 10
204.816
 20
175.877
 11
205.02
 21
176.064
  0
LINE
  8
0
 10
205.02
 20
176.064
 11
205.238
 21
176.231
  0
LINE
  8
0
 10
205.238
 20
176.231
 11
205.471
 21
176.38
  0
LINE
  8
0
 10
205.471
 20
176.38
 11
205.715
 21
176.507
  0
LINE
  8
0
 10
205.715
 20
176.507
 11
205.97
 21
176.612
  0
LINE
  8
0
 10
205.97
 20
176.612
 11
206.233
 21
176.695
  0
LINE
  8
0
 10
206.233
 20
176.695
 11
206.502
 21
176.755
  0
LINE
  8
0
 10
206.502
 20
176.755
 11
206.776
 21
176.791
  0
LINE
  8
0
 10
206.776
 20
176.791
 11
207.051
 21
176.803
  0
LINE
  8
0
 10
207.051
 20
176.803
 11
207.326
 21
176.791
  0
LINE
  8
0
 10
207.326
 20
176.791
 11
207.6
 21
176.755
  0
LINE
  8
0
 10
207.6
 20
176.755
 11
207.869
 21
176.695
  0
LINE
  8
0
 10
207.869
 20
176.695
 11
208.132
 21
176.612
  0
LINE
  8
0
 10
208.132
 20
176.612
 11
208.386
 21
176.507
  0
LINE
  8
0
 10
208.386
 20
176.507
 11
208.631
 21
176.38
  0
LINE
  8
0
 10
208.631
 20
176.38
 11
208.863
 21
176.231
  0
LINE
  8
0
 10
208.863
 20
176.231
 11
209.082
 21
176.064
  0
LINE
  8
0
 10
209.082
 20
176.064
 11
209.285
 21
175.877
  0
LINE
  8
0
 10
209.285
 20
175.877
 11
209.472
 21
175.674
  0
LINE
  8
0
 10
209.472
 20
175.674
 11
209.639
 21
175.455
  0
LINE
  8
0
 10
209.639
 20
175.455
 11
209.788
 21
175.223
  0
LINE
  8
0
 10
209.788
 20
175.223
 11
209.915
 21
174.978
  0
LINE
  8
0
 10
209.915
 20
174.978
 11
210.02
 21
174.724
  0
LINE
  8
0
 10
210.02
 20
174.724
 11
210.103
 21
174.461
  0
LINE
  8
0
 10
210.103
 20
174.461
 11
210.163
 21
174.192
  0
LINE
  8
0
 10
210.163
 20
174.192
 11
210.199
 21
173.918
  0
LINE
  8
0
 10
210.199
 20
173.918
 11
210.211
 21
173.643
  0
LINE
  8
0
 10
210.211
 20
173.643
 11
210.199
 21
173.367
  0
LINE
  8
0
 10
210.199
 20
173.367
 11
210.163
 21
173.094
  0
LINE
  8
0
 10
210.163
 20
173.094
 11
210.103
 21
172.825
  0
LINE
  8
0
 10
210.103
 20
172.825
 11
210.02
 21
172.562
  0
LINE
  8
0
 10
210.02
 20
172.562
 11
209.915
 21
172.307
  0
LINE
  8
0
 10
209.915
 20
172.307
 11
209.788
 21
172.063
  0
LINE
  8
0
 10
209.788
 20
172.063
 11
209.639
 21
171.83
  0
LINE
  8
0
 10
209.639
 20
171.83
 11
209.472
 21
171.612
  0
LINE
  8
0
 10
209.472
 20
171.612
 11
209.285
 21
171.408
  0
LINE
  8
0
 10
209.285
 20
171.408
 11
209.082
 21
171.222
  0
LINE
  8
0
 10
209.082
 20
171.222
 11
208.863
 21
171.054
  0
LINE
  8
0
 10
208.863
 20
171.054
 11
208.631
 21
170.906
  0
LINE
  8
0
 10
208.631
 20
170.906
 11
208.386
 21
170.779
  0
LINE
  8
0
 10
208.386
 20
170.779
 11
208.132
 21
170.673
  0
LINE
  8
0
 10
208.132
 20
170.673
 11
207.869
 21
170.591
  0
LINE
  8
0
 10
207.869
 20
170.591
 11
207.6
 21
170.531
  0
LINE
  8
0
 10
207.6
 20
170.531
 11
207.326
 21
170.495
  0
LINE
  8
0
 10
207.326
 20
170.495
 11
207.051
 21
170.483
  0
LINE
  8
0
 10
207.051
 20
170.483
 11
206.776
 21
170.495
  0
LINE
  8
0
 10
206.776
 20
170.495
 11
206.502
 21
170.531
  0
LINE
  8
0
 10
206.502
 20
170.531
 11
206.233
 21
170.591
  0
LINE
  8
0
 10
206.233
 20
170.591
 11
205.97
 21
170.673
  0
LINE
  8
0
 10
205.97
 20
170.673
 11
205.715
 21
170.779
  0
LINE
  8
0
 10
205.715
 20
170.779
 11
205.471
 21
170.906
  0
LINE
  8
0
 10
205.471
 20
170.906
 11
205.238
 21
171.054
  0
LINE
  8
0
 10
205.238
 20
171.054
 11
205.02
 21
171.222
  0
LINE
  8
0
 10
205.02
 20
171.222
 11
204.816
 21
171.408
  0
LINE
  8
0
 10
204.816
 20
171.408
 11
204.63
 21
171.612
  0
LINE
  8
0
 10
204.63
 20
171.612
 11
204.462
 21
171.83
  0
LINE
  8
0
 10
204.462
 20
171.83
 11
204.314
 21
172.063
  0
LINE
  8
0
 10
204.314
 20
172.063
 11
204.187
 21
172.307
  0
LINE
  8
0
 10
204.187
 20
172.307
 11
204.081
 21
172.562
  0
LINE
  8
0
 10
204.081
 20
172.562
 11
203.999
 21
172.825
  0
LINE
  8
0
 10
203.999
 20
172.825
 11
203.939
 21
173.094
  0
LINE
  8
0
 10
203.939
 20
173.094
 11
203.903
 21
173.367
  0
LINE
  8
0
 10
203.903
 20
173.367
 11
203.891
 21
173.643
  0
LINE
  8
0
 10
203.891
 20
173.643
 11
203.903
 21
173.918
  0
LINE
  8
0
 10
203.903
 20
173.918
 11
203.939
 21
174.192
  0
LINE
  8
0
 10
91.2122
 20
170.495
 11
90.9389
 21
170.531
  0
LINE
  8
0
 10
90.9389
 20
170.531
 11
90.6698
 21
170.591
  0
LINE
  8
0
 10
90.6698
 20
170.591
 11
90.4068
 21
170.673
  0
LINE
  8
0
 10
90.4068
 20
170.673
 11
90.1521
 21
170.779
  0
LINE
  8
0
 10
90.1521
 20
170.779
 11
89.9076
 21
170.906
  0
LINE
  8
0
 10
89.9076
 20
170.906
 11
89.6751
 21
171.054
  0
LINE
  8
0
 10
89.6751
 20
171.054
 11
89.4564
 21
171.222
  0
LINE
  8
0
 10
89.4564
 20
171.222
 11
89.2532
 21
171.408
  0
LINE
  8
0
 10
89.2532
 20
171.408
 11
89.0669
 21
171.612
  0
LINE
  8
0
 10
89.0669
 20
171.612
 11
88.8991
 21
171.83
  0
LINE
  8
0
 10
88.8991
 20
171.83
 11
88.751
 21
172.063
  0
LINE
  8
0
 10
88.751
 20
172.063
 11
88.6237
 21
172.307
  0
LINE
  8
0
 10
88.6237
 20
172.307
 11
88.5182
 21
172.562
  0
LINE
  8
0
 10
88.5182
 20
172.562
 11
88.4353
 21
172.825
  0
LINE
  8
0
 10
88.4353
 20
172.825
 11
88.3756
 21
173.094
  0
LINE
  8
0
 10
88.3756
 20
173.094
 11
88.3396
 21
173.367
  0
LINE
  8
0
 10
88.3396
 20
173.367
 11
88.3276
 21
173.643
  0
LINE
  8
0
 10
88.3276
 20
173.643
 11
88.3396
 21
173.918
  0
LINE
  8
0
 10
88.3396
 20
173.918
 11
88.3756
 21
174.192
  0
LINE
  8
0
 10
88.3756
 20
174.192
 11
88.4353
 21
174.461
  0
LINE
  8
0
 10
88.4353
 20
174.461
 11
88.5182
 21
174.724
  0
LINE
  8
0
 10
88.5182
 20
174.724
 11
88.6237
 21
174.978
  0
LINE
  8
0
 10
88.6237
 20
174.978
 11
88.751
 21
175.223
  0
LINE
  8
0
 10
88.751
 20
175.223
 11
88.8991
 21
175.455
  0
LINE
  8
0
 10
88.8991
 20
175.455
 11
89.0669
 21
175.674
  0
LINE
  8
0
 10
89.0669
 20
175.674
 11
89.2532
 21
175.877
  0
LINE
  8
0
 10
89.2532
 20
175.877
 11
89.4564
 21
176.064
  0
LINE
  8
0
 10
89.4564
 20
176.064
 11
89.6751
 21
176.231
  0
LINE
  8
0
 10
89.6751
 20
176.231
 11
89.9076
 21
176.38
  0
LINE
  8
0
 10
89.9076
 20
176.38
 11
90.1521
 21
176.507
  0
LINE
  8
0
 10
90.1521
 20
176.507
 11
90.4068
 21
176.612
  0
LINE
  8
0
 10
90.4068
 20
176.612
 11
90.6698
 21
176.695
  0
LINE
  8
0
 10
90.6698
 20
176.695
 11
90.9389
 21
176.755
  0
LINE
  8
0
 10
90.9389
 20
176.755
 11
91.2122
 21
176.791
  0
LINE
  8
0
 10
91.2122
 20
176.791
 11
91.4876
 21
176.803
  0
LINE
  8
0
 10
91.4876
 20
176.803
 11
91.763
 21
176.791
  0
LINE
  8
0
 10
91.763
 20
176.791
 11
92.0363
 21
176.755
  0
LINE
  8
0
 10
92.0363
 20
176.755
 11
92.3055
 21
176.695
  0
LINE
  8
0
 10
92.3055
 20
176.695
 11
92.5684
 21
176.612
  0
LINE
  8
0
 10
92.5684
 20
176.612
 11
92.8231
 21
176.507
  0
LINE
  8
0
 10
92.8231
 20
176.507
 11
93.0676
 21
176.38
  0
LINE
  8
0
 10
93.0676
 20
176.38
 11
93.3001
 21
176.231
  0
LINE
  8
0
 10
93.3001
 20
176.231
 11
93.5188
 21
176.064
  0
LINE
  8
0
 10
93.5188
 20
176.064
 11
93.7221
 21
175.877
  0
LINE
  8
0
 10
93.7221
 20
175.877
 11
93.9083
 21
175.674
  0
LINE
  8
0
 10
93.9083
 20
175.674
 11
94.0761
 21
175.455
  0
LINE
  8
0
 10
94.0761
 20
175.455
 11
94.2243
 21
175.223
  0
LINE
  8
0
 10
94.2243
 20
175.223
 11
94.3515
 21
174.978
  0
LINE
  8
0
 10
94.3515
 20
174.978
 11
94.457
 21
174.724
  0
LINE
  8
0
 10
94.457
 20
174.724
 11
94.5399
 21
174.461
  0
LINE
  8
0
 10
94.5399
 20
174.461
 11
94.5996
 21
174.192
  0
LINE
  8
0
 10
94.5996
 20
174.192
 11
94.6356
 21
173.918
  0
LINE
  8
0
 10
94.6356
 20
173.918
 11
94.6476
 21
173.643
  0
LINE
  8
0
 10
94.6476
 20
173.643
 11
94.6356
 21
173.367
  0
LINE
  8
0
 10
94.6356
 20
173.367
 11
94.5996
 21
173.094
  0
LINE
  8
0
 10
94.5996
 20
173.094
 11
94.5399
 21
172.825
  0
LINE
  8
0
 10
94.5399
 20
172.825
 11
94.457
 21
172.562
  0
LINE
  8
0
 10
94.457
 20
172.562
 11
94.3515
 21
172.307
  0
LINE
  8
0
 10
94.3515
 20
172.307
 11
94.2243
 21
172.063
  0
LINE
  8
0
 10
94.2243
 20
172.063
 11
94.0761
 21
171.83
  0
LINE
  8
0
 10
94.0761
 20
171.83
 11
93.9083
 21
171.612
  0
LINE
  8
0
 10
93.9083
 20
171.612
 11
93.7221
 21
171.408
  0
LINE
  8
0
 10
93.7221
 20
171.408
 11
93.5188
 21
171.222
  0
LINE
  8
0
 10
93.5188
 20
171.222
 11
93.3001
 21
171.054
  0
LINE
  8
0
 10
93.3001
 20
171.054
 11
93.0676
 21
170.906
  0
LINE
  8
0
 10
93.0676
 20
170.906
 11
92.8231
 21
170.779
  0
LINE
  8
0
 10
92.8231
 20
170.779
 11
92.5684
 21
170.673
  0
LINE
  8
0
 10
92.5684
 20
170.673
 11
92.3055
 21
170.591
  0
LINE
  8
0
 10
92.3055
 20
170.591
 11
92.0363
 21
170.531
  0
LINE
  8
0
 10
92.0363
 20
170.531
 11
91.763
 21
170.495
  0
LINE
  8
0
 10
91.763
 20
170.495
 11
91.4876
 21
170.483
  0
LINE
  8
0
 10
91.4876
 20
170.483
 11
91.2122
 21
170.495
  0
LINE
  8
0
 10
227.781
 20
149.489
 11
227.508
 21
149.525
  0
LINE
  8
0
 10
227.508
 20
149.525
 11
227.239
 21
149.585
  0
LINE
  8
0
 10
227.239
 20
149.585
 11
226.976
 21
149.667
  0
LINE
  8
0
 10
226.976
 20
149.667
 11
226.721
 21
149.773
  0
LINE
  8
0
 10
226.721
 20
149.773
 11
226.477
 21
149.9
  0
LINE
  8
0
 10
226.477
 20
149.9
 11
226.244
 21
150.048
  0
LINE
  8
0
 10
226.244
 20
150.048
 11
226.026
 21
150.216
  0
LINE
  8
0
 10
226.026
 20
150.216
 11
225.822
 21
150.402
  0
LINE
  8
0
 10
225.822
 20
150.402
 11
225.636
 21
150.606
  0
LINE
  8
0
 10
225.636
 20
150.606
 11
225.468
 21
150.824
  0
LINE
  8
0
 10
225.468
 20
150.824
 11
225.32
 21
151.057
  0
LINE
  8
0
 10
225.32
 20
151.057
 11
225.193
 21
151.301
  0
LINE
  8
0
 10
225.193
 20
151.301
 11
225.087
 21
151.556
  0
LINE
  8
0
 10
225.087
 20
151.556
 11
225.005
 21
151.819
  0
LINE
  8
0
 10
225.005
 20
151.819
 11
224.945
 21
152.088
  0
LINE
  8
0
 10
224.945
 20
152.088
 11
224.909
 21
152.361
  0
LINE
  8
0
 10
224.909
 20
152.361
 11
224.897
 21
152.637
  0
LINE
  8
0
 10
224.897
 20
152.637
 11
224.909
 21
152.912
  0
LINE
  8
0
 10
224.909
 20
152.912
 11
224.945
 21
153.186
  0
LINE
  8
0
 10
224.945
 20
153.186
 11
225.005
 21
153.455
  0
LINE
  8
0
 10
225.005
 20
153.455
 11
225.087
 21
153.718
  0
LINE
  8
0
 10
225.087
 20
153.718
 11
225.193
 21
153.972
  0
LINE
  8
0
 10
225.193
 20
153.972
 11
225.32
 21
154.217
  0
LINE
  8
0
 10
225.32
 20
154.217
 11
225.468
 21
154.449
  0
LINE
  8
0
 10
225.468
 20
154.449
 11
225.636
 21
154.668
  0
LINE
  8
0
 10
225.636
 20
154.668
 11
225.822
 21
154.871
  0
LINE
  8
0
 10
225.822
 20
154.871
 11
226.026
 21
155.058
  0
LINE
  8
0
 10
226.026
 20
155.058
 11
226.244
 21
155.225
  0
LINE
  8
0
 10
226.244
 20
155.225
 11
226.477
 21
155.374
  0
LINE
  8
0
 10
226.477
 20
155.374
 11
226.721
 21
155.501
  0
LINE
  8
0
 10
226.721
 20
155.501
 11
226.976
 21
155.606
  0
LINE
  8
0
 10
226.976
 20
155.606
 11
227.239
 21
155.689
  0
LINE
  8
0
 10
227.239
 20
155.689
 11
227.508
 21
155.749
  0
LINE
  8
0
 10
227.508
 20
155.749
 11
227.781
 21
155.785
  0
LINE
  8
0
 10
227.781
 20
155.785
 11
228.057
 21
155.797
  0
LINE
  8
0
 10
228.057
 20
155.797
 11
228.332
 21
155.785
  0
LINE
  8
0
 10
228.332
 20
155.785
 11
228.606
 21
155.749
  0
LINE
  8
0
 10
228.606
 20
155.749
 11
228.875
 21
155.689
  0
LINE
  8
0
 10
228.875
 20
155.689
 11
229.138
 21
155.606
  0
LINE
  8
0
 10
229.138
 20
155.606
 11
229.392
 21
155.501
  0
LINE
  8
0
 10
229.392
 20
155.501
 11
229.637
 21
155.374
  0
LINE
  8
0
 10
229.637
 20
155.374
 11
229.869
 21
155.225
  0
LINE
  8
0
 10
229.869
 20
155.225
 11
230.088
 21
155.058
  0
LINE
  8
0
 10
230.088
 20
155.058
 11
230.291
 21
154.871
  0
LINE
  8
0
 10
230.291
 20
154.871
 11
230.478
 21
154.668
  0
LINE
  8
0
 10
230.478
 20
154.668
 11
230.645
 21
154.449
  0
LINE
  8
0
 10
230.645
 20
154.449
 11
230.794
 21
154.217
  0
LINE
  8
0
 10
230.794
 20
154.217
 11
230.921
 21
153.972
  0
LINE
  8
0
 10
230.921
 20
153.972
 11
231.026
 21
153.718
  0
LINE
  8
0
 10
231.026
 20
153.718
 11
231.109
 21
153.455
  0
LINE
  8
0
 10
231.109
 20
153.455
 11
231.169
 21
153.186
  0
LINE
  8
0
 10
231.169
 20
153.186
 11
231.205
 21
152.912
  0
LINE
  8
0
 10
231.205
 20
152.912
 11
231.217
 21
152.637
  0
LINE
  8
0
 10
231.217
 20
152.637
 11
231.205
 21
152.361
  0
LINE
  8
0
 10
231.205
 20
152.361
 11
231.169
 21
152.088
  0
LINE
  8
0
 10
231.169
 20
152.088
 11
231.109
 21
151.819
  0
LINE
  8
0
 10
231.109
 20
151.819
 11
231.026
 21
151.556
  0
LINE
  8
0
 10
231.026
 20
151.556
 11
230.921
 21
151.301
  0
LINE
  8
0
 10
230.921
 20
151.301
 11
230.794
 21
151.057
  0
LINE
  8
0
 10
230.794
 20
151.057
 11
230.645
 21
150.824
  0
LINE
  8
0
 10
230.645
 20
150.824
 11
230.478
 21
150.606
  0
LINE
  8
0
 10
230.478
 20
150.606
 11
230.291
 21
150.402
  0
LINE
  8
0
 10
230.291
 20
150.402
 11
230.088
 21
150.216
  0
LINE
  8
0
 10
230.088
 20
150.216
 11
229.869
 21
150.048
  0
LINE
  8
0
 10
229.869
 20
150.048
 11
229.637
 21
149.9
  0
LINE
  8
0
 10
229.637
 20
149.9
 11
229.392
 21
149.773
  0
LINE
  8
0
 10
229.392
 20
149.773
 11
229.138
 21
149.667
  0
LINE
  8
0
 10
229.138
 20
149.667
 11
228.875
 21
149.585
  0
LINE
  8
0
 10
228.875
 20
149.585
 11
228.606
 21
149.525
  0
LINE
  8
0
 10
228.606
 20
149.525
 11
228.332
 21
149.489
  0
LINE
  8
0
 10
228.332
 20
149.489
 11
228.057
 21
149.477
  0
LINE
  8
0
 10
228.057
 20
149.477
 11
227.781
 21
149.489
  0
LINE
  8
0
 10
12.4246
 20
149.489
 11
12.1513
 21
149.525
  0
LINE
  8
0
 10
12.1513
 20
149.525
 11
11.8821
 21
149.585
  0
LINE
  8
0
 10
11.8821
 20
149.585
 11
11.6192
 21
149.667
  0
LINE
  8
0
 10
11.6192
 20
149.667
 11
11.3645
 21
149.773
  0
LINE
  8
0
 10
11.3645
 20
149.773
 11
11.12
 21
149.9
  0
LINE
  8
0
 10
11.12
 20
149.9
 11
10.8875
 21
150.048
  0
LINE
  8
0
 10
10.8875
 20
150.048
 11
10.6688
 21
150.216
  0
LINE
  8
0
 10
10.6688
 20
150.216
 11
10.4655
 21
150.402
  0
LINE
  8
0
 10
10.4655
 20
150.402
 11
10.2793
 21
150.606
  0
LINE
  8
0
 10
10.2793
 20
150.606
 11
10.1115
 21
150.824
  0
LINE
  8
0
 10
10.1115
 20
150.824
 11
9.96335
 21
151.057
  0
LINE
  8
0
 10
9.96335
 20
151.057
 11
9.83606
 21
151.301
  0
LINE
  8
0
 10
9.83606
 20
151.301
 11
9.73056
 21
151.556
  0
LINE
  8
0
 10
9.73056
 20
151.556
 11
9.64767
 21
151.819
  0
LINE
  8
0
 10
9.64767
 20
151.819
 11
9.588
 21
152.088
  0
LINE
  8
0
 10
9.588
 20
152.088
 11
9.55202
 21
152.361
  0
LINE
  8
0
 10
9.55202
 20
152.361
 11
9.53999
 21
152.637
  0
LINE
  8
0
 10
9.53999
 20
152.637
 11
9.55202
 21
152.912
  0
LINE
  8
0
 10
9.55202
 20
152.912
 11
9.588
 21
153.186
  0
LINE
  8
0
 10
9.588
 20
153.186
 11
9.64767
 21
153.455
  0
LINE
  8
0
 10
9.64767
 20
153.455
 11
9.73056
 21
153.718
  0
LINE
  8
0
 10
9.73056
 20
153.718
 11
9.83606
 21
153.972
  0
LINE
  8
0
 10
9.83606
 20
153.972
 11
9.96335
 21
154.217
  0
LINE
  8
0
 10
9.96335
 20
154.217
 11
10.1115
 21
154.449
  0
LINE
  8
0
 10
10.1115
 20
154.449
 11
10.2793
 21
154.668
  0
LINE
  8
0
 10
10.2793
 20
154.668
 11
10.4655
 21
154.871
  0
LINE
  8
0
 10
10.4655
 20
154.871
 11
10.6688
 21
155.058
  0
LINE
  8
0
 10
10.6688
 20
155.058
 11
10.8875
 21
155.225
  0
LINE
  8
0
 10
10.8875
 20
155.225
 11
11.12
 21
155.374
  0
LINE
  8
0
 10
11.12
 20
155.374
 11
11.3645
 21
155.501
  0
LINE
  8
0
 10
11.3645
 20
155.501
 11
11.6192
 21
155.606
  0
LINE
  8
0
 10
11.6192
 20
155.606
 11
11.8821
 21
155.689
  0
LINE
  8
0
 10
11.8821
 20
155.689
 11
12.1513
 21
155.749
  0
LINE
  8
0
 10
12.1513
 20
155.749
 11
12.4246
 21
155.785
  0
LINE
  8
0
 10
12.4246
 20
155.785
 11
12.7
 21
155.797
  0
LINE
  8
0
 10
12.7
 20
155.797
 11
12.9754
 21
155.785
  0
LINE
  8
0
 10
12.9754
 20
155.785
 11
13.2487
 21
155.749
  0
LINE
  8
0
 10
13.2487
 20
155.749
 11
13.5179
 21
155.689
  0
LINE
  8
0
 10
13.5179
 20
155.689
 11
13.7808
 21
155.606
  0
LINE
  8
0
 10
13.7808
 20
155.606
 11
14.0355
 21
155.501
  0
LINE
  8
0
 10
14.0355
 20
155.501
 11
14.28
 21
155.374
  0
LINE
  8
0
 10
14.28
 20
155.374
 11
14.5125
 21
155.225
  0
LINE
  8
0
 10
14.5125
 20
155.225
 11
14.7312
 21
155.058
  0
LINE
  8
0
 10
14.7312
 20
155.058
 11
14.9344
 21
154.871
  0
LINE
  8
0
 10
14.9344
 20
154.871
 11
15.1207
 21
154.668
  0
LINE
  8
0
 10
15.1207
 20
154.668
 11
15.2885
 21
154.449
  0
LINE
  8
0
 10
15.2885
 20
154.449
 11
15.4366
 21
154.217
  0
LINE
  8
0
 10
15.4366
 20
154.217
 11
15.5639
 21
153.972
  0
LINE
  8
0
 10
15.5639
 20
153.972
 11
15.6694
 21
153.718
  0
LINE
  8
0
 10
15.6694
 20
153.718
 11
15.7523
 21
153.455
  0
LINE
  8
0
 10
15.7523
 20
153.455
 11
15.812
 21
153.186
  0
LINE
  8
0
 10
15.812
 20
153.186
 11
15.848
 21
152.912
  0
LINE
  8
0
 10
15.848
 20
152.912
 11
15.86
 21
152.637
  0
LINE
  8
0
 10
15.86
 20
152.637
 11
15.848
 21
152.361
  0
LINE
  8
0
 10
15.848
 20
152.361
 11
15.812
 21
152.088
  0
LINE
  8
0
 10
15.812
 20
152.088
 11
15.7523
 21
151.819
  0
LINE
  8
0
 10
15.7523
 20
151.819
 11
15.6694
 21
151.556
  0
LINE
  8
0
 10
15.6694
 20
151.556
 11
15.5639
 21
151.301
  0
LINE
  8
0
 10
15.5639
 20
151.301
 11
15.4366
 21
151.057
  0
LINE
  8
0
 10
15.4366
 20
151.057
 11
15.2885
 21
150.824
  0
LINE
  8
0
 10
15.2885
 20
150.824
 11
15.1207
 21
150.606
  0
LINE
  8
0
 10
15.1207
 20
150.606
 11
14.9344
 21
150.402
  0
LINE
  8
0
 10
14.9344
 20
150.402
 11
14.7312
 21
150.216
  0
LINE
  8
0
 10
14.7312
 20
150.216
 11
14.5125
 21
150.048
  0
LINE
  8
0
 10
14.5125
 20
150.048
 11
14.28
 21
149.9
  0
LINE
  8
0
 10
14.28
 20
149.9
 11
14.0355
 21
149.773
  0
LINE
  8
0
 10
14.0355
 20
149.773
 11
13.7808
 21
149.667
  0
LINE
  8
0
 10
13.7808
 20
149.667
 11
13.5179
 21
149.585
  0
LINE
  8
0
 10
13.5179
 20
149.585
 11
13.2487
 21
149.525
  0
LINE
  8
0
 10
13.2487
 20
149.525
 11
12.9754
 21
149.489
  0
LINE
  8
0
 10
12.9754
 20
149.489
 11
12.7
 21
149.477
  0
LINE
  8
0
 10
12.7
 20
149.477
 11
12.4246
 21
149.489
  0
LINE
  8
0
 10
104.748
 20
151.949
 11
104.618
 21
151.966
  0
LINE
  8
0
 10
104.618
 20
151.966
 11
104.49
 21
151.994
  0
LINE
  8
0
 10
104.49
 20
151.994
 11
104.365
 21
152.033
  0
LINE
  8
0
 10
104.365
 20
152.033
 11
104.245
 21
152.083
  0
LINE
  8
0
 10
104.245
 20
152.083
 11
104.128
 21
152.144
  0
LINE
  8
0
 10
104.128
 20
152.144
 11
104.018
 21
152.214
  0
LINE
  8
0
 10
104.018
 20
152.214
 11
103.914
 21
152.294
  0
LINE
  8
0
 10
103.914
 20
152.294
 11
103.818
 21
152.382
  0
LINE
  8
0
 10
103.818
 20
152.382
 11
103.729
 21
152.479
  0
LINE
  8
0
 10
103.729
 20
152.479
 11
103.65
 21
152.583
  0
LINE
  8
0
 10
103.65
 20
152.583
 11
103.579
 21
152.693
  0
LINE
  8
0
 10
103.579
 20
152.693
 11
103.519
 21
152.809
  0
LINE
  8
0
 10
103.519
 20
152.809
 11
103.469
 21
152.93
  0
LINE
  8
0
 10
103.469
 20
152.93
 11
103.43
 21
153.055
  0
LINE
  8
0
 10
103.43
 20
153.055
 11
103.401
 21
153.182
  0
LINE
  8
0
 10
103.401
 20
153.182
 11
103.384
 21
153.312
  0
LINE
  8
0
 10
103.384
 20
153.312
 11
103.378
 21
153.443
  0
LINE
  8
0
 10
103.378
 20
153.443
 11
103.384
 21
153.574
  0
LINE
  8
0
 10
103.384
 20
153.574
 11
103.401
 21
153.703
  0
LINE
  8
0
 10
103.401
 20
153.703
 11
103.43
 21
153.831
  0
LINE
  8
0
 10
103.43
 20
153.831
 11
103.469
 21
153.956
  0
LINE
  8
0
 10
103.469
 20
153.956
 11
103.519
 21
154.077
  0
LINE
  8
0
 10
103.519
 20
154.077
 11
103.579
 21
154.193
  0
LINE
  8
0
 10
103.579
 20
154.193
 11
103.65
 21
154.303
  0
LINE
  8
0
 10
103.65
 20
154.303
 11
103.729
 21
154.407
  0
LINE
  8
0
 10
103.729
 20
154.407
 11
103.818
 21
154.504
  0
LINE
  8
0
 10
103.818
 20
154.504
 11
103.914
 21
154.592
  0
LINE
  8
0
 10
103.914
 20
154.592
 11
104.018
 21
154.672
  0
LINE
  8
0
 10
104.018
 20
154.672
 11
104.128
 21
154.742
  0
LINE
  8
0
 10
104.128
 20
154.742
 11
104.245
 21
154.802
  0
LINE
  8
0
 10
104.245
 20
154.802
 11
104.365
 21
154.852
  0
LINE
  8
0
 10
104.365
 20
154.852
 11
104.49
 21
154.892
  0
LINE
  8
0
 10
104.49
 20
154.892
 11
104.618
 21
154.92
  0
LINE
  8
0
 10
104.618
 20
154.92
 11
104.748
 21
154.937
  0
LINE
  8
0
 10
104.748
 20
154.937
 11
104.878
 21
154.943
  0
LINE
  8
0
 10
104.878
 20
154.943
 11
105.009
 21
154.937
  0
LINE
  8
0
 10
105.009
 20
154.937
 11
105.139
 21
154.92
  0
LINE
  8
0
 10
105.139
 20
154.92
 11
105.267
 21
154.892
  0
LINE
  8
0
 10
105.267
 20
154.892
 11
105.391
 21
154.852
  0
LINE
  8
0
 10
105.391
 20
154.852
 11
105.512
 21
154.802
  0
LINE
  8
0
 10
105.512
 20
154.802
 11
105.628
 21
154.742
  0
LINE
  8
0
 10
105.628
 20
154.742
 11
105.739
 21
154.672
  0
LINE
  8
0
 10
105.739
 20
154.672
 11
105.843
 21
154.592
  0
LINE
  8
0
 10
105.843
 20
154.592
 11
105.939
 21
154.504
  0
LINE
  8
0
 10
105.939
 20
154.504
 11
106.028
 21
154.407
  0
LINE
  8
0
 10
106.028
 20
154.407
 11
106.107
 21
154.303
  0
LINE
  8
0
 10
106.107
 20
154.303
 11
106.177
 21
154.193
  0
LINE
  8
0
 10
106.177
 20
154.193
 11
106.238
 21
154.077
  0
LINE
  8
0
 10
106.238
 20
154.077
 11
106.288
 21
153.956
  0
LINE
  8
0
 10
106.288
 20
153.956
 11
106.327
 21
153.831
  0
LINE
  8
0
 10
106.327
 20
153.831
 11
106.356
 21
153.703
  0
LINE
  8
0
 10
106.356
 20
153.703
 11
106.373
 21
153.574
  0
LINE
  8
0
 10
106.373
 20
153.574
 11
106.378
 21
153.443
  0
LINE
  8
0
 10
106.378
 20
153.443
 11
106.373
 21
153.312
  0
LINE
  8
0
 10
106.373
 20
153.312
 11
106.356
 21
153.182
  0
LINE
  8
0
 10
106.356
 20
153.182
 11
106.327
 21
153.055
  0
LINE
  8
0
 10
106.327
 20
153.055
 11
106.288
 21
152.93
  0
LINE
  8
0
 10
106.288
 20
152.93
 11
106.238
 21
152.809
  0
LINE
  8
0
 10
106.238
 20
152.809
 11
106.177
 21
152.693
  0
LINE
  8
0
 10
106.177
 20
152.693
 11
106.107
 21
152.583
  0
LINE
  8
0
 10
106.107
 20
152.583
 11
106.028
 21
152.479
  0
LINE
  8
0
 10
106.028
 20
152.479
 11
105.939
 21
152.382
  0
LINE
  8
0
 10
105.939
 20
152.382
 11
105.843
 21
152.294
  0
LINE
  8
0
 10
105.843
 20
152.294
 11
105.739
 21
152.214
  0
LINE
  8
0
 10
105.739
 20
152.214
 11
105.628
 21
152.144
  0
LINE
  8
0
 10
105.628
 20
152.144
 11
105.512
 21
152.083
  0
LINE
  8
0
 10
105.512
 20
152.083
 11
105.391
 21
152.033
  0
LINE
  8
0
 10
105.391
 20
152.033
 11
105.267
 21
151.994
  0
LINE
  8
0
 10
105.267
 20
151.994
 11
105.139
 21
151.966
  0
LINE
  8
0
 10
105.139
 20
151.966
 11
105.009
 21
151.949
  0
LINE
  8
0
 10
105.009
 20
151.949
 11
104.878
 21
151.943
  0
LINE
  8
0
 10
104.878
 20
151.943
 11
104.748
 21
151.949
  0
LINE
  8
0
 10
135.748
 20
151.949
 11
135.618
 21
151.966
  0
LINE
  8
0
 10
135.618
 20
151.966
 11
135.49
 21
151.994
  0
LINE
  8
0
 10
135.49
 20
151.994
 11
135.365
 21
152.033
  0
LINE
  8
0
 10
135.365
 20
152.033
 11
135.245
 21
152.083
  0
LINE
  8
0
 10
135.245
 20
152.083
 11
135.128
 21
152.144
  0
LINE
  8
0
 10
135.128
 20
152.144
 11
135.018
 21
152.214
  0
LINE
  8
0
 10
135.018
 20
152.214
 11
134.914
 21
152.294
  0
LINE
  8
0
 10
134.914
 20
152.294
 11
134.818
 21
152.382
  0
LINE
  8
0
 10
134.818
 20
152.382
 11
134.729
 21
152.479
  0
LINE
  8
0
 10
134.729
 20
152.479
 11
134.65
 21
152.583
  0
LINE
  8
0
 10
134.65
 20
152.583
 11
134.579
 21
152.693
  0
LINE
  8
0
 10
134.579
 20
152.693
 11
134.519
 21
152.809
  0
LINE
  8
0
 10
134.519
 20
152.809
 11
134.469
 21
152.93
  0
LINE
  8
0
 10
134.469
 20
152.93
 11
134.43
 21
153.055
  0
LINE
  8
0
 10
134.43
 20
153.055
 11
134.401
 21
153.182
  0
LINE
  8
0
 10
134.401
 20
153.182
 11
134.384
 21
153.312
  0
LINE
  8
0
 10
134.384
 20
153.312
 11
134.378
 21
153.443
  0
LINE
  8
0
 10
134.378
 20
153.443
 11
134.384
 21
153.574
  0
LINE
  8
0
 10
134.384
 20
153.574
 11
134.401
 21
153.703
  0
LINE
  8
0
 10
134.401
 20
153.703
 11
134.43
 21
153.831
  0
LINE
  8
0
 10
134.43
 20
153.831
 11
134.469
 21
153.956
  0
LINE
  8
0
 10
134.469
 20
153.956
 11
134.519
 21
154.077
  0
LINE
  8
0
 10
134.519
 20
154.077
 11
134.579
 21
154.193
  0
LINE
  8
0
 10
134.579
 20
154.193
 11
134.65
 21
154.303
  0
LINE
  8
0
 10
134.65
 20
154.303
 11
134.729
 21
154.407
  0
LINE
  8
0
 10
134.729
 20
154.407
 11
134.818
 21
154.504
  0
LINE
  8
0
 10
134.818
 20
154.504
 11
134.914
 21
154.592
  0
LINE
  8
0
 10
134.914
 20
154.592
 11
135.018
 21
154.672
  0
LINE
  8
0
 10
135.018
 20
154.672
 11
135.128
 21
154.742
  0
LINE
  8
0
 10
135.128
 20
154.742
 11
135.245
 21
154.802
  0
LINE
  8
0
 10
135.245
 20
154.802
 11
135.365
 21
154.852
  0
LINE
  8
0
 10
135.365
 20
154.852
 11
135.49
 21
154.892
  0
LINE
  8
0
 10
135.49
 20
154.892
 11
135.618
 21
154.92
  0
LINE
  8
0
 10
135.618
 20
154.92
 11
135.748
 21
154.937
  0
LINE
  8
0
 10
135.748
 20
154.937
 11
135.878
 21
154.943
  0
LINE
  8
0
 10
135.878
 20
154.943
 11
136.009
 21
154.937
  0
LINE
  8
0
 10
136.009
 20
154.937
 11
136.139
 21
154.92
  0
LINE
  8
0
 10
136.139
 20
154.92
 11
136.267
 21
154.892
  0
LINE
  8
0
 10
136.267
 20
154.892
 11
136.391
 21
154.852
  0
LINE
  8
0
 10
136.391
 20
154.852
 11
136.512
 21
154.802
  0
LINE
  8
0
 10
136.512
 20
154.802
 11
136.628
 21
154.742
  0
LINE
  8
0
 10
136.628
 20
154.742
 11
136.739
 21
154.672
  0
LINE
  8
0
 10
136.739
 20
154.672
 11
136.843
 21
154.592
  0
LINE
  8
0
 10
136.843
 20
154.592
 11
136.939
 21
154.504
  0
LINE
  8
0
 10
136.939
 20
154.504
 11
137.028
 21
154.407
  0
LINE
  8
0
 10
137.028
 20
154.407
 11
137.107
 21
154.303
  0
LINE
  8
0
 10
137.107
 20
154.303
 11
137.177
 21
154.193
  0
LINE
  8
0
 10
137.177
 20
154.193
 11
137.238
 21
154.077
  0
LINE
  8
0
 10
137.238
 20
154.077
 11
137.288
 21
153.956
  0
LINE
  8
0
 10
137.288
 20
153.956
 11
137.327
 21
153.831
  0
LINE
  8
0
 10
137.327
 20
153.831
 11
137.356
 21
153.703
  0
LINE
  8
0
 10
137.356
 20
153.703
 11
137.373
 21
153.574
  0
LINE
  8
0
 10
137.373
 20
153.574
 11
137.378
 21
153.443
  0
LINE
  8
0
 10
137.378
 20
153.443
 11
137.373
 21
153.312
  0
LINE
  8
0
 10
137.373
 20
153.312
 11
137.356
 21
153.182
  0
LINE
  8
0
 10
137.356
 20
153.182
 11
137.327
 21
153.055
  0
LINE
  8
0
 10
137.327
 20
153.055
 11
137.288
 21
152.93
  0
LINE
  8
0
 10
137.288
 20
152.93
 11
137.238
 21
152.809
  0
LINE
  8
0
 10
137.238
 20
152.809
 11
137.177
 21
152.693
  0
LINE
  8
0
 10
137.177
 20
152.693
 11
137.107
 21
152.583
  0
LINE
  8
0
 10
137.107
 20
152.583
 11
137.028
 21
152.479
  0
LINE
  8
0
 10
137.028
 20
152.479
 11
136.939
 21
152.382
  0
LINE
  8
0
 10
136.939
 20
152.382
 11
136.843
 21
152.294
  0
LINE
  8
0
 10
136.843
 20
152.294
 11
136.739
 21
152.214
  0
LINE
  8
0
 10
136.739
 20
152.214
 11
136.628
 21
152.144
  0
LINE
  8
0
 10
136.628
 20
152.144
 11
136.512
 21
152.083
  0
LINE
  8
0
 10
136.512
 20
152.083
 11
136.391
 21
152.033
  0
LINE
  8
0
 10
136.391
 20
152.033
 11
136.267
 21
151.994
  0
LINE
  8
0
 10
136.267
 20
151.994
 11
136.139
 21
151.966
  0
LINE
  8
0
 10
136.139
 20
151.966
 11
136.009
 21
151.949
  0
LINE
  8
0
 10
136.009
 20
151.949
 11
135.878
 21
151.943
  0
LINE
  8
0
 10
135.878
 20
151.943
 11
135.748
 21
151.949
  0
LINE
  8
0
 10
119.409
 20
126.86
 11
118.447
 21
126.987
  0
LINE
  8
0
 10
118.447
 20
126.987
 11
117.499
 21
127.197
  0
LINE
  8
0
 10
117.499
 20
127.197
 11
116.573
 21
127.489
  0
LINE
  8
0
 10
116.573
 20
127.489
 11
115.677
 21
127.86
  0
LINE
  8
0
 10
115.677
 20
127.86
 11
114.816
 21
128.308
  0
LINE
  8
0
 10
114.816
 20
128.308
 11
113.997
 21
128.83
  0
LINE
  8
0
 10
113.997
 20
128.83
 11
113.227
 21
129.421
  0
LINE
  8
0
 10
113.227
 20
129.421
 11
112.512
 21
130.076
  0
LINE
  8
0
 10
112.512
 20
130.076
 11
111.856
 21
130.792
  0
LINE
  8
0
 10
111.856
 20
130.792
 11
111.265
 21
131.562
  0
LINE
  8
0
 10
111.265
 20
131.562
 11
110.744
 21
132.38
  0
LINE
  8
0
 10
110.744
 20
132.38
 11
110.296
 21
133.241
  0
LINE
  8
0
 10
110.296
 20
133.241
 11
109.924
 21
134.138
  0
LINE
  8
0
 10
109.924
 20
134.138
 11
109.633
 21
135.064
  0
LINE
  8
0
 10
109.633
 20
135.064
 11
109.422
 21
136.011
  0
LINE
  8
0
 10
109.422
 20
136.011
 11
109.296
 21
136.973
  0
LINE
  8
0
 10
109.296
 20
136.973
 11
109.253
 21
137.943
  0
LINE
  8
0
 10
109.253
 20
137.943
 11
109.296
 21
138.912
  0
LINE
  8
0
 10
109.296
 20
138.912
 11
109.422
 21
139.875
  0
LINE
  8
0
 10
109.422
 20
139.875
 11
109.633
 21
140.822
  0
LINE
  8
0
 10
109.633
 20
140.822
 11
109.924
 21
141.748
  0
LINE
  8
0
 10
109.924
 20
141.748
 11
110.296
 21
142.644
  0
LINE
  8
0
 10
110.296
 20
142.644
 11
110.744
 21
143.505
  0
LINE
  8
0
 10
110.744
 20
143.505
 11
111.265
 21
144.324
  0
LINE
  8
0
 10
111.265
 20
144.324
 11
111.856
 21
145.094
  0
LINE
  8
0
 10
111.856
 20
145.094
 11
112.512
 21
145.809
  0
LINE
  8
0
 10
112.512
 20
145.809
 11
113.227
 21
146.465
  0
LINE
  8
0
 10
113.227
 20
146.465
 11
113.997
 21
147.056
  0
LINE
  8
0
 10
113.997
 20
147.056
 11
114.816
 21
147.577
  0
LINE
  8
0
 10
114.816
 20
147.577
 11
115.677
 21
148.026
  0
LINE
  8
0
 10
115.677
 20
148.026
 11
116.573
 21
148.397
  0
LINE
  8
0
 10
116.573
 20
148.397
 11
117.499
 21
148.689
  0
LINE
  8
0
 10
117.499
 20
148.689
 11
118.447
 21
148.899
  0
LINE
  8
0
 10
118.447
 20
148.899
 11
119.409
 21
149.026
  0
LINE
  8
0
 10
119.409
 20
149.026
 11
120.378
 21
149.068
  0
LINE
  8
0
 10
120.378
 20
149.068
 11
121.348
 21
149.026
  0
LINE
  8
0
 10
121.348
 20
149.026
 11
122.31
 21
148.899
  0
LINE
  8
0
 10
122.31
 20
148.899
 11
123.258
 21
148.689
  0
LINE
  8
0
 10
123.258
 20
148.689
 11
124.183
 21
148.397
  0
LINE
  8
0
 10
124.183
 20
148.397
 11
125.08
 21
148.026
  0
LINE
  8
0
 10
125.08
 20
148.026
 11
125.941
 21
147.577
  0
LINE
  8
0
 10
125.941
 20
147.577
 11
126.759
 21
147.056
  0
LINE
  8
0
 10
126.759
 20
147.056
 11
127.529
 21
146.465
  0
LINE
  8
0
 10
127.529
 20
146.465
 11
128.245
 21
145.809
  0
LINE
  8
0
 10
128.245
 20
145.809
 11
128.901
 21
145.094
  0
LINE
  8
0
 10
128.901
 20
145.094
 11
129.492
 21
144.324
  0
LINE
  8
0
 10
129.492
 20
144.324
 11
130.013
 21
143.505
  0
LINE
  8
0
 10
130.013
 20
143.505
 11
130.461
 21
142.644
  0
LINE
  8
0
 10
130.461
 20
142.644
 11
130.833
 21
141.748
  0
LINE
  8
0
 10
130.833
 20
141.748
 11
131.124
 21
140.822
  0
LINE
  8
0
 10
131.124
 20
140.822
 11
131.334
 21
139.875
  0
LINE
  8
0
 10
131.334
 20
139.875
 11
131.461
 21
138.912
  0
LINE
  8
0
 10
131.461
 20
138.912
 11
131.503
 21
137.943
  0
LINE
  8
0
 10
131.503
 20
137.943
 11
131.461
 21
136.973
  0
LINE
  8
0
 10
131.461
 20
136.973
 11
131.334
 21
136.011
  0
LINE
  8
0
 10
131.334
 20
136.011
 11
131.124
 21
135.064
  0
LINE
  8
0
 10
131.124
 20
135.064
 11
130.833
 21
134.138
  0
LINE
  8
0
 10
130.833
 20
134.138
 11
130.461
 21
133.241
  0
LINE
  8
0
 10
130.461
 20
133.241
 11
130.013
 21
132.38
  0
LINE
  8
0
 10
130.013
 20
132.38
 11
129.492
 21
131.562
  0
LINE
  8
0
 10
129.492
 20
131.562
 11
128.901
 21
130.792
  0
LINE
  8
0
 10
128.901
 20
130.792
 11
128.245
 21
130.076
  0
LINE
  8
0
 10
128.245
 20
130.076
 11
127.529
 21
129.421
  0
LINE
  8
0
 10
127.529
 20
129.421
 11
126.759
 21
128.83
  0
LINE
  8
0
 10
126.759
 20
128.83
 11
125.941
 21
128.308
  0
LINE
  8
0
 10
125.941
 20
128.308
 11
125.08
 21
127.86
  0
LINE
  8
0
 10
125.08
 20
127.86
 11
124.183
 21
127.489
  0
LINE
  8
0
 10
124.183
 20
127.489
 11
123.258
 21
127.197
  0
LINE
  8
0
 10
123.258
 20
127.197
 11
122.31
 21
126.987
  0
LINE
  8
0
 10
122.31
 20
126.987
 11
121.348
 21
126.86
  0
LINE
  8
0
 10
121.348
 20
126.86
 11
120.378
 21
126.818
  0
LINE
  8
0
 10
120.378
 20
126.818
 11
119.409
 21
126.86
  0
LINE
  8
0
 10
104.748
 20
120.949
 11
104.618
 21
120.966
  0
LINE
  8
0
 10
104.618
 20
120.966
 11
104.49
 21
120.994
  0
LINE
  8
0
 10
104.49
 20
120.994
 11
104.365
 21
121.033
  0
LINE
  8
0
 10
104.365
 20
121.033
 11
104.245
 21
121.083
  0
LINE
  8
0
 10
104.245
 20
121.083
 11
104.128
 21
121.144
  0
LINE
  8
0
 10
104.128
 20
121.144
 11
104.018
 21
121.214
  0
LINE
  8
0
 10
104.018
 20
121.214
 11
103.914
 21
121.294
  0
LINE
  8
0
 10
103.914
 20
121.294
 11
103.818
 21
121.382
  0
LINE
  8
0
 10
103.818
 20
121.382
 11
103.729
 21
121.479
  0
LINE
  8
0
 10
103.729
 20
121.479
 11
103.65
 21
121.582
  0
LINE
  8
0
 10
103.65
 20
121.582
 11
103.579
 21
121.693
  0
LINE
  8
0
 10
103.579
 20
121.693
 11
103.519
 21
121.809
  0
LINE
  8
0
 10
103.519
 20
121.809
 11
103.469
 21
121.93
  0
LINE
  8
0
 10
103.469
 20
121.93
 11
103.43
 21
122.055
  0
LINE
  8
0
 10
103.43
 20
122.055
 11
103.401
 21
122.182
  0
LINE
  8
0
 10
103.401
 20
122.182
 11
103.384
 21
122.312
  0
LINE
  8
0
 10
103.384
 20
122.312
 11
103.378
 21
122.443
  0
LINE
  8
0
 10
103.378
 20
122.443
 11
103.384
 21
122.574
  0
LINE
  8
0
 10
103.384
 20
122.574
 11
103.401
 21
122.703
  0
LINE
  8
0
 10
103.401
 20
122.703
 11
103.43
 21
122.831
  0
LINE
  8
0
 10
103.43
 20
122.831
 11
103.469
 21
122.956
  0
LINE
  8
0
 10
103.469
 20
122.956
 11
103.519
 21
123.077
  0
LINE
  8
0
 10
103.519
 20
123.077
 11
103.579
 21
123.193
  0
LINE
  8
0
 10
103.579
 20
123.193
 11
103.65
 21
123.303
  0
LINE
  8
0
 10
103.65
 20
123.303
 11
103.729
 21
123.407
  0
LINE
  8
0
 10
103.729
 20
123.407
 11
103.818
 21
123.504
  0
LINE
  8
0
 10
103.818
 20
123.504
 11
103.914
 21
123.592
  0
LINE
  8
0
 10
103.914
 20
123.592
 11
104.018
 21
123.672
  0
LINE
  8
0
 10
104.018
 20
123.672
 11
104.128
 21
123.742
  0
LINE
  8
0
 10
104.128
 20
123.742
 11
104.245
 21
123.802
  0
LINE
  8
0
 10
104.245
 20
123.802
 11
104.365
 21
123.852
  0
LINE
  8
0
 10
104.365
 20
123.852
 11
104.49
 21
123.892
  0
LINE
  8
0
 10
104.49
 20
123.892
 11
104.618
 21
123.92
  0
LINE
  8
0
 10
104.618
 20
123.92
 11
104.748
 21
123.937
  0
LINE
  8
0
 10
104.748
 20
123.937
 11
104.878
 21
123.943
  0
LINE
  8
0
 10
104.878
 20
123.943
 11
105.009
 21
123.937
  0
LINE
  8
0
 10
105.009
 20
123.937
 11
105.139
 21
123.92
  0
LINE
  8
0
 10
105.139
 20
123.92
 11
105.267
 21
123.892
  0
LINE
  8
0
 10
105.267
 20
123.892
 11
105.391
 21
123.852
  0
LINE
  8
0
 10
105.391
 20
123.852
 11
105.512
 21
123.802
  0
LINE
  8
0
 10
105.512
 20
123.802
 11
105.628
 21
123.742
  0
LINE
  8
0
 10
105.628
 20
123.742
 11
105.739
 21
123.672
  0
LINE
  8
0
 10
105.739
 20
123.672
 11
105.843
 21
123.592
  0
LINE
  8
0
 10
105.843
 20
123.592
 11
105.939
 21
123.504
  0
LINE
  8
0
 10
105.939
 20
123.504
 11
106.028
 21
123.407
  0
LINE
  8
0
 10
106.028
 20
123.407
 11
106.107
 21
123.303
  0
LINE
  8
0
 10
106.107
 20
123.303
 11
106.177
 21
123.193
  0
LINE
  8
0
 10
106.177
 20
123.193
 11
106.238
 21
123.077
  0
LINE
  8
0
 10
106.238
 20
123.077
 11
106.288
 21
122.956
  0
LINE
  8
0
 10
106.288
 20
122.956
 11
106.327
 21
122.831
  0
LINE
  8
0
 10
106.327
 20
122.831
 11
106.356
 21
122.703
  0
LINE
  8
0
 10
106.356
 20
122.703
 11
106.373
 21
122.574
  0
LINE
  8
0
 10
106.373
 20
122.574
 11
106.378
 21
122.443
  0
LINE
  8
0
 10
106.378
 20
122.443
 11
106.373
 21
122.312
  0
LINE
  8
0
 10
106.373
 20
122.312
 11
106.356
 21
122.182
  0
LINE
  8
0
 10
106.356
 20
122.182
 11
106.327
 21
122.055
  0
LINE
  8
0
 10
106.327
 20
122.055
 11
106.288
 21
121.93
  0
LINE
  8
0
 10
106.288
 20
121.93
 11
106.238
 21
121.809
  0
LINE
  8
0
 10
106.238
 20
121.809
 11
106.177
 21
121.693
  0
LINE
  8
0
 10
106.177
 20
121.693
 11
106.107
 21
121.582
  0
LINE
  8
0
 10
106.107
 20
121.582
 11
106.028
 21
121.479
  0
LINE
  8
0
 10
106.028
 20
121.479
 11
105.939
 21
121.382
  0
LINE
  8
0
 10
105.939
 20
121.382
 11
105.843
 21
121.294
  0
LINE
  8
0
 10
105.843
 20
121.294
 11
105.739
 21
121.214
  0
LINE
  8
0
 10
105.739
 20
121.214
 11
105.628
 21
121.144
  0
LINE
  8
0
 10
105.628
 20
121.144
 11
105.512
 21
121.083
  0
LINE
  8
0
 10
105.512
 20
121.083
 11
105.391
 21
121.033
  0
LINE
  8
0
 10
105.391
 20
121.033
 11
105.267
 21
120.994
  0
LINE
  8
0
 10
105.267
 20
120.994
 11
105.139
 21
120.966
  0
LINE
  8
0
 10
105.139
 20
120.966
 11
105.009
 21
120.949
  0
LINE
  8
0
 10
105.009
 20
120.949
 11
104.878
 21
120.943
  0
LINE
  8
0
 10
104.878
 20
120.943
 11
104.748
 21
120.949
  0
LINE
  8
0
 10
135.748
 20
120.949
 11
135.618
 21
120.966
  0
LINE
  8
0
 10
135.618
 20
120.966
 11
135.49
 21
120.994
  0
LINE
  8
0
 10
135.49
 20
120.994
 11
135.365
 21
121.033
  0
LINE
  8
0
 10
135.365
 20
121.033
 11
135.245
 21
121.083
  0
LINE
  8
0
 10
135.245
 20
121.083
 11
135.128
 21
121.144
  0
LINE
  8
0
 10
135.128
 20
121.144
 11
135.018
 21
121.214
  0
LINE
  8
0
 10
135.018
 20
121.214
 11
134.914
 21
121.294
  0
LINE
  8
0
 10
134.914
 20
121.294
 11
134.818
 21
121.382
  0
LINE
  8
0
 10
134.818
 20
121.382
 11
134.729
 21
121.479
  0
LINE
  8
0
 10
134.729
 20
121.479
 11
134.65
 21
121.582
  0
LINE
  8
0
 10
134.65
 20
121.582
 11
134.579
 21
121.693
  0
LINE
  8
0
 10
134.579
 20
121.693
 11
134.519
 21
121.809
  0
LINE
  8
0
 10
134.519
 20
121.809
 11
134.469
 21
121.93
  0
LINE
  8
0
 10
134.469
 20
121.93
 11
134.43
 21
122.055
  0
LINE
  8
0
 10
134.43
 20
122.055
 11
134.401
 21
122.182
  0
LINE
  8
0
 10
134.401
 20
122.182
 11
134.384
 21
122.312
  0
LINE
  8
0
 10
134.384
 20
122.312
 11
134.378
 21
122.443
  0
LINE
  8
0
 10
134.378
 20
122.443
 11
134.384
 21
122.574
  0
LINE
  8
0
 10
134.384
 20
122.574
 11
134.401
 21
122.703
  0
LINE
  8
0
 10
134.401
 20
122.703
 11
134.43
 21
122.831
  0
LINE
  8
0
 10
134.43
 20
122.831
 11
134.469
 21
122.956
  0
LINE
  8
0
 10
134.469
 20
122.956
 11
134.519
 21
123.077
  0
LINE
  8
0
 10
134.519
 20
123.077
 11
134.579
 21
123.193
  0
LINE
  8
0
 10
134.579
 20
123.193
 11
134.65
 21
123.303
  0
LINE
  8
0
 10
134.65
 20
123.303
 11
134.729
 21
123.407
  0
LINE
  8
0
 10
134.729
 20
123.407
 11
134.818
 21
123.504
  0
LINE
  8
0
 10
134.818
 20
123.504
 11
134.914
 21
123.592
  0
LINE
  8
0
 10
134.914
 20
123.592
 11
135.018
 21
123.672
  0
LINE
  8
0
 10
135.018
 20
123.672
 11
135.128
 21
123.742
  0
LINE
  8
0
 10
135.128
 20
123.742
 11
135.245
 21
123.802
  0
LINE
  8
0
 10
135.245
 20
123.802
 11
135.365
 21
123.852
  0
LINE
  8
0
 10
135.365
 20
123.852
 11
135.49
 21
123.892
  0
LINE
  8
0
 10
135.49
 20
123.892
 11
135.618
 21
123.92
  0
LINE
  8
0
 10
135.618
 20
123.92
 11
135.748
 21
123.937
  0
LINE
  8
0
 10
135.748
 20
123.937
 11
135.878
 21
123.943
  0
LINE
  8
0
 10
135.878
 20
123.943
 11
136.009
 21
123.937
  0
LINE
  8
0
 10
136.009
 20
123.937
 11
136.139
 21
123.92
  0
LINE
  8
0
 10
136.139
 20
123.92
 11
136.267
 21
123.892
  0
LINE
  8
0
 10
136.267
 20
123.892
 11
136.391
 21
123.852
  0
LINE
  8
0
 10
136.391
 20
123.852
 11
136.512
 21
123.802
  0
LINE
  8
0
 10
136.512
 20
123.802
 11
136.628
 21
123.742
  0
LINE
  8
0
 10
136.628
 20
123.742
 11
136.739
 21
123.672
  0
LINE
  8
0
 10
136.739
 20
123.672
 11
136.843
 21
123.592
  0
LINE
  8
0
 10
136.843
 20
123.592
 11
136.939
 21
123.504
  0
LINE
  8
0
 10
136.939
 20
123.504
 11
137.028
 21
123.407
  0
LINE
  8
0
 10
137.028
 20
123.407
 11
137.107
 21
123.303
  0
LINE
  8
0
 10
137.107
 20
123.303
 11
137.177
 21
123.193
  0
LINE
  8
0
 10
137.177
 20
123.193
 11
137.238
 21
123.077
  0
LINE
  8
0
 10
137.238
 20
123.077
 11
137.288
 21
122.956
  0
LINE
  8
0
 10
137.288
 20
122.956
 11
137.327
 21
122.831
  0
LINE
  8
0
 10
137.327
 20
122.831
 11
137.356
 21
122.703
  0
LINE
  8
0
 10
137.356
 20
122.703
 11
137.373
 21
122.574
  0
LINE
  8
0
 10
137.373
 20
122.574
 11
137.378
 21
122.443
  0
LINE
  8
0
 10
137.378
 20
122.443
 11
137.373
 21
122.312
  0
LINE
  8
0
 10
137.373
 20
122.312
 11
137.356
 21
122.182
  0
LINE
  8
0
 10
137.356
 20
122.182
 11
137.327
 21
122.055
  0
LINE
  8
0
 10
137.327
 20
122.055
 11
137.288
 21
121.93
  0
LINE
  8
0
 10
137.288
 20
121.93
 11
137.238
 21
121.809
  0
LINE
  8
0
 10
137.238
 20
121.809
 11
137.177
 21
121.693
  0
LINE
  8
0
 10
137.177
 20
121.693
 11
137.107
 21
121.582
  0
LINE
  8
0
 10
137.107
 20
121.582
 11
137.028
 21
121.479
  0
LINE
  8
0
 10
137.028
 20
121.479
 11
136.939
 21
121.382
  0
LINE
  8
0
 10
136.939
 20
121.382
 11
136.843
 21
121.294
  0
LINE
  8
0
 10
136.843
 20
121.294
 11
136.739
 21
121.214
  0
LINE
  8
0
 10
136.739
 20
121.214
 11
136.628
 21
121.144
  0
LINE
  8
0
 10
136.628
 20
121.144
 11
136.512
 21
121.083
  0
LINE
  8
0
 10
136.512
 20
121.083
 11
136.391
 21
121.033
  0
LINE
  8
0
 10
136.391
 20
121.033
 11
136.267
 21
120.994
  0
LINE
  8
0
 10
136.267
 20
120.994
 11
136.139
 21
120.966
  0
LINE
  8
0
 10
136.139
 20
120.966
 11
136.009
 21
120.949
  0
LINE
  8
0
 10
136.009
 20
120.949
 11
135.878
 21
120.943
  0
LINE
  8
0
 10
135.878
 20
120.943
 11
135.748
 21
120.949
  0
LINE
  8
0
 10
12.4246
 20
91.7073
 11
12.1513
 21
91.7432
  0
LINE
  8
0
 10
12.1513
 20
91.7432
 11
11.8821
 21
91.8029
  0
LINE
  8
0
 10
11.8821
 20
91.8029
 11
11.6192
 21
91.8858
  0
LINE
  8
0
 10
11.6192
 20
91.8858
 11
11.3645
 21
91.9913
  0
LINE
  8
0
 10
11.3645
 20
91.9913
 11
11.12
 21
92.1186
  0
LINE
  8
0
 10
11.12
 20
92.1186
 11
10.8875
 21
92.2667
  0
LINE
  8
0
 10
10.8875
 20
92.2667
 11
10.6688
 21
92.4345
  0
LINE
  8
0
 10
10.6688
 20
92.4345
 11
10.4655
 21
92.6208
  0
LINE
  8
0
 10
10.4655
 20
92.6208
 11
10.2793
 21
92.824
  0
LINE
  8
0
 10
10.2793
 20
92.824
 11
10.1115
 21
93.0427
  0
LINE
  8
0
 10
10.1115
 20
93.0427
 11
9.96335
 21
93.2752
  0
LINE
  8
0
 10
9.96335
 20
93.2752
 11
9.83606
 21
93.5198
  0
LINE
  8
0
 10
9.83606
 20
93.5198
 11
9.73056
 21
93.7745
  0
LINE
  8
0
 10
9.73056
 20
93.7745
 11
9.64767
 21
94.0374
  0
LINE
  8
0
 10
9.64767
 20
94.0374
 11
9.588
 21
94.3065
  0
LINE
  8
0
 10
9.588
 20
94.3065
 11
9.55202
 21
94.5798
  0
LINE
  8
0
 10
9.55202
 20
94.5798
 11
9.53999
 21
94.8552
  0
LINE
  8
0
 10
9.53999
 20
94.8552
 11
9.55202
 21
95.1306
  0
LINE
  8
0
 10
9.55202
 20
95.1306
 11
9.588
 21
95.404
  0
LINE
  8
0
 10
9.588
 20
95.404
 11
9.64767
 21
95.6731
  0
LINE
  8
0
 10
9.64767
 20
95.6731
 11
9.73056
 21
95.936
  0
LINE
  8
0
 10
9.73056
 20
95.936
 11
9.83606
 21
96.1907
  0
LINE
  8
0
 10
9.83606
 20
96.1907
 11
9.96335
 21
96.4352
  0
LINE
  8
0
 10
9.96335
 20
96.4352
 11
10.1115
 21
96.6677
  0
LINE
  8
0
 10
10.1115
 20
96.6677
 11
10.2793
 21
96.8864
  0
LINE
  8
0
 10
10.2793
 20
96.8864
 11
10.4655
 21
97.0897
  0
LINE
  8
0
 10
10.4655
 20
97.0897
 11
10.6688
 21
97.2759
  0
LINE
  8
0
 10
10.6688
 20
97.2759
 11
10.8875
 21
97.4438
  0
LINE
  8
0
 10
10.8875
 20
97.4438
 11
11.12
 21
97.5919
  0
LINE
  8
0
 10
11.12
 20
97.5919
 11
11.3645
 21
97.7192
  0
LINE
  8
0
 10
11.3645
 20
97.7192
 11
11.6192
 21
97.8247
  0
LINE
  8
0
 10
11.6192
 20
97.8247
 11
11.8821
 21
97.9076
  0
LINE
  8
0
 10
11.8821
 20
97.9076
 11
12.1513
 21
97.9672
  0
LINE
  8
0
 10
12.1513
 20
97.9672
 11
12.4246
 21
98.0032
  0
LINE
  8
0
 10
12.4246
 20
98.0032
 11
12.7
 21
98.0152
  0
LINE
  8
0
 10
12.7
 20
98.0152
 11
12.9754
 21
98.0032
  0
LINE
  8
0
 10
12.9754
 20
98.0032
 11
13.2487
 21
97.9672
  0
LINE
  8
0
 10
13.2487
 20
97.9672
 11
13.5179
 21
97.9076
  0
LINE
  8
0
 10
13.5179
 20
97.9076
 11
13.7808
 21
97.8247
  0
LINE
  8
0
 10
13.7808
 20
97.8247
 11
14.0355
 21
97.7192
  0
LINE
  8
0
 10
14.0355
 20
97.7192
 11
14.28
 21
97.5919
  0
LINE
  8
0
 10
14.28
 20
97.5919
 11
14.5125
 21
97.4438
  0
LINE
  8
0
 10
14.5125
 20
97.4438
 11
14.7312
 21
97.2759
  0
LINE
  8
0
 10
14.7312
 20
97.2759
 11
14.9344
 21
97.0897
  0
LINE
  8
0
 10
14.9344
 20
97.0897
 11
15.1207
 21
96.8864
  0
LINE
  8
0
 10
15.1207
 20
96.8864
 11
15.2885
 21
96.6677
  0
LINE
  8
0
 10
15.2885
 20
96.6677
 11
15.4366
 21
96.4352
  0
LINE
  8
0
 10
15.4366
 20
96.4352
 11
15.5639
 21
96.1907
  0
LINE
  8
0
 10
15.5639
 20
96.1907
 11
15.6694
 21
95.936
  0
LINE
  8
0
 10
15.6694
 20
95.936
 11
15.7523
 21
95.6731
  0
LINE
  8
0
 10
15.7523
 20
95.6731
 11
15.812
 21
95.404
  0
LINE
  8
0
 10
15.812
 20
95.404
 11
15.848
 21
95.1306
  0
LINE
  8
0
 10
15.848
 20
95.1306
 11
15.86
 21
94.8552
  0
LINE
  8
0
 10
15.86
 20
94.8552
 11
15.848
 21
94.5798
  0
LINE
  8
0
 10
15.848
 20
94.5798
 11
15.812
 21
94.3065
  0
LINE
  8
0
 10
15.812
 20
94.3065
 11
15.7523
 21
94.0374
  0
LINE
  8
0
 10
15.7523
 20
94.0374
 11
15.6694
 21
93.7745
  0
LINE
  8
0
 10
15.6694
 20
93.7745
 11
15.5639
 21
93.5198
  0
LINE
  8
0
 10
15.5639
 20
93.5198
 11
15.4366
 21
93.2752
  0
LINE
  8
0
 10
15.4366
 20
93.2752
 11
15.2885
 21
93.0427
  0
LINE
  8
0
 10
15.2885
 20
93.0427
 11
15.1207
 21
92.824
  0
LINE
  8
0
 10
15.1207
 20
92.824
 11
14.9344
 21
92.6208
  0
LINE
  8
0
 10
14.9344
 20
92.6208
 11
14.7312
 21
92.4345
  0
LINE
  8
0
 10
14.7312
 20
92.4345
 11
14.5125
 21
92.2667
  0
LINE
  8
0
 10
14.5125
 20
92.2667
 11
14.28
 21
92.1186
  0
LINE
  8
0
 10
14.28
 20
92.1186
 11
14.0355
 21
91.9913
  0
LINE
  8
0
 10
14.0355
 20
91.9913
 11
13.7808
 21
91.8858
  0
LINE
  8
0
 10
13.7808
 20
91.8858
 11
13.5179
 21
91.8029
  0
LINE
  8
0
 10
13.5179
 20
91.8029
 11
13.2487
 21
91.7432
  0
LINE
  8
0
 10
13.2487
 20
91.7432
 11
12.9754
 21
91.7073
  0
LINE
  8
0
 10
12.9754
 20
91.7073
 11
12.7
 21
91.6952
  0
LINE
  8
0
 10
12.7
 20
91.6952
 11
12.4246
 21
91.7073
  0
LINE
  8
0
 10
227.781
 20
91.7073
 11
227.508
 21
91.7432
  0
LINE
  8
0
 10
227.508
 20
91.7432
 11
227.239
 21
91.8029
  0
LINE
  8
0
 10
227.239
 20
91.8029
 11
226.976
 21
91.8858
  0
LINE
  8
0
 10
226.976
 20
91.8858
 11
226.721
 21
91.9913
  0
LINE
  8
0
 10
226.721
 20
91.9913
 11
226.477
 21
92.1186
  0
LINE
  8
0
 10
226.477
 20
92.1186
 11
226.244
 21
92.2667
  0
LINE
  8
0
 10
226.244
 20
92.2667
 11
226.026
 21
92.4345
  0
LINE
  8
0
 10
226.026
 20
92.4345
 11
225.822
 21
92.6208
  0
LINE
  8
0
 10
225.822
 20
92.6208
 11
225.636
 21
92.824
  0
LINE
  8
0
 10
225.636
 20
92.824
 11
225.468
 21
93.0427
  0
LINE
  8
0
 10
225.468
 20
93.0427
 11
225.32
 21
93.2752
  0
LINE
  8
0
 10
225.32
 20
93.2752
 11
225.193
 21
93.5198
  0
LINE
  8
0
 10
225.193
 20
93.5198
 11
225.087
 21
93.7745
  0
LINE
  8
0
 10
225.087
 20
93.7745
 11
225.005
 21
94.0374
  0
LINE
  8
0
 10
225.005
 20
94.0374
 11
224.945
 21
94.3065
  0
LINE
  8
0
 10
224.945
 20
94.3065
 11
224.909
 21
94.5798
  0
LINE
  8
0
 10
224.909
 20
94.5798
 11
224.897
 21
94.8552
  0
LINE
  8
0
 10
224.897
 20
94.8552
 11
224.909
 21
95.1306
  0
LINE
  8
0
 10
224.909
 20
95.1306
 11
224.945
 21
95.404
  0
LINE
  8
0
 10
224.945
 20
95.404
 11
225.005
 21
95.6731
  0
LINE
  8
0
 10
225.005
 20
95.6731
 11
225.087
 21
95.936
  0
LINE
  8
0
 10
225.087
 20
95.936
 11
225.193
 21
96.1907
  0
LINE
  8
0
 10
225.193
 20
96.1907
 11
225.32
 21
96.4352
  0
LINE
  8
0
 10
225.32
 20
96.4352
 11
225.468
 21
96.6677
  0
LINE
  8
0
 10
225.468
 20
96.6677
 11
225.636
 21
96.8864
  0
LINE
  8
0
 10
225.636
 20
96.8864
 11
225.822
 21
97.0897
  0
LINE
  8
0
 10
225.822
 20
97.0897
 11
226.026
 21
97.2759
  0
LINE
  8
0
 10
226.026
 20
97.2759
 11
226.244
 21
97.4438
  0
LINE
  8
0
 10
226.244
 20
97.4438
 11
226.477
 21
97.5919
  0
LINE
  8
0
 10
226.477
 20
97.5919
 11
226.721
 21
97.7192
  0
LINE
  8
0
 10
226.721
 20
97.7192
 11
226.976
 21
97.8247
  0
LINE
  8
0
 10
226.976
 20
97.8247
 11
227.239
 21
97.9076
  0
LINE
  8
0
 10
227.239
 20
97.9076
 11
227.508
 21
97.9672
  0
LINE
  8
0
 10
227.508
 20
97.9672
 11
227.781
 21
98.0032
  0
LINE
  8
0
 10
227.781
 20
98.0032
 11
228.057
 21
98.0152
  0
LINE
  8
0
 10
228.057
 20
98.0152
 11
228.332
 21
98.0032
  0
LINE
  8
0
 10
228.332
 20
98.0032
 11
228.606
 21
97.9672
  0
LINE
  8
0
 10
228.606
 20
97.9672
 11
228.875
 21
97.9076
  0
LINE
  8
0
 10
228.875
 20
97.9076
 11
229.138
 21
97.8247
  0
LINE
  8
0
 10
229.138
 20
97.8247
 11
229.392
 21
97.7192
  0
LINE
  8
0
 10
229.392
 20
97.7192
 11
229.637
 21
97.5919
  0
LINE
  8
0
 10
229.637
 20
97.5919
 11
229.869
 21
97.4438
  0
LINE
  8
0
 10
229.869
 20
97.4438
 11
230.088
 21
97.2759
  0
LINE
  8
0
 10
230.088
 20
97.2759
 11
230.291
 21
97.0897
  0
LINE
  8
0
 10
230.291
 20
97.0897
 11
230.478
 21
96.8864
  0
LINE
  8
0
 10
230.478
 20
96.8864
 11
230.645
 21
96.6677
  0
LINE
  8
0
 10
230.645
 20
96.6677
 11
230.794
 21
96.4352
  0
LINE
  8
0
 10
230.794
 20
96.4352
 11
230.921
 21
96.1907
  0
LINE
  8
0
 10
230.921
 20
96.1907
 11
231.026
 21
95.936
  0
LINE
  8
0
 10
231.026
 20
95.936
 11
231.109
 21
95.6731
  0
LINE
  8
0
 10
231.109
 20
95.6731
 11
231.169
 21
95.404
  0
LINE
  8
0
 10
231.169
 20
95.404
 11
231.205
 21
95.1306
  0
LINE
  8
0
 10
231.205
 20
95.1306
 11
231.217
 21
94.8552
  0
LINE
  8
0
 10
231.217
 20
94.8552
 11
231.205
 21
94.5798
  0
LINE
  8
0
 10
231.205
 20
94.5798
 11
231.169
 21
94.3065
  0
LINE
  8
0
 10
231.169
 20
94.3065
 11
231.109
 21
94.0374
  0
LINE
  8
0
 10
231.109
 20
94.0374
 11
231.026
 21
93.7745
  0
LINE
  8
0
 10
231.026
 20
93.7745
 11
230.921
 21
93.5198
  0
LINE
  8
0
 10
230.921
 20
93.5198
 11
230.794
 21
93.2752
  0
LINE
  8
0
 10
230.794
 20
93.2752
 11
230.645
 21
93.0427
  0
LINE
  8
0
 10
230.645
 20
93.0427
 11
230.478
 21
92.824
  0
LINE
  8
0
 10
230.478
 20
92.824
 11
230.291
 21
92.6208
  0
LINE
  8
0
 10
230.291
 20
92.6208
 11
230.088
 21
92.4345
  0
LINE
  8
0
 10
230.088
 20
92.4345
 11
229.869
 21
92.2667
  0
LINE
  8
0
 10
229.869
 20
92.2667
 11
229.637
 21
92.1186
  0
LINE
  8
0
 10
229.637
 20
92.1186
 11
229.392
 21
91.9913
  0
LINE
  8
0
 10
229.392
 20
91.9913
 11
229.138
 21
91.8858
  0
LINE
  8
0
 10
229.138
 20
91.8858
 11
228.875
 21
91.8029
  0
LINE
  8
0
 10
228.875
 20
91.8029
 11
228.606
 21
91.7432
  0
LINE
  8
0
 10
228.606
 20
91.7432
 11
228.332
 21
91.7073
  0
LINE
  8
0
 10
228.332
 20
91.7073
 11
228.057
 21
91.6952
  0
LINE
  8
0
 10
228.057
 20
91.6952
 11
227.781
 21
91.7073
  0
LINE
  8
0
 10
213.358
 20
91.6164
 11
213.101
 21
91.6618
  0
LINE
  8
0
 10
213.101
 20
91.6618
 11
212.855
 21
91.7513
  0
LINE
  8
0
 10
212.855
 20
91.7513
 11
212.629
 21
91.882
  0
LINE
  8
0
 10
212.629
 20
91.882
 11
212.429
 21
92.0501
  0
LINE
  8
0
 10
212.429
 20
92.0501
 11
212.26
 21
92.2504
  0
LINE
  8
0
 10
212.26
 20
92.2504
 11
212.13
 21
92.4768
  0
LINE
  8
0
 10
212.13
 20
92.4768
 11
212.04
 21
92.7225
  0
LINE
  8
0
 10
212.04
 20
92.7225
 11
211.995
 21
92.98
  0
LINE
  8
0
 10
211.995
 20
92.98
 11
211.995
 21
93.2415
  0
LINE
  8
0
 10
211.995
 20
93.2415
 11
212.04
 21
93.4989
  0
LINE
  8
0
 10
212.04
 20
93.4989
 11
212.13
 21
93.7446
  0
LINE
  8
0
 10
212.13
 20
93.7446
 11
212.26
 21
93.9711
  0
LINE
  8
0
 10
212.26
 20
93.9711
 11
212.429
 21
94.1714
  0
LINE
  8
0
 10
212.429
 20
94.1714
 11
212.629
 21
94.3394
  0
LINE
  8
0
 10
212.629
 20
94.3394
 11
212.855
 21
94.4702
  0
LINE
  8
0
 10
212.855
 20
94.4702
 11
213.101
 21
94.5596
  0
LINE
  8
0
 10
213.101
 20
94.5596
 11
213.358
 21
94.605
  0
LINE
  8
0
 10
213.358
 20
94.605
 11
213.62
 21
94.605
  0
LINE
  8
0
 10
213.62
 20
94.605
 11
213.877
 21
94.5596
  0
LINE
  8
0
 10
213.877
 20
94.5596
 11
214.123
 21
94.4702
  0
LINE
  8
0
 10
214.123
 20
94.4702
 11
214.35
 21
94.3394
  0
LINE
  8
0
 10
214.35
 20
94.3394
 11
214.55
 21
94.1714
  0
LINE
  8
0
 10
214.55
 20
94.1714
 11
214.718
 21
93.9711
  0
LINE
  8
0
 10
214.718
 20
93.9711
 11
214.849
 21
93.7446
  0
LINE
  8
0
 10
214.849
 20
93.7446
 11
214.938
 21
93.4989
  0
LINE
  8
0
 10
214.938
 20
93.4989
 11
214.983
 21
93.2415
  0
LINE
  8
0
 10
214.983
 20
93.2415
 11
214.983
 21
92.98
  0
LINE
  8
0
 10
214.983
 20
92.98
 11
214.938
 21
92.7225
  0
LINE
  8
0
 10
214.938
 20
92.7225
 11
214.849
 21
92.4768
  0
LINE
  8
0
 10
214.849
 20
92.4768
 11
214.718
 21
92.2504
  0
LINE
  8
0
 10
214.718
 20
92.2504
 11
214.55
 21
92.0501
  0
LINE
  8
0
 10
214.55
 20
92.0501
 11
214.35
 21
91.882
  0
LINE
  8
0
 10
214.35
 20
91.882
 11
214.123
 21
91.7513
  0
LINE
  8
0
 10
214.123
 20
91.7513
 11
213.877
 21
91.6618
  0
LINE
  8
0
 10
213.877
 20
91.6618
 11
213.62
 21
91.6164
  0
LINE
  8
0
 10
213.62
 20
91.6164
 11
213.358
 21
91.6164
  0
LINE
  8
0
 10
27.137
 20
91.6164
 11
26.8795
 21
91.6618
  0
LINE
  8
0
 10
26.8795
 20
91.6618
 11
26.6338
 21
91.7513
  0
LINE
  8
0
 10
26.6338
 20
91.7513
 11
26.4073
 21
91.882
  0
LINE
  8
0
 10
26.4073
 20
91.882
 11
26.2071
 21
92.0501
  0
LINE
  8
0
 10
26.2071
 20
92.0501
 11
26.039
 21
92.2504
  0
LINE
  8
0
 10
26.039
 20
92.2504
 11
25.9082
 21
92.4768
  0
LINE
  8
0
 10
25.9082
 20
92.4768
 11
25.8188
 21
92.7225
  0
LINE
  8
0
 10
25.8188
 20
92.7225
 11
25.7734
 21
92.98
  0
LINE
  8
0
 10
25.7734
 20
92.98
 11
25.7734
 21
93.2415
  0
LINE
  8
0
 10
25.7734
 20
93.2415
 11
25.8188
 21
93.4989
  0
LINE
  8
0
 10
25.8188
 20
93.4989
 11
25.9082
 21
93.7446
  0
LINE
  8
0
 10
25.9082
 20
93.7446
 11
26.039
 21
93.9711
  0
LINE
  8
0
 10
26.039
 20
93.9711
 11
26.2071
 21
94.1714
  0
LINE
  8
0
 10
26.2071
 20
94.1714
 11
26.4073
 21
94.3394
  0
LINE
  8
0
 10
26.4073
 20
94.3394
 11
26.6338
 21
94.4702
  0
LINE
  8
0
 10
26.6338
 20
94.4702
 11
26.8795
 21
94.5596
  0
LINE
  8
0
 10
26.8795
 20
94.5596
 11
27.137
 21
94.605
  0
LINE
  8
0
 10
27.137
 20
94.605
 11
27.3985
 21
94.605
  0
LINE
  8
0
 10
27.3985
 20
94.605
 11
27.6559
 21
94.5596
  0
LINE
  8
0
 10
27.6559
 20
94.5596
 11
27.9016
 21
94.4702
  0
LINE
  8
0
 10
27.9016
 20
94.4702
 11
28.1281
 21
94.3394
  0
LINE
  8
0
 10
28.1281
 20
94.3394
 11
28.3284
 21
94.1714
  0
LINE
  8
0
 10
28.3284
 20
94.1714
 11
28.4964
 21
93.9711
  0
LINE
  8
0
 10
28.4964
 20
93.9711
 11
28.6272
 21
93.7446
  0
LINE
  8
0
 10
28.6272
 20
93.7446
 11
28.7166
 21
93.4989
  0
LINE
  8
0
 10
28.7166
 20
93.4989
 11
28.762
 21
93.2415
  0
LINE
  8
0
 10
28.762
 20
93.2415
 11
28.762
 21
92.98
  0
LINE
  8
0
 10
28.762
 20
92.98
 11
28.7166
 21
92.7225
  0
LINE
  8
0
 10
28.7166
 20
92.7225
 11
28.6272
 21
92.4768
  0
LINE
  8
0
 10
28.6272
 20
92.4768
 11
28.4964
 21
92.2504
  0
LINE
  8
0
 10
28.4964
 20
92.2504
 11
28.3284
 21
92.0501
  0
LINE
  8
0
 10
28.3284
 20
92.0501
 11
28.1281
 21
91.882
  0
LINE
  8
0
 10
28.1281
 20
91.882
 11
27.9016
 21
91.7513
  0
LINE
  8
0
 10
27.9016
 20
91.7513
 11
27.6559
 21
91.6618
  0
LINE
  8
0
 10
27.6559
 20
91.6618
 11
27.3985
 21
91.6164
  0
LINE
  8
0
 10
27.3985
 20
91.6164
 11
27.137
 21
91.6164
  0
LINE
  8
0
 10
40.2185
 20
84.8989
 11
39.961
 21
84.9443
  0
LINE
  8
0
 10
39.961
 20
84.9443
 11
39.7153
 21
85.0337
  0
LINE
  8
0
 10
39.7153
 20
85.0337
 11
39.4888
 21
85.1645
  0
LINE
  8
0
 10
39.4888
 20
85.1645
 11
39.2885
 21
85.3326
  0
LINE
  8
0
 10
39.2885
 20
85.3326
 11
39.1205
 21
85.5328
  0
LINE
  8
0
 10
39.1205
 20
85.5328
 11
38.9897
 21
85.7593
  0
LINE
  8
0
 10
38.9897
 20
85.7593
 11
38.9003
 21
86.005
  0
LINE
  8
0
 10
38.9003
 20
86.005
 11
38.8549
 21
86.2625
  0
LINE
  8
0
 10
38.8549
 20
86.2625
 11
38.8549
 21
86.5239
  0
LINE
  8
0
 10
38.8549
 20
86.5239
 11
38.9003
 21
86.7814
  0
LINE
  8
0
 10
38.9003
 20
86.7814
 11
38.9897
 21
87.0271
  0
LINE
  8
0
 10
38.9897
 20
87.0271
 11
39.1205
 21
87.2536
  0
LINE
  8
0
 10
39.1205
 20
87.2536
 11
39.2885
 21
87.4539
  0
LINE
  8
0
 10
39.2885
 20
87.4539
 11
39.4888
 21
87.6219
  0
LINE
  8
0
 10
39.4888
 20
87.6219
 11
39.7153
 21
87.7527
  0
LINE
  8
0
 10
39.7153
 20
87.7527
 11
39.961
 21
87.8421
  0
LINE
  8
0
 10
39.961
 20
87.8421
 11
40.2185
 21
87.8875
  0
LINE
  8
0
 10
40.2185
 20
87.8875
 11
40.4799
 21
87.8875
  0
LINE
  8
0
 10
40.4799
 20
87.8875
 11
40.7374
 21
87.8421
  0
LINE
  8
0
 10
40.7374
 20
87.8421
 11
40.9831
 21
87.7527
  0
LINE
  8
0
 10
40.9831
 20
87.7527
 11
41.2096
 21
87.6219
  0
LINE
  8
0
 10
41.2096
 20
87.6219
 11
41.4099
 21
87.4539
  0
LINE
  8
0
 10
41.4099
 20
87.4539
 11
41.5779
 21
87.2536
  0
LINE
  8
0
 10
41.5779
 20
87.2536
 11
41.7086
 21
87.0271
  0
LINE
  8
0
 10
41.7086
 20
87.0271
 11
41.7981
 21
86.7814
  0
LINE
  8
0
 10
41.7981
 20
86.7814
 11
41.8435
 21
86.5239
  0
LINE
  8
0
 10
41.8435
 20
86.5239
 11
41.8435
 21
86.2625
  0
LINE
  8
0
 10
41.8435
 20
86.2625
 11
41.7981
 21
86.005
  0
LINE
  8
0
 10
41.7981
 20
86.005
 11
41.7086
 21
85.7593
  0
LINE
  8
0
 10
41.7086
 20
85.7593
 11
41.5779
 21
85.5328
  0
LINE
  8
0
 10
41.5779
 20
85.5328
 11
41.4099
 21
85.3326
  0
LINE
  8
0
 10
41.4099
 20
85.3326
 11
41.2096
 21
85.1645
  0
LINE
  8
0
 10
41.2096
 20
85.1645
 11
40.9831
 21
85.0337
  0
LINE
  8
0
 10
40.9831
 20
85.0337
 11
40.7374
 21
84.9443
  0
LINE
  8
0
 10
40.7374
 20
84.9443
 11
40.4799
 21
84.8989
  0
LINE
  8
0
 10
40.4799
 20
84.8989
 11
40.2185
 21
84.8989
  0
LINE
  8
0
 10
200.277
 20
84.8989
 11
200.019
 21
84.9443
  0
LINE
  8
0
 10
200.019
 20
84.9443
 11
199.774
 21
85.0337
  0
LINE
  8
0
 10
199.774
 20
85.0337
 11
199.547
 21
85.1645
  0
LINE
  8
0
 10
199.547
 20
85.1645
 11
199.347
 21
85.3326
  0
LINE
  8
0
 10
199.347
 20
85.3326
 11
199.179
 21
85.5328
  0
LINE
  8
0
 10
199.179
 20
85.5328
 11
199.048
 21
85.7593
  0
LINE
  8
0
 10
199.048
 20
85.7593
 11
198.959
 21
86.005
  0
LINE
  8
0
 10
198.959
 20
86.005
 11
198.913
 21
86.2625
  0
LINE
  8
0
 10
198.913
 20
86.2625
 11
198.913
 21
86.5239
  0
LINE
  8
0
 10
198.913
 20
86.5239
 11
198.959
 21
86.7814
  0
LINE
  8
0
 10
198.959
 20
86.7814
 11
199.048
 21
87.0271
  0
LINE
  8
0
 10
199.048
 20
87.0271
 11
199.179
 21
87.2536
  0
LINE
  8
0
 10
199.179
 20
87.2536
 11
199.347
 21
87.4539
  0
LINE
  8
0
 10
199.347
 20
87.4539
 11
199.547
 21
87.6219
  0
LINE
  8
0
 10
199.547
 20
87.6219
 11
199.774
 21
87.7527
  0
LINE
  8
0
 10
199.774
 20
87.7527
 11
200.019
 21
87.8421
  0
LINE
  8
0
 10
200.019
 20
87.8421
 11
200.277
 21
87.8875
  0
LINE
  8
0
 10
200.277
 20
87.8875
 11
200.538
 21
87.8875
  0
LINE
  8
0
 10
200.538
 20
87.8875
 11
200.796
 21
87.8421
  0
LINE
  8
0
 10
200.796
 20
87.8421
 11
201.042
 21
87.7527
  0
LINE
  8
0
 10
201.042
 20
87.7527
 11
201.268
 21
87.6219
  0
LINE
  8
0
 10
201.268
 20
87.6219
 11
201.468
 21
87.4539
  0
LINE
  8
0
 10
201.468
 20
87.4539
 11
201.636
 21
87.2536
  0
LINE
  8
0
 10
201.636
 20
87.2536
 11
201.767
 21
87.0271
  0
LINE
  8
0
 10
201.767
 20
87.0271
 11
201.857
 21
86.7814
  0
LINE
  8
0
 10
201.857
 20
86.7814
 11
201.902
 21
86.5239
  0
LINE
  8
0
 10
201.902
 20
86.5239
 11
201.902
 21
86.2625
  0
LINE
  8
0
 10
201.902
 20
86.2625
 11
201.857
 21
86.005
  0
LINE
  8
0
 10
201.857
 20
86.005
 11
201.767
 21
85.7593
  0
LINE
  8
0
 10
201.767
 20
85.7593
 11
201.636
 21
85.5328
  0
LINE
  8
0
 10
201.636
 20
85.5328
 11
201.468
 21
85.3326
  0
LINE
  8
0
 10
201.468
 20
85.3326
 11
201.268
 21
85.1645
  0
LINE
  8
0
 10
201.268
 20
85.1645
 11
201.042
 21
85.0337
  0
LINE
  8
0
 10
201.042
 20
85.0337
 11
200.796
 21
84.9443
  0
LINE
  8
0
 10
200.796
 20
84.9443
 11
200.538
 21
84.8989
  0
LINE
  8
0
 10
200.538
 20
84.8989
 11
200.277
 21
84.8989
  0
LINE
  8
0
 10
33.8545
 20
78.5349
 11
33.597
 21
78.5804
  0
LINE
  8
0
 10
33.597
 20
78.5804
 11
33.3513
 21
78.6698
  0
LINE
  8
0
 10
33.3513
 20
78.6698
 11
33.1249
 21
78.8005
  0
LINE
  8
0
 10
33.1249
 20
78.8005
 11
32.9246
 21
78.9686
  0
LINE
  8
0
 10
32.9246
 20
78.9686
 11
32.7565
 21
79.1689
  0
LINE
  8
0
 10
32.7565
 20
79.1689
 11
32.6258
 21
79.3953
  0
LINE
  8
0
 10
32.6258
 20
79.3953
 11
32.5363
 21
79.641
  0
LINE
  8
0
 10
32.5363
 20
79.641
 11
32.4909
 21
79.8985
  0
LINE
  8
0
 10
32.4909
 20
79.8985
 11
32.4909
 21
80.16
  0
LINE
  8
0
 10
32.4909
 20
80.16
 11
32.5363
 21
80.4175
  0
LINE
  8
0
 10
32.5363
 20
80.4175
 11
32.6258
 21
80.6632
  0
LINE
  8
0
 10
32.6258
 20
80.6632
 11
32.7565
 21
80.8896
  0
LINE
  8
0
 10
32.7565
 20
80.8896
 11
32.9246
 21
81.0899
  0
LINE
  8
0
 10
32.9246
 20
81.0899
 11
33.1249
 21
81.258
  0
LINE
  8
0
 10
33.1249
 20
81.258
 11
33.3513
 21
81.3887
  0
LINE
  8
0
 10
33.3513
 20
81.3887
 11
33.597
 21
81.4781
  0
LINE
  8
0
 10
33.597
 20
81.4781
 11
33.8545
 21
81.5235
  0
LINE
  8
0
 10
33.8545
 20
81.5235
 11
34.116
 21
81.5235
  0
LINE
  8
0
 10
34.116
 20
81.5235
 11
34.3735
 21
81.4781
  0
LINE
  8
0
 10
34.3735
 20
81.4781
 11
34.6192
 21
81.3887
  0
LINE
  8
0
 10
34.6192
 20
81.3887
 11
34.8456
 21
81.258
  0
LINE
  8
0
 10
34.8456
 20
81.258
 11
35.0459
 21
81.0899
  0
LINE
  8
0
 10
35.0459
 20
81.0899
 11
35.214
 21
80.8896
  0
LINE
  8
0
 10
35.214
 20
80.8896
 11
35.3447
 21
80.6632
  0
LINE
  8
0
 10
35.3447
 20
80.6632
 11
35.4341
 21
80.4175
  0
LINE
  8
0
 10
35.4341
 20
80.4175
 11
35.4795
 21
80.16
  0
LINE
  8
0
 10
35.4795
 20
80.16
 11
35.4795
 21
79.8985
  0
LINE
  8
0
 10
35.4795
 20
79.8985
 11
35.4341
 21
79.641
  0
LINE
  8
0
 10
35.4341
 20
79.641
 11
35.3447
 21
79.3953
  0
LINE
  8
0
 10
35.3447
 20
79.3953
 11
35.214
 21
79.1689
  0
LINE
  8
0
 10
35.214
 20
79.1689
 11
35.0459
 21
78.9686
  0
LINE
  8
0
 10
35.0459
 20
78.9686
 11
34.8456
 21
78.8005
  0
LINE
  8
0
 10
34.8456
 20
78.8005
 11
34.6192
 21
78.6698
  0
LINE
  8
0
 10
34.6192
 20
78.6698
 11
34.3735
 21
78.5804
  0
LINE
  8
0
 10
34.3735
 20
78.5804
 11
34.116
 21
78.5349
  0
LINE
  8
0
 10
34.116
 20
78.5349
 11
33.8545
 21
78.5349
  0
LINE
  8
0
 10
206.641
 20
78.535
 11
206.383
 21
78.5804
  0
LINE
  8
0
 10
206.383
 20
78.5804
 11
206.138
 21
78.6698
  0
LINE
  8
0
 10
206.138
 20
78.6698
 11
205.911
 21
78.8005
  0
LINE
  8
0
 10
205.911
 20
78.8005
 11
205.711
 21
78.9686
  0
LINE
  8
0
 10
205.711
 20
78.9686
 11
205.543
 21
79.1689
  0
LINE
  8
0
 10
205.543
 20
79.1689
 11
205.412
 21
79.3953
  0
LINE
  8
0
 10
205.412
 20
79.3953
 11
205.323
 21
79.641
  0
LINE
  8
0
 10
205.323
 20
79.641
 11
205.277
 21
79.8985
  0
LINE
  8
0
 10
205.277
 20
79.8985
 11
205.277
 21
80.16
  0
LINE
  8
0
 10
205.277
 20
80.16
 11
205.323
 21
80.4175
  0
LINE
  8
0
 10
205.323
 20
80.4175
 11
205.412
 21
80.6632
  0
LINE
  8
0
 10
205.412
 20
80.6632
 11
205.543
 21
80.8896
  0
LINE
  8
0
 10
205.543
 20
80.8896
 11
205.711
 21
81.0899
  0
LINE
  8
0
 10
205.711
 20
81.0899
 11
205.911
 21
81.258
  0
LINE
  8
0
 10
205.911
 20
81.258
 11
206.138
 21
81.3887
  0
LINE
  8
0
 10
206.138
 20
81.3887
 11
206.383
 21
81.4781
  0
LINE
  8
0
 10
206.383
 20
81.4781
 11
206.641
 21
81.5235
  0
LINE
  8
0
 10
206.641
 20
81.5235
 11
206.902
 21
81.5235
  0
LINE
  8
0
 10
206.902
 20
81.5235
 11
207.16
 21
81.4781
  0
LINE
  8
0
 10
207.16
 20
81.4781
 11
207.406
 21
81.3887
  0
LINE
  8
0
 10
207.406
 20
81.3887
 11
207.632
 21
81.258
  0
LINE
  8
0
 10
207.632
 20
81.258
 11
207.832
 21
81.0899
  0
LINE
  8
0
 10
207.832
 20
81.0899
 11
208
 21
80.8896
  0
LINE
  8
0
 10
208
 20
80.8896
 11
208.131
 21
80.6632
  0
LINE
  8
0
 10
208.131
 20
80.6632
 11
208.221
 21
80.4175
  0
LINE
  8
0
 10
208.221
 20
80.4175
 11
208.266
 21
80.16
  0
LINE
  8
0
 10
208.266
 20
80.16
 11
208.266
 21
79.8985
  0
LINE
  8
0
 10
208.266
 20
79.8985
 11
208.221
 21
79.641
  0
LINE
  8
0
 10
208.221
 20
79.641
 11
208.131
 21
79.3953
  0
LINE
  8
0
 10
208.131
 20
79.3953
 11
208
 21
79.1689
  0
LINE
  8
0
 10
208
 20
79.1689
 11
207.832
 21
78.9686
  0
LINE
  8
0
 10
207.832
 20
78.9686
 11
207.632
 21
78.8005
  0
LINE
  8
0
 10
207.632
 20
78.8005
 11
207.406
 21
78.6698
  0
LINE
  8
0
 10
207.406
 20
78.6698
 11
207.16
 21
78.5804
  0
LINE
  8
0
 10
207.16
 20
78.5804
 11
206.902
 21
78.535
  0
LINE
  8
0
 10
206.902
 20
78.535
 11
206.641
 21
78.535
  0
LINE
  8
0
 10
145.592
 20
60.87
 11
145.152
 21
61.1499
  0
LINE
  8
0
 10
145.152
 20
61.1499
 11
144.835
 21
61.5632
  0
LINE
  8
0
 10
144.835
 20
61.5632
 11
144.678
 21
62.06
  0
LINE
  8
0
 10
144.678
 20
62.06
 11
144.701
 21
62.5804
  0
LINE
  8
0
 10
144.701
 20
62.5804
 11
144.901
 21
63.0617
  0
LINE
  8
0
 10
144.901
 20
63.0617
 11
145.253
 21
63.4458
  0
LINE
  8
0
 10
145.253
 20
63.4458
 11
145.715
 21
63.6864
  0
LINE
  8
0
 10
145.715
 20
63.6864
 11
146.231
 21
63.7544
  0
LINE
  8
0
 10
146.231
 20
63.7544
 11
146.74
 21
63.6416
  0
LINE
  8
0
 10
146.74
 20
63.6416
 11
147.179
 21
63.3617
  0
LINE
  8
0
 10
147.179
 20
63.3617
 11
147.496
 21
62.9484
  0
LINE
  8
0
 10
147.496
 20
62.9484
 11
147.653
 21
62.4516
  0
LINE
  8
0
 10
147.653
 20
62.4516
 11
147.63
 21
61.9311
  0
LINE
  8
0
 10
147.63
 20
61.9311
 11
147.431
 21
61.4498
  0
LINE
  8
0
 10
147.431
 20
61.4498
 11
147.079
 21
61.0658
  0
LINE
  8
0
 10
147.079
 20
61.0658
 11
146.617
 21
60.8252
  0
LINE
  8
0
 10
146.617
 20
60.8252
 11
146.1
 21
60.7572
  0
LINE
  8
0
 10
146.1
 20
60.7572
 11
145.592
 21
60.87
  0
LINE
  8
0
 10
94.1402
 20
60.8252
 11
93.6781
 21
61.0658
  0
LINE
  8
0
 10
93.6781
 20
61.0658
 11
93.3262
 21
61.4498
  0
LINE
  8
0
 10
93.3262
 20
61.4498
 11
93.1268
 21
61.9311
  0
LINE
  8
0
 10
93.1268
 20
61.9311
 11
93.1041
 21
62.4516
  0
LINE
  8
0
 10
93.1041
 20
62.4516
 11
93.2607
 21
62.9484
  0
LINE
  8
0
 10
93.2607
 20
62.9484
 11
93.5779
 21
63.3617
  0
LINE
  8
0
 10
93.5779
 20
63.3617
 11
94.0172
 21
63.6416
  0
LINE
  8
0
 10
94.0172
 20
63.6416
 11
94.5258
 21
63.7544
  0
LINE
  8
0
 10
94.5258
 20
63.7544
 11
95.0423
 21
63.6864
  0
LINE
  8
0
 10
95.0423
 20
63.6864
 11
95.5044
 21
63.4458
  0
LINE
  8
0
 10
95.5044
 20
63.4458
 11
95.8563
 21
63.0617
  0
LINE
  8
0
 10
95.8563
 20
63.0617
 11
96.0557
 21
62.5804
  0
LINE
  8
0
 10
96.0557
 20
62.5804
 11
96.0784
 21
62.06
  0
LINE
  8
0
 10
96.0784
 20
62.06
 11
95.9218
 21
61.5632
  0
LINE
  8
0
 10
95.9218
 20
61.5632
 11
95.6046
 21
61.1499
  0
LINE
  8
0
 10
95.6046
 20
61.1499
 11
95.1653
 21
60.87
  0
LINE
  8
0
 10
95.1653
 20
60.87
 11
94.6567
 21
60.7572
  0
LINE
  8
0
 10
94.6567
 20
60.7572
 11
94.1402
 21
60.8252
  0
LINE
  8
0
 10
115.397
 20
-56.9327
 11
110.454
 21
-56.2819
  0
LINE
  8
0
 10
110.454
 20
-56.2819
 11
105.587
 21
-55.2028
  0
LINE
  8
0
 10
105.587
 20
-55.2028
 11
100.832
 21
-53.7036
  0
LINE
  8
0
 10
100.832
 20
-53.7036
 11
96.2257
 21
-51.7957
  0
LINE
  8
0
 10
96.2257
 20
-51.7957
 11
91.8033
 21
-49.4935
  0
LINE
  8
0
 10
91.8033
 20
-49.4935
 11
87.5984
 21
-46.8147
  0
LINE
  8
0
 10
87.5984
 20
-46.8147
 11
83.643
 21
-43.7796
  0
LINE
  8
0
 10
83.643
 20
-43.7796
 11
79.9672
 21
-40.4113
  0
LINE
  8
0
 10
79.9672
 20
-40.4113
 11
76.5989
 21
-36.7354
  0
LINE
  8
0
 10
76.5989
 20
-36.7354
 11
73.5638
 21
-32.78
  0
LINE
  8
0
 10
73.5638
 20
-32.78
 11
70.8849
 21
-28.5751
  0
LINE
  8
0
 10
70.8849
 20
-28.5751
 11
68.5828
 21
-24.1527
  0
LINE
  8
0
 10
68.5828
 20
-24.1527
 11
66.6748
 21
-19.5465
  0
LINE
  8
0
 10
66.6748
 20
-19.5465
 11
65.1756
 21
-14.7915
  0
LINE
  8
0
 10
65.1756
 20
-14.7915
 11
64.0965
 21
-9.92401
  0
LINE
  8
0
 10
64.0965
 20
-9.92401
 11
63.4457
 21
-4.98096
  0
LINE
  8
0
 10
63.4457
 20
-4.98096
 11
63.2283
 21
0
  0
LINE
  8
0
 10
63.2283
 20
0
 11
63.4457
 21
4.98096
  0
LINE
  8
0
 10
63.4457
 20
4.98096
 11
64.0965
 21
9.92401
  0
LINE
  8
0
 10
64.0965
 20
9.92401
 11
65.1756
 21
14.7915
  0
LINE
  8
0
 10
65.1756
 20
14.7915
 11
66.6748
 21
19.5465
  0
LINE
  8
0
 10
66.6748
 20
19.5465
 11
68.5828
 21
24.1527
  0
LINE
  8
0
 10
68.5828
 20
24.1527
 11
70.8849
 21
28.5751
  0
LINE
  8
0
 10
70.8849
 20
28.5751
 11
73.5638
 21
32.78
  0
LINE
  8
0
 10
73.5638
 20
32.78
 11
76.5989
 21
36.7354
  0
LINE
  8
0
 10
76.5989
 20
36.7354
 11
79.9672
 21
40.4113
  0
LINE
  8
0
 10
79.9672
 20
40.4113
 11
83.643
 21
43.7796
  0
LINE
  8
0
 10
83.643
 20
43.7796
 11
87.5984
 21
46.8147
  0
LINE
  8
0
 10
87.5984
 20
46.8147
 11
91.8033
 21
49.4935
  0
LINE
  8
0
 10
91.8033
 20
49.4935
 11
96.2257
 21
51.7957
  0
LINE
  8
0
 10
96.2257
 20
51.7957
 11
100.832
 21
53.7036
  0
LINE
  8
0
 10
100.832
 20
53.7036
 11
105.587
 21
55.2028
  0
LINE
  8
0
 10
105.587
 20
55.2028
 11
110.454
 21
56.2819
  0
LINE
  8
0
 10
110.454
 20
56.2819
 11
115.397
 21
56.9327
  0
LINE
  8
0
 10
115.397
 20
56.9327
 11
120.378
 21
57.1502
  0
LINE
  8
0
 10
120.378
 20
57.1502
 11
125.359
 21
56.9327
  0
LINE
  8
0
 10
125.359
 20
56.9327
 11
130.302
 21
56.2819
  0
LINE
  8
0
 10
130.302
 20
56.2819
 11
135.17
 21
55.2028
  0
LINE
  8
0
 10
135.17
 20
55.2028
 11
139.925
 21
53.7036
  0
LINE
  8
0
 10
139.925
 20
53.7036
 11
144.531
 21
51.7957
  0
LINE
  8
0
 10
144.531
 20
51.7957
 11
148.954
 21
49.4935
  0
LINE
  8
0
 10
148.954
 20
49.4935
 11
153.158
 21
46.8147
  0
LINE
  8
0
 10
153.158
 20
46.8147
 11
157.114
 21
43.7796
  0
LINE
  8
0
 10
157.114
 20
43.7796
 11
160.79
 21
40.4113
  0
LINE
  8
0
 10
160.79
 20
40.4113
 11
164.158
 21
36.7354
  0
LINE
  8
0
 10
164.158
 20
36.7354
 11
167.193
 21
32.78
  0
LINE
  8
0
 10
167.193
 20
32.78
 11
169.872
 21
28.5751
  0
LINE
  8
0
 10
169.872
 20
28.5751
 11
172.174
 21
24.1527
  0
LINE
  8
0
 10
172.174
 20
24.1527
 11
174.082
 21
19.5465
  0
LINE
  8
0
 10
174.082
 20
19.5465
 11
175.581
 21
14.7915
  0
LINE
  8
0
 10
175.581
 20
14.7915
 11
176.66
 21
9.92401
  0
LINE
  8
0
 10
176.66
 20
9.92401
 11
177.311
 21
4.98096
  0
LINE
  8
0
 10
177.311
 20
4.98096
 11
177.529
 21
0
  0
LINE
  8
0
 10
177.529
 20
0
 11
177.311
 21
-4.98096
  0
LINE
  8
0
 10
177.311
 20
-4.98096
 11
176.66
 21
-9.92401
  0
LINE
  8
0
 10
176.66
 20
-9.92401
 11
175.581
 21
-14.7915
  0
LINE
  8
0
 10
175.581
 20
-14.7915
 11
174.082
 21
-19.5465
  0
LINE
  8
0
 10
174.082
 20
-19.5465
 11
172.174
 21
-24.1527
  0
LINE
  8
0
 10
172.174
 20
-24.1527
 11
169.872
 21
-28.5751
  0
LINE
  8
0
 10
169.872
 20
-28.5751
 11
167.193
 21
-32.78
  0
LINE
  8
0
 10
167.193
 20
-32.78
 11
164.158
 21
-36.7354
  0
LINE
  8
0
 10
164.158
 20
-36.7354
 11
160.79
 21
-40.4113
  0
LINE
  8
0
 10
160.79
 20
-40.4113
 11
157.114
 21
-43.7796
  0
LINE
  8
0
 10
157.114
 20
-43.7796
 11
153.158
 21
-46.8147
  0
LINE
  8
0
 10
153.158
 20
-46.8147
 11
148.954
 21
-49.4935
  0
LINE
  8
0
 10
148.954
 20
-49.4935
 11
144.531
 21
-51.7957
  0
LINE
  8
0
 10
144.531
 20
-51.7957
 11
139.925
 21
-53.7036
  0
LINE
  8
0
 10
139.925
 20
-53.7036
 11
135.17
 21
-55.2028
  0
LINE
  8
0
 10
135.17
 20
-55.2028
 11
130.302
 21
-56.2819
  0
LINE
  8
0
 10
130.302
 20
-56.2819
 11
125.359
 21
-56.9327
  0
LINE
  8
0
 10
125.359
 20
-56.9327
 11
120.378
 21
-57.1502
  0
LINE
  8
0
 10
120.378
 20
-57.1502
 11
115.397
 21
-56.9327
  0
LINE
  8
0
 10
57.798
 20
24.3227
 11
57.3167
 21
24.5221
  0
LINE
  8
0
 10
57.3167
 20
24.5221
 11
56.9326
 21
24.874
  0
LINE
  8
0
 10
56.9326
 20
24.874
 11
56.6921
 21
25.3361
  0
LINE
  8
0
 10
56.6921
 20
25.3361
 11
56.6241
 21
25.8526
  0
LINE
  8
0
 10
56.6241
 20
25.8526
 11
56.7368
 21
26.3612
  0
LINE
  8
0
 10
56.7368
 20
26.3612
 11
57.0167
 21
26.8006
  0
LINE
  8
0
 10
57.0167
 20
26.8006
 11
57.43
 21
27.1177
  0
LINE
  8
0
 10
57.43
 20
27.1177
 11
57.9268
 21
27.2744
  0
LINE
  8
0
 10
57.9268
 20
27.2744
 11
58.4473
 21
27.2516
  0
LINE
  8
0
 10
58.4473
 20
27.2516
 11
58.9286
 21
27.0523
  0
LINE
  8
0
 10
58.9286
 20
27.0523
 11
59.3127
 21
26.7003
  0
LINE
  8
0
 10
59.3127
 20
26.7003
 11
59.5532
 21
26.2383
  0
LINE
  8
0
 10
59.5532
 20
26.2383
 11
59.6212
 21
25.7218
  0
LINE
  8
0
 10
59.6212
 20
25.7218
 11
59.5085
 21
25.2132
  0
LINE
  8
0
 10
59.5085
 20
25.2132
 11
59.2286
 21
24.7738
  0
LINE
  8
0
 10
59.2286
 20
24.7738
 11
58.8153
 21
24.4567
  0
LINE
  8
0
 10
58.8153
 20
24.4567
 11
58.3184
 21
24.3
  0
LINE
  8
0
 10
58.3184
 20
24.3
 11
57.798
 21
24.3227
  0
LINE
  8
0
 10
181.942
 20
24.4567
 11
181.528
 21
24.7738
  0
LINE
  8
0
 10
181.528
 20
24.7738
 11
181.248
 21
25.2132
  0
LINE
  8
0
 10
181.248
 20
25.2132
 11
181.136
 21
25.7218
  0
LINE
  8
0
 10
181.136
 20
25.7218
 11
181.204
 21
26.2383
  0
LINE
  8
0
 10
181.204
 20
26.2383
 11
181.444
 21
26.7003
  0
LINE
  8
0
 10
181.444
 20
26.7003
 11
181.828
 21
27.0523
  0
LINE
  8
0
 10
181.828
 20
27.0523
 11
182.31
 21
27.2516
  0
LINE
  8
0
 10
182.31
 20
27.2516
 11
182.83
 21
27.2744
  0
LINE
  8
0
 10
182.83
 20
27.2744
 11
183.327
 21
27.1177
  0
LINE
  8
0
 10
183.327
 20
27.1177
 11
183.74
 21
26.8006
  0
LINE
  8
0
 10
183.74
 20
26.8006
 11
184.02
 21
26.3612
  0
LINE
  8
0
 10
184.02
 20
26.3612
 11
184.133
 21
25.8526
  0
LINE
  8
0
 10
184.133
 20
25.8526
 11
184.065
 21
25.3361
  0
LINE
  8
0
 10
184.065
 20
25.3361
 11
183.824
 21
24.874
  0
LINE
  8
0
 10
183.824
 20
24.874
 11
183.44
 21
24.5221
  0
LINE
  8
0
 10
183.44
 20
24.5221
 11
182.959
 21
24.3227
  0
LINE
  8
0
 10
182.959
 20
24.3227
 11
182.438
 21
24.3
  0
LINE
  8
0
 10
182.438
 20
24.3
 11
181.942
 21
24.4567
  0
LINE
  8
0
 10
57.43
 20
-27.1177
 11
57.0167
 21
-26.8006
  0
LINE
  8
0
 10
57.0167
 20
-26.8006
 11
56.7368
 21
-26.3612
  0
LINE
  8
0
 10
56.7368
 20
-26.3612
 11
56.6241
 21
-25.8526
  0
LINE
  8
0
 10
56.6241
 20
-25.8526
 11
56.6921
 21
-25.3361
  0
LINE
  8
0
 10
56.6921
 20
-25.3361
 11
56.9326
 21
-24.874
  0
LINE
  8
0
 10
56.9326
 20
-24.874
 11
57.3167
 21
-24.5221
  0
LINE
  8
0
 10
57.3167
 20
-24.5221
 11
57.798
 21
-24.3227
  0
LINE
  8
0
 10
57.798
 20
-24.3227
 11
58.3184
 21
-24.3
  0
LINE
  8
0
 10
58.3184
 20
-24.3
 11
58.8153
 21
-24.4567
  0
LINE
  8
0
 10
58.8153
 20
-24.4567
 11
59.2286
 21
-24.7738
  0
LINE
  8
0
 10
59.2286
 20
-24.7738
 11
59.5085
 21
-25.2132
  0
LINE
  8
0
 10
59.5085
 20
-25.2132
 11
59.6212
 21
-25.7218
  0
LINE
  8
0
 10
59.6212
 20
-25.7218
 11
59.5532
 21
-26.2383
  0
LINE
  8
0
 10
59.5532
 20
-26.2383
 11
59.3127
 21
-26.7003
  0
LINE
  8
0
 10
59.3127
 20
-26.7003
 11
58.9286
 21
-27.0523
  0
LINE
  8
0
 10
58.9286
 20
-27.0523
 11
58.4473
 21
-27.2516
  0
LINE
  8
0
 10
58.4473
 20
-27.2516
 11
57.9268
 21
-27.2744
  0
LINE
  8
0
 10
57.9268
 20
-27.2744
 11
57.43
 21
-27.1177
  0
LINE
  8
0
 10
182.31
 20
-27.2516
 11
181.828
 21
-27.0523
  0
LINE
  8
0
 10
181.828
 20
-27.0523
 11
181.444
 21
-26.7003
  0
LINE
  8
0
 10
181.444
 20
-26.7003
 11
181.204
 21
-26.2383
  0
LINE
  8
0
 10
181.204
 20
-26.2383
 11
181.136
 21
-25.7218
  0
LINE
  8
0
 10
181.136
 20
-25.7218
 11
181.248
 21
-25.2132
  0
LINE
  8
0
 10
181.248
 20
-25.2132
 11
181.528
 21
-24.7738
  0
LINE
  8
0
 10
181.528
 20
-24.7738
 11
181.942
 21
-24.4567
  0
LINE
  8
0
 10
181.942
 20
-24.4567
 11
182.438
 21
-24.3
  0
LINE
  8
0
 10
182.438
 20
-24.3
 11
182.959
 21
-24.3227
  0
LINE
  8
0
 10
182.959
 20
-24.3227
 11
183.44
 21
-24.5221
  0
LINE
  8
0
 10
183.44
 20
-24.5221
 11
183.824
 21
-24.874
  0
LINE
  8
0
 10
183.824
 20
-24.874
 11
184.065
 21
-25.3361
  0
LINE
  8
0
 10
184.065
 20
-25.3361
 11
184.133
 21
-25.8526
  0
LINE
  8
0
 10
184.133
 20
-25.8526
 11
184.02
 21
-26.3612
  0
LINE
  8
0
 10
184.02
 20
-26.3612
 11
183.74
 21
-26.8006
  0
LINE
  8
0
 10
183.74
 20
-26.8006
 11
183.327
 21
-27.1177
  0
LINE
  8
0
 10
183.327
 20
-27.1177
 11
182.83
 21
-27.2744
  0
LINE
  8
0
 10
182.83
 20
-27.2744
 11
182.31
 21
-27.2516
  0
LINE
  8
0
 10
145.715
 20
-63.6864
 11
145.253
 21
-63.4458
  0
LINE
  8
0
 10
145.253
 20
-63.4458
 11
144.901
 21
-63.0617
  0
LINE
  8
0
 10
144.901
 20
-63.0617
 11
144.701
 21
-62.5804
  0
LINE
  8
0
 10
144.701
 20
-62.5804
 11
144.678
 21
-62.06
  0
LINE
  8
0
 10
144.678
 20
-62.06
 11
144.835
 21
-61.5632
  0
LINE
  8
0
 10
144.835
 20
-61.5632
 11
145.152
 21
-61.1499
  0
LINE
  8
0
 10
145.152
 20
-61.1499
 11
145.592
 21
-60.87
  0
LINE
  8
0
 10
145.592
 20
-60.87
 11
146.1
 21
-60.7572
  0
LINE
  8
0
 10
146.1
 20
-60.7572
 11
146.617
 21
-60.8252
  0
LINE
  8
0
 10
146.617
 20
-60.8252
 11
147.079
 21
-61.0658
  0
LINE
  8
0
 10
147.079
 20
-61.0658
 11
147.431
 21
-61.4498
  0
LINE
  8
0
 10
147.431
 20
-61.4498
 11
147.63
 21
-61.9311
  0
LINE
  8
0
 10
147.63
 20
-61.9311
 11
147.653
 21
-62.4516
  0
LINE
  8
0
 10
147.653
 20
-62.4516
 11
147.496
 21
-62.9484
  0
LINE
  8
0
 10
147.496
 20
-62.9484
 11
147.179
 21
-63.3617
  0
LINE
  8
0
 10
147.179
 20
-63.3617
 11
146.74
 21
-63.6416
  0
LINE
  8
0
 10
146.74
 20
-63.6416
 11
146.231
 21
-63.7544
  0
LINE
  8
0
 10
146.231
 20
-63.7544
 11
145.715
 21
-63.6864
  0
LINE
  8
0
 10
94.0172
 20
-63.6416
 11
93.5779
 21
-63.3617
  0
LINE
  8
0
 10
93.5779
 20
-63.3617
 11
93.2607
 21
-62.9484
  0
LINE
  8
0
 10
93.2607
 20
-62.9484
 11
93.1041
 21
-62.4516
  0
LINE
  8
0
 10
93.1041
 20
-62.4516
 11
93.1268
 21
-61.9311
  0
LINE
  8
0
 10
93.1268
 20
-61.9311
 11
93.3262
 21
-61.4498
  0
LINE
  8
0
 10
93.3262
 20
-61.4498
 11
93.6781
 21
-61.0658
  0
LINE
  8
0
 10
93.6781
 20
-61.0658
 11
94.1402
 21
-60.8252
  0
LINE
  8
0
 10
94.1402
 20
-60.8252
 11
94.6567
 21
-60.7572
  0
LINE
  8
0
 10
94.6567
 20
-60.7572
 11
95.1653
 21
-60.87
  0
LINE
  8
0
 10
95.1653
 20
-60.87
 11
95.6046
 21
-61.1499
  0
LINE
  8
0
 10
95.6046
 20
-61.1499
 11
95.9218
 21
-61.5632
  0
LINE
  8
0
 10
95.9218
 20
-61.5632
 11
96.0784
 21
-62.06
  0
LINE
  8
0
 10
96.0784
 20
-62.06
 11
96.0557
 21
-62.5804
  0
LINE
  8
0
 10
96.0557
 20
-62.5804
 11
95.8563
 21
-63.0617
  0
LINE
  8
0
 10
95.8563
 20
-63.0617
 11
95.5044
 21
-63.4458
  0
LINE
  8
0
 10
95.5044
 20
-63.4458
 11
95.0423
 21
-63.6864
  0
LINE
  8
0
 10
95.0423
 20
-63.6864
 11
94.5258
 21
-63.7544
  0
LINE
  8
0
 10
94.5258
 20
-63.7544
 11
94.0172
 21
-63.6416
  0
LINE
  8
0
 10
33.8545
 20
-81.5235
 11
33.597
 21
-81.4781
  0
LINE
  8
0
 10
33.597
 20
-81.4781
 11
33.3513
 21
-81.3887
  0
LINE
  8
0
 10
33.3513
 20
-81.3887
 11
33.1249
 21
-81.258
  0
LINE
  8
0
 10
33.1249
 20
-81.258
 11
32.9246
 21
-81.0899
  0
LINE
  8
0
 10
32.9246
 20
-81.0899
 11
32.7565
 21
-80.8896
  0
LINE
  8
0
 10
32.7565
 20
-80.8896
 11
32.6258
 21
-80.6632
  0
LINE
  8
0
 10
32.6258
 20
-80.6632
 11
32.5363
 21
-80.4175
  0
LINE
  8
0
 10
32.5363
 20
-80.4175
 11
32.4909
 21
-80.16
  0
LINE
  8
0
 10
32.4909
 20
-80.16
 11
32.4909
 21
-79.8985
  0
LINE
  8
0
 10
32.4909
 20
-79.8985
 11
32.5363
 21
-79.641
  0
LINE
  8
0
 10
32.5363
 20
-79.641
 11
32.6258
 21
-79.3953
  0
LINE
  8
0
 10
32.6258
 20
-79.3953
 11
32.7565
 21
-79.1689
  0
LINE
  8
0
 10
32.7565
 20
-79.1689
 11
32.9246
 21
-78.9686
  0
LINE
  8
0
 10
32.9246
 20
-78.9686
 11
33.1249
 21
-78.8005
  0
LINE
  8
0
 10
33.1249
 20
-78.8005
 11
33.3513
 21
-78.6698
  0
LINE
  8
0
 10
33.3513
 20
-78.6698
 11
33.597
 21
-78.5804
  0
LINE
  8
0
 10
33.597
 20
-78.5804
 11
33.8545
 21
-78.5349
  0
LINE
  8
0
 10
33.8545
 20
-78.5349
 11
34.116
 21
-78.5349
  0
LINE
  8
0
 10
34.116
 20
-78.5349
 11
34.3735
 21
-78.5804
  0
LINE
  8
0
 10
34.3735
 20
-78.5804
 11
34.6192
 21
-78.6698
  0
LINE
  8
0
 10
34.6192
 20
-78.6698
 11
34.8456
 21
-78.8005
  0
LINE
  8
0
 10
34.8456
 20
-78.8005
 11
35.0459
 21
-78.9686
  0
LINE
  8
0
 10
35.0459
 20
-78.9686
 11
35.214
 21
-79.1689
  0
LINE
  8
0
 10
35.214
 20
-79.1689
 11
35.3447
 21
-79.3953
  0
LINE
  8
0
 10
35.3447
 20
-79.3953
 11
35.4341
 21
-79.641
  0
LINE
  8
0
 10
35.4341
 20
-79.641
 11
35.4795
 21
-79.8985
  0
LINE
  8
0
 10
35.4795
 20
-79.8985
 11
35.4795
 21
-80.16
  0
LINE
  8
0
 10
35.4795
 20
-80.16
 11
35.4341
 21
-80.4175
  0
LINE
  8
0
 10
35.4341
 20
-80.4175
 11
35.3447
 21
-80.6632
  0
LINE
  8
0
 10
35.3447
 20
-80.6632
 11
35.214
 21
-80.8896
  0
LINE
  8
0
 10
35.214
 20
-80.8896
 11
35.0459
 21
-81.0899
  0
LINE
  8
0
 10
35.0459
 20
-81.0899
 11
34.8456
 21
-81.258
  0
LINE
  8
0
 10
34.8456
 20
-81.258
 11
34.6192
 21
-81.3887
  0
LINE
  8
0
 10
34.6192
 20
-81.3887
 11
34.3735
 21
-81.4781
  0
LINE
  8
0
 10
34.3735
 20
-81.4781
 11
34.116
 21
-81.5235
  0
LINE
  8
0
 10
34.116
 20
-81.5235
 11
33.8545
 21
-81.5235
  0
LINE
  8
0
 10
206.641
 20
-81.5235
 11
206.383
 21
-81.4781
  0
LINE
  8
0
 10
206.383
 20
-81.4781
 11
206.138
 21
-81.3887
  0
LINE
  8
0
 10
206.138
 20
-81.3887
 11
205.911
 21
-81.258
  0
LINE
  8
0
 10
205.911
 20
-81.258
 11
205.711
 21
-81.0899
  0
LINE
  8
0
 10
205.711
 20
-81.0899
 11
205.543
 21
-80.8896
  0
LINE
  8
0
 10
205.543
 20
-80.8896
 11
205.412
 21
-80.6632
  0
LINE
  8
0
 10
205.412
 20
-80.6632
 11
205.323
 21
-80.4175
  0
LINE
  8
0
 10
205.323
 20
-80.4175
 11
205.277
 21
-80.16
  0
LINE
  8
0
 10
205.277
 20
-80.16
 11
205.277
 21
-79.8985
  0
LINE
  8
0
 10
205.277
 20
-79.8985
 11
205.323
 21
-79.641
  0
LINE
  8
0
 10
205.323
 20
-79.641
 11
205.412
 21
-79.3953
  0
LINE
  8
0
 10
205.412
 20
-79.3953
 11
205.543
 21
-79.1689
  0
LINE
  8
0
 10
205.543
 20
-79.1689
 11
205.711
 21
-78.9686
  0
LINE
  8
0
 10
205.711
 20
-78.9686
 11
205.911
 21
-78.8005
  0
LINE
  8
0
 10
205.911
 20
-78.8005
 11
206.138
 21
-78.6698
  0
LINE
  8
0
 10
206.138
 20
-78.6698
 11
206.383
 21
-78.5804
  0
LINE
  8
0
 10
206.383
 20
-78.5804
 11
206.641
 21
-78.535
  0
LINE
  8
0
 10
206.641
 20
-78.535
 11
206.902
 21
-78.535
  0
LINE
  8
0
 10
206.902
 20
-78.535
 11
207.16
 21
-78.5804
  0
LINE
  8
0
 10
207.16
 20
-78.5804
 11
207.406
 21
-78.6698
  0
LINE
  8
0
 10
207.406
 20
-78.6698
 11
207.632
 21
-78.8005
  0
LINE
  8
0
 10
207.632
 20
-78.8005
 11
207.832
 21
-78.9686
  0
LINE
  8
0
 10
207.832
 20
-78.9686
 11
208
 21
-79.1689
  0
LINE
  8
0
 10
208
 20
-79.1689
 11
208.131
 21
-79.3953
  0
LINE
  8
0
 10
208.131
 20
-79.3953
 11
208.221
 21
-79.641
  0
LINE
  8
0
 10
208.221
 20
-79.641
 11
208.266
 21
-79.8985
  0
LINE
  8
0
 10
208.266
 20
-79.8985
 11
208.266
 21
-80.16
  0
LINE
  8
0
 10
208.266
 20
-80.16
 11
208.221
 21
-80.4175
  0
LINE
  8
0
 10
208.221
 20
-80.4175
 11
208.131
 21
-80.6632
  0
LINE
  8
0
 10
208.131
 20
-80.6632
 11
208
 21
-80.8896
  0
LINE
  8
0
 10
208
 20
-80.8896
 11
207.832
 21
-81.0899
  0
LINE
  8
0
 10
207.832
 20
-81.0899
 11
207.632
 21
-81.258
  0
LINE
  8
0
 10
207.632
 20
-81.258
 11
207.406
 21
-81.3887
  0
LINE
  8
0
 10
207.406
 20
-81.3887
 11
207.16
 21
-81.4781
  0
LINE
  8
0
 10
207.16
 20
-81.4781
 11
206.902
 21
-81.5235
  0
LINE
  8
0
 10
206.902
 20
-81.5235
 11
206.641
 21
-81.5235
  0
LINE
  8
0
 10
40.2185
 20
-87.8875
 11
39.961
 21
-87.8421
  0
LINE
  8
0
 10
39.961
 20
-87.8421
 11
39.7153
 21
-87.7527
  0
LINE
  8
0
 10
39.7153
 20
-87.7527
 11
39.4888
 21
-87.6219
  0
LINE
  8
0
 10
39.4888
 20
-87.6219
 11
39.2885
 21
-87.4539
  0
LINE
  8
0
 10
39.2885
 20
-87.4539
 11
39.1205
 21
-87.2536
  0
LINE
  8
0
 10
39.1205
 20
-87.2536
 11
38.9897
 21
-87.0271
  0
LINE
  8
0
 10
38.9897
 20
-87.0271
 11
38.9003
 21
-86.7814
  0
LINE
  8
0
 10
38.9003
 20
-86.7814
 11
38.8549
 21
-86.5239
  0
LINE
  8
0
 10
38.8549
 20
-86.5239
 11
38.8549
 21
-86.2625
  0
LINE
  8
0
 10
38.8549
 20
-86.2625
 11
38.9003
 21
-86.005
  0
LINE
  8
0
 10
38.9003
 20
-86.005
 11
38.9897
 21
-85.7593
  0
LINE
  8
0
 10
38.9897
 20
-85.7593
 11
39.1205
 21
-85.5328
  0
LINE
  8
0
 10
39.1205
 20
-85.5328
 11
39.2885
 21
-85.3326
  0
LINE
  8
0
 10
39.2885
 20
-85.3326
 11
39.4888
 21
-85.1645
  0
LINE
  8
0
 10
39.4888
 20
-85.1645
 11
39.7153
 21
-85.0337
  0
LINE
  8
0
 10
39.7153
 20
-85.0337
 11
39.961
 21
-84.9443
  0
LINE
  8
0
 10
39.961
 20
-84.9443
 11
40.2185
 21
-84.8989
  0
LINE
  8
0
 10
40.2185
 20
-84.8989
 11
40.4799
 21
-84.8989
  0
LINE
  8
0
 10
40.4799
 20
-84.8989
 11
40.7374
 21
-84.9443
  0
LINE
  8
0
 10
40.7374
 20
-84.9443
 11
40.9831
 21
-85.0337
  0
LINE
  8
0
 10
40.9831
 20
-85.0337
 11
41.2096
 21
-85.1645
  0
LINE
  8
0
 10
41.2096
 20
-85.1645
 11
41.4099
 21
-85.3326
  0
LINE
  8
0
 10
41.4099
 20
-85.3326
 11
41.5779
 21
-85.5328
  0
LINE
  8
0
 10
41.5779
 20
-85.5328
 11
41.7086
 21
-85.7593
  0
LINE
  8
0
 10
41.7086
 20
-85.7593
 11
41.7981
 21
-86.005
  0
LINE
  8
0
 10
41.7981
 20
-86.005
 11
41.8435
 21
-86.2625
  0
LINE
  8
0
 10
41.8435
 20
-86.2625
 11
41.8435
 21
-86.5239
  0
LINE
  8
0
 10
41.8435
 20
-86.5239
 11
41.7981
 21
-86.7814
  0
LINE
  8
0
 10
41.7981
 20
-86.7814
 11
41.7086
 21
-87.0271
  0
LINE
  8
0
 10
41.7086
 20
-87.0271
 11
41.5779
 21
-87.2536
  0
LINE
  8
0
 10
41.5779
 20
-87.2536
 11
41.4099
 21
-87.4539
  0
LINE
  8
0
 10
41.4099
 20
-87.4539
 11
41.2096
 21
-87.6219
  0
LINE
  8
0
 10
41.2096
 20
-87.6219
 11
40.9831
 21
-87.7527
  0
LINE
  8
0
 10
40.9831
 20
-87.7527
 11
40.7374
 21
-87.8421
  0
LINE
  8
0
 10
40.7374
 20
-87.8421
 11
40.4799
 21
-87.8875
  0
LINE
  8
0
 10
40.4799
 20
-87.8875
 11
40.2185
 21
-87.8875
  0
LINE
  8
0
 10
200.277
 20
-87.8875
 11
200.019
 21
-87.8421
  0
LINE
  8
0
 10
200.019
 20
-87.8421
 11
199.774
 21
-87.7527
  0
LINE
  8
0
 10
199.774
 20
-87.7527
 11
199.547
 21
-87.6219
  0
LINE
  8
0
 10
199.547
 20
-87.6219
 11
199.347
 21
-87.4539
  0
LINE
  8
0
 10
199.347
 20
-87.4539
 11
199.179
 21
-87.2536
  0
LINE
  8
0
 10
199.179
 20
-87.2536
 11
199.048
 21
-87.0271
  0
LINE
  8
0
 10
199.048
 20
-87.0271
 11
198.959
 21
-86.7814
  0
LINE
  8
0
 10
198.959
 20
-86.7814
 11
198.913
 21
-86.5239
  0
LINE
  8
0
 10
198.913
 20
-86.5239
 11
198.913
 21
-86.2625
  0
LINE
  8
0
 10
198.913
 20
-86.2625
 11
198.959
 21
-86.005
  0
LINE
  8
0
 10
198.959
 20
-86.005
 11
199.048
 21
-85.7593
  0
LINE
  8
0
 10
199.048
 20
-85.7593
 11
199.179
 21
-85.5328
  0
LINE
  8
0
 10
199.179
 20
-85.5328
 11
199.347
 21
-85.3326
  0
LINE
  8
0
 10
199.347
 20
-85.3326
 11
199.547
 21
-85.1645
  0
LINE
  8
0
 10
199.547
 20
-85.1645
 11
199.774
 21
-85.0337
  0
LINE
  8
0
 10
199.774
 20
-85.0337
 11
200.019
 21
-84.9443
  0
LINE
  8
0
 10
200.019
 20
-84.9443
 11
200.277
 21
-84.8989
  0
LINE
  8
0
 10
200.277
 20
-84.8989
 11
200.538
 21
-84.8989
  0
LINE
  8
0
 10
200.538
 20
-84.8989
 11
200.796
 21
-84.9443
  0
LINE
  8
0
 10
200.796
 20
-84.9443
 11
201.042
 21
-85.0337
  0
LINE
  8
0
 10
201.042
 20
-85.0337
 11
201.268
 21
-85.1645
  0
LINE
  8
0
 10
201.268
 20
-85.1645
 11
201.468
 21
-85.3326
  0
LINE
  8
0
 10
201.468
 20
-85.3326
 11
201.636
 21
-85.5328
  0
LINE
  8
0
 10
201.636
 20
-85.5328
 11
201.767
 21
-85.7593
  0
LINE
  8
0
 10
201.767
 20
-85.7593
 11
201.857
 21
-86.005
  0
LINE
  8
0
 10
201.857
 20
-86.005
 11
201.902
 21
-86.2625
  0
LINE
  8
0
 10
201.902
 20
-86.2625
 11
201.902
 21
-86.5239
  0
LINE
  8
0
 10
201.902
 20
-86.5239
 11
201.857
 21
-86.7814
  0
LINE
  8
0
 10
201.857
 20
-86.7814
 11
201.767
 21
-87.0271
  0
LINE
  8
0
 10
201.767
 20
-87.0271
 11
201.636
 21
-87.2536
  0
LINE
  8
0
 10
201.636
 20
-87.2536
 11
201.468
 21
-87.4539
  0
LINE
  8
0
 10
201.468
 20
-87.4539
 11
201.268
 21
-87.6219
  0
LINE
  8
0
 10
201.268
 20
-87.6219
 11
201.042
 21
-87.7527
  0
LINE
  8
0
 10
201.042
 20
-87.7527
 11
200.796
 21
-87.8421
  0
LINE
  8
0
 10
200.796
 20
-87.8421
 11
200.538
 21
-87.8875
  0
LINE
  8
0
 10
200.538
 20
-87.8875
 11
200.277
 21
-87.8875
  0
LINE
  8
0
 10
27.137
 20
-94.605
 11
26.8795
 21
-94.5596
  0
LINE
  8
0
 10
26.8795
 20
-94.5596
 11
26.6338
 21
-94.4702
  0
LINE
  8
0
 10
26.6338
 20
-94.4702
 11
26.4073
 21
-94.3394
  0
LINE
  8
0
 10
26.4073
 20
-94.3394
 11
26.2071
 21
-94.1714
  0
LINE
  8
0
 10
26.2071
 20
-94.1714
 11
26.039
 21
-93.9711
  0
LINE
  8
0
 10
26.039
 20
-93.9711
 11
25.9082
 21
-93.7446
  0
LINE
  8
0
 10
25.9082
 20
-93.7446
 11
25.8188
 21
-93.4989
  0
LINE
  8
0
 10
25.8188
 20
-93.4989
 11
25.7734
 21
-93.2415
  0
LINE
  8
0
 10
25.7734
 20
-93.2415
 11
25.7734
 21
-92.98
  0
LINE
  8
0
 10
25.7734
 20
-92.98
 11
25.8188
 21
-92.7225
  0
LINE
  8
0
 10
25.8188
 20
-92.7225
 11
25.9082
 21
-92.4768
  0
LINE
  8
0
 10
25.9082
 20
-92.4768
 11
26.039
 21
-92.2504
  0
LINE
  8
0
 10
26.039
 20
-92.2504
 11
26.2071
 21
-92.0501
  0
LINE
  8
0
 10
26.2071
 20
-92.0501
 11
26.4073
 21
-91.882
  0
LINE
  8
0
 10
26.4073
 20
-91.882
 11
26.6338
 21
-91.7513
  0
LINE
  8
0
 10
26.6338
 20
-91.7513
 11
26.8795
 21
-91.6618
  0
LINE
  8
0
 10
26.8795
 20
-91.6618
 11
27.137
 21
-91.6164
  0
LINE
  8
0
 10
27.137
 20
-91.6164
 11
27.3985
 21
-91.6164
  0
LINE
  8
0
 10
27.3985
 20
-91.6164
 11
27.6559
 21
-91.6618
  0
LINE
  8
0
 10
27.6559
 20
-91.6618
 11
27.9016
 21
-91.7513
  0
LINE
  8
0
 10
27.9016
 20
-91.7513
 11
28.1281
 21
-91.882
  0
LINE
  8
0
 10
28.1281
 20
-91.882
 11
28.3284
 21
-92.0501
  0
LINE
  8
0
 10
28.3284
 20
-92.0501
 11
28.4964
 21
-92.2504
  0
LINE
  8
0
 10
28.4964
 20
-92.2504
 11
28.6272
 21
-92.4768
  0
LINE
  8
0
 10
28.6272
 20
-92.4768
 11
28.7166
 21
-92.7225
  0
LINE
  8
0
 10
28.7166
 20
-92.7225
 11
28.762
 21
-92.98
  0
LINE
  8
0
 10
28.762
 20
-92.98
 11
28.762
 21
-93.2415
  0
LINE
  8
0
 10
28.762
 20
-93.2415
 11
28.7166
 21
-93.4989
  0
LINE
  8
0
 10
28.7166
 20
-93.4989
 11
28.6272
 21
-93.7446
  0
LINE
  8
0
 10
28.6272
 20
-93.7446
 11
28.4964
 21
-93.9711
  0
LINE
  8
0
 10
28.4964
 20
-93.9711
 11
28.3284
 21
-94.1714
  0
LINE
  8
0
 10
28.3284
 20
-94.1714
 11
28.1281
 21
-94.3394
  0
LINE
  8
0
 10
28.1281
 20
-94.3394
 11
27.9016
 21
-94.4702
  0
LINE
  8
0
 10
27.9016
 20
-94.4702
 11
27.6559
 21
-94.5596
  0
LINE
  8
0
 10
27.6559
 20
-94.5596
 11
27.3985
 21
-94.605
  0
LINE
  8
0
 10
27.3985
 20
-94.605
 11
27.137
 21
-94.605
  0
LINE
  8
0
 10
213.358
 20
-94.605
 11
213.101
 21
-94.5596
  0
LINE
  8
0
 10
213.101
 20
-94.5596
 11
212.855
 21
-94.4702
  0
LINE
  8
0
 10
212.855
 20
-94.4702
 11
212.629
 21
-94.3394
  0
LINE
  8
0
 10
212.629
 20
-94.3394
 11
212.429
 21
-94.1714
  0
LINE
  8
0
 10
212.429
 20
-94.1714
 11
212.26
 21
-93.9711
  0
LINE
  8
0
 10
212.26
 20
-93.9711
 11
212.13
 21
-93.7446
  0
LINE
  8
0
 10
212.13
 20
-93.7446
 11
212.04
 21
-93.4989
  0
LINE
  8
0
 10
212.04
 20
-93.4989
 11
211.995
 21
-93.2415
  0
LINE
  8
0
 10
211.995
 20
-93.2415
 11
211.995
 21
-92.98
  0
LINE
  8
0
 10
211.995
 20
-92.98
 11
212.04
 21
-92.7225
  0
LINE
  8
0
 10
212.04
 20
-92.7225
 11
212.13
 21
-92.4768
  0
LINE
  8
0
 10
212.13
 20
-92.4768
 11
212.26
 21
-92.2504
  0
LINE
  8
0
 10
212.26
 20
-92.2504
 11
212.429
 21
-92.0501
  0
LINE
  8
0
 10
212.429
 20
-92.0501
 11
212.629
 21
-91.882
  0
LINE
  8
0
 10
212.629
 20
-91.882
 11
212.855
 21
-91.7513
  0
LINE
  8
0
 10
212.855
 20
-91.7513
 11
213.101
 21
-91.6618
  0
LINE
  8
0
 10
213.101
 20
-91.6618
 11
213.358
 21
-91.6164
  0
LINE
  8
0
 10
213.358
 20
-91.6164
 11
213.62
 21
-91.6164
  0
LINE
  8
0
 10
213.62
 20
-91.6164
 11
213.877
 21
-91.6618
  0
LINE
  8
0
 10
213.877
 20
-91.6618
 11
214.123
 21
-91.7513
  0
LINE
  8
0
 10
214.123
 20
-91.7513
 11
214.35
 21
-91.882
  0
LINE
  8
0
 10
214.35
 20
-91.882
 11
214.55
 21
-92.0501
  0
LINE
  8
0
 10
214.55
 20
-92.0501
 11
214.718
 21
-92.2504
  0
LINE
  8
0
 10
214.718
 20
-92.2504
 11
214.849
 21
-92.4768
  0
LINE
  8
0
 10
214.849
 20
-92.4768
 11
214.938
 21
-92.7225
  0
LINE
  8
0
 10
214.938
 20
-92.7225
 11
214.983
 21
-92.98
  0
LINE
  8
0
 10
214.983
 20
-92.98
 11
214.983
 21
-93.2415
  0
LINE
  8
0
 10
214.983
 20
-93.2415
 11
214.938
 21
-93.4989
  0
LINE
  8
0
 10
214.938
 20
-93.4989
 11
214.849
 21
-93.7446
  0
LINE
  8
0
 10
214.849
 20
-93.7446
 11
214.718
 21
-93.9711
  0
LINE
  8
0
 10
214.718
 20
-93.9711
 11
214.55
 21
-94.1714
  0
LINE
  8
0
 10
214.55
 20
-94.1714
 11
214.35
 21
-94.3394
  0
LINE
  8
0
 10
214.35
 20
-94.3394
 11
214.123
 21
-94.4702
  0
LINE
  8
0
 10
214.123
 20
-94.4702
 11
213.877
 21
-94.5596
  0
LINE
  8
0
 10
213.877
 20
-94.5596
 11
213.62
 21
-94.605
  0
LINE
  8
0
 10
213.62
 20
-94.605
 11
213.358
 21
-94.605
  0
LINE
  8
0
 10
12.4246
 20
-98.0032
 11
12.1513
 21
-97.9672
  0
LINE
  8
0
 10
12.1513
 20
-97.9672
 11
11.8821
 21
-97.9076
  0
LINE
  8
0
 10
11.8821
 20
-97.9076
 11
11.6192
 21
-97.8247
  0
LINE
  8
0
 10
11.6192
 20
-97.8247
 11
11.3645
 21
-97.7192
  0
LINE
  8
0
 10
11.3645
 20
-97.7192
 11
11.12
 21
-97.5919
  0
LINE
  8
0
 10
11.12
 20
-97.5919
 11
10.8875
 21
-97.4438
  0
LINE
  8
0
 10
10.8875
 20
-97.4438
 11
10.6688
 21
-97.2759
  0
LINE
  8
0
 10
10.6688
 20
-97.2759
 11
10.4655
 21
-97.0897
  0
LINE
  8
0
 10
10.4655
 20
-97.0897
 11
10.2793
 21
-96.8864
  0
LINE
  8
0
 10
10.2793
 20
-96.8864
 11
10.1115
 21
-96.6677
  0
LINE
  8
0
 10
10.1115
 20
-96.6677
 11
9.96335
 21
-96.4352
  0
LINE
  8
0
 10
9.96335
 20
-96.4352
 11
9.83606
 21
-96.1907
  0
LINE
  8
0
 10
9.83606
 20
-96.1907
 11
9.73056
 21
-95.936
  0
LINE
  8
0
 10
9.73056
 20
-95.936
 11
9.64767
 21
-95.6731
  0
LINE
  8
0
 10
9.64767
 20
-95.6731
 11
9.588
 21
-95.404
  0
LINE
  8
0
 10
9.588
 20
-95.404
 11
9.55202
 21
-95.1306
  0
LINE
  8
0
 10
9.55202
 20
-95.1306
 11
9.53999
 21
-94.8552
  0
LINE
  8
0
 10
9.53999
 20
-94.8552
 11
9.55202
 21
-94.5798
  0
LINE
  8
0
 10
9.55202
 20
-94.5798
 11
9.588
 21
-94.3065
  0
LINE
  8
0
 10
9.588
 20
-94.3065
 11
9.64767
 21
-94.0374
  0
LINE
  8
0
 10
9.64767
 20
-94.0374
 11
9.73056
 21
-93.7745
  0
LINE
  8
0
 10
9.73056
 20
-93.7745
 11
9.83606
 21
-93.5198
  0
LINE
  8
0
 10
9.83606
 20
-93.5198
 11
9.96335
 21
-93.2752
  0
LINE
  8
0
 10
9.96335
 20
-93.2752
 11
10.1115
 21
-93.0427
  0
LINE
  8
0
 10
10.1115
 20
-93.0427
 11
10.2793
 21
-92.824
  0
LINE
  8
0
 10
10.2793
 20
-92.824
 11
10.4655
 21
-92.6208
  0
LINE
  8
0
 10
10.4655
 20
-92.6208
 11
10.6688
 21
-92.4345
  0
LINE
  8
0
 10
10.6688
 20
-92.4345
 11
10.8875
 21
-92.2667
  0
LINE
  8
0
 10
10.8875
 20
-92.2667
 11
11.12
 21
-92.1186
  0
LINE
  8
0
 10
11.12
 20
-92.1186
 11
11.3645
 21
-91.9913
  0
LINE
  8
0
 10
11.3645
 20
-91.9913
 11
11.6192
 21
-91.8858
  0
LINE
  8
0
 10
11.6192
 20
-91.8858
 11
11.8821
 21
-91.8029
  0
LINE
  8
0
 10
11.8821
 20
-91.8029
 11
12.1513
 21
-91.7432
  0
LINE
  8
0
 10
12.1513
 20
-91.7432
 11
12.4246
 21
-91.7073
  0
LINE
  8
0
 10
12.4246
 20
-91.7073
 11
12.7
 21
-91.6952
  0
LINE
  8
0
 10
12.7
 20
-91.6952
 11
12.9754
 21
-91.7073
  0
LINE
  8
0
 10
12.9754
 20
-91.7073
 11
13.2487
 21
-91.7432
  0
LINE
  8
0
 10
13.2487
 20
-91.7432
 11
13.5179
 21
-91.8029
  0
LINE
  8
0
 10
13.5179
 20
-91.8029
 11
13.7808
 21
-91.8858
  0
LINE
  8
0
 10
13.7808
 20
-91.8858
 11
14.0355
 21
-91.9913
  0
LINE
  8
0
 10
14.0355
 20
-91.9913
 11
14.28
 21
-92.1186
  0
LINE
  8
0
 10
14.28
 20
-92.1186
 11
14.5125
 21
-92.2667
  0
LINE
  8
0
 10
14.5125
 20
-92.2667
 11
14.7312
 21
-92.4345
  0
LINE
  8
0
 10
14.7312
 20
-92.4345
 11
14.9344
 21
-92.6208
  0
LINE
  8
0
 10
14.9344
 20
-92.6208
 11
15.1207
 21
-92.824
  0
LINE
  8
0
 10
15.1207
 20
-92.824
 11
15.2885
 21
-93.0427
  0
LINE
  8
0
 10
15.2885
 20
-93.0427
 11
15.4366
 21
-93.2752
  0
LINE
  8
0
 10
15.4366
 20
-93.2752
 11
15.5639
 21
-93.5198
  0
LINE
  8
0
 10
15.5639
 20
-93.5198
 11
15.6694
 21
-93.7745
  0
LINE
  8
0
 10
15.6694
 20
-93.7745
 11
15.7523
 21
-94.0374
  0
LINE
  8
0
 10
15.7523
 20
-94.0374
 11
15.812
 21
-94.3065
  0
LINE
  8
0
 10
15.812
 20
-94.3065
 11
15.848
 21
-94.5798
  0
LINE
  8
0
 10
15.848
 20
-94.5798
 11
15.86
 21
-94.8552
  0
LINE
  8
0
 10
15.86
 20
-94.8552
 11
15.848
 21
-95.1306
  0
LINE
  8
0
 10
15.848
 20
-95.1306
 11
15.812
 21
-95.404
  0
LINE
  8
0
 10
15.812
 20
-95.404
 11
15.7523
 21
-95.6731
  0
LINE
  8
0
 10
15.7523
 20
-95.6731
 11
15.6694
 21
-95.936
  0
LINE
  8
0
 10
15.6694
 20
-95.936
 11
15.5639
 21
-96.1907
  0
LINE
  8
0
 10
15.5639
 20
-96.1907
 11
15.4366
 21
-96.4352
  0
LINE
  8
0
 10
15.4366
 20
-96.4352
 11
15.2885
 21
-96.6677
  0
LINE
  8
0
 10
15.2885
 20
-96.6677
 11
15.1207
 21
-96.8864
  0
LINE
  8
0
 10
15.1207
 20
-96.8864
 11
14.9344
 21
-97.0897
  0
LINE
  8
0
 10
14.9344
 20
-97.0897
 11
14.7312
 21
-97.2759
  0
LINE
  8
0
 10
14.7312
 20
-97.2759
 11
14.5125
 21
-97.4438
  0
LINE
  8
0
 10
14.5125
 20
-97.4438
 11
14.28
 21
-97.5919
  0
LINE
  8
0
 10
14.28
 20
-97.5919
 11
14.0355
 21
-97.7192
  0
LINE
  8
0
 10
14.0355
 20
-97.7192
 11
13.7808
 21
-97.8247
  0
LINE
  8
0
 10
13.7808
 20
-97.8247
 11
13.5179
 21
-97.9076
  0
LINE
  8
0
 10
13.5179
 20
-97.9076
 11
13.2487
 21
-97.9672
  0
LINE
  8
0
 10
13.2487
 20
-97.9672
 11
12.9754
 21
-98.0032
  0
LINE
  8
0
 10
12.9754
 20
-98.0032
 11
12.7
 21
-98.0152
  0
LINE
  8
0
 10
12.7
 20
-98.0152
 11
12.4246
 21
-98.0032
  0
LINE
  8
0
 10
227.781
 20
-98.0032
 11
227.508
 21
-97.9672
  0
LINE
  8
0
 10
227.508
 20
-97.9672
 11
227.239
 21
-97.9076
  0
LINE
  8
0
 10
227.239
 20
-97.9076
 11
226.976
 21
-97.8247
  0
LINE
  8
0
 10
226.976
 20
-97.8247
 11
226.721
 21
-97.7192
  0
LINE
  8
0
 10
226.721
 20
-97.7192
 11
226.477
 21
-97.5919
  0
LINE
  8
0
 10
226.477
 20
-97.5919
 11
226.244
 21
-97.4438
  0
LINE
  8
0
 10
226.244
 20
-97.4438
 11
226.026
 21
-97.2759
  0
LINE
  8
0
 10
226.026
 20
-97.2759
 11
225.822
 21
-97.0897
  0
LINE
  8
0
 10
225.822
 20
-97.0897
 11
225.636
 21
-96.8864
  0
LINE
  8
0
 10
225.636
 20
-96.8864
 11
225.468
 21
-96.6677
  0
LINE
  8
0
 10
225.468
 20
-96.6677
 11
225.32
 21
-96.4352
  0
LINE
  8
0
 10
225.32
 20
-96.4352
 11
225.193
 21
-96.1907
  0
LINE
  8
0
 10
225.193
 20
-96.1907
 11
225.087
 21
-95.936
  0
LINE
  8
0
 10
225.087
 20
-95.936
 11
225.005
 21
-95.6731
  0
LINE
  8
0
 10
225.005
 20
-95.6731
 11
224.945
 21
-95.404
  0
LINE
  8
0
 10
224.945
 20
-95.404
 11
224.909
 21
-95.1306
  0
LINE
  8
0
 10
224.909
 20
-95.1306
 11
224.897
 21
-94.8552
  0
LINE
  8
0
 10
224.897
 20
-94.8552
 11
224.909
 21
-94.5798
  0
LINE
  8
0
 10
224.909
 20
-94.5798
 11
224.945
 21
-94.3065
  0
LINE
  8
0
 10
224.945
 20
-94.3065
 11
225.005
 21
-94.0374
  0
LINE
  8
0
 10
225.005
 20
-94.0374
 11
225.087
 21
-93.7745
  0
LINE
  8
0
 10
225.087
 20
-93.7745
 11
225.193
 21
-93.5198
  0
LINE
  8
0
 10
225.193
 20
-93.5198
 11
225.32
 21
-93.2752
  0
LINE
  8
0
 10
225.32
 20
-93.2752
 11
225.468
 21
-93.0427
  0
LINE
  8
0
 10
225.468
 20
-93.0427
 11
225.636
 21
-92.824
  0
LINE
  8
0
 10
225.636
 20
-92.824
 11
225.822
 21
-92.6208
  0
LINE
  8
0
 10
225.822
 20
-92.6208
 11
226.026
 21
-92.4345
  0
LINE
  8
0
 10
226.026
 20
-92.4345
 11
226.244
 21
-92.2667
  0
LINE
  8
0
 10
226.244
 20
-92.2667
 11
226.477
 21
-92.1186
  0
LINE
  8
0
 10
226.477
 20
-92.1186
 11
226.721
 21
-91.9913
  0
LINE
  8
0
 10
226.721
 20
-91.9913
 11
226.976
 21
-91.8858
  0
LINE
  8
0
 10
226.976
 20
-91.8858
 11
227.239
 21
-91.8029
  0
LINE
  8
0
 10
227.239
 20
-91.8029
 11
227.508
 21
-91.7432
  0
LINE
  8
0
 10
227.508
 20
-91.7432
 11
227.781
 21
-91.7073
  0
LINE
  8
0
 10
227.781
 20
-91.7073
 11
228.057
 21
-91.6952
  0
LINE
  8
0
 10
228.057
 20
-91.6952
 11
228.332
 21
-91.7073
  0
LINE
  8
0
 10
228.332
 20
-91.7073
 11
228.606
 21
-91.7432
  0
LINE
  8
0
 10
228.606
 20
-91.7432
 11
228.875
 21
-91.8029
  0
LINE
  8
0
 10
228.875
 20
-91.8029
 11
229.138
 21
-91.8858
  0
LINE
  8
0
 10
229.138
 20
-91.8858
 11
229.392
 21
-91.9913
  0
LINE
  8
0
 10
229.392
 20
-91.9913
 11
229.637
 21
-92.1186
  0
LINE
  8
0
 10
229.637
 20
-92.1186
 11
229.869
 21
-92.2667
  0
LINE
  8
0
 10
229.869
 20
-92.2667
 11
230.088
 21
-92.4345
  0
LINE
  8
0
 10
230.088
 20
-92.4345
 11
230.291
 21
-92.6208
  0
LINE
  8
0
 10
230.291
 20
-92.6208
 11
230.478
 21
-92.824
  0
LINE
  8
0
 10
230.478
 20
-92.824
 11
230.645
 21
-93.0427
  0
LINE
  8
0
 10
230.645
 20
-93.0427
 11
230.794
 21
-93.2752
  0
LINE
  8
0
 10
230.794
 20
-93.2752
 11
230.921
 21
-93.5198
  0
LINE
  8
0
 10
230.921
 20
-93.5198
 11
231.026
 21
-93.7745
  0
LINE
  8
0
 10
231.026
 20
-93.7745
 11
231.109
 21
-94.0374
  0
LINE
  8
0
 10
231.109
 20
-94.0374
 11
231.169
 21
-94.3065
  0
LINE
  8
0
 10
231.169
 20
-94.3065
 11
231.205
 21
-94.5798
  0
LINE
  8
0
 10
231.205
 20
-94.5798
 11
231.217
 21
-94.8552
  0
LINE
  8
0
 10
231.217
 20
-94.8552
 11
231.205
 21
-95.1306
  0
LINE
  8
0
 10
231.205
 20
-95.1306
 11
231.169
 21
-95.404
  0
LINE
  8
0
 10
231.169
 20
-95.404
 11
231.109
 21
-95.6731
  0
LINE
  8
0
 10
231.109
 20
-95.6731
 11
231.026
 21
-95.936
  0
LINE
  8
0
 10
231.026
 20
-95.936
 11
230.921
 21
-96.1907
  0
LINE
  8
0
 10
230.921
 20
-96.1907
 11
230.794
 21
-96.4352
  0
LINE
  8
0
 10
230.794
 20
-96.4352
 11
230.645
 21
-96.6677
  0
LINE
  8
0
 10
230.645
 20
-96.6677
 11
230.478
 21
-96.8864
  0
LINE
  8
0
 10
230.478
 20
-96.8864
 11
230.291
 21
-97.0897
  0
LINE
  8
0
 10
230.291
 20
-97.0897
 11
230.088
 21
-97.2759
  0
LINE
  8
0
 10
230.088
 20
-97.2759
 11
229.869
 21
-97.4438
  0
LINE
  8
0
 10
229.869
 20
-97.4438
 11
229.637
 21
-97.5919
  0
LINE
  8
0
 10
229.637
 20
-97.5919
 11
229.392
 21
-97.7192
  0
LINE
  8
0
 10
229.392
 20
-97.7192
 11
229.138
 21
-97.8247
  0
LINE
  8
0
 10
229.138
 20
-97.8247
 11
228.875
 21
-97.9076
  0
LINE
  8
0
 10
228.875
 20
-97.9076
 11
228.606
 21
-97.9672
  0
LINE
  8
0
 10
228.606
 20
-97.9672
 11
228.332
 21
-98.0032
  0
LINE
  8
0
 10
228.332
 20
-98.0032
 11
228.057
 21
-98.0152
  0
LINE
  8
0
 10
228.057
 20
-98.0152
 11
227.781
 21
-98.0032
  0
LINE
  8
0
 10
135.748
 20
-123.937
 11
135.618
 21
-123.92
  0
LINE
  8
0
 10
135.618
 20
-123.92
 11
135.49
 21
-123.892
  0
LINE
  8
0
 10
135.49
 20
-123.892
 11
135.365
 21
-123.852
  0
LINE
  8
0
 10
135.365
 20
-123.852
 11
135.245
 21
-123.802
  0
LINE
  8
0
 10
135.245
 20
-123.802
 11
135.128
 21
-123.742
  0
LINE
  8
0
 10
135.128
 20
-123.742
 11
135.018
 21
-123.672
  0
LINE
  8
0
 10
135.018
 20
-123.672
 11
134.914
 21
-123.592
  0
LINE
  8
0
 10
134.914
 20
-123.592
 11
134.818
 21
-123.504
  0
LINE
  8
0
 10
134.818
 20
-123.504
 11
134.729
 21
-123.407
  0
LINE
  8
0
 10
134.729
 20
-123.407
 11
134.65
 21
-123.303
  0
LINE
  8
0
 10
134.65
 20
-123.303
 11
134.579
 21
-123.193
  0
LINE
  8
0
 10
134.579
 20
-123.193
 11
134.519
 21
-123.077
  0
LINE
  8
0
 10
134.519
 20
-123.077
 11
134.469
 21
-122.956
  0
LINE
  8
0
 10
134.469
 20
-122.956
 11
134.43
 21
-122.831
  0
LINE
  8
0
 10
134.43
 20
-122.831
 11
134.401
 21
-122.703
  0
LINE
  8
0
 10
134.401
 20
-122.703
 11
134.384
 21
-122.574
  0
LINE
  8
0
 10
134.384
 20
-122.574
 11
134.378
 21
-122.443
  0
LINE
  8
0
 10
134.378
 20
-122.443
 11
134.384
 21
-122.312
  0
LINE
  8
0
 10
134.384
 20
-122.312
 11
134.401
 21
-122.182
  0
LINE
  8
0
 10
134.401
 20
-122.182
 11
134.43
 21
-122.055
  0
LINE
  8
0
 10
134.43
 20
-122.055
 11
134.469
 21
-121.93
  0
LINE
  8
0
 10
134.469
 20
-121.93
 11
134.519
 21
-121.809
  0
LINE
  8
0
 10
134.519
 20
-121.809
 11
134.579
 21
-121.693
  0
LINE
  8
0
 10
134.579
 20
-121.693
 11
134.65
 21
-121.582
  0
LINE
  8
0
 10
134.65
 20
-121.582
 11
134.729
 21
-121.479
  0
LINE
  8
0
 10
134.729
 20
-121.479
 11
134.818
 21
-121.382
  0
LINE
  8
0
 10
134.818
 20
-121.382
 11
134.914
 21
-121.294
  0
LINE
  8
0
 10
134.914
 20
-121.294
 11
135.018
 21
-121.214
  0
LINE
  8
0
 10
135.018
 20
-121.214
 11
135.128
 21
-121.144
  0
LINE
  8
0
 10
135.128
 20
-121.144
 11
135.245
 21
-121.083
  0
LINE
  8
0
 10
135.245
 20
-121.083
 11
135.365
 21
-121.033
  0
LINE
  8
0
 10
135.365
 20
-121.033
 11
135.49
 21
-120.994
  0
LINE
  8
0
 10
135.49
 20
-120.994
 11
135.618
 21
-120.966
  0
LINE
  8
0
 10
135.618
 20
-120.966
 11
135.748
 21
-120.949
  0
LINE
  8
0
 10
135.748
 20
-120.949
 11
135.878
 21
-120.943
  0
LINE
  8
0
 10
135.878
 20
-120.943
 11
136.009
 21
-120.949
  0
LINE
  8
0
 10
136.009
 20
-120.949
 11
136.139
 21
-120.966
  0
LINE
  8
0
 10
136.139
 20
-120.966
 11
136.267
 21
-120.994
  0
LINE
  8
0
 10
136.267
 20
-120.994
 11
136.391
 21
-121.033
  0
LINE
  8
0
 10
136.391
 20
-121.033
 11
136.512
 21
-121.083
  0
LINE
  8
0
 10
136.512
 20
-121.083
 11
136.628
 21
-121.144
  0
LINE
  8
0
 10
136.628
 20
-121.144
 11
136.739
 21
-121.214
  0
LINE
  8
0
 10
136.739
 20
-121.214
 11
136.843
 21
-121.294
  0
LINE
  8
0
 10
136.843
 20
-121.294
 11
136.939
 21
-121.382
  0
LINE
  8
0
 10
136.939
 20
-121.382
 11
137.028
 21
-121.479
  0
LINE
  8
0
 10
137.028
 20
-121.479
 11
137.107
 21
-121.582
  0
LINE
  8
0
 10
137.107
 20
-121.582
 11
137.177
 21
-121.693
  0
LINE
  8
0
 10
137.177
 20
-121.693
 11
137.238
 21
-121.809
  0
LINE
  8
0
 10
137.238
 20
-121.809
 11
137.288
 21
-121.93
  0
LINE
  8
0
 10
137.288
 20
-121.93
 11
137.327
 21
-122.055
  0
LINE
  8
0
 10
137.327
 20
-122.055
 11
137.356
 21
-122.182
  0
LINE
  8
0
 10
137.356
 20
-122.182
 11
137.373
 21
-122.312
  0
LINE
  8
0
 10
137.373
 20
-122.312
 11
137.378
 21
-122.443
  0
LINE
  8
0
 10
137.378
 20
-122.443
 11
137.373
 21
-122.574
  0
LINE
  8
0
 10
137.373
 20
-122.574
 11
137.356
 21
-122.703
  0
LINE
  8
0
 10
137.356
 20
-122.703
 11
137.327
 21
-122.831
  0
LINE
  8
0
 10
137.327
 20
-122.831
 11
137.288
 21
-122.956
  0
LINE
  8
0
 10
137.288
 20
-122.956
 11
137.238
 21
-123.077
  0
LINE
  8
0
 10
137.238
 20
-123.077
 11
137.177
 21
-123.193
  0
LINE
  8
0
 10
137.177
 20
-123.193
 11
137.107
 21
-123.303
  0
LINE
  8
0
 10
137.107
 20
-123.303
 11
137.028
 21
-123.407
  0
LINE
  8
0
 10
137.028
 20
-123.407
 11
136.939
 21
-123.504
  0
LINE
  8
0
 10
136.939
 20
-123.504
 11
136.843
 21
-123.592
  0
LINE
  8
0
 10
136.843
 20
-123.592
 11
136.739
 21
-123.672
  0
LINE
  8
0
 10
136.739
 20
-123.672
 11
136.628
 21
-123.742
  0
LINE
  8
0
 10
136.628
 20
-123.742
 11
136.512
 21
-123.802
  0
LINE
  8
0
 10
136.512
 20
-123.802
 11
136.391
 21
-123.852
  0
LINE
  8
0
 10
136.391
 20
-123.852
 11
136.267
 21
-123.892
  0
LINE
  8
0
 10
136.267
 20
-123.892
 11
136.139
 21
-123.92
  0
LINE
  8
0
 10
136.139
 20
-123.92
 11
136.009
 21
-123.937
  0
LINE
  8
0
 10
136.009
 20
-123.937
 11
135.878
 21
-123.943
  0
LINE
  8
0
 10
135.878
 20
-123.943
 11
135.748
 21
-123.937
  0
LINE
  8
0
 10
104.748
 20
-123.937
 11
104.618
 21
-123.92
  0
LINE
  8
0
 10
104.618
 20
-123.92
 11
104.49
 21
-123.892
  0
LINE
  8
0
 10
104.49
 20
-123.892
 11
104.365
 21
-123.852
  0
LINE
  8
0
 10
104.365
 20
-123.852
 11
104.245
 21
-123.802
  0
LINE
  8
0
 10
104.245
 20
-123.802
 11
104.128
 21
-123.742
  0
LINE
  8
0
 10
104.128
 20
-123.742
 11
104.018
 21
-123.672
  0
LINE
  8
0
 10
104.018
 20
-123.672
 11
103.914
 21
-123.592
  0
LINE
  8
0
 10
103.914
 20
-123.592
 11
103.818
 21
-123.504
  0
LINE
  8
0
 10
103.818
 20
-123.504
 11
103.729
 21
-123.407
  0
LINE
  8
0
 10
103.729
 20
-123.407
 11
103.65
 21
-123.303
  0
LINE
  8
0
 10
103.65
 20
-123.303
 11
103.579
 21
-123.193
  0
LINE
  8
0
 10
103.579
 20
-123.193
 11
103.519
 21
-123.077
  0
LINE
  8
0
 10
103.519
 20
-123.077
 11
103.469
 21
-122.956
  0
LINE
  8
0
 10
103.469
 20
-122.956
 11
103.43
 21
-122.831
  0
LINE
  8
0
 10
103.43
 20
-122.831
 11
103.401
 21
-122.703
  0
LINE
  8
0
 10
103.401
 20
-122.703
 11
103.384
 21
-122.574
  0
LINE
  8
0
 10
103.384
 20
-122.574
 11
103.378
 21
-122.443
  0
LINE
  8
0
 10
103.378
 20
-122.443
 11
103.384
 21
-122.312
  0
LINE
  8
0
 10
103.384
 20
-122.312
 11
103.401
 21
-122.182
  0
LINE
  8
0
 10
103.401
 20
-122.182
 11
103.43
 21
-122.055
  0
LINE
  8
0
 10
103.43
 20
-122.055
 11
103.469
 21
-121.93
  0
LINE
  8
0
 10
103.469
 20
-121.93
 11
103.519
 21
-121.809
  0
LINE
  8
0
 10
103.519
 20
-121.809
 11
103.579
 21
-121.693
  0
LINE
  8
0
 10
103.579
 20
-121.693
 11
103.65
 21
-121.582
  0
LINE
  8
0
 10
103.65
 20
-121.582
 11
103.729
 21
-121.479
  0
LINE
  8
0
 10
103.729
 20
-121.479
 11
103.818
 21
-121.382
  0
LINE
  8
0
 10
103.818
 20
-121.382
 11
103.914
 21
-121.294
  0
LINE
  8
0
 10
103.914
 20
-121.294
 11
104.018
 21
-121.214
  0
LINE
  8
0
 10
104.018
 20
-121.214
 11
104.128
 21
-121.144
  0
LINE
  8
0
 10
104.128
 20
-121.144
 11
104.245
 21
-121.083
  0
LINE
  8
0
 10
104.245
 20
-121.083
 11
104.365
 21
-121.033
  0
LINE
  8
0
 10
104.365
 20
-121.033
 11
104.49
 21
-120.994
  0
LINE
  8
0
 10
104.49
 20
-120.994
 11
104.618
 21
-120.966
  0
LINE
  8
0
 10
104.618
 20
-120.966
 11
104.748
 21
-120.949
  0
LINE
  8
0
 10
104.748
 20
-120.949
 11
104.878
 21
-120.943
  0
LINE
  8
0
 10
104.878
 20
-120.943
 11
105.009
 21
-120.949
  0
LINE
  8
0
 10
105.009
 20
-120.949
 11
105.139
 21
-120.966
  0
LINE
  8
0
 10
105.139
 20
-120.966
 11
105.267
 21
-120.994
  0
LINE
  8
0
 10
105.267
 20
-120.994
 11
105.391
 21
-121.033
  0
LINE
  8
0
 10
105.391
 20
-121.033
 11
105.512
 21
-121.083
  0
LINE
  8
0
 10
105.512
 20
-121.083
 11
105.628
 21
-121.144
  0
LINE
  8
0
 10
105.628
 20
-121.144
 11
105.739
 21
-121.214
  0
LINE
  8
0
 10
105.739
 20
-121.214
 11
105.843
 21
-121.294
  0
LINE
  8
0
 10
105.843
 20
-121.294
 11
105.939
 21
-121.382
  0
LINE
  8
0
 10
105.939
 20
-121.382
 11
106.028
 21
-121.479
  0
LINE
  8
0
 10
106.028
 20
-121.479
 11
106.107
 21
-121.582
  0
LINE
  8
0
 10
106.107
 20
-121.582
 11
106.177
 21
-121.693
  0
LINE
  8
0
 10
106.177
 20
-121.693
 11
106.238
 21
-121.809
  0
LINE
  8
0
 10
106.238
 20
-121.809
 11
106.288
 21
-121.93
  0
LINE
  8
0
 10
106.288
 20
-121.93
 11
106.327
 21
-122.055
  0
LINE
  8
0
 10
106.327
 20
-122.055
 11
106.356
 21
-122.182
  0
LINE
  8
0
 10
106.356
 20
-122.182
 11
106.373
 21
-122.312
  0
LINE
  8
0
 10
106.373
 20
-122.312
 11
106.378
 21
-122.443
  0
LINE
  8
0
 10
106.378
 20
-122.443
 11
106.373
 21
-122.574
  0
LINE
  8
0
 10
106.373
 20
-122.574
 11
106.356
 21
-122.703
  0
LINE
  8
0
 10
106.356
 20
-122.703
 11
106.327
 21
-122.831
  0
LINE
  8
0
 10
106.327
 20
-122.831
 11
106.288
 21
-122.956
  0
LINE
  8
0
 10
106.288
 20
-122.956
 11
106.238
 21
-123.077
  0
LINE
  8
0
 10
106.238
 20
-123.077
 11
106.177
 21
-123.193
  0
LINE
  8
0
 10
106.177
 20
-123.193
 11
106.107
 21
-123.303
  0
LINE
  8
0
 10
106.107
 20
-123.303
 11
106.028
 21
-123.407
  0
LINE
  8
0
 10
106.028
 20
-123.407
 11
105.939
 21
-123.504
  0
LINE
  8
0
 10
105.939
 20
-123.504
 11
105.843
 21
-123.592
  0
LINE
  8
0
 10
105.843
 20
-123.592
 11
105.739
 21
-123.672
  0
LINE
  8
0
 10
105.739
 20
-123.672
 11
105.628
 21
-123.742
  0
LINE
  8
0
 10
105.628
 20
-123.742
 11
105.512
 21
-123.802
  0
LINE
  8
0
 10
105.512
 20
-123.802
 11
105.391
 21
-123.852
  0
LINE
  8
0
 10
105.391
 20
-123.852
 11
105.267
 21
-123.892
  0
LINE
  8
0
 10
105.267
 20
-123.892
 11
105.139
 21
-123.92
  0
LINE
  8
0
 10
105.139
 20
-123.92
 11
105.009
 21
-123.937
  0
LINE
  8
0
 10
105.009
 20
-123.937
 11
104.878
 21
-123.943
  0
LINE
  8
0
 10
104.878
 20
-123.943
 11
104.748
 21
-123.937
  0
LINE
  8
0
 10
119.409
 20
-149.026
 11
118.447
 21
-148.899
  0
LINE
  8
0
 10
118.447
 20
-148.899
 11
117.499
 21
-148.689
  0
LINE
  8
0
 10
117.499
 20
-148.689
 11
116.573
 21
-148.397
  0
LINE
  8
0
 10
116.573
 20
-148.397
 11
115.677
 21
-148.026
  0
LINE
  8
0
 10
115.677
 20
-148.026
 11
114.816
 21
-147.577
  0
LINE
  8
0
 10
114.816
 20
-147.577
 11
113.997
 21
-147.056
  0
LINE
  8
0
 10
113.997
 20
-147.056
 11
113.227
 21
-146.465
  0
LINE
  8
0
 10
113.227
 20
-146.465
 11
112.512
 21
-145.809
  0
LINE
  8
0
 10
112.512
 20
-145.809
 11
111.856
 21
-145.094
  0
LINE
  8
0
 10
111.856
 20
-145.094
 11
111.265
 21
-144.324
  0
LINE
  8
0
 10
111.265
 20
-144.324
 11
110.744
 21
-143.505
  0
LINE
  8
0
 10
110.744
 20
-143.505
 11
110.296
 21
-142.644
  0
LINE
  8
0
 10
110.296
 20
-142.644
 11
109.924
 21
-141.748
  0
LINE
  8
0
 10
109.924
 20
-141.748
 11
109.633
 21
-140.822
  0
LINE
  8
0
 10
109.633
 20
-140.822
 11
109.422
 21
-139.875
  0
LINE
  8
0
 10
109.422
 20
-139.875
 11
109.296
 21
-138.912
  0
LINE
  8
0
 10
109.296
 20
-138.912
 11
109.253
 21
-137.943
  0
LINE
  8
0
 10
109.253
 20
-137.943
 11
109.296
 21
-136.973
  0
LINE
  8
0
 10
109.296
 20
-136.973
 11
109.422
 21
-136.011
  0
LINE
  8
0
 10
109.422
 20
-136.011
 11
109.633
 21
-135.064
  0
LINE
  8
0
 10
109.633
 20
-135.064
 11
109.924
 21
-134.138
  0
LINE
  8
0
 10
109.924
 20
-134.138
 11
110.296
 21
-133.241
  0
LINE
  8
0
 10
110.296
 20
-133.241
 11
110.744
 21
-132.38
  0
LINE
  8
0
 10
110.744
 20
-132.38
 11
111.265
 21
-131.562
  0
LINE
  8
0
 10
111.265
 20
-131.562
 11
111.856
 21
-130.792
  0
LINE
  8
0
 10
111.856
 20
-130.792
 11
112.512
 21
-130.076
  0
LINE
  8
0
 10
112.512
 20
-130.076
 11
113.227
 21
-129.421
  0
LINE
  8
0
 10
113.227
 20
-129.421
 11
113.997
 21
-128.83
  0
LINE
  8
0
 10
113.997
 20
-128.83
 11
114.816
 21
-128.308
  0
LINE
  8
0
 10
114.816
 20
-128.308
 11
115.677
 21
-127.86
  0
LINE
  8
0
 10
115.677
 20
-127.86
 11
116.573
 21
-127.489
  0
LINE
  8
0
 10
116.573
 20
-127.489
 11
117.499
 21
-127.197
  0
LINE
  8
0
 10
117.499
 20
-127.197
 11
118.447
 21
-126.987
  0
LINE
  8
0
 10
118.447
 20
-126.987
 11
119.409
 21
-126.86
  0
LINE
  8
0
 10
119.409
 20
-126.86
 11
120.378
 21
-126.818
  0
LINE
  8
0
 10
120.378
 20
-126.818
 11
121.348
 21
-126.86
  0
LINE
  8
0
 10
121.348
 20
-126.86
 11
122.31
 21
-126.987
  0
LINE
  8
0
 10
122.31
 20
-126.987
 11
123.258
 21
-127.197
  0
LINE
  8
0
 10
123.258
 20
-127.197
 11
124.183
 21
-127.489
  0
LINE
  8
0
 10
124.183
 20
-127.489
 11
125.08
 21
-127.86
  0
LINE
  8
0
 10
125.08
 20
-127.86
 11
125.941
 21
-128.308
  0
LINE
  8
0
 10
125.941
 20
-128.308
 11
126.759
 21
-128.83
  0
LINE
  8
0
 10
126.759
 20
-128.83
 11
127.529
 21
-129.421
  0
LINE
  8
0
 10
127.529
 20
-129.421
 11
128.245
 21
-130.076
  0
LINE
  8
0
 10
128.245
 20
-130.076
 11
128.901
 21
-130.792
  0
LINE
  8
0
 10
128.901
 20
-130.792
 11
129.492
 21
-131.562
  0
LINE
  8
0
 10
129.492
 20
-131.562
 11
130.013
 21
-132.38
  0
LINE
  8
0
 10
130.013
 20
-132.38
 11
130.461
 21
-133.241
  0
LINE
  8
0
 10
130.461
 20
-133.241
 11
130.833
 21
-134.138
  0
LINE
  8
0
 10
130.833
 20
-134.138
 11
131.124
 21
-135.064
  0
LINE
  8
0
 10
131.124
 20
-135.064
 11
131.334
 21
-136.011
  0
LINE
  8
0
 10
131.334
 20
-136.011
 11
131.461
 21
-136.973
  0
LINE
  8
0
 10
131.461
 20
-136.973
 11
131.503
 21
-137.943
  0
LINE
  8
0
 10
131.503
 20
-137.943
 11
131.461
 21
-138.912
  0
LINE
  8
0
 10
131.461
 20
-138.912
 11
131.334
 21
-139.875
  0
LINE
  8
0
 10
131.334
 20
-139.875
 11
131.124
 21
-140.822
  0
LINE
  8
0
 10
131.124
 20
-140.822
 11
130.833
 21
-141.748
  0
LINE
  8
0
 10
130.833
 20
-141.748
 11
130.461
 21
-142.644
  0
LINE
  8
0
 10
130.461
 20
-142.644
 11
130.013
 21
-143.505
  0
LINE
  8
0
 10
130.013
 20
-143.505
 11
129.492
 21
-144.324
  0
LINE
  8
0
 10
129.492
 20
-144.324
 11
128.901
 21
-145.094
  0
LINE
  8
0
 10
128.901
 20
-145.094
 11
128.245
 21
-145.809
  0
LINE
  8
0
 10
128.245
 20
-145.809
 11
127.529
 21
-146.465
  0
LINE
  8
0
 10
127.529
 20
-146.465
 11
126.759
 21
-147.056
  0
LINE
  8
0
 10
126.759
 20
-147.056
 11
125.941
 21
-147.577
  0
LINE
  8
0
 10
125.941
 20
-147.577
 11
125.08
 21
-148.026
  0
LINE
  8
0
 10
125.08
 20
-148.026
 11
124.183
 21
-148.397
  0
LINE
  8
0
 10
124.183
 20
-148.397
 11
123.258
 21
-148.689
  0
LINE
  8
0
 10
123.258
 20
-148.689
 11
122.31
 21
-148.899
  0
LINE
  8
0
 10
122.31
 20
-148.899
 11
121.348
 21
-149.026
  0
LINE
  8
0
 10
121.348
 20
-149.026
 11
120.378
 21
-149.068
  0
LINE
  8
0
 10
120.378
 20
-149.068
 11
119.409
 21
-149.026
  0
LINE
  8
0
 10
227.781
 20
-155.785
 11
227.508
 21
-155.749
  0
LINE
  8
0
 10
227.508
 20
-155.749
 11
227.239
 21
-155.689
  0
LINE
  8
0
 10
227.239
 20
-155.689
 11
226.976
 21
-155.606
  0
LINE
  8
0
 10
226.976
 20
-155.606
 11
226.721
 21
-155.501
  0
LINE
  8
0
 10
226.721
 20
-155.501
 11
226.477
 21
-155.374
  0
LINE
  8
0
 10
226.477
 20
-155.374
 11
226.244
 21
-155.225
  0
LINE
  8
0
 10
226.244
 20
-155.225
 11
226.026
 21
-155.058
  0
LINE
  8
0
 10
226.026
 20
-155.058
 11
225.822
 21
-154.871
  0
LINE
  8
0
 10
225.822
 20
-154.871
 11
225.636
 21
-154.668
  0
LINE
  8
0
 10
225.636
 20
-154.668
 11
225.468
 21
-154.449
  0
LINE
  8
0
 10
225.468
 20
-154.449
 11
225.32
 21
-154.217
  0
LINE
  8
0
 10
225.32
 20
-154.217
 11
225.193
 21
-153.972
  0
LINE
  8
0
 10
225.193
 20
-153.972
 11
225.087
 21
-153.718
  0
LINE
  8
0
 10
225.087
 20
-153.718
 11
225.005
 21
-153.455
  0
LINE
  8
0
 10
225.005
 20
-153.455
 11
224.945
 21
-153.186
  0
LINE
  8
0
 10
224.945
 20
-153.186
 11
224.909
 21
-152.912
  0
LINE
  8
0
 10
224.909
 20
-152.912
 11
224.897
 21
-152.637
  0
LINE
  8
0
 10
224.897
 20
-152.637
 11
224.909
 21
-152.361
  0
LINE
  8
0
 10
224.909
 20
-152.361
 11
224.945
 21
-152.088
  0
LINE
  8
0
 10
224.945
 20
-152.088
 11
225.005
 21
-151.819
  0
LINE
  8
0
 10
225.005
 20
-151.819
 11
225.087
 21
-151.556
  0
LINE
  8
0
 10
225.087
 20
-151.556
 11
225.193
 21
-151.301
  0
LINE
  8
0
 10
225.193
 20
-151.301
 11
225.32
 21
-151.057
  0
LINE
  8
0
 10
225.32
 20
-151.057
 11
225.468
 21
-150.824
  0
LINE
  8
0
 10
225.468
 20
-150.824
 11
225.636
 21
-150.606
  0
LINE
  8
0
 10
225.636
 20
-150.606
 11
225.822
 21
-150.402
  0
LINE
  8
0
 10
225.822
 20
-150.402
 11
226.026
 21
-150.216
  0
LINE
  8
0
 10
226.026
 20
-150.216
 11
226.244
 21
-150.048
  0
LINE
  8
0
 10
226.244
 20
-150.048
 11
226.477
 21
-149.9
  0
LINE
  8
0
 10
226.477
 20
-149.9
 11
226.721
 21
-149.773
  0
LINE
  8
0
 10
226.721
 20
-149.773
 11
226.976
 21
-149.667
  0
LINE
  8
0
 10
226.976
 20
-149.667
 11
227.239
 21
-149.585
  0
LINE
  8
0
 10
227.239
 20
-149.585
 11
227.508
 21
-149.525
  0
LINE
  8
0
 10
227.508
 20
-149.525
 11
227.781
 21
-149.489
  0
LINE
  8
0
 10
227.781
 20
-149.489
 11
228.057
 21
-149.477
  0
LINE
  8
0
 10
228.057
 20
-149.477
 11
228.332
 21
-149.489
  0
LINE
  8
0
 10
228.332
 20
-149.489
 11
228.606
 21
-149.525
  0
LINE
  8
0
 10
228.606
 20
-149.525
 11
228.875
 21
-149.585
  0
LINE
  8
0
 10
228.875
 20
-149.585
 11
229.138
 21
-149.667
  0
LINE
  8
0
 10
229.138
 20
-149.667
 11
229.392
 21
-149.773
  0
LINE
  8
0
 10
229.392
 20
-149.773
 11
229.637
 21
-149.9
  0
LINE
  8
0
 10
229.637
 20
-149.9
 11
229.869
 21
-150.048
  0
LINE
  8
0
 10
229.869
 20
-150.048
 11
230.088
 21
-150.216
  0
LINE
  8
0
 10
230.088
 20
-150.216
 11
230.291
 21
-150.402
  0
LINE
  8
0
 10
230.291
 20
-150.402
 11
230.478
 21
-150.606
  0
LINE
  8
0
 10
230.478
 20
-150.606
 11
230.645
 21
-150.824
  0
LINE
  8
0
 10
230.645
 20
-150.824
 11
230.794
 21
-151.057
  0
LINE
  8
0
 10
230.794
 20
-151.057
 11
230.921
 21
-151.301
  0
LINE
  8
0
 10
230.921
 20
-151.301
 11
231.026
 21
-151.556
  0
LINE
  8
0
 10
231.026
 20
-151.556
 11
231.109
 21
-151.819
  0
LINE
  8
0
 10
231.109
 20
-151.819
 11
231.169
 21
-152.088
  0
LINE
  8
0
 10
231.169
 20
-152.088
 11
231.205
 21
-152.361
  0
LINE
  8
0
 10
231.205
 20
-152.361
 11
231.217
 21
-152.637
  0
LINE
  8
0
 10
231.217
 20
-152.637
 11
231.205
 21
-152.912
  0
LINE
  8
0
 10
231.205
 20
-152.912
 11
231.169
 21
-153.186
  0
LINE
  8
0
 10
231.169
 20
-153.186
 11
231.109
 21
-153.455
  0
LINE
  8
0
 10
231.109
 20
-153.455
 11
231.026
 21
-153.718
  0
LINE
  8
0
 10
231.026
 20
-153.718
 11
230.921
 21
-153.972
  0
LINE
  8
0
 10
230.921
 20
-153.972
 11
230.794
 21
-154.217
  0
LINE
  8
0
 10
230.794
 20
-154.217
 11
230.645
 21
-154.449
  0
LINE
  8
0
 10
230.645
 20
-154.449
 11
230.478
 21
-154.668
  0
LINE
  8
0
 10
230.478
 20
-154.668
 11
230.291
 21
-154.871
  0
LINE
  8
0
 10
230.291
 20
-154.871
 11
230.088
 21
-155.058
  0
LINE
  8
0
 10
230.088
 20
-155.058
 11
229.869
 21
-155.225
  0
LINE
  8
0
 10
229.869
 20
-155.225
 11
229.637
 21
-155.374
  0
LINE
  8
0
 10
229.637
 20
-155.374
 11
229.392
 21
-155.501
  0
LINE
  8
0
 10
229.392
 20
-155.501
 11
229.138
 21
-155.606
  0
LINE
  8
0
 10
229.138
 20
-155.606
 11
228.875
 21
-155.689
  0
LINE
  8
0
 10
228.875
 20
-155.689
 11
228.606
 21
-155.749
  0
LINE
  8
0
 10
228.606
 20
-155.749
 11
228.332
 21
-155.785
  0
LINE
  8
0
 10
228.332
 20
-155.785
 11
228.057
 21
-155.797
  0
LINE
  8
0
 10
228.057
 20
-155.797
 11
227.781
 21
-155.785
  0
LINE
  8
0
 10
12.4246
 20
-155.785
 11
12.1513
 21
-155.749
  0
LINE
  8
0
 10
12.1513
 20
-155.749
 11
11.8821
 21
-155.689
  0
LINE
  8
0
 10
11.8821
 20
-155.689
 11
11.6192
 21
-155.606
  0
LINE
  8
0
 10
11.6192
 20
-155.606
 11
11.3645
 21
-155.501
  0
LINE
  8
0
 10
11.3645
 20
-155.501
 11
11.12
 21
-155.374
  0
LINE
  8
0
 10
11.12
 20
-155.374
 11
10.8875
 21
-155.225
  0
LINE
  8
0
 10
10.8875
 20
-155.225
 11
10.6688
 21
-155.058
  0
LINE
  8
0
 10
10.6688
 20
-155.058
 11
10.4655
 21
-154.871
  0
LINE
  8
0
 10
10.4655
 20
-154.871
 11
10.2793
 21
-154.668
  0
LINE
  8
0
 10
10.2793
 20
-154.668
 11
10.1115
 21
-154.449
  0
LINE
  8
0
 10
10.1115
 20
-154.449
 11
9.96335
 21
-154.217
  0
LINE
  8
0
 10
9.96335
 20
-154.217
 11
9.83606
 21
-153.972
  0
LINE
  8
0
 10
9.83606
 20
-153.972
 11
9.73056
 21
-153.718
  0
LINE
  8
0
 10
9.73056
 20
-153.718
 11
9.64767
 21
-153.455
  0
LINE
  8
0
 10
9.64767
 20
-153.455
 11
9.588
 21
-153.186
  0
LINE
  8
0
 10
9.588
 20
-153.186
 11
9.55202
 21
-152.912
  0
LINE
  8
0
 10
9.55202
 20
-152.912
 11
9.53999
 21
-152.637
  0
LINE
  8
0
 10
9.53999
 20
-152.637
 11
9.55202
 21
-152.361
  0
LINE
  8
0
 10
9.55202
 20
-152.361
 11
9.588
 21
-152.088
  0
LINE
  8
0
 10
9.588
 20
-152.088
 11
9.64767
 21
-151.819
  0
LINE
  8
0
 10
9.64767
 20
-151.819
 11
9.73056
 21
-151.556
  0
LINE
  8
0
 10
9.73056
 20
-151.556
 11
9.83606
 21
-151.301
  0
LINE
  8
0
 10
9.83606
 20
-151.301
 11
9.96335
 21
-151.057
  0
LINE
  8
0
 10
9.96335
 20
-151.057
 11
10.1115
 21
-150.824
  0
LINE
  8
0
 10
10.1115
 20
-150.824
 11
10.2793
 21
-150.606
  0
LINE
  8
0
 10
10.2793
 20
-150.606
 11
10.4655
 21
-150.402
  0
LINE
  8
0
 10
10.4655
 20
-150.402
 11
10.6688
 21
-150.216
  0
LINE
  8
0
 10
10.6688
 20
-150.216
 11
10.8875
 21
-150.048
  0
LINE
  8
0
 10
10.8875
 20
-150.048
 11
11.12
 21
-149.9
  0
LINE
  8
0
 10
11.12
 20
-149.9
 11
11.3645
 21
-149.773
  0
LINE
  8
0
 10
11.3645
 20
-149.773
 11
11.6192
 21
-149.667
  0
LINE
  8
0
 10
11.6192
 20
-149.667
 11
11.8821
 21
-149.585
  0
LINE
  8
0
 10
11.8821
 20
-149.585
 11
12.1513
 21
-149.525
  0
LINE
  8
0
 10
12.1513
 20
-149.525
 11
12.4246
 21
-149.489
  0
LINE
  8
0
 10
12.4246
 20
-149.489
 11
12.7
 21
-149.477
  0
LINE
  8
0
 10
12.7
 20
-149.477
 11
12.9754
 21
-149.489
  0
LINE
  8
0
 10
12.9754
 20
-149.489
 11
13.2487
 21
-149.525
  0
LINE
  8
0
 10
13.2487
 20
-149.525
 11
13.5179
 21
-149.585
  0
LINE
  8
0
 10
13.5179
 20
-149.585
 11
13.7808
 21
-149.667
  0
LINE
  8
0
 10
13.7808
 20
-149.667
 11
14.0355
 21
-149.773
  0
LINE
  8
0
 10
14.0355
 20
-149.773
 11
14.28
 21
-149.9
  0
LINE
  8
0
 10
14.28
 20
-149.9
 11
14.5125
 21
-150.048
  0
LINE
  8
0
 10
14.5125
 20
-150.048
 11
14.7312
 21
-150.216
  0
LINE
  8
0
 10
14.7312
 20
-150.216
 11
14.9344
 21
-150.402
  0
LINE
  8
0
 10
14.9344
 20
-150.402
 11
15.1207
 21
-150.606
  0
LINE
  8
0
 10
15.1207
 20
-150.606
 11
15.2885
 21
-150.824
  0
LINE
  8
0
 10
15.2885
 20
-150.824
 11
15.4366
 21
-151.057
  0
LINE
  8
0
 10
15.4366
 20
-151.057
 11
15.5639
 21
-151.301
  0
LINE
  8
0
 10
15.5639
 20
-151.301
 11
15.6694
 21
-151.556
  0
LINE
  8
0
 10
15.6694
 20
-151.556
 11
15.7523
 21
-151.819
  0
LINE
  8
0
 10
15.7523
 20
-151.819
 11
15.812
 21
-152.088
  0
LINE
  8
0
 10
15.812
 20
-152.088
 11
15.848
 21
-152.361
  0
LINE
  8
0
 10
15.848
 20
-152.361
 11
15.86
 21
-152.637
  0
LINE
  8
0
 10
15.86
 20
-152.637
 11
15.848
 21
-152.912
  0
LINE
  8
0
 10
15.848
 20
-152.912
 11
15.812
 21
-153.186
  0
LINE
  8
0
 10
15.812
 20
-153.186
 11
15.7523
 21
-153.455
  0
LINE
  8
0
 10
15.7523
 20
-153.455
 11
15.6694
 21
-153.718
  0
LINE
  8
0
 10
15.6694
 20
-153.718
 11
15.5639
 21
-153.972
  0
LINE
  8
0
 10
15.5639
 20
-153.972
 11
15.4366
 21
-154.217
  0
LINE
  8
0
 10
15.4366
 20
-154.217
 11
15.2885
 21
-154.449
  0
LINE
  8
0
 10
15.2885
 20
-154.449
 11
15.1207
 21
-154.668
  0
LINE
  8
0
 10
15.1207
 20
-154.668
 11
14.9344
 21
-154.871
  0
LINE
  8
0
 10
14.9344
 20
-154.871
 11
14.7312
 21
-155.058
  0
LINE
  8
0
 10
14.7312
 20
-155.058
 11
14.5125
 21
-155.225
  0
LINE
  8
0
 10
14.5125
 20
-155.225
 11
14.28
 21
-155.374
  0
LINE
  8
0
 10
14.28
 20
-155.374
 11
14.0355
 21
-155.501
  0
LINE
  8
0
 10
14.0355
 20
-155.501
 11
13.7808
 21
-155.606
  0
LINE
  8
0
 10
13.7808
 20
-155.606
 11
13.5179
 21
-155.689
  0
LINE
  8
0
 10
13.5179
 20
-155.689
 11
13.2487
 21
-155.749
  0
LINE
  8
0
 10
13.2487
 20
-155.749
 11
12.9754
 21
-155.785
  0
LINE
  8
0
 10
12.9754
 20
-155.785
 11
12.7
 21
-155.797
  0
LINE
  8
0
 10
12.7
 20
-155.797
 11
12.4246
 21
-155.785
  0
LINE
  8
0
 10
135.748
 20
-154.937
 11
135.618
 21
-154.92
  0
LINE
  8
0
 10
135.618
 20
-154.92
 11
135.49
 21
-154.892
  0
LINE
  8
0
 10
135.49
 20
-154.892
 11
135.365
 21
-154.852
  0
LINE
  8
0
 10
135.365
 20
-154.852
 11
135.245
 21
-154.802
  0
LINE
  8
0
 10
135.245
 20
-154.802
 11
135.128
 21
-154.742
  0
LINE
  8
0
 10
135.128
 20
-154.742
 11
135.018
 21
-154.672
  0
LINE
  8
0
 10
135.018
 20
-154.672
 11
134.914
 21
-154.592
  0
LINE
  8
0
 10
134.914
 20
-154.592
 11
134.818
 21
-154.504
  0
LINE
  8
0
 10
134.818
 20
-154.504
 11
134.729
 21
-154.407
  0
LINE
  8
0
 10
134.729
 20
-154.407
 11
134.65
 21
-154.303
  0
LINE
  8
0
 10
134.65
 20
-154.303
 11
134.579
 21
-154.193
  0
LINE
  8
0
 10
134.579
 20
-154.193
 11
134.519
 21
-154.077
  0
LINE
  8
0
 10
134.519
 20
-154.077
 11
134.469
 21
-153.956
  0
LINE
  8
0
 10
134.469
 20
-153.956
 11
134.43
 21
-153.831
  0
LINE
  8
0
 10
134.43
 20
-153.831
 11
134.401
 21
-153.703
  0
LINE
  8
0
 10
134.401
 20
-153.703
 11
134.384
 21
-153.574
  0
LINE
  8
0
 10
134.384
 20
-153.574
 11
134.378
 21
-153.443
  0
LINE
  8
0
 10
134.378
 20
-153.443
 11
134.384
 21
-153.312
  0
LINE
  8
0
 10
134.384
 20
-153.312
 11
134.401
 21
-153.182
  0
LINE
  8
0
 10
134.401
 20
-153.182
 11
134.43
 21
-153.055
  0
LINE
  8
0
 10
134.43
 20
-153.055
 11
134.469
 21
-152.93
  0
LINE
  8
0
 10
134.469
 20
-152.93
 11
134.519
 21
-152.809
  0
LINE
  8
0
 10
134.519
 20
-152.809
 11
134.579
 21
-152.693
  0
LINE
  8
0
 10
134.579
 20
-152.693
 11
134.65
 21
-152.583
  0
LINE
  8
0
 10
134.65
 20
-152.583
 11
134.729
 21
-152.479
  0
LINE
  8
0
 10
134.729
 20
-152.479
 11
134.818
 21
-152.382
  0
LINE
  8
0
 10
134.818
 20
-152.382
 11
134.914
 21
-152.294
  0
LINE
  8
0
 10
134.914
 20
-152.294
 11
135.018
 21
-152.214
  0
LINE
  8
0
 10
135.018
 20
-152.214
 11
135.128
 21
-152.144
  0
LINE
  8
0
 10
135.128
 20
-152.144
 11
135.245
 21
-152.083
  0
LINE
  8
0
 10
135.245
 20
-152.083
 11
135.365
 21
-152.033
  0
LINE
  8
0
 10
135.365
 20
-152.033
 11
135.49
 21
-151.994
  0
LINE
  8
0
 10
135.49
 20
-151.994
 11
135.618
 21
-151.966
  0
LINE
  8
0
 10
135.618
 20
-151.966
 11
135.748
 21
-151.949
  0
LINE
  8
0
 10
135.748
 20
-151.949
 11
135.878
 21
-151.943
  0
LINE
  8
0
 10
135.878
 20
-151.943
 11
136.009
 21
-151.949
  0
LINE
  8
0
 10
136.009
 20
-151.949
 11
136.139
 21
-151.966
  0
LINE
  8
0
 10
136.139
 20
-151.966
 11
136.267
 21
-151.994
  0
LINE
  8
0
 10
136.267
 20
-151.994
 11
136.391
 21
-152.033
  0
LINE
  8
0
 10
136.391
 20
-152.033
 11
136.512
 21
-152.083
  0
LINE
  8
0
 10
136.512
 20
-152.083
 11
136.628
 21
-152.144
  0
LINE
  8
0
 10
136.628
 20
-152.144
 11
136.739
 21
-152.214
  0
LINE
  8
0
 10
136.739
 20
-152.214
 11
136.843
 21
-152.294
  0
LINE
  8
0
 10
136.843
 20
-152.294
 11
136.939
 21
-152.382
  0
LINE
  8
0
 10
136.939
 20
-152.382
 11
137.028
 21
-152.479
  0
LINE
  8
0
 10
137.028
 20
-152.479
 11
137.107
 21
-152.583
  0
LINE
  8
0
 10
137.107
 20
-152.583
 11
137.177
 21
-152.693
  0
LINE
  8
0
 10
137.177
 20
-152.693
 11
137.238
 21
-152.809
  0
LINE
  8
0
 10
137.238
 20
-152.809
 11
137.288
 21
-152.93
  0
LINE
  8
0
 10
137.288
 20
-152.93
 11
137.327
 21
-153.055
  0
LINE
  8
0
 10
137.327
 20
-153.055
 11
137.356
 21
-153.182
  0
LINE
  8
0
 10
137.356
 20
-153.182
 11
137.373
 21
-153.312
  0
LINE
  8
0
 10
137.373
 20
-153.312
 11
137.378
 21
-153.443
  0
LINE
  8
0
 10
137.378
 20
-153.443
 11
137.373
 21
-153.574
  0
LINE
  8
0
 10
137.373
 20
-153.574
 11
137.356
 21
-153.703
  0
LINE
  8
0
 10
137.356
 20
-153.703
 11
137.327
 21
-153.831
  0
LINE
  8
0
 10
137.327
 20
-153.831
 11
137.288
 21
-153.956
  0
LINE
  8
0
 10
137.288
 20
-153.956
 11
137.238
 21
-154.077
  0
LINE
  8
0
 10
137.238
 20
-154.077
 11
137.177
 21
-154.193
  0
LINE
  8
0
 10
137.177
 20
-154.193
 11
137.107
 21
-154.303
  0
LINE
  8
0
 10
137.107
 20
-154.303
 11
137.028
 21
-154.407
  0
LINE
  8
0
 10
137.028
 20
-154.407
 11
136.939
 21
-154.504
  0
LINE
  8
0
 10
136.939
 20
-154.504
 11
136.843
 21
-154.592
  0
LINE
  8
0
 10
136.843
 20
-154.592
 11
136.739
 21
-154.672
  0
LINE
  8
0
 10
136.739
 20
-154.672
 11
136.628
 21
-154.742
  0
LINE
  8
0
 10
136.628
 20
-154.742
 11
136.512
 21
-154.802
  0
LINE
  8
0
 10
136.512
 20
-154.802
 11
136.391
 21
-154.852
  0
LINE
  8
0
 10
136.391
 20
-154.852
 11
136.267
 21
-154.892
  0
LINE
  8
0
 10
136.267
 20
-154.892
 11
136.139
 21
-154.92
  0
LINE
  8
0
 10
136.139
 20
-154.92
 11
136.009
 21
-154.937
  0
LINE
  8
0
 10
136.009
 20
-154.937
 11
135.878
 21
-154.943
  0
LINE
  8
0
 10
135.878
 20
-154.943
 11
135.748
 21
-154.937
  0
LINE
  8
0
 10
104.748
 20
-154.937
 11
104.618
 21
-154.92
  0
LINE
  8
0
 10
104.618
 20
-154.92
 11
104.49
 21
-154.892
  0
LINE
  8
0
 10
104.49
 20
-154.892
 11
104.365
 21
-154.852
  0
LINE
  8
0
 10
104.365
 20
-154.852
 11
104.245
 21
-154.802
  0
LINE
  8
0
 10
104.245
 20
-154.802
 11
104.128
 21
-154.742
  0
LINE
  8
0
 10
104.128
 20
-154.742
 11
104.018
 21
-154.672
  0
LINE
  8
0
 10
104.018
 20
-154.672
 11
103.914
 21
-154.592
  0
LINE
  8
0
 10
103.914
 20
-154.592
 11
103.818
 21
-154.504
  0
LINE
  8
0
 10
103.818
 20
-154.504
 11
103.729
 21
-154.407
  0
LINE
  8
0
 10
103.729
 20
-154.407
 11
103.65
 21
-154.303
  0
LINE
  8
0
 10
103.65
 20
-154.303
 11
103.579
 21
-154.193
  0
LINE
  8
0
 10
103.579
 20
-154.193
 11
103.519
 21
-154.077
  0
LINE
  8
0
 10
103.519
 20
-154.077
 11
103.469
 21
-153.956
  0
LINE
  8
0
 10
103.469
 20
-153.956
 11
103.43
 21
-153.831
  0
LINE
  8
0
 10
103.43
 20
-153.831
 11
103.401
 21
-153.703
  0
LINE
  8
0
 10
103.401
 20
-153.703
 11
103.384
 21
-153.574
  0
LINE
  8
0
 10
103.384
 20
-153.574
 11
103.378
 21
-153.443
  0
LINE
  8
0
 10
103.378
 20
-153.443
 11
103.384
 21
-153.312
  0
LINE
  8
0
 10
103.384
 20
-153.312
 11
103.401
 21
-153.182
  0
LINE
  8
0
 10
103.401
 20
-153.182
 11
103.43
 21
-153.055
  0
LINE
  8
0
 10
103.43
 20
-153.055
 11
103.469
 21
-152.93
  0
LINE
  8
0
 10
103.469
 20
-152.93
 11
103.519
 21
-152.809
  0
LINE
  8
0
 10
103.519
 20
-152.809
 11
103.579
 21
-152.693
  0
LINE
  8
0
 10
103.579
 20
-152.693
 11
103.65
 21
-152.583
  0
LINE
  8
0
 10
103.65
 20
-152.583
 11
103.729
 21
-152.479
  0
LINE
  8
0
 10
103.729
 20
-152.479
 11
103.818
 21
-152.382
  0
LINE
  8
0
 10
103.818
 20
-152.382
 11
103.914
 21
-152.294
  0
LINE
  8
0
 10
103.914
 20
-152.294
 11
104.018
 21
-152.214
  0
LINE
  8
0
 10
104.018
 20
-152.214
 11
104.128
 21
-152.144
  0
LINE
  8
0
 10
104.128
 20
-152.144
 11
104.245
 21
-152.083
  0
LINE
  8
0
 10
104.245
 20
-152.083
 11
104.365
 21
-152.033
  0
LINE
  8
0
 10
104.365
 20
-152.033
 11
104.49
 21
-151.994
  0
LINE
  8
0
 10
104.49
 20
-151.994
 11
104.618
 21
-151.966
  0
LINE
  8
0
 10
104.618
 20
-151.966
 11
104.748
 21
-151.949
  0
LINE
  8
0
 10
104.748
 20
-151.949
 11
104.878
 21
-151.943
  0
LINE
  8
0
 10
104.878
 20
-151.943
 11
105.009
 21
-151.949
  0
LINE
  8
0
 10
105.009
 20
-151.949
 11
105.139
 21
-151.966
  0
LINE
  8
0
 10
105.139
 20
-151.966
 11
105.267
 21
-151.994
  0
LINE
  8
0
 10
105.267
 20
-151.994
 11
105.391
 21
-152.033
  0
LINE
  8
0
 10
105.391
 20
-152.033
 11
105.512
 21
-152.083
  0
LINE
  8
0
 10
105.512
 20
-152.083
 11
105.628
 21
-152.144
  0
LINE
  8
0
 10
105.628
 20
-152.144
 11
105.739
 21
-152.214
  0
LINE
  8
0
 10
105.739
 20
-152.214
 11
105.843
 21
-152.294
  0
LINE
  8
0
 10
105.843
 20
-152.294
 11
105.939
 21
-152.382
  0
LINE
  8
0
 10
105.939
 20
-152.382
 11
106.028
 21
-152.479
  0
LINE
  8
0
 10
106.028
 20
-152.479
 11
106.107
 21
-152.583
  0
LINE
  8
0
 10
106.107
 20
-152.583
 11
106.177
 21
-152.693
  0
LINE
  8
0
 10
106.177
 20
-152.693
 11
106.238
 21
-152.809
  0
LINE
  8
0
 10
106.238
 20
-152.809
 11
106.288
 21
-152.93
  0
LINE
  8
0
 10
106.288
 20
-152.93
 11
106.327
 21
-153.055
  0
LINE
  8
0
 10
106.327
 20
-153.055
 11
106.356
 21
-153.182
  0
LINE
  8
0
 10
106.356
 20
-153.182
 11
106.373
 21
-153.312
  0
LINE
  8
0
 10
106.373
 20
-153.312
 11
106.378
 21
-153.443
  0
LINE
  8
0
 10
106.378
 20
-153.443
 11
106.373
 21
-153.574
  0
LINE
  8
0
 10
106.373
 20
-153.574
 11
106.356
 21
-153.703
  0
LINE
  8
0
 10
106.356
 20
-153.703
 11
106.327
 21
-153.831
  0
LINE
  8
0
 10
106.327
 20
-153.831
 11
106.288
 21
-153.956
  0
LINE
  8
0
 10
106.288
 20
-153.956
 11
106.238
 21
-154.077
  0
LINE
  8
0
 10
106.238
 20
-154.077
 11
106.177
 21
-154.193
  0
LINE
  8
0
 10
106.177
 20
-154.193
 11
106.107
 21
-154.303
  0
LINE
  8
0
 10
106.107
 20
-154.303
 11
106.028
 21
-154.407
  0
LINE
  8
0
 10
106.028
 20
-154.407
 11
105.939
 21
-154.504
  0
LINE
  8
0
 10
105.939
 20
-154.504
 11
105.843
 21
-154.592
  0
LINE
  8
0
 10
105.843
 20
-154.592
 11
105.739
 21
-154.672
  0
LINE
  8
0
 10
105.739
 20
-154.672
 11
105.628
 21
-154.742
  0
LINE
  8
0
 10
105.628
 20
-154.742
 11
105.512
 21
-154.802
  0
LINE
  8
0
 10
105.512
 20
-154.802
 11
105.391
 21
-154.852
  0
LINE
  8
0
 10
105.391
 20
-154.852
 11
105.267
 21
-154.892
  0
LINE
  8
0
 10
105.267
 20
-154.892
 11
105.139
 21
-154.92
  0
LINE
  8
0
 10
105.139
 20
-154.92
 11
105.009
 21
-154.937
  0
LINE
  8
0
 10
105.009
 20
-154.937
 11
104.878
 21
-154.943
  0
LINE
  8
0
 10
104.878
 20
-154.943
 11
104.748
 21
-154.937
  0
LINE
  8
0
 10
33.4305
 20
-176.791
 11
33.1572
 21
-176.755
  0
LINE
  8
0
 10
33.1572
 20
-176.755
 11
32.8881
 21
-176.695
  0
LINE
  8
0
 10
32.8881
 20
-176.695
 11
32.6252
 21
-176.612
  0
LINE
  8
0
 10
32.6252
 20
-176.612
 11
32.3705
 21
-176.507
  0
LINE
  8
0
 10
32.3705
 20
-176.507
 11
32.126
 21
-176.38
  0
LINE
  8
0
 10
32.126
 20
-176.38
 11
31.8935
 21
-176.231
  0
LINE
  8
0
 10
31.8935
 20
-176.231
 11
31.6747
 21
-176.064
  0
LINE
  8
0
 10
31.6747
 20
-176.064
 11
31.4715
 21
-175.877
  0
LINE
  8
0
 10
31.4715
 20
-175.877
 11
31.2853
 21
-175.674
  0
LINE
  8
0
 10
31.2853
 20
-175.674
 11
31.1174
 21
-175.455
  0
LINE
  8
0
 10
31.1174
 20
-175.455
 11
30.9693
 21
-175.223
  0
LINE
  8
0
 10
30.9693
 20
-175.223
 11
30.842
 21
-174.978
  0
LINE
  8
0
 10
30.842
 20
-174.978
 11
30.7365
 21
-174.724
  0
LINE
  8
0
 10
30.7365
 20
-174.724
 11
30.6536
 21
-174.461
  0
LINE
  8
0
 10
30.6536
 20
-174.461
 11
30.594
 21
-174.192
  0
LINE
  8
0
 10
30.594
 20
-174.192
 11
30.558
 21
-173.918
  0
LINE
  8
0
 10
30.558
 20
-173.918
 11
30.546
 21
-173.643
  0
LINE
  8
0
 10
30.546
 20
-173.643
 11
30.558
 21
-173.367
  0
LINE
  8
0
 10
30.558
 20
-173.367
 11
30.594
 21
-173.094
  0
LINE
  8
0
 10
30.594
 20
-173.094
 11
30.6536
 21
-172.825
  0
LINE
  8
0
 10
30.6536
 20
-172.825
 11
30.7365
 21
-172.562
  0
LINE
  8
0
 10
30.7365
 20
-172.562
 11
30.842
 21
-172.307
  0
LINE
  8
0
 10
30.842
 20
-172.307
 11
30.9693
 21
-172.063
  0
LINE
  8
0
 10
30.9693
 20
-172.063
 11
31.1174
 21
-171.83
  0
LINE
  8
0
 10
31.1174
 20
-171.83
 11
31.2853
 21
-171.612
  0
LINE
  8
0
 10
31.2853
 20
-171.612
 11
31.4715
 21
-171.408
  0
LINE
  8
0
 10
31.4715
 20
-171.408
 11
31.6747
 21
-171.222
  0
LINE
  8
0
 10
31.6747
 20
-171.222
 11
31.8935
 21
-171.054
  0
LINE
  8
0
 10
31.8935
 20
-171.054
 11
32.126
 21
-170.906
  0
LINE
  8
0
 10
32.126
 20
-170.906
 11
32.3705
 21
-170.779
  0
LINE
  8
0
 10
32.3705
 20
-170.779
 11
32.6252
 21
-170.673
  0
LINE
  8
0
 10
32.6252
 20
-170.673
 11
32.8881
 21
-170.591
  0
LINE
  8
0
 10
32.8881
 20
-170.591
 11
33.1572
 21
-170.531
  0
LINE
  8
0
 10
33.1572
 20
-170.531
 11
33.4305
 21
-170.495
  0
LINE
  8
0
 10
33.4305
 20
-170.495
 11
33.706
 21
-170.483
  0
LINE
  8
0
 10
33.706
 20
-170.483
 11
33.9814
 21
-170.495
  0
LINE
  8
0
 10
33.9814
 20
-170.495
 11
34.2547
 21
-170.531
  0
LINE
  8
0
 10
34.2547
 20
-170.531
 11
34.5238
 21
-170.591
  0
LINE
  8
0
 10
34.5238
 20
-170.591
 11
34.7867
 21
-170.673
  0
LINE
  8
0
 10
34.7867
 20
-170.673
 11
35.0414
 21
-170.779
  0
LINE
  8
0
 10
35.0414
 20
-170.779
 11
35.286
 21
-170.906
  0
LINE
  8
0
 10
35.286
 20
-170.906
 11
35.5185
 21
-171.054
  0
LINE
  8
0
 10
35.5185
 20
-171.054
 11
35.7372
 21
-171.222
  0
LINE
  8
0
 10
35.7372
 20
-171.222
 11
35.9404
 21
-171.408
  0
LINE
  8
0
 10
35.9404
 20
-171.408
 11
36.1267
 21
-171.612
  0
LINE
  8
0
 10
36.1267
 20
-171.612
 11
36.2945
 21
-171.83
  0
LINE
  8
0
 10
36.2945
 20
-171.83
 11
36.4426
 21
-172.063
  0
LINE
  8
0
 10
36.4426
 20
-172.063
 11
36.5699
 21
-172.307
  0
LINE
  8
0
 10
36.5699
 20
-172.307
 11
36.6754
 21
-172.562
  0
LINE
  8
0
 10
36.6754
 20
-172.562
 11
36.7583
 21
-172.825
  0
LINE
  8
0
 10
36.7583
 20
-172.825
 11
36.8179
 21
-173.094
  0
LINE
  8
0
 10
36.8179
 20
-173.094
 11
36.8539
 21
-173.367
  0
LINE
  8
0
 10
36.8539
 20
-173.367
 11
36.866
 21
-173.643
  0
LINE
  8
0
 10
36.866
 20
-173.643
 11
36.8539
 21
-173.918
  0
LINE
  8
0
 10
36.8539
 20
-173.918
 11
36.8179
 21
-174.192
  0
LINE
  8
0
 10
36.8179
 20
-174.192
 11
36.7583
 21
-174.461
  0
LINE
  8
0
 10
36.7583
 20
-174.461
 11
36.6754
 21
-174.724
  0
LINE
  8
0
 10
36.6754
 20
-174.724
 11
36.5699
 21
-174.978
  0
LINE
  8
0
 10
36.5699
 20
-174.978
 11
36.4426
 21
-175.223
  0
LINE
  8
0
 10
36.4426
 20
-175.223
 11
36.2945
 21
-175.455
  0
LINE
  8
0
 10
36.2945
 20
-175.455
 11
36.1267
 21
-175.674
  0
LINE
  8
0
 10
36.1267
 20
-175.674
 11
35.9404
 21
-175.877
  0
LINE
  8
0
 10
35.9404
 20
-175.877
 11
35.7372
 21
-176.064
  0
LINE
  8
0
 10
35.7372
 20
-176.064
 11
35.5185
 21
-176.231
  0
LINE
  8
0
 10
35.5185
 20
-176.231
 11
35.286
 21
-176.38
  0
LINE
  8
0
 10
35.286
 20
-176.38
 11
35.0414
 21
-176.507
  0
LINE
  8
0
 10
35.0414
 20
-176.507
 11
34.7867
 21
-176.612
  0
LINE
  8
0
 10
34.7867
 20
-176.612
 11
34.5238
 21
-176.695
  0
LINE
  8
0
 10
34.5238
 20
-176.695
 11
34.2547
 21
-176.755
  0
LINE
  8
0
 10
34.2547
 20
-176.755
 11
33.9814
 21
-176.791
  0
LINE
  8
0
 10
33.9814
 20
-176.791
 11
33.706
 21
-176.803
  0
LINE
  8
0
 10
33.706
 20
-176.803
 11
33.4305
 21
-176.791
  0
LINE
  8
0
 10
148.994
 20
-176.791
 11
148.721
 21
-176.755
  0
LINE
  8
0
 10
148.721
 20
-176.755
 11
148.451
 21
-176.695
  0
LINE
  8
0
 10
148.451
 20
-176.695
 11
148.188
 21
-176.612
  0
LINE
  8
0
 10
148.188
 20
-176.612
 11
147.934
 21
-176.507
  0
LINE
  8
0
 10
147.934
 20
-176.507
 11
147.689
 21
-176.38
  0
LINE
  8
0
 10
147.689
 20
-176.38
 11
147.457
 21
-176.231
  0
LINE
  8
0
 10
147.457
 20
-176.231
 11
147.238
 21
-176.064
  0
LINE
  8
0
 10
147.238
 20
-176.064
 11
147.035
 21
-175.877
  0
LINE
  8
0
 10
147.035
 20
-175.877
 11
146.849
 21
-175.674
  0
LINE
  8
0
 10
146.849
 20
-175.674
 11
146.681
 21
-175.455
  0
LINE
  8
0
 10
146.681
 20
-175.455
 11
146.533
 21
-175.223
  0
LINE
  8
0
 10
146.533
 20
-175.223
 11
146.405
 21
-174.978
  0
LINE
  8
0
 10
146.405
 20
-174.978
 11
146.3
 21
-174.724
  0
LINE
  8
0
 10
146.3
 20
-174.724
 11
146.217
 21
-174.461
  0
LINE
  8
0
 10
146.217
 20
-174.461
 11
146.157
 21
-174.192
  0
LINE
  8
0
 10
146.157
 20
-174.192
 11
146.121
 21
-173.918
  0
LINE
  8
0
 10
146.121
 20
-173.918
 11
146.109
 21
-173.643
  0
LINE
  8
0
 10
146.109
 20
-173.643
 11
146.121
 21
-173.367
  0
LINE
  8
0
 10
146.121
 20
-173.367
 11
146.157
 21
-173.094
  0
LINE
  8
0
 10
146.157
 20
-173.094
 11
146.217
 21
-172.825
  0
LINE
  8
0
 10
146.217
 20
-172.825
 11
146.3
 21
-172.562
  0
LINE
  8
0
 10
146.3
 20
-172.562
 11
146.405
 21
-172.307
  0
LINE
  8
0
 10
146.405
 20
-172.307
 11
146.533
 21
-172.063
  0
LINE
  8
0
 10
146.533
 20
-172.063
 11
146.681
 21
-171.83
  0
LINE
  8
0
 10
146.681
 20
-171.83
 11
146.849
 21
-171.612
  0
LINE
  8
0
 10
146.849
 20
-171.612
 11
147.035
 21
-171.408
  0
LINE
  8
0
 10
147.035
 20
-171.408
 11
147.238
 21
-171.222
  0
LINE
  8
0
 10
147.238
 20
-171.222
 11
147.457
 21
-171.054
  0
LINE
  8
0
 10
147.457
 20
-171.054
 11
147.689
 21
-170.906
  0
LINE
  8
0
 10
147.689
 20
-170.906
 11
147.934
 21
-170.779
  0
LINE
  8
0
 10
147.934
 20
-170.779
 11
148.188
 21
-170.673
  0
LINE
  8
0
 10
148.188
 20
-170.673
 11
148.451
 21
-170.591
  0
LINE
  8
0
 10
148.451
 20
-170.591
 11
148.721
 21
-170.531
  0
LINE
  8
0
 10
148.721
 20
-170.531
 11
148.994
 21
-170.495
  0
LINE
  8
0
 10
148.994
 20
-170.495
 11
149.269
 21
-170.483
  0
LINE
  8
0
 10
149.269
 20
-170.483
 11
149.545
 21
-170.495
  0
LINE
  8
0
 10
149.545
 20
-170.495
 11
149.818
 21
-170.531
  0
LINE
  8
0
 10
149.818
 20
-170.531
 11
150.087
 21
-170.591
  0
LINE
  8
0
 10
150.087
 20
-170.591
 11
150.35
 21
-170.673
  0
LINE
  8
0
 10
150.35
 20
-170.673
 11
150.605
 21
-170.779
  0
LINE
  8
0
 10
150.605
 20
-170.779
 11
150.849
 21
-170.906
  0
LINE
  8
0
 10
150.849
 20
-170.906
 11
151.082
 21
-171.054
  0
LINE
  8
0
 10
151.082
 20
-171.054
 11
151.3
 21
-171.222
  0
LINE
  8
0
 10
151.3
 20
-171.222
 11
151.504
 21
-171.408
  0
LINE
  8
0
 10
151.504
 20
-171.408
 11
151.69
 21
-171.612
  0
LINE
  8
0
 10
151.69
 20
-171.612
 11
151.858
 21
-171.83
  0
LINE
  8
0
 10
151.858
 20
-171.83
 11
152.006
 21
-172.063
  0
LINE
  8
0
 10
152.006
 20
-172.063
 11
152.133
 21
-172.307
  0
LINE
  8
0
 10
152.133
 20
-172.307
 11
152.239
 21
-172.562
  0
LINE
  8
0
 10
152.239
 20
-172.562
 11
152.322
 21
-172.825
  0
LINE
  8
0
 10
152.322
 20
-172.825
 11
152.381
 21
-173.094
  0
LINE
  8
0
 10
152.381
 20
-173.094
 11
152.417
 21
-173.367
  0
LINE
  8
0
 10
152.417
 20
-173.367
 11
152.429
 21
-173.643
  0
LINE
  8
0
 10
152.429
 20
-173.643
 11
152.417
 21
-173.918
  0
LINE
  8
0
 10
152.417
 20
-173.918
 11
152.381
 21
-174.192
  0
LINE
  8
0
 10
152.381
 20
-174.192
 11
152.322
 21
-174.461
  0
LINE
  8
0
 10
152.322
 20
-174.461
 11
152.239
 21
-174.724
  0
LINE
  8
0
 10
152.239
 20
-174.724
 11
152.133
 21
-174.978
  0
LINE
  8
0
 10
152.133
 20
-174.978
 11
152.006
 21
-175.223
  0
LINE
  8
0
 10
152.006
 20
-175.223
 11
151.858
 21
-175.455
  0
LINE
  8
0
 10
151.858
 20
-175.455
 11
151.69
 21
-175.674
  0
LINE
  8
0
 10
151.69
 20
-175.674
 11
151.504
 21
-175.877
  0
LINE
  8
0
 10
151.504
 20
-175.877
 11
151.3
 21
-176.064
  0
LINE
  8
0
 10
151.3
 20
-176.064
 11
151.082
 21
-176.231
  0
LINE
  8
0
 10
151.082
 20
-176.231
 11
150.849
 21
-176.38
  0
LINE
  8
0
 10
150.849
 20
-176.38
 11
150.605
 21
-176.507
  0
LINE
  8
0
 10
150.605
 20
-176.507
 11
150.35
 21
-176.612
  0
LINE
  8
0
 10
150.35
 20
-176.612
 11
150.087
 21
-176.695
  0
LINE
  8
0
 10
150.087
 20
-176.695
 11
149.818
 21
-176.755
  0
LINE
  8
0
 10
149.818
 20
-176.755
 11
149.545
 21
-176.791
  0
LINE
  8
0
 10
149.545
 20
-176.791
 11
149.269
 21
-176.803
  0
LINE
  8
0
 10
149.269
 20
-176.803
 11
148.994
 21
-176.791
  0
LINE
  8
0
 10
206.776
 20
-176.791
 11
206.502
 21
-176.755
  0
LINE
  8
0
 10
206.502
 20
-176.755
 11
206.233
 21
-176.695
  0
LINE
  8
0
 10
206.233
 20
-176.695
 11
205.97
 21
-176.612
  0
LINE
  8
0
 10
205.97
 20
-176.612
 11
205.715
 21
-176.507
  0
LINE
  8
0
 10
205.715
 20
-176.507
 11
205.471
 21
-176.38
  0
LINE
  8
0
 10
205.471
 20
-176.38
 11
205.238
 21
-176.231
  0
LINE
  8
0
 10
205.238
 20
-176.231
 11
205.02
 21
-176.064
  0
LINE
  8
0
 10
205.02
 20
-176.064
 11
204.816
 21
-175.877
  0
LINE
  8
0
 10
204.816
 20
-175.877
 11
204.63
 21
-175.674
  0
LINE
  8
0
 10
204.63
 20
-175.674
 11
204.462
 21
-175.455
  0
LINE
  8
0
 10
204.462
 20
-175.455
 11
204.314
 21
-175.223
  0
LINE
  8
0
 10
204.314
 20
-175.223
 11
204.187
 21
-174.978
  0
LINE
  8
0
 10
204.187
 20
-174.978
 11
204.081
 21
-174.724
  0
LINE
  8
0
 10
204.081
 20
-174.724
 11
203.999
 21
-174.461
  0
LINE
  8
0
 10
203.999
 20
-174.461
 11
203.939
 21
-174.192
  0
LINE
  8
0
 10
203.939
 20
-174.192
 11
203.903
 21
-173.918
  0
LINE
  8
0
 10
203.903
 20
-173.918
 11
203.891
 21
-173.643
  0
LINE
  8
0
 10
203.891
 20
-173.643
 11
203.903
 21
-173.367
  0
LINE
  8
0
 10
203.903
 20
-173.367
 11
203.939
 21
-173.094
  0
LINE
  8
0
 10
203.939
 20
-173.094
 11
203.999
 21
-172.825
  0
LINE
  8
0
 10
203.999
 20
-172.825
 11
204.081
 21
-172.562
  0
LINE
  8
0
 10
204.081
 20
-172.562
 11
204.187
 21
-172.307
  0
LINE
  8
0
 10
204.187
 20
-172.307
 11
204.314
 21
-172.063
  0
LINE
  8
0
 10
204.314
 20
-172.063
 11
204.462
 21
-171.83
  0
LINE
  8
0
 10
204.462
 20
-171.83
 11
204.63
 21
-171.612
  0
LINE
  8
0
 10
204.63
 20
-171.612
 11
204.816
 21
-171.408
  0
LINE
  8
0
 10
204.816
 20
-171.408
 11
205.02
 21
-171.222
  0
LINE
  8
0
 10
205.02
 20
-171.222
 11
205.238
 21
-171.054
  0
LINE
  8
0
 10
205.238
 20
-171.054
 11
205.471
 21
-170.906
  0
LINE
  8
0
 10
205.471
 20
-170.906
 11
205.715
 21
-170.779
  0
LINE
  8
0
 10
205.715
 20
-170.779
 11
205.97
 21
-170.673
  0
LINE
  8
0
 10
205.97
 20
-170.673
 11
206.233
 21
-170.591
  0
LINE
  8
0
 10
206.233
 20
-170.591
 11
206.502
 21
-170.531
  0
LINE
  8
0
 10
206.502
 20
-170.531
 11
206.776
 21
-170.495
  0
LINE
  8
0
 10
206.776
 20
-170.495
 11
207.051
 21
-170.483
  0
LINE
  8
0
 10
207.051
 20
-170.483
 11
207.326
 21
-170.495
  0
LINE
  8
0
 10
207.326
 20
-170.495
 11
207.6
 21
-170.531
  0
LINE
  8
0
 10
207.6
 20
-170.531
 11
207.869
 21
-170.591
  0
LINE
  8
0
 10
207.869
 20
-170.591
 11
208.132
 21
-170.673
  0
LINE
  8
0
 10
208.132
 20
-170.673
 11
208.386
 21
-170.779
  0
LINE
  8
0
 10
208.386
 20
-170.779
 11
208.631
 21
-170.906
  0
LINE
  8
0
 10
208.631
 20
-170.906
 11
208.863
 21
-171.054
  0
LINE
  8
0
 10
208.863
 20
-171.054
 11
209.082
 21
-171.222
  0
LINE
  8
0
 10
209.082
 20
-171.222
 11
209.285
 21
-171.408
  0
LINE
  8
0
 10
209.285
 20
-171.408
 11
209.472
 21
-171.612
  0
LINE
  8
0
 10
209.472
 20
-171.612
 11
209.639
 21
-171.83
  0
LINE
  8
0
 10
209.639
 20
-171.83
 11
209.788
 21
-172.063
  0
LINE
  8
0
 10
209.788
 20
-172.063
 11
209.915
 21
-172.307
  0
LINE
  8
0
 10
209.915
 20
-172.307
 11
210.02
 21
-172.562
  0
LINE
  8
0
 10
210.02
 20
-172.562
 11
210.103
 21
-172.825
  0
LINE
  8
0
 10
210.103
 20
-172.825
 11
210.163
 21
-173.094
  0
LINE
  8
0
 10
210.163
 20
-173.094
 11
210.199
 21
-173.367
  0
LINE
  8
0
 10
210.199
 20
-173.367
 11
210.211
 21
-173.643
  0
LINE
  8
0
 10
210.211
 20
-173.643
 11
210.199
 21
-173.918
  0
LINE
  8
0
 10
210.199
 20
-173.918
 11
210.163
 21
-174.192
  0
LINE
  8
0
 10
210.163
 20
-174.192
 11
210.103
 21
-174.461
  0
LINE
  8
0
 10
210.103
 20
-174.461
 11
210.02
 21
-174.724
  0
LINE
  8
0
 10
210.02
 20
-174.724
 11
209.915
 21
-174.978
  0
LINE
  8
0
 10
209.915
 20
-174.978
 11
209.788
 21
-175.223
  0
LINE
  8
0
 10
209.788
 20
-175.223
 11
209.639
 21
-175.455
  0
LINE
  8
0
 10
209.639
 20
-175.455
 11
209.472
 21
-175.674
  0
LINE
  8
0
 10
209.472
 20
-175.674
 11
209.285
 21
-175.877
  0
LINE
  8
0
 10
209.285
 20
-175.877
 11
209.082
 21
-176.064
  0
LINE
  8
0
 10
209.082
 20
-176.064
 11
208.863
 21
-176.231
  0
LINE
  8
0
 10
208.863
 20
-176.231
 11
208.631
 21
-176.38
  0
LINE
  8
0
 10
208.631
 20
-176.38
 11
208.386
 21
-176.507
  0
LINE
  8
0
 10
208.386
 20
-176.507
 11
208.132
 21
-176.612
  0
LINE
  8
0
 10
208.132
 20
-176.612
 11
207.869
 21
-176.695
  0
LINE
  8
0
 10
207.869
 20
-176.695
 11
207.6
 21
-176.755
  0
LINE
  8
0
 10
207.6
 20
-176.755
 11
207.326
 21
-176.791
  0
LINE
  8
0
 10
207.326
 20
-176.791
 11
207.051
 21
-176.803
  0
LINE
  8
0
 10
207.051
 20
-176.803
 11
206.776
 21
-176.791
  0
LINE
  8
0
 10
91.2122
 20
-176.791
 11
90.9389
 21
-176.755
  0
LINE
  8
0
 10
90.9389
 20
-176.755
 11
90.6698
 21
-176.695
  0
LINE
  8
0
 10
90.6698
 20
-176.695
 11
90.4068
 21
-176.612
  0
LINE
  8
0
 10
90.4068
 20
-176.612
 11
90.1521
 21
-176.507
  0
LINE
  8
0
 10
90.1521
 20
-176.507
 11
89.9076
 21
-176.38
  0
LINE
  8
0
 10
89.9076
 20
-176.38
 11
89.6751
 21
-176.231
  0
LINE
  8
0
 10
89.6751
 20
-176.231
 11
89.4564
 21
-176.064
  0
LINE
  8
0
 10
89.4564
 20
-176.064
 11
89.2532
 21
-175.877
  0
LINE
  8
0
 10
89.2532
 20
-175.877
 11
89.0669
 21
-175.674
  0
LINE
  8
0
 10
89.0669
 20
-175.674
 11
88.8991
 21
-175.455
  0
LINE
  8
0
 10
88.8991
 20
-175.455
 11
88.751
 21
-175.223
  0
LINE
  8
0
 10
88.751
 20
-175.223
 11
88.6237
 21
-174.978
  0
LINE
  8
0
 10
88.6237
 20
-174.978
 11
88.5182
 21
-174.724
  0
LINE
  8
0
 10
88.5182
 20
-174.724
 11
88.4353
 21
-174.461
  0
LINE
  8
0
 10
88.4353
 20
-174.461
 11
88.3756
 21
-174.192
  0
LINE
  8
0
 10
88.3756
 20
-174.192
 11
88.3396
 21
-173.918
  0
LINE
  8
0
 10
88.3396
 20
-173.918
 11
88.3276
 21
-173.643
  0
LINE
  8
0
 10
88.3276
 20
-173.643
 11
88.3396
 21
-173.367
  0
LINE
  8
0
 10
88.3396
 20
-173.367
 11
88.3756
 21
-173.094
  0
LINE
  8
0
 10
88.3756
 20
-173.094
 11
88.4353
 21
-172.825
  0
LINE
  8
0
 10
88.4353
 20
-172.825
 11
88.5182
 21
-172.562
  0
LINE
  8
0
 10
88.5182
 20
-172.562
 11
88.6237
 21
-172.307
  0
LINE
  8
0
 10
88.6237
 20
-172.307
 11
88.751
 21
-172.063
  0
LINE
  8
0
 10
88.751
 20
-172.063
 11
88.8991
 21
-171.83
  0
LINE
  8
0
 10
88.8991
 20
-171.83
 11
89.0669
 21
-171.612
  0
LINE
  8
0
 10
89.0669
 20
-171.612
 11
89.2532
 21
-171.408
  0
LINE
  8
0
 10
89.2532
 20
-171.408
 11
89.4564
 21
-171.222
  0
LINE
  8
0
 10
89.4564
 20
-171.222
 11
89.6751
 21
-171.054
  0
LINE
  8
0
 10
89.6751
 20
-171.054
 11
89.9076
 21
-170.906
  0
LINE
  8
0
 10
89.9076
 20
-170.906
 11
90.1521
 21
-170.779
  0
LINE
  8
0
 10
90.1521
 20
-170.779
 11
90.4068
 21
-170.673
  0
LINE
  8
0
 10
90.4068
 20
-170.673
 11
90.6698
 21
-170.591
  0
LINE
  8
0
 10
90.6698
 20
-170.591
 11
90.9389
 21
-170.531
  0
LINE
  8
0
 10
90.9389
 20
-170.531
 11
91.2122
 21
-170.495
  0
LINE
  8
0
 10
91.2122
 20
-170.495
 11
91.4876
 21
-170.483
  0
LINE
  8
0
 10
91.4876
 20
-170.483
 11
91.763
 21
-170.495
  0
LINE
  8
0
 10
91.763
 20
-170.495
 11
92.0363
 21
-170.531
  0
LINE
  8
0
 10
92.0363
 20
-170.531
 11
92.3055
 21
-170.591
  0
LINE
  8
0
 10
92.3055
 20
-170.591
 11
92.5684
 21
-170.673
  0
LINE
  8
0
 10
92.5684
 20
-170.673
 11
92.8231
 21
-170.779
  0
LINE
  8
0
 10
92.8231
 20
-170.779
 11
93.0676
 21
-170.906
  0
LINE
  8
0
 10
93.0676
 20
-170.906
 11
93.3001
 21
-171.054
  0
LINE
  8
0
 10
93.3001
 20
-171.054
 11
93.5188
 21
-171.222
  0
LINE
  8
0
 10
93.5188
 20
-171.222
 11
93.7221
 21
-171.408
  0
LINE
  8
0
 10
93.7221
 20
-171.408
 11
93.9083
 21
-171.612
  0
LINE
  8
0
 10
93.9083
 20
-171.612
 11
94.0761
 21
-171.83
  0
LINE
  8
0
 10
94.0761
 20
-171.83
 11
94.2243
 21
-172.063
  0
LINE
  8
0
 10
94.2243
 20
-172.063
 11
94.3515
 21
-172.307
  0
LINE
  8
0
 10
94.3515
 20
-172.307
 11
94.457
 21
-172.562
  0
LINE
  8
0
 10
94.457
 20
-172.562
 11
94.5399
 21
-172.825
  0
LINE
  8
0
 10
94.5399
 20
-172.825
 11
94.5996
 21
-173.094
  0
LINE
  8
0
 10
94.5996
 20
-173.094
 11
94.6356
 21
-173.367
  0
LINE
  8
0
 10
94.6356
 20
-173.367
 11
94.6476
 21
-173.643
  0
LINE
  8
0
 10
94.6476
 20
-173.643
 11
94.6356
 21
-173.918
  0
LINE
  8
0
 10
94.6356
 20
-173.918
 11
94.5996
 21
-174.192
  0
LINE
  8
0
 10
94.5996
 20
-174.192
 11
94.5399
 21
-174.461
  0
LINE
  8
0
 10
94.5399
 20
-174.461
 11
94.457
 21
-174.724
  0
LINE
  8
0
 10
94.457
 20
-174.724
 11
94.3515
 21
-174.978
  0
LINE
  8
0
 10
94.3515
 20
-174.978
 11
94.2243
 21
-175.223
  0
LINE
  8
0
 10
94.2243
 20
-175.223
 11
94.0761
 21
-175.455
  0
LINE
  8
0
 10
94.0761
 20
-175.455
 11
93.9083
 21
-175.674
  0
LINE
  8
0
 10
93.9083
 20
-175.674
 11
93.7221
 21
-175.877
  0
LINE
  8
0
 10
93.7221
 20
-175.877
 11
93.5188
 21
-176.064
  0
LINE
  8
0
 10
93.5188
 20
-176.064
 11
93.3001
 21
-176.231
  0
LINE
  8
0
 10
93.3001
 20
-176.231
 11
93.0676
 21
-176.38
  0
LINE
  8
0
 10
93.0676
 20
-176.38
 11
92.8231
 21
-176.507
  0
LINE
  8
0
 10
92.8231
 20
-176.507
 11
92.5684
 21
-176.612
  0
LINE
  8
0
 10
92.5684
 20
-176.612
 11
92.3055
 21
-176.695
  0
LINE
  8
0
 10
92.3055
 20
-176.695
 11
92.0363
 21
-176.755
  0
LINE
  8
0
 10
92.0363
 20
-176.755
 11
91.763
 21
-176.791
  0
LINE
  8
0
 10
91.763
 20
-176.791
 11
91.4876
 21
-176.803
  0
LINE
  8
0
 10
91.4876
 20
-176.803
 11
91.2122
 21
-176.791
  0
LINE
  8
0
 10
152.381
 20
173.094
 11
152.322
 21
172.825
  0
LINE
  8
0
 10
152.322
 20
172.825
 11
152.239
 21
172.562
  0
LINE
  8
0
 10
152.239
 20
172.562
 11
152.133
 21
172.307
  0
LINE
  8
0
 10
152.133
 20
172.307
 11
152.006
 21
172.063
  0
LINE
  8
0
 10
152.006
 20
172.063
 11
151.858
 21
171.83
  0
LINE
  8
0
 10
151.858
 20
171.83
 11
151.69
 21
171.612
  0
LINE
  8
0
 10
151.69
 20
171.612
 11
151.504
 21
171.408
  0
LINE
  8
0
 10
151.504
 20
171.408
 11
151.3
 21
171.222
  0
LINE
  8
0
 10
151.3
 20
171.222
 11
151.082
 21
171.054
  0
LINE
  8
0
 10
151.082
 20
171.054
 11
150.849
 21
170.906
  0
LINE
  8
0
 10
150.849
 20
170.906
 11
150.605
 21
170.779
  0
LINE
  8
0
 10
150.605
 20
170.779
 11
150.35
 21
170.673
  0
LINE
  8
0
 10
150.35
 20
170.673
 11
150.087
 21
170.591
  0
LINE
  8
0
 10
150.087
 20
170.591
 11
149.818
 21
170.531
  0
LINE
  8
0
 10
149.818
 20
170.531
 11
149.545
 21
170.495
  0
LINE
  8
0
 10
149.545
 20
170.495
 11
149.269
 21
170.483
  0
LINE
  8
0
 10
149.269
 20
170.483
 11
148.994
 21
170.495
  0
LINE
  8
0
 10
148.994
 20
170.495
 11
148.721
 21
170.531
  0
LINE
  8
0
 10
148.721
 20
170.531
 11
148.451
 21
170.591
  0
LINE
  8
0
 10
148.451
 20
170.591
 11
148.188
 21
170.673
  0
LINE
  8
0
 10
148.188
 20
170.673
 11
147.934
 21
170.779
  0
LINE
  8
0
 10
147.934
 20
170.779
 11
147.689
 21
170.906
  0
LINE
  8
0
 10
147.689
 20
170.906
 11
147.457
 21
171.054
  0
LINE
  8
0
 10
147.457
 20
171.054
 11
147.238
 21
171.222
  0
LINE
  8
0
 10
147.238
 20
171.222
 11
147.035
 21
171.408
  0
LINE
  8
0
 10
147.035
 20
171.408
 11
146.849
 21
171.612
  0
LINE
  8
0
 10
146.849
 20
171.612
 11
146.681
 21
171.83
  0
LINE
  8
0
 10
146.681
 20
171.83
 11
146.533
 21
172.063
  0
LINE
  8
0
 10
146.533
 20
172.063
 11
146.405
 21
172.307
  0
LINE
  8
0
 10
146.405
 20
172.307
 11
146.3
 21
172.562
  0
LINE
  8
0
 10
146.3
 20
172.562
 11
146.217
 21
172.825
  0
LINE
  8
0
 10
146.217
 20
172.825
 11
146.157
 21
173.094
  0
LINE
  8
0
 10
146.157
 20
173.094
 11
146.121
 21
173.367
  0
LINE
  8
0
 10
146.121
 20
173.367
 11
146.109
 21
173.643
  0
LINE
  8
0
 10
146.109
 20
173.643
 11
146.121
 21
173.918
  0
LINE
  8
0
 10
146.121
 20
173.918
 11
146.157
 21
174.192
  0
LINE
  8
0
 10
146.157
 20
174.192
 11
146.217
 21
174.461
  0
LINE
  8
0
 10
146.217
 20
174.461
 11
146.3
 21
174.724
  0
LINE
  8
0
 10
146.3
 20
174.724
 11
146.405
 21
174.978
  0
LINE
  8
0
 10
146.405
 20
174.978
 11
146.533
 21
175.223
  0
LINE
  8
0
 10
146.533
 20
175.223
 11
146.681
 21
175.455
  0
LINE
  8
0
 10
146.681
 20
175.455
 11
146.849
 21
175.674
  0
LINE
  8
0
 10
146.849
 20
175.674
 11
147.035
 21
175.877
  0
LINE
  8
0
 10
147.035
 20
175.877
 11
147.238
 21
176.064
  0
LINE
  8
0
 10
147.238
 20
176.064
 11
147.457
 21
176.231
  0
LINE
  8
0
 10
147.457
 20
176.231
 11
147.689
 21
176.38
  0
LINE
  8
0
 10
147.689
 20
176.38
 11
147.934
 21
176.507
  0
LINE
  8
0
 10
147.934
 20
176.507
 11
148.188
 21
176.612
  0
LINE
  8
0
 10
148.188
 20
176.612
 11
148.451
 21
176.695
  0
LINE
  8
0
 10
148.451
 20
176.695
 11
148.721
 21
176.755
  0
LINE
  8
0
 10
148.721
 20
176.755
 11
148.994
 21
176.791
  0
LINE
  8
0
 10
148.994
 20
176.791
 11
149.269
 21
176.803
  0
LINE
  8
0
 10
149.269
 20
176.803
 11
149.545
 21
176.791
  0
LINE
  8
0
 10
149.545
 20
176.791
 11
149.818
 21
176.755
  0
LINE
  8
0
 10
149.818
 20
176.755
 11
150.087
 21
176.695
  0
LINE
  8
0
 10
150.087
 20
176.695
 11
150.35
 21
176.612
  0
LINE
  8
0
 10
150.35
 20
176.612
 11
150.605
 21
176.507
  0
LINE
  8
0
 10
150.605
 20
176.507
 11
150.849
 21
176.38
  0
LINE
  8
0
 10
150.849
 20
176.38
 11
151.082
 21
176.231
  0
LINE
  8
0
 10
151.082
 20
176.231
 11
151.3
 21
176.064
  0
LINE
  8
0
 10
151.3
 20
176.064
 11
151.504
 21
175.877
  0
LINE
  8
0
 10
151.504
 20
175.877
 11
151.69
 21
175.674
  0
LINE
  8
0
 10
151.69
 20
175.674
 11
151.858
 21
175.455
  0
LINE
  8
0
 10
151.858
 20
175.455
 11
152.006
 21
175.223
  0
LINE
  8
0
 10
152.006
 20
175.223
 11
152.133
 21
174.978
  0
LINE
  8
0
 10
152.133
 20
174.978
 11
152.239
 21
174.724
  0
LINE
  8
0
 10
152.239
 20
174.724
 11
152.322
 21
174.461
  0
LINE
  8
0
 10
152.322
 20
174.461
 11
152.381
 21
174.192
  0
LINE
  8
0
 10
152.381
 20
174.192
 11
152.417
 21
173.918
  0
LINE
  8
0
 10
152.417
 20
173.918
 11
152.429
 21
173.643
  0
LINE
  8
0
 10
152.429
 20
173.643
 11
152.417
 21
173.367
  0
LINE
  8
0
 10
152.417
 20
173.367
 11
152.381
 21
173.094
  0
ENDSEC
  0
SECTION
  2
OBJECTS
  0
DICTIONARY
  0
ENDSEC
  0
EOF
