  0
SECTION
  2
BLOCKS
  0
ENDSEC
  0
SECTION
  2
ENTITIES
  0
LINE
  8
0
 10
1.94183
 20
-240.749
 11
2.28754
 21
-240.123
  0
LINE
  8
0
 10
2.28754
 20
-240.123
 11
2.61871
 21
-239.506
  0
LINE
  8
0
 10
2.61871
 20
-239.506
 11
2.93562
 21
-238.898
  0
LINE
  8
0
 10
2.93562
 20
-238.898
 11
3.31212
 21
-238.152
  0
LINE
  8
0
 10
3.31212
 20
-238.152
 11
3.6673
 21
-237.42
  0
LINE
  8
0
 10
3.6673
 20
-237.42
 11
4.00168
 21
-236.705
  0
LINE
  8
0
 10
4.00168
 20
-236.705
 11
4.31584
 21
-236.006
  0
LINE
  8
0
 10
4.31584
 20
-236.006
 11
4.55298
 21
-235.459
  0
LINE
  8
0
 10
4.55298
 20
-235.459
 11
4.5524
 21
-235.444
  0
LINE
  8
0
 10
4.5524
 20
-235.444
 11
5.70711
 21
-235.393
  0
LINE
  8
0
 10
5.70711
 20
-235.393
 11
5.70782
 21
-235.407
  0
LINE
  8
0
 10
5.70782
 20
-235.407
 11
6.06606
 21
-236.064
  0
LINE
  8
0
 10
6.06606
 20
-236.064
 11
6.44548
 21
-236.735
  0
LINE
  8
0
 10
6.44548
 20
-236.735
 11
6.84659
 21
-237.421
  0
LINE
  8
0
 10
6.84659
 20
-237.421
 11
7.26991
 21
-238.12
  0
LINE
  8
0
 10
7.26991
 20
-238.12
 11
7.62489
 21
-238.689
  0
LINE
  8
0
 10
7.62489
 20
-238.689
 11
7.99464
 21
-239.266
  0
LINE
  8
0
 10
7.99464
 20
-239.266
 11
8.37944
 21
-239.851
  0
LINE
  8
0
 10
8.37944
 20
-239.851
 11
8.7795
 21
-240.444
  0
LINE
  8
0
 10
8.7795
 20
-240.444
 11
9.97739
 21
-240.351
  0
LINE
  8
0
 10
9.97739
 20
-240.351
 11
10.2805
 21
-239.703
  0
LINE
  8
0
 10
10.2805
 20
-239.703
 11
10.5697
 21
-239.065
  0
LINE
  8
0
 10
10.5697
 20
-239.065
 11
10.8453
 21
-238.437
  0
LINE
  8
0
 10
10.8453
 20
-238.437
 11
11.1711
 21
-237.667
  0
LINE
  8
0
 10
11.1711
 20
-237.667
 11
11.4766
 21
-236.914
  0
LINE
  8
0
 10
11.4766
 20
-236.914
 11
11.7625
 21
-236.178
  0
LINE
  8
0
 10
11.7625
 20
-236.178
 11
12.0293
 21
-235.46
  0
LINE
  8
0
 10
12.0293
 20
-235.46
 11
12.2293
 21
-234.898
  0
LINE
  8
0
 10
12.2293
 20
-234.898
 11
12.2278
 21
-234.883
  0
LINE
  8
0
 10
12.2278
 20
-234.883
 11
13.3765
 21
-234.755
  0
LINE
  8
0
 10
13.3765
 20
-234.755
 11
13.3782
 21
-234.769
  0
LINE
  8
0
 10
13.3782
 20
-234.769
 11
13.7794
 21
-235.4
  0
LINE
  8
0
 10
13.7794
 20
-235.4
 11
14.2029
 21
-236.045
  0
LINE
  8
0
 10
14.2029
 20
-236.045
 11
14.6489
 21
-236.702
  0
LINE
  8
0
 10
14.6489
 20
-236.702
 11
15.1179
 21
-237.371
  0
LINE
  8
0
 10
15.1179
 20
-237.371
 11
15.5101
 21
-237.915
  0
LINE
  8
0
 10
15.5101
 20
-237.915
 11
15.9176
 21
-238.467
  0
LINE
  8
0
 10
15.9176
 20
-238.467
 11
16.3406
 21
-239.025
  0
LINE
  8
0
 10
16.3406
 20
-239.025
 11
16.7794
 21
-239.59
  0
LINE
  8
0
 10
16.7794
 20
-239.59
 11
17.9684
 21
-239.416
  0
LINE
  8
0
 10
17.9684
 20
-239.416
 11
18.2275
 21
-238.75
  0
LINE
  8
0
 10
18.2275
 20
-238.75
 11
18.4735
 21
-238.094
  0
LINE
  8
0
 10
18.4735
 20
-238.094
 11
18.7066
 21
-237.449
  0
LINE
  8
0
 10
18.7066
 20
-237.449
 11
18.9802
 21
-236.659
  0
LINE
  8
0
 10
18.9802
 20
-236.659
 11
19.2347
 21
-235.887
  0
LINE
  8
0
 10
19.2347
 20
-235.887
 11
19.4708
 21
-235.134
  0
LINE
  8
0
 10
19.4708
 20
-235.134
 11
19.689
 21
-234.399
  0
LINE
  8
0
 10
19.689
 20
-234.399
 11
19.8511
 21
-233.825
  0
LINE
  8
0
 10
19.8511
 20
-233.825
 11
19.8485
 21
-233.811
  0
LINE
  8
0
 10
19.8485
 20
-233.811
 11
20.9861
 21
-233.606
  0
LINE
  8
0
 10
20.9861
 20
-233.606
 11
20.9888
 21
-233.62
  0
LINE
  8
0
 10
20.9888
 20
-233.62
 11
21.4313
 21
-234.223
  0
LINE
  8
0
 10
21.4313
 20
-234.223
 11
21.8968
 21
-234.838
  0
LINE
  8
0
 10
21.8968
 20
-234.838
 11
22.3857
 21
-235.464
  0
LINE
  8
0
 10
22.3857
 20
-235.464
 11
22.8985
 21
-236.1
  0
LINE
  8
0
 10
22.8985
 20
-236.1
 11
23.3261
 21
-236.617
  0
LINE
  8
0
 10
23.3261
 20
-236.617
 11
23.7695
 21
-237.14
  0
LINE
  8
0
 10
23.7695
 20
-237.14
 11
24.2289
 21
-237.669
  0
LINE
  8
0
 10
24.2289
 20
-237.669
 11
24.7044
 21
-238.203
  0
LINE
  8
0
 10
24.7044
 20
-238.203
 11
25.8791
 21
-237.95
  0
LINE
  8
0
 10
25.8791
 20
-237.95
 11
26.0932
 21
-237.268
  0
LINE
  8
0
 10
26.0932
 20
-237.268
 11
26.2948
 21
-236.597
  0
LINE
  8
0
 10
26.2948
 20
-236.597
 11
26.4842
 21
-235.938
  0
LINE
  8
0
 10
26.4842
 20
-235.938
 11
26.7045
 21
-235.132
  0
LINE
  8
0
 10
26.7045
 20
-235.132
 11
26.9069
 21
-234.345
  0
LINE
  8
0
 10
26.9069
 20
-234.345
 11
27.0921
 21
-233.577
  0
LINE
  8
0
 10
27.0921
 20
-233.577
 11
27.2608
 21
-232.829
  0
LINE
  8
0
 10
27.2608
 20
-232.829
 11
27.3841
 21
-232.246
  0
LINE
  8
0
 10
27.3841
 20
-232.246
 11
27.3806
 21
-232.232
  0
LINE
  8
0
 10
27.3806
 20
-232.232
 11
28.502
 21
-231.951
  0
LINE
  8
0
 10
28.502
 20
-231.951
 11
28.5056
 21
-231.965
  0
LINE
  8
0
 10
28.5056
 20
-231.965
 11
28.9874
 21
-232.537
  0
LINE
  8
0
 10
28.9874
 20
-232.537
 11
29.4929
 21
-233.12
  0
LINE
  8
0
 10
29.4929
 20
-233.12
 11
30.0226
 21
-233.712
  0
LINE
  8
0
 10
30.0226
 20
-233.712
 11
30.5767
 21
-234.313
  0
LINE
  8
0
 10
30.5767
 20
-234.313
 11
31.0379
 21
-234.799
  0
LINE
  8
0
 10
31.0379
 20
-234.799
 11
31.5152
 21
-235.292
  0
LINE
  8
0
 10
31.5152
 20
-235.292
 11
32.0089
 21
-235.788
  0
LINE
  8
0
 10
32.0089
 20
-235.788
 11
32.519
 21
-236.29
  0
LINE
  8
0
 10
32.519
 20
-236.29
 11
33.6743
 21
-235.959
  0
LINE
  8
0
 10
33.6743
 20
-235.959
 11
33.8423
 21
-235.264
  0
LINE
  8
0
 10
33.8423
 20
-235.264
 11
33.9986
 21
-234.581
  0
LINE
  8
0
 10
33.9986
 20
-234.581
 11
34.1437
 21
-233.911
  0
LINE
  8
0
 10
34.1437
 20
-233.911
 11
34.3096
 21
-233.092
  0
LINE
  8
0
 10
34.3096
 20
-233.092
 11
34.459
 21
-232.293
  0
LINE
  8
0
 10
34.459
 20
-232.293
 11
34.5925
 21
-231.515
  0
LINE
  8
0
 10
34.5925
 20
-231.515
 11
34.7108
 21
-230.757
  0
LINE
  8
0
 10
34.7108
 20
-230.757
 11
34.7949
 21
-230.167
  0
LINE
  8
0
 10
34.7949
 20
-230.167
 11
34.7905
 21
-230.153
  0
LINE
  8
0
 10
34.7905
 20
-230.153
 11
35.8906
 21
-229.798
  0
LINE
  8
0
 10
35.8906
 20
-229.798
 11
35.8951
 21
-229.812
  0
LINE
  8
0
 10
35.8951
 20
-229.812
 11
36.4141
 21
-230.351
  0
LINE
  8
0
 10
36.4141
 20
-230.351
 11
36.9574
 21
-230.898
  0
LINE
  8
0
 10
36.9574
 20
-230.898
 11
37.5253
 21
-231.453
  0
LINE
  8
0
 10
37.5253
 20
-231.453
 11
38.1184
 21
-232.016
  0
LINE
  8
0
 10
38.1184
 20
-232.016
 11
38.6111
 21
-232.471
  0
LINE
  8
0
 10
38.6111
 20
-232.471
 11
39.1202
 21
-232.93
  0
LINE
  8
0
 10
39.1202
 20
-232.93
 11
39.6459
 21
-233.393
  0
LINE
  8
0
 10
39.6459
 20
-233.393
 11
40.1884
 21
-233.859
  0
LINE
  8
0
 10
40.1884
 20
-233.859
 11
41.319
 21
-233.452
  0
LINE
  8
0
 10
41.319
 20
-233.452
 11
41.4402
 21
-232.747
  0
LINE
  8
0
 10
41.4402
 20
-232.747
 11
41.5506
 21
-232.056
  0
LINE
  8
0
 10
41.5506
 20
-232.056
 11
41.6506
 21
-231.377
  0
LINE
  8
0
 10
41.6506
 20
-231.377
 11
41.7614
 21
-230.549
  0
LINE
  8
0
 10
41.7614
 20
-230.549
 11
41.8571
 21
-229.741
  0
LINE
  8
0
 10
41.8571
 20
-229.741
 11
41.9383
 21
-228.956
  0
LINE
  8
0
 10
41.9383
 20
-228.956
 11
42.0058
 21
-228.193
  0
LINE
  8
0
 10
42.0058
 20
-228.193
 11
42.0503
 21
-227.598
  0
LINE
  8
0
 10
42.0503
 20
-227.598
 11
42.0449
 21
-227.584
  0
LINE
  8
0
 10
42.0449
 20
-227.584
 11
43.1189
 21
-227.157
  0
LINE
  8
0
 10
43.1189
 20
-227.157
 11
43.1243
 21
-227.17
  0
LINE
  8
0
 10
43.1243
 20
-227.17
 11
43.6781
 21
-227.673
  0
LINE
  8
0
 10
43.6781
 20
-227.673
 11
44.2567
 21
-228.183
  0
LINE
  8
0
 10
44.2567
 20
-228.183
 11
44.8605
 21
-228.699
  0
LINE
  8
0
 10
44.8605
 20
-228.699
 11
45.4898
 21
-229.22
  0
LINE
  8
0
 10
45.4898
 20
-229.22
 11
46.0118
 21
-229.642
  0
LINE
  8
0
 10
46.0118
 20
-229.642
 11
46.5504
 21
-230.066
  0
LINE
  8
0
 10
46.5504
 20
-230.066
 11
47.1059
 21
-230.492
  0
LINE
  8
0
 10
47.1059
 20
-230.492
 11
47.6783
 21
-230.921
  0
LINE
  8
0
 10
47.6783
 20
-230.921
 11
48.7792
 21
-230.44
  0
LINE
  8
0
 10
48.7792
 20
-230.44
 11
48.8531
 21
-229.728
  0
LINE
  8
0
 10
48.8531
 20
-229.728
 11
48.917
 21
-229.031
  0
LINE
  8
0
 10
48.917
 20
-229.031
 11
48.9715
 21
-228.347
  0
LINE
  8
0
 10
48.9715
 20
-228.347
 11
49.0267
 21
-227.513
  0
LINE
  8
0
 10
49.0267
 20
-227.513
 11
49.0682
 21
-226.701
  0
LINE
  8
0
 10
49.0682
 20
-226.701
 11
49.0968
 21
-225.912
  0
LINE
  8
0
 10
49.0968
 20
-225.912
 11
49.1132
 21
-225.146
  0
LINE
  8
0
 10
49.1132
 20
-225.146
 11
49.1178
 21
-224.55
  0
LINE
  8
0
 10
49.1178
 20
-224.55
 11
49.1116
 21
-224.536
  0
LINE
  8
0
 10
49.1116
 20
-224.536
 11
50.1546
 21
-224.038
  0
LINE
  8
0
 10
50.1546
 20
-224.038
 11
50.1609
 21
-224.051
  0
LINE
  8
0
 10
50.1609
 20
-224.051
 11
50.747
 21
-224.516
  0
LINE
  8
0
 10
50.747
 20
-224.516
 11
51.3584
 21
-224.986
  0
LINE
  8
0
 10
51.3584
 20
-224.986
 11
51.9953
 21
-225.46
  0
LINE
  8
0
 10
51.9953
 20
-225.46
 11
52.6581
 21
-225.939
  0
LINE
  8
0
 10
52.6581
 20
-225.939
 11
53.207
 21
-226.324
  0
LINE
  8
0
 10
53.207
 20
-226.324
 11
53.7728
 21
-226.711
  0
LINE
  8
0
 10
53.7728
 20
-226.711
 11
54.3555
 21
-227.1
  0
LINE
  8
0
 10
54.3555
 20
-227.1
 11
54.9553
 21
-227.49
  0
LINE
  8
0
 10
54.9553
 20
-227.49
 11
56.0216
 21
-226.936
  0
LINE
  8
0
 10
56.0216
 20
-226.936
 11
56.0477
 21
-226.221
  0
LINE
  8
0
 10
56.0477
 20
-226.221
 11
56.065
 21
-225.521
  0
LINE
  8
0
 10
56.065
 20
-225.521
 11
56.0736
 21
-224.835
  0
LINE
  8
0
 10
56.0736
 20
-224.835
 11
56.073
 21
-223.999
  0
LINE
  8
0
 10
56.073
 20
-223.999
 11
56.0603
 21
-223.187
  0
LINE
  8
0
 10
56.0603
 20
-223.187
 11
56.0361
 21
-222.397
  0
LINE
  8
0
 10
56.0361
 20
-222.397
 11
56.0012
 21
-221.632
  0
LINE
  8
0
 10
56.0012
 20
-221.632
 11
55.966
 21
-221.036
  0
LINE
  8
0
 10
55.966
 20
-221.036
 11
55.9589
 21
-221.024
  0
LINE
  8
0
 10
55.9589
 20
-221.024
 11
56.9663
 21
-220.457
  0
LINE
  8
0
 10
56.9663
 20
-220.457
 11
56.9735
 21
-220.47
  0
LINE
  8
0
 10
56.9735
 20
-220.47
 11
57.5893
 21
-220.894
  0
LINE
  8
0
 10
57.5893
 20
-220.894
 11
58.2307
 21
-221.322
  0
LINE
  8
0
 10
58.2307
 20
-221.322
 11
58.8979
 21
-221.753
  0
LINE
  8
0
 10
58.8979
 20
-221.753
 11
59.5911
 21
-222.186
  0
LINE
  8
0
 10
59.5911
 20
-222.186
 11
60.1646
 21
-222.534
  0
LINE
  8
0
 10
60.1646
 20
-222.534
 11
60.755
 21
-222.882
  0
LINE
  8
0
 10
60.755
 20
-222.882
 11
61.3623
 21
-223.231
  0
LINE
  8
0
 10
61.3623
 20
-223.231
 11
61.9868
 21
-223.58
  0
LINE
  8
0
 10
61.9868
 20
-223.58
 11
63.0137
 21
-222.956
  0
LINE
  8
0
 10
63.0137
 20
-222.956
 11
62.9921
 21
-222.241
  0
LINE
  8
0
 10
62.9921
 20
-222.241
 11
62.9625
 21
-221.541
  0
LINE
  8
0
 10
62.9625
 20
-221.541
 11
62.9254
 21
-220.857
  0
LINE
  8
0
 10
62.9254
 20
-220.857
 11
62.8689
 21
-220.023
  0
LINE
  8
0
 10
62.8689
 20
-220.023
 11
62.8019
 21
-219.213
  0
LINE
  8
0
 10
62.8019
 20
-219.213
 11
62.7251
 21
-218.427
  0
LINE
  8
0
 10
62.7251
 20
-218.427
 11
62.6391
 21
-217.665
  0
LINE
  8
0
 10
62.6391
 20
-217.665
 11
62.5643
 21
-217.073
  0
LINE
  8
0
 10
62.5643
 20
-217.073
 11
62.5563
 21
-217.061
  0
LINE
  8
0
 10
62.5563
 20
-217.061
 11
63.5236
 21
-216.428
  0
LINE
  8
0
 10
63.5236
 20
-216.428
 11
63.5316
 21
-216.441
  0
LINE
  8
0
 10
63.5316
 20
-216.441
 11
64.1744
 21
-216.823
  0
LINE
  8
0
 10
64.1744
 20
-216.823
 11
64.843
 21
-217.207
  0
LINE
  8
0
 10
64.843
 20
-217.207
 11
65.5374
 21
-217.593
  0
LINE
  8
0
 10
65.5374
 20
-217.593
 11
66.2581
 21
-217.979
  0
LINE
  8
0
 10
66.2581
 20
-217.979
 11
66.8535
 21
-218.287
  0
LINE
  8
0
 10
66.8535
 20
-218.287
 11
67.4658
 21
-218.595
  0
LINE
  8
0
 10
67.4658
 20
-218.595
 11
68.0951
 21
-218.903
  0
LINE
  8
0
 10
68.0951
 20
-218.903
 11
68.7415
 21
-219.209
  0
LINE
  8
0
 10
68.7415
 20
-219.209
 11
69.7245
 21
-218.518
  0
LINE
  8
0
 10
69.7245
 20
-218.518
 11
69.6551
 21
-217.806
  0
LINE
  8
0
 10
69.6551
 20
-217.806
 11
69.5789
 21
-217.11
  0
LINE
  8
0
 10
69.5789
 20
-217.11
 11
69.4961
 21
-216.43
  0
LINE
  8
0
 10
69.4961
 20
-216.43
 11
69.384
 21
-215.601
  0
LINE
  8
0
 10
69.384
 20
-215.601
 11
69.2631
 21
-214.797
  0
LINE
  8
0
 10
69.2631
 20
-214.797
 11
69.1339
 21
-214.018
  0
LINE
  8
0
 10
69.1339
 20
-214.018
 11
68.9973
 21
-213.264
  0
LINE
  8
0
 10
68.9973
 20
-213.264
 11
68.8831
 21
-212.679
  0
LINE
  8
0
 10
68.8831
 20
-212.679
 11
68.8743
 21
-212.667
  0
LINE
  8
0
 10
68.8743
 20
-212.667
 11
69.7972
 21
-211.971
  0
LINE
  8
0
 10
69.7972
 20
-211.971
 11
69.806
 21
-211.983
  0
LINE
  8
0
 10
69.806
 20
-211.983
 11
70.4729
 21
-212.321
  0
LINE
  8
0
 10
70.4729
 20
-212.321
 11
71.1656
 21
-212.66
  0
LINE
  8
0
 10
71.1656
 20
-212.66
 11
71.8843
 21
-212.998
  0
LINE
  8
0
 10
71.8843
 20
-212.998
 11
72.6291
 21
-213.335
  0
LINE
  8
0
 10
72.6291
 20
-213.335
 11
73.2438
 21
-213.603
  0
LINE
  8
0
 10
73.2438
 20
-213.603
 11
73.8753
 21
-213.87
  0
LINE
  8
0
 10
73.8753
 20
-213.87
 11
74.5238
 21
-214.135
  0
LINE
  8
0
 10
74.5238
 20
-214.135
 11
75.1891
 21
-214.397
  0
LINE
  8
0
 10
75.1891
 20
-214.397
 11
76.1238
 21
-213.642
  0
LINE
  8
0
 10
76.1238
 20
-213.642
 11
76.007
 21
-212.936
  0
LINE
  8
0
 10
76.007
 20
-212.936
 11
75.8844
 21
-212.247
  0
LINE
  8
0
 10
75.8844
 20
-212.247
 11
75.7564
 21
-211.573
  0
LINE
  8
0
 10
75.7564
 20
-211.573
 11
75.5892
 21
-210.754
  0
LINE
  8
0
 10
75.5892
 20
-210.754
 11
75.4149
 21
-209.96
  0
LINE
  8
0
 10
75.4149
 20
-209.96
 11
75.234
 21
-209.192
  0
LINE
  8
0
 10
75.234
 20
-209.192
 11
75.0473
 21
-208.448
  0
LINE
  8
0
 10
75.0473
 20
-208.448
 11
74.8942
 21
-207.872
  0
LINE
  8
0
 10
74.8942
 20
-207.872
 11
74.8847
 21
-207.861
  0
LINE
  8
0
 10
74.8847
 20
-207.861
 11
75.759
 21
-207.105
  0
LINE
  8
0
 10
75.759
 20
-207.105
 11
75.7686
 21
-207.116
  0
LINE
  8
0
 10
75.7686
 20
-207.116
 11
76.4566
 21
-207.409
  0
LINE
  8
0
 10
76.4566
 20
-207.409
 11
77.1704
 21
-207.7
  0
LINE
  8
0
 10
77.1704
 20
-207.7
 11
77.91
 21
-207.99
  0
LINE
  8
0
 10
77.91
 20
-207.99
 11
78.6757
 21
-208.276
  0
LINE
  8
0
 10
78.6757
 20
-208.276
 11
79.3069
 21
-208.503
  0
LINE
  8
0
 10
79.3069
 20
-208.503
 11
79.9549
 21
-208.727
  0
LINE
  8
0
 10
79.9549
 20
-208.727
 11
80.6196
 21
-208.948
  0
LINE
  8
0
 10
80.6196
 20
-208.948
 11
81.301
 21
-209.165
  0
LINE
  8
0
 10
81.301
 20
-209.165
 11
82.1831
 21
-208.349
  0
LINE
  8
0
 10
82.1831
 20
-208.349
 11
82.0195
 21
-207.653
  0
LINE
  8
0
 10
82.0195
 20
-207.653
 11
81.8511
 21
-206.973
  0
LINE
  8
0
 10
81.8511
 20
-206.973
 11
81.6784
 21
-206.31
  0
LINE
  8
0
 10
81.6784
 20
-206.31
 11
81.4569
 21
-205.503
  0
LINE
  8
0
 10
81.4569
 20
-205.503
 11
81.2299
 21
-204.723
  0
LINE
  8
0
 10
81.2299
 20
-204.723
 11
80.998
 21
-203.968
  0
LINE
  8
0
 10
80.998
 20
-203.968
 11
80.7621
 21
-203.239
  0
LINE
  8
0
 10
80.7621
 20
-203.239
 11
80.5709
 21
-202.674
  0
LINE
  8
0
 10
80.5709
 20
-202.674
 11
80.5606
 21
-202.663
  0
LINE
  8
0
 10
80.5606
 20
-202.663
 11
81.3825
 21
-201.851
  0
LINE
  8
0
 10
81.3825
 20
-201.851
 11
81.3928
 21
-201.861
  0
LINE
  8
0
 10
81.3928
 20
-201.861
 11
82.0989
 21
-202.108
  0
LINE
  8
0
 10
82.0989
 20
-202.108
 11
82.8305
 21
-202.351
  0
LINE
  8
0
 10
82.8305
 20
-202.351
 11
83.5879
 21
-202.59
  0
LINE
  8
0
 10
83.5879
 20
-202.59
 11
84.3709
 21
-202.825
  0
LINE
  8
0
 10
84.3709
 20
-202.825
 11
85.0159
 21
-203.009
  0
LINE
  8
0
 10
85.0159
 20
-203.009
 11
85.6774
 21
-203.189
  0
LINE
  8
0
 10
85.6774
 20
-203.189
 11
86.3553
 21
-203.365
  0
LINE
  8
0
 10
86.3553
 20
-203.365
 11
87.0497
 21
-203.536
  0
LINE
  8
0
 10
87.0497
 20
-203.536
 11
87.8754
 21
-202.663
  0
LINE
  8
0
 10
87.8754
 20
-202.663
 11
87.6656
 21
-201.98
  0
LINE
  8
0
 10
87.6656
 20
-201.98
 11
87.4522
 21
-201.313
  0
LINE
  8
0
 10
87.4522
 20
-201.313
 11
87.2355
 21
-200.662
  0
LINE
  8
0
 10
87.2355
 20
-200.662
 11
86.9607
 21
-199.873
  0
LINE
  8
0
 10
86.9607
 20
-199.873
 11
86.6821
 21
-199.109
  0
LINE
  8
0
 10
86.6821
 20
-199.109
 11
86.4003
 21
-198.371
  0
LINE
  8
0
 10
86.4003
 20
-198.371
 11
86.1162
 21
-197.66
  0
LINE
  8
0
 10
86.1162
 20
-197.66
 11
85.8877
 21
-197.109
  0
LINE
  8
0
 10
85.8877
 20
-197.109
 11
85.8768
 21
-197.099
  0
LINE
  8
0
 10
85.8768
 20
-197.099
 11
86.6425
 21
-196.233
  0
LINE
  8
0
 10
86.6425
 20
-196.233
 11
86.6535
 21
-196.243
  0
LINE
  8
0
 10
86.6535
 20
-196.243
 11
87.3745
 21
-196.442
  0
LINE
  8
0
 10
87.3745
 20
-196.442
 11
88.1207
 21
-196.635
  0
LINE
  8
0
 10
88.1207
 20
-196.635
 11
88.8924
 21
-196.824
  0
LINE
  8
0
 10
88.8924
 20
-196.824
 11
89.6894
 21
-197.006
  0
LINE
  8
0
 10
89.6894
 20
-197.006
 11
90.3452
 21
-197.146
  0
LINE
  8
0
 10
90.3452
 20
-197.146
 11
91.0172
 21
-197.282
  0
LINE
  8
0
 10
91.0172
 20
-197.282
 11
91.7054
 21
-197.412
  0
LINE
  8
0
 10
91.7054
 20
-197.412
 11
92.4097
 21
-197.536
  0
LINE
  8
0
 10
92.4097
 20
-197.536
 11
93.1752
 21
-196.61
  0
LINE
  8
0
 10
93.1752
 20
-196.61
 11
92.9202
 21
-195.942
  0
LINE
  8
0
 10
92.9202
 20
-195.942
 11
92.6627
 21
-195.291
  0
LINE
  8
0
 10
92.6627
 20
-195.291
 11
92.4031
 21
-194.656
  0
LINE
  8
0
 10
92.4031
 20
-194.656
 11
92.0761
 21
-193.887
  0
LINE
  8
0
 10
92.0761
 20
-193.887
 11
91.7471
 21
-193.143
  0
LINE
  8
0
 10
91.7471
 20
-193.143
 11
91.4167
 21
-192.426
  0
LINE
  8
0
 10
91.4167
 20
-192.426
 11
91.0857
 21
-191.735
  0
LINE
  8
0
 10
91.0857
 20
-191.735
 11
90.8209
 21
-191.201
  0
LINE
  8
0
 10
90.8209
 20
-191.201
 11
90.8094
 21
-191.192
  0
LINE
  8
0
 10
90.8094
 20
-191.192
 11
91.5156
 21
-190.277
  0
LINE
  8
0
 10
91.5156
 20
-190.277
 11
91.5272
 21
-190.285
  0
LINE
  8
0
 10
91.5272
 20
-190.285
 11
92.2598
 21
-190.436
  0
LINE
  8
0
 10
92.2598
 20
-190.436
 11
93.0173
 21
-190.579
  0
LINE
  8
0
 10
93.0173
 20
-190.579
 11
93.7999
 21
-190.716
  0
LINE
  8
0
 10
93.7999
 20
-190.716
 11
94.6072
 21
-190.844
  0
LINE
  8
0
 10
94.6072
 20
-190.844
 11
95.2709
 21
-190.94
  0
LINE
  8
0
 10
95.2709
 20
-190.94
 11
95.9505
 21
-191.031
  0
LINE
  8
0
 10
95.9505
 20
-191.031
 11
96.6458
 21
-191.115
  0
LINE
  8
0
 10
96.6458
 20
-191.115
 11
97.3569
 21
-191.192
  0
LINE
  8
0
 10
97.3569
 20
-191.192
 11
98.0588
 21
-190.217
  0
LINE
  8
0
 10
98.0588
 20
-190.217
 11
97.7598
 21
-189.567
  0
LINE
  8
0
 10
97.7598
 20
-189.567
 11
97.4594
 21
-188.934
  0
LINE
  8
0
 10
97.4594
 20
-188.934
 11
97.1579
 21
-188.318
  0
LINE
  8
0
 10
97.1579
 20
-188.318
 11
96.7803
 21
-187.573
  0
LINE
  8
0
 10
96.7803
 20
-187.573
 11
96.4024
 21
-186.853
  0
LINE
  8
0
 10
96.4024
 20
-186.853
 11
96.0249
 21
-186.159
  0
LINE
  8
0
 10
96.0249
 20
-186.159
 11
95.6484
 21
-185.492
  0
LINE
  8
0
 10
95.6484
 20
-185.492
 11
95.3485
 21
-184.976
  0
LINE
  8
0
 10
95.3485
 20
-184.976
 11
95.3364
 21
-184.968
  0
LINE
  8
0
 10
95.3364
 20
-184.968
 11
95.9799
 21
-184.008
  0
LINE
  8
0
 10
95.9799
 20
-184.008
 11
95.9921
 21
-184.016
  0
LINE
  8
0
 10
95.9921
 20
-184.016
 11
96.7331
 21
-184.117
  0
LINE
  8
0
 10
96.7331
 20
-184.117
 11
97.4985
 21
-184.21
  0
LINE
  8
0
 10
97.4985
 20
-184.21
 11
98.2884
 21
-184.293
  0
LINE
  8
0
 10
98.2884
 20
-184.293
 11
99.1025
 21
-184.368
  0
LINE
  8
0
 10
99.1025
 20
-184.368
 11
99.7712
 21
-184.419
  0
LINE
  8
0
 10
99.7712
 20
-184.419
 11
100.455
 21
-184.464
  0
LINE
  8
0
 10
100.455
 20
-184.464
 11
101.155
 21
-184.501
  0
LINE
  8
0
 10
101.155
 20
-184.501
 11
101.869
 21
-184.531
  0
LINE
  8
0
 10
101.869
 20
-184.531
 11
102.505
 21
-183.511
  0
LINE
  8
0
 10
102.505
 20
-183.511
 11
102.163
 21
-182.883
  0
LINE
  8
0
 10
102.163
 20
-182.883
 11
101.821
 21
-182.272
  0
LINE
  8
0
 10
101.821
 20
-182.272
 11
101.479
 21
-181.677
  0
LINE
  8
0
 10
101.479
 20
-181.677
 11
101.052
 21
-180.958
  0
LINE
  8
0
 10
101.052
 20
-180.958
 11
100.627
 21
-180.266
  0
LINE
  8
0
 10
100.627
 20
-180.266
 11
100.204
 21
-179.599
  0
LINE
  8
0
 10
100.204
 20
-179.599
 11
99.7839
 21
-178.958
  0
LINE
  8
0
 10
99.7839
 20
-178.958
 11
99.4502
 21
-178.463
  0
LINE
  8
0
 10
99.4502
 20
-178.463
 11
99.4376
 21
-178.456
  0
LINE
  8
0
 10
99.4376
 20
-178.456
 11
100.016
 21
-177.455
  0
LINE
  8
0
 10
100.016
 20
-177.455
 11
100.028
 21
-177.462
  0
LINE
  8
0
 10
100.028
 20
-177.462
 11
100.774
 21
-177.514
  0
LINE
  8
0
 10
100.774
 20
-177.514
 11
101.544
 21
-177.555
  0
LINE
  8
0
 10
101.544
 20
-177.555
 11
102.338
 21
-177.586
  0
LINE
  8
0
 10
102.338
 20
-177.586
 11
103.155
 21
-177.605
  0
LINE
  8
0
 10
103.155
 20
-177.605
 11
103.826
 21
-177.612
  0
LINE
  8
0
 10
103.826
 20
-177.612
 11
104.511
 21
-177.611
  0
LINE
  8
0
 10
104.511
 20
-177.611
 11
105.212
 21
-177.602
  0
LINE
  8
0
 10
105.212
 20
-177.602
 11
105.927
 21
-177.584
  0
LINE
  8
0
 10
105.927
 20
-177.584
 11
106.492
 21
-176.524
  0
LINE
  8
0
 10
106.492
 20
-176.524
 11
106.109
 21
-175.919
  0
LINE
  8
0
 10
106.109
 20
-175.919
 11
105.727
 21
-175.332
  0
LINE
  8
0
 10
105.727
 20
-175.332
 11
105.347
 21
-174.762
  0
LINE
  8
0
 10
105.347
 20
-174.762
 11
104.873
 21
-174.074
  0
LINE
  8
0
 10
104.873
 20
-174.074
 11
104.402
 21
-173.411
  0
LINE
  8
0
 10
104.402
 20
-173.411
 11
103.936
 21
-172.774
  0
LINE
  8
0
 10
103.936
 20
-172.774
 11
103.474
 21
-172.162
  0
LINE
  8
0
 10
103.474
 20
-172.162
 11
103.108
 21
-171.691
  0
LINE
  8
0
 10
103.108
 20
-171.691
 11
103.095
 21
-171.685
  0
LINE
  8
0
 10
103.095
 20
-171.685
 11
103.604
 21
-170.647
  0
LINE
  8
0
 10
103.604
 20
-170.647
 11
103.618
 21
-170.654
  0
LINE
  8
0
 10
103.618
 20
-170.654
 11
104.365
 21
-170.655
  0
LINE
  8
0
 10
104.365
 20
-170.655
 11
105.136
 21
-170.645
  0
LINE
  8
0
 10
105.136
 20
-170.645
 11
105.93
 21
-170.623
  0
LINE
  8
0
 10
105.93
 20
-170.623
 11
106.747
 21
-170.588
  0
LINE
  8
0
 10
106.747
 20
-170.588
 11
107.417
 21
-170.55
  0
LINE
  8
0
 10
107.417
 20
-170.55
 11
108.101
 21
-170.503
  0
LINE
  8
0
 10
108.101
 20
-170.503
 11
108.799
 21
-170.447
  0
LINE
  8
0
 10
108.799
 20
-170.447
 11
109.511
 21
-170.381
  0
LINE
  8
0
 10
109.511
 20
-170.381
 11
110.005
 21
-169.285
  0
LINE
  8
0
 10
110.005
 20
-169.285
 11
109.582
 21
-168.708
  0
LINE
  8
0
 10
109.582
 20
-168.708
 11
109.162
 21
-168.148
  0
LINE
  8
0
 10
109.162
 20
-168.148
 11
108.744
 21
-167.605
  0
LINE
  8
0
 10
108.744
 20
-167.605
 11
108.225
 21
-166.949
  0
LINE
  8
0
 10
108.225
 20
-166.949
 11
107.711
 21
-166.319
  0
LINE
  8
0
 10
107.711
 20
-166.319
 11
107.203
 21
-165.715
  0
LINE
  8
0
 10
107.203
 20
-165.715
 11
106.701
 21
-165.135
  0
LINE
  8
0
 10
106.701
 20
-165.135
 11
106.305
 21
-164.69
  0
LINE
  8
0
 10
106.305
 20
-164.69
 11
106.291
 21
-164.684
  0
LINE
  8
0
 10
106.291
 20
-164.684
 11
106.731
 21
-163.615
  0
LINE
  8
0
 10
106.731
 20
-163.615
 11
106.744
 21
-163.621
  0
LINE
  8
0
 10
106.744
 20
-163.621
 11
107.491
 21
-163.572
  0
LINE
  8
0
 10
107.491
 20
-163.572
 11
108.259
 21
-163.51
  0
LINE
  8
0
 10
108.259
 20
-163.51
 11
109.05
 21
-163.435
  0
LINE
  8
0
 10
109.05
 20
-163.435
 11
109.862
 21
-163.345
  0
LINE
  8
0
 10
109.862
 20
-163.345
 11
110.528
 21
-163.263
  0
LINE
  8
0
 10
110.528
 20
-163.263
 11
111.207
 21
-163.171
  0
LINE
  8
0
 10
111.207
 20
-163.171
 11
111.9
 21
-163.068
  0
LINE
  8
0
 10
111.9
 20
-163.068
 11
112.606
 21
-162.955
  0
LINE
  8
0
 10
112.606
 20
-162.955
 11
113.026
 21
-161.829
  0
LINE
  8
0
 10
113.026
 20
-161.829
 11
112.566
 21
-161.281
  0
LINE
  8
0
 10
112.566
 20
-161.281
 11
112.109
 21
-160.75
  0
LINE
  8
0
 10
112.109
 20
-160.75
 11
111.655
 21
-160.236
  0
LINE
  8
0
 10
111.655
 20
-160.236
 11
111.094
 21
-159.616
  0
LINE
  8
0
 10
111.094
 20
-159.616
 11
110.539
 21
-159.022
  0
LINE
  8
0
 10
110.539
 20
-159.022
 11
109.992
 21
-158.453
  0
LINE
  8
0
 10
109.992
 20
-158.453
 11
109.453
 21
-157.908
  0
LINE
  8
0
 10
109.453
 20
-157.908
 11
109.027
 21
-157.49
  0
LINE
  8
0
 10
109.027
 20
-157.49
 11
109.013
 21
-157.486
  0
LINE
  8
0
 10
109.013
 20
-157.486
 11
109.38
 21
-156.39
  0
LINE
  8
0
 10
109.38
 20
-156.39
 11
109.394
 21
-156.394
  0
LINE
  8
0
 10
109.394
 20
-156.394
 11
110.135
 21
-156.296
  0
LINE
  8
0
 10
110.135
 20
-156.296
 11
110.898
 21
-156.183
  0
LINE
  8
0
 10
110.898
 20
-156.183
 11
111.682
 21
-156.055
  0
LINE
  8
0
 10
111.682
 20
-156.055
 11
112.487
 21
-155.912
  0
LINE
  8
0
 10
112.487
 20
-155.912
 11
113.146
 21
-155.785
  0
LINE
  8
0
 10
113.146
 20
-155.785
 11
113.817
 21
-155.647
  0
LINE
  8
0
 10
113.817
 20
-155.647
 11
114.502
 21
-155.498
  0
LINE
  8
0
 10
114.502
 20
-155.498
 11
115.199
 21
-155.338
  0
LINE
  8
0
 10
115.199
 20
-155.338
 11
115.542
 21
-154.187
  0
LINE
  8
0
 10
115.542
 20
-154.187
 11
115.046
 21
-153.671
  0
LINE
  8
0
 10
115.046
 20
-153.671
 11
114.555
 21
-153.172
  0
LINE
  8
0
 10
114.555
 20
-153.172
 11
114.068
 21
-152.689
  0
LINE
  8
0
 10
114.068
 20
-152.689
 11
113.467
 21
-152.108
  0
LINE
  8
0
 10
113.467
 20
-152.108
 11
112.874
 21
-151.552
  0
LINE
  8
0
 10
112.874
 20
-151.552
 11
112.29
 21
-151.021
  0
LINE
  8
0
 10
112.29
 20
-151.021
 11
111.715
 21
-150.514
  0
LINE
  8
0
 10
111.715
 20
-150.514
 11
111.262
 21
-150.125
  0
LINE
  8
0
 10
111.262
 20
-150.125
 11
111.248
 21
-150.122
  0
LINE
  8
0
 10
111.248
 20
-150.122
 11
111.541
 21
-149.003
  0
LINE
  8
0
 10
111.541
 20
-149.003
 11
111.555
 21
-149.007
  0
LINE
  8
0
 10
111.555
 20
-149.007
 11
112.289
 21
-148.859
  0
LINE
  8
0
 10
112.289
 20
-148.859
 11
113.042
 21
-148.696
  0
LINE
  8
0
 10
113.042
 20
-148.696
 11
113.816
 21
-148.516
  0
LINE
  8
0
 10
113.816
 20
-148.516
 11
114.609
 21
-148.319
  0
LINE
  8
0
 10
114.609
 20
-148.319
 11
115.258
 21
-148.148
  0
LINE
  8
0
 10
115.258
 20
-148.148
 11
115.919
 21
-147.966
  0
LINE
  8
0
 10
115.919
 20
-147.966
 11
116.592
 21
-147.772
  0
LINE
  8
0
 10
116.592
 20
-147.772
 11
117.276
 21
-147.566
  0
LINE
  8
0
 10
117.276
 20
-147.566
 11
117.542
 21
-146.394
  0
LINE
  8
0
 10
117.542
 20
-146.394
 11
117.013
 21
-145.912
  0
LINE
  8
0
 10
117.013
 20
-145.912
 11
116.489
 21
-145.447
  0
LINE
  8
0
 10
116.489
 20
-145.447
 11
115.972
 21
-144.998
  0
LINE
  8
0
 10
115.972
 20
-144.998
 11
115.333
 21
-144.459
  0
LINE
  8
0
 10
115.333
 20
-144.459
 11
114.704
 21
-143.944
  0
LINE
  8
0
 10
114.704
 20
-143.944
 11
114.085
 21
-143.453
  0
LINE
  8
0
 10
114.085
 20
-143.453
 11
113.478
 21
-142.985
  0
LINE
  8
0
 10
113.478
 20
-142.985
 11
113.001
 21
-142.627
  0
LINE
  8
0
 10
113.001
 20
-142.627
 11
112.987
 21
-142.625
  0
LINE
  8
0
 10
112.987
 20
-142.625
 11
113.204
 21
-141.489
  0
LINE
  8
0
 10
113.204
 20
-141.489
 11
113.218
 21
-141.492
  0
LINE
  8
0
 10
113.218
 20
-141.492
 11
113.94
 21
-141.296
  0
LINE
  8
0
 10
113.94
 20
-141.296
 11
114.681
 21
-141.082
  0
LINE
  8
0
 10
114.681
 20
-141.082
 11
115.441
 21
-140.851
  0
LINE
  8
0
 10
115.441
 20
-140.851
 11
116.219
 21
-140.601
  0
LINE
  8
0
 10
116.219
 20
-140.601
 11
116.855
 21
-140.388
  0
LINE
  8
0
 10
116.855
 20
-140.388
 11
117.502
 21
-140.162
  0
LINE
  8
0
 10
117.502
 20
-140.162
 11
118.161
 21
-139.924
  0
LINE
  8
0
 10
118.161
 20
-139.924
 11
118.83
 21
-139.672
  0
LINE
  8
0
 10
118.83
 20
-139.672
 11
119.017
 21
-138.485
  0
LINE
  8
0
 10
119.017
 20
-138.485
 11
118.457
 21
-138.04
  0
LINE
  8
0
 10
118.457
 20
-138.04
 11
117.904
 21
-137.611
  0
LINE
  8
0
 10
117.904
 20
-137.611
 11
117.357
 21
-137.197
  0
LINE
  8
0
 10
117.357
 20
-137.197
 11
116.684
 21
-136.702
  0
LINE
  8
0
 10
116.684
 20
-136.702
 11
116.022
 21
-136.23
  0
LINE
  8
0
 10
116.022
 20
-136.23
 11
115.372
 21
-135.781
  0
LINE
  8
0
 10
115.372
 20
-135.781
 11
114.735
 21
-135.355
  0
LINE
  8
0
 10
114.735
 20
-135.355
 11
114.235
 21
-135.03
  0
LINE
  8
0
 10
114.235
 20
-135.03
 11
114.22
 21
-135.028
  0
LINE
  8
0
 10
114.22
 20
-135.028
 11
114.361
 21
-133.881
  0
LINE
  8
0
 10
114.361
 20
-133.881
 11
114.376
 21
-133.883
  0
LINE
  8
0
 10
114.376
 20
-133.883
 11
115.083
 21
-133.639
  0
LINE
  8
0
 10
115.083
 20
-133.639
 11
115.808
 21
-133.376
  0
LINE
  8
0
 10
115.808
 20
-133.376
 11
116.551
 21
-133.095
  0
LINE
  8
0
 10
116.551
 20
-133.095
 11
117.311
 21
-132.794
  0
LINE
  8
0
 10
117.311
 20
-132.794
 11
117.931
 21
-132.538
  0
LINE
  8
0
 10
117.931
 20
-132.538
 11
118.561
 21
-132.27
  0
LINE
  8
0
 10
118.561
 20
-132.27
 11
119.203
 21
-131.988
  0
LINE
  8
0
 10
119.203
 20
-131.988
 11
119.854
 21
-131.692
  0
LINE
  8
0
 10
119.854
 20
-131.692
 11
119.961
 21
-130.495
  0
LINE
  8
0
 10
119.961
 20
-130.495
 11
119.372
 21
-130.088
  0
LINE
  8
0
 10
119.372
 20
-130.088
 11
118.791
 21
-129.697
  0
LINE
  8
0
 10
118.791
 20
-129.697
 11
118.218
 21
-129.321
  0
LINE
  8
0
 10
118.218
 20
-129.321
 11
117.513
 21
-128.872
  0
LINE
  8
0
 10
117.513
 20
-128.872
 11
116.821
 21
-128.445
  0
LINE
  8
0
 10
116.821
 20
-128.445
 11
116.143
 21
-128.041
  0
LINE
  8
0
 10
116.143
 20
-128.041
 11
115.479
 21
-127.658
  0
LINE
  8
0
 10
115.479
 20
-127.658
 11
114.958
 21
-127.367
  0
LINE
  8
0
 10
114.958
 20
-127.367
 11
114.944
 21
-127.366
  0
LINE
  8
0
 10
114.944
 20
-127.366
 11
115.008
 21
-126.212
  0
LINE
  8
0
 10
115.008
 20
-126.212
 11
115.022
 21
-126.213
  0
LINE
  8
0
 10
115.022
 20
-126.213
 11
115.712
 21
-125.922
  0
LINE
  8
0
 10
115.712
 20
-125.922
 11
116.417
 21
-125.612
  0
LINE
  8
0
 10
116.417
 20
-125.612
 11
117.14
 21
-125.282
  0
LINE
  8
0
 10
117.14
 20
-125.282
 11
117.878
 21
-124.93
  0
LINE
  8
0
 10
117.878
 20
-124.93
 11
118.48
 21
-124.634
  0
LINE
  8
0
 10
118.48
 20
-124.634
 11
119.091
 21
-124.324
  0
LINE
  8
0
 10
119.091
 20
-124.324
 11
119.712
 21
-124
  0
LINE
  8
0
 10
119.712
 20
-124
 11
120.342
 21
-123.661
  0
LINE
  8
0
 10
120.342
 20
-123.661
 11
120.368
 21
-122.46
  0
LINE
  8
0
 10
120.368
 20
-122.46
 11
119.754
 21
-122.093
  0
LINE
  8
0
 10
119.754
 20
-122.093
 11
119.148
 21
-121.742
  0
LINE
  8
0
 10
119.148
 20
-121.742
 11
118.552
 21
-121.405
  0
LINE
  8
0
 10
118.552
 20
-121.405
 11
117.818
 21
-121.004
  0
LINE
  8
0
 10
117.818
 20
-121.004
 11
117.099
 21
-120.624
  0
LINE
  8
0
 10
117.099
 20
-120.624
 11
116.395
 21
-120.266
  0
LINE
  8
0
 10
116.395
 20
-120.266
 11
115.707
 21
-119.929
  0
LINE
  8
0
 10
115.707
 20
-119.929
 11
115.168
 21
-119.673
  0
LINE
  8
0
 10
115.168
 20
-119.673
 11
115.154
 21
-119.673
  0
LINE
  8
0
 10
115.154
 20
-119.673
 11
115.141
 21
-118.518
  0
LINE
  8
0
 10
115.141
 20
-118.518
 11
115.155
 21
-118.517
  0
LINE
  8
0
 10
115.155
 20
-118.517
 11
115.823
 21
-118.181
  0
LINE
  8
0
 10
115.823
 20
-118.181
 11
116.507
 21
-117.825
  0
LINE
  8
0
 10
116.507
 20
-117.825
 11
117.206
 21
-117.447
  0
LINE
  8
0
 10
117.206
 20
-117.447
 11
117.919
 21
-117.047
  0
LINE
  8
0
 10
117.919
 20
-117.047
 11
118.499
 21
-116.711
  0
LINE
  8
0
 10
118.499
 20
-116.711
 11
119.089
 21
-116.361
  0
LINE
  8
0
 10
119.089
 20
-116.361
 11
119.686
 21
-115.996
  0
LINE
  8
0
 10
119.686
 20
-115.996
 11
120.292
 21
-115.616
  0
LINE
  8
0
 10
120.292
 20
-115.616
 11
120.239
 21
-114.415
  0
LINE
  8
0
 10
120.239
 20
-114.415
 11
119.601
 21
-114.091
  0
LINE
  8
0
 10
119.601
 20
-114.091
 11
118.973
 21
-113.781
  0
LINE
  8
0
 10
118.973
 20
-113.781
 11
118.355
 21
-113.484
  0
LINE
  8
0
 10
118.355
 20
-113.484
 11
117.597
 21
-113.133
  0
LINE
  8
0
 10
117.597
 20
-113.133
 11
116.854
 21
-112.802
  0
LINE
  8
0
 10
116.854
 20
-112.802
 11
116.128
 21
-112.492
  0
LINE
  8
0
 10
116.128
 20
-112.492
 11
115.419
 21
-112.201
  0
LINE
  8
0
 10
115.419
 20
-112.201
 11
114.864
 21
-111.983
  0
LINE
  8
0
 10
114.864
 20
-111.983
 11
114.849
 21
-111.984
  0
LINE
  8
0
 10
114.849
 20
-111.984
 11
114.759
 21
-110.831
  0
LINE
  8
0
 10
114.759
 20
-110.831
 11
114.774
 21
-110.83
  0
LINE
  8
0
 10
114.774
 20
-110.83
 11
115.418
 21
-110.45
  0
LINE
  8
0
 10
115.418
 20
-110.45
 11
116.076
 21
-110.048
  0
LINE
  8
0
 10
116.076
 20
-110.048
 11
116.748
 21
-109.625
  0
LINE
  8
0
 10
116.748
 20
-109.625
 11
117.433
 21
-109.178
  0
LINE
  8
0
 10
117.433
 20
-109.178
 11
117.99
 21
-108.804
  0
LINE
  8
0
 10
117.99
 20
-108.804
 11
118.554
 21
-108.416
  0
LINE
  8
0
 10
118.554
 20
-108.416
 11
119.126
 21
-108.011
  0
LINE
  8
0
 10
119.126
 20
-108.011
 11
119.705
 21
-107.592
  0
LINE
  8
0
 10
119.705
 20
-107.592
 11
119.572
 21
-106.398
  0
LINE
  8
0
 10
119.572
 20
-106.398
 11
118.914
 21
-106.116
  0
LINE
  8
0
 10
118.914
 20
-106.116
 11
118.267
 21
-105.849
  0
LINE
  8
0
 10
118.267
 20
-105.849
 11
117.631
 21
-105.594
  0
LINE
  8
0
 10
117.631
 20
-105.594
 11
116.85
 21
-105.294
  0
LINE
  8
0
 10
116.85
 20
-105.294
 11
116.087
 21
-105.014
  0
LINE
  8
0
 10
116.087
 20
-105.014
 11
115.342
 21
-104.753
  0
LINE
  8
0
 10
115.342
 20
-104.753
 11
114.615
 21
-104.51
  0
LINE
  8
0
 10
114.615
 20
-104.51
 11
114.047
 21
-104.329
  0
LINE
  8
0
 10
114.047
 20
-104.329
 11
114.032
 21
-104.331
  0
LINE
  8
0
 10
114.032
 20
-104.331
 11
113.865
 21
-103.188
  0
LINE
  8
0
 10
113.865
 20
-103.188
 11
113.88
 21
-103.185
  0
LINE
  8
0
 10
113.88
 20
-103.185
 11
114.497
 21
-102.763
  0
LINE
  8
0
 10
114.497
 20
-102.763
 11
115.127
 21
-102.319
  0
LINE
  8
0
 10
115.127
 20
-102.319
 11
115.769
 21
-101.851
  0
LINE
  8
0
 10
115.769
 20
-101.851
 11
116.422
 21
-101.36
  0
LINE
  8
0
 10
116.422
 20
-101.36
 11
116.953
 21
-100.949
  0
LINE
  8
0
 10
116.953
 20
-100.949
 11
117.49
 21
-100.524
  0
LINE
  8
0
 10
117.49
 20
-100.524
 11
118.034
 21
-100.082
  0
LINE
  8
0
 10
118.034
 20
-100.082
 11
118.584
 21
-99.625
  0
LINE
  8
0
 10
118.584
 20
-99.625
 11
118.371
 21
-98.4424
  0
LINE
  8
0
 10
118.371
 20
-98.4424
 11
117.696
 21
-98.2057
  0
LINE
  8
0
 10
117.696
 20
-98.2057
 11
117.033
 21
-97.9818
  0
LINE
  8
0
 10
117.033
 20
-97.9818
 11
116.38
 21
-97.7704
  0
LINE
  8
0
 10
116.38
 20
-97.7704
 11
115.582
 21
-97.5233
  0
LINE
  8
0
 10
115.582
 20
-97.5233
 11
114.802
 21
-97.2947
  0
LINE
  8
0
 10
114.802
 20
-97.2947
 11
114.041
 21
-97.084
  0
LINE
  8
0
 10
114.041
 20
-97.084
 11
113.299
 21
-96.8905
  0
LINE
  8
0
 10
113.299
 20
-96.8905
 11
112.72
 21
-96.7477
  0
LINE
  8
0
 10
112.72
 20
-96.7477
 11
112.706
 21
-96.7506
  0
LINE
  8
0
 10
112.706
 20
-96.7506
 11
112.463
 21
-95.6206
  0
LINE
  8
0
 10
112.463
 20
-95.6206
 11
112.477
 21
-95.6174
  0
LINE
  8
0
 10
112.477
 20
-95.6174
 11
113.065
 21
-95.155
  0
LINE
  8
0
 10
113.065
 20
-95.155
 11
113.664
 21
-94.6692
  0
LINE
  8
0
 10
113.664
 20
-94.6692
 11
114.273
 21
-94.1597
  0
LINE
  8
0
 10
114.273
 20
-94.1597
 11
114.892
 21
-93.6259
  0
LINE
  8
0
 10
114.892
 20
-93.6259
 11
115.394
 21
-93.1813
  0
LINE
  8
0
 10
115.394
 20
-93.1813
 11
115.902
 21
-92.7206
  0
LINE
  8
0
 10
115.902
 20
-92.7206
 11
116.415
 21
-92.2439
  0
LINE
  8
0
 10
116.415
 20
-92.2439
 11
116.933
 21
-91.7507
  0
LINE
  8
0
 10
116.933
 20
-91.7507
 11
116.642
 21
-90.5851
  0
LINE
  8
0
 10
116.642
 20
-90.5851
 11
115.952
 21
-90.394
  0
LINE
  8
0
 10
115.952
 20
-90.394
 11
115.275
 21
-90.2149
  0
LINE
  8
0
 10
115.275
 20
-90.2149
 11
114.61
 21
-90.0476
  0
LINE
  8
0
 10
114.61
 20
-90.0476
 11
113.797
 21
-89.8543
  0
LINE
  8
0
 10
113.797
 20
-89.8543
 11
113.003
 21
-89.6783
  0
LINE
  8
0
 10
113.003
 20
-89.6783
 11
112.23
 21
-89.5189
  0
LINE
  8
0
 10
112.23
 20
-89.5189
 11
111.477
 21
-89.3754
  0
LINE
  8
0
 10
111.477
 20
-89.3754
 11
110.89
 21
-89.2715
  0
LINE
  8
0
 10
110.89
 20
-89.2715
 11
110.876
 21
-89.2755
  0
LINE
  8
0
 10
110.876
 20
-89.2755
 11
110.558
 21
-88.1642
  0
LINE
  8
0
 10
110.558
 20
-88.1642
 11
110.572
 21
-88.1601
  0
LINE
  8
0
 10
110.572
 20
-88.1601
 11
111.128
 21
-87.6594
  0
LINE
  8
0
 10
111.128
 20
-87.6594
 11
111.693
 21
-87.1347
  0
LINE
  8
0
 10
111.693
 20
-87.1347
 11
112.267
 21
-86.5856
  0
LINE
  8
0
 10
112.267
 20
-86.5856
 11
112.849
 21
-86.0117
  0
LINE
  8
0
 10
112.849
 20
-86.0117
 11
113.32
 21
-85.5345
  0
LINE
  8
0
 10
113.32
 20
-85.5345
 11
113.796
 21
-85.041
  0
LINE
  8
0
 10
113.796
 20
-85.041
 11
114.276
 21
-84.531
  0
LINE
  8
0
 10
114.276
 20
-84.531
 11
114.76
 21
-84.0044
  0
LINE
  8
0
 10
114.76
 20
-84.0044
 11
114.391
 21
-82.8609
  0
LINE
  8
0
 10
114.391
 20
-82.8609
 11
113.691
 21
-82.7162
  0
LINE
  8
0
 10
113.691
 20
-82.7162
 11
113.003
 21
-82.5827
  0
LINE
  8
0
 10
113.003
 20
-82.5827
 11
112.329
 21
-82.4602
  0
LINE
  8
0
 10
112.329
 20
-82.4602
 11
111.504
 21
-82.3217
  0
LINE
  8
0
 10
111.504
 20
-82.3217
 11
110.701
 21
-82.1991
  0
LINE
  8
0
 10
110.701
 20
-82.1991
 11
109.918
 21
-82.0917
  0
LINE
  8
0
 10
109.918
 20
-82.0917
 11
109.158
 21
-81.9987
  0
LINE
  8
0
 10
109.158
 20
-81.9987
 11
108.565
 21
-81.9344
  0
LINE
  8
0
 10
108.565
 20
-81.9344
 11
108.551
 21
-81.9393
  0
LINE
  8
0
 10
108.551
 20
-81.9393
 11
108.16
 21
-80.8517
  0
LINE
  8
0
 10
108.16
 20
-80.8517
 11
108.173
 21
-80.8466
  0
LINE
  8
0
 10
108.173
 20
-80.8466
 11
108.694
 21
-80.31
  0
LINE
  8
0
 10
108.694
 20
-80.31
 11
109.223
 21
-79.7487
  0
LINE
  8
0
 10
109.223
 20
-79.7487
 11
109.759
 21
-79.1625
  0
LINE
  8
0
 10
109.759
 20
-79.1625
 11
110.301
 21
-78.551
  0
LINE
  8
0
 10
110.301
 20
-78.551
 11
110.74
 21
-78.0434
  0
LINE
  8
0
 10
110.74
 20
-78.0434
 11
111.181
 21
-77.5192
  0
LINE
  8
0
 10
111.181
 20
-77.5192
 11
111.626
 21
-76.9783
  0
LINE
  8
0
 10
111.626
 20
-76.9783
 11
112.074
 21
-76.4205
  0
LINE
  8
0
 10
112.074
 20
-76.4205
 11
111.63
 21
-75.3042
  0
LINE
  8
0
 10
111.63
 20
-75.3042
 11
110.921
 21
-75.2066
  0
LINE
  8
0
 10
110.921
 20
-75.2066
 11
110.226
 21
-75.1194
  0
LINE
  8
0
 10
110.226
 20
-75.1194
 11
109.545
 21
-75.0421
  0
LINE
  8
0
 10
109.545
 20
-75.0421
 11
108.713
 21
-74.959
  0
LINE
  8
0
 10
108.713
 20
-74.959
 11
107.903
 21
-74.8904
  0
LINE
  8
0
 10
107.903
 20
-74.8904
 11
107.116
 21
-74.8354
  0
LINE
  8
0
 10
107.116
 20
-74.8354
 11
106.35
 21
-74.7935
  0
LINE
  8
0
 10
106.35
 20
-74.7935
 11
105.754
 21
-74.7689
  0
LINE
  8
0
 10
105.754
 20
-74.7689
 11
105.741
 21
-74.7747
  0
LINE
  8
0
 10
105.741
 20
-74.7747
 11
105.278
 21
-73.7157
  0
LINE
  8
0
 10
105.278
 20
-73.7157
 11
105.291
 21
-73.7097
  0
LINE
  8
0
 10
105.291
 20
-73.7097
 11
105.775
 21
-73.1395
  0
LINE
  8
0
 10
105.775
 20
-73.1395
 11
106.265
 21
-72.5442
  0
LINE
  8
0
 10
106.265
 20
-72.5442
 11
106.761
 21
-71.9235
  0
LINE
  8
0
 10
106.761
 20
-71.9235
 11
107.261
 21
-71.2771
  0
LINE
  8
0
 10
107.261
 20
-71.2771
 11
107.665
 21
-70.7413
  0
LINE
  8
0
 10
107.665
 20
-70.7413
 11
108.07
 21
-70.1888
  0
LINE
  8
0
 10
108.07
 20
-70.1888
 11
108.478
 21
-69.6194
  0
LINE
  8
0
 10
108.478
 20
-69.6194
 11
108.888
 21
-69.0329
  0
LINE
  8
0
 10
108.888
 20
-69.0329
 11
108.37
 21
-67.9487
  0
LINE
  8
0
 10
108.37
 20
-67.9487
 11
107.656
 21
-67.8987
  0
LINE
  8
0
 10
107.656
 20
-67.8987
 11
106.957
 21
-67.8581
  0
LINE
  8
0
 10
106.957
 20
-67.8581
 11
106.272
 21
-67.8265
  0
LINE
  8
0
 10
106.272
 20
-67.8265
 11
105.437
 21
-67.7992
  0
LINE
  8
0
 10
105.437
 20
-67.7992
 11
104.624
 21
-67.7848
  0
LINE
  8
0
 10
104.624
 20
-67.7848
 11
103.834
 21
-67.7826
  0
LINE
  8
0
 10
103.834
 20
-67.7826
 11
103.068
 21
-67.7919
  0
LINE
  8
0
 10
103.068
 20
-67.7919
 11
102.472
 21
-67.8072
  0
LINE
  8
0
 10
102.472
 20
-67.8072
 11
102.459
 21
-67.8138
  0
LINE
  8
0
 10
102.459
 20
-67.8138
 11
101.926
 21
-66.7881
  0
LINE
  8
0
 10
101.926
 20
-66.7881
 11
101.939
 21
-66.7813
  0
LINE
  8
0
 10
101.939
 20
-66.7813
 11
102.384
 21
-66.18
  0
LINE
  8
0
 10
102.384
 20
-66.18
 11
102.833
 21
-65.5533
  0
LINE
  8
0
 10
102.833
 20
-65.5533
 11
103.286
 21
-64.9009
  0
LINE
  8
0
 10
103.286
 20
-64.9009
 11
103.742
 21
-64.2225
  0
LINE
  8
0
 10
103.742
 20
-64.2225
 11
104.109
 21
-63.661
  0
LINE
  8
0
 10
104.109
 20
-63.661
 11
104.477
 21
-63.0826
  0
LINE
  8
0
 10
104.477
 20
-63.0826
 11
104.846
 21
-62.4872
  0
LINE
  8
0
 10
104.846
 20
-62.4872
 11
105.215
 21
-61.8747
  0
LINE
  8
0
 10
105.215
 20
-61.8747
 11
104.626
 21
-60.8275
  0
LINE
  8
0
 10
104.626
 20
-60.8275
 11
103.911
 21
-60.8253
  0
LINE
  8
0
 10
103.911
 20
-60.8253
 11
103.21
 21
-60.8314
  0
LINE
  8
0
 10
103.21
 20
-60.8314
 11
102.525
 21
-60.8457
  0
LINE
  8
0
 10
102.525
 20
-60.8457
 11
101.689
 21
-60.8742
  0
LINE
  8
0
 10
101.689
 20
-60.8742
 11
100.878
 21
-60.9141
  0
LINE
  8
0
 10
100.878
 20
-60.9141
 11
100.09
 21
-60.9647
  0
LINE
  8
0
 10
100.09
 20
-60.9647
 11
99.3255
 21
-61.0251
  0
LINE
  8
0
 10
99.3255
 20
-61.0251
 11
98.7316
 21
-61.0802
  0
LINE
  8
0
 10
98.7316
 20
-61.0802
 11
98.7191
 21
-61.0877
  0
LINE
  8
0
 10
98.7191
 20
-61.0877
 11
98.119
 21
-60.0998
  0
LINE
  8
0
 10
98.119
 20
-60.0998
 11
98.1315
 21
-60.0922
  0
LINE
  8
0
 10
98.1315
 20
-60.0922
 11
98.535
 21
-59.4625
  0
LINE
  8
0
 10
98.535
 20
-59.4625
 11
98.9413
 21
-58.8072
  0
LINE
  8
0
 10
98.9413
 20
-58.8072
 11
99.3497
 21
-58.126
  0
LINE
  8
0
 10
99.3497
 20
-58.126
 11
99.7596
 21
-57.4187
  0
LINE
  8
0
 10
99.7596
 20
-57.4187
 11
100.088
 21
-56.8339
  0
LINE
  8
0
 10
100.088
 20
-56.8339
 11
100.417
 21
-56.2322
  0
LINE
  8
0
 10
100.417
 20
-56.2322
 11
100.745
 21
-55.6135
  0
LINE
  8
0
 10
100.745
 20
-55.6135
 11
101.073
 21
-54.9778
  0
LINE
  8
0
 10
101.073
 20
-54.9778
 11
100.415
 21
-53.9723
  0
LINE
  8
0
 10
100.415
 20
-53.9723
 11
99.701
 21
-54.0178
  0
LINE
  8
0
 10
99.701
 20
-54.0178
 11
99.0026
 21
-54.0707
  0
LINE
  8
0
 10
99.0026
 20
-54.0707
 11
98.3197
 21
-54.1307
  0
LINE
  8
0
 10
98.3197
 20
-54.1307
 11
97.4879
 21
-54.215
  0
LINE
  8
0
 10
97.4879
 20
-54.215
 11
96.6805
 21
-54.3091
  0
LINE
  8
0
 10
96.6805
 20
-54.3091
 11
95.8976
 21
-54.4121
  0
LINE
  8
0
 10
95.8976
 20
-54.4121
 11
95.1393
 21
-54.5235
  0
LINE
  8
0
 10
95.1393
 20
-54.5235
 11
94.5504
 21
-54.6181
  0
LINE
  8
0
 10
94.5504
 20
-54.6181
 11
94.5384
 21
-54.6264
  0
LINE
  8
0
 10
94.5384
 20
-54.6264
 11
93.8737
 21
-53.6808
  0
LINE
  8
0
 10
93.8737
 20
-53.6808
 11
93.8856
 21
-53.6723
  0
LINE
  8
0
 10
93.8856
 20
-53.6723
 11
94.2462
 21
-53.0172
  0
LINE
  8
0
 10
94.2462
 20
-53.0172
 11
94.6079
 21
-52.3362
  0
LINE
  8
0
 10
94.6079
 20
-52.3362
 11
94.9699
 21
-51.6292
  0
LINE
  8
0
 10
94.9699
 20
-51.6292
 11
95.3316
 21
-50.8961
  0
LINE
  8
0
 10
95.3316
 20
-50.8961
 11
95.6202
 21
-50.2907
  0
LINE
  8
0
 10
95.6202
 20
-50.2907
 11
95.9078
 21
-49.6684
  0
LINE
  8
0
 10
95.9078
 20
-49.6684
 11
96.1941
 21
-49.0291
  0
LINE
  8
0
 10
96.1941
 20
-49.0291
 11
96.4785
 21
-48.3729
  0
LINE
  8
0
 10
96.4785
 20
-48.3729
 11
95.7551
 21
-47.4136
  0
LINE
  8
0
 10
95.7551
 20
-47.4136
 11
95.0459
 21
-47.5067
  0
LINE
  8
0
 10
95.0459
 20
-47.5067
 11
94.3526
 21
-47.6062
  0
LINE
  8
0
 10
94.3526
 20
-47.6062
 11
93.6752
 21
-47.7116
  0
LINE
  8
0
 10
93.6752
 20
-47.7116
 11
92.8509
 21
-47.8513
  0
LINE
  8
0
 10
92.8509
 20
-47.8513
 11
92.0517
 21
-47.999
  0
LINE
  8
0
 10
92.0517
 20
-47.999
 11
91.2774
 21
-48.1542
  0
LINE
  8
0
 10
91.2774
 20
-48.1542
 11
90.5282
 21
-48.3159
  0
LINE
  8
0
 10
90.5282
 20
-48.3159
 11
89.947
 21
-48.4496
  0
LINE
  8
0
 10
89.947
 20
-48.4496
 11
89.9356
 21
-48.4588
  0
LINE
  8
0
 10
89.9356
 20
-48.4588
 11
89.2092
 21
-47.5597
  0
LINE
  8
0
 10
89.2092
 20
-47.5597
 11
89.2205
 21
-47.5504
  0
LINE
  8
0
 10
89.2205
 20
-47.5504
 11
89.5365
 21
-46.8726
  0
LINE
  8
0
 10
89.5365
 20
-46.8726
 11
89.8519
 21
-46.169
  0
LINE
  8
0
 10
89.8519
 20
-46.169
 11
90.1658
 21
-45.4394
  0
LINE
  8
0
 10
90.1658
 20
-45.4394
 11
90.4778
 21
-44.6838
  0
LINE
  8
0
 10
90.4778
 20
-44.6838
 11
90.7253
 21
-44.0605
  0
LINE
  8
0
 10
90.7253
 20
-44.0605
 11
90.9707
 21
-43.4203
  0
LINE
  8
0
 10
90.9707
 20
-43.4203
 11
91.2136
 21
-42.7634
  0
LINE
  8
0
 10
91.2136
 20
-42.7634
 11
91.4536
 21
-42.0897
  0
LINE
  8
0
 10
91.4536
 20
-42.0897
 11
90.6677
 21
-41.1808
  0
LINE
  8
0
 10
90.6677
 20
-41.1808
 11
89.9664
 21
-41.3211
  0
LINE
  8
0
 10
89.9664
 20
-41.3211
 11
89.2812
 21
-41.4666
  0
LINE
  8
0
 10
89.2812
 20
-41.4666
 11
88.6124
 21
-41.6171
  0
LINE
  8
0
 10
88.6124
 20
-41.6171
 11
87.7993
 21
-41.8115
  0
LINE
  8
0
 10
87.7993
 20
-41.8115
 11
87.0117
 21
-42.0123
  0
LINE
  8
0
 10
87.0117
 20
-42.0123
 11
86.2495
 21
-42.2188
  0
LINE
  8
0
 10
86.2495
 20
-42.2188
 11
85.5128
 21
-42.4302
  0
LINE
  8
0
 10
85.5128
 20
-42.4302
 11
84.9418
 21
-42.6025
  0
LINE
  8
0
 10
84.9418
 20
-42.6025
 11
84.931
 21
-42.6123
  0
LINE
  8
0
 10
84.931
 20
-42.6123
 11
84.1462
 21
-41.7638
  0
LINE
  8
0
 10
84.1462
 20
-41.7638
 11
84.1569
 21
-41.7538
  0
LINE
  8
0
 10
84.1569
 20
-41.7538
 11
84.4269
 21
-41.0564
  0
LINE
  8
0
 10
84.4269
 20
-41.0564
 11
84.6946
 21
-40.3333
  0
LINE
  8
0
 10
84.6946
 20
-40.3333
 11
84.9591
 21
-39.5844
  0
LINE
  8
0
 10
84.9591
 20
-39.5844
 11
85.2199
 21
-38.8096
  0
LINE
  8
0
 10
85.2199
 20
-38.8096
 11
85.4252
 21
-38.1711
  0
LINE
  8
0
 10
85.4252
 20
-38.1711
 11
85.6273
 21
-37.516
  0
LINE
  8
0
 10
85.6273
 20
-37.516
 11
85.8258
 21
-36.8444
  0
LINE
  8
0
 10
85.8258
 20
-36.8444
 11
86.0203
 21
-36.1561
  0
LINE
  8
0
 10
86.0203
 20
-36.1561
 11
85.1754
 21
-35.3017
  0
LINE
  8
0
 10
85.1754
 20
-35.3017
 11
84.485
 21
-35.4885
  0
LINE
  8
0
 10
84.485
 20
-35.4885
 11
83.8112
 21
-35.6795
  0
LINE
  8
0
 10
83.8112
 20
-35.6795
 11
83.1539
 21
-35.8743
  0
LINE
  8
0
 10
83.1539
 20
-35.8743
 11
82.3556
 21
-36.1226
  0
LINE
  8
0
 10
82.3556
 20
-36.1226
 11
81.5831
 21
-36.3756
  0
LINE
  8
0
 10
81.5831
 20
-36.3756
 11
80.8364
 21
-36.6325
  0
LINE
  8
0
 10
80.8364
 20
-36.6325
 11
80.1155
 21
-36.8927
  0
LINE
  8
0
 10
80.1155
 20
-36.8927
 11
79.5573
 21
-37.1027
  0
LINE
  8
0
 10
79.5573
 20
-37.1027
 11
79.5472
 21
-37.1132
  0
LINE
  8
0
 10
79.5472
 20
-37.1132
 11
78.7074
 21
-36.319
  0
LINE
  8
0
 10
78.7074
 20
-36.319
 11
78.7174
 21
-36.3083
  0
LINE
  8
0
 10
78.7174
 20
-36.3083
 11
78.9403
 21
-35.5944
  0
LINE
  8
0
 10
78.9403
 20
-35.5944
 11
79.159
 21
-34.855
  0
LINE
  8
0
 10
79.159
 20
-34.855
 11
79.373
 21
-34.0901
  0
LINE
  8
0
 10
79.373
 20
-34.0901
 11
79.5814
 21
-33.2997
  0
LINE
  8
0
 10
79.5814
 20
-33.2997
 11
79.7436
 21
-32.6489
  0
LINE
  8
0
 10
79.7436
 20
-32.6489
 11
79.9015
 21
-31.9818
  0
LINE
  8
0
 10
79.9015
 20
-31.9818
 11
80.0547
 21
-31.2984
  0
LINE
  8
0
 10
80.0547
 20
-31.2984
 11
80.2028
 21
-30.5986
  0
LINE
  8
0
 10
80.2028
 20
-30.5986
 11
79.3027
 21
-29.8026
  0
LINE
  8
0
 10
79.3027
 20
-29.8026
 11
78.6263
 21
-30.0351
  0
LINE
  8
0
 10
78.6263
 20
-30.0351
 11
77.9667
 21
-30.2707
  0
LINE
  8
0
 10
77.9667
 20
-30.2707
 11
77.3239
 21
-30.5089
  0
LINE
  8
0
 10
77.3239
 20
-30.5089
 11
76.544
 21
-30.81
  0
LINE
  8
0
 10
76.544
 20
-30.81
 11
75.7901
 21
-31.114
  0
LINE
  8
0
 10
75.7901
 20
-31.114
 11
75.0623
 21
-31.4202
  0
LINE
  8
0
 10
75.0623
 20
-31.4202
 11
74.3604
 21
-31.728
  0
LINE
  8
0
 10
74.3604
 20
-31.728
 11
73.8174
 21
-31.9748
  0
LINE
  8
0
 10
73.8174
 20
-31.9748
 11
73.808
 21
-31.986
  0
LINE
  8
0
 10
73.808
 20
-31.986
 11
72.9171
 21
-31.2496
  0
LINE
  8
0
 10
72.9171
 20
-31.2496
 11
72.9263
 21
-31.2383
  0
LINE
  8
0
 10
72.9263
 20
-31.2383
 11
73.101
 21
-30.5111
  0
LINE
  8
0
 10
73.101
 20
-30.5111
 11
73.2699
 21
-29.7588
  0
LINE
  8
0
 10
73.2699
 20
-29.7588
 11
73.4323
 21
-28.9813
  0
LINE
  8
0
 10
73.4323
 20
-28.9813
 11
73.5874
 21
-28.1787
  0
LINE
  8
0
 10
73.5874
 20
-28.1787
 11
73.7059
 21
-27.5185
  0
LINE
  8
0
 10
73.7059
 20
-27.5185
 11
73.8189
 21
-26.8424
  0
LINE
  8
0
 10
73.8189
 20
-26.8424
 11
73.926
 21
-26.1502
  0
LINE
  8
0
 10
73.926
 20
-26.1502
 11
74.027
 21
-25.4421
  0
LINE
  8
0
 10
74.027
 20
-25.4421
 11
73.0758
 21
-24.708
  0
LINE
  8
0
 10
73.0758
 20
-24.708
 11
72.4165
 21
-24.9852
  0
LINE
  8
0
 10
72.4165
 20
-24.9852
 11
71.7741
 21
-25.2643
  0
LINE
  8
0
 10
71.7741
 20
-25.2643
 11
71.1486
 21
-25.545
  0
LINE
  8
0
 10
71.1486
 20
-25.545
 11
70.3905
 21
-25.8974
  0
LINE
  8
0
 10
70.3905
 20
-25.8974
 11
69.6587
 21
-26.2511
  0
LINE
  8
0
 10
69.6587
 20
-26.2511
 11
68.9529
 21
-26.6053
  0
LINE
  8
0
 10
68.9529
 20
-26.6053
 11
68.2731
 21
-26.9592
  0
LINE
  8
0
 10
68.2731
 20
-26.9592
 11
67.7478
 21
-27.2417
  0
LINE
  8
0
 10
67.7478
 20
-27.2417
 11
67.7392
 21
-27.2536
  0
LINE
  8
0
 10
67.7392
 20
-27.2536
 11
66.8011
 21
-26.5783
  0
LINE
  8
0
 10
66.8011
 20
-26.5783
 11
66.8096
 21
-26.5664
  0
LINE
  8
0
 10
66.8096
 20
-26.5664
 11
66.9353
 21
-25.8292
  0
LINE
  8
0
 10
66.9353
 20
-25.8292
 11
67.0536
 21
-25.0673
  0
LINE
  8
0
 10
67.0536
 20
-25.0673
 11
67.1636
 21
-24.2807
  0
LINE
  8
0
 10
67.1636
 20
-24.2807
 11
67.2648
 21
-23.4695
  0
LINE
  8
0
 10
67.2648
 20
-23.4695
 11
67.3389
 21
-22.8029
  0
LINE
  8
0
 10
67.3389
 20
-22.8029
 11
67.4065
 21
-22.1207
  0
LINE
  8
0
 10
67.4065
 20
-22.1207
 11
67.4672
 21
-21.4229
  0
LINE
  8
0
 10
67.4672
 20
-21.4229
 11
67.5207
 21
-20.7097
  0
LINE
  8
0
 10
67.5207
 20
-20.7097
 11
66.5226
 21
-20.0407
  0
LINE
  8
0
 10
66.5226
 20
-20.0407
 11
65.8832
 21
-20.3613
  0
LINE
  8
0
 10
65.8832
 20
-20.3613
 11
65.2609
 21
-20.6827
  0
LINE
  8
0
 10
65.2609
 20
-20.6827
 11
64.6556
 21
-21.0045
  0
LINE
  8
0
 10
64.6556
 20
-21.0045
 11
63.9227
 21
-21.4069
  0
LINE
  8
0
 10
63.9227
 20
-21.4069
 11
63.2161
 21
-21.8086
  0
LINE
  8
0
 10
63.2161
 20
-21.8086
 11
62.5356
 21
-22.2091
  0
LINE
  8
0
 10
62.5356
 20
-22.2091
 11
61.8809
 21
-22.6077
  0
LINE
  8
0
 10
61.8809
 20
-22.6077
 11
61.3757
 21
-22.9247
  0
LINE
  8
0
 10
61.3757
 20
-22.9247
 11
61.3679
 21
-22.937
  0
LINE
  8
0
 10
61.3679
 20
-22.937
 11
60.3868
 21
-22.326
  0
LINE
  8
0
 10
60.3868
 20
-22.326
 11
60.3945
 21
-22.3135
  0
LINE
  8
0
 10
60.3945
 20
-22.3135
 11
60.4707
 21
-21.5695
  0
LINE
  8
0
 10
60.4707
 20
-21.5695
 11
60.5378
 21
-20.8014
  0
LINE
  8
0
 10
60.5378
 20
-20.8014
 11
60.595
 21
-20.0092
  0
LINE
  8
0
 10
60.595
 20
-20.0092
 11
60.6418
 21
-19.1931
  0
LINE
  8
0
 10
60.6418
 20
-19.1931
 11
60.6712
 21
-18.523
  0
LINE
  8
0
 10
60.6712
 20
-18.523
 11
60.6931
 21
-17.8378
  0
LINE
  8
0
 10
60.6931
 20
-17.8378
 11
60.707
 21
-17.1376
  0
LINE
  8
0
 10
60.707
 20
-17.1376
 11
60.7128
 21
-16.4224
  0
LINE
  8
0
 10
60.7128
 20
-16.4224
 11
59.6722
 21
-15.8216
  0
LINE
  8
0
 10
59.6722
 20
-15.8216
 11
59.0557
 21
-16.1842
  0
LINE
  8
0
 10
59.0557
 20
-16.1842
 11
58.4562
 21
-16.5464
  0
LINE
  8
0
 10
58.4562
 20
-16.5464
 11
57.8738
 21
-16.9079
  0
LINE
  8
0
 10
57.8738
 20
-16.9079
 11
57.1694
 21
-17.3583
  0
LINE
  8
0
 10
57.1694
 20
-17.3583
 11
56.4912
 21
-17.8064
  0
LINE
  8
0
 10
56.4912
 20
-17.8064
 11
55.839
 21
-18.2514
  0
LINE
  8
0
 10
55.839
 20
-18.2514
 11
55.2124
 21
-18.6928
  0
LINE
  8
0
 10
55.2124
 20
-18.6928
 11
54.7295
 21
-19.0428
  0
LINE
  8
0
 10
54.7295
 20
-19.0428
 11
54.7225
 21
-19.0557
  0
LINE
  8
0
 10
54.7225
 20
-19.0557
 11
53.7028
 21
-18.5116
  0
LINE
  8
0
 10
53.7028
 20
-18.5116
 11
53.7096
 21
-18.4986
  0
LINE
  8
0
 10
53.7096
 20
-18.4986
 11
53.7359
 21
-17.7512
  0
LINE
  8
0
 10
53.7359
 20
-17.7512
 11
53.7516
 21
-16.9803
  0
LINE
  8
0
 10
53.7516
 20
-16.9803
 11
53.7558
 21
-16.1861
  0
LINE
  8
0
 10
53.7558
 20
-16.1861
 11
53.748
 21
-15.3686
  0
LINE
  8
0
 10
53.748
 20
-15.3686
 11
53.7325
 21
-14.6981
  0
LINE
  8
0
 10
53.7325
 20
-14.6981
 11
53.7086
 21
-14.013
  0
LINE
  8
0
 10
53.7086
 20
-14.013
 11
53.6758
 21
-13.3134
  0
LINE
  8
0
 10
53.6758
 20
-13.3134
 11
53.6337
 21
-12.5993
  0
LINE
  8
0
 10
53.6337
 20
-12.5993
 11
52.5553
 21
-12.0694
  0
LINE
  8
0
 10
52.5553
 20
-12.0694
 11
51.9644
 21
-12.4724
  0
LINE
  8
0
 10
51.9644
 20
-12.4724
 11
51.3905
 21
-12.8738
  0
LINE
  8
0
 10
51.3905
 20
-12.8738
 11
50.8335
 21
-13.2734
  0
LINE
  8
0
 10
50.8335
 20
-13.2734
 11
50.1608
 21
-13.7699
  0
LINE
  8
0
 10
50.1608
 20
-13.7699
 11
49.514
 21
-14.2622
  0
LINE
  8
0
 10
49.514
 20
-14.2622
 11
48.8929
 21
-14.7499
  0
LINE
  8
0
 10
48.8929
 20
-14.7499
 11
48.2972
 21
-15.2321
  0
LINE
  8
0
 10
48.2972
 20
-15.2321
 11
47.8388
 21
-15.6136
  0
LINE
  8
0
 10
47.8388
 20
-15.6136
 11
47.8327
 21
-15.6269
  0
LINE
  8
0
 10
47.8327
 20
-15.6269
 11
46.7789
 21
-15.1521
  0
LINE
  8
0
 10
46.7789
 20
-15.1521
 11
46.7848
 21
-15.1387
  0
LINE
  8
0
 10
46.7848
 20
-15.1387
 11
46.7612
 21
-14.3912
  0
LINE
  8
0
 10
46.7612
 20
-14.3912
 11
46.7253
 21
-13.621
  0
LINE
  8
0
 10
46.7253
 20
-13.621
 11
46.6765
 21
-12.8282
  0
LINE
  8
0
 10
46.6765
 20
-12.8282
 11
46.6141
 21
-12.0132
  0
LINE
  8
0
 10
46.6141
 20
-12.0132
 11
46.5539
 21
-11.3452
  0
LINE
  8
0
 10
46.5539
 20
-11.3452
 11
46.4842
 21
-10.6632
  0
LINE
  8
0
 10
46.4842
 20
-10.6632
 11
46.4047
 21
-9.9673
  0
LINE
  8
0
 10
46.4047
 20
-9.9673
 11
46.3151
 21
-9.25769
  0
LINE
  8
0
 10
46.3151
 20
-9.25769
 11
45.2037
 21
-8.80098
  0
LINE
  8
0
 10
45.2037
 20
-8.80098
 11
44.641
 21
-9.24249
  0
LINE
  8
0
 10
44.641
 20
-9.24249
 11
44.0952
 21
-9.68138
  0
LINE
  8
0
 10
44.0952
 20
-9.68138
 11
43.5661
 21
-10.1173
  0
LINE
  8
0
 10
43.5661
 20
-10.1173
 11
42.9281
 21
-10.6576
  0
LINE
  8
0
 10
42.9281
 20
-10.6576
 11
42.3157
 21
-11.192
  0
LINE
  8
0
 10
42.3157
 20
-11.192
 11
41.7285
 21
-11.7201
  0
LINE
  8
0
 10
41.7285
 20
-11.7201
 11
41.1664
 21
-12.241
  0
LINE
  8
0
 10
41.1664
 20
-12.241
 11
40.7344
 21
-12.6523
  0
LINE
  8
0
 10
40.7344
 20
-12.6523
 11
40.7293
 21
-12.666
  0
LINE
  8
0
 10
40.7293
 20
-12.666
 11
39.6461
 21
-12.2626
  0
LINE
  8
0
 10
39.6461
 20
-12.2626
 11
39.6511
 21
-12.2489
  0
LINE
  8
0
 10
39.6511
 20
-12.2489
 11
39.5776
 21
-11.5046
  0
LINE
  8
0
 10
39.5776
 20
-11.5046
 11
39.4903
 21
-10.7385
  0
LINE
  8
0
 10
39.4903
 20
-10.7385
 11
39.3887
 21
-9.95078
  0
LINE
  8
0
 10
39.3887
 20
-9.95078
 11
39.272
 21
-9.14166
  0
LINE
  8
0
 10
39.272
 20
-9.14166
 11
39.1673
 21
-8.47919
  0
LINE
  8
0
 10
39.1673
 20
-8.47919
 11
39.0522
 21
-7.80338
  0
LINE
  8
0
 10
39.0522
 20
-7.80338
 11
38.9265
 21
-7.11438
  0
LINE
  8
0
 10
38.9265
 20
-7.11438
 11
38.7896
 21
-6.41234
  0
LINE
  8
0
 10
38.7896
 20
-6.41234
 11
37.6502
 21
-6.03087
  0
LINE
  8
0
 10
37.6502
 20
-6.03087
 11
37.1183
 21
-6.50899
  0
LINE
  8
0
 10
37.1183
 20
-6.50899
 11
36.603
 21
-6.98335
  0
LINE
  8
0
 10
36.603
 20
-6.98335
 11
36.1042
 21
-7.45366
  0
LINE
  8
0
 10
36.1042
 20
-7.45366
 11
35.5037
 21
-8.03532
  0
LINE
  8
0
 10
35.5037
 20
-8.03532
 11
34.9283
 21
-8.6095
  0
LINE
  8
0
 10
34.9283
 20
-8.6095
 11
34.3778
 21
-9.17557
  0
LINE
  8
0
 10
34.3778
 20
-9.17557
 11
33.8517
 21
-9.73291
  0
LINE
  8
0
 10
33.8517
 20
-9.73291
 11
33.4482
 21
-10.1721
  0
LINE
  8
0
 10
33.4482
 20
-10.1721
 11
33.4439
 21
-10.1861
  0
LINE
  8
0
 10
33.4439
 20
-10.1861
 11
32.3362
 21
-9.85596
  0
LINE
  8
0
 10
32.3362
 20
-9.85596
 11
32.3403
 21
-9.84192
  0
LINE
  8
0
 10
32.3403
 20
-9.84192
 11
32.2172
 21
-9.10426
  0
LINE
  8
0
 10
32.2172
 20
-9.10426
 11
32.079
 21
-8.34569
  0
LINE
  8
0
 10
32.079
 20
-8.34569
 11
31.925
 21
-7.5665
  0
LINE
  8
0
 10
31.925
 20
-7.5665
 11
31.7545
 21
-6.76698
  0
LINE
  8
0
 10
31.7545
 20
-6.76698
 11
31.6058
 21
-6.11299
  0
LINE
  8
0
 10
31.6058
 20
-6.11299
 11
31.4458
 21
-5.44637
  0
LINE
  8
0
 10
31.4458
 20
-5.44637
 11
31.2743
 21
-4.7673
  0
LINE
  8
0
 10
31.2743
 20
-4.7673
 11
31.0909
 21
-4.07597
  0
LINE
  8
0
 10
31.0909
 20
-4.07597
 11
29.9286
 21
-3.77147
  0
LINE
  8
0
 10
29.9286
 20
-3.77147
 11
29.4297
 21
-4.28404
  0
LINE
  8
0
 10
29.4297
 20
-4.28404
 11
28.9473
 21
-4.79176
  0
LINE
  8
0
 10
28.9473
 20
-4.79176
 11
28.481
 21
-5.29434
  0
LINE
  8
0
 10
28.481
 20
-5.29434
 11
27.9207
 21
-5.91481
  0
LINE
  8
0
 10
27.9207
 20
-5.91481
 11
27.385
 21
-6.52614
  0
LINE
  8
0
 10
27.385
 20
-6.52614
 11
26.8735
 21
-7.1277
  0
LINE
  8
0
 10
26.8735
 20
-7.1277
 11
26.3858
 21
-7.71896
  0
LINE
  8
0
 10
26.3858
 20
-7.71896
 11
26.0125
 21
-8.18411
  0
LINE
  8
0
 10
26.0125
 20
-8.18411
 11
26.0092
 21
-8.19836
  0
LINE
  8
0
 10
26.0092
 20
-8.19836
 11
24.8819
 21
-7.94295
  0
LINE
  8
0
 10
24.8819
 20
-7.94295
 11
24.8851
 21
-7.92868
  0
LINE
  8
0
 10
24.8851
 20
-7.92868
 11
24.713
 21
-7.20087
  0
LINE
  8
0
 10
24.713
 20
-7.20087
 11
24.5244
 21
-6.45323
  0
LINE
  8
0
 10
24.5244
 20
-6.45323
 11
24.3187
 21
-5.68607
  0
LINE
  8
0
 10
24.3187
 20
-5.68607
 11
24.0951
 21
-4.89973
  0
LINE
  8
0
 10
24.0951
 20
-4.89973
 11
23.9031
 21
-4.25713
  0
LINE
  8
0
 10
23.9031
 20
-4.25713
 11
23.699
 21
-3.60268
  0
LINE
  8
0
 10
23.699
 20
-3.60268
 11
23.4825
 21
-2.9366
  0
LINE
  8
0
 10
23.4825
 20
-2.9366
 11
23.2533
 21
-2.25906
  0
LINE
  8
0
 10
23.2533
 20
-2.25906
 11
22.0732
 21
-2.03287
  0
LINE
  8
0
 10
22.0732
 20
-2.03287
 11
21.6097
 21
-2.57761
  0
LINE
  8
0
 10
21.6097
 20
-2.57761
 11
21.1623
 21
-3.11642
  0
LINE
  8
0
 10
21.1623
 20
-3.11642
 11
20.7307
 21
-3.64902
  0
LINE
  8
0
 10
20.7307
 20
-3.64902
 11
20.213
 21
-4.30553
  0
LINE
  8
0
 10
20.213
 20
-4.30553
 11
19.7193
 21
-4.95126
  0
LINE
  8
0
 10
19.7193
 20
-4.95126
 11
19.2491
 21
-5.58566
  0
LINE
  8
0
 10
19.2491
 20
-5.58566
 11
18.802
 21
-6.20816
  0
LINE
  8
0
 10
18.802
 20
-6.20816
 11
18.4606
 21
-6.69722
  0
LINE
  8
0
 10
18.4606
 20
-6.69722
 11
18.4583
 21
-6.71164
  0
LINE
  8
0
 10
18.4583
 20
-6.71164
 11
17.3165
 21
-6.5321
  0
LINE
  8
0
 10
17.3165
 20
-6.5321
 11
17.3187
 21
-6.51765
  0
LINE
  8
0
 10
17.3187
 20
-6.51765
 11
17.0984
 21
-5.80296
  0
LINE
  8
0
 10
17.0984
 20
-5.80296
 11
16.8603
 21
-5.06958
  0
LINE
  8
0
 10
16.8603
 20
-5.06958
 11
16.6037
 21
-4.31789
  0
LINE
  8
0
 10
16.6037
 20
-4.31789
 11
16.3282
 21
-3.54823
  0
LINE
  8
0
 10
16.3282
 20
-3.54823
 11
16.0937
 21
-2.91989
  0
LINE
  8
0
 10
16.0937
 20
-2.91989
 11
15.8463
 21
-2.28053
  0
LINE
  8
0
 10
15.8463
 20
-2.28053
 11
15.5858
 21
-1.63039
  0
LINE
  8
0
 10
15.5858
 20
-1.63039
 11
15.3119
 21
-0.969681
  0
LINE
  8
0
 10
15.3119
 20
-0.969681
 11
14.1193
 21
-0.822815
  0
LINE
  8
0
 10
14.1193
 20
-0.822815
 11
13.6933
 21
-1.39729
  0
LINE
  8
0
 10
13.6933
 20
-1.39729
 11
13.2828
 21
-1.9648
  0
LINE
  8
0
 10
13.2828
 20
-1.9648
 11
12.8877
 21
-2.52502
  0
LINE
  8
0
 10
12.8877
 20
-2.52502
 11
12.415
 21
-3.21466
  0
LINE
  8
0
 10
12.415
 20
-3.21466
 11
11.9656
 21
-3.89192
  0
LINE
  8
0
 10
11.9656
 20
-3.89192
 11
11.5388
 21
-4.5563
  0
LINE
  8
0
 10
11.5388
 20
-4.5563
 11
11.1343
 21
-5.20728
  0
LINE
  8
0
 10
11.1343
 20
-5.20728
 11
10.8263
 21
-5.71805
  0
LINE
  8
0
 10
10.8263
 20
-5.71805
 11
10.825
 21
-5.7326
  0
LINE
  8
0
 10
10.825
 20
-5.7326
 11
9.67371
 21
-5.62973
  0
LINE
  8
0
 10
9.67371
 20
-5.62973
 11
9.67493
 21
-5.61516
  0
LINE
  8
0
 10
9.67493
 20
-5.61516
 11
9.40739
 21
-4.91678
  0
LINE
  8
0
 10
9.40739
 20
-4.91678
 11
9.12083
 21
-4.20094
  0
LINE
  8
0
 10
9.12083
 20
-4.20094
 11
8.81468
 21
-3.46805
  0
LINE
  8
0
 10
8.81468
 20
-3.46805
 11
8.48836
 21
-2.71852
  0
LINE
  8
0
 10
8.48836
 20
-2.71852
 11
8.21237
 21
-2.10724
  0
LINE
  8
0
 10
8.21237
 20
-2.10724
 11
7.92288
 21
-1.48582
  0
LINE
  8
0
 10
7.92288
 20
-1.48582
 11
7.61952
 21
-0.854553
  0
LINE
  8
0
 10
7.61952
 20
-0.854553
 11
7.30205
 21
-0.213608
  0
LINE
  8
0
 10
7.30205
 20
-0.213608
 11
6.10237
 21
-0.146729
  0
LINE
  8
0
 10
6.10237
 20
-0.146729
 11
5.71562
 21
-0.748383
  0
LINE
  8
0
 10
5.71562
 20
-0.748383
 11
5.34396
 21
-1.34204
  0
LINE
  8
0
 10
5.34396
 20
-1.34204
 11
4.98717
 21
-1.9274
  0
LINE
  8
0
 10
4.98717
 20
-1.9274
 11
4.56165
 21
-2.64706
  0
LINE
  8
0
 10
4.56165
 20
-2.64706
 11
4.15843
 21
-3.35284
  0
LINE
  8
0
 10
4.15843
 20
-3.35284
 11
3.77702
 21
-4.04424
  0
LINE
  8
0
 10
3.77702
 20
-4.04424
 11
3.41687
 21
-4.72078
  0
LINE
  8
0
 10
3.41687
 20
-4.72078
 11
3.14369
 21
-5.25098
  0
LINE
  8
0
 10
3.14369
 20
-5.25098
 11
3.1433
 21
-5.26559
  0
LINE
  8
0
 10
3.1433
 20
-5.26559
 11
1.98775
 21
-5.23985
  0
LINE
  8
0
 10
1.98775
 20
-5.23985
 11
1.98799
 21
-5.22522
  0
LINE
  8
0
 10
1.98799
 20
-5.22522
 11
1.67439
 21
-4.54626
  0
LINE
  8
0
 10
1.67439
 20
-4.54626
 11
1.34065
 21
-3.85117
  0
LINE
  8
0
 10
1.34065
 20
-3.85117
 11
0.986237
 21
-3.14037
  0
LINE
  8
0
 10
0.986237
 20
-3.14037
 11
0.61058
 21
-2.41431
  0
LINE
  8
0
 10
0.61058
 20
-2.41431
 11
0.294388
 21
-1.82283
  0
LINE
  8
0
 10
0.294388
 20
-1.82283
 11
-0.0359497
 21
-1.22215
  0
LINE
  8
0
 10
-0.0359497
 20
-1.22215
 11
-0.380798
 21
-0.612534
  0
LINE
  8
0
 10
-0.380798
 20
-0.612534
 11
-0.740372
 21
0.00575256
  0
LINE
  8
0
 10
-0.740372
 20
0.00575256
 11
-1.94183
 21
-0.00761414
  0
LINE
  8
0
 10
-1.94183
 20
-0.00761414
 11
-2.28754
 21
-0.633774
  0
LINE
  8
0
 10
-2.28754
 20
-0.633774
 11
-2.61871
 21
-1.25093
  0
LINE
  8
0
 10
-2.61871
 20
-1.25093
 11
-2.93562
 21
-1.85881
  0
LINE
  8
0
 10
-2.93562
 20
-1.85881
 11
-3.31212
 21
-2.6053
  0
LINE
  8
0
 10
-3.31212
 20
-2.6053
 11
-3.6673
 21
-3.33641
  0
LINE
  8
0
 10
-3.6673
 20
-3.33641
 11
-4.00168
 21
-4.05174
  0
LINE
  8
0
 10
-4.00168
 20
-4.05174
 11
-4.31584
 21
-4.75084
  0
LINE
  8
0
 10
-4.31584
 20
-4.75084
 11
-4.55298
 21
-5.2981
  0
LINE
  8
0
 10
-4.55298
 20
-5.2981
 11
-4.5524
 21
-5.3127
  0
LINE
  8
0
 10
-4.5524
 20
-5.3127
 11
-5.70711
 21
-5.36418
  0
LINE
  8
0
 10
-5.70711
 20
-5.36418
 11
-5.70782
 21
-5.34959
  0
LINE
  8
0
 10
-5.70782
 20
-5.34959
 11
-6.06606
 21
-4.6931
  0
LINE
  8
0
 10
-6.06606
 20
-4.6931
 11
-6.44548
 21
-4.02184
  0
LINE
  8
0
 10
-6.44548
 20
-4.02184
 11
-6.84659
 21
-3.3363
  0
LINE
  8
0
 10
-6.84659
 20
-3.3363
 11
-7.26991
 21
-2.63696
  0
LINE
  8
0
 10
-7.26991
 20
-2.63696
 11
-7.62489
 21
-2.0679
  0
LINE
  8
0
 10
-7.62489
 20
-2.0679
 11
-7.99464
 21
-1.49065
  0
LINE
  8
0
 10
-7.99464
 20
-1.49065
 11
-8.37944
 21
-0.905426
  0
LINE
  8
0
 10
-8.37944
 20
-0.905426
 11
-8.7795
 21
-0.312515
  0
LINE
  8
0
 10
-8.7795
 20
-0.312515
 11
-9.97739
 21
-0.406113
  0
LINE
  8
0
 10
-9.97739
 20
-0.406113
 11
-10.2805
 21
-1.05397
  0
LINE
  8
0
 10
-10.2805
 20
-1.05397
 11
-10.5697
 21
-1.69186
  0
LINE
  8
0
 10
-10.5697
 20
-1.69186
 11
-10.8453
 21
-2.31955
  0
LINE
  8
0
 10
-10.8453
 20
-2.31955
 11
-11.1711
 21
-3.08951
  0
LINE
  8
0
 10
-11.1711
 20
-3.08951
 11
-11.4766
 21
-3.84273
  0
LINE
  8
0
 10
-11.4766
 20
-3.84273
 11
-11.7625
 21
-4.5788
  0
LINE
  8
0
 10
-11.7625
 20
-4.5788
 11
-12.0293
 21
-5.2973
  0
LINE
  8
0
 10
-12.0293
 20
-5.2973
 11
-12.2293
 21
-5.85919
  0
LINE
  8
0
 10
-12.2293
 20
-5.85919
 11
-12.2278
 21
-5.87372
  0
LINE
  8
0
 10
-12.2278
 20
-5.87372
 11
-13.3765
 21
-6.00223
  0
LINE
  8
0
 10
-13.3765
 20
-6.00223
 11
-13.3782
 21
-5.9877
  0
LINE
  8
0
 10
-13.3782
 20
-5.9877
 11
-13.7794
 21
-5.3566
  0
LINE
  8
0
 10
-13.7794
 20
-5.3566
 11
-14.2029
 21
-4.71219
  0
LINE
  8
0
 10
-14.2029
 20
-4.71219
 11
-14.6489
 21
-4.05498
  0
LINE
  8
0
 10
-14.6489
 20
-4.05498
 11
-15.1179
 21
-3.38547
  0
LINE
  8
0
 10
-15.1179
 20
-3.38547
 11
-15.5101
 21
-2.8414
  0
LINE
  8
0
 10
-15.5101
 20
-2.8414
 11
-15.9176
 21
-2.29012
  0
LINE
  8
0
 10
-15.9176
 20
-2.29012
 11
-16.3406
 21
-1.7319
  0
LINE
  8
0
 10
-16.3406
 20
-1.7319
 11
-16.7794
 21
-1.16704
  0
LINE
  8
0
 10
-16.7794
 20
-1.16704
 11
-17.9684
 21
-1.34045
  0
LINE
  8
0
 10
-17.9684
 20
-1.34045
 11
-18.2275
 21
-2.0071
  0
LINE
  8
0
 10
-18.2275
 20
-2.0071
 11
-18.4735
 21
-2.66289
  0
LINE
  8
0
 10
-18.4735
 20
-2.66289
 11
-18.7066
 21
-3.30759
  0
LINE
  8
0
 10
-18.7066
 20
-3.30759
 11
-18.9802
 21
-4.09758
  0
LINE
  8
0
 10
-18.9802
 20
-4.09758
 11
-19.2347
 21
-4.86954
  0
LINE
  8
0
 10
-19.2347
 20
-4.86954
 11
-19.4708
 21
-5.62305
  0
LINE
  8
0
 10
-19.4708
 20
-5.62305
 11
-19.689
 21
-6.35777
  0
LINE
  8
0
 10
-19.689
 20
-6.35777
 11
-19.8511
 21
-6.93176
  0
LINE
  8
0
 10
-19.8511
 20
-6.93176
 11
-19.8485
 21
-6.94617
  0
LINE
  8
0
 10
-19.8485
 20
-6.94617
 11
-20.9861
 21
-7.15109
  0
LINE
  8
0
 10
-20.9861
 20
-7.15109
 11
-20.9888
 21
-7.13672
  0
LINE
  8
0
 10
-20.9888
 20
-7.13672
 11
-21.4313
 21
-6.53383
  0
LINE
  8
0
 10
-21.4313
 20
-6.53383
 11
-21.8968
 21
-5.91913
  0
LINE
  8
0
 10
-21.8968
 20
-5.91913
 11
-22.3857
 21
-5.29318
  0
LINE
  8
0
 10
-22.3857
 20
-5.29318
 11
-22.8985
 21
-4.65649
  0
LINE
  8
0
 10
-22.8985
 20
-4.65649
 11
-23.3261
 21
-4.13985
  0
LINE
  8
0
 10
-23.3261
 20
-4.13985
 11
-23.7695
 21
-3.617
  0
LINE
  8
0
 10
-23.7695
 20
-3.617
 11
-24.2289
 21
-3.08829
  0
LINE
  8
0
 10
-24.2289
 20
-3.08829
 11
-24.7044
 21
-2.55399
  0
LINE
  8
0
 10
-24.7044
 20
-2.55399
 11
-25.8791
 21
-2.80644
  0
LINE
  8
0
 10
-25.8791
 20
-2.80644
 11
-26.0932
 21
-3.48891
  0
LINE
  8
0
 10
-26.0932
 20
-3.48891
 11
-26.2948
 21
-4.15964
  0
LINE
  8
0
 10
-26.2948
 20
-4.15964
 11
-26.4842
 21
-4.81848
  0
LINE
  8
0
 10
-26.4842
 20
-4.81848
 11
-26.7045
 21
-5.62498
  0
LINE
  8
0
 10
-26.7045
 20
-5.62498
 11
-26.9069
 21
-6.41222
  0
LINE
  8
0
 10
-26.9069
 20
-6.41222
 11
-27.0921
 21
-7.17981
  0
LINE
  8
0
 10
-27.0921
 20
-7.17981
 11
-27.2608
 21
-7.92746
  0
LINE
  8
0
 10
-27.2608
 20
-7.92746
 11
-27.3841
 21
-8.511
  0
LINE
  8
0
 10
-27.3841
 20
-8.511
 11
-27.3806
 21
-8.52521
  0
LINE
  8
0
 10
-27.3806
 20
-8.52521
 11
-28.502
 21
-8.80566
  0
LINE
  8
0
 10
-28.502
 20
-8.80566
 11
-28.5056
 21
-8.7915
  0
LINE
  8
0
 10
-28.5056
 20
-8.7915
 11
-28.9874
 21
-8.21951
  0
LINE
  8
0
 10
-28.9874
 20
-8.21951
 11
-29.4929
 21
-7.63727
  0
LINE
  8
0
 10
-29.4929
 20
-7.63727
 11
-30.0226
 21
-7.04538
  0
LINE
  8
0
 10
-30.0226
 20
-7.04538
 11
-30.5767
 21
-6.44437
  0
LINE
  8
0
 10
-30.5767
 20
-6.44437
 11
-31.0379
 21
-5.95744
  0
LINE
  8
0
 10
-31.0379
 20
-5.95744
 11
-31.5152
 21
-5.46536
  0
LINE
  8
0
 10
-31.5152
 20
-5.46536
 11
-32.0089
 21
-4.96852
  0
LINE
  8
0
 10
-32.0089
 20
-4.96852
 11
-32.519
 21
-4.46719
  0
LINE
  8
0
 10
-32.519
 20
-4.46719
 11
-33.6743
 21
-4.79752
  0
LINE
  8
0
 10
-33.6743
 20
-4.79752
 11
-33.8423
 21
-5.49275
  0
LINE
  8
0
 10
-33.8423
 20
-5.49275
 11
-33.9986
 21
-6.17548
  0
LINE
  8
0
 10
-33.9986
 20
-6.17548
 11
-34.1437
 21
-6.84549
  0
LINE
  8
0
 10
-34.1437
 20
-6.84549
 11
-34.3096
 21
-7.66492
  0
LINE
  8
0
 10
-34.3096
 20
-7.66492
 11
-34.459
 21
-8.46391
  0
LINE
  8
0
 10
-34.459
 20
-8.46391
 11
-34.5925
 21
-9.24216
  0
LINE
  8
0
 10
-34.5925
 20
-9.24216
 11
-34.7108
 21
-9.9994
  0
LINE
  8
0
 10
-34.7108
 20
-9.9994
 11
-34.7949
 21
-10.5899
  0
LINE
  8
0
 10
-34.7949
 20
-10.5899
 11
-34.7905
 21
-10.6038
  0
LINE
  8
0
 10
-34.7905
 20
-10.6038
 11
-35.8906
 21
-10.9585
  0
LINE
  8
0
 10
-35.8906
 20
-10.9585
 11
-35.8951
 21
-10.9446
  0
LINE
  8
0
 10
-35.8951
 20
-10.9446
 11
-36.4141
 21
-10.4061
  0
LINE
  8
0
 10
-36.4141
 20
-10.4061
 11
-36.9574
 21
-9.85896
  0
LINE
  8
0
 10
-36.9574
 20
-9.85896
 11
-37.5253
 21
-9.30374
  0
LINE
  8
0
 10
-37.5253
 20
-9.30374
 11
-38.1184
 21
-8.74109
  0
LINE
  8
0
 10
-38.1184
 20
-8.74109
 11
-38.6111
 21
-8.28604
  0
LINE
  8
0
 10
-38.6111
 20
-8.28604
 11
-39.1202
 21
-7.82698
  0
LINE
  8
0
 10
-39.1202
 20
-7.82698
 11
-39.6459
 21
-7.3642
  0
LINE
  8
0
 10
-39.6459
 20
-7.3642
 11
-40.1884
 21
-6.89806
  0
LINE
  8
0
 10
-40.1884
 20
-6.89806
 11
-41.319
 21
-7.30481
  0
LINE
  8
0
 10
-41.319
 20
-7.30481
 11
-41.4402
 21
-8.00974
  0
LINE
  8
0
 10
-41.4402
 20
-8.00974
 11
-41.5506
 21
-8.70137
  0
LINE
  8
0
 10
-41.5506
 20
-8.70137
 11
-41.6506
 21
-9.37958
  0
LINE
  8
0
 10
-41.6506
 20
-9.37958
 11
-41.7614
 21
-10.2083
  0
LINE
  8
0
 10
-41.7614
 20
-10.2083
 11
-41.8571
 21
-11.0154
  0
LINE
  8
0
 10
-41.8571
 20
-11.0154
 11
-41.9383
 21
-11.8009
  0
LINE
  8
0
 10
-41.9383
 20
-11.8009
 11
-42.0058
 21
-12.5643
  0
LINE
  8
0
 10
-42.0058
 20
-12.5643
 11
-42.0503
 21
-13.1591
  0
LINE
  8
0
 10
-42.0503
 20
-13.1591
 11
-42.0449
 21
-13.1727
  0
LINE
  8
0
 10
-42.0449
 20
-13.1727
 11
-43.1189
 21
-13.6001
  0
LINE
  8
0
 10
-43.1189
 20
-13.6001
 11
-43.1243
 21
-13.5865
  0
LINE
  8
0
 10
-43.1243
 20
-13.5865
 11
-43.6781
 21
-13.0839
  0
LINE
  8
0
 10
-43.6781
 20
-13.0839
 11
-44.2567
 21
-12.5742
  0
LINE
  8
0
 10
-44.2567
 20
-12.5742
 11
-44.8605
 21
-12.0582
  0
LINE
  8
0
 10
-44.8605
 20
-12.0582
 11
-45.4898
 21
-11.5364
  0
LINE
  8
0
 10
-45.4898
 20
-11.5364
 11
-46.0118
 21
-11.1153
  0
LINE
  8
0
 10
-46.0118
 20
-11.1153
 11
-46.5504
 21
-10.6913
  0
LINE
  8
0
 10
-46.5504
 20
-10.6913
 11
-47.1059
 21
-10.2646
  0
LINE
  8
0
 10
-47.1059
 20
-10.2646
 11
-47.6783
 21
-9.83577
  0
LINE
  8
0
 10
-47.6783
 20
-9.83577
 11
-48.7792
 21
-10.3171
  0
LINE
  8
0
 10
-48.7792
 20
-10.3171
 11
-48.8531
 21
-11.0286
  0
LINE
  8
0
 10
-48.8531
 20
-11.0286
 11
-48.917
 21
-11.726
  0
LINE
  8
0
 10
-48.917
 20
-11.726
 11
-48.9715
 21
-12.4094
  0
LINE
  8
0
 10
-48.9715
 20
-12.4094
 11
-49.0267
 21
-13.2436
  0
LINE
  8
0
 10
-49.0267
 20
-13.2436
 11
-49.0682
 21
-14.0554
  0
LINE
  8
0
 10
-49.0682
 20
-14.0554
 11
-49.0968
 21
-14.8445
  0
LINE
  8
0
 10
-49.0968
 20
-14.8445
 11
-49.1132
 21
-15.6107
  0
LINE
  8
0
 10
-49.1132
 20
-15.6107
 11
-49.1178
 21
-16.2072
  0
LINE
  8
0
 10
-49.1178
 20
-16.2072
 11
-49.1116
 21
-16.2204
  0
LINE
  8
0
 10
-49.1116
 20
-16.2204
 11
-50.1546
 21
-16.7186
  0
LINE
  8
0
 10
-50.1546
 20
-16.7186
 11
-50.1609
 21
-16.7054
  0
LINE
  8
0
 10
-50.1609
 20
-16.7054
 11
-50.747
 21
-16.2409
  0
LINE
  8
0
 10
-50.747
 20
-16.2409
 11
-51.3584
 21
-15.771
  0
LINE
  8
0
 10
-51.3584
 20
-15.771
 11
-51.9953
 21
-15.2964
  0
LINE
  8
0
 10
-51.9953
 20
-15.2964
 11
-52.6581
 21
-14.8179
  0
LINE
  8
0
 10
-52.6581
 20
-14.8179
 11
-53.207
 21
-14.4326
  0
LINE
  8
0
 10
-53.207
 20
-14.4326
 11
-53.7728
 21
-14.0454
  0
LINE
  8
0
 10
-53.7728
 20
-14.0454
 11
-54.3555
 21
-13.6569
  0
LINE
  8
0
 10
-54.3555
 20
-13.6569
 11
-54.9553
 21
-13.2672
  0
LINE
  8
0
 10
-54.9553
 20
-13.2672
 11
-56.0216
 21
-13.821
  0
LINE
  8
0
 10
-56.0216
 20
-13.821
 11
-56.0477
 21
-14.5358
  0
LINE
  8
0
 10
-56.0477
 20
-14.5358
 11
-56.065
 21
-15.2359
  0
LINE
  8
0
 10
-56.065
 20
-15.2359
 11
-56.0736
 21
-15.9214
  0
LINE
  8
0
 10
-56.0736
 20
-15.9214
 11
-56.073
 21
-16.7575
  0
LINE
  8
0
 10
-56.073
 20
-16.7575
 11
-56.0603
 21
-17.5702
  0
LINE
  8
0
 10
-56.0603
 20
-17.5702
 11
-56.0361
 21
-18.3595
  0
LINE
  8
0
 10
-56.0361
 20
-18.3595
 11
-56.0012
 21
-19.1251
  0
LINE
  8
0
 10
-56.0012
 20
-19.1251
 11
-55.966
 21
-19.7205
  0
LINE
  8
0
 10
-55.966
 20
-19.7205
 11
-55.9589
 21
-19.7333
  0
LINE
  8
0
 10
-55.9589
 20
-19.7333
 11
-56.9663
 21
-20.3
  0
LINE
  8
0
 10
-56.9663
 20
-20.3
 11
-56.9735
 21
-20.2873
  0
LINE
  8
0
 10
-56.9735
 20
-20.2873
 11
-57.5893
 21
-19.863
  0
LINE
  8
0
 10
-57.5893
 20
-19.863
 11
-58.2307
 21
-19.435
  0
LINE
  8
0
 10
-58.2307
 20
-19.435
 11
-58.8979
 21
-19.004
  0
LINE
  8
0
 10
-58.8979
 20
-19.004
 11
-59.5911
 21
-18.5708
  0
LINE
  8
0
 10
-59.5911
 20
-18.5708
 11
-60.1646
 21
-18.223
  0
LINE
  8
0
 10
-60.1646
 20
-18.223
 11
-60.755
 21
-17.8745
  0
LINE
  8
0
 10
-60.755
 20
-17.8745
 11
-61.3623
 21
-17.5257
  0
LINE
  8
0
 10
-61.3623
 20
-17.5257
 11
-61.9868
 21
-17.177
  0
LINE
  8
0
 10
-61.9868
 20
-17.177
 11
-63.0137
 21
-17.8008
  0
LINE
  8
0
 10
-63.0137
 20
-17.8008
 11
-62.9921
 21
-18.5157
  0
LINE
  8
0
 10
-62.9921
 20
-18.5157
 11
-62.9625
 21
-19.2155
  0
LINE
  8
0
 10
-62.9625
 20
-19.2155
 11
-62.9254
 21
-19.9
  0
LINE
  8
0
 10
-62.9254
 20
-19.9
 11
-62.8689
 21
-20.7341
  0
LINE
  8
0
 10
-62.8689
 20
-20.7341
 11
-62.8019
 21
-21.5442
  0
LINE
  8
0
 10
-62.8019
 20
-21.5442
 11
-62.7251
 21
-22.3301
  0
LINE
  8
0
 10
-62.7251
 20
-22.3301
 11
-62.6391
 21
-23.0917
  0
LINE
  8
0
 10
-62.6391
 20
-23.0917
 11
-62.5643
 21
-23.6834
  0
LINE
  8
0
 10
-62.5643
 20
-23.6834
 11
-62.5563
 21
-23.6957
  0
LINE
  8
0
 10
-62.5563
 20
-23.6957
 11
-63.5236
 21
-24.3284
  0
LINE
  8
0
 10
-63.5236
 20
-24.3284
 11
-63.5316
 21
-24.3163
  0
LINE
  8
0
 10
-63.5316
 20
-24.3163
 11
-64.1744
 21
-23.934
  0
LINE
  8
0
 10
-64.1744
 20
-23.934
 11
-64.843
 21
-23.5498
  0
LINE
  8
0
 10
-64.843
 20
-23.5498
 11
-65.5374
 21
-23.1643
  0
LINE
  8
0
 10
-65.5374
 20
-23.1643
 11
-66.2581
 21
-22.7784
  0
LINE
  8
0
 10
-66.2581
 20
-22.7784
 11
-66.8535
 21
-22.4697
  0
LINE
  8
0
 10
-66.8535
 20
-22.4697
 11
-67.4658
 21
-22.1614
  0
LINE
  8
0
 10
-67.4658
 20
-22.1614
 11
-68.0951
 21
-21.854
  0
LINE
  8
0
 10
-68.0951
 20
-21.854
 11
-68.7415
 21
-21.5477
  0
LINE
  8
0
 10
-68.7415
 20
-21.5477
 11
-69.7245
 21
-22.2387
  0
LINE
  8
0
 10
-69.7245
 20
-22.2387
 11
-69.6551
 21
-22.9506
  0
LINE
  8
0
 10
-69.6551
 20
-22.9506
 11
-69.5789
 21
-23.6468
  0
LINE
  8
0
 10
-69.5789
 20
-23.6468
 11
-69.4961
 21
-24.3273
  0
LINE
  8
0
 10
-69.4961
 20
-24.3273
 11
-69.384
 21
-25.1559
  0
LINE
  8
0
 10
-69.384
 20
-25.1559
 11
-69.2631
 21
-25.9596
  0
LINE
  8
0
 10
-69.2631
 20
-25.9596
 11
-69.1339
 21
-26.7386
  0
LINE
  8
0
 10
-69.1339
 20
-26.7386
 11
-68.9973
 21
-27.4928
  0
LINE
  8
0
 10
-68.9973
 20
-27.4928
 11
-68.8831
 21
-28.0782
  0
LINE
  8
0
 10
-68.8831
 20
-28.0782
 11
-68.8743
 21
-28.0899
  0
LINE
  8
0
 10
-68.8743
 20
-28.0899
 11
-69.7972
 21
-28.7858
  0
LINE
  8
0
 10
-69.7972
 20
-28.7858
 11
-69.806
 21
-28.7742
  0
LINE
  8
0
 10
-69.806
 20
-28.7742
 11
-70.4729
 21
-28.4357
  0
LINE
  8
0
 10
-70.4729
 20
-28.4357
 11
-71.1656
 21
-28.097
  0
LINE
  8
0
 10
-71.1656
 20
-28.097
 11
-71.8843
 21
-27.7589
  0
LINE
  8
0
 10
-71.8843
 20
-27.7589
 11
-72.6291
 21
-27.4219
  0
LINE
  8
0
 10
-72.6291
 20
-27.4219
 11
-73.2438
 21
-27.1536
  0
LINE
  8
0
 10
-73.2438
 20
-27.1536
 11
-73.8753
 21
-26.8869
  0
LINE
  8
0
 10
-73.8753
 20
-26.8869
 11
-74.5238
 21
-26.6222
  0
LINE
  8
0
 10
-74.5238
 20
-26.6222
 11
-75.1891
 21
-26.3598
  0
LINE
  8
0
 10
-75.1891
 20
-26.3598
 11
-76.1238
 21
-27.115
  0
LINE
  8
0
 10
-76.1238
 20
-27.115
 11
-76.007
 21
-27.8206
  0
LINE
  8
0
 10
-76.007
 20
-27.8206
 11
-75.8844
 21
-28.5102
  0
LINE
  8
0
 10
-75.8844
 20
-28.5102
 11
-75.7564
 21
-29.1837
  0
LINE
  8
0
 10
-75.7564
 20
-29.1837
 11
-75.5892
 21
-30.0028
  0
LINE
  8
0
 10
-75.5892
 20
-30.0028
 11
-75.4149
 21
-30.7967
  0
LINE
  8
0
 10
-75.4149
 20
-30.7967
 11
-75.234
 21
-31.5654
  0
LINE
  8
0
 10
-75.234
 20
-31.5654
 11
-75.0473
 21
-32.3087
  0
LINE
  8
0
 10
-75.0473
 20
-32.3087
 11
-74.8942
 21
-32.8852
  0
LINE
  8
0
 10
-74.8942
 20
-32.8852
 11
-74.8847
 21
-32.8963
  0
LINE
  8
0
 10
-74.8847
 20
-32.8963
 11
-75.759
 21
-33.6523
  0
LINE
  8
0
 10
-75.759
 20
-33.6523
 11
-75.7686
 21
-33.6413
  0
LINE
  8
0
 10
-75.7686
 20
-33.6413
 11
-76.4566
 21
-33.3481
  0
LINE
  8
0
 10
-76.4566
 20
-33.3481
 11
-77.1704
 21
-33.0565
  0
LINE
  8
0
 10
-77.1704
 20
-33.0565
 11
-77.91
 21
-32.767
  0
LINE
  8
0
 10
-77.91
 20
-32.767
 11
-78.6757
 21
-32.4805
  0
LINE
  8
0
 10
-78.6757
 20
-32.4805
 11
-79.3069
 21
-32.2539
  0
LINE
  8
0
 10
-79.3069
 20
-32.2539
 11
-79.9549
 21
-32.0301
  0
LINE
  8
0
 10
-79.9549
 20
-32.0301
 11
-80.6196
 21
-31.8092
  0
LINE
  8
0
 10
-80.6196
 20
-31.8092
 11
-81.301
 21
-31.5919
  0
LINE
  8
0
 10
-81.301
 20
-31.5919
 11
-82.1831
 21
-32.4077
  0
LINE
  8
0
 10
-82.1831
 20
-32.4077
 11
-82.0195
 21
-33.104
  0
LINE
  8
0
 10
-82.0195
 20
-33.104
 11
-81.8511
 21
-33.7839
  0
LINE
  8
0
 10
-81.8511
 20
-33.7839
 11
-81.6784
 21
-34.4473
  0
LINE
  8
0
 10
-81.6784
 20
-34.4473
 11
-81.4569
 21
-35.2535
  0
LINE
  8
0
 10
-81.4569
 20
-35.2535
 11
-81.2299
 21
-36.034
  0
LINE
  8
0
 10
-81.2299
 20
-36.034
 11
-80.998
 21
-36.7888
  0
LINE
  8
0
 10
-80.998
 20
-36.7888
 11
-80.7621
 21
-37.518
  0
LINE
  8
0
 10
-80.7621
 20
-37.518
 11
-80.5709
 21
-38.0829
  0
LINE
  8
0
 10
-80.5709
 20
-38.0829
 11
-80.5606
 21
-38.0934
  0
LINE
  8
0
 10
-80.5606
 20
-38.0934
 11
-81.3825
 21
-38.9061
  0
LINE
  8
0
 10
-81.3825
 20
-38.9061
 11
-81.3928
 21
-38.8958
  0
LINE
  8
0
 10
-81.3928
 20
-38.8958
 11
-82.0989
 21
-38.6492
  0
LINE
  8
0
 10
-82.0989
 20
-38.6492
 11
-82.8305
 21
-38.4059
  0
LINE
  8
0
 10
-82.8305
 20
-38.4059
 11
-83.5879
 21
-38.1665
  0
LINE
  8
0
 10
-83.5879
 20
-38.1665
 11
-84.3709
 21
-37.9318
  0
LINE
  8
0
 10
-84.3709
 20
-37.9318
 11
-85.0159
 21
-37.7479
  0
LINE
  8
0
 10
-85.0159
 20
-37.7479
 11
-85.6774
 21
-37.5677
  0
LINE
  8
0
 10
-85.6774
 20
-37.5677
 11
-86.3553
 21
-37.3918
  0
LINE
  8
0
 10
-86.3553
 20
-37.3918
 11
-87.0497
 21
-37.2205
  0
LINE
  8
0
 10
-87.0497
 20
-37.2205
 11
-87.8754
 21
-38.0934
  0
LINE
  8
0
 10
-87.8754
 20
-38.0934
 11
-87.6656
 21
-38.7772
  0
LINE
  8
0
 10
-87.6656
 20
-38.7772
 11
-87.4522
 21
-39.4443
  0
LINE
  8
0
 10
-87.4522
 20
-39.4443
 11
-87.2355
 21
-40.0947
  0
LINE
  8
0
 10
-87.2355
 20
-40.0947
 11
-86.9607
 21
-40.8843
  0
LINE
  8
0
 10
-86.9607
 20
-40.8843
 11
-86.6821
 21
-41.6479
  0
LINE
  8
0
 10
-86.6821
 20
-41.6479
 11
-86.4003
 21
-42.3855
  0
LINE
  8
0
 10
-86.4003
 20
-42.3855
 11
-86.1162
 21
-43.0973
  0
LINE
  8
0
 10
-86.1162
 20
-43.0973
 11
-85.8877
 21
-43.6483
  0
LINE
  8
0
 10
-85.8877
 20
-43.6483
 11
-85.8768
 21
-43.658
  0
LINE
  8
0
 10
-85.8768
 20
-43.658
 11
-86.6425
 21
-44.5238
  0
LINE
  8
0
 10
-86.6425
 20
-44.5238
 11
-86.6535
 21
-44.5142
  0
LINE
  8
0
 10
-86.6535
 20
-44.5142
 11
-87.3745
 21
-44.3153
  0
LINE
  8
0
 10
-87.3745
 20
-44.3153
 11
-88.1207
 21
-44.1214
  0
LINE
  8
0
 10
-88.1207
 20
-44.1214
 11
-88.8924
 21
-43.9331
  0
LINE
  8
0
 10
-88.8924
 20
-43.9331
 11
-89.6894
 21
-43.7512
  0
LINE
  8
0
 10
-89.6894
 20
-43.7512
 11
-90.3452
 21
-43.6108
  0
LINE
  8
0
 10
-90.3452
 20
-43.6108
 11
-91.0172
 21
-43.4753
  0
LINE
  8
0
 10
-91.0172
 20
-43.4753
 11
-91.7054
 21
-43.345
  0
LINE
  8
0
 10
-91.7054
 20
-43.345
 11
-92.4097
 21
-43.2204
  0
LINE
  8
0
 10
-92.4097
 20
-43.2204
 11
-93.1752
 21
-44.1466
  0
LINE
  8
0
 10
-93.1752
 20
-44.1466
 11
-92.9202
 21
-44.8148
  0
LINE
  8
0
 10
-92.9202
 20
-44.8148
 11
-92.6627
 21
-45.4662
  0
LINE
  8
0
 10
-92.6627
 20
-45.4662
 11
-92.4031
 21
-46.1007
  0
LINE
  8
0
 10
-92.4031
 20
-46.1007
 11
-92.0761
 21
-46.8701
  0
LINE
  8
0
 10
-92.0761
 20
-46.8701
 11
-91.7471
 21
-47.6134
  0
LINE
  8
0
 10
-91.7471
 20
-47.6134
 11
-91.4167
 21
-48.3306
  0
LINE
  8
0
 10
-91.4167
 20
-48.3306
 11
-91.0857
 21
-49.0219
  0
LINE
  8
0
 10
-91.0857
 20
-49.0219
 11
-90.8209
 21
-49.5563
  0
LINE
  8
0
 10
-90.8209
 20
-49.5563
 11
-90.8094
 21
-49.5652
  0
LINE
  8
0
 10
-90.8094
 20
-49.5652
 11
-91.5156
 21
-50.4803
  0
LINE
  8
0
 10
-91.5156
 20
-50.4803
 11
-91.5272
 21
-50.4714
  0
LINE
  8
0
 10
-91.5272
 20
-50.4714
 11
-92.2598
 21
-50.3211
  0
LINE
  8
0
 10
-92.2598
 20
-50.3211
 11
-93.0173
 21
-50.1775
  0
LINE
  8
0
 10
-93.0173
 20
-50.1775
 11
-93.7999
 21
-50.0412
  0
LINE
  8
0
 10
-93.7999
 20
-50.0412
 11
-94.6072
 21
-49.913
  0
LINE
  8
0
 10
-94.6072
 20
-49.913
 11
-95.2709
 21
-49.8167
  0
LINE
  8
0
 10
-95.2709
 20
-49.8167
 11
-95.9505
 21
-49.7263
  0
LINE
  8
0
 10
-95.9505
 20
-49.7263
 11
-96.6458
 21
-49.6423
  0
LINE
  8
0
 10
-96.6458
 20
-49.6423
 11
-97.3569
 21
-49.565
  0
LINE
  8
0
 10
-97.3569
 20
-49.565
 11
-98.0588
 21
-50.5402
  0
LINE
  8
0
 10
-98.0588
 20
-50.5402
 11
-97.7598
 21
-51.19
  0
LINE
  8
0
 10
-97.7598
 20
-51.19
 11
-97.4594
 21
-51.8227
  0
LINE
  8
0
 10
-97.4594
 20
-51.8227
 11
-97.1579
 21
-52.4384
  0
LINE
  8
0
 10
-97.1579
 20
-52.4384
 11
-96.7803
 21
-53.1843
  0
LINE
  8
0
 10
-96.7803
 20
-53.1843
 11
-96.4024
 21
-53.9039
  0
LINE
  8
0
 10
-96.4024
 20
-53.9039
 11
-96.0249
 21
-54.5974
  0
LINE
  8
0
 10
-96.0249
 20
-54.5974
 11
-95.6484
 21
-55.265
  0
LINE
  8
0
 10
-95.6484
 20
-55.265
 11
-95.3485
 21
-55.7806
  0
LINE
  8
0
 10
-95.3485
 20
-55.7806
 11
-95.3364
 21
-55.7888
  0
LINE
  8
0
 10
-95.3364
 20
-55.7888
 11
-95.9799
 21
-56.7489
  0
LINE
  8
0
 10
-95.9799
 20
-56.7489
 11
-95.9921
 21
-56.7409
  0
LINE
  8
0
 10
-95.9921
 20
-56.7409
 11
-96.7331
 21
-56.6399
  0
LINE
  8
0
 10
-96.7331
 20
-56.6399
 11
-97.4985
 21
-56.5471
  0
LINE
  8
0
 10
-97.4985
 20
-56.5471
 11
-98.2884
 21
-56.4634
  0
LINE
  8
0
 10
-98.2884
 20
-56.4634
 11
-99.1025
 21
-56.3894
  0
LINE
  8
0
 10
-99.1025
 20
-56.3894
 11
-99.7712
 21
-56.3376
  0
LINE
  8
0
 10
-99.7712
 20
-56.3376
 11
-100.455
 21
-56.2929
  0
LINE
  8
0
 10
-100.455
 20
-56.2929
 11
-101.155
 21
-56.2555
  0
LINE
  8
0
 10
-101.155
 20
-56.2555
 11
-101.869
 21
-56.2259
  0
LINE
  8
0
 10
-101.869
 20
-56.2259
 11
-102.505
 21
-57.2458
  0
LINE
  8
0
 10
-102.505
 20
-57.2458
 11
-102.163
 21
-57.8741
  0
LINE
  8
0
 10
-102.163
 20
-57.8741
 11
-101.821
 21
-58.4853
  0
LINE
  8
0
 10
-101.821
 20
-58.4853
 11
-101.479
 21
-59.0795
  0
LINE
  8
0
 10
-101.479
 20
-59.0795
 11
-101.052
 21
-59.7986
  0
LINE
  8
0
 10
-101.052
 20
-59.7986
 11
-100.627
 21
-60.4913
  0
LINE
  8
0
 10
-100.627
 20
-60.4913
 11
-100.204
 21
-61.1581
  0
LINE
  8
0
 10
-100.204
 20
-61.1581
 11
-99.7839
 21
-61.7991
  0
LINE
  8
0
 10
-99.7839
 20
-61.7991
 11
-99.4502
 21
-62.2934
  0
LINE
  8
0
 10
-99.4502
 20
-62.2934
 11
-99.4376
 21
-62.3008
  0
LINE
  8
0
 10
-99.4376
 20
-62.3008
 11
-100.016
 21
-63.3018
  0
LINE
  8
0
 10
-100.016
 20
-63.3018
 11
-100.028
 21
-63.2945
  0
LINE
  8
0
 10
-100.028
 20
-63.2945
 11
-100.774
 21
-63.2432
  0
LINE
  8
0
 10
-100.774
 20
-63.2432
 11
-101.544
 21
-63.2019
  0
LINE
  8
0
 10
-101.544
 20
-63.2019
 11
-102.338
 21
-63.1711
  0
LINE
  8
0
 10
-102.338
 20
-63.1711
 11
-103.155
 21
-63.1516
  0
LINE
  8
0
 10
-103.155
 20
-63.1516
 11
-103.826
 21
-63.1446
  0
LINE
  8
0
 10
-103.826
 20
-63.1446
 11
-104.511
 21
-63.1456
  0
LINE
  8
0
 10
-104.511
 20
-63.1456
 11
-105.212
 21
-63.1551
  0
LINE
  8
0
 10
-105.212
 20
-63.1551
 11
-105.927
 21
-63.1733
  0
LINE
  8
0
 10
-105.927
 20
-63.1733
 11
-106.492
 21
-64.2333
  0
LINE
  8
0
 10
-106.492
 20
-64.2333
 11
-106.109
 21
-64.8374
  0
LINE
  8
0
 10
-106.109
 20
-64.8374
 11
-105.727
 21
-65.4244
  0
LINE
  8
0
 10
-105.727
 20
-65.4244
 11
-105.347
 21
-65.9945
  0
LINE
  8
0
 10
-105.347
 20
-65.9945
 11
-104.873
 21
-66.6834
  0
LINE
  8
0
 10
-104.873
 20
-66.6834
 11
-104.402
 21
-67.3462
  0
LINE
  8
0
 10
-104.402
 20
-67.3462
 11
-103.936
 21
-67.9832
  0
LINE
  8
0
 10
-103.936
 20
-67.9832
 11
-103.474
 21
-68.5947
  0
LINE
  8
0
 10
-103.474
 20
-68.5947
 11
-103.108
 21
-69.0657
  0
LINE
  8
0
 10
-103.108
 20
-69.0657
 11
-103.095
 21
-69.0722
  0
LINE
  8
0
 10
-103.095
 20
-69.0722
 11
-103.604
 21
-70.1095
  0
LINE
  8
0
 10
-103.604
 20
-70.1095
 11
-103.618
 21
-70.1031
  0
LINE
  8
0
 10
-103.618
 20
-70.1031
 11
-104.365
 21
-70.1018
  0
LINE
  8
0
 10
-104.365
 20
-70.1018
 11
-105.136
 21
-70.112
  0
LINE
  8
0
 10
-105.136
 20
-70.112
 11
-105.93
 21
-70.1342
  0
LINE
  8
0
 10
-105.93
 20
-70.1342
 11
-106.747
 21
-70.1694
  0
LINE
  8
0
 10
-106.747
 20
-70.1694
 11
-107.417
 21
-70.2072
  0
LINE
  8
0
 10
-107.417
 20
-70.2072
 11
-108.101
 21
-70.254
  0
LINE
  8
0
 10
-108.101
 20
-70.254
 11
-108.799
 21
-70.3102
  0
LINE
  8
0
 10
-108.799
 20
-70.3102
 11
-109.511
 21
-70.3761
  0
LINE
  8
0
 10
-109.511
 20
-70.3761
 11
-110.005
 21
-71.4716
  0
LINE
  8
0
 10
-110.005
 20
-71.4716
 11
-109.582
 21
-72.0488
  0
LINE
  8
0
 10
-109.582
 20
-72.0488
 11
-109.162
 21
-72.6089
  0
LINE
  8
0
 10
-109.162
 20
-72.6089
 11
-108.744
 21
-73.1523
  0
LINE
  8
0
 10
-108.744
 20
-73.1523
 11
-108.225
 21
-73.808
  0
LINE
  8
0
 10
-108.225
 20
-73.808
 11
-107.711
 21
-74.438
  0
LINE
  8
0
 10
-107.711
 20
-74.438
 11
-107.203
 21
-75.0424
  0
LINE
  8
0
 10
-107.203
 20
-75.0424
 11
-106.701
 21
-75.6216
  0
LINE
  8
0
 10
-106.701
 20
-75.6216
 11
-106.305
 21
-76.0671
  0
LINE
  8
0
 10
-106.305
 20
-76.0671
 11
-106.291
 21
-76.0727
  0
LINE
  8
0
 10
-106.291
 20
-76.0727
 11
-106.731
 21
-77.1418
  0
LINE
  8
0
 10
-106.731
 20
-77.1418
 11
-106.744
 21
-77.1363
  0
LINE
  8
0
 10
-106.744
 20
-77.1363
 11
-107.491
 21
-77.1849
  0
LINE
  8
0
 10
-107.491
 20
-77.1849
 11
-108.259
 21
-77.2465
  0
LINE
  8
0
 10
-108.259
 20
-77.2465
 11
-109.05
 21
-77.3218
  0
LINE
  8
0
 10
-109.05
 20
-77.3218
 11
-109.862
 21
-77.4114
  0
LINE
  8
0
 10
-109.862
 20
-77.4114
 11
-110.528
 21
-77.4939
  0
LINE
  8
0
 10
-110.528
 20
-77.4939
 11
-111.207
 21
-77.5863
  0
LINE
  8
0
 10
-111.207
 20
-77.5863
 11
-111.9
 21
-77.689
  0
LINE
  8
0
 10
-111.9
 20
-77.689
 11
-112.606
 21
-77.8023
  0
LINE
  8
0
 10
-112.606
 20
-77.8023
 11
-113.026
 21
-78.9283
  0
LINE
  8
0
 10
-113.026
 20
-78.9283
 11
-112.566
 21
-79.476
  0
LINE
  8
0
 10
-112.566
 20
-79.476
 11
-112.109
 21
-80.0068
  0
LINE
  8
0
 10
-112.109
 20
-80.0068
 11
-111.655
 21
-80.521
  0
LINE
  8
0
 10
-111.655
 20
-80.521
 11
-111.094
 21
-81.1407
  0
LINE
  8
0
 10
-111.094
 20
-81.1407
 11
-110.539
 21
-81.7349
  0
LINE
  8
0
 10
-110.539
 20
-81.7349
 11
-109.992
 21
-82.304
  0
LINE
  8
0
 10
-109.992
 20
-82.304
 11
-109.453
 21
-82.8484
  0
LINE
  8
0
 10
-109.453
 20
-82.8484
 11
-109.027
 21
-83.2664
  0
LINE
  8
0
 10
-109.027
 20
-83.2664
 11
-109.013
 21
-83.2711
  0
LINE
  8
0
 10
-109.013
 20
-83.2711
 11
-109.38
 21
-84.3672
  0
LINE
  8
0
 10
-109.38
 20
-84.3672
 11
-109.394
 21
-84.3626
  0
LINE
  8
0
 10
-109.394
 20
-84.3626
 11
-110.135
 21
-84.461
  0
LINE
  8
0
 10
-110.135
 20
-84.461
 11
-110.898
 21
-84.5738
  0
LINE
  8
0
 10
-110.898
 20
-84.5738
 11
-111.682
 21
-84.7017
  0
LINE
  8
0
 10
-111.682
 20
-84.7017
 11
-112.487
 21
-84.8454
  0
LINE
  8
0
 10
-112.487
 20
-84.8454
 11
-113.146
 21
-84.9721
  0
LINE
  8
0
 10
-113.146
 20
-84.9721
 11
-113.817
 21
-85.1097
  0
LINE
  8
0
 10
-113.817
 20
-85.1097
 11
-114.502
 21
-85.2584
  0
LINE
  8
0
 10
-114.502
 20
-85.2584
 11
-115.199
 21
-85.4187
  0
LINE
  8
0
 10
-115.199
 20
-85.4187
 11
-115.542
 21
-86.5702
  0
LINE
  8
0
 10
-115.542
 20
-86.5702
 11
-115.046
 21
-87.0859
  0
LINE
  8
0
 10
-115.046
 20
-87.0859
 11
-114.555
 21
-87.585
  0
LINE
  8
0
 10
-114.555
 20
-87.585
 11
-114.068
 21
-88.0678
  0
LINE
  8
0
 10
-114.068
 20
-88.0678
 11
-113.467
 21
-88.6485
  0
LINE
  8
0
 10
-113.467
 20
-88.6485
 11
-112.874
 21
-89.2044
  0
LINE
  8
0
 10
-112.874
 20
-89.2044
 11
-112.29
 21
-89.7357
  0
LINE
  8
0
 10
-112.29
 20
-89.7357
 11
-111.715
 21
-90.2429
  0
LINE
  8
0
 10
-111.715
 20
-90.2429
 11
-111.262
 21
-90.6315
  0
LINE
  8
0
 10
-111.262
 20
-90.6315
 11
-111.248
 21
-90.6353
  0
LINE
  8
0
 10
-111.248
 20
-90.6353
 11
-111.541
 21
-91.7534
  0
LINE
  8
0
 10
-111.541
 20
-91.7534
 11
-111.555
 21
-91.7498
  0
LINE
  8
0
 10
-111.555
 20
-91.7498
 11
-112.289
 21
-91.8974
  0
LINE
  8
0
 10
-112.289
 20
-91.8974
 11
-113.042
 21
-92.0609
  0
LINE
  8
0
 10
-113.042
 20
-92.0609
 11
-113.816
 21
-92.2409
  0
LINE
  8
0
 10
-113.816
 20
-92.2409
 11
-114.609
 21
-92.438
  0
LINE
  8
0
 10
-114.609
 20
-92.438
 11
-115.258
 21
-92.6085
  0
LINE
  8
0
 10
-115.258
 20
-92.6085
 11
-115.919
 21
-92.7906
  0
LINE
  8
0
 10
-115.919
 20
-92.7906
 11
-116.592
 21
-92.9847
  0
LINE
  8
0
 10
-116.592
 20
-92.9847
 11
-117.276
 21
-93.1912
  0
LINE
  8
0
 10
-117.276
 20
-93.1912
 11
-117.542
 21
-94.363
  0
LINE
  8
0
 10
-117.542
 20
-94.363
 11
-117.013
 21
-94.8444
  0
LINE
  8
0
 10
-117.013
 20
-94.8444
 11
-116.489
 21
-95.3097
  0
LINE
  8
0
 10
-116.489
 20
-95.3097
 11
-115.972
 21
-95.7589
  0
LINE
  8
0
 10
-115.972
 20
-95.7589
 11
-115.333
 21
-96.2982
  0
LINE
  8
0
 10
-115.333
 20
-96.2982
 11
-114.704
 21
-96.8131
  0
LINE
  8
0
 10
-114.704
 20
-96.8131
 11
-114.085
 21
-97.3042
  0
LINE
  8
0
 10
-114.085
 20
-97.3042
 11
-113.478
 21
-97.7719
  0
LINE
  8
0
 10
-113.478
 20
-97.7719
 11
-113.001
 21
-98.1295
  0
LINE
  8
0
 10
-113.001
 20
-98.1295
 11
-112.987
 21
-98.1323
  0
LINE
  8
0
 10
-112.987
 20
-98.1323
 11
-113.204
 21
-99.2675
  0
LINE
  8
0
 10
-113.204
 20
-99.2675
 11
-113.218
 21
-99.2648
  0
LINE
  8
0
 10
-113.218
 20
-99.2648
 11
-113.94
 21
-99.4611
  0
LINE
  8
0
 10
-113.94
 20
-99.4611
 11
-114.681
 21
-99.6745
  0
LINE
  8
0
 10
-114.681
 20
-99.6745
 11
-115.441
 21
-99.9058
  0
LINE
  8
0
 10
-115.441
 20
-99.9058
 11
-116.219
 21
-100.155
  0
LINE
  8
0
 10
-116.219
 20
-100.155
 11
-116.855
 21
-100.369
  0
LINE
  8
0
 10
-116.855
 20
-100.369
 11
-117.502
 21
-100.595
  0
LINE
  8
0
 10
-117.502
 20
-100.595
 11
-118.161
 21
-100.833
  0
LINE
  8
0
 10
-118.161
 20
-100.833
 11
-118.83
 21
-101.085
  0
LINE
  8
0
 10
-118.83
 20
-101.085
 11
-119.017
 21
-102.272
  0
LINE
  8
0
 10
-119.017
 20
-102.272
 11
-118.457
 21
-102.717
  0
LINE
  8
0
 10
-118.457
 20
-102.717
 11
-117.904
 21
-103.146
  0
LINE
  8
0
 10
-117.904
 20
-103.146
 11
-117.357
 21
-103.56
  0
LINE
  8
0
 10
-117.357
 20
-103.56
 11
-116.684
 21
-104.055
  0
LINE
  8
0
 10
-116.684
 20
-104.055
 11
-116.022
 21
-104.527
  0
LINE
  8
0
 10
-116.022
 20
-104.527
 11
-115.372
 21
-104.976
  0
LINE
  8
0
 10
-115.372
 20
-104.976
 11
-114.735
 21
-105.402
  0
LINE
  8
0
 10
-114.735
 20
-105.402
 11
-114.235
 21
-105.727
  0
LINE
  8
0
 10
-114.235
 20
-105.727
 11
-114.22
 21
-105.729
  0
LINE
  8
0
 10
-114.22
 20
-105.729
 11
-114.361
 21
-106.876
  0
LINE
  8
0
 10
-114.361
 20
-106.876
 11
-114.376
 21
-106.874
  0
LINE
  8
0
 10
-114.376
 20
-106.874
 11
-115.083
 21
-107.118
  0
LINE
  8
0
 10
-115.083
 20
-107.118
 11
-115.808
 21
-107.381
  0
LINE
  8
0
 10
-115.808
 20
-107.381
 11
-116.551
 21
-107.662
  0
LINE
  8
0
 10
-116.551
 20
-107.662
 11
-117.311
 21
-107.963
  0
LINE
  8
0
 10
-117.311
 20
-107.963
 11
-117.931
 21
-108.219
  0
LINE
  8
0
 10
-117.931
 20
-108.219
 11
-118.561
 21
-108.487
  0
LINE
  8
0
 10
-118.561
 20
-108.487
 11
-119.203
 21
-108.769
  0
LINE
  8
0
 10
-119.203
 20
-108.769
 11
-119.854
 21
-109.065
  0
LINE
  8
0
 10
-119.854
 20
-109.065
 11
-119.961
 21
-110.262
  0
LINE
  8
0
 10
-119.961
 20
-110.262
 11
-119.372
 21
-110.669
  0
LINE
  8
0
 10
-119.372
 20
-110.669
 11
-118.791
 21
-111.06
  0
LINE
  8
0
 10
-118.791
 20
-111.06
 11
-118.218
 21
-111.436
  0
LINE
  8
0
 10
-118.218
 20
-111.436
 11
-117.513
 21
-111.885
  0
LINE
  8
0
 10
-117.513
 20
-111.885
 11
-116.821
 21
-112.312
  0
LINE
  8
0
 10
-116.821
 20
-112.312
 11
-116.143
 21
-112.716
  0
LINE
  8
0
 10
-116.143
 20
-112.716
 11
-115.479
 21
-113.099
  0
LINE
  8
0
 10
-115.479
 20
-113.099
 11
-114.958
 21
-113.39
  0
LINE
  8
0
 10
-114.958
 20
-113.39
 11
-114.944
 21
-113.39
  0
LINE
  8
0
 10
-114.944
 20
-113.39
 11
-115.008
 21
-114.544
  0
LINE
  8
0
 10
-115.008
 20
-114.544
 11
-115.022
 21
-114.544
  0
LINE
  8
0
 10
-115.022
 20
-114.544
 11
-115.712
 21
-114.834
  0
LINE
  8
0
 10
-115.712
 20
-114.834
 11
-116.417
 21
-115.145
  0
LINE
  8
0
 10
-116.417
 20
-115.145
 11
-117.14
 21
-115.475
  0
LINE
  8
0
 10
-117.14
 20
-115.475
 11
-117.878
 21
-115.826
  0
LINE
  8
0
 10
-117.878
 20
-115.826
 11
-118.48
 21
-116.123
  0
LINE
  8
0
 10
-118.48
 20
-116.123
 11
-119.091
 21
-116.433
  0
LINE
  8
0
 10
-119.091
 20
-116.433
 11
-119.712
 21
-116.757
  0
LINE
  8
0
 10
-119.712
 20
-116.757
 11
-120.342
 21
-117.096
  0
LINE
  8
0
 10
-120.342
 20
-117.096
 11
-120.368
 21
-118.297
  0
LINE
  8
0
 10
-120.368
 20
-118.297
 11
-119.754
 21
-118.663
  0
LINE
  8
0
 10
-119.754
 20
-118.663
 11
-119.148
 21
-119.015
  0
LINE
  8
0
 10
-119.148
 20
-119.015
 11
-118.552
 21
-119.352
  0
LINE
  8
0
 10
-118.552
 20
-119.352
 11
-117.818
 21
-119.753
  0
LINE
  8
0
 10
-117.818
 20
-119.753
 11
-117.099
 21
-120.133
  0
LINE
  8
0
 10
-117.099
 20
-120.133
 11
-116.395
 21
-120.491
  0
LINE
  8
0
 10
-116.395
 20
-120.491
 11
-115.707
 21
-120.828
  0
LINE
  8
0
 10
-115.707
 20
-120.828
 11
-115.168
 21
-121.083
  0
LINE
  8
0
 10
-115.168
 20
-121.083
 11
-115.154
 21
-121.083
  0
LINE
  8
0
 10
-115.154
 20
-121.083
 11
-115.141
 21
-122.239
  0
LINE
  8
0
 10
-115.141
 20
-122.239
 11
-115.155
 21
-122.239
  0
LINE
  8
0
 10
-115.155
 20
-122.239
 11
-115.823
 21
-122.576
  0
LINE
  8
0
 10
-115.823
 20
-122.576
 11
-116.507
 21
-122.932
  0
LINE
  8
0
 10
-116.507
 20
-122.932
 11
-117.206
 21
-123.31
  0
LINE
  8
0
 10
-117.206
 20
-123.31
 11
-117.919
 21
-123.71
  0
LINE
  8
0
 10
-117.919
 20
-123.71
 11
-118.499
 21
-124.046
  0
LINE
  8
0
 10
-118.499
 20
-124.046
 11
-119.089
 21
-124.396
  0
LINE
  8
0
 10
-119.089
 20
-124.396
 11
-119.686
 21
-124.761
  0
LINE
  8
0
 10
-119.686
 20
-124.761
 11
-120.292
 21
-125.141
  0
LINE
  8
0
 10
-120.292
 20
-125.141
 11
-120.239
 21
-126.341
  0
LINE
  8
0
 10
-120.239
 20
-126.341
 11
-119.601
 21
-126.666
  0
LINE
  8
0
 10
-119.601
 20
-126.666
 11
-118.973
 21
-126.976
  0
LINE
  8
0
 10
-118.973
 20
-126.976
 11
-118.355
 21
-127.273
  0
LINE
  8
0
 10
-118.355
 20
-127.273
 11
-117.597
 21
-127.624
  0
LINE
  8
0
 10
-117.597
 20
-127.624
 11
-116.854
 21
-127.955
  0
LINE
  8
0
 10
-116.854
 20
-127.955
 11
-116.128
 21
-128.265
  0
LINE
  8
0
 10
-116.128
 20
-128.265
 11
-115.419
 21
-128.556
  0
LINE
  8
0
 10
-115.419
 20
-128.556
 11
-114.864
 21
-128.774
  0
LINE
  8
0
 10
-114.864
 20
-128.774
 11
-114.849
 21
-128.773
  0
LINE
  8
0
 10
-114.849
 20
-128.773
 11
-114.759
 21
-129.926
  0
LINE
  8
0
 10
-114.759
 20
-129.926
 11
-114.774
 21
-129.927
  0
LINE
  8
0
 10
-114.774
 20
-129.927
 11
-115.418
 21
-130.307
  0
LINE
  8
0
 10
-115.418
 20
-130.307
 11
-116.076
 21
-130.708
  0
LINE
  8
0
 10
-116.076
 20
-130.708
 11
-116.748
 21
-131.132
  0
LINE
  8
0
 10
-116.748
 20
-131.132
 11
-117.433
 21
-131.579
  0
LINE
  8
0
 10
-117.433
 20
-131.579
 11
-117.99
 21
-131.952
  0
LINE
  8
0
 10
-117.99
 20
-131.952
 11
-118.554
 21
-132.341
  0
LINE
  8
0
 10
-118.554
 20
-132.341
 11
-119.126
 21
-132.745
  0
LINE
  8
0
 10
-119.126
 20
-132.745
 11
-119.705
 21
-133.165
  0
LINE
  8
0
 10
-119.705
 20
-133.165
 11
-119.572
 21
-134.359
  0
LINE
  8
0
 10
-119.572
 20
-134.359
 11
-118.914
 21
-134.64
  0
LINE
  8
0
 10
-118.914
 20
-134.64
 11
-118.267
 21
-134.908
  0
LINE
  8
0
 10
-118.267
 20
-134.908
 11
-117.631
 21
-135.163
  0
LINE
  8
0
 10
-117.631
 20
-135.163
 11
-116.85
 21
-135.463
  0
LINE
  8
0
 10
-116.85
 20
-135.463
 11
-116.087
 21
-135.743
  0
LINE
  8
0
 10
-116.087
 20
-135.743
 11
-115.342
 21
-136.004
  0
LINE
  8
0
 10
-115.342
 20
-136.004
 11
-114.615
 21
-136.246
  0
LINE
  8
0
 10
-114.615
 20
-136.246
 11
-114.047
 21
-136.428
  0
LINE
  8
0
 10
-114.047
 20
-136.428
 11
-114.032
 21
-136.426
  0
LINE
  8
0
 10
-114.032
 20
-136.426
 11
-113.865
 21
-137.569
  0
LINE
  8
0
 10
-113.865
 20
-137.569
 11
-113.88
 21
-137.572
  0
LINE
  8
0
 10
-113.88
 20
-137.572
 11
-114.497
 21
-137.994
  0
LINE
  8
0
 10
-114.497
 20
-137.994
 11
-115.127
 21
-138.438
  0
LINE
  8
0
 10
-115.127
 20
-138.438
 11
-115.769
 21
-138.906
  0
LINE
  8
0
 10
-115.769
 20
-138.906
 11
-116.422
 21
-139.397
  0
LINE
  8
0
 10
-116.422
 20
-139.397
 11
-116.953
 21
-139.807
  0
LINE
  8
0
 10
-116.953
 20
-139.807
 11
-117.49
 21
-140.233
  0
LINE
  8
0
 10
-117.49
 20
-140.233
 11
-118.034
 21
-140.675
  0
LINE
  8
0
 10
-118.034
 20
-140.675
 11
-118.584
 21
-141.132
  0
LINE
  8
0
 10
-118.584
 20
-141.132
 11
-118.371
 21
-142.314
  0
LINE
  8
0
 10
-118.371
 20
-142.314
 11
-117.696
 21
-142.551
  0
LINE
  8
0
 10
-117.696
 20
-142.551
 11
-117.033
 21
-142.775
  0
LINE
  8
0
 10
-117.033
 20
-142.775
 11
-116.38
 21
-142.986
  0
LINE
  8
0
 10
-116.38
 20
-142.986
 11
-115.582
 21
-143.234
  0
LINE
  8
0
 10
-115.582
 20
-143.234
 11
-114.802
 21
-143.462
  0
LINE
  8
0
 10
-114.802
 20
-143.462
 11
-114.041
 21
-143.673
  0
LINE
  8
0
 10
-114.041
 20
-143.673
 11
-113.299
 21
-143.866
  0
LINE
  8
0
 10
-113.299
 20
-143.866
 11
-112.72
 21
-144.009
  0
LINE
  8
0
 10
-112.72
 20
-144.009
 11
-112.706
 21
-144.006
  0
LINE
  8
0
 10
-112.706
 20
-144.006
 11
-112.463
 21
-145.136
  0
LINE
  8
0
 10
-112.463
 20
-145.136
 11
-112.477
 21
-145.139
  0
LINE
  8
0
 10
-112.477
 20
-145.139
 11
-113.065
 21
-145.602
  0
LINE
  8
0
 10
-113.065
 20
-145.602
 11
-113.664
 21
-146.088
  0
LINE
  8
0
 10
-113.664
 20
-146.088
 11
-114.273
 21
-146.597
  0
LINE
  8
0
 10
-114.273
 20
-146.597
 11
-114.892
 21
-147.131
  0
LINE
  8
0
 10
-114.892
 20
-147.131
 11
-115.394
 21
-147.576
  0
LINE
  8
0
 10
-115.394
 20
-147.576
 11
-115.902
 21
-148.036
  0
LINE
  8
0
 10
-115.902
 20
-148.036
 11
-116.415
 21
-148.513
  0
LINE
  8
0
 10
-116.415
 20
-148.513
 11
-116.933
 21
-149.006
  0
LINE
  8
0
 10
-116.933
 20
-149.006
 11
-116.642
 21
-150.172
  0
LINE
  8
0
 10
-116.642
 20
-150.172
 11
-115.952
 21
-150.363
  0
LINE
  8
0
 10
-115.952
 20
-150.363
 11
-115.275
 21
-150.542
  0
LINE
  8
0
 10
-115.275
 20
-150.542
 11
-114.61
 21
-150.709
  0
LINE
  8
0
 10
-114.61
 20
-150.709
 11
-113.797
 21
-150.903
  0
LINE
  8
0
 10
-113.797
 20
-150.903
 11
-113.003
 21
-151.079
  0
LINE
  8
0
 10
-113.003
 20
-151.079
 11
-112.23
 21
-151.238
  0
LINE
  8
0
 10
-112.23
 20
-151.238
 11
-111.477
 21
-151.382
  0
LINE
  8
0
 10
-111.477
 20
-151.382
 11
-110.89
 21
-151.485
  0
LINE
  8
0
 10
-110.89
 20
-151.485
 11
-110.876
 21
-151.481
  0
LINE
  8
0
 10
-110.876
 20
-151.481
 11
-110.558
 21
-152.593
  0
LINE
  8
0
 10
-110.558
 20
-152.593
 11
-110.572
 21
-152.597
  0
LINE
  8
0
 10
-110.572
 20
-152.597
 11
-111.128
 21
-153.097
  0
LINE
  8
0
 10
-111.128
 20
-153.097
 11
-111.693
 21
-153.622
  0
LINE
  8
0
 10
-111.693
 20
-153.622
 11
-112.267
 21
-154.171
  0
LINE
  8
0
 10
-112.267
 20
-154.171
 11
-112.849
 21
-154.745
  0
LINE
  8
0
 10
-112.849
 20
-154.745
 11
-113.32
 21
-155.222
  0
LINE
  8
0
 10
-113.32
 20
-155.222
 11
-113.796
 21
-155.716
  0
LINE
  8
0
 10
-113.796
 20
-155.716
 11
-114.276
 21
-156.226
  0
LINE
  8
0
 10
-114.276
 20
-156.226
 11
-114.76
 21
-156.752
  0
LINE
  8
0
 10
-114.76
 20
-156.752
 11
-114.391
 21
-157.896
  0
LINE
  8
0
 10
-114.391
 20
-157.896
 11
-113.691
 21
-158.041
  0
LINE
  8
0
 10
-113.691
 20
-158.041
 11
-113.003
 21
-158.174
  0
LINE
  8
0
 10
-113.003
 20
-158.174
 11
-112.329
 21
-158.297
  0
LINE
  8
0
 10
-112.329
 20
-158.297
 11
-111.504
 21
-158.435
  0
LINE
  8
0
 10
-111.504
 20
-158.435
 11
-110.701
 21
-158.558
  0
LINE
  8
0
 10
-110.701
 20
-158.558
 11
-109.918
 21
-158.665
  0
LINE
  8
0
 10
-109.918
 20
-158.665
 11
-109.158
 21
-158.758
  0
LINE
  8
0
 10
-109.158
 20
-158.758
 11
-108.565
 21
-158.823
  0
LINE
  8
0
 10
-108.565
 20
-158.823
 11
-108.551
 21
-158.818
  0
LINE
  8
0
 10
-108.551
 20
-158.818
 11
-108.16
 21
-159.905
  0
LINE
  8
0
 10
-108.16
 20
-159.905
 11
-108.173
 21
-159.91
  0
LINE
  8
0
 10
-108.173
 20
-159.91
 11
-108.694
 21
-160.447
  0
LINE
  8
0
 10
-108.694
 20
-160.447
 11
-109.223
 21
-161.008
  0
LINE
  8
0
 10
-109.223
 20
-161.008
 11
-109.759
 21
-161.594
  0
LINE
  8
0
 10
-109.759
 20
-161.594
 11
-110.301
 21
-162.206
  0
LINE
  8
0
 10
-110.301
 20
-162.206
 11
-110.74
 21
-162.714
  0
LINE
  8
0
 10
-110.74
 20
-162.714
 11
-111.181
 21
-163.238
  0
LINE
  8
0
 10
-111.181
 20
-163.238
 11
-111.626
 21
-163.779
  0
LINE
  8
0
 10
-111.626
 20
-163.779
 11
-112.074
 21
-164.336
  0
LINE
  8
0
 10
-112.074
 20
-164.336
 11
-111.63
 21
-165.453
  0
LINE
  8
0
 10
-111.63
 20
-165.453
 11
-110.921
 21
-165.55
  0
LINE
  8
0
 10
-110.921
 20
-165.55
 11
-110.226
 21
-165.638
  0
LINE
  8
0
 10
-110.226
 20
-165.638
 11
-109.545
 21
-165.715
  0
LINE
  8
0
 10
-109.545
 20
-165.715
 11
-108.713
 21
-165.798
  0
LINE
  8
0
 10
-108.713
 20
-165.798
 11
-107.903
 21
-165.867
  0
LINE
  8
0
 10
-107.903
 20
-165.867
 11
-107.116
 21
-165.921
  0
LINE
  8
0
 10
-107.116
 20
-165.921
 11
-106.35
 21
-165.963
  0
LINE
  8
0
 10
-106.35
 20
-165.963
 11
-105.754
 21
-165.988
  0
LINE
  8
0
 10
-105.754
 20
-165.988
 11
-105.741
 21
-165.982
  0
LINE
  8
0
 10
-105.741
 20
-165.982
 11
-105.278
 21
-167.041
  0
LINE
  8
0
 10
-105.278
 20
-167.041
 11
-105.291
 21
-167.047
  0
LINE
  8
0
 10
-105.291
 20
-167.047
 11
-105.775
 21
-167.617
  0
LINE
  8
0
 10
-105.775
 20
-167.617
 11
-106.265
 21
-168.213
  0
LINE
  8
0
 10
-106.265
 20
-168.213
 11
-106.761
 21
-168.833
  0
LINE
  8
0
 10
-106.761
 20
-168.833
 11
-107.261
 21
-169.48
  0
LINE
  8
0
 10
-107.261
 20
-169.48
 11
-107.665
 21
-170.016
  0
LINE
  8
0
 10
-107.665
 20
-170.016
 11
-108.07
 21
-170.568
  0
LINE
  8
0
 10
-108.07
 20
-170.568
 11
-108.478
 21
-171.138
  0
LINE
  8
0
 10
-108.478
 20
-171.138
 11
-108.888
 21
-171.724
  0
LINE
  8
0
 10
-108.888
 20
-171.724
 11
-108.37
 21
-172.808
  0
LINE
  8
0
 10
-108.37
 20
-172.808
 11
-107.656
 21
-172.858
  0
LINE
  8
0
 10
-107.656
 20
-172.858
 11
-106.957
 21
-172.899
  0
LINE
  8
0
 10
-106.957
 20
-172.899
 11
-106.272
 21
-172.93
  0
LINE
  8
0
 10
-106.272
 20
-172.93
 11
-105.437
 21
-172.958
  0
LINE
  8
0
 10
-105.437
 20
-172.958
 11
-104.624
 21
-172.972
  0
LINE
  8
0
 10
-104.624
 20
-172.972
 11
-103.834
 21
-172.974
  0
LINE
  8
0
 10
-103.834
 20
-172.974
 11
-103.068
 21
-172.965
  0
LINE
  8
0
 10
-103.068
 20
-172.965
 11
-102.472
 21
-172.95
  0
LINE
  8
0
 10
-102.472
 20
-172.95
 11
-102.459
 21
-172.943
  0
LINE
  8
0
 10
-102.459
 20
-172.943
 11
-101.926
 21
-173.969
  0
LINE
  8
0
 10
-101.926
 20
-173.969
 11
-101.939
 21
-173.976
  0
LINE
  8
0
 10
-101.939
 20
-173.976
 11
-102.384
 21
-174.577
  0
LINE
  8
0
 10
-102.384
 20
-174.577
 11
-102.833
 21
-175.204
  0
LINE
  8
0
 10
-102.833
 20
-175.204
 11
-103.286
 21
-175.856
  0
LINE
  8
0
 10
-103.286
 20
-175.856
 11
-103.742
 21
-176.534
  0
LINE
  8
0
 10
-103.742
 20
-176.534
 11
-104.109
 21
-177.096
  0
LINE
  8
0
 10
-104.109
 20
-177.096
 11
-104.477
 21
-177.674
  0
LINE
  8
0
 10
-104.477
 20
-177.674
 11
-104.846
 21
-178.27
  0
LINE
  8
0
 10
-104.846
 20
-178.27
 11
-105.215
 21
-178.882
  0
LINE
  8
0
 10
-105.215
 20
-178.882
 11
-104.626
 21
-179.929
  0
LINE
  8
0
 10
-104.626
 20
-179.929
 11
-103.911
 21
-179.932
  0
LINE
  8
0
 10
-103.911
 20
-179.932
 11
-103.21
 21
-179.925
  0
LINE
  8
0
 10
-103.21
 20
-179.925
 11
-102.525
 21
-179.911
  0
LINE
  8
0
 10
-102.525
 20
-179.911
 11
-101.689
 21
-179.883
  0
LINE
  8
0
 10
-101.689
 20
-179.883
 11
-100.878
 21
-179.843
  0
LINE
  8
0
 10
-100.878
 20
-179.843
 11
-100.09
 21
-179.792
  0
LINE
  8
0
 10
-100.09
 20
-179.792
 11
-99.3255
 21
-179.732
  0
LINE
  8
0
 10
-99.3255
 20
-179.732
 11
-98.7316
 21
-179.677
  0
LINE
  8
0
 10
-98.7316
 20
-179.677
 11
-98.7191
 21
-179.669
  0
LINE
  8
0
 10
-98.7191
 20
-179.669
 11
-98.119
 21
-180.657
  0
LINE
  8
0
 10
-98.119
 20
-180.657
 11
-98.1315
 21
-180.665
  0
LINE
  8
0
 10
-98.1315
 20
-180.665
 11
-98.535
 21
-181.294
  0
LINE
  8
0
 10
-98.535
 20
-181.294
 11
-98.9413
 21
-181.95
  0
LINE
  8
0
 10
-98.9413
 20
-181.95
 11
-99.3497
 21
-182.631
  0
LINE
  8
0
 10
-99.3497
 20
-182.631
 11
-99.7596
 21
-183.338
  0
LINE
  8
0
 10
-99.7596
 20
-183.338
 11
-100.088
 21
-183.923
  0
LINE
  8
0
 10
-100.088
 20
-183.923
 11
-100.417
 21
-184.525
  0
LINE
  8
0
 10
-100.417
 20
-184.525
 11
-100.745
 21
-185.143
  0
LINE
  8
0
 10
-100.745
 20
-185.143
 11
-101.073
 21
-185.779
  0
LINE
  8
0
 10
-101.073
 20
-185.779
 11
-100.415
 21
-186.785
  0
LINE
  8
0
 10
-100.415
 20
-186.785
 11
-99.701
 21
-186.739
  0
LINE
  8
0
 10
-99.701
 20
-186.739
 11
-99.0026
 21
-186.686
  0
LINE
  8
0
 10
-99.0026
 20
-186.686
 11
-98.3197
 21
-186.626
  0
LINE
  8
0
 10
-98.3197
 20
-186.626
 11
-97.4879
 21
-186.542
  0
LINE
  8
0
 10
-97.4879
 20
-186.542
 11
-96.6805
 21
-186.448
  0
LINE
  8
0
 10
-96.6805
 20
-186.448
 11
-95.8976
 21
-186.345
  0
LINE
  8
0
 10
-95.8976
 20
-186.345
 11
-95.1393
 21
-186.233
  0
LINE
  8
0
 10
-95.1393
 20
-186.233
 11
-94.5504
 21
-186.139
  0
LINE
  8
0
 10
-94.5504
 20
-186.139
 11
-94.5384
 21
-186.13
  0
LINE
  8
0
 10
-94.5384
 20
-186.13
 11
-93.8737
 21
-187.076
  0
LINE
  8
0
 10
-93.8737
 20
-187.076
 11
-93.8856
 21
-187.085
  0
LINE
  8
0
 10
-93.8856
 20
-187.085
 11
-94.2462
 21
-187.74
  0
LINE
  8
0
 10
-94.2462
 20
-187.74
 11
-94.6079
 21
-188.421
  0
LINE
  8
0
 10
-94.6079
 20
-188.421
 11
-94.9699
 21
-189.128
  0
LINE
  8
0
 10
-94.9699
 20
-189.128
 11
-95.3316
 21
-189.861
  0
LINE
  8
0
 10
-95.3316
 20
-189.861
 11
-95.6202
 21
-190.466
  0
LINE
  8
0
 10
-95.6202
 20
-190.466
 11
-95.9078
 21
-191.089
  0
LINE
  8
0
 10
-95.9078
 20
-191.089
 11
-96.1941
 21
-191.728
  0
LINE
  8
0
 10
-96.1941
 20
-191.728
 11
-96.4785
 21
-192.384
  0
LINE
  8
0
 10
-96.4785
 20
-192.384
 11
-95.7551
 21
-193.343
  0
LINE
  8
0
 10
-95.7551
 20
-193.343
 11
-95.0459
 21
-193.25
  0
LINE
  8
0
 10
-95.0459
 20
-193.25
 11
-94.3526
 21
-193.151
  0
LINE
  8
0
 10
-94.3526
 20
-193.151
 11
-93.6752
 21
-193.045
  0
LINE
  8
0
 10
-93.6752
 20
-193.045
 11
-92.8509
 21
-192.906
  0
LINE
  8
0
 10
-92.8509
 20
-192.906
 11
-92.0517
 21
-192.758
  0
LINE
  8
0
 10
-92.0517
 20
-192.758
 11
-91.2774
 21
-192.603
  0
LINE
  8
0
 10
-91.2774
 20
-192.603
 11
-90.5282
 21
-192.441
  0
LINE
  8
0
 10
-90.5282
 20
-192.441
 11
-89.947
 21
-192.307
  0
LINE
  8
0
 10
-89.947
 20
-192.307
 11
-89.9356
 21
-192.298
  0
LINE
  8
0
 10
-89.9356
 20
-192.298
 11
-89.2092
 21
-193.197
  0
LINE
  8
0
 10
-89.2092
 20
-193.197
 11
-89.2205
 21
-193.206
  0
LINE
  8
0
 10
-89.2205
 20
-193.206
 11
-89.5365
 21
-193.884
  0
LINE
  8
0
 10
-89.5365
 20
-193.884
 11
-89.8519
 21
-194.588
  0
LINE
  8
0
 10
-89.8519
 20
-194.588
 11
-90.1658
 21
-195.317
  0
LINE
  8
0
 10
-90.1658
 20
-195.317
 11
-90.4778
 21
-196.073
  0
LINE
  8
0
 10
-90.4778
 20
-196.073
 11
-90.7253
 21
-196.696
  0
LINE
  8
0
 10
-90.7253
 20
-196.696
 11
-90.9707
 21
-197.337
  0
LINE
  8
0
 10
-90.9707
 20
-197.337
 11
-91.2136
 21
-197.993
  0
LINE
  8
0
 10
-91.2136
 20
-197.993
 11
-91.4536
 21
-198.667
  0
LINE
  8
0
 10
-91.4536
 20
-198.667
 11
-90.6677
 21
-199.576
  0
LINE
  8
0
 10
-90.6677
 20
-199.576
 11
-89.9664
 21
-199.436
  0
LINE
  8
0
 10
-89.9664
 20
-199.436
 11
-89.2812
 21
-199.29
  0
LINE
  8
0
 10
-89.2812
 20
-199.29
 11
-88.6124
 21
-199.14
  0
LINE
  8
0
 10
-88.6124
 20
-199.14
 11
-87.7993
 21
-198.945
  0
LINE
  8
0
 10
-87.7993
 20
-198.945
 11
-87.0117
 21
-198.745
  0
LINE
  8
0
 10
-87.0117
 20
-198.745
 11
-86.2495
 21
-198.538
  0
LINE
  8
0
 10
-86.2495
 20
-198.538
 11
-85.5128
 21
-198.327
  0
LINE
  8
0
 10
-85.5128
 20
-198.327
 11
-84.9418
 21
-198.154
  0
LINE
  8
0
 10
-84.9418
 20
-198.154
 11
-84.931
 21
-198.145
  0
LINE
  8
0
 10
-84.931
 20
-198.145
 11
-84.1462
 21
-198.993
  0
LINE
  8
0
 10
-84.1462
 20
-198.993
 11
-84.1569
 21
-199.003
  0
LINE
  8
0
 10
-84.1569
 20
-199.003
 11
-84.4269
 21
-199.7
  0
LINE
  8
0
 10
-84.4269
 20
-199.7
 11
-84.6946
 21
-200.424
  0
LINE
  8
0
 10
-84.6946
 20
-200.424
 11
-84.9591
 21
-201.173
  0
LINE
  8
0
 10
-84.9591
 20
-201.173
 11
-85.2199
 21
-201.947
  0
LINE
  8
0
 10
-85.2199
 20
-201.947
 11
-85.4252
 21
-202.586
  0
LINE
  8
0
 10
-85.4252
 20
-202.586
 11
-85.6273
 21
-203.241
  0
LINE
  8
0
 10
-85.6273
 20
-203.241
 11
-85.8258
 21
-203.913
  0
LINE
  8
0
 10
-85.8258
 20
-203.913
 11
-86.0203
 21
-204.601
  0
LINE
  8
0
 10
-86.0203
 20
-204.601
 11
-85.1754
 21
-205.455
  0
LINE
  8
0
 10
-85.1754
 20
-205.455
 11
-84.485
 21
-205.268
  0
LINE
  8
0
 10
-84.485
 20
-205.268
 11
-83.8112
 21
-205.077
  0
LINE
  8
0
 10
-83.8112
 20
-205.077
 11
-83.1539
 21
-204.883
  0
LINE
  8
0
 10
-83.1539
 20
-204.883
 11
-82.3556
 21
-204.634
  0
LINE
  8
0
 10
-82.3556
 20
-204.634
 11
-81.5831
 21
-204.381
  0
LINE
  8
0
 10
-81.5831
 20
-204.381
 11
-80.8364
 21
-204.124
  0
LINE
  8
0
 10
-80.8364
 20
-204.124
 11
-80.1155
 21
-203.864
  0
LINE
  8
0
 10
-80.1155
 20
-203.864
 11
-79.5573
 21
-203.654
  0
LINE
  8
0
 10
-79.5573
 20
-203.654
 11
-79.5472
 21
-203.644
  0
LINE
  8
0
 10
-79.5472
 20
-203.644
 11
-78.7074
 21
-204.438
  0
LINE
  8
0
 10
-78.7074
 20
-204.438
 11
-78.7174
 21
-204.449
  0
LINE
  8
0
 10
-78.7174
 20
-204.449
 11
-78.9403
 21
-205.162
  0
LINE
  8
0
 10
-78.9403
 20
-205.162
 11
-79.159
 21
-205.902
  0
LINE
  8
0
 10
-79.159
 20
-205.902
 11
-79.373
 21
-206.667
  0
LINE
  8
0
 10
-79.373
 20
-206.667
 11
-79.5814
 21
-207.457
  0
LINE
  8
0
 10
-79.5814
 20
-207.457
 11
-79.7436
 21
-208.108
  0
LINE
  8
0
 10
-79.7436
 20
-208.108
 11
-79.9015
 21
-208.775
  0
LINE
  8
0
 10
-79.9015
 20
-208.775
 11
-80.0547
 21
-209.459
  0
LINE
  8
0
 10
-80.0547
 20
-209.459
 11
-80.2028
 21
-210.158
  0
LINE
  8
0
 10
-80.2028
 20
-210.158
 11
-79.3027
 21
-210.954
  0
LINE
  8
0
 10
-79.3027
 20
-210.954
 11
-78.6263
 21
-210.722
  0
LINE
  8
0
 10
-78.6263
 20
-210.722
 11
-77.9667
 21
-210.486
  0
LINE
  8
0
 10
-77.9667
 20
-210.486
 11
-77.3239
 21
-210.248
  0
LINE
  8
0
 10
-77.3239
 20
-210.248
 11
-76.544
 21
-209.947
  0
LINE
  8
0
 10
-76.544
 20
-209.947
 11
-75.7901
 21
-209.643
  0
LINE
  8
0
 10
-75.7901
 20
-209.643
 11
-75.0623
 21
-209.337
  0
LINE
  8
0
 10
-75.0623
 20
-209.337
 11
-74.3604
 21
-209.029
  0
LINE
  8
0
 10
-74.3604
 20
-209.029
 11
-73.8174
 21
-208.782
  0
LINE
  8
0
 10
-73.8174
 20
-208.782
 11
-73.808
 21
-208.771
  0
LINE
  8
0
 10
-73.808
 20
-208.771
 11
-72.9171
 21
-209.507
  0
LINE
  8
0
 10
-72.9171
 20
-209.507
 11
-72.9263
 21
-209.519
  0
LINE
  8
0
 10
-72.9263
 20
-209.519
 11
-73.101
 21
-210.246
  0
LINE
  8
0
 10
-73.101
 20
-210.246
 11
-73.2699
 21
-210.998
  0
LINE
  8
0
 10
-73.2699
 20
-210.998
 11
-73.4323
 21
-211.776
  0
LINE
  8
0
 10
-73.4323
 20
-211.776
 11
-73.5874
 21
-212.578
  0
LINE
  8
0
 10
-73.5874
 20
-212.578
 11
-73.7059
 21
-213.238
  0
LINE
  8
0
 10
-73.7059
 20
-213.238
 11
-73.8189
 21
-213.915
  0
LINE
  8
0
 10
-73.8189
 20
-213.915
 11
-73.926
 21
-214.607
  0
LINE
  8
0
 10
-73.926
 20
-214.607
 11
-74.027
 21
-215.315
  0
LINE
  8
0
 10
-74.027
 20
-215.315
 11
-73.0758
 21
-216.049
  0
LINE
  8
0
 10
-73.0758
 20
-216.049
 11
-72.4165
 21
-215.772
  0
LINE
  8
0
 10
-72.4165
 20
-215.772
 11
-71.7741
 21
-215.493
  0
LINE
  8
0
 10
-71.7741
 20
-215.493
 11
-71.1486
 21
-215.212
  0
LINE
  8
0
 10
-71.1486
 20
-215.212
 11
-70.3905
 21
-214.859
  0
LINE
  8
0
 10
-70.3905
 20
-214.859
 11
-69.6587
 21
-214.506
  0
LINE
  8
0
 10
-69.6587
 20
-214.506
 11
-68.9529
 21
-214.152
  0
LINE
  8
0
 10
-68.9529
 20
-214.152
 11
-68.2731
 21
-213.798
  0
LINE
  8
0
 10
-68.2731
 20
-213.798
 11
-67.7478
 21
-213.515
  0
LINE
  8
0
 10
-67.7478
 20
-213.515
 11
-67.7392
 21
-213.503
  0
LINE
  8
0
 10
-67.7392
 20
-213.503
 11
-66.8011
 21
-214.179
  0
LINE
  8
0
 10
-66.8011
 20
-214.179
 11
-66.8096
 21
-214.19
  0
LINE
  8
0
 10
-66.8096
 20
-214.19
 11
-66.9353
 21
-214.928
  0
LINE
  8
0
 10
-66.9353
 20
-214.928
 11
-67.0536
 21
-215.69
  0
LINE
  8
0
 10
-67.0536
 20
-215.69
 11
-67.1636
 21
-216.476
  0
LINE
  8
0
 10
-67.1636
 20
-216.476
 11
-67.2648
 21
-217.287
  0
LINE
  8
0
 10
-67.2648
 20
-217.287
 11
-67.3389
 21
-217.954
  0
LINE
  8
0
 10
-67.3389
 20
-217.954
 11
-67.4065
 21
-218.636
  0
LINE
  8
0
 10
-67.4065
 20
-218.636
 11
-67.4672
 21
-219.334
  0
LINE
  8
0
 10
-67.4672
 20
-219.334
 11
-67.5207
 21
-220.047
  0
LINE
  8
0
 10
-67.5207
 20
-220.047
 11
-66.5226
 21
-220.716
  0
LINE
  8
0
 10
-66.5226
 20
-220.716
 11
-65.8832
 21
-220.396
  0
LINE
  8
0
 10
-65.8832
 20
-220.396
 11
-65.2609
 21
-220.074
  0
LINE
  8
0
 10
-65.2609
 20
-220.074
 11
-64.6556
 21
-219.752
  0
LINE
  8
0
 10
-64.6556
 20
-219.752
 11
-63.9227
 21
-219.35
  0
LINE
  8
0
 10
-63.9227
 20
-219.35
 11
-63.2161
 21
-218.948
  0
LINE
  8
0
 10
-63.2161
 20
-218.948
 11
-62.5356
 21
-218.548
  0
LINE
  8
0
 10
-62.5356
 20
-218.548
 11
-61.8809
 21
-218.149
  0
LINE
  8
0
 10
-61.8809
 20
-218.149
 11
-61.3757
 21
-217.832
  0
LINE
  8
0
 10
-61.3757
 20
-217.832
 11
-61.3679
 21
-217.82
  0
LINE
  8
0
 10
-61.3679
 20
-217.82
 11
-60.3868
 21
-218.431
  0
LINE
  8
0
 10
-60.3868
 20
-218.431
 11
-60.3945
 21
-218.443
  0
LINE
  8
0
 10
-60.3945
 20
-218.443
 11
-60.4707
 21
-219.187
  0
LINE
  8
0
 10
-60.4707
 20
-219.187
 11
-60.5378
 21
-219.955
  0
LINE
  8
0
 10
-60.5378
 20
-219.955
 11
-60.595
 21
-220.748
  0
LINE
  8
0
 10
-60.595
 20
-220.748
 11
-60.6418
 21
-221.564
  0
LINE
  8
0
 10
-60.6418
 20
-221.564
 11
-60.6712
 21
-222.234
  0
LINE
  8
0
 10
-60.6712
 20
-222.234
 11
-60.6931
 21
-222.919
  0
LINE
  8
0
 10
-60.6931
 20
-222.919
 11
-60.707
 21
-223.619
  0
LINE
  8
0
 10
-60.707
 20
-223.619
 11
-60.7128
 21
-224.335
  0
LINE
  8
0
 10
-60.7128
 20
-224.335
 11
-59.6722
 21
-224.935
  0
LINE
  8
0
 10
-59.6722
 20
-224.935
 11
-59.0557
 21
-224.573
  0
LINE
  8
0
 10
-59.0557
 20
-224.573
 11
-58.4562
 21
-224.21
  0
LINE
  8
0
 10
-58.4562
 20
-224.21
 11
-57.8738
 21
-223.849
  0
LINE
  8
0
 10
-57.8738
 20
-223.849
 11
-57.1694
 21
-223.399
  0
LINE
  8
0
 10
-57.1694
 20
-223.399
 11
-56.4912
 21
-222.951
  0
LINE
  8
0
 10
-56.4912
 20
-222.951
 11
-55.839
 21
-222.505
  0
LINE
  8
0
 10
-55.839
 20
-222.505
 11
-55.2124
 21
-222.064
  0
LINE
  8
0
 10
-55.2124
 20
-222.064
 11
-54.7295
 21
-221.714
  0
LINE
  8
0
 10
-54.7295
 20
-221.714
 11
-54.7225
 21
-221.701
  0
LINE
  8
0
 10
-54.7225
 20
-221.701
 11
-53.7028
 21
-222.245
  0
LINE
  8
0
 10
-53.7028
 20
-222.245
 11
-53.7096
 21
-222.258
  0
LINE
  8
0
 10
-53.7096
 20
-222.258
 11
-53.7359
 21
-223.006
  0
LINE
  8
0
 10
-53.7359
 20
-223.006
 11
-53.7516
 21
-223.777
  0
LINE
  8
0
 10
-53.7516
 20
-223.777
 11
-53.7558
 21
-224.571
  0
LINE
  8
0
 10
-53.7558
 20
-224.571
 11
-53.748
 21
-225.388
  0
LINE
  8
0
 10
-53.748
 20
-225.388
 11
-53.7325
 21
-226.059
  0
LINE
  8
0
 10
-53.7325
 20
-226.059
 11
-53.7086
 21
-226.744
  0
LINE
  8
0
 10
-53.7086
 20
-226.744
 11
-53.6758
 21
-227.444
  0
LINE
  8
0
 10
-53.6758
 20
-227.444
 11
-53.6337
 21
-228.158
  0
LINE
  8
0
 10
-53.6337
 20
-228.158
 11
-52.5553
 21
-228.687
  0
LINE
  8
0
 10
-52.5553
 20
-228.687
 11
-51.9644
 21
-228.285
  0
LINE
  8
0
 10
-51.9644
 20
-228.285
 11
-51.3905
 21
-227.883
  0
LINE
  8
0
 10
-51.3905
 20
-227.883
 11
-50.8335
 21
-227.483
  0
LINE
  8
0
 10
-50.8335
 20
-227.483
 11
-50.1608
 21
-226.987
  0
LINE
  8
0
 10
-50.1608
 20
-226.987
 11
-49.514
 21
-226.495
  0
LINE
  8
0
 10
-49.514
 20
-226.495
 11
-48.8929
 21
-226.007
  0
LINE
  8
0
 10
-48.8929
 20
-226.007
 11
-48.2972
 21
-225.525
  0
LINE
  8
0
 10
-48.2972
 20
-225.525
 11
-47.8388
 21
-225.143
  0
LINE
  8
0
 10
-47.8388
 20
-225.143
 11
-47.8327
 21
-225.13
  0
LINE
  8
0
 10
-47.8327
 20
-225.13
 11
-46.7789
 21
-225.605
  0
LINE
  8
0
 10
-46.7789
 20
-225.605
 11
-46.7848
 21
-225.618
  0
LINE
  8
0
 10
-46.7848
 20
-225.618
 11
-46.7612
 21
-226.366
  0
LINE
  8
0
 10
-46.7612
 20
-226.366
 11
-46.7253
 21
-227.136
  0
LINE
  8
0
 10
-46.7253
 20
-227.136
 11
-46.6765
 21
-227.929
  0
LINE
  8
0
 10
-46.6765
 20
-227.929
 11
-46.6141
 21
-228.744
  0
LINE
  8
0
 10
-46.6141
 20
-228.744
 11
-46.5539
 21
-229.412
  0
LINE
  8
0
 10
-46.5539
 20
-229.412
 11
-46.4842
 21
-230.094
  0
LINE
  8
0
 10
-46.4842
 20
-230.094
 11
-46.4047
 21
-230.79
  0
LINE
  8
0
 10
-46.4047
 20
-230.79
 11
-46.3151
 21
-231.499
  0
LINE
  8
0
 10
-46.3151
 20
-231.499
 11
-45.2037
 21
-231.956
  0
LINE
  8
0
 10
-45.2037
 20
-231.956
 11
-44.641
 21
-231.514
  0
LINE
  8
0
 10
-44.641
 20
-231.514
 11
-44.0952
 21
-231.076
  0
LINE
  8
0
 10
-44.0952
 20
-231.076
 11
-43.5661
 21
-230.64
  0
LINE
  8
0
 10
-43.5661
 20
-230.64
 11
-42.9281
 21
-230.099
  0
LINE
  8
0
 10
-42.9281
 20
-230.099
 11
-42.3157
 21
-229.565
  0
LINE
  8
0
 10
-42.3157
 20
-229.565
 11
-41.7285
 21
-229.037
  0
LINE
  8
0
 10
-41.7285
 20
-229.037
 11
-41.1664
 21
-228.516
  0
LINE
  8
0
 10
-41.1664
 20
-228.516
 11
-40.7344
 21
-228.105
  0
LINE
  8
0
 10
-40.7344
 20
-228.105
 11
-40.7293
 21
-228.091
  0
LINE
  8
0
 10
-40.7293
 20
-228.091
 11
-39.6461
 21
-228.494
  0
LINE
  8
0
 10
-39.6461
 20
-228.494
 11
-39.6511
 21
-228.508
  0
LINE
  8
0
 10
-39.6511
 20
-228.508
 11
-39.5776
 21
-229.252
  0
LINE
  8
0
 10
-39.5776
 20
-229.252
 11
-39.4903
 21
-230.018
  0
LINE
  8
0
 10
-39.4903
 20
-230.018
 11
-39.3887
 21
-230.806
  0
LINE
  8
0
 10
-39.3887
 20
-230.806
 11
-39.272
 21
-231.615
  0
LINE
  8
0
 10
-39.272
 20
-231.615
 11
-39.1673
 21
-232.278
  0
LINE
  8
0
 10
-39.1673
 20
-232.278
 11
-39.0522
 21
-232.954
  0
LINE
  8
0
 10
-39.0522
 20
-232.954
 11
-38.9265
 21
-233.643
  0
LINE
  8
0
 10
-38.9265
 20
-233.643
 11
-38.7896
 21
-234.345
  0
LINE
  8
0
 10
-38.7896
 20
-234.345
 11
-37.6502
 21
-234.726
  0
LINE
  8
0
 10
-37.6502
 20
-234.726
 11
-37.1183
 21
-234.248
  0
LINE
  8
0
 10
-37.1183
 20
-234.248
 11
-36.603
 21
-233.774
  0
LINE
  8
0
 10
-36.603
 20
-233.774
 11
-36.1042
 21
-233.303
  0
LINE
  8
0
 10
-36.1042
 20
-233.303
 11
-35.5037
 21
-232.722
  0
LINE
  8
0
 10
-35.5037
 20
-232.722
 11
-34.9283
 21
-232.147
  0
LINE
  8
0
 10
-34.9283
 20
-232.147
 11
-34.3778
 21
-231.581
  0
LINE
  8
0
 10
-34.3778
 20
-231.581
 11
-33.8517
 21
-231.024
  0
LINE
  8
0
 10
-33.8517
 20
-231.024
 11
-33.4482
 21
-230.585
  0
LINE
  8
0
 10
-33.4482
 20
-230.585
 11
-33.4439
 21
-230.571
  0
LINE
  8
0
 10
-33.4439
 20
-230.571
 11
-32.3362
 21
-230.901
  0
LINE
  8
0
 10
-32.3362
 20
-230.901
 11
-32.3403
 21
-230.915
  0
LINE
  8
0
 10
-32.3403
 20
-230.915
 11
-32.2172
 21
-231.653
  0
LINE
  8
0
 10
-32.2172
 20
-231.653
 11
-32.079
 21
-232.411
  0
LINE
  8
0
 10
-32.079
 20
-232.411
 11
-31.925
 21
-233.19
  0
LINE
  8
0
 10
-31.925
 20
-233.19
 11
-31.7545
 21
-233.99
  0
LINE
  8
0
 10
-31.7545
 20
-233.99
 11
-31.6058
 21
-234.644
  0
LINE
  8
0
 10
-31.6058
 20
-234.644
 11
-31.4458
 21
-235.311
  0
LINE
  8
0
 10
-31.4458
 20
-235.311
 11
-31.2743
 21
-235.99
  0
LINE
  8
0
 10
-31.2743
 20
-235.99
 11
-31.0909
 21
-236.681
  0
LINE
  8
0
 10
-31.0909
 20
-236.681
 11
-29.9286
 21
-236.985
  0
LINE
  8
0
 10
-29.9286
 20
-236.985
 11
-29.4297
 21
-236.473
  0
LINE
  8
0
 10
-29.4297
 20
-236.473
 11
-28.9473
 21
-235.965
  0
LINE
  8
0
 10
-28.9473
 20
-235.965
 11
-28.481
 21
-235.463
  0
LINE
  8
0
 10
-28.481
 20
-235.463
 11
-27.9207
 21
-234.842
  0
LINE
  8
0
 10
-27.9207
 20
-234.842
 11
-27.385
 21
-234.231
  0
LINE
  8
0
 10
-27.385
 20
-234.231
 11
-26.8735
 21
-233.629
  0
LINE
  8
0
 10
-26.8735
 20
-233.629
 11
-26.3858
 21
-233.038
  0
LINE
  8
0
 10
-26.3858
 20
-233.038
 11
-26.0125
 21
-232.573
  0
LINE
  8
0
 10
-26.0125
 20
-232.573
 11
-26.0092
 21
-232.559
  0
LINE
  8
0
 10
-26.0092
 20
-232.559
 11
-24.8819
 21
-232.814
  0
LINE
  8
0
 10
-24.8819
 20
-232.814
 11
-24.8851
 21
-232.828
  0
LINE
  8
0
 10
-24.8851
 20
-232.828
 11
-24.713
 21
-233.556
  0
LINE
  8
0
 10
-24.713
 20
-233.556
 11
-24.5244
 21
-234.304
  0
LINE
  8
0
 10
-24.5244
 20
-234.304
 11
-24.3187
 21
-235.071
  0
LINE
  8
0
 10
-24.3187
 20
-235.071
 11
-24.0951
 21
-235.857
  0
LINE
  8
0
 10
-24.0951
 20
-235.857
 11
-23.9031
 21
-236.5
  0
LINE
  8
0
 10
-23.9031
 20
-236.5
 11
-23.699
 21
-237.154
  0
LINE
  8
0
 10
-23.699
 20
-237.154
 11
-23.4825
 21
-237.82
  0
LINE
  8
0
 10
-23.4825
 20
-237.82
 11
-23.2533
 21
-238.498
  0
LINE
  8
0
 10
-23.2533
 20
-238.498
 11
-22.0732
 21
-238.724
  0
LINE
  8
0
 10
-22.0732
 20
-238.724
 11
-21.6097
 21
-238.179
  0
LINE
  8
0
 10
-21.6097
 20
-238.179
 11
-21.1623
 21
-237.64
  0
LINE
  8
0
 10
-21.1623
 20
-237.64
 11
-20.7307
 21
-237.108
  0
LINE
  8
0
 10
-20.7307
 20
-237.108
 11
-20.213
 21
-236.451
  0
LINE
  8
0
 10
-20.213
 20
-236.451
 11
-19.7193
 21
-235.806
  0
LINE
  8
0
 10
-19.7193
 20
-235.806
 11
-19.2491
 21
-235.171
  0
LINE
  8
0
 10
-19.2491
 20
-235.171
 11
-18.802
 21
-234.549
  0
LINE
  8
0
 10
-18.802
 20
-234.549
 11
-18.4606
 21
-234.06
  0
LINE
  8
0
 10
-18.4606
 20
-234.06
 11
-18.4583
 21
-234.045
  0
LINE
  8
0
 10
-18.4583
 20
-234.045
 11
-17.3165
 21
-234.225
  0
LINE
  8
0
 10
-17.3165
 20
-234.225
 11
-17.3187
 21
-234.239
  0
LINE
  8
0
 10
-17.3187
 20
-234.239
 11
-17.0984
 21
-234.954
  0
LINE
  8
0
 10
-17.0984
 20
-234.954
 11
-16.8603
 21
-235.687
  0
LINE
  8
0
 10
-16.8603
 20
-235.687
 11
-16.6037
 21
-236.439
  0
LINE
  8
0
 10
-16.6037
 20
-236.439
 11
-16.3282
 21
-237.209
  0
LINE
  8
0
 10
-16.3282
 20
-237.209
 11
-16.0937
 21
-237.837
  0
LINE
  8
0
 10
-16.0937
 20
-237.837
 11
-15.8463
 21
-238.476
  0
LINE
  8
0
 10
-15.8463
 20
-238.476
 11
-15.5858
 21
-239.126
  0
LINE
  8
0
 10
-15.5858
 20
-239.126
 11
-15.3119
 21
-239.787
  0
LINE
  8
0
 10
-15.3119
 20
-239.787
 11
-14.1193
 21
-239.934
  0
LINE
  8
0
 10
-14.1193
 20
-239.934
 11
-13.6933
 21
-239.36
  0
LINE
  8
0
 10
-13.6933
 20
-239.36
 11
-13.2828
 21
-238.792
  0
LINE
  8
0
 10
-13.2828
 20
-238.792
 11
-12.8877
 21
-238.232
  0
LINE
  8
0
 10
-12.8877
 20
-238.232
 11
-12.415
 21
-237.542
  0
LINE
  8
0
 10
-12.415
 20
-237.542
 11
-11.9656
 21
-236.865
  0
LINE
  8
0
 10
-11.9656
 20
-236.865
 11
-11.5388
 21
-236.201
  0
LINE
  8
0
 10
-11.5388
 20
-236.201
 11
-11.1343
 21
-235.55
  0
LINE
  8
0
 10
-11.1343
 20
-235.55
 11
-10.8263
 21
-235.039
  0
LINE
  8
0
 10
-10.8263
 20
-235.039
 11
-10.825
 21
-235.024
  0
LINE
  8
0
 10
-10.825
 20
-235.024
 11
-9.67371
 21
-235.127
  0
LINE
  8
0
 10
-9.67371
 20
-235.127
 11
-9.67493
 21
-235.142
  0
LINE
  8
0
 10
-9.67493
 20
-235.142
 11
-9.40739
 21
-235.84
  0
LINE
  8
0
 10
-9.40739
 20
-235.84
 11
-9.12083
 21
-236.556
  0
LINE
  8
0
 10
-9.12083
 20
-236.556
 11
-8.81468
 21
-237.289
  0
LINE
  8
0
 10
-8.81468
 20
-237.289
 11
-8.48836
 21
-238.038
  0
LINE
  8
0
 10
-8.48836
 20
-238.038
 11
-8.21237
 21
-238.65
  0
LINE
  8
0
 10
-8.21237
 20
-238.65
 11
-7.92288
 21
-239.271
  0
LINE
  8
0
 10
-7.92288
 20
-239.271
 11
-7.61952
 21
-239.902
  0
LINE
  8
0
 10
-7.61952
 20
-239.902
 11
-7.30205
 21
-240.543
  0
LINE
  8
0
 10
-7.30205
 20
-240.543
 11
-6.10237
 21
-240.61
  0
LINE
  8
0
 10
-6.10237
 20
-240.61
 11
-5.71562
 21
-240.008
  0
LINE
  8
0
 10
-5.71562
 20
-240.008
 11
-5.34396
 21
-239.415
  0
LINE
  8
0
 10
-5.34396
 20
-239.415
 11
-4.98717
 21
-238.829
  0
LINE
  8
0
 10
-4.98717
 20
-238.829
 11
-4.56165
 21
-238.11
  0
LINE
  8
0
 10
-4.56165
 20
-238.11
 11
-4.15843
 21
-237.404
  0
LINE
  8
0
 10
-4.15843
 20
-237.404
 11
-3.77702
 21
-236.713
  0
LINE
  8
0
 10
-3.77702
 20
-236.713
 11
-3.41687
 21
-236.036
  0
LINE
  8
0
 10
-3.41687
 20
-236.036
 11
-3.14369
 21
-235.506
  0
LINE
  8
0
 10
-3.14369
 20
-235.506
 11
-3.1433
 21
-235.491
  0
LINE
  8
0
 10
-3.1433
 20
-235.491
 11
-1.98775
 21
-235.517
  0
LINE
  8
0
 10
-1.98775
 20
-235.517
 11
-1.98799
 21
-235.532
  0
LINE
  8
0
 10
-1.98799
 20
-235.532
 11
-1.67439
 21
-236.211
  0
LINE
  8
0
 10
-1.67439
 20
-236.211
 11
-1.34065
 21
-236.906
  0
LINE
  8
0
 10
-1.34065
 20
-236.906
 11
-0.986237
 21
-237.617
  0
LINE
  8
0
 10
-0.986237
 20
-237.617
 11
-0.61058
 21
-238.343
  0
LINE
  8
0
 10
-0.61058
 20
-238.343
 11
-0.294388
 21
-238.934
  0
LINE
  8
0
 10
-0.294388
 20
-238.934
 11
0.0359497
 21
-239.535
  0
LINE
  8
0
 10
0.0359497
 20
-239.535
 11
0.380798
 21
-240.144
  0
LINE
  8
0
 10
0.380798
 20
-240.144
 11
0.740372
 21
-240.763
  0
LINE
  8
0
 10
0.740372
 20
-240.763
 11
1.94183
 21
-240.749
  0
LINE
  8
0
 10
-11.7605
 20
-29.8205
 11
-12.013
 21
-29.7528
  0
LINE
  8
0
 10
-12.013
 20
-29.7528
 11
-12.25
 21
-29.6423
  0
LINE
  8
0
 10
-12.25
 20
-29.6423
 11
-12.4642
 21
-29.4923
  0
LINE
  8
0
 10
-12.4642
 20
-29.4923
 11
-12.6491
 21
-29.3074
  0
LINE
  8
0
 10
-12.6491
 20
-29.3074
 11
-12.799
 21
-29.0932
  0
LINE
  8
0
 10
-12.799
 20
-29.0932
 11
-12.9095
 21
-28.8563
  0
LINE
  8
0
 10
-12.9095
 20
-28.8563
 11
-12.9772
 21
-28.6037
  0
LINE
  8
0
 10
-12.9772
 20
-28.6037
 11
-13
 21
-28.3432
  0
LINE
  8
0
 10
-13
 20
-28.3432
 11
-12.9772
 21
-28.0828
  0
LINE
  8
0
 10
-12.9772
 20
-28.0828
 11
-12.9095
 21
-27.8302
  0
LINE
  8
0
 10
-12.9095
 20
-27.8302
 11
-12.799
 21
-27.5932
  0
LINE
  8
0
 10
-12.799
 20
-27.5932
 11
-12.6491
 21
-27.3791
  0
LINE
  8
0
 10
-12.6491
 20
-27.3791
 11
-12.4642
 21
-27.1942
  0
LINE
  8
0
 10
-12.4642
 20
-27.1942
 11
-12.25
 21
-27.0442
  0
LINE
  8
0
 10
-12.25
 20
-27.0442
 11
-12.013
 21
-26.9337
  0
LINE
  8
0
 10
-12.013
 20
-26.9337
 11
-11.7605
 21
-26.866
  0
LINE
  8
0
 10
-11.7605
 20
-26.866
 11
-11.5
 21
-26.8432
  0
LINE
  8
0
 10
-11.5
 20
-26.8432
 11
-11.2395
 21
-26.866
  0
LINE
  8
0
 10
-11.2395
 20
-26.866
 11
-10.987
 21
-26.9337
  0
LINE
  8
0
 10
-10.987
 20
-26.9337
 11
-10.75
 21
-27.0442
  0
LINE
  8
0
 10
-10.75
 20
-27.0442
 11
-10.5358
 21
-27.1942
  0
LINE
  8
0
 10
-10.5358
 20
-27.1942
 11
-10.3509
 21
-27.3791
  0
LINE
  8
0
 10
-10.3509
 20
-27.3791
 11
-10.201
 21
-27.5932
  0
LINE
  8
0
 10
-10.201
 20
-27.5932
 11
-10.0905
 21
-27.8302
  0
LINE
  8
0
 10
-10.0905
 20
-27.8302
 11
-10.0228
 21
-28.0828
  0
LINE
  8
0
 10
-10.0228
 20
-28.0828
 11
-10
 21
-28.3432
  0
LINE
  8
0
 10
-10
 20
-28.3432
 11
-10.0228
 21
-28.6037
  0
LINE
  8
0
 10
-10.0228
 20
-28.6037
 11
-10.0905
 21
-28.8563
  0
LINE
  8
0
 10
-10.0905
 20
-28.8563
 11
-10.201
 21
-29.0932
  0
LINE
  8
0
 10
-10.201
 20
-29.0932
 11
-10.3509
 21
-29.3074
  0
LINE
  8
0
 10
-10.3509
 20
-29.3074
 11
-10.5358
 21
-29.4923
  0
LINE
  8
0
 10
-10.5358
 20
-29.4923
 11
-10.75
 21
-29.6423
  0
LINE
  8
0
 10
-10.75
 20
-29.6423
 11
-10.987
 21
-29.7528
  0
LINE
  8
0
 10
-10.987
 20
-29.7528
 11
-11.2395
 21
-29.8205
  0
LINE
  8
0
 10
-11.2395
 20
-29.8205
 11
-11.5
 21
-29.8432
  0
LINE
  8
0
 10
-11.5
 20
-29.8432
 11
-11.7605
 21
-29.8205
  0
LINE
  8
0
 10
11.2395
 20
-29.8205
 11
10.987
 21
-29.7528
  0
LINE
  8
0
 10
10.987
 20
-29.7528
 11
10.75
 21
-29.6423
  0
LINE
  8
0
 10
10.75
 20
-29.6423
 11
10.5358
 21
-29.4923
  0
LINE
  8
0
 10
10.5358
 20
-29.4923
 11
10.3509
 21
-29.3074
  0
LINE
  8
0
 10
10.3509
 20
-29.3074
 11
10.201
 21
-29.0932
  0
LINE
  8
0
 10
10.201
 20
-29.0932
 11
10.0905
 21
-28.8563
  0
LINE
  8
0
 10
10.0905
 20
-28.8563
 11
10.0228
 21
-28.6037
  0
LINE
  8
0
 10
10.0228
 20
-28.6037
 11
10
 21
-28.3432
  0
LINE
  8
0
 10
10
 20
-28.3432
 11
10.0228
 21
-28.0828
  0
LINE
  8
0
 10
10.0228
 20
-28.0828
 11
10.0905
 21
-27.8302
  0
LINE
  8
0
 10
10.0905
 20
-27.8302
 11
10.201
 21
-27.5932
  0
LINE
  8
0
 10
10.201
 20
-27.5932
 11
10.3509
 21
-27.3791
  0
LINE
  8
0
 10
10.3509
 20
-27.3791
 11
10.5358
 21
-27.1942
  0
LINE
  8
0
 10
10.5358
 20
-27.1942
 11
10.75
 21
-27.0442
  0
LINE
  8
0
 10
10.75
 20
-27.0442
 11
10.987
 21
-26.9337
  0
LINE
  8
0
 10
10.987
 20
-26.9337
 11
11.2395
 21
-26.866
  0
LINE
  8
0
 10
11.2395
 20
-26.866
 11
11.5
 21
-26.8432
  0
LINE
  8
0
 10
11.5
 20
-26.8432
 11
11.7605
 21
-26.866
  0
LINE
  8
0
 10
11.7605
 20
-26.866
 11
12.013
 21
-26.9337
  0
LINE
  8
0
 10
12.013
 20
-26.9337
 11
12.25
 21
-27.0442
  0
LINE
  8
0
 10
12.25
 20
-27.0442
 11
12.4642
 21
-27.1942
  0
LINE
  8
0
 10
12.4642
 20
-27.1942
 11
12.6491
 21
-27.3791
  0
LINE
  8
0
 10
12.6491
 20
-27.3791
 11
12.799
 21
-27.5932
  0
LINE
  8
0
 10
12.799
 20
-27.5932
 11
12.9095
 21
-27.8302
  0
LINE
  8
0
 10
12.9095
 20
-27.8302
 11
12.9772
 21
-28.0828
  0
LINE
  8
0
 10
12.9772
 20
-28.0828
 11
13
 21
-28.3432
  0
LINE
  8
0
 10
13
 20
-28.3432
 11
12.9772
 21
-28.6037
  0
LINE
  8
0
 10
12.9772
 20
-28.6037
 11
12.9095
 21
-28.8563
  0
LINE
  8
0
 10
12.9095
 20
-28.8563
 11
12.799
 21
-29.0932
  0
LINE
  8
0
 10
12.799
 20
-29.0932
 11
12.6491
 21
-29.3074
  0
LINE
  8
0
 10
12.6491
 20
-29.3074
 11
12.4642
 21
-29.4923
  0
LINE
  8
0
 10
12.4642
 20
-29.4923
 11
12.25
 21
-29.6423
  0
LINE
  8
0
 10
12.25
 20
-29.6423
 11
12.013
 21
-29.7528
  0
LINE
  8
0
 10
12.013
 20
-29.7528
 11
11.7605
 21
-29.8205
  0
LINE
  8
0
 10
11.7605
 20
-29.8205
 11
11.5
 21
-29.8432
  0
LINE
  8
0
 10
11.5
 20
-29.8432
 11
11.2395
 21
-29.8205
  0
LINE
  8
0
 10
-25.2605
 20
-36.4155
 11
-25.513
 21
-36.3478
  0
LINE
  8
0
 10
-25.513
 20
-36.3478
 11
-25.75
 21
-36.2373
  0
LINE
  8
0
 10
-25.75
 20
-36.2373
 11
-25.9642
 21
-36.0873
  0
LINE
  8
0
 10
-25.9642
 20
-36.0873
 11
-26.1491
 21
-35.9024
  0
LINE
  8
0
 10
-26.1491
 20
-35.9024
 11
-26.299
 21
-35.6882
  0
LINE
  8
0
 10
-26.299
 20
-35.6882
 11
-26.4095
 21
-35.4513
  0
LINE
  8
0
 10
-26.4095
 20
-35.4513
 11
-26.4772
 21
-35.1987
  0
LINE
  8
0
 10
-26.4772
 20
-35.1987
 11
-26.5
 21
-34.9382
  0
LINE
  8
0
 10
-26.5
 20
-34.9382
 11
-26.4772
 21
-34.6778
  0
LINE
  8
0
 10
-26.4772
 20
-34.6778
 11
-26.4095
 21
-34.4252
  0
LINE
  8
0
 10
-26.4095
 20
-34.4252
 11
-26.299
 21
-34.1882
  0
LINE
  8
0
 10
-26.299
 20
-34.1882
 11
-26.1491
 21
-33.9741
  0
LINE
  8
0
 10
-26.1491
 20
-33.9741
 11
-25.9642
 21
-33.7892
  0
LINE
  8
0
 10
-25.9642
 20
-33.7892
 11
-25.75
 21
-33.6392
  0
LINE
  8
0
 10
-25.75
 20
-33.6392
 11
-25.513
 21
-33.5287
  0
LINE
  8
0
 10
-25.513
 20
-33.5287
 11
-25.2605
 21
-33.461
  0
LINE
  8
0
 10
-25.2605
 20
-33.461
 11
-25
 21
-33.4382
  0
LINE
  8
0
 10
-25
 20
-33.4382
 11
-24.7395
 21
-33.461
  0
LINE
  8
0
 10
-24.7395
 20
-33.461
 11
-24.487
 21
-33.5287
  0
LINE
  8
0
 10
-24.487
 20
-33.5287
 11
-24.25
 21
-33.6392
  0
LINE
  8
0
 10
-24.25
 20
-33.6392
 11
-24.0358
 21
-33.7892
  0
LINE
  8
0
 10
-24.0358
 20
-33.7892
 11
-23.8509
 21
-33.9741
  0
LINE
  8
0
 10
-23.8509
 20
-33.9741
 11
-23.701
 21
-34.1882
  0
LINE
  8
0
 10
-23.701
 20
-34.1882
 11
-23.5905
 21
-34.4252
  0
LINE
  8
0
 10
-23.5905
 20
-34.4252
 11
-23.5228
 21
-34.6778
  0
LINE
  8
0
 10
-23.5228
 20
-34.6778
 11
-23.5
 21
-34.9382
  0
LINE
  8
0
 10
-23.5
 20
-34.9382
 11
-23.5228
 21
-35.1987
  0
LINE
  8
0
 10
-23.5228
 20
-35.1987
 11
-23.5905
 21
-35.4513
  0
LINE
  8
0
 10
-23.5905
 20
-35.4513
 11
-23.701
 21
-35.6882
  0
LINE
  8
0
 10
-23.701
 20
-35.6882
 11
-23.8509
 21
-35.9024
  0
LINE
  8
0
 10
-23.8509
 20
-35.9024
 11
-24.0358
 21
-36.0873
  0
LINE
  8
0
 10
-24.0358
 20
-36.0873
 11
-24.25
 21
-36.2373
  0
LINE
  8
0
 10
-24.25
 20
-36.2373
 11
-24.487
 21
-36.3478
  0
LINE
  8
0
 10
-24.487
 20
-36.3478
 11
-24.7395
 21
-36.4155
  0
LINE
  8
0
 10
-24.7395
 20
-36.4155
 11
-25
 21
-36.4382
  0
LINE
  8
0
 10
-25
 20
-36.4382
 11
-25.2605
 21
-36.4155
  0
LINE
  8
0
 10
24.7395
 20
-36.4155
 11
24.487
 21
-36.3478
  0
LINE
  8
0
 10
24.487
 20
-36.3478
 11
24.25
 21
-36.2373
  0
LINE
  8
0
 10
24.25
 20
-36.2373
 11
24.0358
 21
-36.0873
  0
LINE
  8
0
 10
24.0358
 20
-36.0873
 11
23.8509
 21
-35.9024
  0
LINE
  8
0
 10
23.8509
 20
-35.9024
 11
23.701
 21
-35.6882
  0
LINE
  8
0
 10
23.701
 20
-35.6882
 11
23.5905
 21
-35.4513
  0
LINE
  8
0
 10
23.5905
 20
-35.4513
 11
23.5228
 21
-35.1987
  0
LINE
  8
0
 10
23.5228
 20
-35.1987
 11
23.5
 21
-34.9382
  0
LINE
  8
0
 10
23.5
 20
-34.9382
 11
23.5228
 21
-34.6778
  0
LINE
  8
0
 10
23.5228
 20
-34.6778
 11
23.5905
 21
-34.4252
  0
LINE
  8
0
 10
23.5905
 20
-34.4252
 11
23.701
 21
-34.1882
  0
LINE
  8
0
 10
23.701
 20
-34.1882
 11
23.8509
 21
-33.9741
  0
LINE
  8
0
 10
23.8509
 20
-33.9741
 11
24.0358
 21
-33.7892
  0
LINE
  8
0
 10
24.0358
 20
-33.7892
 11
24.25
 21
-33.6392
  0
LINE
  8
0
 10
24.25
 20
-33.6392
 11
24.487
 21
-33.5287
  0
LINE
  8
0
 10
24.487
 20
-33.5287
 11
24.7395
 21
-33.461
  0
LINE
  8
0
 10
24.7395
 20
-33.461
 11
25
 21
-33.4382
  0
LINE
  8
0
 10
25
 20
-33.4382
 11
25.2605
 21
-33.461
  0
LINE
  8
0
 10
25.2605
 20
-33.461
 11
25.513
 21
-33.5287
  0
LINE
  8
0
 10
25.513
 20
-33.5287
 11
25.75
 21
-33.6392
  0
LINE
  8
0
 10
25.75
 20
-33.6392
 11
25.9642
 21
-33.7892
  0
LINE
  8
0
 10
25.9642
 20
-33.7892
 11
26.1491
 21
-33.9741
  0
LINE
  8
0
 10
26.1491
 20
-33.9741
 11
26.299
 21
-34.1882
  0
LINE
  8
0
 10
26.299
 20
-34.1882
 11
26.4095
 21
-34.4252
  0
LINE
  8
0
 10
26.4095
 20
-34.4252
 11
26.4772
 21
-34.6778
  0
LINE
  8
0
 10
26.4772
 20
-34.6778
 11
26.5
 21
-34.9382
  0
LINE
  8
0
 10
26.5
 20
-34.9382
 11
26.4772
 21
-35.1987
  0
LINE
  8
0
 10
26.4772
 20
-35.1987
 11
26.4095
 21
-35.4513
  0
LINE
  8
0
 10
26.4095
 20
-35.4513
 11
26.299
 21
-35.6882
  0
LINE
  8
0
 10
26.299
 20
-35.6882
 11
26.1491
 21
-35.9024
  0
LINE
  8
0
 10
26.1491
 20
-35.9024
 11
25.9642
 21
-36.0873
  0
LINE
  8
0
 10
25.9642
 20
-36.0873
 11
25.75
 21
-36.2373
  0
LINE
  8
0
 10
25.75
 20
-36.2373
 11
25.513
 21
-36.3478
  0
LINE
  8
0
 10
25.513
 20
-36.3478
 11
25.2605
 21
-36.4155
  0
LINE
  8
0
 10
25.2605
 20
-36.4155
 11
25
 21
-36.4382
  0
LINE
  8
0
 10
25
 20
-36.4382
 11
24.7395
 21
-36.4155
  0
LINE
  8
0
 10
-11.7605
 20
-43.7905
 11
-12.013
 21
-43.7228
  0
LINE
  8
0
 10
-12.013
 20
-43.7228
 11
-12.25
 21
-43.6123
  0
LINE
  8
0
 10
-12.25
 20
-43.6123
 11
-12.4642
 21
-43.4623
  0
LINE
  8
0
 10
-12.4642
 20
-43.4623
 11
-12.6491
 21
-43.2774
  0
LINE
  8
0
 10
-12.6491
 20
-43.2774
 11
-12.799
 21
-43.0632
  0
LINE
  8
0
 10
-12.799
 20
-43.0632
 11
-12.9095
 21
-42.8263
  0
LINE
  8
0
 10
-12.9095
 20
-42.8263
 11
-12.9772
 21
-42.5737
  0
LINE
  8
0
 10
-12.9772
 20
-42.5737
 11
-13
 21
-42.3132
  0
LINE
  8
0
 10
-13
 20
-42.3132
 11
-12.9772
 21
-42.0528
  0
LINE
  8
0
 10
-12.9772
 20
-42.0528
 11
-12.9095
 21
-41.8002
  0
LINE
  8
0
 10
-12.9095
 20
-41.8002
 11
-12.799
 21
-41.5632
  0
LINE
  8
0
 10
-12.799
 20
-41.5632
 11
-12.6491
 21
-41.3491
  0
LINE
  8
0
 10
-12.6491
 20
-41.3491
 11
-12.4642
 21
-41.1642
  0
LINE
  8
0
 10
-12.4642
 20
-41.1642
 11
-12.25
 21
-41.0142
  0
LINE
  8
0
 10
-12.25
 20
-41.0142
 11
-12.013
 21
-40.9037
  0
LINE
  8
0
 10
-12.013
 20
-40.9037
 11
-11.7605
 21
-40.836
  0
LINE
  8
0
 10
-11.7605
 20
-40.836
 11
-11.5
 21
-40.8132
  0
LINE
  8
0
 10
-11.5
 20
-40.8132
 11
-11.2395
 21
-40.836
  0
LINE
  8
0
 10
-11.2395
 20
-40.836
 11
-10.987
 21
-40.9037
  0
LINE
  8
0
 10
-10.987
 20
-40.9037
 11
-10.75
 21
-41.0142
  0
LINE
  8
0
 10
-10.75
 20
-41.0142
 11
-10.5358
 21
-41.1642
  0
LINE
  8
0
 10
-10.5358
 20
-41.1642
 11
-10.3509
 21
-41.3491
  0
LINE
  8
0
 10
-10.3509
 20
-41.3491
 11
-10.201
 21
-41.5632
  0
LINE
  8
0
 10
-10.201
 20
-41.5632
 11
-10.0905
 21
-41.8002
  0
LINE
  8
0
 10
-10.0905
 20
-41.8002
 11
-10.0228
 21
-42.0528
  0
LINE
  8
0
 10
-10.0228
 20
-42.0528
 11
-10
 21
-42.3132
  0
LINE
  8
0
 10
-10
 20
-42.3132
 11
-10.0228
 21
-42.5737
  0
LINE
  8
0
 10
-10.0228
 20
-42.5737
 11
-10.0905
 21
-42.8263
  0
LINE
  8
0
 10
-10.0905
 20
-42.8263
 11
-10.201
 21
-43.0632
  0
LINE
  8
0
 10
-10.201
 20
-43.0632
 11
-10.3509
 21
-43.2774
  0
LINE
  8
0
 10
-10.3509
 20
-43.2774
 11
-10.5358
 21
-43.4623
  0
LINE
  8
0
 10
-10.5358
 20
-43.4623
 11
-10.75
 21
-43.6123
  0
LINE
  8
0
 10
-10.75
 20
-43.6123
 11
-10.987
 21
-43.7228
  0
LINE
  8
0
 10
-10.987
 20
-43.7228
 11
-11.2395
 21
-43.7905
  0
LINE
  8
0
 10
-11.2395
 20
-43.7905
 11
-11.5
 21
-43.8132
  0
LINE
  8
0
 10
-11.5
 20
-43.8132
 11
-11.7605
 21
-43.7905
  0
LINE
  8
0
 10
11.2395
 20
-43.7905
 11
10.987
 21
-43.7228
  0
LINE
  8
0
 10
10.987
 20
-43.7228
 11
10.75
 21
-43.6123
  0
LINE
  8
0
 10
10.75
 20
-43.6123
 11
10.5358
 21
-43.4623
  0
LINE
  8
0
 10
10.5358
 20
-43.4623
 11
10.3509
 21
-43.2774
  0
LINE
  8
0
 10
10.3509
 20
-43.2774
 11
10.201
 21
-43.0632
  0
LINE
  8
0
 10
10.201
 20
-43.0632
 11
10.0905
 21
-42.8263
  0
LINE
  8
0
 10
10.0905
 20
-42.8263
 11
10.0228
 21
-42.5737
  0
LINE
  8
0
 10
10.0228
 20
-42.5737
 11
10
 21
-42.3132
  0
LINE
  8
0
 10
10
 20
-42.3132
 11
10.0228
 21
-42.0528
  0
LINE
  8
0
 10
10.0228
 20
-42.0528
 11
10.0905
 21
-41.8002
  0
LINE
  8
0
 10
10.0905
 20
-41.8002
 11
10.201
 21
-41.5632
  0
LINE
  8
0
 10
10.201
 20
-41.5632
 11
10.3509
 21
-41.3491
  0
LINE
  8
0
 10
10.3509
 20
-41.3491
 11
10.5358
 21
-41.1642
  0
LINE
  8
0
 10
10.5358
 20
-41.1642
 11
10.75
 21
-41.0142
  0
LINE
  8
0
 10
10.75
 20
-41.0142
 11
10.987
 21
-40.9037
  0
LINE
  8
0
 10
10.987
 20
-40.9037
 11
11.2395
 21
-40.836
  0
LINE
  8
0
 10
11.2395
 20
-40.836
 11
11.5
 21
-40.8132
  0
LINE
  8
0
 10
11.5
 20
-40.8132
 11
11.7605
 21
-40.836
  0
LINE
  8
0
 10
11.7605
 20
-40.836
 11
12.013
 21
-40.9037
  0
LINE
  8
0
 10
12.013
 20
-40.9037
 11
12.25
 21
-41.0142
  0
LINE
  8
0
 10
12.25
 20
-41.0142
 11
12.4642
 21
-41.1642
  0
LINE
  8
0
 10
12.4642
 20
-41.1642
 11
12.6491
 21
-41.3491
  0
LINE
  8
0
 10
12.6491
 20
-41.3491
 11
12.799
 21
-41.5632
  0
LINE
  8
0
 10
12.799
 20
-41.5632
 11
12.9095
 21
-41.8002
  0
LINE
  8
0
 10
12.9095
 20
-41.8002
 11
12.9772
 21
-42.0528
  0
LINE
  8
0
 10
12.9772
 20
-42.0528
 11
13
 21
-42.3132
  0
LINE
  8
0
 10
13
 20
-42.3132
 11
12.9772
 21
-42.5737
  0
LINE
  8
0
 10
12.9772
 20
-42.5737
 11
12.9095
 21
-42.8263
  0
LINE
  8
0
 10
12.9095
 20
-42.8263
 11
12.799
 21
-43.0632
  0
LINE
  8
0
 10
12.799
 20
-43.0632
 11
12.6491
 21
-43.2774
  0
LINE
  8
0
 10
12.6491
 20
-43.2774
 11
12.4642
 21
-43.4623
  0
LINE
  8
0
 10
12.4642
 20
-43.4623
 11
12.25
 21
-43.6123
  0
LINE
  8
0
 10
12.25
 20
-43.6123
 11
12.013
 21
-43.7228
  0
LINE
  8
0
 10
12.013
 20
-43.7228
 11
11.7605
 21
-43.7905
  0
LINE
  8
0
 10
11.7605
 20
-43.7905
 11
11.5
 21
-43.8132
  0
LINE
  8
0
 10
11.5
 20
-43.8132
 11
11.2395
 21
-43.7905
  0
LINE
  8
0
 10
-64.4056
 20
-45.9155
 11
-64.6581
 21
-45.8478
  0
LINE
  8
0
 10
-64.6581
 20
-45.8478
 11
-64.8951
 21
-45.7373
  0
LINE
  8
0
 10
-64.8951
 20
-45.7373
 11
-65.1093
 21
-45.5873
  0
LINE
  8
0
 10
-65.1093
 20
-45.5873
 11
-65.2942
 21
-45.4024
  0
LINE
  8
0
 10
-65.2942
 20
-45.4024
 11
-65.4442
 21
-45.1882
  0
LINE
  8
0
 10
-65.4442
 20
-45.1882
 11
-65.5547
 21
-44.9513
  0
LINE
  8
0
 10
-65.5547
 20
-44.9513
 11
-65.6223
 21
-44.6987
  0
LINE
  8
0
 10
-65.6223
 20
-44.6987
 11
-65.6451
 21
-44.4382
  0
LINE
  8
0
 10
-65.6451
 20
-44.4382
 11
-65.6223
 21
-44.1778
  0
LINE
  8
0
 10
-65.6223
 20
-44.1778
 11
-65.5547
 21
-43.9252
  0
LINE
  8
0
 10
-65.5547
 20
-43.9252
 11
-65.4442
 21
-43.6882
  0
LINE
  8
0
 10
-65.4442
 20
-43.6882
 11
-65.2942
 21
-43.4741
  0
LINE
  8
0
 10
-65.2942
 20
-43.4741
 11
-65.1093
 21
-43.2892
  0
LINE
  8
0
 10
-65.1093
 20
-43.2892
 11
-64.8951
 21
-43.1392
  0
LINE
  8
0
 10
-64.8951
 20
-43.1392
 11
-64.6581
 21
-43.0287
  0
LINE
  8
0
 10
-64.6581
 20
-43.0287
 11
-64.4056
 21
-42.961
  0
LINE
  8
0
 10
-64.4056
 20
-42.961
 11
-64.1451
 21
-42.9382
  0
LINE
  8
0
 10
-64.1451
 20
-42.9382
 11
-63.8846
 21
-42.961
  0
LINE
  8
0
 10
-63.8846
 20
-42.961
 11
-63.6321
 21
-43.0287
  0
LINE
  8
0
 10
-63.6321
 20
-43.0287
 11
-63.3951
 21
-43.1392
  0
LINE
  8
0
 10
-63.3951
 20
-43.1392
 11
-63.1809
 21
-43.2892
  0
LINE
  8
0
 10
-63.1809
 20
-43.2892
 11
-62.996
 21
-43.4741
  0
LINE
  8
0
 10
-62.996
 20
-43.4741
 11
-62.8461
 21
-43.6882
  0
LINE
  8
0
 10
-62.8461
 20
-43.6882
 11
-62.7356
 21
-43.9252
  0
LINE
  8
0
 10
-62.7356
 20
-43.9252
 11
-62.6679
 21
-44.1778
  0
LINE
  8
0
 10
-62.6679
 20
-44.1778
 11
-62.6451
 21
-44.4382
  0
LINE
  8
0
 10
-62.6451
 20
-44.4382
 11
-62.6679
 21
-44.6987
  0
LINE
  8
0
 10
-62.6679
 20
-44.6987
 11
-62.7356
 21
-44.9513
  0
LINE
  8
0
 10
-62.7356
 20
-44.9513
 11
-62.8461
 21
-45.1882
  0
LINE
  8
0
 10
-62.8461
 20
-45.1882
 11
-62.996
 21
-45.4024
  0
LINE
  8
0
 10
-62.996
 20
-45.4024
 11
-63.1809
 21
-45.5873
  0
LINE
  8
0
 10
-63.1809
 20
-45.5873
 11
-63.3951
 21
-45.7373
  0
LINE
  8
0
 10
-63.3951
 20
-45.7373
 11
-63.6321
 21
-45.8478
  0
LINE
  8
0
 10
-63.6321
 20
-45.8478
 11
-63.8846
 21
-45.9155
  0
LINE
  8
0
 10
-63.8846
 20
-45.9155
 11
-64.1451
 21
-45.9382
  0
LINE
  8
0
 10
-64.1451
 20
-45.9382
 11
-64.4056
 21
-45.9155
  0
LINE
  8
0
 10
63.8846
 20
-45.9155
 11
63.6321
 21
-45.8478
  0
LINE
  8
0
 10
63.6321
 20
-45.8478
 11
63.3951
 21
-45.7373
  0
LINE
  8
0
 10
63.3951
 20
-45.7373
 11
63.1809
 21
-45.5873
  0
LINE
  8
0
 10
63.1809
 20
-45.5873
 11
62.996
 21
-45.4024
  0
LINE
  8
0
 10
62.996
 20
-45.4024
 11
62.8461
 21
-45.1882
  0
LINE
  8
0
 10
62.8461
 20
-45.1882
 11
62.7356
 21
-44.9513
  0
LINE
  8
0
 10
62.7356
 20
-44.9513
 11
62.6679
 21
-44.6987
  0
LINE
  8
0
 10
62.6679
 20
-44.6987
 11
62.6451
 21
-44.4382
  0
LINE
  8
0
 10
62.6451
 20
-44.4382
 11
62.6679
 21
-44.1778
  0
LINE
  8
0
 10
62.6679
 20
-44.1778
 11
62.7356
 21
-43.9252
  0
LINE
  8
0
 10
62.7356
 20
-43.9252
 11
62.8461
 21
-43.6882
  0
LINE
  8
0
 10
62.8461
 20
-43.6882
 11
62.996
 21
-43.4741
  0
LINE
  8
0
 10
62.996
 20
-43.4741
 11
63.1809
 21
-43.2892
  0
LINE
  8
0
 10
63.1809
 20
-43.2892
 11
63.3951
 21
-43.1392
  0
LINE
  8
0
 10
63.3951
 20
-43.1392
 11
63.6321
 21
-43.0287
  0
LINE
  8
0
 10
63.6321
 20
-43.0287
 11
63.8846
 21
-42.961
  0
LINE
  8
0
 10
63.8846
 20
-42.961
 11
64.1451
 21
-42.9382
  0
LINE
  8
0
 10
64.1451
 20
-42.9382
 11
64.4056
 21
-42.961
  0
LINE
  8
0
 10
64.4056
 20
-42.961
 11
64.6581
 21
-43.0287
  0
LINE
  8
0
 10
64.6581
 20
-43.0287
 11
64.8951
 21
-43.1392
  0
LINE
  8
0
 10
64.8951
 20
-43.1392
 11
65.1093
 21
-43.2892
  0
LINE
  8
0
 10
65.1093
 20
-43.2892
 11
65.2942
 21
-43.4741
  0
LINE
  8
0
 10
65.2942
 20
-43.4741
 11
65.4442
 21
-43.6882
  0
LINE
  8
0
 10
65.4442
 20
-43.6882
 11
65.5547
 21
-43.9252
  0
LINE
  8
0
 10
65.5547
 20
-43.9252
 11
65.6223
 21
-44.1778
  0
LINE
  8
0
 10
65.6223
 20
-44.1778
 11
65.6451
 21
-44.4382
  0
LINE
  8
0
 10
65.6451
 20
-44.4382
 11
65.6223
 21
-44.6987
  0
LINE
  8
0
 10
65.6223
 20
-44.6987
 11
65.5547
 21
-44.9513
  0
LINE
  8
0
 10
65.5547
 20
-44.9513
 11
65.4442
 21
-45.1882
  0
LINE
  8
0
 10
65.4442
 20
-45.1882
 11
65.2942
 21
-45.4024
  0
LINE
  8
0
 10
65.2942
 20
-45.4024
 11
65.1093
 21
-45.5873
  0
LINE
  8
0
 10
65.1093
 20
-45.5873
 11
64.8951
 21
-45.7373
  0
LINE
  8
0
 10
64.8951
 20
-45.7373
 11
64.6581
 21
-45.8478
  0
LINE
  8
0
 10
64.6581
 20
-45.8478
 11
64.4056
 21
-45.9155
  0
LINE
  8
0
 10
64.4056
 20
-45.9155
 11
64.1451
 21
-45.9382
  0
LINE
  8
0
 10
64.1451
 20
-45.9382
 11
63.8846
 21
-45.9155
  0
LINE
  8
0
 10
-2.75435
 20
-183.464
 11
-5.50346
 21
-183.283
  0
LINE
  8
0
 10
-5.50346
 20
-183.283
 11
-8.2421
 21
-182.983
  0
LINE
  8
0
 10
-8.2421
 20
-182.983
 11
-10.965
 21
-182.564
  0
LINE
  8
0
 10
-10.965
 20
-182.564
 11
-13.6671
 21
-182.027
  0
LINE
  8
0
 10
-13.6671
 20
-182.027
 11
-16.3432
 21
-181.372
  0
LINE
  8
0
 10
-16.3432
 20
-181.372
 11
-18.9881
 21
-180.601
  0
LINE
  8
0
 10
-18.9881
 20
-180.601
 11
-21.5969
 21
-179.716
  0
LINE
  8
0
 10
-21.5969
 20
-179.716
 11
-24.1646
 21
-178.717
  0
LINE
  8
0
 10
-24.1646
 20
-178.717
 11
-26.6863
 21
-177.607
  0
LINE
  8
0
 10
-26.6863
 20
-177.607
 11
-29.1572
 21
-176.389
  0
LINE
  8
0
 10
-29.1572
 20
-176.389
 11
-31.5726
 21
-175.064
  0
LINE
  8
0
 10
-31.5726
 20
-175.064
 11
-33.9279
 21
-173.635
  0
LINE
  8
0
 10
-33.9279
 20
-173.635
 11
-36.2186
 21
-172.104
  0
LINE
  8
0
 10
-36.2186
 20
-172.104
 11
-38.4404
 21
-170.475
  0
LINE
  8
0
 10
-38.4404
 20
-170.475
 11
-40.5889
 21
-168.75
  0
LINE
  8
0
 10
-40.5889
 20
-168.75
 11
-42.6603
 21
-166.934
  0
LINE
  8
0
 10
-42.6603
 20
-166.934
 11
-44.6504
 21
-165.029
  0
LINE
  8
0
 10
-44.6504
 20
-165.029
 11
-46.5555
 21
-163.039
  0
LINE
  8
0
 10
-46.5555
 20
-163.039
 11
-48.372
 21
-160.967
  0
LINE
  8
0
 10
-48.372
 20
-160.967
 11
-50.0964
 21
-158.819
  0
LINE
  8
0
 10
-50.0964
 20
-158.819
 11
-51.7255
 21
-156.597
  0
LINE
  8
0
 10
-51.7255
 20
-156.597
 11
-53.2561
 21
-154.306
  0
LINE
  8
0
 10
-53.2561
 20
-154.306
 11
-54.6853
 21
-151.951
  0
LINE
  8
0
 10
-54.6853
 20
-151.951
 11
-56.0105
 21
-149.536
  0
LINE
  8
0
 10
-56.0105
 20
-149.536
 11
-57.229
 21
-147.065
  0
LINE
  8
0
 10
-57.229
 20
-147.065
 11
-58.3385
 21
-144.543
  0
LINE
  8
0
 10
-58.3385
 20
-144.543
 11
-59.3371
 21
-141.975
  0
LINE
  8
0
 10
-59.3371
 20
-141.975
 11
-60.2226
 21
-139.367
  0
LINE
  8
0
 10
-60.2226
 20
-139.367
 11
-60.9936
 21
-136.722
  0
LINE
  8
0
 10
-60.9936
 20
-136.722
 11
-61.6484
 21
-134.046
  0
LINE
  8
0
 10
-61.6484
 20
-134.046
 11
-62.1859
 21
-131.343
  0
LINE
  8
0
 10
-62.1859
 20
-131.343
 11
-62.605
 21
-128.621
  0
LINE
  8
0
 10
-62.605
 20
-128.621
 11
-62.9049
 21
-125.882
  0
LINE
  8
0
 10
-62.9049
 20
-125.882
 11
-63.0851
 21
-123.133
  0
LINE
  8
0
 10
-63.0851
 20
-123.133
 11
-63.1452
 21
-120.378
  0
LINE
  8
0
 10
-63.1452
 20
-120.378
 11
-63.0851
 21
-117.624
  0
LINE
  8
0
 10
-63.0851
 20
-117.624
 11
-62.9049
 21
-114.875
  0
LINE
  8
0
 10
-62.9049
 20
-114.875
 11
-62.605
 21
-112.136
  0
LINE
  8
0
 10
-62.605
 20
-112.136
 11
-62.1859
 21
-109.413
  0
LINE
  8
0
 10
-62.1859
 20
-109.413
 11
-61.6484
 21
-106.711
  0
LINE
  8
0
 10
-61.6484
 20
-106.711
 11
-60.9936
 21
-104.035
  0
LINE
  8
0
 10
-60.9936
 20
-104.035
 11
-60.2226
 21
-101.39
  0
LINE
  8
0
 10
-60.2226
 20
-101.39
 11
-59.3371
 21
-98.7815
  0
LINE
  8
0
 10
-59.3371
 20
-98.7815
 11
-58.3385
 21
-96.2138
  0
LINE
  8
0
 10
-58.3385
 20
-96.2138
 11
-57.229
 21
-93.6921
  0
LINE
  8
0
 10
-57.229
 20
-93.6921
 11
-56.0105
 21
-91.2212
  0
LINE
  8
0
 10
-56.0105
 20
-91.2212
 11
-54.6853
 21
-88.8058
  0
LINE
  8
0
 10
-54.6853
 20
-88.8058
 11
-53.2561
 21
-86.4506
  0
LINE
  8
0
 10
-53.2561
 20
-86.4506
 11
-51.7255
 21
-84.1599
  0
LINE
  8
0
 10
-51.7255
 20
-84.1599
 11
-50.0964
 21
-81.9381
  0
LINE
  8
0
 10
-50.0964
 20
-81.9381
 11
-48.372
 21
-79.7895
  0
LINE
  8
0
 10
-48.372
 20
-79.7895
 11
-46.5555
 21
-77.7182
  0
LINE
  8
0
 10
-46.5555
 20
-77.7182
 11
-44.6504
 21
-75.7281
  0
LINE
  8
0
 10
-44.6504
 20
-75.7281
 11
-42.6603
 21
-73.8229
  0
LINE
  8
0
 10
-42.6603
 20
-73.8229
 11
-40.5889
 21
-72.0064
  0
LINE
  8
0
 10
-40.5889
 20
-72.0064
 11
-38.4404
 21
-70.282
  0
LINE
  8
0
 10
-38.4404
 20
-70.282
 11
-36.2186
 21
-68.6529
  0
LINE
  8
0
 10
-36.2186
 20
-68.6529
 11
-33.9279
 21
-67.1223
  0
LINE
  8
0
 10
-33.9279
 20
-67.1223
 11
-31.5726
 21
-65.6931
  0
LINE
  8
0
 10
-31.5726
 20
-65.6931
 11
-29.1572
 21
-64.368
  0
LINE
  8
0
 10
-29.1572
 20
-64.368
 11
-26.6863
 21
-63.1495
  0
LINE
  8
0
 10
-26.6863
 20
-63.1495
 11
-24.1646
 21
-62.0399
  0
LINE
  8
0
 10
-24.1646
 20
-62.0399
 11
-21.5969
 21
-61.0414
  0
LINE
  8
0
 10
-21.5969
 20
-61.0414
 11
-18.9881
 21
-60.1558
  0
LINE
  8
0
 10
-18.9881
 20
-60.1558
 11
-16.3432
 21
-59.3849
  0
LINE
  8
0
 10
-16.3432
 20
-59.3849
 11
-13.6671
 21
-58.73
  0
LINE
  8
0
 10
-13.6671
 20
-58.73
 11
-10.965
 21
-58.1926
  0
LINE
  8
0
 10
-10.965
 20
-58.1926
 11
-8.2421
 21
-57.7735
  0
LINE
  8
0
 10
-8.2421
 20
-57.7735
 11
-5.50346
 21
-57.4735
  0
LINE
  8
0
 10
-5.50346
 20
-57.4735
 11
-2.75435
 21
-57.2934
  0
LINE
  8
0
 10
-2.75435
 20
-57.2934
 11
0
 21
-57.2332
  0
LINE
  8
0
 10
0
 20
-57.2332
 11
2.75435
 21
-57.2934
  0
LINE
  8
0
 10
2.75435
 20
-57.2934
 11
5.50346
 21
-57.4735
  0
LINE
  8
0
 10
5.50346
 20
-57.4735
 11
8.2421
 21
-57.7735
  0
LINE
  8
0
 10
8.2421
 20
-57.7735
 11
10.965
 21
-58.1926
  0
LINE
  8
0
 10
10.965
 20
-58.1926
 11
13.6671
 21
-58.73
  0
LINE
  8
0
 10
13.6671
 20
-58.73
 11
16.3432
 21
-59.3849
  0
LINE
  8
0
 10
16.3432
 20
-59.3849
 11
18.9881
 21
-60.1558
  0
LINE
  8
0
 10
18.9881
 20
-60.1558
 11
21.5969
 21
-61.0414
  0
LINE
  8
0
 10
21.5969
 20
-61.0414
 11
24.1646
 21
-62.0399
  0
LINE
  8
0
 10
24.1646
 20
-62.0399
 11
26.6863
 21
-63.1495
  0
LINE
  8
0
 10
26.6863
 20
-63.1495
 11
29.1572
 21
-64.368
  0
LINE
  8
0
 10
29.1572
 20
-64.368
 11
31.5726
 21
-65.6931
  0
LINE
  8
0
 10
31.5726
 20
-65.6931
 11
33.9279
 21
-67.1223
  0
LINE
  8
0
 10
33.9279
 20
-67.1223
 11
36.2186
 21
-68.6529
  0
LINE
  8
0
 10
36.2186
 20
-68.6529
 11
38.4404
 21
-70.282
  0
LINE
  8
0
 10
38.4404
 20
-70.282
 11
40.5889
 21
-72.0064
  0
LINE
  8
0
 10
40.5889
 20
-72.0064
 11
42.6603
 21
-73.8229
  0
LINE
  8
0
 10
42.6603
 20
-73.8229
 11
44.6504
 21
-75.7281
  0
LINE
  8
0
 10
44.6504
 20
-75.7281
 11
46.5555
 21
-77.7182
  0
LINE
  8
0
 10
46.5555
 20
-77.7182
 11
48.372
 21
-79.7895
  0
LINE
  8
0
 10
48.372
 20
-79.7895
 11
50.0964
 21
-81.9381
  0
LINE
  8
0
 10
50.0964
 20
-81.9381
 11
51.7255
 21
-84.1599
  0
LINE
  8
0
 10
51.7255
 20
-84.1599
 11
53.2561
 21
-86.4506
  0
LINE
  8
0
 10
53.2561
 20
-86.4506
 11
54.6853
 21
-88.8058
  0
LINE
  8
0
 10
54.6853
 20
-88.8058
 11
56.0105
 21
-91.2212
  0
LINE
  8
0
 10
56.0105
 20
-91.2212
 11
57.229
 21
-93.6921
  0
LINE
  8
0
 10
57.229
 20
-93.6921
 11
58.3385
 21
-96.2138
  0
LINE
  8
0
 10
58.3385
 20
-96.2138
 11
59.3371
 21
-98.7815
  0
LINE
  8
0
 10
59.3371
 20
-98.7815
 11
60.2226
 21
-101.39
  0
LINE
  8
0
 10
60.2226
 20
-101.39
 11
60.9936
 21
-104.035
  0
LINE
  8
0
 10
60.9936
 20
-104.035
 11
61.6484
 21
-106.711
  0
LINE
  8
0
 10
61.6484
 20
-106.711
 11
62.1859
 21
-109.413
  0
LINE
  8
0
 10
62.1859
 20
-109.413
 11
62.605
 21
-112.136
  0
LINE
  8
0
 10
62.605
 20
-112.136
 11
62.9049
 21
-114.875
  0
LINE
  8
0
 10
62.9049
 20
-114.875
 11
63.0851
 21
-117.624
  0
LINE
  8
0
 10
63.0851
 20
-117.624
 11
63.1452
 21
-120.378
  0
LINE
  8
0
 10
63.1452
 20
-120.378
 11
63.0851
 21
-123.133
  0
LINE
  8
0
 10
63.0851
 20
-123.133
 11
62.9049
 21
-125.882
  0
LINE
  8
0
 10
62.9049
 20
-125.882
 11
62.605
 21
-128.621
  0
LINE
  8
0
 10
62.605
 20
-128.621
 11
62.1859
 21
-131.343
  0
LINE
  8
0
 10
62.1859
 20
-131.343
 11
61.6484
 21
-134.046
  0
LINE
  8
0
 10
61.6484
 20
-134.046
 11
60.9936
 21
-136.722
  0
LINE
  8
0
 10
60.9936
 20
-136.722
 11
60.2226
 21
-139.367
  0
LINE
  8
0
 10
60.2226
 20
-139.367
 11
59.3371
 21
-141.975
  0
LINE
  8
0
 10
59.3371
 20
-141.975
 11
58.3385
 21
-144.543
  0
LINE
  8
0
 10
58.3385
 20
-144.543
 11
57.229
 21
-147.065
  0
LINE
  8
0
 10
57.229
 20
-147.065
 11
56.0105
 21
-149.536
  0
LINE
  8
0
 10
56.0105
 20
-149.536
 11
54.6853
 21
-151.951
  0
LINE
  8
0
 10
54.6853
 20
-151.951
 11
53.2561
 21
-154.306
  0
LINE
  8
0
 10
53.2561
 20
-154.306
 11
51.7255
 21
-156.597
  0
LINE
  8
0
 10
51.7255
 20
-156.597
 11
50.0964
 21
-158.819
  0
LINE
  8
0
 10
50.0964
 20
-158.819
 11
48.372
 21
-160.967
  0
LINE
  8
0
 10
48.372
 20
-160.967
 11
46.5555
 21
-163.039
  0
LINE
  8
0
 10
46.5555
 20
-163.039
 11
44.6504
 21
-165.029
  0
LINE
  8
0
 10
44.6504
 20
-165.029
 11
42.6603
 21
-166.934
  0
LINE
  8
0
 10
42.6603
 20
-166.934
 11
40.5889
 21
-168.75
  0
LINE
  8
0
 10
40.5889
 20
-168.75
 11
38.4404
 21
-170.475
  0
LINE
  8
0
 10
38.4404
 20
-170.475
 11
36.2186
 21
-172.104
  0
LINE
  8
0
 10
36.2186
 20
-172.104
 11
33.9279
 21
-173.635
  0
LINE
  8
0
 10
33.9279
 20
-173.635
 11
31.5726
 21
-175.064
  0
LINE
  8
0
 10
31.5726
 20
-175.064
 11
29.1572
 21
-176.389
  0
LINE
  8
0
 10
29.1572
 20
-176.389
 11
26.6863
 21
-177.607
  0
LINE
  8
0
 10
26.6863
 20
-177.607
 11
24.1646
 21
-178.717
  0
LINE
  8
0
 10
24.1646
 20
-178.717
 11
21.5969
 21
-179.716
  0
LINE
  8
0
 10
21.5969
 20
-179.716
 11
18.9881
 21
-180.601
  0
LINE
  8
0
 10
18.9881
 20
-180.601
 11
16.3432
 21
-181.372
  0
LINE
  8
0
 10
16.3432
 20
-181.372
 11
13.6671
 21
-182.027
  0
LINE
  8
0
 10
13.6671
 20
-182.027
 11
10.965
 21
-182.564
  0
LINE
  8
0
 10
10.965
 20
-182.564
 11
8.2421
 21
-182.983
  0
LINE
  8
0
 10
8.2421
 20
-182.983
 11
5.50346
 21
-183.283
  0
LINE
  8
0
 10
5.50346
 20
-183.283
 11
2.75435
 21
-183.464
  0
LINE
  8
0
 10
2.75435
 20
-183.464
 11
0
 21
-183.524
  0
LINE
  8
0
 10
0
 20
-183.524
 11
-2.75435
 21
-183.464
  0
LINE
  8
0
 10
63.8846
 20
-78.6055
 11
63.6321
 21
-78.5378
  0
LINE
  8
0
 10
63.6321
 20
-78.5378
 11
63.3951
 21
-78.4273
  0
LINE
  8
0
 10
63.3951
 20
-78.4273
 11
63.1809
 21
-78.2773
  0
LINE
  8
0
 10
63.1809
 20
-78.2773
 11
62.996
 21
-78.0924
  0
LINE
  8
0
 10
62.996
 20
-78.0924
 11
62.8461
 21
-77.8783
  0
LINE
  8
0
 10
62.8461
 20
-77.8783
 11
62.7356
 21
-77.6413
  0
LINE
  8
0
 10
62.7356
 20
-77.6413
 11
62.6679
 21
-77.3887
  0
LINE
  8
0
 10
62.6679
 20
-77.3887
 11
62.6451
 21
-77.1283
  0
LINE
  8
0
 10
62.6451
 20
-77.1283
 11
62.6679
 21
-76.8678
  0
LINE
  8
0
 10
62.6679
 20
-76.8678
 11
62.7356
 21
-76.6152
  0
LINE
  8
0
 10
62.7356
 20
-76.6152
 11
62.8461
 21
-76.3783
  0
LINE
  8
0
 10
62.8461
 20
-76.3783
 11
62.996
 21
-76.1641
  0
LINE
  8
0
 10
62.996
 20
-76.1641
 11
63.1809
 21
-75.9792
  0
LINE
  8
0
 10
63.1809
 20
-75.9792
 11
63.3951
 21
-75.8292
  0
LINE
  8
0
 10
63.3951
 20
-75.8292
 11
63.6321
 21
-75.7187
  0
LINE
  8
0
 10
63.6321
 20
-75.7187
 11
63.8846
 21
-75.651
  0
LINE
  8
0
 10
63.8846
 20
-75.651
 11
64.1451
 21
-75.6283
  0
LINE
  8
0
 10
64.1451
 20
-75.6283
 11
64.4056
 21
-75.651
  0
LINE
  8
0
 10
64.4056
 20
-75.651
 11
64.6581
 21
-75.7187
  0
LINE
  8
0
 10
64.6581
 20
-75.7187
 11
64.8951
 21
-75.8292
  0
LINE
  8
0
 10
64.8951
 20
-75.8292
 11
65.1093
 21
-75.9792
  0
LINE
  8
0
 10
65.1093
 20
-75.9792
 11
65.2942
 21
-76.1641
  0
LINE
  8
0
 10
65.2942
 20
-76.1641
 11
65.4442
 21
-76.3783
  0
LINE
  8
0
 10
65.4442
 20
-76.3783
 11
65.5547
 21
-76.6152
  0
LINE
  8
0
 10
65.5547
 20
-76.6152
 11
65.6223
 21
-76.8678
  0
LINE
  8
0
 10
65.6223
 20
-76.8678
 11
65.6451
 21
-77.1283
  0
LINE
  8
0
 10
65.6451
 20
-77.1283
 11
65.6223
 21
-77.3887
  0
LINE
  8
0
 10
65.6223
 20
-77.3887
 11
65.5547
 21
-77.6413
  0
LINE
  8
0
 10
65.5547
 20
-77.6413
 11
65.4442
 21
-77.8783
  0
LINE
  8
0
 10
65.4442
 20
-77.8783
 11
65.2942
 21
-78.0924
  0
LINE
  8
0
 10
65.2942
 20
-78.0924
 11
65.1093
 21
-78.2773
  0
LINE
  8
0
 10
65.1093
 20
-78.2773
 11
64.8951
 21
-78.4273
  0
LINE
  8
0
 10
64.8951
 20
-78.4273
 11
64.6581
 21
-78.5378
  0
LINE
  8
0
 10
64.6581
 20
-78.5378
 11
64.4056
 21
-78.6055
  0
LINE
  8
0
 10
64.4056
 20
-78.6055
 11
64.1451
 21
-78.6283
  0
LINE
  8
0
 10
64.1451
 20
-78.6283
 11
63.8846
 21
-78.6055
  0
LINE
  8
0
 10
-64.4056
 20
-78.6055
 11
-64.6581
 21
-78.5378
  0
LINE
  8
0
 10
-64.6581
 20
-78.5378
 11
-64.8951
 21
-78.4273
  0
LINE
  8
0
 10
-64.8951
 20
-78.4273
 11
-65.1093
 21
-78.2773
  0
LINE
  8
0
 10
-65.1093
 20
-78.2773
 11
-65.2942
 21
-78.0924
  0
LINE
  8
0
 10
-65.2942
 20
-78.0924
 11
-65.4442
 21
-77.8783
  0
LINE
  8
0
 10
-65.4442
 20
-77.8783
 11
-65.5547
 21
-77.6413
  0
LINE
  8
0
 10
-65.5547
 20
-77.6413
 11
-65.6223
 21
-77.3887
  0
LINE
  8
0
 10
-65.6223
 20
-77.3887
 11
-65.6451
 21
-77.1283
  0
LINE
  8
0
 10
-65.6451
 20
-77.1283
 11
-65.6223
 21
-76.8678
  0
LINE
  8
0
 10
-65.6223
 20
-76.8678
 11
-65.5547
 21
-76.6152
  0
LINE
  8
0
 10
-65.5547
 20
-76.6152
 11
-65.4442
 21
-76.3783
  0
LINE
  8
0
 10
-65.4442
 20
-76.3783
 11
-65.2942
 21
-76.1641
  0
LINE
  8
0
 10
-65.2942
 20
-76.1641
 11
-65.1093
 21
-75.9792
  0
LINE
  8
0
 10
-65.1093
 20
-75.9792
 11
-64.8951
 21
-75.8292
  0
LINE
  8
0
 10
-64.8951
 20
-75.8292
 11
-64.6581
 21
-75.7187
  0
LINE
  8
0
 10
-64.6581
 20
-75.7187
 11
-64.4056
 21
-75.651
  0
LINE
  8
0
 10
-64.4056
 20
-75.651
 11
-64.1451
 21
-75.6283
  0
LINE
  8
0
 10
-64.1451
 20
-75.6283
 11
-63.8846
 21
-75.651
  0
LINE
  8
0
 10
-63.8846
 20
-75.651
 11
-63.6321
 21
-75.7187
  0
LINE
  8
0
 10
-63.6321
 20
-75.7187
 11
-63.3951
 21
-75.8292
  0
LINE
  8
0
 10
-63.3951
 20
-75.8292
 11
-63.1809
 21
-75.9792
  0
LINE
  8
0
 10
-63.1809
 20
-75.9792
 11
-62.996
 21
-76.1641
  0
LINE
  8
0
 10
-62.996
 20
-76.1641
 11
-62.8461
 21
-76.3783
  0
LINE
  8
0
 10
-62.8461
 20
-76.3783
 11
-62.7356
 21
-76.6152
  0
LINE
  8
0
 10
-62.7356
 20
-76.6152
 11
-62.6679
 21
-76.8678
  0
LINE
  8
0
 10
-62.6679
 20
-76.8678
 11
-62.6451
 21
-77.1283
  0
LINE
  8
0
 10
-62.6451
 20
-77.1283
 11
-62.6679
 21
-77.3887
  0
LINE
  8
0
 10
-62.6679
 20
-77.3887
 11
-62.7356
 21
-77.6413
  0
LINE
  8
0
 10
-62.7356
 20
-77.6413
 11
-62.8461
 21
-77.8783
  0
LINE
  8
0
 10
-62.8461
 20
-77.8783
 11
-62.996
 21
-78.0924
  0
LINE
  8
0
 10
-62.996
 20
-78.0924
 11
-63.1809
 21
-78.2773
  0
LINE
  8
0
 10
-63.1809
 20
-78.2773
 11
-63.3951
 21
-78.4273
  0
LINE
  8
0
 10
-63.3951
 20
-78.4273
 11
-63.6321
 21
-78.5378
  0
LINE
  8
0
 10
-63.6321
 20
-78.5378
 11
-63.8846
 21
-78.6055
  0
LINE
  8
0
 10
-63.8846
 20
-78.6055
 11
-64.1451
 21
-78.6283
  0
LINE
  8
0
 10
-64.1451
 20
-78.6283
 11
-64.4056
 21
-78.6055
  0
LINE
  8
0
 10
-78.3257
 20
-110.356
 11
-78.5782
 21
-110.288
  0
LINE
  8
0
 10
-78.5782
 20
-110.288
 11
-78.8152
 21
-110.177
  0
LINE
  8
0
 10
-78.8152
 20
-110.177
 11
-79.0294
 21
-110.028
  0
LINE
  8
0
 10
-79.0294
 20
-110.028
 11
-79.2142
 21
-109.843
  0
LINE
  8
0
 10
-79.2142
 20
-109.843
 11
-79.3642
 21
-109.628
  0
LINE
  8
0
 10
-79.3642
 20
-109.628
 11
-79.4747
 21
-109.391
  0
LINE
  8
0
 10
-79.4747
 20
-109.391
 11
-79.5424
 21
-109.139
  0
LINE
  8
0
 10
-79.5424
 20
-109.139
 11
-79.5652
 21
-108.878
  0
LINE
  8
0
 10
-79.5652
 20
-108.878
 11
-79.5424
 21
-108.618
  0
LINE
  8
0
 10
-79.5424
 20
-108.618
 11
-79.4747
 21
-108.365
  0
LINE
  8
0
 10
-79.4747
 20
-108.365
 11
-79.3642
 21
-108.128
  0
LINE
  8
0
 10
-79.3642
 20
-108.128
 11
-79.2142
 21
-107.914
  0
LINE
  8
0
 10
-79.2142
 20
-107.914
 11
-79.0294
 21
-107.729
  0
LINE
  8
0
 10
-79.0294
 20
-107.729
 11
-78.8152
 21
-107.579
  0
LINE
  8
0
 10
-78.8152
 20
-107.579
 11
-78.5782
 21
-107.469
  0
LINE
  8
0
 10
-78.5782
 20
-107.469
 11
-78.3257
 21
-107.401
  0
LINE
  8
0
 10
-78.3257
 20
-107.401
 11
-78.0652
 21
-107.378
  0
LINE
  8
0
 10
-78.0652
 20
-107.378
 11
-77.8047
 21
-107.401
  0
LINE
  8
0
 10
-77.8047
 20
-107.401
 11
-77.5522
 21
-107.469
  0
LINE
  8
0
 10
-77.5522
 20
-107.469
 11
-77.3152
 21
-107.579
  0
LINE
  8
0
 10
-77.3152
 20
-107.579
 11
-77.101
 21
-107.729
  0
LINE
  8
0
 10
-77.101
 20
-107.729
 11
-76.9161
 21
-107.914
  0
LINE
  8
0
 10
-76.9161
 20
-107.914
 11
-76.7661
 21
-108.128
  0
LINE
  8
0
 10
-76.7661
 20
-108.128
 11
-76.6556
 21
-108.365
  0
LINE
  8
0
 10
-76.6556
 20
-108.365
 11
-76.588
 21
-108.618
  0
LINE
  8
0
 10
-76.588
 20
-108.618
 11
-76.5652
 21
-108.878
  0
LINE
  8
0
 10
-76.5652
 20
-108.878
 11
-76.588
 21
-109.139
  0
LINE
  8
0
 10
-76.588
 20
-109.139
 11
-76.6556
 21
-109.391
  0
LINE
  8
0
 10
-76.6556
 20
-109.391
 11
-76.7661
 21
-109.628
  0
LINE
  8
0
 10
-76.7661
 20
-109.628
 11
-76.9161
 21
-109.843
  0
LINE
  8
0
 10
-76.9161
 20
-109.843
 11
-77.101
 21
-110.028
  0
LINE
  8
0
 10
-77.101
 20
-110.028
 11
-77.3152
 21
-110.177
  0
LINE
  8
0
 10
-77.3152
 20
-110.177
 11
-77.5522
 21
-110.288
  0
LINE
  8
0
 10
-77.5522
 20
-110.288
 11
-77.8047
 21
-110.356
  0
LINE
  8
0
 10
-77.8047
 20
-110.356
 11
-78.0652
 21
-110.378
  0
LINE
  8
0
 10
-78.0652
 20
-110.378
 11
-78.3257
 21
-110.356
  0
LINE
  8
0
 10
91.7747
 20
-110.356
 11
91.5222
 21
-110.288
  0
LINE
  8
0
 10
91.5222
 20
-110.288
 11
91.2852
 21
-110.177
  0
LINE
  8
0
 10
91.2852
 20
-110.177
 11
91.071
 21
-110.028
  0
LINE
  8
0
 10
91.071
 20
-110.028
 11
90.8861
 21
-109.843
  0
LINE
  8
0
 10
90.8861
 20
-109.843
 11
90.7361
 21
-109.628
  0
LINE
  8
0
 10
90.7361
 20
-109.628
 11
90.6256
 21
-109.391
  0
LINE
  8
0
 10
90.6256
 20
-109.391
 11
90.558
 21
-109.139
  0
LINE
  8
0
 10
90.558
 20
-109.139
 11
90.5352
 21
-108.878
  0
LINE
  8
0
 10
90.5352
 20
-108.878
 11
90.558
 21
-108.618
  0
LINE
  8
0
 10
90.558
 20
-108.618
 11
90.6256
 21
-108.365
  0
LINE
  8
0
 10
90.6256
 20
-108.365
 11
90.7361
 21
-108.128
  0
LINE
  8
0
 10
90.7361
 20
-108.128
 11
90.8861
 21
-107.914
  0
LINE
  8
0
 10
90.8861
 20
-107.914
 11
91.071
 21
-107.729
  0
LINE
  8
0
 10
91.071
 20
-107.729
 11
91.2852
 21
-107.579
  0
LINE
  8
0
 10
91.2852
 20
-107.579
 11
91.5222
 21
-107.469
  0
LINE
  8
0
 10
91.5222
 20
-107.469
 11
91.7747
 21
-107.401
  0
LINE
  8
0
 10
91.7747
 20
-107.401
 11
92.0352
 21
-107.378
  0
LINE
  8
0
 10
92.0352
 20
-107.378
 11
92.2957
 21
-107.401
  0
LINE
  8
0
 10
92.2957
 20
-107.401
 11
92.5482
 21
-107.469
  0
LINE
  8
0
 10
92.5482
 20
-107.469
 11
92.7852
 21
-107.579
  0
LINE
  8
0
 10
92.7852
 20
-107.579
 11
92.9994
 21
-107.729
  0
LINE
  8
0
 10
92.9994
 20
-107.729
 11
93.1842
 21
-107.914
  0
LINE
  8
0
 10
93.1842
 20
-107.914
 11
93.3342
 21
-108.128
  0
LINE
  8
0
 10
93.3342
 20
-108.128
 11
93.4447
 21
-108.365
  0
LINE
  8
0
 10
93.4447
 20
-108.365
 11
93.5124
 21
-108.618
  0
LINE
  8
0
 10
93.5124
 20
-108.618
 11
93.5352
 21
-108.878
  0
LINE
  8
0
 10
93.5352
 20
-108.878
 11
93.5124
 21
-109.139
  0
LINE
  8
0
 10
93.5124
 20
-109.139
 11
93.4447
 21
-109.391
  0
LINE
  8
0
 10
93.4447
 20
-109.391
 11
93.3342
 21
-109.628
  0
LINE
  8
0
 10
93.3342
 20
-109.628
 11
93.1842
 21
-109.843
  0
LINE
  8
0
 10
93.1842
 20
-109.843
 11
92.9994
 21
-110.028
  0
LINE
  8
0
 10
92.9994
 20
-110.028
 11
92.7852
 21
-110.177
  0
LINE
  8
0
 10
92.7852
 20
-110.177
 11
92.5482
 21
-110.288
  0
LINE
  8
0
 10
92.5482
 20
-110.288
 11
92.2957
 21
-110.356
  0
LINE
  8
0
 10
92.2957
 20
-110.356
 11
92.0352
 21
-110.378
  0
LINE
  8
0
 10
92.0352
 20
-110.378
 11
91.7747
 21
-110.356
  0
LINE
  8
0
 10
77.8047
 20
-110.356
 11
77.5522
 21
-110.288
  0
LINE
  8
0
 10
77.5522
 20
-110.288
 11
77.3152
 21
-110.177
  0
LINE
  8
0
 10
77.3152
 20
-110.177
 11
77.101
 21
-110.028
  0
LINE
  8
0
 10
77.101
 20
-110.028
 11
76.9161
 21
-109.843
  0
LINE
  8
0
 10
76.9161
 20
-109.843
 11
76.7661
 21
-109.628
  0
LINE
  8
0
 10
76.7661
 20
-109.628
 11
76.6556
 21
-109.391
  0
LINE
  8
0
 10
76.6556
 20
-109.391
 11
76.588
 21
-109.139
  0
LINE
  8
0
 10
76.588
 20
-109.139
 11
76.5652
 21
-108.878
  0
LINE
  8
0
 10
76.5652
 20
-108.878
 11
76.588
 21
-108.618
  0
LINE
  8
0
 10
76.588
 20
-108.618
 11
76.6556
 21
-108.365
  0
LINE
  8
0
 10
76.6556
 20
-108.365
 11
76.7661
 21
-108.128
  0
LINE
  8
0
 10
76.7661
 20
-108.128
 11
76.9161
 21
-107.914
  0
LINE
  8
0
 10
76.9161
 20
-107.914
 11
77.101
 21
-107.729
  0
LINE
  8
0
 10
77.101
 20
-107.729
 11
77.3152
 21
-107.579
  0
LINE
  8
0
 10
77.3152
 20
-107.579
 11
77.5522
 21
-107.469
  0
LINE
  8
0
 10
77.5522
 20
-107.469
 11
77.8047
 21
-107.401
  0
LINE
  8
0
 10
77.8047
 20
-107.401
 11
78.0652
 21
-107.378
  0
LINE
  8
0
 10
78.0652
 20
-107.378
 11
78.3257
 21
-107.401
  0
LINE
  8
0
 10
78.3257
 20
-107.401
 11
78.5782
 21
-107.469
  0
LINE
  8
0
 10
78.5782
 20
-107.469
 11
78.8152
 21
-107.579
  0
LINE
  8
0
 10
78.8152
 20
-107.579
 11
79.0294
 21
-107.729
  0
LINE
  8
0
 10
79.0294
 20
-107.729
 11
79.2142
 21
-107.914
  0
LINE
  8
0
 10
79.2142
 20
-107.914
 11
79.3642
 21
-108.128
  0
LINE
  8
0
 10
79.3642
 20
-108.128
 11
79.4747
 21
-108.365
  0
LINE
  8
0
 10
79.4747
 20
-108.365
 11
79.5424
 21
-108.618
  0
LINE
  8
0
 10
79.5424
 20
-108.618
 11
79.5652
 21
-108.878
  0
LINE
  8
0
 10
79.5652
 20
-108.878
 11
79.5424
 21
-109.139
  0
LINE
  8
0
 10
79.5424
 20
-109.139
 11
79.4747
 21
-109.391
  0
LINE
  8
0
 10
79.4747
 20
-109.391
 11
79.3642
 21
-109.628
  0
LINE
  8
0
 10
79.3642
 20
-109.628
 11
79.2142
 21
-109.843
  0
LINE
  8
0
 10
79.2142
 20
-109.843
 11
79.0294
 21
-110.028
  0
LINE
  8
0
 10
79.0294
 20
-110.028
 11
78.8152
 21
-110.177
  0
LINE
  8
0
 10
78.8152
 20
-110.177
 11
78.5782
 21
-110.288
  0
LINE
  8
0
 10
78.5782
 20
-110.288
 11
78.3257
 21
-110.356
  0
LINE
  8
0
 10
78.3257
 20
-110.356
 11
78.0652
 21
-110.378
  0
LINE
  8
0
 10
78.0652
 20
-110.378
 11
77.8047
 21
-110.356
  0
LINE
  8
0
 10
-92.2957
 20
-110.356
 11
-92.5482
 21
-110.288
  0
LINE
  8
0
 10
-92.5482
 20
-110.288
 11
-92.7852
 21
-110.177
  0
LINE
  8
0
 10
-92.7852
 20
-110.177
 11
-92.9994
 21
-110.028
  0
LINE
  8
0
 10
-92.9994
 20
-110.028
 11
-93.1842
 21
-109.843
  0
LINE
  8
0
 10
-93.1842
 20
-109.843
 11
-93.3342
 21
-109.628
  0
LINE
  8
0
 10
-93.3342
 20
-109.628
 11
-93.4447
 21
-109.391
  0
LINE
  8
0
 10
-93.4447
 20
-109.391
 11
-93.5124
 21
-109.139
  0
LINE
  8
0
 10
-93.5124
 20
-109.139
 11
-93.5352
 21
-108.878
  0
LINE
  8
0
 10
-93.5352
 20
-108.878
 11
-93.5124
 21
-108.618
  0
LINE
  8
0
 10
-93.5124
 20
-108.618
 11
-93.4447
 21
-108.365
  0
LINE
  8
0
 10
-93.4447
 20
-108.365
 11
-93.3342
 21
-108.128
  0
LINE
  8
0
 10
-93.3342
 20
-108.128
 11
-93.1842
 21
-107.914
  0
LINE
  8
0
 10
-93.1842
 20
-107.914
 11
-92.9994
 21
-107.729
  0
LINE
  8
0
 10
-92.9994
 20
-107.729
 11
-92.7852
 21
-107.579
  0
LINE
  8
0
 10
-92.7852
 20
-107.579
 11
-92.5482
 21
-107.469
  0
LINE
  8
0
 10
-92.5482
 20
-107.469
 11
-92.2957
 21
-107.401
  0
LINE
  8
0
 10
-92.2957
 20
-107.401
 11
-92.0352
 21
-107.378
  0
LINE
  8
0
 10
-92.0352
 20
-107.378
 11
-91.7747
 21
-107.401
  0
LINE
  8
0
 10
-91.7747
 20
-107.401
 11
-91.5222
 21
-107.469
  0
LINE
  8
0
 10
-91.5222
 20
-107.469
 11
-91.2852
 21
-107.579
  0
LINE
  8
0
 10
-91.2852
 20
-107.579
 11
-91.071
 21
-107.729
  0
LINE
  8
0
 10
-91.071
 20
-107.729
 11
-90.8861
 21
-107.914
  0
LINE
  8
0
 10
-90.8861
 20
-107.914
 11
-90.7361
 21
-108.128
  0
LINE
  8
0
 10
-90.7361
 20
-108.128
 11
-90.6256
 21
-108.365
  0
LINE
  8
0
 10
-90.6256
 20
-108.365
 11
-90.558
 21
-108.618
  0
LINE
  8
0
 10
-90.558
 20
-108.618
 11
-90.5352
 21
-108.878
  0
LINE
  8
0
 10
-90.5352
 20
-108.878
 11
-90.558
 21
-109.139
  0
LINE
  8
0
 10
-90.558
 20
-109.139
 11
-90.6256
 21
-109.391
  0
LINE
  8
0
 10
-90.6256
 20
-109.391
 11
-90.7361
 21
-109.628
  0
LINE
  8
0
 10
-90.7361
 20
-109.628
 11
-90.8861
 21
-109.843
  0
LINE
  8
0
 10
-90.8861
 20
-109.843
 11
-91.071
 21
-110.028
  0
LINE
  8
0
 10
-91.071
 20
-110.028
 11
-91.2852
 21
-110.177
  0
LINE
  8
0
 10
-91.2852
 20
-110.177
 11
-91.5222
 21
-110.288
  0
LINE
  8
0
 10
-91.5222
 20
-110.288
 11
-91.7747
 21
-110.356
  0
LINE
  8
0
 10
-91.7747
 20
-110.356
 11
-92.0352
 21
-110.378
  0
LINE
  8
0
 10
-92.0352
 20
-110.378
 11
-92.2957
 21
-110.356
  0
LINE
  8
0
 10
-78.3257
 20
-133.356
 11
-78.5782
 21
-133.288
  0
LINE
  8
0
 10
-78.5782
 20
-133.288
 11
-78.8152
 21
-133.177
  0
LINE
  8
0
 10
-78.8152
 20
-133.177
 11
-79.0294
 21
-133.028
  0
LINE
  8
0
 10
-79.0294
 20
-133.028
 11
-79.2142
 21
-132.843
  0
LINE
  8
0
 10
-79.2142
 20
-132.843
 11
-79.3642
 21
-132.628
  0
LINE
  8
0
 10
-79.3642
 20
-132.628
 11
-79.4747
 21
-132.391
  0
LINE
  8
0
 10
-79.4747
 20
-132.391
 11
-79.5424
 21
-132.139
  0
LINE
  8
0
 10
-79.5424
 20
-132.139
 11
-79.5652
 21
-131.878
  0
LINE
  8
0
 10
-79.5652
 20
-131.878
 11
-79.5424
 21
-131.618
  0
LINE
  8
0
 10
-79.5424
 20
-131.618
 11
-79.4747
 21
-131.365
  0
LINE
  8
0
 10
-79.4747
 20
-131.365
 11
-79.3642
 21
-131.128
  0
LINE
  8
0
 10
-79.3642
 20
-131.128
 11
-79.2142
 21
-130.914
  0
LINE
  8
0
 10
-79.2142
 20
-130.914
 11
-79.0294
 21
-130.729
  0
LINE
  8
0
 10
-79.0294
 20
-130.729
 11
-78.8152
 21
-130.579
  0
LINE
  8
0
 10
-78.8152
 20
-130.579
 11
-78.5782
 21
-130.469
  0
LINE
  8
0
 10
-78.5782
 20
-130.469
 11
-78.3257
 21
-130.401
  0
LINE
  8
0
 10
-78.3257
 20
-130.401
 11
-78.0652
 21
-130.378
  0
LINE
  8
0
 10
-78.0652
 20
-130.378
 11
-77.8047
 21
-130.401
  0
LINE
  8
0
 10
-77.8047
 20
-130.401
 11
-77.5522
 21
-130.469
  0
LINE
  8
0
 10
-77.5522
 20
-130.469
 11
-77.3152
 21
-130.579
  0
LINE
  8
0
 10
-77.3152
 20
-130.579
 11
-77.101
 21
-130.729
  0
LINE
  8
0
 10
-77.101
 20
-130.729
 11
-76.9161
 21
-130.914
  0
LINE
  8
0
 10
-76.9161
 20
-130.914
 11
-76.7661
 21
-131.128
  0
LINE
  8
0
 10
-76.7661
 20
-131.128
 11
-76.6556
 21
-131.365
  0
LINE
  8
0
 10
-76.6556
 20
-131.365
 11
-76.588
 21
-131.618
  0
LINE
  8
0
 10
-76.588
 20
-131.618
 11
-76.5652
 21
-131.878
  0
LINE
  8
0
 10
-76.5652
 20
-131.878
 11
-76.588
 21
-132.139
  0
LINE
  8
0
 10
-76.588
 20
-132.139
 11
-76.6556
 21
-132.391
  0
LINE
  8
0
 10
-76.6556
 20
-132.391
 11
-76.7661
 21
-132.628
  0
LINE
  8
0
 10
-76.7661
 20
-132.628
 11
-76.9161
 21
-132.843
  0
LINE
  8
0
 10
-76.9161
 20
-132.843
 11
-77.101
 21
-133.028
  0
LINE
  8
0
 10
-77.101
 20
-133.028
 11
-77.3152
 21
-133.177
  0
LINE
  8
0
 10
-77.3152
 20
-133.177
 11
-77.5522
 21
-133.288
  0
LINE
  8
0
 10
-77.5522
 20
-133.288
 11
-77.8047
 21
-133.356
  0
LINE
  8
0
 10
-77.8047
 20
-133.356
 11
-78.0652
 21
-133.378
  0
LINE
  8
0
 10
-78.0652
 20
-133.378
 11
-78.3257
 21
-133.356
  0
LINE
  8
0
 10
-92.2957
 20
-133.356
 11
-92.5482
 21
-133.288
  0
LINE
  8
0
 10
-92.5482
 20
-133.288
 11
-92.7852
 21
-133.177
  0
LINE
  8
0
 10
-92.7852
 20
-133.177
 11
-92.9994
 21
-133.028
  0
LINE
  8
0
 10
-92.9994
 20
-133.028
 11
-93.1842
 21
-132.843
  0
LINE
  8
0
 10
-93.1842
 20
-132.843
 11
-93.3342
 21
-132.628
  0
LINE
  8
0
 10
-93.3342
 20
-132.628
 11
-93.4447
 21
-132.391
  0
LINE
  8
0
 10
-93.4447
 20
-132.391
 11
-93.5124
 21
-132.139
  0
LINE
  8
0
 10
-93.5124
 20
-132.139
 11
-93.5352
 21
-131.878
  0
LINE
  8
0
 10
-93.5352
 20
-131.878
 11
-93.5124
 21
-131.618
  0
LINE
  8
0
 10
-93.5124
 20
-131.618
 11
-93.4447
 21
-131.365
  0
LINE
  8
0
 10
-93.4447
 20
-131.365
 11
-93.3342
 21
-131.128
  0
LINE
  8
0
 10
-93.3342
 20
-131.128
 11
-93.1842
 21
-130.914
  0
LINE
  8
0
 10
-93.1842
 20
-130.914
 11
-92.9994
 21
-130.729
  0
LINE
  8
0
 10
-92.9994
 20
-130.729
 11
-92.7852
 21
-130.579
  0
LINE
  8
0
 10
-92.7852
 20
-130.579
 11
-92.5482
 21
-130.469
  0
LINE
  8
0
 10
-92.5482
 20
-130.469
 11
-92.2957
 21
-130.401
  0
LINE
  8
0
 10
-92.2957
 20
-130.401
 11
-92.0352
 21
-130.378
  0
LINE
  8
0
 10
-92.0352
 20
-130.378
 11
-91.7747
 21
-130.401
  0
LINE
  8
0
 10
-91.7747
 20
-130.401
 11
-91.5222
 21
-130.469
  0
LINE
  8
0
 10
-91.5222
 20
-130.469
 11
-91.2852
 21
-130.579
  0
LINE
  8
0
 10
-91.2852
 20
-130.579
 11
-91.071
 21
-130.729
  0
LINE
  8
0
 10
-91.071
 20
-130.729
 11
-90.8861
 21
-130.914
  0
LINE
  8
0
 10
-90.8861
 20
-130.914
 11
-90.7361
 21
-131.128
  0
LINE
  8
0
 10
-90.7361
 20
-131.128
 11
-90.6256
 21
-131.365
  0
LINE
  8
0
 10
-90.6256
 20
-131.365
 11
-90.558
 21
-131.618
  0
LINE
  8
0
 10
-90.558
 20
-131.618
 11
-90.5352
 21
-131.878
  0
LINE
  8
0
 10
-90.5352
 20
-131.878
 11
-90.558
 21
-132.139
  0
LINE
  8
0
 10
-90.558
 20
-132.139
 11
-90.6256
 21
-132.391
  0
LINE
  8
0
 10
-90.6256
 20
-132.391
 11
-90.7361
 21
-132.628
  0
LINE
  8
0
 10
-90.7361
 20
-132.628
 11
-90.8861
 21
-132.843
  0
LINE
  8
0
 10
-90.8861
 20
-132.843
 11
-91.071
 21
-133.028
  0
LINE
  8
0
 10
-91.071
 20
-133.028
 11
-91.2852
 21
-133.177
  0
LINE
  8
0
 10
-91.2852
 20
-133.177
 11
-91.5222
 21
-133.288
  0
LINE
  8
0
 10
-91.5222
 20
-133.288
 11
-91.7747
 21
-133.356
  0
LINE
  8
0
 10
-91.7747
 20
-133.356
 11
-92.0352
 21
-133.378
  0
LINE
  8
0
 10
-92.0352
 20
-133.378
 11
-92.2957
 21
-133.356
  0
LINE
  8
0
 10
77.8047
 20
-133.356
 11
77.5522
 21
-133.288
  0
LINE
  8
0
 10
77.5522
 20
-133.288
 11
77.3152
 21
-133.177
  0
LINE
  8
0
 10
77.3152
 20
-133.177
 11
77.101
 21
-133.028
  0
LINE
  8
0
 10
77.101
 20
-133.028
 11
76.9161
 21
-132.843
  0
LINE
  8
0
 10
76.9161
 20
-132.843
 11
76.7661
 21
-132.628
  0
LINE
  8
0
 10
76.7661
 20
-132.628
 11
76.6556
 21
-132.391
  0
LINE
  8
0
 10
76.6556
 20
-132.391
 11
76.588
 21
-132.139
  0
LINE
  8
0
 10
76.588
 20
-132.139
 11
76.5652
 21
-131.878
  0
LINE
  8
0
 10
76.5652
 20
-131.878
 11
76.588
 21
-131.618
  0
LINE
  8
0
 10
76.588
 20
-131.618
 11
76.6556
 21
-131.365
  0
LINE
  8
0
 10
76.6556
 20
-131.365
 11
76.7661
 21
-131.128
  0
LINE
  8
0
 10
76.7661
 20
-131.128
 11
76.9161
 21
-130.914
  0
LINE
  8
0
 10
76.9161
 20
-130.914
 11
77.101
 21
-130.729
  0
LINE
  8
0
 10
77.101
 20
-130.729
 11
77.3152
 21
-130.579
  0
LINE
  8
0
 10
77.3152
 20
-130.579
 11
77.5522
 21
-130.469
  0
LINE
  8
0
 10
77.5522
 20
-130.469
 11
77.8047
 21
-130.401
  0
LINE
  8
0
 10
77.8047
 20
-130.401
 11
78.0652
 21
-130.378
  0
LINE
  8
0
 10
78.0652
 20
-130.378
 11
78.3257
 21
-130.401
  0
LINE
  8
0
 10
78.3257
 20
-130.401
 11
78.5782
 21
-130.469
  0
LINE
  8
0
 10
78.5782
 20
-130.469
 11
78.8152
 21
-130.579
  0
LINE
  8
0
 10
78.8152
 20
-130.579
 11
79.0294
 21
-130.729
  0
LINE
  8
0
 10
79.0294
 20
-130.729
 11
79.2142
 21
-130.914
  0
LINE
  8
0
 10
79.2142
 20
-130.914
 11
79.3642
 21
-131.128
  0
LINE
  8
0
 10
79.3642
 20
-131.128
 11
79.4747
 21
-131.365
  0
LINE
  8
0
 10
79.4747
 20
-131.365
 11
79.5424
 21
-131.618
  0
LINE
  8
0
 10
79.5424
 20
-131.618
 11
79.5652
 21
-131.878
  0
LINE
  8
0
 10
79.5652
 20
-131.878
 11
79.5424
 21
-132.139
  0
LINE
  8
0
 10
79.5424
 20
-132.139
 11
79.4747
 21
-132.391
  0
LINE
  8
0
 10
79.4747
 20
-132.391
 11
79.3642
 21
-132.628
  0
LINE
  8
0
 10
79.3642
 20
-132.628
 11
79.2142
 21
-132.843
  0
LINE
  8
0
 10
79.2142
 20
-132.843
 11
79.0294
 21
-133.028
  0
LINE
  8
0
 10
79.0294
 20
-133.028
 11
78.8152
 21
-133.177
  0
LINE
  8
0
 10
78.8152
 20
-133.177
 11
78.5782
 21
-133.288
  0
LINE
  8
0
 10
78.5782
 20
-133.288
 11
78.3257
 21
-133.356
  0
LINE
  8
0
 10
78.3257
 20
-133.356
 11
78.0652
 21
-133.378
  0
LINE
  8
0
 10
78.0652
 20
-133.378
 11
77.8047
 21
-133.356
  0
LINE
  8
0
 10
91.7747
 20
-133.356
 11
91.5222
 21
-133.288
  0
LINE
  8
0
 10
91.5222
 20
-133.288
 11
91.2852
 21
-133.177
  0
LINE
  8
0
 10
91.2852
 20
-133.177
 11
91.071
 21
-133.028
  0
LINE
  8
0
 10
91.071
 20
-133.028
 11
90.8861
 21
-132.843
  0
LINE
  8
0
 10
90.8861
 20
-132.843
 11
90.7361
 21
-132.628
  0
LINE
  8
0
 10
90.7361
 20
-132.628
 11
90.6256
 21
-132.391
  0
LINE
  8
0
 10
90.6256
 20
-132.391
 11
90.558
 21
-132.139
  0
LINE
  8
0
 10
90.558
 20
-132.139
 11
90.5352
 21
-131.878
  0
LINE
  8
0
 10
90.5352
 20
-131.878
 11
90.558
 21
-131.618
  0
LINE
  8
0
 10
90.558
 20
-131.618
 11
90.6256
 21
-131.365
  0
LINE
  8
0
 10
90.6256
 20
-131.365
 11
90.7361
 21
-131.128
  0
LINE
  8
0
 10
90.7361
 20
-131.128
 11
90.8861
 21
-130.914
  0
LINE
  8
0
 10
90.8861
 20
-130.914
 11
91.071
 21
-130.729
  0
LINE
  8
0
 10
91.071
 20
-130.729
 11
91.2852
 21
-130.579
  0
LINE
  8
0
 10
91.2852
 20
-130.579
 11
91.5222
 21
-130.469
  0
LINE
  8
0
 10
91.5222
 20
-130.469
 11
91.7747
 21
-130.401
  0
LINE
  8
0
 10
91.7747
 20
-130.401
 11
92.0352
 21
-130.378
  0
LINE
  8
0
 10
92.0352
 20
-130.378
 11
92.2957
 21
-130.401
  0
LINE
  8
0
 10
92.2957
 20
-130.401
 11
92.5482
 21
-130.469
  0
LINE
  8
0
 10
92.5482
 20
-130.469
 11
92.7852
 21
-130.579
  0
LINE
  8
0
 10
92.7852
 20
-130.579
 11
92.9994
 21
-130.729
  0
LINE
  8
0
 10
92.9994
 20
-130.729
 11
93.1842
 21
-130.914
  0
LINE
  8
0
 10
93.1842
 20
-130.914
 11
93.3342
 21
-131.128
  0
LINE
  8
0
 10
93.3342
 20
-131.128
 11
93.4447
 21
-131.365
  0
LINE
  8
0
 10
93.4447
 20
-131.365
 11
93.5124
 21
-131.618
  0
LINE
  8
0
 10
93.5124
 20
-131.618
 11
93.5352
 21
-131.878
  0
LINE
  8
0
 10
93.5352
 20
-131.878
 11
93.5124
 21
-132.139
  0
LINE
  8
0
 10
93.5124
 20
-132.139
 11
93.4447
 21
-132.391
  0
LINE
  8
0
 10
93.4447
 20
-132.391
 11
93.3342
 21
-132.628
  0
LINE
  8
0
 10
93.3342
 20
-132.628
 11
93.1842
 21
-132.843
  0
LINE
  8
0
 10
93.1842
 20
-132.843
 11
92.9994
 21
-133.028
  0
LINE
  8
0
 10
92.9994
 20
-133.028
 11
92.7852
 21
-133.177
  0
LINE
  8
0
 10
92.7852
 20
-133.177
 11
92.5482
 21
-133.288
  0
LINE
  8
0
 10
92.5482
 20
-133.288
 11
92.2957
 21
-133.356
  0
LINE
  8
0
 10
92.2957
 20
-133.356
 11
92.0352
 21
-133.378
  0
LINE
  8
0
 10
92.0352
 20
-133.378
 11
91.7747
 21
-133.356
  0
LINE
  8
0
 10
53.9206
 20
-175.924
 11
53.6631
 21
-175.879
  0
LINE
  8
0
 10
53.6631
 20
-175.879
 11
53.4174
 21
-175.789
  0
LINE
  8
0
 10
53.4174
 20
-175.789
 11
53.191
 21
-175.659
  0
LINE
  8
0
 10
53.191
 20
-175.659
 11
52.9907
 21
-175.49
  0
LINE
  8
0
 10
52.9907
 20
-175.49
 11
52.8226
 21
-175.29
  0
LINE
  8
0
 10
52.8226
 20
-175.29
 11
52.6919
 21
-175.064
  0
LINE
  8
0
 10
52.6919
 20
-175.064
 11
52.6025
 21
-174.818
  0
LINE
  8
0
 10
52.6025
 20
-174.818
 11
52.5571
 21
-174.561
  0
LINE
  8
0
 10
52.5571
 20
-174.561
 11
52.5571
 21
-174.299
  0
LINE
  8
0
 10
52.5571
 20
-174.299
 11
52.6025
 21
-174.042
  0
LINE
  8
0
 10
52.6025
 20
-174.042
 11
52.6919
 21
-173.796
  0
LINE
  8
0
 10
52.6919
 20
-173.796
 11
52.8226
 21
-173.569
  0
LINE
  8
0
 10
52.8226
 20
-173.569
 11
52.9907
 21
-173.369
  0
LINE
  8
0
 10
52.9907
 20
-173.369
 11
53.191
 21
-173.201
  0
LINE
  8
0
 10
53.191
 20
-173.201
 11
53.4174
 21
-173.07
  0
LINE
  8
0
 10
53.4174
 20
-173.07
 11
53.6631
 21
-172.981
  0
LINE
  8
0
 10
53.6631
 20
-172.981
 11
53.9206
 21
-172.936
  0
LINE
  8
0
 10
53.9206
 20
-172.936
 11
54.1821
 21
-172.936
  0
LINE
  8
0
 10
54.1821
 20
-172.936
 11
54.4396
 21
-172.981
  0
LINE
  8
0
 10
54.4396
 20
-172.981
 11
54.6853
 21
-173.07
  0
LINE
  8
0
 10
54.6853
 20
-173.07
 11
54.9117
 21
-173.201
  0
LINE
  8
0
 10
54.9117
 20
-173.201
 11
55.112
 21
-173.369
  0
LINE
  8
0
 10
55.112
 20
-173.369
 11
55.2801
 21
-173.569
  0
LINE
  8
0
 10
55.2801
 20
-173.569
 11
55.4108
 21
-173.796
  0
LINE
  8
0
 10
55.4108
 20
-173.796
 11
55.5003
 21
-174.042
  0
LINE
  8
0
 10
55.5003
 20
-174.042
 11
55.5457
 21
-174.299
  0
LINE
  8
0
 10
55.5457
 20
-174.299
 11
55.5457
 21
-174.561
  0
LINE
  8
0
 10
55.5457
 20
-174.561
 11
55.5003
 21
-174.818
  0
LINE
  8
0
 10
55.5003
 20
-174.818
 11
55.4108
 21
-175.064
  0
LINE
  8
0
 10
55.4108
 20
-175.064
 11
55.2801
 21
-175.29
  0
LINE
  8
0
 10
55.2801
 20
-175.29
 11
55.112
 21
-175.49
  0
LINE
  8
0
 10
55.112
 20
-175.49
 11
54.9117
 21
-175.659
  0
LINE
  8
0
 10
54.9117
 20
-175.659
 11
54.6853
 21
-175.789
  0
LINE
  8
0
 10
54.6853
 20
-175.789
 11
54.4396
 21
-175.879
  0
LINE
  8
0
 10
54.4396
 20
-175.879
 11
54.1821
 21
-175.924
  0
LINE
  8
0
 10
54.1821
 20
-175.924
 11
53.9206
 21
-175.924
  0
LINE
  8
0
 10
-54.1821
 20
-175.924
 11
-54.4396
 21
-175.879
  0
LINE
  8
0
 10
-54.4396
 20
-175.879
 11
-54.6853
 21
-175.789
  0
LINE
  8
0
 10
-54.6853
 20
-175.789
 11
-54.9117
 21
-175.659
  0
LINE
  8
0
 10
-54.9117
 20
-175.659
 11
-55.112
 21
-175.49
  0
LINE
  8
0
 10
-55.112
 20
-175.49
 11
-55.2801
 21
-175.29
  0
LINE
  8
0
 10
-55.2801
 20
-175.29
 11
-55.4108
 21
-175.064
  0
LINE
  8
0
 10
-55.4108
 20
-175.064
 11
-55.5003
 21
-174.818
  0
LINE
  8
0
 10
-55.5003
 20
-174.818
 11
-55.5457
 21
-174.561
  0
LINE
  8
0
 10
-55.5457
 20
-174.561
 11
-55.5457
 21
-174.299
  0
LINE
  8
0
 10
-55.5457
 20
-174.299
 11
-55.5003
 21
-174.042
  0
LINE
  8
0
 10
-55.5003
 20
-174.042
 11
-55.4108
 21
-173.796
  0
LINE
  8
0
 10
-55.4108
 20
-173.796
 11
-55.2801
 21
-173.569
  0
LINE
  8
0
 10
-55.2801
 20
-173.569
 11
-55.112
 21
-173.369
  0
LINE
  8
0
 10
-55.112
 20
-173.369
 11
-54.9117
 21
-173.201
  0
LINE
  8
0
 10
-54.9117
 20
-173.201
 11
-54.6853
 21
-173.07
  0
LINE
  8
0
 10
-54.6853
 20
-173.07
 11
-54.4396
 21
-172.981
  0
LINE
  8
0
 10
-54.4396
 20
-172.981
 11
-54.1821
 21
-172.936
  0
LINE
  8
0
 10
-54.1821
 20
-172.936
 11
-53.9206
 21
-172.936
  0
LINE
  8
0
 10
-53.9206
 20
-172.936
 11
-53.6631
 21
-172.981
  0
LINE
  8
0
 10
-53.6631
 20
-172.981
 11
-53.4174
 21
-173.07
  0
LINE
  8
0
 10
-53.4174
 20
-173.07
 11
-53.191
 21
-173.201
  0
LINE
  8
0
 10
-53.191
 20
-173.201
 11
-52.9907
 21
-173.369
  0
LINE
  8
0
 10
-52.9907
 20
-173.369
 11
-52.8226
 21
-173.569
  0
LINE
  8
0
 10
-52.8226
 20
-173.569
 11
-52.6919
 21
-173.796
  0
LINE
  8
0
 10
-52.6919
 20
-173.796
 11
-52.6025
 21
-174.042
  0
LINE
  8
0
 10
-52.6025
 20
-174.042
 11
-52.5571
 21
-174.299
  0
LINE
  8
0
 10
-52.5571
 20
-174.299
 11
-52.5571
 21
-174.561
  0
LINE
  8
0
 10
-52.5571
 20
-174.561
 11
-52.6025
 21
-174.818
  0
LINE
  8
0
 10
-52.6025
 20
-174.818
 11
-52.6919
 21
-175.064
  0
LINE
  8
0
 10
-52.6919
 20
-175.064
 11
-52.8226
 21
-175.29
  0
LINE
  8
0
 10
-52.8226
 20
-175.29
 11
-52.9907
 21
-175.49
  0
LINE
  8
0
 10
-52.9907
 20
-175.49
 11
-53.191
 21
-175.659
  0
LINE
  8
0
 10
-53.191
 20
-175.659
 11
-53.4174
 21
-175.789
  0
LINE
  8
0
 10
-53.4174
 20
-175.789
 11
-53.6631
 21
-175.879
  0
LINE
  8
0
 10
-53.6631
 20
-175.879
 11
-53.9206
 21
-175.924
  0
LINE
  8
0
 10
-53.9206
 20
-175.924
 11
-54.1821
 21
-175.924
  0
LINE
  8
0
 10
-74.8637
 20
-196.606
 11
-75.1212
 21
-196.56
  0
LINE
  8
0
 10
-75.1212
 20
-196.56
 11
-75.3669
 21
-196.471
  0
LINE
  8
0
 10
-75.3669
 20
-196.471
 11
-75.5934
 21
-196.34
  0
LINE
  8
0
 10
-75.5934
 20
-196.34
 11
-75.7937
 21
-196.172
  0
LINE
  8
0
 10
-75.7937
 20
-196.172
 11
-75.9617
 21
-195.972
  0
LINE
  8
0
 10
-75.9617
 20
-195.972
 11
-76.0925
 21
-195.745
  0
LINE
  8
0
 10
-76.0925
 20
-195.745
 11
-76.1819
 21
-195.5
  0
LINE
  8
0
 10
-76.1819
 20
-195.5
 11
-76.2273
 21
-195.242
  0
LINE
  8
0
 10
-76.2273
 20
-195.242
 11
-76.2273
 21
-194.981
  0
LINE
  8
0
 10
-76.2273
 20
-194.981
 11
-76.1819
 21
-194.723
  0
LINE
  8
0
 10
-76.1819
 20
-194.723
 11
-76.0925
 21
-194.478
  0
LINE
  8
0
 10
-76.0925
 20
-194.478
 11
-75.9617
 21
-194.251
  0
LINE
  8
0
 10
-75.9617
 20
-194.251
 11
-75.7937
 21
-194.051
  0
LINE
  8
0
 10
-75.7937
 20
-194.051
 11
-75.5934
 21
-193.883
  0
LINE
  8
0
 10
-75.5934
 20
-193.883
 11
-75.3669
 21
-193.752
  0
LINE
  8
0
 10
-75.3669
 20
-193.752
 11
-75.1212
 21
-193.663
  0
LINE
  8
0
 10
-75.1212
 20
-193.663
 11
-74.8637
 21
-193.617
  0
LINE
  8
0
 10
-74.8637
 20
-193.617
 11
-74.6023
 21
-193.617
  0
LINE
  8
0
 10
-74.6023
 20
-193.617
 11
-74.3448
 21
-193.663
  0
LINE
  8
0
 10
-74.3448
 20
-193.663
 11
-74.0991
 21
-193.752
  0
LINE
  8
0
 10
-74.0991
 20
-193.752
 11
-73.8727
 21
-193.883
  0
LINE
  8
0
 10
-73.8727
 20
-193.883
 11
-73.6723
 21
-194.051
  0
LINE
  8
0
 10
-73.6723
 20
-194.051
 11
-73.5043
 21
-194.251
  0
LINE
  8
0
 10
-73.5043
 20
-194.251
 11
-73.3736
 21
-194.478
  0
LINE
  8
0
 10
-73.3736
 20
-194.478
 11
-73.2841
 21
-194.723
  0
LINE
  8
0
 10
-73.2841
 20
-194.723
 11
-73.2387
 21
-194.981
  0
LINE
  8
0
 10
-73.2387
 20
-194.981
 11
-73.2387
 21
-195.242
  0
LINE
  8
0
 10
-73.2387
 20
-195.242
 11
-73.2841
 21
-195.5
  0
LINE
  8
0
 10
-73.2841
 20
-195.5
 11
-73.3736
 21
-195.745
  0
LINE
  8
0
 10
-73.3736
 20
-195.745
 11
-73.5043
 21
-195.972
  0
LINE
  8
0
 10
-73.5043
 20
-195.972
 11
-73.6723
 21
-196.172
  0
LINE
  8
0
 10
-73.6723
 20
-196.172
 11
-73.8727
 21
-196.34
  0
LINE
  8
0
 10
-73.8727
 20
-196.34
 11
-74.0991
 21
-196.471
  0
LINE
  8
0
 10
-74.0991
 20
-196.471
 11
-74.3448
 21
-196.56
  0
LINE
  8
0
 10
-74.3448
 20
-196.56
 11
-74.6023
 21
-196.606
  0
LINE
  8
0
 10
-74.6023
 20
-196.606
 11
-74.8637
 21
-196.606
  0
LINE
  8
0
 10
74.6023
 20
-196.606
 11
74.3448
 21
-196.56
  0
LINE
  8
0
 10
74.3448
 20
-196.56
 11
74.0991
 21
-196.471
  0
LINE
  8
0
 10
74.0991
 20
-196.471
 11
73.8727
 21
-196.34
  0
LINE
  8
0
 10
73.8727
 20
-196.34
 11
73.6723
 21
-196.172
  0
LINE
  8
0
 10
73.6723
 20
-196.172
 11
73.5043
 21
-195.972
  0
LINE
  8
0
 10
73.5043
 20
-195.972
 11
73.3736
 21
-195.745
  0
LINE
  8
0
 10
73.3736
 20
-195.745
 11
73.2841
 21
-195.5
  0
LINE
  8
0
 10
73.2841
 20
-195.5
 11
73.2387
 21
-195.242
  0
LINE
  8
0
 10
73.2387
 20
-195.242
 11
73.2387
 21
-194.981
  0
LINE
  8
0
 10
73.2387
 20
-194.981
 11
73.2841
 21
-194.723
  0
LINE
  8
0
 10
73.2841
 20
-194.723
 11
73.3736
 21
-194.478
  0
LINE
  8
0
 10
73.3736
 20
-194.478
 11
73.5043
 21
-194.251
  0
LINE
  8
0
 10
73.5043
 20
-194.251
 11
73.6723
 21
-194.051
  0
LINE
  8
0
 10
73.6723
 20
-194.051
 11
73.8727
 21
-193.883
  0
LINE
  8
0
 10
73.8727
 20
-193.883
 11
74.0991
 21
-193.752
  0
LINE
  8
0
 10
74.0991
 20
-193.752
 11
74.3448
 21
-193.663
  0
LINE
  8
0
 10
74.3448
 20
-193.663
 11
74.6023
 21
-193.617
  0
LINE
  8
0
 10
74.6023
 20
-193.617
 11
74.8637
 21
-193.617
  0
LINE
  8
0
 10
74.8637
 20
-193.617
 11
75.1212
 21
-193.663
  0
LINE
  8
0
 10
75.1212
 20
-193.663
 11
75.3669
 21
-193.752
  0
LINE
  8
0
 10
75.3669
 20
-193.752
 11
75.5934
 21
-193.883
  0
LINE
  8
0
 10
75.5934
 20
-193.883
 11
75.7937
 21
-194.051
  0
LINE
  8
0
 10
75.7937
 20
-194.051
 11
75.9617
 21
-194.251
  0
LINE
  8
0
 10
75.9617
 20
-194.251
 11
76.0925
 21
-194.478
  0
LINE
  8
0
 10
76.0925
 20
-194.478
 11
76.1819
 21
-194.723
  0
LINE
  8
0
 10
76.1819
 20
-194.723
 11
76.2273
 21
-194.981
  0
LINE
  8
0
 10
76.2273
 20
-194.981
 11
76.2273
 21
-195.242
  0
LINE
  8
0
 10
76.2273
 20
-195.242
 11
76.1819
 21
-195.5
  0
LINE
  8
0
 10
76.1819
 20
-195.5
 11
76.0925
 21
-195.745
  0
LINE
  8
0
 10
76.0925
 20
-195.745
 11
75.9617
 21
-195.972
  0
LINE
  8
0
 10
75.9617
 20
-195.972
 11
75.7937
 21
-196.172
  0
LINE
  8
0
 10
75.7937
 20
-196.172
 11
75.5934
 21
-196.34
  0
LINE
  8
0
 10
75.5934
 20
-196.34
 11
75.3669
 21
-196.471
  0
LINE
  8
0
 10
75.3669
 20
-196.471
 11
75.1212
 21
-196.56
  0
LINE
  8
0
 10
75.1212
 20
-196.56
 11
74.8637
 21
-196.606
  0
LINE
  8
0
 10
74.8637
 20
-196.606
 11
74.6023
 21
-196.606
  0
LINE
  8
0
 10
-11.7605
 20
-199.921
 11
-12.013
 21
-199.853
  0
LINE
  8
0
 10
-12.013
 20
-199.853
 11
-12.25
 21
-199.743
  0
LINE
  8
0
 10
-12.25
 20
-199.743
 11
-12.4642
 21
-199.593
  0
LINE
  8
0
 10
-12.4642
 20
-199.593
 11
-12.6491
 21
-199.408
  0
LINE
  8
0
 10
-12.6491
 20
-199.408
 11
-12.799
 21
-199.194
  0
LINE
  8
0
 10
-12.799
 20
-199.194
 11
-12.9095
 21
-198.957
  0
LINE
  8
0
 10
-12.9095
 20
-198.957
 11
-12.9772
 21
-198.704
  0
LINE
  8
0
 10
-12.9772
 20
-198.704
 11
-13
 21
-198.444
  0
LINE
  8
0
 10
-13
 20
-198.444
 11
-12.9772
 21
-198.183
  0
LINE
  8
0
 10
-12.9772
 20
-198.183
 11
-12.9095
 21
-197.931
  0
LINE
  8
0
 10
-12.9095
 20
-197.931
 11
-12.799
 21
-197.694
  0
LINE
  8
0
 10
-12.799
 20
-197.694
 11
-12.6491
 21
-197.479
  0
LINE
  8
0
 10
-12.6491
 20
-197.479
 11
-12.4642
 21
-197.295
  0
LINE
  8
0
 10
-12.4642
 20
-197.295
 11
-12.25
 21
-197.145
  0
LINE
  8
0
 10
-12.25
 20
-197.145
 11
-12.013
 21
-197.034
  0
LINE
  8
0
 10
-12.013
 20
-197.034
 11
-11.7605
 21
-196.966
  0
LINE
  8
0
 10
-11.7605
 20
-196.966
 11
-11.5
 21
-196.944
  0
LINE
  8
0
 10
-11.5
 20
-196.944
 11
-11.2395
 21
-196.966
  0
LINE
  8
0
 10
-11.2395
 20
-196.966
 11
-10.987
 21
-197.034
  0
LINE
  8
0
 10
-10.987
 20
-197.034
 11
-10.75
 21
-197.145
  0
LINE
  8
0
 10
-10.75
 20
-197.145
 11
-10.5358
 21
-197.295
  0
LINE
  8
0
 10
-10.5358
 20
-197.295
 11
-10.3509
 21
-197.479
  0
LINE
  8
0
 10
-10.3509
 20
-197.479
 11
-10.201
 21
-197.694
  0
LINE
  8
0
 10
-10.201
 20
-197.694
 11
-10.0905
 21
-197.931
  0
LINE
  8
0
 10
-10.0905
 20
-197.931
 11
-10.0228
 21
-198.183
  0
LINE
  8
0
 10
-10.0228
 20
-198.183
 11
-10
 21
-198.444
  0
LINE
  8
0
 10
-10
 20
-198.444
 11
-10.0228
 21
-198.704
  0
LINE
  8
0
 10
-10.0228
 20
-198.704
 11
-10.0905
 21
-198.957
  0
LINE
  8
0
 10
-10.0905
 20
-198.957
 11
-10.201
 21
-199.194
  0
LINE
  8
0
 10
-10.201
 20
-199.194
 11
-10.3509
 21
-199.408
  0
LINE
  8
0
 10
-10.3509
 20
-199.408
 11
-10.5358
 21
-199.593
  0
LINE
  8
0
 10
-10.5358
 20
-199.593
 11
-10.75
 21
-199.743
  0
LINE
  8
0
 10
-10.75
 20
-199.743
 11
-10.987
 21
-199.853
  0
LINE
  8
0
 10
-10.987
 20
-199.853
 11
-11.2395
 21
-199.921
  0
LINE
  8
0
 10
-11.2395
 20
-199.921
 11
-11.5
 21
-199.944
  0
LINE
  8
0
 10
-11.5
 20
-199.944
 11
-11.7605
 21
-199.921
  0
LINE
  8
0
 10
11.2395
 20
-199.921
 11
10.987
 21
-199.853
  0
LINE
  8
0
 10
10.987
 20
-199.853
 11
10.75
 21
-199.743
  0
LINE
  8
0
 10
10.75
 20
-199.743
 11
10.5358
 21
-199.593
  0
LINE
  8
0
 10
10.5358
 20
-199.593
 11
10.3509
 21
-199.408
  0
LINE
  8
0
 10
10.3509
 20
-199.408
 11
10.201
 21
-199.194
  0
LINE
  8
0
 10
10.201
 20
-199.194
 11
10.0905
 21
-198.957
  0
LINE
  8
0
 10
10.0905
 20
-198.957
 11
10.0228
 21
-198.704
  0
LINE
  8
0
 10
10.0228
 20
-198.704
 11
10
 21
-198.444
  0
LINE
  8
0
 10
10
 20
-198.444
 11
10.0228
 21
-198.183
  0
LINE
  8
0
 10
10.0228
 20
-198.183
 11
10.0905
 21
-197.931
  0
LINE
  8
0
 10
10.0905
 20
-197.931
 11
10.201
 21
-197.694
  0
LINE
  8
0
 10
10.201
 20
-197.694
 11
10.3509
 21
-197.479
  0
LINE
  8
0
 10
10.3509
 20
-197.479
 11
10.5358
 21
-197.295
  0
LINE
  8
0
 10
10.5358
 20
-197.295
 11
10.75
 21
-197.145
  0
LINE
  8
0
 10
10.75
 20
-197.145
 11
10.987
 21
-197.034
  0
LINE
  8
0
 10
10.987
 20
-197.034
 11
11.2395
 21
-196.966
  0
LINE
  8
0
 10
11.2395
 20
-196.966
 11
11.5
 21
-196.944
  0
LINE
  8
0
 10
11.5
 20
-196.944
 11
11.7605
 21
-196.966
  0
LINE
  8
0
 10
11.7605
 20
-196.966
 11
12.013
 21
-197.034
  0
LINE
  8
0
 10
12.013
 20
-197.034
 11
12.25
 21
-197.145
  0
LINE
  8
0
 10
12.25
 20
-197.145
 11
12.4642
 21
-197.295
  0
LINE
  8
0
 10
12.4642
 20
-197.295
 11
12.6491
 21
-197.479
  0
LINE
  8
0
 10
12.6491
 20
-197.479
 11
12.799
 21
-197.694
  0
LINE
  8
0
 10
12.799
 20
-197.694
 11
12.9095
 21
-197.931
  0
LINE
  8
0
 10
12.9095
 20
-197.931
 11
12.9772
 21
-198.183
  0
LINE
  8
0
 10
12.9772
 20
-198.183
 11
13
 21
-198.444
  0
LINE
  8
0
 10
13
 20
-198.444
 11
12.9772
 21
-198.704
  0
LINE
  8
0
 10
12.9772
 20
-198.704
 11
12.9095
 21
-198.957
  0
LINE
  8
0
 10
12.9095
 20
-198.957
 11
12.799
 21
-199.194
  0
LINE
  8
0
 10
12.799
 20
-199.194
 11
12.6491
 21
-199.408
  0
LINE
  8
0
 10
12.6491
 20
-199.408
 11
12.4642
 21
-199.593
  0
LINE
  8
0
 10
12.4642
 20
-199.593
 11
12.25
 21
-199.743
  0
LINE
  8
0
 10
12.25
 20
-199.743
 11
12.013
 21
-199.853
  0
LINE
  8
0
 10
12.013
 20
-199.853
 11
11.7605
 21
-199.921
  0
LINE
  8
0
 10
11.7605
 20
-199.921
 11
11.5
 21
-199.944
  0
LINE
  8
0
 10
11.5
 20
-199.944
 11
11.2395
 21
-199.921
  0
LINE
  8
0
 10
11.2395
 20
-213.891
 11
10.987
 21
-213.823
  0
LINE
  8
0
 10
10.987
 20
-213.823
 11
10.75
 21
-213.713
  0
LINE
  8
0
 10
10.75
 20
-213.713
 11
10.5358
 21
-213.563
  0
LINE
  8
0
 10
10.5358
 20
-213.563
 11
10.3509
 21
-213.378
  0
LINE
  8
0
 10
10.3509
 20
-213.378
 11
10.201
 21
-213.164
  0
LINE
  8
0
 10
10.201
 20
-213.164
 11
10.0905
 21
-212.927
  0
LINE
  8
0
 10
10.0905
 20
-212.927
 11
10.0228
 21
-212.674
  0
LINE
  8
0
 10
10.0228
 20
-212.674
 11
10
 21
-212.414
  0
LINE
  8
0
 10
10
 20
-212.414
 11
10.0228
 21
-212.153
  0
LINE
  8
0
 10
10.0228
 20
-212.153
 11
10.0905
 21
-211.901
  0
LINE
  8
0
 10
10.0905
 20
-211.901
 11
10.201
 21
-211.664
  0
LINE
  8
0
 10
10.201
 20
-211.664
 11
10.3509
 21
-211.449
  0
LINE
  8
0
 10
10.3509
 20
-211.449
 11
10.5358
 21
-211.265
  0
LINE
  8
0
 10
10.5358
 20
-211.265
 11
10.75
 21
-211.115
  0
LINE
  8
0
 10
10.75
 20
-211.115
 11
10.987
 21
-211.004
  0
LINE
  8
0
 10
10.987
 20
-211.004
 11
11.2395
 21
-210.936
  0
LINE
  8
0
 10
11.2395
 20
-210.936
 11
11.5
 21
-210.914
  0
LINE
  8
0
 10
11.5
 20
-210.914
 11
11.7605
 21
-210.936
  0
LINE
  8
0
 10
11.7605
 20
-210.936
 11
12.013
 21
-211.004
  0
LINE
  8
0
 10
12.013
 20
-211.004
 11
12.25
 21
-211.115
  0
LINE
  8
0
 10
12.25
 20
-211.115
 11
12.4642
 21
-211.265
  0
LINE
  8
0
 10
12.4642
 20
-211.265
 11
12.6491
 21
-211.449
  0
LINE
  8
0
 10
12.6491
 20
-211.449
 11
12.799
 21
-211.664
  0
LINE
  8
0
 10
12.799
 20
-211.664
 11
12.9095
 21
-211.901
  0
LINE
  8
0
 10
12.9095
 20
-211.901
 11
12.9772
 21
-212.153
  0
LINE
  8
0
 10
12.9772
 20
-212.153
 11
13
 21
-212.414
  0
LINE
  8
0
 10
13
 20
-212.414
 11
12.9772
 21
-212.674
  0
LINE
  8
0
 10
12.9772
 20
-212.674
 11
12.9095
 21
-212.927
  0
LINE
  8
0
 10
12.9095
 20
-212.927
 11
12.799
 21
-213.164
  0
LINE
  8
0
 10
12.799
 20
-213.164
 11
12.6491
 21
-213.378
  0
LINE
  8
0
 10
12.6491
 20
-213.378
 11
12.4642
 21
-213.563
  0
LINE
  8
0
 10
12.4642
 20
-213.563
 11
12.25
 21
-213.713
  0
LINE
  8
0
 10
12.25
 20
-213.713
 11
12.013
 21
-213.823
  0
LINE
  8
0
 10
12.013
 20
-213.823
 11
11.7605
 21
-213.891
  0
LINE
  8
0
 10
11.7605
 20
-213.891
 11
11.5
 21
-213.914
  0
LINE
  8
0
 10
11.5
 20
-213.914
 11
11.2395
 21
-213.891
  0
LINE
  8
0
 10
-11.7605
 20
-213.891
 11
-12.013
 21
-213.823
  0
LINE
  8
0
 10
-12.013
 20
-213.823
 11
-12.25
 21
-213.713
  0
LINE
  8
0
 10
-12.25
 20
-213.713
 11
-12.4642
 21
-213.563
  0
LINE
  8
0
 10
-12.4642
 20
-213.563
 11
-12.6491
 21
-213.378
  0
LINE
  8
0
 10
-12.6491
 20
-213.378
 11
-12.799
 21
-213.164
  0
LINE
  8
0
 10
-12.799
 20
-213.164
 11
-12.9095
 21
-212.927
  0
LINE
  8
0
 10
-12.9095
 20
-212.927
 11
-12.9772
 21
-212.674
  0
LINE
  8
0
 10
-12.9772
 20
-212.674
 11
-13
 21
-212.414
  0
LINE
  8
0
 10
-13
 20
-212.414
 11
-12.9772
 21
-212.153
  0
LINE
  8
0
 10
-12.9772
 20
-212.153
 11
-12.9095
 21
-211.901
  0
LINE
  8
0
 10
-12.9095
 20
-211.901
 11
-12.799
 21
-211.664
  0
LINE
  8
0
 10
-12.799
 20
-211.664
 11
-12.6491
 21
-211.449
  0
LINE
  8
0
 10
-12.6491
 20
-211.449
 11
-12.4642
 21
-211.265
  0
LINE
  8
0
 10
-12.4642
 20
-211.265
 11
-12.25
 21
-211.115
  0
LINE
  8
0
 10
-12.25
 20
-211.115
 11
-12.013
 21
-211.004
  0
LINE
  8
0
 10
-12.013
 20
-211.004
 11
-11.7605
 21
-210.936
  0
LINE
  8
0
 10
-11.7605
 20
-210.936
 11
-11.5
 21
-210.914
  0
LINE
  8
0
 10
-11.5
 20
-210.914
 11
-11.2395
 21
-210.936
  0
LINE
  8
0
 10
-11.2395
 20
-210.936
 11
-10.987
 21
-211.004
  0
LINE
  8
0
 10
-10.987
 20
-211.004
 11
-10.75
 21
-211.115
  0
LINE
  8
0
 10
-10.75
 20
-211.115
 11
-10.5358
 21
-211.265
  0
LINE
  8
0
 10
-10.5358
 20
-211.265
 11
-10.3509
 21
-211.449
  0
LINE
  8
0
 10
-10.3509
 20
-211.449
 11
-10.201
 21
-211.664
  0
LINE
  8
0
 10
-10.201
 20
-211.664
 11
-10.0905
 21
-211.901
  0
LINE
  8
0
 10
-10.0905
 20
-211.901
 11
-10.0228
 21
-212.153
  0
LINE
  8
0
 10
-10.0228
 20
-212.153
 11
-10
 21
-212.414
  0
LINE
  8
0
 10
-10
 20
-212.414
 11
-10.0228
 21
-212.674
  0
LINE
  8
0
 10
-10.0228
 20
-212.674
 11
-10.0905
 21
-212.927
  0
LINE
  8
0
 10
-10.0905
 20
-212.927
 11
-10.201
 21
-213.164
  0
LINE
  8
0
 10
-10.201
 20
-213.164
 11
-10.3509
 21
-213.378
  0
LINE
  8
0
 10
-10.3509
 20
-213.378
 11
-10.5358
 21
-213.563
  0
LINE
  8
0
 10
-10.5358
 20
-213.563
 11
-10.75
 21
-213.713
  0
LINE
  8
0
 10
-10.75
 20
-213.713
 11
-10.987
 21
-213.823
  0
LINE
  8
0
 10
-10.987
 20
-213.823
 11
-11.2395
 21
-213.891
  0
LINE
  8
0
 10
-11.2395
 20
-213.891
 11
-11.5
 21
-213.914
  0
LINE
  8
0
 10
-11.5
 20
-213.914
 11
-11.7605
 21
-213.891
  0
ENDSEC
  0
SECTION
  2
OBJECTS
  0
DICTIONARY
  0
ENDSEC
  0
EOF
