  0
SECTION
  2
BLOCKS
  0
ENDSEC
  0
SECTION
  2
ENTITIES
  0
LINE
  8
0
 10
5.25082
 20
-240.642
 11
10.4917
 21
-240.299
  0
LINE
  8
0
 10
10.4917
 20
-240.299
 11
15.7125
 21
-239.727
  0
LINE
  8
0
 10
15.7125
 20
-239.727
 11
20.9035
 21
-238.928
  0
LINE
  8
0
 10
20.9035
 20
-238.928
 11
26.0547
 21
-237.903
  0
LINE
  8
0
 10
26.0547
 20
-237.903
 11
31.1562
 21
-236.655
  0
LINE
  8
0
 10
31.1562
 20
-236.655
 11
36.1985
 21
-235.185
  0
LINE
  8
0
 10
36.1985
 20
-235.185
 11
41.1718
 21
-233.497
  0
LINE
  8
0
 10
41.1718
 20
-233.497
 11
46.0668
 21
-231.594
  0
LINE
  8
0
 10
46.0668
 20
-231.594
 11
50.8741
 21
-229.478
  0
LINE
  8
0
 10
50.8741
 20
-229.478
 11
55.5846
 21
-227.155
  0
LINE
  8
0
 10
55.5846
 20
-227.155
 11
60.1892
 21
-224.629
  0
LINE
  8
0
 10
60.1892
 20
-224.629
 11
64.6793
 21
-221.905
  0
LINE
  8
0
 10
64.6793
 20
-221.905
 11
69.0462
 21
-218.987
  0
LINE
  8
0
 10
69.0462
 20
-218.987
 11
73.2818
 21
-215.881
  0
LINE
  8
0
 10
73.2818
 20
-215.881
 11
77.3778
 21
-212.594
  0
LINE
  8
0
 10
77.3778
 20
-212.594
 11
81.3265
 21
-209.131
  0
LINE
  8
0
 10
81.3265
 20
-209.131
 11
85.1204
 21
-205.499
  0
LINE
  8
0
 10
85.1204
 20
-205.499
 11
88.7523
 21
-201.705
  0
LINE
  8
0
 10
88.7523
 20
-201.705
 11
92.2152
 21
-197.756
  0
LINE
  8
0
 10
92.2152
 20
-197.756
 11
95.5026
 21
-193.66
  0
LINE
  8
0
 10
95.5026
 20
-193.66
 11
98.6082
 21
-189.425
  0
LINE
  8
0
 10
98.6082
 20
-189.425
 11
101.526
 21
-185.058
  0
LINE
  8
0
 10
101.526
 20
-185.058
 11
104.251
 21
-180.568
  0
LINE
  8
0
 10
104.251
 20
-180.568
 11
106.777
 21
-175.963
  0
LINE
  8
0
 10
106.777
 20
-175.963
 11
109.1
 21
-171.253
  0
LINE
  8
0
 10
109.1
 20
-171.253
 11
111.215
 21
-166.445
  0
LINE
  8
0
 10
111.215
 20
-166.445
 11
113.119
 21
-161.55
  0
LINE
  8
0
 10
113.119
 20
-161.55
 11
114.807
 21
-156.577
  0
LINE
  8
0
 10
114.807
 20
-156.577
 11
116.277
 21
-151.535
  0
LINE
  8
0
 10
116.277
 20
-151.535
 11
117.525
 21
-146.433
  0
LINE
  8
0
 10
117.525
 20
-146.433
 11
118.55
 21
-141.282
  0
LINE
  8
0
 10
118.55
 20
-141.282
 11
119.349
 21
-136.091
  0
LINE
  8
0
 10
119.349
 20
-136.091
 11
119.92
 21
-130.87
  0
LINE
  8
0
 10
119.92
 20
-130.87
 11
120.264
 21
-125.629
  0
LINE
  8
0
 10
120.264
 20
-125.629
 11
120.378
 21
-120.378
  0
LINE
  8
0
 10
120.378
 20
-120.378
 11
120.264
 21
-115.128
  0
LINE
  8
0
 10
120.264
 20
-115.128
 11
119.92
 21
-109.887
  0
LINE
  8
0
 10
119.92
 20
-109.887
 11
119.349
 21
-104.666
  0
LINE
  8
0
 10
119.349
 20
-104.666
 11
118.55
 21
-99.4749
  0
LINE
  8
0
 10
118.55
 20
-99.4749
 11
117.525
 21
-94.3238
  0
LINE
  8
0
 10
117.525
 20
-94.3238
 11
116.277
 21
-89.2222
  0
LINE
  8
0
 10
116.277
 20
-89.2222
 11
114.807
 21
-84.1799
  0
LINE
  8
0
 10
114.807
 20
-84.1799
 11
113.119
 21
-79.2066
  0
LINE
  8
0
 10
113.119
 20
-79.2066
 11
111.215
 21
-74.3116
  0
LINE
  8
0
 10
111.215
 20
-74.3116
 11
109.1
 21
-69.5043
  0
LINE
  8
0
 10
109.1
 20
-69.5043
 11
106.777
 21
-64.7939
  0
LINE
  8
0
 10
106.777
 20
-64.7939
 11
104.251
 21
-60.1892
  0
LINE
  8
0
 10
104.251
 20
-60.1892
 11
101.526
 21
-55.6991
  0
LINE
  8
0
 10
101.526
 20
-55.6991
 11
98.6082
 21
-51.3322
  0
LINE
  8
0
 10
98.6082
 20
-51.3322
 11
95.5026
 21
-47.0967
  0
LINE
  8
0
 10
95.5026
 20
-47.0967
 11
92.2152
 21
-43.0007
  0
LINE
  8
0
 10
92.2152
 20
-43.0007
 11
88.7523
 21
-39.0519
  0
LINE
  8
0
 10
88.7523
 20
-39.0519
 11
85.1204
 21
-35.258
  0
LINE
  8
0
 10
85.1204
 20
-35.258
 11
81.3265
 21
-31.6261
  0
LINE
  8
0
 10
81.3265
 20
-31.6261
 11
77.3778
 21
-28.1632
  0
LINE
  8
0
 10
77.3778
 20
-28.1632
 11
73.2818
 21
-24.8758
  0
LINE
  8
0
 10
73.2818
 20
-24.8758
 11
69.0462
 21
-21.7702
  0
LINE
  8
0
 10
69.0462
 20
-21.7702
 11
64.6793
 21
-18.8523
  0
LINE
  8
0
 10
64.6793
 20
-18.8523
 11
60.1892
 21
-16.1276
  0
LINE
  8
0
 10
60.1892
 20
-16.1276
 11
55.5846
 21
-13.6015
  0
LINE
  8
0
 10
55.5846
 20
-13.6015
 11
50.8741
 21
-11.2785
  0
LINE
  8
0
 10
50.8741
 20
-11.2785
 11
46.0668
 21
-9.16325
  0
LINE
  8
0
 10
46.0668
 20
-9.16325
 11
41.1718
 21
-7.2597
  0
LINE
  8
0
 10
41.1718
 20
-7.2597
 11
36.1985
 21
-5.57147
  0
LINE
  8
0
 10
36.1985
 20
-5.57147
 11
31.1562
 21
-4.10179
  0
LINE
  8
0
 10
31.1562
 20
-4.10179
 11
26.0547
 21
-2.85344
  0
LINE
  8
0
 10
26.0547
 20
-2.85344
 11
20.9035
 21
-1.82881
  0
LINE
  8
0
 10
20.9035
 20
-1.82881
 11
15.7125
 21
-1.02985
  0
LINE
  8
0
 10
15.7125
 20
-1.02985
 11
10.4917
 21
-0.458069
  0
LINE
  8
0
 10
10.4917
 20
-0.458069
 11
5.25082
 21
-0.114563
  0
LINE
  8
0
 10
5.25082
 20
-0.114563
 11
0
 21
0
  0
LINE
  8
0
 10
0
 20
0
 11
-5.25082
 21
-0.114563
  0
LINE
  8
0
 10
-5.25082
 20
-0.114563
 11
-10.4917
 21
-0.458069
  0
LINE
  8
0
 10
-10.4917
 20
-0.458069
 11
-15.7125
 21
-1.02985
  0
LINE
  8
0
 10
-15.7125
 20
-1.02985
 11
-20.9035
 21
-1.82881
  0
LINE
  8
0
 10
-20.9035
 20
-1.82881
 11
-26.0547
 21
-2.85344
  0
LINE
  8
0
 10
-26.0547
 20
-2.85344
 11
-31.1562
 21
-4.10179
  0
LINE
  8
0
 10
-31.1562
 20
-4.10179
 11
-36.1985
 21
-5.57147
  0
LINE
  8
0
 10
-36.1985
 20
-5.57147
 11
-41.1718
 21
-7.2597
  0
LINE
  8
0
 10
-41.1718
 20
-7.2597
 11
-46.0668
 21
-9.16325
  0
LINE
  8
0
 10
-46.0668
 20
-9.16325
 11
-50.8741
 21
-11.2785
  0
LINE
  8
0
 10
-50.8741
 20
-11.2785
 11
-55.5846
 21
-13.6015
  0
LINE
  8
0
 10
-55.5846
 20
-13.6015
 11
-60.1892
 21
-16.1276
  0
LINE
  8
0
 10
-60.1892
 20
-16.1276
 11
-64.6793
 21
-18.8523
  0
LINE
  8
0
 10
-64.6793
 20
-18.8523
 11
-69.0462
 21
-21.7702
  0
LINE
  8
0
 10
-69.0462
 20
-21.7702
 11
-73.2818
 21
-24.8758
  0
LINE
  8
0
 10
-73.2818
 20
-24.8758
 11
-77.3778
 21
-28.1632
  0
LINE
  8
0
 10
-77.3778
 20
-28.1632
 11
-81.3265
 21
-31.6261
  0
LINE
  8
0
 10
-81.3265
 20
-31.6261
 11
-85.1204
 21
-35.258
  0
LINE
  8
0
 10
-85.1204
 20
-35.258
 11
-88.7523
 21
-39.0519
  0
LINE
  8
0
 10
-88.7523
 20
-39.0519
 11
-92.2152
 21
-43.0007
  0
LINE
  8
0
 10
-92.2152
 20
-43.0007
 11
-95.5026
 21
-47.0967
  0
LINE
  8
0
 10
-95.5026
 20
-47.0967
 11
-98.6082
 21
-51.3322
  0
LINE
  8
0
 10
-98.6082
 20
-51.3322
 11
-101.526
 21
-55.6991
  0
LINE
  8
0
 10
-101.526
 20
-55.6991
 11
-104.251
 21
-60.1892
  0
LINE
  8
0
 10
-104.251
 20
-60.1892
 11
-106.777
 21
-64.7939
  0
LINE
  8
0
 10
-106.777
 20
-64.7939
 11
-109.1
 21
-69.5043
  0
LINE
  8
0
 10
-109.1
 20
-69.5043
 11
-111.215
 21
-74.3116
  0
LINE
  8
0
 10
-111.215
 20
-74.3116
 11
-113.119
 21
-79.2066
  0
LINE
  8
0
 10
-113.119
 20
-79.2066
 11
-114.807
 21
-84.1799
  0
LINE
  8
0
 10
-114.807
 20
-84.1799
 11
-116.277
 21
-89.2222
  0
LINE
  8
0
 10
-116.277
 20
-89.2222
 11
-117.525
 21
-94.3238
  0
LINE
  8
0
 10
-117.525
 20
-94.3238
 11
-118.55
 21
-99.4749
  0
LINE
  8
0
 10
-118.55
 20
-99.4749
 11
-119.349
 21
-104.666
  0
LINE
  8
0
 10
-119.349
 20
-104.666
 11
-119.92
 21
-109.887
  0
LINE
  8
0
 10
-119.92
 20
-109.887
 11
-120.264
 21
-115.128
  0
LINE
  8
0
 10
-120.264
 20
-115.128
 11
-120.378
 21
-120.378
  0
LINE
  8
0
 10
-120.378
 20
-120.378
 11
-120.264
 21
-125.629
  0
LINE
  8
0
 10
-120.264
 20
-125.629
 11
-119.92
 21
-130.87
  0
LINE
  8
0
 10
-119.92
 20
-130.87
 11
-119.349
 21
-136.091
  0
LINE
  8
0
 10
-119.349
 20
-136.091
 11
-118.55
 21
-141.282
  0
LINE
  8
0
 10
-118.55
 20
-141.282
 11
-117.525
 21
-146.433
  0
LINE
  8
0
 10
-117.525
 20
-146.433
 11
-116.277
 21
-151.535
  0
LINE
  8
0
 10
-116.277
 20
-151.535
 11
-114.807
 21
-156.577
  0
LINE
  8
0
 10
-114.807
 20
-156.577
 11
-113.119
 21
-161.55
  0
LINE
  8
0
 10
-113.119
 20
-161.55
 11
-111.215
 21
-166.445
  0
LINE
  8
0
 10
-111.215
 20
-166.445
 11
-109.1
 21
-171.253
  0
LINE
  8
0
 10
-109.1
 20
-171.253
 11
-106.777
 21
-175.963
  0
LINE
  8
0
 10
-106.777
 20
-175.963
 11
-104.251
 21
-180.568
  0
LINE
  8
0
 10
-104.251
 20
-180.568
 11
-101.526
 21
-185.058
  0
LINE
  8
0
 10
-101.526
 20
-185.058
 11
-98.6082
 21
-189.425
  0
LINE
  8
0
 10
-98.6082
 20
-189.425
 11
-95.5026
 21
-193.66
  0
LINE
  8
0
 10
-95.5026
 20
-193.66
 11
-92.2152
 21
-197.756
  0
LINE
  8
0
 10
-92.2152
 20
-197.756
 11
-88.7523
 21
-201.705
  0
LINE
  8
0
 10
-88.7523
 20
-201.705
 11
-85.1204
 21
-205.499
  0
LINE
  8
0
 10
-85.1204
 20
-205.499
 11
-81.3265
 21
-209.131
  0
LINE
  8
0
 10
-81.3265
 20
-209.131
 11
-77.3778
 21
-212.594
  0
LINE
  8
0
 10
-77.3778
 20
-212.594
 11
-73.2818
 21
-215.881
  0
LINE
  8
0
 10
-73.2818
 20
-215.881
 11
-69.0462
 21
-218.987
  0
LINE
  8
0
 10
-69.0462
 20
-218.987
 11
-64.6793
 21
-221.905
  0
LINE
  8
0
 10
-64.6793
 20
-221.905
 11
-60.1892
 21
-224.629
  0
LINE
  8
0
 10
-60.1892
 20
-224.629
 11
-55.5846
 21
-227.155
  0
LINE
  8
0
 10
-55.5846
 20
-227.155
 11
-50.8741
 21
-229.478
  0
LINE
  8
0
 10
-50.8741
 20
-229.478
 11
-46.0668
 21
-231.594
  0
LINE
  8
0
 10
-46.0668
 20
-231.594
 11
-41.1718
 21
-233.497
  0
LINE
  8
0
 10
-41.1718
 20
-233.497
 11
-36.1985
 21
-235.185
  0
LINE
  8
0
 10
-36.1985
 20
-235.185
 11
-31.1562
 21
-236.655
  0
LINE
  8
0
 10
-31.1562
 20
-236.655
 11
-26.0547
 21
-237.903
  0
LINE
  8
0
 10
-26.0547
 20
-237.903
 11
-20.9035
 21
-238.928
  0
LINE
  8
0
 10
-20.9035
 20
-238.928
 11
-15.7125
 21
-239.727
  0
LINE
  8
0
 10
-15.7125
 20
-239.727
 11
-10.4917
 21
-240.299
  0
LINE
  8
0
 10
-10.4917
 20
-240.299
 11
-5.25082
 21
-240.642
  0
LINE
  8
0
 10
-5.25082
 20
-240.642
 11
0
 21
-240.757
  0
LINE
  8
0
 10
0
 20
-240.757
 11
5.25082
 21
-240.642
  0
LINE
  8
0
 10
-25.2605
 20
-36.4155
 11
-25.513
 21
-36.3478
  0
LINE
  8
0
 10
-25.513
 20
-36.3478
 11
-25.75
 21
-36.2373
  0
LINE
  8
0
 10
-25.75
 20
-36.2373
 11
-25.9642
 21
-36.0873
  0
LINE
  8
0
 10
-25.9642
 20
-36.0873
 11
-26.1491
 21
-35.9024
  0
LINE
  8
0
 10
-26.1491
 20
-35.9024
 11
-26.299
 21
-35.6882
  0
LINE
  8
0
 10
-26.299
 20
-35.6882
 11
-26.4095
 21
-35.4513
  0
LINE
  8
0
 10
-26.4095
 20
-35.4513
 11
-26.4772
 21
-35.1987
  0
LINE
  8
0
 10
-26.4772
 20
-35.1987
 11
-26.5
 21
-34.9382
  0
LINE
  8
0
 10
-26.5
 20
-34.9382
 11
-26.4772
 21
-34.6778
  0
LINE
  8
0
 10
-26.4772
 20
-34.6778
 11
-26.4095
 21
-34.4252
  0
LINE
  8
0
 10
-26.4095
 20
-34.4252
 11
-26.299
 21
-34.1882
  0
LINE
  8
0
 10
-26.299
 20
-34.1882
 11
-26.1491
 21
-33.9741
  0
LINE
  8
0
 10
-26.1491
 20
-33.9741
 11
-25.9642
 21
-33.7892
  0
LINE
  8
0
 10
-25.9642
 20
-33.7892
 11
-25.75
 21
-33.6392
  0
LINE
  8
0
 10
-25.75
 20
-33.6392
 11
-25.513
 21
-33.5287
  0
LINE
  8
0
 10
-25.513
 20
-33.5287
 11
-25.2605
 21
-33.461
  0
LINE
  8
0
 10
-25.2605
 20
-33.461
 11
-25
 21
-33.4382
  0
LINE
  8
0
 10
-25
 20
-33.4382
 11
-24.7395
 21
-33.461
  0
LINE
  8
0
 10
-24.7395
 20
-33.461
 11
-24.487
 21
-33.5287
  0
LINE
  8
0
 10
-24.487
 20
-33.5287
 11
-24.25
 21
-33.6392
  0
LINE
  8
0
 10
-24.25
 20
-33.6392
 11
-24.0358
 21
-33.7892
  0
LINE
  8
0
 10
-24.0358
 20
-33.7892
 11
-23.8509
 21
-33.9741
  0
LINE
  8
0
 10
-23.8509
 20
-33.9741
 11
-23.701
 21
-34.1882
  0
LINE
  8
0
 10
-23.701
 20
-34.1882
 11
-23.5905
 21
-34.4252
  0
LINE
  8
0
 10
-23.5905
 20
-34.4252
 11
-23.5228
 21
-34.6778
  0
LINE
  8
0
 10
-23.5228
 20
-34.6778
 11
-23.5
 21
-34.9382
  0
LINE
  8
0
 10
-23.5
 20
-34.9382
 11
-23.5228
 21
-35.1987
  0
LINE
  8
0
 10
-23.5228
 20
-35.1987
 11
-23.5905
 21
-35.4513
  0
LINE
  8
0
 10
-23.5905
 20
-35.4513
 11
-23.701
 21
-35.6882
  0
LINE
  8
0
 10
-23.701
 20
-35.6882
 11
-23.8509
 21
-35.9024
  0
LINE
  8
0
 10
-23.8509
 20
-35.9024
 11
-24.0358
 21
-36.0873
  0
LINE
  8
0
 10
-24.0358
 20
-36.0873
 11
-24.25
 21
-36.2373
  0
LINE
  8
0
 10
-24.25
 20
-36.2373
 11
-24.487
 21
-36.3478
  0
LINE
  8
0
 10
-24.487
 20
-36.3478
 11
-24.7395
 21
-36.4155
  0
LINE
  8
0
 10
-24.7395
 20
-36.4155
 11
-25
 21
-36.4382
  0
LINE
  8
0
 10
-25
 20
-36.4382
 11
-25.2605
 21
-36.4155
  0
LINE
  8
0
 10
24.7395
 20
-36.4155
 11
24.487
 21
-36.3478
  0
LINE
  8
0
 10
24.487
 20
-36.3478
 11
24.25
 21
-36.2373
  0
LINE
  8
0
 10
24.25
 20
-36.2373
 11
24.0358
 21
-36.0873
  0
LINE
  8
0
 10
24.0358
 20
-36.0873
 11
23.8509
 21
-35.9024
  0
LINE
  8
0
 10
23.8509
 20
-35.9024
 11
23.701
 21
-35.6882
  0
LINE
  8
0
 10
23.701
 20
-35.6882
 11
23.5905
 21
-35.4513
  0
LINE
  8
0
 10
23.5905
 20
-35.4513
 11
23.5228
 21
-35.1987
  0
LINE
  8
0
 10
23.5228
 20
-35.1987
 11
23.5
 21
-34.9382
  0
LINE
  8
0
 10
23.5
 20
-34.9382
 11
23.5228
 21
-34.6778
  0
LINE
  8
0
 10
23.5228
 20
-34.6778
 11
23.5905
 21
-34.4252
  0
LINE
  8
0
 10
23.5905
 20
-34.4252
 11
23.701
 21
-34.1882
  0
LINE
  8
0
 10
23.701
 20
-34.1882
 11
23.8509
 21
-33.9741
  0
LINE
  8
0
 10
23.8509
 20
-33.9741
 11
24.0358
 21
-33.7892
  0
LINE
  8
0
 10
24.0358
 20
-33.7892
 11
24.25
 21
-33.6392
  0
LINE
  8
0
 10
24.25
 20
-33.6392
 11
24.487
 21
-33.5287
  0
LINE
  8
0
 10
24.487
 20
-33.5287
 11
24.7395
 21
-33.461
  0
LINE
  8
0
 10
24.7395
 20
-33.461
 11
25
 21
-33.4382
  0
LINE
  8
0
 10
25
 20
-33.4382
 11
25.2605
 21
-33.461
  0
LINE
  8
0
 10
25.2605
 20
-33.461
 11
25.513
 21
-33.5287
  0
LINE
  8
0
 10
25.513
 20
-33.5287
 11
25.75
 21
-33.6392
  0
LINE
  8
0
 10
25.75
 20
-33.6392
 11
25.9642
 21
-33.7892
  0
LINE
  8
0
 10
25.9642
 20
-33.7892
 11
26.1491
 21
-33.9741
  0
LINE
  8
0
 10
26.1491
 20
-33.9741
 11
26.299
 21
-34.1882
  0
LINE
  8
0
 10
26.299
 20
-34.1882
 11
26.4095
 21
-34.4252
  0
LINE
  8
0
 10
26.4095
 20
-34.4252
 11
26.4772
 21
-34.6778
  0
LINE
  8
0
 10
26.4772
 20
-34.6778
 11
26.5
 21
-34.9382
  0
LINE
  8
0
 10
26.5
 20
-34.9382
 11
26.4772
 21
-35.1987
  0
LINE
  8
0
 10
26.4772
 20
-35.1987
 11
26.4095
 21
-35.4513
  0
LINE
  8
0
 10
26.4095
 20
-35.4513
 11
26.299
 21
-35.6882
  0
LINE
  8
0
 10
26.299
 20
-35.6882
 11
26.1491
 21
-35.9024
  0
LINE
  8
0
 10
26.1491
 20
-35.9024
 11
25.9642
 21
-36.0873
  0
LINE
  8
0
 10
25.9642
 20
-36.0873
 11
25.75
 21
-36.2373
  0
LINE
  8
0
 10
25.75
 20
-36.2373
 11
25.513
 21
-36.3478
  0
LINE
  8
0
 10
25.513
 20
-36.3478
 11
25.2605
 21
-36.4155
  0
LINE
  8
0
 10
25.2605
 20
-36.4155
 11
25
 21
-36.4382
  0
LINE
  8
0
 10
25
 20
-36.4382
 11
24.7395
 21
-36.4155
  0
LINE
  8
0
 10
-2.75435
 20
-183.464
 11
-5.50346
 21
-183.283
  0
LINE
  8
0
 10
-5.50346
 20
-183.283
 11
-8.2421
 21
-182.983
  0
LINE
  8
0
 10
-8.2421
 20
-182.983
 11
-10.965
 21
-182.564
  0
LINE
  8
0
 10
-10.965
 20
-182.564
 11
-13.6671
 21
-182.027
  0
LINE
  8
0
 10
-13.6671
 20
-182.027
 11
-16.3432
 21
-181.372
  0
LINE
  8
0
 10
-16.3432
 20
-181.372
 11
-18.9881
 21
-180.601
  0
LINE
  8
0
 10
-18.9881
 20
-180.601
 11
-21.5969
 21
-179.716
  0
LINE
  8
0
 10
-21.5969
 20
-179.716
 11
-24.1646
 21
-178.717
  0
LINE
  8
0
 10
-24.1646
 20
-178.717
 11
-26.6863
 21
-177.607
  0
LINE
  8
0
 10
-26.6863
 20
-177.607
 11
-29.1572
 21
-176.389
  0
LINE
  8
0
 10
-29.1572
 20
-176.389
 11
-31.5726
 21
-175.064
  0
LINE
  8
0
 10
-31.5726
 20
-175.064
 11
-33.9279
 21
-173.635
  0
LINE
  8
0
 10
-33.9279
 20
-173.635
 11
-36.2186
 21
-172.104
  0
LINE
  8
0
 10
-36.2186
 20
-172.104
 11
-38.4404
 21
-170.475
  0
LINE
  8
0
 10
-38.4404
 20
-170.475
 11
-40.5889
 21
-168.75
  0
LINE
  8
0
 10
-40.5889
 20
-168.75
 11
-42.6603
 21
-166.934
  0
LINE
  8
0
 10
-42.6603
 20
-166.934
 11
-44.6504
 21
-165.029
  0
LINE
  8
0
 10
-44.6504
 20
-165.029
 11
-46.5555
 21
-163.039
  0
LINE
  8
0
 10
-46.5555
 20
-163.039
 11
-48.372
 21
-160.967
  0
LINE
  8
0
 10
-48.372
 20
-160.967
 11
-50.0964
 21
-158.819
  0
LINE
  8
0
 10
-50.0964
 20
-158.819
 11
-51.7255
 21
-156.597
  0
LINE
  8
0
 10
-51.7255
 20
-156.597
 11
-53.2561
 21
-154.306
  0
LINE
  8
0
 10
-53.2561
 20
-154.306
 11
-54.6853
 21
-151.951
  0
LINE
  8
0
 10
-54.6853
 20
-151.951
 11
-56.0105
 21
-149.536
  0
LINE
  8
0
 10
-56.0105
 20
-149.536
 11
-57.229
 21
-147.065
  0
LINE
  8
0
 10
-57.229
 20
-147.065
 11
-58.3385
 21
-144.543
  0
LINE
  8
0
 10
-58.3385
 20
-144.543
 11
-59.3371
 21
-141.975
  0
LINE
  8
0
 10
-59.3371
 20
-141.975
 11
-60.2226
 21
-139.367
  0
LINE
  8
0
 10
-60.2226
 20
-139.367
 11
-60.9936
 21
-136.722
  0
LINE
  8
0
 10
-60.9936
 20
-136.722
 11
-61.6484
 21
-134.046
  0
LINE
  8
0
 10
-61.6484
 20
-134.046
 11
-62.1859
 21
-131.343
  0
LINE
  8
0
 10
-62.1859
 20
-131.343
 11
-62.605
 21
-128.621
  0
LINE
  8
0
 10
-62.605
 20
-128.621
 11
-62.9049
 21
-125.882
  0
LINE
  8
0
 10
-62.9049
 20
-125.882
 11
-63.0851
 21
-123.133
  0
LINE
  8
0
 10
-63.0851
 20
-123.133
 11
-63.1452
 21
-120.378
  0
LINE
  8
0
 10
-63.1452
 20
-120.378
 11
-63.0851
 21
-117.624
  0
LINE
  8
0
 10
-63.0851
 20
-117.624
 11
-62.9049
 21
-114.875
  0
LINE
  8
0
 10
-62.9049
 20
-114.875
 11
-62.605
 21
-112.136
  0
LINE
  8
0
 10
-62.605
 20
-112.136
 11
-62.1859
 21
-109.413
  0
LINE
  8
0
 10
-62.1859
 20
-109.413
 11
-61.6484
 21
-106.711
  0
LINE
  8
0
 10
-61.6484
 20
-106.711
 11
-60.9936
 21
-104.035
  0
LINE
  8
0
 10
-60.9936
 20
-104.035
 11
-60.2226
 21
-101.39
  0
LINE
  8
0
 10
-60.2226
 20
-101.39
 11
-59.3371
 21
-98.7815
  0
LINE
  8
0
 10
-59.3371
 20
-98.7815
 11
-58.3385
 21
-96.2138
  0
LINE
  8
0
 10
-58.3385
 20
-96.2138
 11
-58.1451
 21
-95.7742
  0
LINE
  8
0
 10
-58.1451
 20
-95.7742
 11
-58.1451
 21
-39.9382
  0
LINE
  8
0
 10
-58.1451
 20
-39.9382
 11
-58.1223
 21
-39.6778
  0
LINE
  8
0
 10
-58.1223
 20
-39.6778
 11
-58.0547
 21
-39.4252
  0
LINE
  8
0
 10
-58.0547
 20
-39.4252
 11
-57.9442
 21
-39.1882
  0
LINE
  8
0
 10
-57.9442
 20
-39.1882
 11
-57.7942
 21
-38.9741
  0
LINE
  8
0
 10
-57.7942
 20
-38.9741
 11
-57.6093
 21
-38.7892
  0
LINE
  8
0
 10
-57.6093
 20
-38.7892
 11
-57.3951
 21
-38.6392
  0
LINE
  8
0
 10
-57.3951
 20
-38.6392
 11
-57.1581
 21
-38.5287
  0
LINE
  8
0
 10
-57.1581
 20
-38.5287
 11
-56.9056
 21
-38.461
  0
LINE
  8
0
 10
-56.9056
 20
-38.461
 11
-56.6451
 21
-38.4382
  0
LINE
  8
0
 10
-56.6451
 20
-38.4382
 11
-56.3846
 21
-38.461
  0
LINE
  8
0
 10
-56.3846
 20
-38.461
 11
-56.1321
 21
-38.5287
  0
LINE
  8
0
 10
-56.1321
 20
-38.5287
 11
-55.8951
 21
-38.6392
  0
LINE
  8
0
 10
-55.8951
 20
-38.6392
 11
-55.6809
 21
-38.7892
  0
LINE
  8
0
 10
-55.6809
 20
-38.7892
 11
-55.496
 21
-38.9741
  0
LINE
  8
0
 10
-55.496
 20
-38.9741
 11
-55.3461
 21
-39.1882
  0
LINE
  8
0
 10
-55.3461
 20
-39.1882
 11
-55.2356
 21
-39.4252
  0
LINE
  8
0
 10
-55.2356
 20
-39.4252
 11
-55.1679
 21
-39.6778
  0
LINE
  8
0
 10
-55.1679
 20
-39.6778
 11
-55.1451
 21
-39.9382
  0
LINE
  8
0
 10
-55.1451
 20
-39.9382
 11
55.1451
 21
-39.9382
  0
LINE
  8
0
 10
55.1451
 20
-39.9382
 11
55.1679
 21
-39.6778
  0
LINE
  8
0
 10
55.1679
 20
-39.6778
 11
55.2356
 21
-39.4252
  0
LINE
  8
0
 10
55.2356
 20
-39.4252
 11
55.3461
 21
-39.1882
  0
LINE
  8
0
 10
55.3461
 20
-39.1882
 11
55.496
 21
-38.9741
  0
LINE
  8
0
 10
55.496
 20
-38.9741
 11
55.6809
 21
-38.7892
  0
LINE
  8
0
 10
55.6809
 20
-38.7892
 11
55.8951
 21
-38.6392
  0
LINE
  8
0
 10
55.8951
 20
-38.6392
 11
56.1321
 21
-38.5287
  0
LINE
  8
0
 10
56.1321
 20
-38.5287
 11
56.3846
 21
-38.461
  0
LINE
  8
0
 10
56.3846
 20
-38.461
 11
56.6451
 21
-38.4382
  0
LINE
  8
0
 10
56.6451
 20
-38.4382
 11
56.9056
 21
-38.461
  0
LINE
  8
0
 10
56.9056
 20
-38.461
 11
57.1581
 21
-38.5287
  0
LINE
  8
0
 10
57.1581
 20
-38.5287
 11
57.3951
 21
-38.6392
  0
LINE
  8
0
 10
57.3951
 20
-38.6392
 11
57.6093
 21
-38.7892
  0
LINE
  8
0
 10
57.6093
 20
-38.7892
 11
57.7942
 21
-38.9741
  0
LINE
  8
0
 10
57.7942
 20
-38.9741
 11
57.9442
 21
-39.1882
  0
LINE
  8
0
 10
57.9442
 20
-39.1882
 11
58.0547
 21
-39.4252
  0
LINE
  8
0
 10
58.0547
 20
-39.4252
 11
58.1223
 21
-39.6778
  0
LINE
  8
0
 10
58.1223
 20
-39.6778
 11
58.1451
 21
-39.9382
  0
LINE
  8
0
 10
58.1451
 20
-39.9382
 11
58.1451
 21
-95.7742
  0
LINE
  8
0
 10
58.1451
 20
-95.7742
 11
58.3385
 21
-96.2138
  0
LINE
  8
0
 10
58.3385
 20
-96.2138
 11
59.3371
 21
-98.7815
  0
LINE
  8
0
 10
59.3371
 20
-98.7815
 11
60.2226
 21
-101.39
  0
LINE
  8
0
 10
60.2226
 20
-101.39
 11
60.9936
 21
-104.035
  0
LINE
  8
0
 10
60.9936
 20
-104.035
 11
61.6484
 21
-106.711
  0
LINE
  8
0
 10
61.6484
 20
-106.711
 11
62.1859
 21
-109.413
  0
LINE
  8
0
 10
62.1859
 20
-109.413
 11
62.605
 21
-112.136
  0
LINE
  8
0
 10
62.605
 20
-112.136
 11
62.9049
 21
-114.875
  0
LINE
  8
0
 10
62.9049
 20
-114.875
 11
63.0851
 21
-117.624
  0
LINE
  8
0
 10
63.0851
 20
-117.624
 11
63.1452
 21
-120.378
  0
LINE
  8
0
 10
63.1452
 20
-120.378
 11
63.0851
 21
-123.133
  0
LINE
  8
0
 10
63.0851
 20
-123.133
 11
62.9049
 21
-125.882
  0
LINE
  8
0
 10
62.9049
 20
-125.882
 11
62.605
 21
-128.621
  0
LINE
  8
0
 10
62.605
 20
-128.621
 11
62.1859
 21
-131.343
  0
LINE
  8
0
 10
62.1859
 20
-131.343
 11
61.6484
 21
-134.046
  0
LINE
  8
0
 10
61.6484
 20
-134.046
 11
60.9936
 21
-136.722
  0
LINE
  8
0
 10
60.9936
 20
-136.722
 11
60.2226
 21
-139.367
  0
LINE
  8
0
 10
60.2226
 20
-139.367
 11
59.3371
 21
-141.975
  0
LINE
  8
0
 10
59.3371
 20
-141.975
 11
58.3385
 21
-144.543
  0
LINE
  8
0
 10
58.3385
 20
-144.543
 11
57.229
 21
-147.065
  0
LINE
  8
0
 10
57.229
 20
-147.065
 11
56.0105
 21
-149.536
  0
LINE
  8
0
 10
56.0105
 20
-149.536
 11
54.6853
 21
-151.951
  0
LINE
  8
0
 10
54.6853
 20
-151.951
 11
53.2561
 21
-154.306
  0
LINE
  8
0
 10
53.2561
 20
-154.306
 11
51.7255
 21
-156.597
  0
LINE
  8
0
 10
51.7255
 20
-156.597
 11
50.0964
 21
-158.819
  0
LINE
  8
0
 10
50.0964
 20
-158.819
 11
48.372
 21
-160.967
  0
LINE
  8
0
 10
48.372
 20
-160.967
 11
46.5555
 21
-163.039
  0
LINE
  8
0
 10
46.5555
 20
-163.039
 11
44.6504
 21
-165.029
  0
LINE
  8
0
 10
44.6504
 20
-165.029
 11
42.6603
 21
-166.934
  0
LINE
  8
0
 10
42.6603
 20
-166.934
 11
40.5889
 21
-168.75
  0
LINE
  8
0
 10
40.5889
 20
-168.75
 11
38.4404
 21
-170.475
  0
LINE
  8
0
 10
38.4404
 20
-170.475
 11
36.2186
 21
-172.104
  0
LINE
  8
0
 10
36.2186
 20
-172.104
 11
33.9279
 21
-173.635
  0
LINE
  8
0
 10
33.9279
 20
-173.635
 11
31.5726
 21
-175.064
  0
LINE
  8
0
 10
31.5726
 20
-175.064
 11
29.1572
 21
-176.389
  0
LINE
  8
0
 10
29.1572
 20
-176.389
 11
26.6863
 21
-177.607
  0
LINE
  8
0
 10
26.6863
 20
-177.607
 11
24.1646
 21
-178.717
  0
LINE
  8
0
 10
24.1646
 20
-178.717
 11
21.5969
 21
-179.716
  0
LINE
  8
0
 10
21.5969
 20
-179.716
 11
18.9881
 21
-180.601
  0
LINE
  8
0
 10
18.9881
 20
-180.601
 11
16.3432
 21
-181.372
  0
LINE
  8
0
 10
16.3432
 20
-181.372
 11
13.6671
 21
-182.027
  0
LINE
  8
0
 10
13.6671
 20
-182.027
 11
10.965
 21
-182.564
  0
LINE
  8
0
 10
10.965
 20
-182.564
 11
8.2421
 21
-182.983
  0
LINE
  8
0
 10
8.2421
 20
-182.983
 11
5.50346
 21
-183.283
  0
LINE
  8
0
 10
5.50346
 20
-183.283
 11
2.75435
 21
-183.464
  0
LINE
  8
0
 10
2.75435
 20
-183.464
 11
0
 21
-183.524
  0
LINE
  8
0
 10
0
 20
-183.524
 11
-2.75435
 21
-183.464
  0
LINE
  8
0
 10
2.20592
 20
-145.592
 11
4.39507
 21
-145.304
  0
LINE
  8
0
 10
4.39507
 20
-145.304
 11
6.55075
 21
-144.826
  0
LINE
  8
0
 10
6.55075
 20
-144.826
 11
8.65659
 21
-144.162
  0
LINE
  8
0
 10
8.65659
 20
-144.162
 11
10.6965
 21
-143.317
  0
LINE
  8
0
 10
10.6965
 20
-143.317
 11
12.6551
 21
-142.298
  0
LINE
  8
0
 10
12.6551
 20
-142.298
 11
14.5173
 21
-141.111
  0
LINE
  8
0
 10
14.5173
 20
-141.111
 11
16.2691
 21
-139.767
  0
LINE
  8
0
 10
16.2691
 20
-139.767
 11
17.897
 21
-138.275
  0
LINE
  8
0
 10
17.897
 20
-138.275
 11
19.3887
 21
-136.648
  0
LINE
  8
0
 10
19.3887
 20
-136.648
 11
20.7329
 21
-134.896
  0
LINE
  8
0
 10
20.7329
 20
-134.896
 11
21.9193
 21
-133.034
  0
LINE
  8
0
 10
21.9193
 20
-133.034
 11
22.9388
 21
-131.075
  0
LINE
  8
0
 10
22.9388
 20
-131.075
 11
23.7838
 21
-129.035
  0
LINE
  8
0
 10
23.7838
 20
-129.035
 11
24.4478
 21
-126.929
  0
LINE
  8
0
 10
24.4478
 20
-126.929
 11
24.9257
 21
-124.774
  0
LINE
  8
0
 10
24.9257
 20
-124.774
 11
25.2139
 21
-122.584
  0
LINE
  8
0
 10
25.2139
 20
-122.584
 11
25.3102
 21
-120.378
  0
LINE
  8
0
 10
25.3102
 20
-120.378
 11
25.2139
 21
-118.173
  0
LINE
  8
0
 10
25.2139
 20
-118.173
 11
24.9257
 21
-115.983
  0
LINE
  8
0
 10
24.9257
 20
-115.983
 11
24.4478
 21
-113.828
  0
LINE
  8
0
 10
24.4478
 20
-113.828
 11
23.7838
 21
-111.722
  0
LINE
  8
0
 10
23.7838
 20
-111.722
 11
22.9388
 21
-109.682
  0
LINE
  8
0
 10
22.9388
 20
-109.682
 11
21.9193
 21
-107.723
  0
LINE
  8
0
 10
21.9193
 20
-107.723
 11
20.7329
 21
-105.861
  0
LINE
  8
0
 10
20.7329
 20
-105.861
 11
19.3887
 21
-104.109
  0
LINE
  8
0
 10
19.3887
 20
-104.109
 11
17.897
 21
-102.481
  0
LINE
  8
0
 10
17.897
 20
-102.481
 11
16.2691
 21
-100.99
  0
LINE
  8
0
 10
16.2691
 20
-100.99
 11
14.5173
 21
-99.6456
  0
LINE
  8
0
 10
14.5173
 20
-99.6456
 11
12.6551
 21
-98.4592
  0
LINE
  8
0
 10
12.6551
 20
-98.4592
 11
10.6965
 21
-97.4396
  0
LINE
  8
0
 10
10.6965
 20
-97.4396
 11
8.65659
 21
-96.5947
  0
LINE
  8
0
 10
8.65659
 20
-96.5947
 11
6.55075
 21
-95.9307
  0
LINE
  8
0
 10
6.55075
 20
-95.9307
 11
4.39507
 21
-95.4528
  0
LINE
  8
0
 10
4.39507
 20
-95.4528
 11
2.20592
 21
-95.1646
  0
LINE
  8
0
 10
2.20592
 20
-95.1646
 11
0
 21
-95.0683
  0
LINE
  8
0
 10
0
 20
-95.0683
 11
-2.20592
 21
-95.1646
  0
LINE
  8
0
 10
-2.20592
 20
-95.1646
 11
-4.39507
 21
-95.4528
  0
LINE
  8
0
 10
-4.39507
 20
-95.4528
 11
-6.55075
 21
-95.9307
  0
LINE
  8
0
 10
-6.55075
 20
-95.9307
 11
-8.65659
 21
-96.5947
  0
LINE
  8
0
 10
-8.65659
 20
-96.5947
 11
-10.6965
 21
-97.4396
  0
LINE
  8
0
 10
-10.6965
 20
-97.4396
 11
-12.6551
 21
-98.4592
  0
LINE
  8
0
 10
-12.6551
 20
-98.4592
 11
-14.5173
 21
-99.6456
  0
LINE
  8
0
 10
-14.5173
 20
-99.6456
 11
-16.2691
 21
-100.99
  0
LINE
  8
0
 10
-16.2691
 20
-100.99
 11
-17.897
 21
-102.481
  0
LINE
  8
0
 10
-17.897
 20
-102.481
 11
-19.3887
 21
-104.109
  0
LINE
  8
0
 10
-19.3887
 20
-104.109
 11
-20.7329
 21
-105.861
  0
LINE
  8
0
 10
-20.7329
 20
-105.861
 11
-21.9193
 21
-107.723
  0
LINE
  8
0
 10
-21.9193
 20
-107.723
 11
-22.9388
 21
-109.682
  0
LINE
  8
0
 10
-22.9388
 20
-109.682
 11
-23.7838
 21
-111.722
  0
LINE
  8
0
 10
-23.7838
 20
-111.722
 11
-24.4478
 21
-113.828
  0
LINE
  8
0
 10
-24.4478
 20
-113.828
 11
-24.9257
 21
-115.983
  0
LINE
  8
0
 10
-24.9257
 20
-115.983
 11
-25.2139
 21
-118.173
  0
LINE
  8
0
 10
-25.2139
 20
-118.173
 11
-25.3102
 21
-120.378
  0
LINE
  8
0
 10
-25.3102
 20
-120.378
 11
-25.2139
 21
-122.584
  0
LINE
  8
0
 10
-25.2139
 20
-122.584
 11
-24.9257
 21
-124.774
  0
LINE
  8
0
 10
-24.9257
 20
-124.774
 11
-24.4478
 21
-126.929
  0
LINE
  8
0
 10
-24.4478
 20
-126.929
 11
-23.7838
 21
-129.035
  0
LINE
  8
0
 10
-23.7838
 20
-129.035
 11
-22.9388
 21
-131.075
  0
LINE
  8
0
 10
-22.9388
 20
-131.075
 11
-21.9193
 21
-133.034
  0
LINE
  8
0
 10
-21.9193
 20
-133.034
 11
-20.7329
 21
-134.896
  0
LINE
  8
0
 10
-20.7329
 20
-134.896
 11
-19.3887
 21
-136.648
  0
LINE
  8
0
 10
-19.3887
 20
-136.648
 11
-17.897
 21
-138.275
  0
LINE
  8
0
 10
-17.897
 20
-138.275
 11
-16.2691
 21
-139.767
  0
LINE
  8
0
 10
-16.2691
 20
-139.767
 11
-14.5173
 21
-141.111
  0
LINE
  8
0
 10
-14.5173
 20
-141.111
 11
-12.6551
 21
-142.298
  0
LINE
  8
0
 10
-12.6551
 20
-142.298
 11
-10.6965
 21
-143.317
  0
LINE
  8
0
 10
-10.6965
 20
-143.317
 11
-8.65659
 21
-144.162
  0
LINE
  8
0
 10
-8.65659
 20
-144.162
 11
-6.55075
 21
-144.826
  0
LINE
  8
0
 10
-6.55075
 20
-144.826
 11
-4.39507
 21
-145.304
  0
LINE
  8
0
 10
-4.39507
 20
-145.304
 11
-2.20592
 21
-145.592
  0
LINE
  8
0
 10
-2.20592
 20
-145.592
 11
0
 21
-145.689
  0
LINE
  8
0
 10
0
 20
-145.689
 11
2.20592
 21
-145.592
  0
LINE
  8
0
 10
-0.173645
 20
-103.03
 11
-0.34201
 21
-102.917
  0
LINE
  8
0
 10
-0.34201
 20
-102.917
 11
-0.499985
 21
-102.733
  0
LINE
  8
0
 10
-0.499985
 20
-102.733
 11
-0.642776
 21
-102.483
  0
LINE
  8
0
 10
-0.642776
 20
-102.483
 11
-0.766037
 21
-102.175
  0
LINE
  8
0
 10
-0.766037
 20
-102.175
 11
-0.866013
 21
-101.818
  0
LINE
  8
0
 10
-0.866013
 20
-101.818
 11
-0.939682
 21
-101.423
  0
LINE
  8
0
 10
-0.939682
 20
-101.423
 11
-0.984802
 21
-101.002
  0
LINE
  8
0
 10
-0.984802
 20
-101.002
 11
-0.999985
 21
-100.568
  0
LINE
  8
0
 10
-0.999985
 20
-100.568
 11
-0.984802
 21
-100.134
  0
LINE
  8
0
 10
-0.984802
 20
-100.134
 11
-0.939682
 21
-99.7132
  0
LINE
  8
0
 10
-0.939682
 20
-99.7132
 11
-0.866013
 21
-99.3183
  0
LINE
  8
0
 10
-0.866013
 20
-99.3183
 11
-0.766037
 21
-98.9613
  0
LINE
  8
0
 10
-0.766037
 20
-98.9613
 11
-0.642776
 21
-98.6531
  0
LINE
  8
0
 10
-0.642776
 20
-98.6531
 11
-0.499985
 21
-98.4032
  0
LINE
  8
0
 10
-0.499985
 20
-98.4032
 11
-0.34201
 21
-98.219
  0
LINE
  8
0
 10
-0.34201
 20
-98.219
 11
-0.173645
 21
-98.1062
  0
LINE
  8
0
 10
-0.173645
 20
-98.1062
 11
0
 21
-98.0683
  0
LINE
  8
0
 10
0
 20
-98.0683
 11
0.173645
 21
-98.1062
  0
LINE
  8
0
 10
0.173645
 20
-98.1062
 11
0.34201
 21
-98.219
  0
LINE
  8
0
 10
0.34201
 20
-98.219
 11
0.5
 21
-98.4032
  0
LINE
  8
0
 10
0.5
 20
-98.4032
 11
0.642776
 21
-98.6531
  0
LINE
  8
0
 10
0.642776
 20
-98.6531
 11
0.766037
 21
-98.9613
  0
LINE
  8
0
 10
0.766037
 20
-98.9613
 11
0.866013
 21
-99.3183
  0
LINE
  8
0
 10
0.866013
 20
-99.3183
 11
0.939682
 21
-99.7132
  0
LINE
  8
0
 10
0.939682
 20
-99.7132
 11
0.984802
 21
-100.134
  0
LINE
  8
0
 10
0.984802
 20
-100.134
 11
1
 21
-100.568
  0
LINE
  8
0
 10
1
 20
-100.568
 11
0.984802
 21
-101.002
  0
LINE
  8
0
 10
0.984802
 20
-101.002
 11
0.939682
 21
-101.423
  0
LINE
  8
0
 10
0.939682
 20
-101.423
 11
0.866013
 21
-101.818
  0
LINE
  8
0
 10
0.866013
 20
-101.818
 11
0.766037
 21
-102.175
  0
LINE
  8
0
 10
0.766037
 20
-102.175
 11
0.642776
 21
-102.483
  0
LINE
  8
0
 10
0.642776
 20
-102.483
 11
0.5
 21
-102.733
  0
LINE
  8
0
 10
0.5
 20
-102.733
 11
0.34201
 21
-102.917
  0
LINE
  8
0
 10
0.34201
 20
-102.917
 11
0.173645
 21
-103.03
  0
LINE
  8
0
 10
0.173645
 20
-103.03
 11
0
 21
-103.068
  0
LINE
  8
0
 10
0
 20
-103.068
 11
-0.173645
 21
-103.03
  0
LINE
  8
0
 10
-6.29338
 20
-104.087
 11
-6.50482
 21
-103.968
  0
LINE
  8
0
 10
-6.50482
 20
-103.968
 11
-6.72449
 21
-103.782
  0
LINE
  8
0
 10
-6.72449
 20
-103.782
 11
-6.94571
 21
-103.535
  0
LINE
  8
0
 10
-6.94571
 20
-103.535
 11
-7.16174
 21
-103.234
  0
LINE
  8
0
 10
-7.16174
 20
-103.234
 11
-7.36606
 21
-102.888
  0
LINE
  8
0
 10
-7.36606
 20
-102.888
 11
-7.55241
 21
-102.508
  0
LINE
  8
0
 10
-7.55241
 20
-102.508
 11
-7.71516
 21
-102.105
  0
LINE
  8
0
 10
-7.71516
 20
-102.105
 11
-7.84937
 21
-101.692
  0
LINE
  8
0
 10
-7.84937
 20
-101.692
 11
-7.95094
 21
-101.281
  0
LINE
  8
0
 10
-7.95094
 20
-101.281
 11
-8.0168
 21
-100.885
  0
LINE
  8
0
 10
-8.0168
 20
-100.885
 11
-8.04494
 21
-100.515
  0
LINE
  8
0
 10
-8.04494
 20
-100.515
 11
-8.0345
 21
-100.183
  0
LINE
  8
0
 10
-8.0345
 20
-100.183
 11
-7.98582
 21
-99.8995
  0
LINE
  8
0
 10
-7.98582
 20
-99.8995
 11
-7.90036
 21
-99.6724
  0
LINE
  8
0
 10
-7.90036
 20
-99.6724
 11
-7.78072
 21
-99.5088
  0
LINE
  8
0
 10
-7.78072
 20
-99.5088
 11
-7.63052
 21
-99.4137
  0
LINE
  8
0
 10
-7.63052
 20
-99.4137
 11
-7.45436
 21
-99.39
  0
LINE
  8
0
 10
-7.45436
 20
-99.39
 11
-7.25757
 21
-99.4384
  0
LINE
  8
0
 10
-7.25757
 20
-99.4384
 11
-7.04613
 21
-99.5574
  0
LINE
  8
0
 10
-7.04613
 20
-99.5574
 11
-6.82646
 21
-99.7435
  0
LINE
  8
0
 10
-6.82646
 20
-99.7435
 11
-6.60524
 21
-99.9909
  0
LINE
  8
0
 10
-6.60524
 20
-99.9909
 11
-6.38921
 21
-100.292
  0
LINE
  8
0
 10
-6.38921
 20
-100.292
 11
-6.18489
 21
-100.638
  0
LINE
  8
0
 10
-6.18489
 20
-100.638
 11
-5.99854
 21
-101.018
  0
LINE
  8
0
 10
-5.99854
 20
-101.018
 11
-5.83578
 21
-101.421
  0
LINE
  8
0
 10
-5.83578
 20
-101.421
 11
-5.70158
 21
-101.834
  0
LINE
  8
0
 10
-5.70158
 20
-101.834
 11
-5.60001
 21
-102.245
  0
LINE
  8
0
 10
-5.60001
 20
-102.245
 11
-5.53415
 21
-102.641
  0
LINE
  8
0
 10
-5.53415
 20
-102.641
 11
-5.50601
 21
-103.011
  0
LINE
  8
0
 10
-5.50601
 20
-103.011
 11
-5.51645
 21
-103.343
  0
LINE
  8
0
 10
-5.51645
 20
-103.343
 11
-5.56514
 21
-103.626
  0
LINE
  8
0
 10
-5.56514
 20
-103.626
 11
-5.6506
 21
-103.854
  0
LINE
  8
0
 10
-5.6506
 20
-103.854
 11
-5.77023
 21
-104.017
  0
LINE
  8
0
 10
-5.77023
 20
-104.017
 11
-5.92043
 21
-104.112
  0
LINE
  8
0
 10
-5.92043
 20
-104.112
 11
-6.09659
 21
-104.136
  0
LINE
  8
0
 10
-6.09659
 20
-104.136
 11
-6.29338
 21
-104.087
  0
LINE
  8
0
 10
5.92043
 20
-104.112
 11
5.77023
 21
-104.017
  0
LINE
  8
0
 10
5.77023
 20
-104.017
 11
5.6506
 21
-103.854
  0
LINE
  8
0
 10
5.6506
 20
-103.854
 11
5.56514
 21
-103.626
  0
LINE
  8
0
 10
5.56514
 20
-103.626
 11
5.51645
 21
-103.343
  0
LINE
  8
0
 10
5.51645
 20
-103.343
 11
5.50601
 21
-103.011
  0
LINE
  8
0
 10
5.50601
 20
-103.011
 11
5.53415
 21
-102.641
  0
LINE
  8
0
 10
5.53415
 20
-102.641
 11
5.60001
 21
-102.245
  0
LINE
  8
0
 10
5.60001
 20
-102.245
 11
5.70158
 21
-101.834
  0
LINE
  8
0
 10
5.70158
 20
-101.834
 11
5.83578
 21
-101.421
  0
LINE
  8
0
 10
5.83578
 20
-101.421
 11
5.99854
 21
-101.018
  0
LINE
  8
0
 10
5.99854
 20
-101.018
 11
6.18489
 21
-100.638
  0
LINE
  8
0
 10
6.18489
 20
-100.638
 11
6.38921
 21
-100.292
  0
LINE
  8
0
 10
6.38921
 20
-100.292
 11
6.60524
 21
-99.9909
  0
LINE
  8
0
 10
6.60524
 20
-99.9909
 11
6.82646
 21
-99.7435
  0
LINE
  8
0
 10
6.82646
 20
-99.7435
 11
7.04613
 21
-99.5574
  0
LINE
  8
0
 10
7.04613
 20
-99.5574
 11
7.25757
 21
-99.4384
  0
LINE
  8
0
 10
7.25757
 20
-99.4384
 11
7.45436
 21
-99.39
  0
LINE
  8
0
 10
7.45436
 20
-99.39
 11
7.63052
 21
-99.4137
  0
LINE
  8
0
 10
7.63052
 20
-99.4137
 11
7.78072
 21
-99.5088
  0
LINE
  8
0
 10
7.78072
 20
-99.5088
 11
7.90036
 21
-99.6724
  0
LINE
  8
0
 10
7.90036
 20
-99.6724
 11
7.98582
 21
-99.8995
  0
LINE
  8
0
 10
7.98582
 20
-99.8995
 11
8.0345
 21
-100.183
  0
LINE
  8
0
 10
8.0345
 20
-100.183
 11
8.04494
 21
-100.515
  0
LINE
  8
0
 10
8.04494
 20
-100.515
 11
8.0168
 21
-100.885
  0
LINE
  8
0
 10
8.0168
 20
-100.885
 11
7.95094
 21
-101.281
  0
LINE
  8
0
 10
7.95094
 20
-101.281
 11
7.84937
 21
-101.692
  0
LINE
  8
0
 10
7.84937
 20
-101.692
 11
7.71516
 21
-102.105
  0
LINE
  8
0
 10
7.71516
 20
-102.105
 11
7.55241
 21
-102.508
  0
LINE
  8
0
 10
7.55241
 20
-102.508
 11
7.36606
 21
-102.888
  0
LINE
  8
0
 10
7.36606
 20
-102.888
 11
7.16174
 21
-103.234
  0
LINE
  8
0
 10
7.16174
 20
-103.234
 11
6.94571
 21
-103.535
  0
LINE
  8
0
 10
6.94571
 20
-103.535
 11
6.72449
 21
-103.782
  0
LINE
  8
0
 10
6.72449
 20
-103.782
 11
6.50482
 21
-103.968
  0
LINE
  8
0
 10
6.50482
 20
-103.968
 11
6.29338
 21
-104.087
  0
LINE
  8
0
 10
6.29338
 20
-104.087
 11
6.09659
 21
-104.136
  0
LINE
  8
0
 10
6.09659
 20
-104.136
 11
5.92043
 21
-104.112
  0
LINE
  8
0
 10
-11.7251
 20
-107.183
 11
-11.9951
 21
-107.083
  0
LINE
  8
0
 10
-11.9951
 20
-107.083
 11
-12.2876
 21
-106.926
  0
LINE
  8
0
 10
-12.2876
 20
-106.926
 11
-12.5937
 21
-106.717
  0
LINE
  8
0
 10
-12.5937
 20
-106.717
 11
-12.904
 21
-106.462
  0
LINE
  8
0
 10
-12.904
 20
-106.462
 11
-13.2091
 21
-106.169
  0
LINE
  8
0
 10
-13.2091
 20
-106.169
 11
-13.4998
 21
-105.846
  0
LINE
  8
0
 10
-13.4998
 20
-105.846
 11
-13.7672
 21
-105.503
  0
LINE
  8
0
 10
-13.7672
 20
-105.503
 11
-14.0032
 21
-105.152
  0
LINE
  8
0
 10
-14.0032
 20
-105.152
 11
-14.2006
 21
-104.802
  0
LINE
  8
0
 10
-14.2006
 20
-104.802
 11
-14.3535
 21
-104.464
  0
LINE
  8
0
 10
-14.3535
 20
-104.464
 11
-14.4572
 21
-104.149
  0
LINE
  8
0
 10
-14.4572
 20
-104.149
 11
-14.5084
 21
-103.866
  0
LINE
  8
0
 10
-14.5084
 20
-103.866
 11
-14.5058
 21
-103.623
  0
LINE
  8
0
 10
-14.5058
 20
-103.623
 11
-14.4493
 21
-103.429
  0
LINE
  8
0
 10
-14.4493
 20
-103.429
 11
-14.3407
 21
-103.288
  0
LINE
  8
0
 10
-14.3407
 20
-103.288
 11
-14.1833
 21
-103.205
  0
LINE
  8
0
 10
-14.1833
 20
-103.205
 11
-13.9818
 21
-103.184
  0
LINE
  8
0
 10
-13.9818
 20
-103.184
 11
-13.7424
 21
-103.223
  0
LINE
  8
0
 10
-13.7424
 20
-103.223
 11
-13.4723
 21
-103.323
  0
LINE
  8
0
 10
-13.4723
 20
-103.323
 11
-13.1799
 21
-103.48
  0
LINE
  8
0
 10
-13.1799
 20
-103.48
 11
-12.8738
 21
-103.689
  0
LINE
  8
0
 10
-12.8738
 20
-103.689
 11
-12.5635
 21
-103.944
  0
LINE
  8
0
 10
-12.5635
 20
-103.944
 11
-12.2584
 21
-104.237
  0
LINE
  8
0
 10
-12.2584
 20
-104.237
 11
-11.9677
 21
-104.56
  0
LINE
  8
0
 10
-11.9677
 20
-104.56
 11
-11.7003
 21
-104.902
  0
LINE
  8
0
 10
-11.7003
 20
-104.902
 11
-11.4643
 21
-105.254
  0
LINE
  8
0
 10
-11.4643
 20
-105.254
 11
-11.2668
 21
-105.604
  0
LINE
  8
0
 10
-11.2668
 20
-105.604
 11
-11.114
 21
-105.942
  0
LINE
  8
0
 10
-11.114
 20
-105.942
 11
-11.0103
 21
-106.257
  0
LINE
  8
0
 10
-11.0103
 20
-106.257
 11
-10.959
 21
-106.54
  0
LINE
  8
0
 10
-10.959
 20
-106.54
 11
-10.9617
 21
-106.783
  0
LINE
  8
0
 10
-10.9617
 20
-106.783
 11
-11.0182
 21
-106.977
  0
LINE
  8
0
 10
-11.0182
 20
-106.977
 11
-11.1268
 21
-107.118
  0
LINE
  8
0
 10
-11.1268
 20
-107.118
 11
-11.2842
 21
-107.201
  0
LINE
  8
0
 10
-11.2842
 20
-107.201
 11
-11.4857
 21
-107.222
  0
LINE
  8
0
 10
-11.4857
 20
-107.222
 11
-11.7251
 21
-107.183
  0
LINE
  8
0
 10
11.2842
 20
-107.201
 11
11.1268
 21
-107.118
  0
LINE
  8
0
 10
11.1268
 20
-107.118
 11
11.0182
 21
-106.977
  0
LINE
  8
0
 10
11.0182
 20
-106.977
 11
10.9617
 21
-106.783
  0
LINE
  8
0
 10
10.9617
 20
-106.783
 11
10.959
 21
-106.54
  0
LINE
  8
0
 10
10.959
 20
-106.54
 11
11.0103
 21
-106.257
  0
LINE
  8
0
 10
11.0103
 20
-106.257
 11
11.114
 21
-105.942
  0
LINE
  8
0
 10
11.114
 20
-105.942
 11
11.2668
 21
-105.604
  0
LINE
  8
0
 10
11.2668
 20
-105.604
 11
11.4643
 21
-105.254
  0
LINE
  8
0
 10
11.4643
 20
-105.254
 11
11.7003
 21
-104.902
  0
LINE
  8
0
 10
11.7003
 20
-104.902
 11
11.9677
 21
-104.56
  0
LINE
  8
0
 10
11.9677
 20
-104.56
 11
12.2584
 21
-104.237
  0
LINE
  8
0
 10
12.2584
 20
-104.237
 11
12.5635
 21
-103.944
  0
LINE
  8
0
 10
12.5635
 20
-103.944
 11
12.8738
 21
-103.689
  0
LINE
  8
0
 10
12.8738
 20
-103.689
 11
13.1799
 21
-103.48
  0
LINE
  8
0
 10
13.1799
 20
-103.48
 11
13.4723
 21
-103.323
  0
LINE
  8
0
 10
13.4723
 20
-103.323
 11
13.7424
 21
-103.223
  0
LINE
  8
0
 10
13.7424
 20
-103.223
 11
13.9818
 21
-103.184
  0
LINE
  8
0
 10
13.9818
 20
-103.184
 11
14.1833
 21
-103.205
  0
LINE
  8
0
 10
14.1833
 20
-103.205
 11
14.3407
 21
-103.288
  0
LINE
  8
0
 10
14.3407
 20
-103.288
 11
14.4493
 21
-103.429
  0
LINE
  8
0
 10
14.4493
 20
-103.429
 11
14.5058
 21
-103.623
  0
LINE
  8
0
 10
14.5058
 20
-103.623
 11
14.5084
 21
-103.866
  0
LINE
  8
0
 10
14.5084
 20
-103.866
 11
14.4572
 21
-104.149
  0
LINE
  8
0
 10
14.4572
 20
-104.149
 11
14.3535
 21
-104.464
  0
LINE
  8
0
 10
14.3535
 20
-104.464
 11
14.2006
 21
-104.802
  0
LINE
  8
0
 10
14.2006
 20
-104.802
 11
14.0032
 21
-105.152
  0
LINE
  8
0
 10
14.0032
 20
-105.152
 11
13.7672
 21
-105.503
  0
LINE
  8
0
 10
13.7672
 20
-105.503
 11
13.4998
 21
-105.846
  0
LINE
  8
0
 10
13.4998
 20
-105.846
 11
13.2091
 21
-106.169
  0
LINE
  8
0
 10
13.2091
 20
-106.169
 11
12.904
 21
-106.462
  0
LINE
  8
0
 10
12.904
 20
-106.462
 11
12.5937
 21
-106.717
  0
LINE
  8
0
 10
12.5937
 20
-106.717
 11
12.2876
 21
-106.926
  0
LINE
  8
0
 10
12.2876
 20
-106.926
 11
11.9951
 21
-107.083
  0
LINE
  8
0
 10
11.9951
 20
-107.083
 11
11.7251
 21
-107.183
  0
LINE
  8
0
 10
11.7251
 20
-107.183
 11
11.4857
 21
-107.222
  0
LINE
  8
0
 10
11.4857
 20
-107.222
 11
11.2842
 21
-107.201
  0
LINE
  8
0
 10
15.2926
 20
-111.944
 11
15.1108
 21
-111.855
  0
LINE
  8
0
 10
15.1108
 20
-111.855
 11
14.9911
 21
-111.723
  0
LINE
  8
0
 10
14.9911
 20
-111.723
 11
14.9371
 21
-111.554
  0
LINE
  8
0
 10
14.9371
 20
-111.554
 11
14.9506
 21
-111.352
  0
LINE
  8
0
 10
14.9506
 20
-111.352
 11
15.0311
 21
-111.123
  0
LINE
  8
0
 10
15.0311
 20
-111.123
 11
15.1762
 21
-110.874
  0
LINE
  8
0
 10
15.1762
 20
-110.874
 11
15.3814
 21
-110.613
  0
LINE
  8
0
 10
15.3814
 20
-110.613
 11
15.6406
 21
-110.348
  0
LINE
  8
0
 10
15.6406
 20
-110.348
 11
15.9458
 21
-110.087
  0
LINE
  8
0
 10
15.9458
 20
-110.087
 11
16.2878
 21
-109.838
  0
LINE
  8
0
 10
16.2878
 20
-109.838
 11
16.6561
 21
-109.607
  0
LINE
  8
0
 10
16.6561
 20
-109.607
 11
17.0397
 21
-109.403
  0
LINE
  8
0
 10
17.0397
 20
-109.403
 11
17.4268
 21
-109.232
  0
LINE
  8
0
 10
17.4268
 20
-109.232
 11
17.8056
 21
-109.098
  0
LINE
  8
0
 10
17.8056
 20
-109.098
 11
18.1648
 21
-109.006
  0
LINE
  8
0
 10
18.1648
 20
-109.006
 11
18.4933
 21
-108.959
  0
LINE
  8
0
 10
18.4933
 20
-108.959
 11
18.7811
 21
-108.958
  0
LINE
  8
0
 10
18.7811
 20
-108.958
 11
19.0196
 21
-109.003
  0
LINE
  8
0
 10
19.0196
 20
-109.003
 11
19.2015
 21
-109.092
  0
LINE
  8
0
 10
19.2015
 20
-109.092
 11
19.3212
 21
-109.223
  0
LINE
  8
0
 10
19.3212
 20
-109.223
 11
19.3751
 21
-109.393
  0
LINE
  8
0
 10
19.3751
 20
-109.393
 11
19.3616
 21
-109.595
  0
LINE
  8
0
 10
19.3616
 20
-109.595
 11
19.2811
 21
-109.824
  0
LINE
  8
0
 10
19.2811
 20
-109.824
 11
19.136
 21
-110.072
  0
LINE
  8
0
 10
19.136
 20
-110.072
 11
18.9308
 21
-110.333
  0
LINE
  8
0
 10
18.9308
 20
-110.333
 11
18.6717
 21
-110.598
  0
LINE
  8
0
 10
18.6717
 20
-110.598
 11
18.3665
 21
-110.86
  0
LINE
  8
0
 10
18.3665
 20
-110.86
 11
18.0245
 21
-111.109
  0
LINE
  8
0
 10
18.0245
 20
-111.109
 11
17.6561
 21
-111.339
  0
LINE
  8
0
 10
17.6561
 20
-111.339
 11
17.2726
 21
-111.543
  0
LINE
  8
0
 10
17.2726
 20
-111.543
 11
16.8855
 21
-111.715
  0
LINE
  8
0
 10
16.8855
 20
-111.715
 11
16.5066
 21
-111.848
  0
LINE
  8
0
 10
16.5066
 20
-111.848
 11
16.1475
 21
-111.94
  0
LINE
  8
0
 10
16.1475
 20
-111.94
 11
15.819
 21
-111.988
  0
LINE
  8
0
 10
15.819
 20
-111.988
 11
15.5311
 21
-111.989
  0
LINE
  8
0
 10
15.5311
 20
-111.989
 11
15.2926
 21
-111.944
  0
LINE
  8
0
 10
-15.819
 20
-111.988
 11
-16.1475
 21
-111.94
  0
LINE
  8
0
 10
-16.1475
 20
-111.94
 11
-16.5066
 21
-111.848
  0
LINE
  8
0
 10
-16.5066
 20
-111.848
 11
-16.8855
 21
-111.715
  0
LINE
  8
0
 10
-16.8855
 20
-111.715
 11
-17.2726
 21
-111.543
  0
LINE
  8
0
 10
-17.2726
 20
-111.543
 11
-17.6561
 21
-111.339
  0
LINE
  8
0
 10
-17.6561
 20
-111.339
 11
-18.0245
 21
-111.109
  0
LINE
  8
0
 10
-18.0245
 20
-111.109
 11
-18.3665
 21
-110.86
  0
LINE
  8
0
 10
-18.3665
 20
-110.86
 11
-18.6717
 21
-110.598
  0
LINE
  8
0
 10
-18.6717
 20
-110.598
 11
-18.9308
 21
-110.333
  0
LINE
  8
0
 10
-18.9308
 20
-110.333
 11
-19.136
 21
-110.072
  0
LINE
  8
0
 10
-19.136
 20
-110.072
 11
-19.2811
 21
-109.824
  0
LINE
  8
0
 10
-19.2811
 20
-109.824
 11
-19.3616
 21
-109.595
  0
LINE
  8
0
 10
-19.3616
 20
-109.595
 11
-19.3751
 21
-109.393
  0
LINE
  8
0
 10
-19.3751
 20
-109.393
 11
-19.3212
 21
-109.223
  0
LINE
  8
0
 10
-19.3212
 20
-109.223
 11
-19.2015
 21
-109.092
  0
LINE
  8
0
 10
-19.2015
 20
-109.092
 11
-19.0196
 21
-109.003
  0
LINE
  8
0
 10
-19.0196
 20
-109.003
 11
-18.7811
 21
-108.958
  0
LINE
  8
0
 10
-18.7811
 20
-108.958
 11
-18.4933
 21
-108.959
  0
LINE
  8
0
 10
-18.4933
 20
-108.959
 11
-18.1648
 21
-109.006
  0
LINE
  8
0
 10
-18.1648
 20
-109.006
 11
-17.8056
 21
-109.098
  0
LINE
  8
0
 10
-17.8056
 20
-109.098
 11
-17.4268
 21
-109.232
  0
LINE
  8
0
 10
-17.4268
 20
-109.232
 11
-17.0397
 21
-109.403
  0
LINE
  8
0
 10
-17.0397
 20
-109.403
 11
-16.6561
 21
-109.607
  0
LINE
  8
0
 10
-16.6561
 20
-109.607
 11
-16.2878
 21
-109.838
  0
LINE
  8
0
 10
-16.2878
 20
-109.838
 11
-15.9458
 21
-110.087
  0
LINE
  8
0
 10
-15.9458
 20
-110.087
 11
-15.6406
 21
-110.348
  0
LINE
  8
0
 10
-15.6406
 20
-110.348
 11
-15.3814
 21
-110.613
  0
LINE
  8
0
 10
-15.3814
 20
-110.613
 11
-15.1762
 21
-110.874
  0
LINE
  8
0
 10
-15.1762
 20
-110.874
 11
-15.0311
 21
-111.123
  0
LINE
  8
0
 10
-15.0311
 20
-111.123
 11
-14.9506
 21
-111.352
  0
LINE
  8
0
 10
-14.9506
 20
-111.352
 11
-14.9371
 21
-111.554
  0
LINE
  8
0
 10
-14.9371
 20
-111.554
 11
-14.9911
 21
-111.723
  0
LINE
  8
0
 10
-14.9911
 20
-111.723
 11
-15.1108
 21
-111.855
  0
LINE
  8
0
 10
-15.1108
 20
-111.855
 11
-15.2926
 21
-111.944
  0
LINE
  8
0
 10
-15.2926
 20
-111.944
 11
-15.5311
 21
-111.989
  0
LINE
  8
0
 10
-15.5311
 20
-111.989
 11
-15.819
 21
-111.988
  0
LINE
  8
0
 10
18.4286
 20
-118.008
 11
18.0597
 21
-117.972
  0
LINE
  8
0
 10
18.0597
 20
-117.972
 11
17.7348
 21
-117.904
  0
LINE
  8
0
 10
17.7348
 20
-117.904
 11
17.4639
 21
-117.807
  0
LINE
  8
0
 10
17.4639
 20
-117.807
 11
17.2551
 21
-117.683
  0
LINE
  8
0
 10
17.2551
 20
-117.683
 11
17.1148
 21
-117.537
  0
LINE
  8
0
 10
17.1148
 20
-117.537
 11
17.0472
 21
-117.373
  0
LINE
  8
0
 10
17.0472
 20
-117.373
 11
17.0544
 21
-117.195
  0
LINE
  8
0
 10
17.0544
 20
-117.195
 11
17.1363
 21
-117.01
  0
LINE
  8
0
 10
17.1363
 20
-117.01
 11
17.2902
 21
-116.822
  0
LINE
  8
0
 10
17.2902
 20
-116.822
 11
17.5116
 21
-116.638
  0
LINE
  8
0
 10
17.5116
 20
-116.638
 11
17.7936
 21
-116.463
  0
LINE
  8
0
 10
17.7936
 20
-116.463
 11
18.1278
 21
-116.303
  0
LINE
  8
0
 10
18.1278
 20
-116.303
 11
18.504
 21
-116.161
  0
LINE
  8
0
 10
18.504
 20
-116.161
 11
18.9107
 21
-116.044
  0
LINE
  8
0
 10
18.9107
 20
-116.044
 11
19.3356
 21
-115.954
  0
LINE
  8
0
 10
19.3356
 20
-115.954
 11
19.7657
 21
-115.893
  0
LINE
  8
0
 10
19.7657
 20
-115.893
 11
20.1881
 21
-115.865
  0
LINE
  8
0
 10
20.1881
 20
-115.865
 11
20.5898
 21
-115.869
  0
LINE
  8
0
 10
20.5898
 20
-115.869
 11
20.9588
 21
-115.905
  0
LINE
  8
0
 10
20.9588
 20
-115.905
 11
21.2836
 21
-115.973
  0
LINE
  8
0
 10
21.2836
 20
-115.973
 11
21.5546
 21
-116.07
  0
LINE
  8
0
 10
21.5546
 20
-116.07
 11
21.7634
 21
-116.194
  0
LINE
  8
0
 10
21.7634
 20
-116.194
 11
21.9037
 21
-116.34
  0
LINE
  8
0
 10
21.9037
 20
-116.34
 11
21.9712
 21
-116.504
  0
LINE
  8
0
 10
21.9712
 20
-116.504
 11
21.964
 21
-116.682
  0
LINE
  8
0
 10
21.964
 20
-116.682
 11
21.8822
 21
-116.867
  0
LINE
  8
0
 10
21.8822
 20
-116.867
 11
21.7282
 21
-117.055
  0
LINE
  8
0
 10
21.7282
 20
-117.055
 11
21.5069
 21
-117.239
  0
LINE
  8
0
 10
21.5069
 20
-117.239
 11
21.2248
 21
-117.414
  0
LINE
  8
0
 10
21.2248
 20
-117.414
 11
20.8906
 21
-117.574
  0
LINE
  8
0
 10
20.8906
 20
-117.574
 11
20.5145
 21
-117.715
  0
LINE
  8
0
 10
20.5145
 20
-117.715
 11
20.1078
 21
-117.833
  0
LINE
  8
0
 10
20.1078
 20
-117.833
 11
19.6829
 21
-117.923
  0
LINE
  8
0
 10
19.6829
 20
-117.923
 11
19.2527
 21
-117.984
  0
LINE
  8
0
 10
19.2527
 20
-117.984
 11
18.8303
 21
-118.012
  0
LINE
  8
0
 10
18.8303
 20
-118.012
 11
18.4286
 21
-118.008
  0
LINE
  8
0
 10
-19.2527
 20
-117.984
 11
-19.6829
 21
-117.923
  0
LINE
  8
0
 10
-19.6829
 20
-117.923
 11
-20.1078
 21
-117.833
  0
LINE
  8
0
 10
-20.1078
 20
-117.833
 11
-20.5145
 21
-117.715
  0
LINE
  8
0
 10
-20.5145
 20
-117.715
 11
-20.8906
 21
-117.574
  0
LINE
  8
0
 10
-20.8906
 20
-117.574
 11
-21.2248
 21
-117.414
  0
LINE
  8
0
 10
-21.2248
 20
-117.414
 11
-21.5069
 21
-117.239
  0
LINE
  8
0
 10
-21.5069
 20
-117.239
 11
-21.7282
 21
-117.055
  0
LINE
  8
0
 10
-21.7282
 20
-117.055
 11
-21.8822
 21
-116.867
  0
LINE
  8
0
 10
-21.8822
 20
-116.867
 11
-21.964
 21
-116.682
  0
LINE
  8
0
 10
-21.964
 20
-116.682
 11
-21.9712
 21
-116.504
  0
LINE
  8
0
 10
-21.9712
 20
-116.504
 11
-21.9037
 21
-116.34
  0
LINE
  8
0
 10
-21.9037
 20
-116.34
 11
-21.7634
 21
-116.194
  0
LINE
  8
0
 10
-21.7634
 20
-116.194
 11
-21.5546
 21
-116.07
  0
LINE
  8
0
 10
-21.5546
 20
-116.07
 11
-21.2836
 21
-115.973
  0
LINE
  8
0
 10
-21.2836
 20
-115.973
 11
-20.9588
 21
-115.905
  0
LINE
  8
0
 10
-20.9588
 20
-115.905
 11
-20.5898
 21
-115.869
  0
LINE
  8
0
 10
-20.5898
 20
-115.869
 11
-20.1881
 21
-115.865
  0
LINE
  8
0
 10
-20.1881
 20
-115.865
 11
-19.7657
 21
-115.893
  0
LINE
  8
0
 10
-19.7657
 20
-115.893
 11
-19.3356
 21
-115.954
  0
LINE
  8
0
 10
-19.3356
 20
-115.954
 11
-18.9107
 21
-116.044
  0
LINE
  8
0
 10
-18.9107
 20
-116.044
 11
-18.504
 21
-116.161
  0
LINE
  8
0
 10
-18.504
 20
-116.161
 11
-18.1278
 21
-116.303
  0
LINE
  8
0
 10
-18.1278
 20
-116.303
 11
-17.7936
 21
-116.463
  0
LINE
  8
0
 10
-17.7936
 20
-116.463
 11
-17.5116
 21
-116.638
  0
LINE
  8
0
 10
-17.5116
 20
-116.638
 11
-17.2902
 21
-116.822
  0
LINE
  8
0
 10
-17.2902
 20
-116.822
 11
-17.1363
 21
-117.01
  0
LINE
  8
0
 10
-17.1363
 20
-117.01
 11
-17.0544
 21
-117.195
  0
LINE
  8
0
 10
-17.0544
 20
-117.195
 11
-17.0472
 21
-117.373
  0
LINE
  8
0
 10
-17.0472
 20
-117.373
 11
-17.1148
 21
-117.537
  0
LINE
  8
0
 10
-17.1148
 20
-117.537
 11
-17.2551
 21
-117.683
  0
LINE
  8
0
 10
-17.2551
 20
-117.683
 11
-17.4639
 21
-117.807
  0
LINE
  8
0
 10
-17.4639
 20
-117.807
 11
-17.7348
 21
-117.904
  0
LINE
  8
0
 10
-17.7348
 20
-117.904
 11
-18.0597
 21
-117.972
  0
LINE
  8
0
 10
-18.0597
 20
-117.972
 11
-18.4286
 21
-118.008
  0
LINE
  8
0
 10
-18.4286
 20
-118.008
 11
-18.8303
 21
-118.012
  0
LINE
  8
0
 10
-18.8303
 20
-118.012
 11
-19.2527
 21
-117.984
  0
LINE
  8
0
 10
-0.260468
 20
-121.856
 11
-0.513016
 21
-121.788
  0
LINE
  8
0
 10
-0.513016
 20
-121.788
 11
-0.75
 21
-121.677
  0
LINE
  8
0
 10
-0.75
 20
-121.677
 11
-0.964172
 21
-121.528
  0
LINE
  8
0
 10
-0.964172
 20
-121.528
 11
-1.14906
 21
-121.343
  0
LINE
  8
0
 10
-1.14906
 20
-121.343
 11
-1.29903
 21
-121.128
  0
LINE
  8
0
 10
-1.29903
 20
-121.128
 11
-1.40953
 21
-120.891
  0
LINE
  8
0
 10
-1.40953
 20
-120.891
 11
-1.4772
 21
-120.639
  0
LINE
  8
0
 10
-1.4772
 20
-120.639
 11
-1.5
 21
-120.378
  0
LINE
  8
0
 10
-1.5
 20
-120.378
 11
-1.4772
 21
-120.118
  0
LINE
  8
0
 10
-1.4772
 20
-120.118
 11
-1.40953
 21
-119.865
  0
LINE
  8
0
 10
-1.40953
 20
-119.865
 11
-1.29903
 21
-119.628
  0
LINE
  8
0
 10
-1.29903
 20
-119.628
 11
-1.14906
 21
-119.414
  0
LINE
  8
0
 10
-1.14906
 20
-119.414
 11
-0.964172
 21
-119.229
  0
LINE
  8
0
 10
-0.964172
 20
-119.229
 11
-0.749985
 21
-119.079
  0
LINE
  8
0
 10
-0.749985
 20
-119.079
 11
-0.513016
 21
-118.969
  0
LINE
  8
0
 10
-0.513016
 20
-118.969
 11
-0.260468
 21
-118.901
  0
LINE
  8
0
 10
-0.260468
 20
-118.901
 11
0
 21
-118.878
  0
LINE
  8
0
 10
0
 20
-118.878
 11
0.260468
 21
-118.901
  0
LINE
  8
0
 10
0.260468
 20
-118.901
 11
0.513016
 21
-118.969
  0
LINE
  8
0
 10
0.513016
 20
-118.969
 11
0.75
 21
-119.079
  0
LINE
  8
0
 10
0.75
 20
-119.079
 11
0.964172
 21
-119.229
  0
LINE
  8
0
 10
0.964172
 20
-119.229
 11
1.14906
 21
-119.414
  0
LINE
  8
0
 10
1.14906
 20
-119.414
 11
1.29903
 21
-119.628
  0
LINE
  8
0
 10
1.29903
 20
-119.628
 11
1.40953
 21
-119.865
  0
LINE
  8
0
 10
1.40953
 20
-119.865
 11
1.4772
 21
-120.118
  0
LINE
  8
0
 10
1.4772
 20
-120.118
 11
1.5
 21
-120.378
  0
LINE
  8
0
 10
1.5
 20
-120.378
 11
1.4772
 21
-120.639
  0
LINE
  8
0
 10
1.4772
 20
-120.639
 11
1.40953
 21
-120.891
  0
LINE
  8
0
 10
1.40953
 20
-120.891
 11
1.29903
 21
-121.128
  0
LINE
  8
0
 10
1.29903
 20
-121.128
 11
1.14906
 21
-121.343
  0
LINE
  8
0
 10
1.14906
 20
-121.343
 11
0.964172
 21
-121.528
  0
LINE
  8
0
 10
0.964172
 20
-121.528
 11
0.749985
 21
-121.677
  0
LINE
  8
0
 10
0.749985
 20
-121.677
 11
0.513016
 21
-121.788
  0
LINE
  8
0
 10
0.513016
 20
-121.788
 11
0.260468
 21
-121.856
  0
LINE
  8
0
 10
0.260468
 20
-121.856
 11
0
 21
-121.878
  0
LINE
  8
0
 10
0
 20
-121.878
 11
-0.260468
 21
-121.856
  0
LINE
  8
0
 10
-20.5898
 20
-124.888
 11
-20.9588
 21
-124.852
  0
LINE
  8
0
 10
-20.9588
 20
-124.852
 11
-21.2836
 21
-124.784
  0
LINE
  8
0
 10
-21.2836
 20
-124.784
 11
-21.5546
 21
-124.687
  0
LINE
  8
0
 10
-21.5546
 20
-124.687
 11
-21.7634
 21
-124.563
  0
LINE
  8
0
 10
-21.7634
 20
-124.563
 11
-21.9037
 21
-124.417
  0
LINE
  8
0
 10
-21.9037
 20
-124.417
 11
-21.9712
 21
-124.253
  0
LINE
  8
0
 10
-21.9712
 20
-124.253
 11
-21.964
 21
-124.075
  0
LINE
  8
0
 10
-21.964
 20
-124.075
 11
-21.8822
 21
-123.89
  0
LINE
  8
0
 10
-21.8822
 20
-123.89
 11
-21.7282
 21
-123.702
  0
LINE
  8
0
 10
-21.7282
 20
-123.702
 11
-21.5069
 21
-123.518
  0
LINE
  8
0
 10
-21.5069
 20
-123.518
 11
-21.2248
 21
-123.343
  0
LINE
  8
0
 10
-21.2248
 20
-123.343
 11
-20.8906
 21
-123.183
  0
LINE
  8
0
 10
-20.8906
 20
-123.183
 11
-20.5145
 21
-123.042
  0
LINE
  8
0
 10
-20.5145
 20
-123.042
 11
-20.1078
 21
-122.924
  0
LINE
  8
0
 10
-20.1078
 20
-122.924
 11
-19.6829
 21
-122.834
  0
LINE
  8
0
 10
-19.6829
 20
-122.834
 11
-19.2527
 21
-122.773
  0
LINE
  8
0
 10
-19.2527
 20
-122.773
 11
-18.8303
 21
-122.745
  0
LINE
  8
0
 10
-18.8303
 20
-122.745
 11
-18.4286
 21
-122.749
  0
LINE
  8
0
 10
-18.4286
 20
-122.749
 11
-18.0597
 21
-122.785
  0
LINE
  8
0
 10
-18.0597
 20
-122.785
 11
-17.7348
 21
-122.853
  0
LINE
  8
0
 10
-17.7348
 20
-122.853
 11
-17.4639
 21
-122.95
  0
LINE
  8
0
 10
-17.4639
 20
-122.95
 11
-17.2551
 21
-123.074
  0
LINE
  8
0
 10
-17.2551
 20
-123.074
 11
-17.1148
 21
-123.22
  0
LINE
  8
0
 10
-17.1148
 20
-123.22
 11
-17.0472
 21
-123.384
  0
LINE
  8
0
 10
-17.0472
 20
-123.384
 11
-17.0544
 21
-123.562
  0
LINE
  8
0
 10
-17.0544
 20
-123.562
 11
-17.1363
 21
-123.747
  0
LINE
  8
0
 10
-17.1363
 20
-123.747
 11
-17.2902
 21
-123.935
  0
LINE
  8
0
 10
-17.2902
 20
-123.935
 11
-17.5116
 21
-124.119
  0
LINE
  8
0
 10
-17.5116
 20
-124.119
 11
-17.7936
 21
-124.294
  0
LINE
  8
0
 10
-17.7936
 20
-124.294
 11
-18.1278
 21
-124.454
  0
LINE
  8
0
 10
-18.1278
 20
-124.454
 11
-18.504
 21
-124.595
  0
LINE
  8
0
 10
-18.504
 20
-124.595
 11
-18.9107
 21
-124.713
  0
LINE
  8
0
 10
-18.9107
 20
-124.713
 11
-19.3356
 21
-124.803
  0
LINE
  8
0
 10
-19.3356
 20
-124.803
 11
-19.7657
 21
-124.864
  0
LINE
  8
0
 10
-19.7657
 20
-124.864
 11
-20.1881
 21
-124.892
  0
LINE
  8
0
 10
-20.1881
 20
-124.892
 11
-20.5898
 21
-124.888
  0
LINE
  8
0
 10
19.7657
 20
-124.864
 11
19.3356
 21
-124.803
  0
LINE
  8
0
 10
19.3356
 20
-124.803
 11
18.9107
 21
-124.713
  0
LINE
  8
0
 10
18.9107
 20
-124.713
 11
18.504
 21
-124.595
  0
LINE
  8
0
 10
18.504
 20
-124.595
 11
18.1278
 21
-124.454
  0
LINE
  8
0
 10
18.1278
 20
-124.454
 11
17.7936
 21
-124.294
  0
LINE
  8
0
 10
17.7936
 20
-124.294
 11
17.5116
 21
-124.119
  0
LINE
  8
0
 10
17.5116
 20
-124.119
 11
17.2902
 21
-123.935
  0
LINE
  8
0
 10
17.2902
 20
-123.935
 11
17.1363
 21
-123.747
  0
LINE
  8
0
 10
17.1363
 20
-123.747
 11
17.0544
 21
-123.562
  0
LINE
  8
0
 10
17.0544
 20
-123.562
 11
17.0472
 21
-123.384
  0
LINE
  8
0
 10
17.0472
 20
-123.384
 11
17.1148
 21
-123.22
  0
LINE
  8
0
 10
17.1148
 20
-123.22
 11
17.2551
 21
-123.074
  0
LINE
  8
0
 10
17.2551
 20
-123.074
 11
17.4639
 21
-122.95
  0
LINE
  8
0
 10
17.4639
 20
-122.95
 11
17.7348
 21
-122.853
  0
LINE
  8
0
 10
17.7348
 20
-122.853
 11
18.0597
 21
-122.785
  0
LINE
  8
0
 10
18.0597
 20
-122.785
 11
18.4286
 21
-122.749
  0
LINE
  8
0
 10
18.4286
 20
-122.749
 11
18.8303
 21
-122.745
  0
LINE
  8
0
 10
18.8303
 20
-122.745
 11
19.2527
 21
-122.773
  0
LINE
  8
0
 10
19.2527
 20
-122.773
 11
19.6829
 21
-122.834
  0
LINE
  8
0
 10
19.6829
 20
-122.834
 11
20.1078
 21
-122.924
  0
LINE
  8
0
 10
20.1078
 20
-122.924
 11
20.5145
 21
-123.042
  0
LINE
  8
0
 10
20.5145
 20
-123.042
 11
20.8906
 21
-123.183
  0
LINE
  8
0
 10
20.8906
 20
-123.183
 11
21.2248
 21
-123.343
  0
LINE
  8
0
 10
21.2248
 20
-123.343
 11
21.5069
 21
-123.518
  0
LINE
  8
0
 10
21.5069
 20
-123.518
 11
21.7282
 21
-123.702
  0
LINE
  8
0
 10
21.7282
 20
-123.702
 11
21.8822
 21
-123.89
  0
LINE
  8
0
 10
21.8822
 20
-123.89
 11
21.964
 21
-124.075
  0
LINE
  8
0
 10
21.964
 20
-124.075
 11
21.9712
 21
-124.253
  0
LINE
  8
0
 10
21.9712
 20
-124.253
 11
21.9037
 21
-124.417
  0
LINE
  8
0
 10
21.9037
 20
-124.417
 11
21.7634
 21
-124.563
  0
LINE
  8
0
 10
21.7634
 20
-124.563
 11
21.5546
 21
-124.687
  0
LINE
  8
0
 10
21.5546
 20
-124.687
 11
21.2836
 21
-124.784
  0
LINE
  8
0
 10
21.2836
 20
-124.784
 11
20.9588
 21
-124.852
  0
LINE
  8
0
 10
20.9588
 20
-124.852
 11
20.5898
 21
-124.888
  0
LINE
  8
0
 10
20.5898
 20
-124.888
 11
20.1881
 21
-124.892
  0
LINE
  8
0
 10
20.1881
 20
-124.892
 11
19.7657
 21
-124.864
  0
LINE
  8
0
 10
-19.0196
 20
-131.754
 11
-19.2015
 21
-131.665
  0
LINE
  8
0
 10
-19.2015
 20
-131.665
 11
-19.3212
 21
-131.534
  0
LINE
  8
0
 10
-19.3212
 20
-131.534
 11
-19.3751
 21
-131.364
  0
LINE
  8
0
 10
-19.3751
 20
-131.364
 11
-19.3616
 21
-131.162
  0
LINE
  8
0
 10
-19.3616
 20
-131.162
 11
-19.2811
 21
-130.933
  0
LINE
  8
0
 10
-19.2811
 20
-130.933
 11
-19.136
 21
-130.684
  0
LINE
  8
0
 10
-19.136
 20
-130.684
 11
-18.9308
 21
-130.424
  0
LINE
  8
0
 10
-18.9308
 20
-130.424
 11
-18.6717
 21
-130.159
  0
LINE
  8
0
 10
-18.6717
 20
-130.159
 11
-18.3665
 21
-129.897
  0
LINE
  8
0
 10
-18.3665
 20
-129.897
 11
-18.0245
 21
-129.648
  0
LINE
  8
0
 10
-18.0245
 20
-129.648
 11
-17.6561
 21
-129.418
  0
LINE
  8
0
 10
-17.6561
 20
-129.418
 11
-17.2726
 21
-129.214
  0
LINE
  8
0
 10
-17.2726
 20
-129.214
 11
-16.8855
 21
-129.042
  0
LINE
  8
0
 10
-16.8855
 20
-129.042
 11
-16.5066
 21
-128.909
  0
LINE
  8
0
 10
-16.5066
 20
-128.909
 11
-16.1475
 21
-128.817
  0
LINE
  8
0
 10
-16.1475
 20
-128.817
 11
-15.819
 21
-128.769
  0
LINE
  8
0
 10
-15.819
 20
-128.769
 11
-15.5311
 21
-128.768
  0
LINE
  8
0
 10
-15.5311
 20
-128.768
 11
-15.2926
 21
-128.813
  0
LINE
  8
0
 10
-15.2926
 20
-128.813
 11
-15.1108
 21
-128.902
  0
LINE
  8
0
 10
-15.1108
 20
-128.902
 11
-14.9911
 21
-129.034
  0
LINE
  8
0
 10
-14.9911
 20
-129.034
 11
-14.9371
 21
-129.203
  0
LINE
  8
0
 10
-14.9371
 20
-129.203
 11
-14.9506
 21
-129.405
  0
LINE
  8
0
 10
-14.9506
 20
-129.405
 11
-15.0311
 21
-129.634
  0
LINE
  8
0
 10
-15.0311
 20
-129.634
 11
-15.1762
 21
-129.883
  0
LINE
  8
0
 10
-15.1762
 20
-129.883
 11
-15.3814
 21
-130.143
  0
LINE
  8
0
 10
-15.3814
 20
-130.143
 11
-15.6406
 21
-130.409
  0
LINE
  8
0
 10
-15.6406
 20
-130.409
 11
-15.9458
 21
-130.67
  0
LINE
  8
0
 10
-15.9458
 20
-130.67
 11
-16.2878
 21
-130.919
  0
LINE
  8
0
 10
-16.2878
 20
-130.919
 11
-16.6561
 21
-131.15
  0
LINE
  8
0
 10
-16.6561
 20
-131.15
 11
-17.0397
 21
-131.353
  0
LINE
  8
0
 10
-17.0397
 20
-131.353
 11
-17.4268
 21
-131.525
  0
LINE
  8
0
 10
-17.4268
 20
-131.525
 11
-17.8056
 21
-131.659
  0
LINE
  8
0
 10
-17.8056
 20
-131.659
 11
-18.1648
 21
-131.75
  0
LINE
  8
0
 10
-18.1648
 20
-131.75
 11
-18.4933
 21
-131.798
  0
LINE
  8
0
 10
-18.4933
 20
-131.798
 11
-18.7811
 21
-131.799
  0
LINE
  8
0
 10
-18.7811
 20
-131.799
 11
-19.0196
 21
-131.754
  0
LINE
  8
0
 10
18.4933
 20
-131.798
 11
18.1648
 21
-131.75
  0
LINE
  8
0
 10
18.1648
 20
-131.75
 11
17.8056
 21
-131.659
  0
LINE
  8
0
 10
17.8056
 20
-131.659
 11
17.4268
 21
-131.525
  0
LINE
  8
0
 10
17.4268
 20
-131.525
 11
17.0397
 21
-131.353
  0
LINE
  8
0
 10
17.0397
 20
-131.353
 11
16.6561
 21
-131.15
  0
LINE
  8
0
 10
16.6561
 20
-131.15
 11
16.2878
 21
-130.919
  0
LINE
  8
0
 10
16.2878
 20
-130.919
 11
15.9458
 21
-130.67
  0
LINE
  8
0
 10
15.9458
 20
-130.67
 11
15.6406
 21
-130.409
  0
LINE
  8
0
 10
15.6406
 20
-130.409
 11
15.3814
 21
-130.143
  0
LINE
  8
0
 10
15.3814
 20
-130.143
 11
15.1762
 21
-129.883
  0
LINE
  8
0
 10
15.1762
 20
-129.883
 11
15.0311
 21
-129.634
  0
LINE
  8
0
 10
15.0311
 20
-129.634
 11
14.9506
 21
-129.405
  0
LINE
  8
0
 10
14.9506
 20
-129.405
 11
14.9371
 21
-129.203
  0
LINE
  8
0
 10
14.9371
 20
-129.203
 11
14.9911
 21
-129.034
  0
LINE
  8
0
 10
14.9911
 20
-129.034
 11
15.1108
 21
-128.902
  0
LINE
  8
0
 10
15.1108
 20
-128.902
 11
15.2926
 21
-128.813
  0
LINE
  8
0
 10
15.2926
 20
-128.813
 11
15.5311
 21
-128.768
  0
LINE
  8
0
 10
15.5311
 20
-128.768
 11
15.819
 21
-128.769
  0
LINE
  8
0
 10
15.819
 20
-128.769
 11
16.1475
 21
-128.817
  0
LINE
  8
0
 10
16.1475
 20
-128.817
 11
16.5066
 21
-128.909
  0
LINE
  8
0
 10
16.5066
 20
-128.909
 11
16.8855
 21
-129.042
  0
LINE
  8
0
 10
16.8855
 20
-129.042
 11
17.2726
 21
-129.214
  0
LINE
  8
0
 10
17.2726
 20
-129.214
 11
17.6561
 21
-129.418
  0
LINE
  8
0
 10
17.6561
 20
-129.418
 11
18.0245
 21
-129.648
  0
LINE
  8
0
 10
18.0245
 20
-129.648
 11
18.3665
 21
-129.897
  0
LINE
  8
0
 10
18.3665
 20
-129.897
 11
18.6717
 21
-130.159
  0
LINE
  8
0
 10
18.6717
 20
-130.159
 11
18.9308
 21
-130.424
  0
LINE
  8
0
 10
18.9308
 20
-130.424
 11
19.136
 21
-130.684
  0
LINE
  8
0
 10
19.136
 20
-130.684
 11
19.2811
 21
-130.933
  0
LINE
  8
0
 10
19.2811
 20
-130.933
 11
19.3616
 21
-131.162
  0
LINE
  8
0
 10
19.3616
 20
-131.162
 11
19.3751
 21
-131.364
  0
LINE
  8
0
 10
19.3751
 20
-131.364
 11
19.3212
 21
-131.534
  0
LINE
  8
0
 10
19.3212
 20
-131.534
 11
19.2015
 21
-131.665
  0
LINE
  8
0
 10
19.2015
 20
-131.665
 11
19.0196
 21
-131.754
  0
LINE
  8
0
 10
19.0196
 20
-131.754
 11
18.7811
 21
-131.799
  0
LINE
  8
0
 10
18.7811
 20
-131.799
 11
18.4933
 21
-131.798
  0
LINE
  8
0
 10
-14.1833
 20
-137.552
 11
-14.3407
 21
-137.469
  0
LINE
  8
0
 10
-14.3407
 20
-137.469
 11
-14.4493
 21
-137.328
  0
LINE
  8
0
 10
-14.4493
 20
-137.328
 11
-14.5058
 21
-137.134
  0
LINE
  8
0
 10
-14.5058
 20
-137.134
 11
-14.5084
 21
-136.891
  0
LINE
  8
0
 10
-14.5084
 20
-136.891
 11
-14.4572
 21
-136.608
  0
LINE
  8
0
 10
-14.4572
 20
-136.608
 11
-14.3535
 21
-136.293
  0
LINE
  8
0
 10
-14.3535
 20
-136.293
 11
-14.2006
 21
-135.955
  0
LINE
  8
0
 10
-14.2006
 20
-135.955
 11
-14.0032
 21
-135.605
  0
LINE
  8
0
 10
-14.0032
 20
-135.605
 11
-13.7672
 21
-135.253
  0
LINE
  8
0
 10
-13.7672
 20
-135.253
 11
-13.4998
 21
-134.911
  0
LINE
  8
0
 10
-13.4998
 20
-134.911
 11
-13.2091
 21
-134.588
  0
LINE
  8
0
 10
-13.2091
 20
-134.588
 11
-12.904
 21
-134.295
  0
LINE
  8
0
 10
-12.904
 20
-134.295
 11
-12.5937
 21
-134.04
  0
LINE
  8
0
 10
-12.5937
 20
-134.04
 11
-12.2876
 21
-133.831
  0
LINE
  8
0
 10
-12.2876
 20
-133.831
 11
-11.9951
 21
-133.674
  0
LINE
  8
0
 10
-11.9951
 20
-133.674
 11
-11.7251
 21
-133.574
  0
LINE
  8
0
 10
-11.7251
 20
-133.574
 11
-11.4857
 21
-133.534
  0
LINE
  8
0
 10
-11.4857
 20
-133.534
 11
-11.2842
 21
-133.556
  0
LINE
  8
0
 10
-11.2842
 20
-133.556
 11
-11.1268
 21
-133.639
  0
LINE
  8
0
 10
-11.1268
 20
-133.639
 11
-11.0182
 21
-133.78
  0
LINE
  8
0
 10
-11.0182
 20
-133.78
 11
-10.9617
 21
-133.974
  0
LINE
  8
0
 10
-10.9617
 20
-133.974
 11
-10.959
 21
-134.217
  0
LINE
  8
0
 10
-10.959
 20
-134.217
 11
-11.0103
 21
-134.5
  0
LINE
  8
0
 10
-11.0103
 20
-134.5
 11
-11.114
 21
-134.815
  0
LINE
  8
0
 10
-11.114
 20
-134.815
 11
-11.2668
 21
-135.153
  0
LINE
  8
0
 10
-11.2668
 20
-135.153
 11
-11.4643
 21
-135.503
  0
LINE
  8
0
 10
-11.4643
 20
-135.503
 11
-11.7003
 21
-135.854
  0
LINE
  8
0
 10
-11.7003
 20
-135.854
 11
-11.9677
 21
-136.197
  0
LINE
  8
0
 10
-11.9677
 20
-136.197
 11
-12.2584
 21
-136.52
  0
LINE
  8
0
 10
-12.2584
 20
-136.52
 11
-12.5635
 21
-136.813
  0
LINE
  8
0
 10
-12.5635
 20
-136.813
 11
-12.8738
 21
-137.068
  0
LINE
  8
0
 10
-12.8738
 20
-137.068
 11
-13.1799
 21
-137.277
  0
LINE
  8
0
 10
-13.1799
 20
-137.277
 11
-13.4723
 21
-137.434
  0
LINE
  8
0
 10
-13.4723
 20
-137.434
 11
-13.7424
 21
-137.534
  0
LINE
  8
0
 10
-13.7424
 20
-137.534
 11
-13.9818
 21
-137.573
  0
LINE
  8
0
 10
-13.9818
 20
-137.573
 11
-14.1833
 21
-137.552
  0
LINE
  8
0
 10
13.7424
 20
-137.534
 11
13.4723
 21
-137.434
  0
LINE
  8
0
 10
13.4723
 20
-137.434
 11
13.1799
 21
-137.277
  0
LINE
  8
0
 10
13.1799
 20
-137.277
 11
12.8738
 21
-137.068
  0
LINE
  8
0
 10
12.8738
 20
-137.068
 11
12.5635
 21
-136.813
  0
LINE
  8
0
 10
12.5635
 20
-136.813
 11
12.2584
 21
-136.52
  0
LINE
  8
0
 10
12.2584
 20
-136.52
 11
11.9677
 21
-136.197
  0
LINE
  8
0
 10
11.9677
 20
-136.197
 11
11.7003
 21
-135.854
  0
LINE
  8
0
 10
11.7003
 20
-135.854
 11
11.4643
 21
-135.503
  0
LINE
  8
0
 10
11.4643
 20
-135.503
 11
11.2668
 21
-135.153
  0
LINE
  8
0
 10
11.2668
 20
-135.153
 11
11.114
 21
-134.815
  0
LINE
  8
0
 10
11.114
 20
-134.815
 11
11.0103
 21
-134.5
  0
LINE
  8
0
 10
11.0103
 20
-134.5
 11
10.959
 21
-134.217
  0
LINE
  8
0
 10
10.959
 20
-134.217
 11
10.9617
 21
-133.974
  0
LINE
  8
0
 10
10.9617
 20
-133.974
 11
11.0182
 21
-133.78
  0
LINE
  8
0
 10
11.0182
 20
-133.78
 11
11.1268
 21
-133.639
  0
LINE
  8
0
 10
11.1268
 20
-133.639
 11
11.2842
 21
-133.556
  0
LINE
  8
0
 10
11.2842
 20
-133.556
 11
11.4857
 21
-133.534
  0
LINE
  8
0
 10
11.4857
 20
-133.534
 11
11.7251
 21
-133.574
  0
LINE
  8
0
 10
11.7251
 20
-133.574
 11
11.9951
 21
-133.674
  0
LINE
  8
0
 10
11.9951
 20
-133.674
 11
12.2876
 21
-133.831
  0
LINE
  8
0
 10
12.2876
 20
-133.831
 11
12.5937
 21
-134.04
  0
LINE
  8
0
 10
12.5937
 20
-134.04
 11
12.904
 21
-134.295
  0
LINE
  8
0
 10
12.904
 20
-134.295
 11
13.2091
 21
-134.588
  0
LINE
  8
0
 10
13.2091
 20
-134.588
 11
13.4998
 21
-134.911
  0
LINE
  8
0
 10
13.4998
 20
-134.911
 11
13.7672
 21
-135.253
  0
LINE
  8
0
 10
13.7672
 20
-135.253
 11
14.0032
 21
-135.605
  0
LINE
  8
0
 10
14.0032
 20
-135.605
 11
14.2006
 21
-135.955
  0
LINE
  8
0
 10
14.2006
 20
-135.955
 11
14.3535
 21
-136.293
  0
LINE
  8
0
 10
14.3535
 20
-136.293
 11
14.4572
 21
-136.608
  0
LINE
  8
0
 10
14.4572
 20
-136.608
 11
14.5084
 21
-136.891
  0
LINE
  8
0
 10
14.5084
 20
-136.891
 11
14.5058
 21
-137.134
  0
LINE
  8
0
 10
14.5058
 20
-137.134
 11
14.4493
 21
-137.328
  0
LINE
  8
0
 10
14.4493
 20
-137.328
 11
14.3407
 21
-137.469
  0
LINE
  8
0
 10
14.3407
 20
-137.469
 11
14.1833
 21
-137.552
  0
LINE
  8
0
 10
14.1833
 20
-137.552
 11
13.9818
 21
-137.573
  0
LINE
  8
0
 10
13.9818
 20
-137.573
 11
13.7424
 21
-137.534
  0
LINE
  8
0
 10
7.25757
 20
-141.318
 11
7.04613
 21
-141.199
  0
LINE
  8
0
 10
7.04613
 20
-141.199
 11
6.82646
 21
-141.013
  0
LINE
  8
0
 10
6.82646
 20
-141.013
 11
6.60524
 21
-140.766
  0
LINE
  8
0
 10
6.60524
 20
-140.766
 11
6.38921
 21
-140.465
  0
LINE
  8
0
 10
6.38921
 20
-140.465
 11
6.18489
 21
-140.119
  0
LINE
  8
0
 10
6.18489
 20
-140.119
 11
5.99854
 21
-139.739
  0
LINE
  8
0
 10
5.99854
 20
-139.739
 11
5.83578
 21
-139.336
  0
LINE
  8
0
 10
5.83578
 20
-139.336
 11
5.70158
 21
-138.923
  0
LINE
  8
0
 10
5.70158
 20
-138.923
 11
5.60001
 21
-138.512
  0
LINE
  8
0
 10
5.60001
 20
-138.512
 11
5.53415
 21
-138.116
  0
LINE
  8
0
 10
5.53415
 20
-138.116
 11
5.50601
 21
-137.746
  0
LINE
  8
0
 10
5.50601
 20
-137.746
 11
5.51645
 21
-137.414
  0
LINE
  8
0
 10
5.51645
 20
-137.414
 11
5.56514
 21
-137.13
  0
LINE
  8
0
 10
5.56514
 20
-137.13
 11
5.6506
 21
-136.903
  0
LINE
  8
0
 10
5.6506
 20
-136.903
 11
5.77023
 21
-136.74
  0
LINE
  8
0
 10
5.77023
 20
-136.74
 11
5.92043
 21
-136.645
  0
LINE
  8
0
 10
5.92043
 20
-136.645
 11
6.09659
 21
-136.621
  0
LINE
  8
0
 10
6.09659
 20
-136.621
 11
6.29338
 21
-136.669
  0
LINE
  8
0
 10
6.29338
 20
-136.669
 11
6.50482
 21
-136.788
  0
LINE
  8
0
 10
6.50482
 20
-136.788
 11
6.72449
 21
-136.974
  0
LINE
  8
0
 10
6.72449
 20
-136.974
 11
6.94571
 21
-137.222
  0
LINE
  8
0
 10
6.94571
 20
-137.222
 11
7.16174
 21
-137.523
  0
LINE
  8
0
 10
7.16174
 20
-137.523
 11
7.36606
 21
-137.869
  0
LINE
  8
0
 10
7.36606
 20
-137.869
 11
7.55241
 21
-138.249
  0
LINE
  8
0
 10
7.55241
 20
-138.249
 11
7.71516
 21
-138.652
  0
LINE
  8
0
 10
7.71516
 20
-138.652
 11
7.84937
 21
-139.065
  0
LINE
  8
0
 10
7.84937
 20
-139.065
 11
7.95094
 21
-139.476
  0
LINE
  8
0
 10
7.95094
 20
-139.476
 11
8.0168
 21
-139.872
  0
LINE
  8
0
 10
8.0168
 20
-139.872
 11
8.04494
 21
-140.242
  0
LINE
  8
0
 10
8.04494
 20
-140.242
 11
8.0345
 21
-140.574
  0
LINE
  8
0
 10
8.0345
 20
-140.574
 11
7.98582
 21
-140.857
  0
LINE
  8
0
 10
7.98582
 20
-140.857
 11
7.90036
 21
-141.085
  0
LINE
  8
0
 10
7.90036
 20
-141.085
 11
7.78072
 21
-141.248
  0
LINE
  8
0
 10
7.78072
 20
-141.248
 11
7.63052
 21
-141.343
  0
LINE
  8
0
 10
7.63052
 20
-141.343
 11
7.45436
 21
-141.367
  0
LINE
  8
0
 10
7.45436
 20
-141.367
 11
7.25757
 21
-141.318
  0
LINE
  8
0
 10
-7.63052
 20
-141.343
 11
-7.78072
 21
-141.248
  0
LINE
  8
0
 10
-7.78072
 20
-141.248
 11
-7.90036
 21
-141.085
  0
LINE
  8
0
 10
-7.90036
 20
-141.085
 11
-7.98582
 21
-140.857
  0
LINE
  8
0
 10
-7.98582
 20
-140.857
 11
-8.0345
 21
-140.574
  0
LINE
  8
0
 10
-8.0345
 20
-140.574
 11
-8.04494
 21
-140.242
  0
LINE
  8
0
 10
-8.04494
 20
-140.242
 11
-8.0168
 21
-139.872
  0
LINE
  8
0
 10
-8.0168
 20
-139.872
 11
-7.95094
 21
-139.476
  0
LINE
  8
0
 10
-7.95094
 20
-139.476
 11
-7.84937
 21
-139.065
  0
LINE
  8
0
 10
-7.84937
 20
-139.065
 11
-7.71516
 21
-138.652
  0
LINE
  8
0
 10
-7.71516
 20
-138.652
 11
-7.55241
 21
-138.249
  0
LINE
  8
0
 10
-7.55241
 20
-138.249
 11
-7.36606
 21
-137.869
  0
LINE
  8
0
 10
-7.36606
 20
-137.869
 11
-7.16174
 21
-137.523
  0
LINE
  8
0
 10
-7.16174
 20
-137.523
 11
-6.94571
 21
-137.222
  0
LINE
  8
0
 10
-6.94571
 20
-137.222
 11
-6.72449
 21
-136.974
  0
LINE
  8
0
 10
-6.72449
 20
-136.974
 11
-6.50482
 21
-136.788
  0
LINE
  8
0
 10
-6.50482
 20
-136.788
 11
-6.29338
 21
-136.669
  0
LINE
  8
0
 10
-6.29338
 20
-136.669
 11
-6.09659
 21
-136.621
  0
LINE
  8
0
 10
-6.09659
 20
-136.621
 11
-5.92043
 21
-136.645
  0
LINE
  8
0
 10
-5.92043
 20
-136.645
 11
-5.77023
 21
-136.74
  0
LINE
  8
0
 10
-5.77023
 20
-136.74
 11
-5.6506
 21
-136.903
  0
LINE
  8
0
 10
-5.6506
 20
-136.903
 11
-5.56514
 21
-137.13
  0
LINE
  8
0
 10
-5.56514
 20
-137.13
 11
-5.51645
 21
-137.414
  0
LINE
  8
0
 10
-5.51645
 20
-137.414
 11
-5.50601
 21
-137.746
  0
LINE
  8
0
 10
-5.50601
 20
-137.746
 11
-5.53415
 21
-138.116
  0
LINE
  8
0
 10
-5.53415
 20
-138.116
 11
-5.60001
 21
-138.512
  0
LINE
  8
0
 10
-5.60001
 20
-138.512
 11
-5.70158
 21
-138.923
  0
LINE
  8
0
 10
-5.70158
 20
-138.923
 11
-5.83578
 21
-139.336
  0
LINE
  8
0
 10
-5.83578
 20
-139.336
 11
-5.99854
 21
-139.739
  0
LINE
  8
0
 10
-5.99854
 20
-139.739
 11
-6.18489
 21
-140.119
  0
LINE
  8
0
 10
-6.18489
 20
-140.119
 11
-6.38921
 21
-140.465
  0
LINE
  8
0
 10
-6.38921
 20
-140.465
 11
-6.60524
 21
-140.766
  0
LINE
  8
0
 10
-6.60524
 20
-140.766
 11
-6.82646
 21
-141.013
  0
LINE
  8
0
 10
-6.82646
 20
-141.013
 11
-7.04613
 21
-141.199
  0
LINE
  8
0
 10
-7.04613
 20
-141.199
 11
-7.25757
 21
-141.318
  0
LINE
  8
0
 10
-7.25757
 20
-141.318
 11
-7.45436
 21
-141.367
  0
LINE
  8
0
 10
-7.45436
 20
-141.367
 11
-7.63052
 21
-141.343
  0
LINE
  8
0
 10
-0.173645
 20
-142.651
 11
-0.34201
 21
-142.538
  0
LINE
  8
0
 10
-0.34201
 20
-142.538
 11
-0.5
 21
-142.354
  0
LINE
  8
0
 10
-0.5
 20
-142.354
 11
-0.642776
 21
-142.104
  0
LINE
  8
0
 10
-0.642776
 20
-142.104
 11
-0.766037
 21
-141.796
  0
LINE
  8
0
 10
-0.766037
 20
-141.796
 11
-0.866013
 21
-141.439
  0
LINE
  8
0
 10
-0.866013
 20
-141.439
 11
-0.939682
 21
-141.044
  0
LINE
  8
0
 10
-0.939682
 20
-141.044
 11
-0.984802
 21
-140.623
  0
LINE
  8
0
 10
-0.984802
 20
-140.623
 11
-1
 21
-140.189
  0
LINE
  8
0
 10
-1
 20
-140.189
 11
-0.984802
 21
-139.755
  0
LINE
  8
0
 10
-0.984802
 20
-139.755
 11
-0.939682
 21
-139.334
  0
LINE
  8
0
 10
-0.939682
 20
-139.334
 11
-0.866013
 21
-138.939
  0
LINE
  8
0
 10
-0.866013
 20
-138.939
 11
-0.766037
 21
-138.582
  0
LINE
  8
0
 10
-0.766037
 20
-138.582
 11
-0.642776
 21
-138.274
  0
LINE
  8
0
 10
-0.642776
 20
-138.274
 11
-0.5
 21
-138.024
  0
LINE
  8
0
 10
-0.5
 20
-138.024
 11
-0.34201
 21
-137.839
  0
LINE
  8
0
 10
-0.34201
 20
-137.839
 11
-0.173645
 21
-137.727
  0
LINE
  8
0
 10
-0.173645
 20
-137.727
 11
0
 21
-137.689
  0
LINE
  8
0
 10
0
 20
-137.689
 11
0.173645
 21
-137.727
  0
LINE
  8
0
 10
0.173645
 20
-137.727
 11
0.34201
 21
-137.839
  0
LINE
  8
0
 10
0.34201
 20
-137.839
 11
0.499985
 21
-138.024
  0
LINE
  8
0
 10
0.499985
 20
-138.024
 11
0.642776
 21
-138.274
  0
LINE
  8
0
 10
0.642776
 20
-138.274
 11
0.766037
 21
-138.582
  0
LINE
  8
0
 10
0.766037
 20
-138.582
 11
0.866013
 21
-138.939
  0
LINE
  8
0
 10
0.866013
 20
-138.939
 11
0.939682
 21
-139.334
  0
LINE
  8
0
 10
0.939682
 20
-139.334
 11
0.984802
 21
-139.755
  0
LINE
  8
0
 10
0.984802
 20
-139.755
 11
0.999985
 21
-140.189
  0
LINE
  8
0
 10
0.999985
 20
-140.189
 11
0.984802
 21
-140.623
  0
LINE
  8
0
 10
0.984802
 20
-140.623
 11
0.939682
 21
-141.044
  0
LINE
  8
0
 10
0.939682
 20
-141.044
 11
0.866013
 21
-141.439
  0
LINE
  8
0
 10
0.866013
 20
-141.439
 11
0.766037
 21
-141.796
  0
LINE
  8
0
 10
0.766037
 20
-141.796
 11
0.642776
 21
-142.104
  0
LINE
  8
0
 10
0.642776
 20
-142.104
 11
0.499985
 21
-142.354
  0
LINE
  8
0
 10
0.499985
 20
-142.354
 11
0.34201
 21
-142.538
  0
LINE
  8
0
 10
0.34201
 20
-142.538
 11
0.173645
 21
-142.651
  0
LINE
  8
0
 10
0.173645
 20
-142.651
 11
0
 21
-142.689
  0
LINE
  8
0
 10
0
 20
-142.689
 11
-0.173645
 21
-142.651
  0
LINE
  8
0
 10
-64.4056
 20
-45.9155
 11
-64.6581
 21
-45.8478
  0
LINE
  8
0
 10
-64.6581
 20
-45.8478
 11
-64.8951
 21
-45.7373
  0
LINE
  8
0
 10
-64.8951
 20
-45.7373
 11
-65.1093
 21
-45.5873
  0
LINE
  8
0
 10
-65.1093
 20
-45.5873
 11
-65.2942
 21
-45.4024
  0
LINE
  8
0
 10
-65.2942
 20
-45.4024
 11
-65.4442
 21
-45.1882
  0
LINE
  8
0
 10
-65.4442
 20
-45.1882
 11
-65.5547
 21
-44.9513
  0
LINE
  8
0
 10
-65.5547
 20
-44.9513
 11
-65.6223
 21
-44.6987
  0
LINE
  8
0
 10
-65.6223
 20
-44.6987
 11
-65.6451
 21
-44.4382
  0
LINE
  8
0
 10
-65.6451
 20
-44.4382
 11
-65.6223
 21
-44.1778
  0
LINE
  8
0
 10
-65.6223
 20
-44.1778
 11
-65.5547
 21
-43.9252
  0
LINE
  8
0
 10
-65.5547
 20
-43.9252
 11
-65.4442
 21
-43.6882
  0
LINE
  8
0
 10
-65.4442
 20
-43.6882
 11
-65.2942
 21
-43.4741
  0
LINE
  8
0
 10
-65.2942
 20
-43.4741
 11
-65.1093
 21
-43.2892
  0
LINE
  8
0
 10
-65.1093
 20
-43.2892
 11
-64.8951
 21
-43.1392
  0
LINE
  8
0
 10
-64.8951
 20
-43.1392
 11
-64.6581
 21
-43.0287
  0
LINE
  8
0
 10
-64.6581
 20
-43.0287
 11
-64.4056
 21
-42.961
  0
LINE
  8
0
 10
-64.4056
 20
-42.961
 11
-64.1451
 21
-42.9382
  0
LINE
  8
0
 10
-64.1451
 20
-42.9382
 11
-63.8846
 21
-42.961
  0
LINE
  8
0
 10
-63.8846
 20
-42.961
 11
-63.6321
 21
-43.0287
  0
LINE
  8
0
 10
-63.6321
 20
-43.0287
 11
-63.3951
 21
-43.1392
  0
LINE
  8
0
 10
-63.3951
 20
-43.1392
 11
-63.1809
 21
-43.2892
  0
LINE
  8
0
 10
-63.1809
 20
-43.2892
 11
-62.996
 21
-43.4741
  0
LINE
  8
0
 10
-62.996
 20
-43.4741
 11
-62.8461
 21
-43.6882
  0
LINE
  8
0
 10
-62.8461
 20
-43.6882
 11
-62.7356
 21
-43.9252
  0
LINE
  8
0
 10
-62.7356
 20
-43.9252
 11
-62.6679
 21
-44.1778
  0
LINE
  8
0
 10
-62.6679
 20
-44.1778
 11
-62.6451
 21
-44.4382
  0
LINE
  8
0
 10
-62.6451
 20
-44.4382
 11
-62.6679
 21
-44.6987
  0
LINE
  8
0
 10
-62.6679
 20
-44.6987
 11
-62.7356
 21
-44.9513
  0
LINE
  8
0
 10
-62.7356
 20
-44.9513
 11
-62.8461
 21
-45.1882
  0
LINE
  8
0
 10
-62.8461
 20
-45.1882
 11
-62.996
 21
-45.4024
  0
LINE
  8
0
 10
-62.996
 20
-45.4024
 11
-63.1809
 21
-45.5873
  0
LINE
  8
0
 10
-63.1809
 20
-45.5873
 11
-63.3951
 21
-45.7373
  0
LINE
  8
0
 10
-63.3951
 20
-45.7373
 11
-63.6321
 21
-45.8478
  0
LINE
  8
0
 10
-63.6321
 20
-45.8478
 11
-63.8846
 21
-45.9155
  0
LINE
  8
0
 10
-63.8846
 20
-45.9155
 11
-64.1451
 21
-45.9382
  0
LINE
  8
0
 10
-64.1451
 20
-45.9382
 11
-64.4056
 21
-45.9155
  0
LINE
  8
0
 10
63.8846
 20
-45.9155
 11
63.6321
 21
-45.8478
  0
LINE
  8
0
 10
63.6321
 20
-45.8478
 11
63.3951
 21
-45.7373
  0
LINE
  8
0
 10
63.3951
 20
-45.7373
 11
63.1809
 21
-45.5873
  0
LINE
  8
0
 10
63.1809
 20
-45.5873
 11
62.996
 21
-45.4024
  0
LINE
  8
0
 10
62.996
 20
-45.4024
 11
62.8461
 21
-45.1882
  0
LINE
  8
0
 10
62.8461
 20
-45.1882
 11
62.7356
 21
-44.9513
  0
LINE
  8
0
 10
62.7356
 20
-44.9513
 11
62.6679
 21
-44.6987
  0
LINE
  8
0
 10
62.6679
 20
-44.6987
 11
62.6451
 21
-44.4382
  0
LINE
  8
0
 10
62.6451
 20
-44.4382
 11
62.6679
 21
-44.1778
  0
LINE
  8
0
 10
62.6679
 20
-44.1778
 11
62.7356
 21
-43.9252
  0
LINE
  8
0
 10
62.7356
 20
-43.9252
 11
62.8461
 21
-43.6882
  0
LINE
  8
0
 10
62.8461
 20
-43.6882
 11
62.996
 21
-43.4741
  0
LINE
  8
0
 10
62.996
 20
-43.4741
 11
63.1809
 21
-43.2892
  0
LINE
  8
0
 10
63.1809
 20
-43.2892
 11
63.3951
 21
-43.1392
  0
LINE
  8
0
 10
63.3951
 20
-43.1392
 11
63.6321
 21
-43.0287
  0
LINE
  8
0
 10
63.6321
 20
-43.0287
 11
63.8846
 21
-42.961
  0
LINE
  8
0
 10
63.8846
 20
-42.961
 11
64.1451
 21
-42.9382
  0
LINE
  8
0
 10
64.1451
 20
-42.9382
 11
64.4056
 21
-42.961
  0
LINE
  8
0
 10
64.4056
 20
-42.961
 11
64.6581
 21
-43.0287
  0
LINE
  8
0
 10
64.6581
 20
-43.0287
 11
64.8951
 21
-43.1392
  0
LINE
  8
0
 10
64.8951
 20
-43.1392
 11
65.1093
 21
-43.2892
  0
LINE
  8
0
 10
65.1093
 20
-43.2892
 11
65.2942
 21
-43.4741
  0
LINE
  8
0
 10
65.2942
 20
-43.4741
 11
65.4442
 21
-43.6882
  0
LINE
  8
0
 10
65.4442
 20
-43.6882
 11
65.5547
 21
-43.9252
  0
LINE
  8
0
 10
65.5547
 20
-43.9252
 11
65.6223
 21
-44.1778
  0
LINE
  8
0
 10
65.6223
 20
-44.1778
 11
65.6451
 21
-44.4382
  0
LINE
  8
0
 10
65.6451
 20
-44.4382
 11
65.6223
 21
-44.6987
  0
LINE
  8
0
 10
65.6223
 20
-44.6987
 11
65.5547
 21
-44.9513
  0
LINE
  8
0
 10
65.5547
 20
-44.9513
 11
65.4442
 21
-45.1882
  0
LINE
  8
0
 10
65.4442
 20
-45.1882
 11
65.2942
 21
-45.4024
  0
LINE
  8
0
 10
65.2942
 20
-45.4024
 11
65.1093
 21
-45.5873
  0
LINE
  8
0
 10
65.1093
 20
-45.5873
 11
64.8951
 21
-45.7373
  0
LINE
  8
0
 10
64.8951
 20
-45.7373
 11
64.6581
 21
-45.8478
  0
LINE
  8
0
 10
64.6581
 20
-45.8478
 11
64.4056
 21
-45.9155
  0
LINE
  8
0
 10
64.4056
 20
-45.9155
 11
64.1451
 21
-45.9382
  0
LINE
  8
0
 10
64.1451
 20
-45.9382
 11
63.8846
 21
-45.9155
  0
LINE
  8
0
 10
-64.4056
 20
-78.6055
 11
-64.6581
 21
-78.5378
  0
LINE
  8
0
 10
-64.6581
 20
-78.5378
 11
-64.8951
 21
-78.4273
  0
LINE
  8
0
 10
-64.8951
 20
-78.4273
 11
-65.1093
 21
-78.2773
  0
LINE
  8
0
 10
-65.1093
 20
-78.2773
 11
-65.2942
 21
-78.0924
  0
LINE
  8
0
 10
-65.2942
 20
-78.0924
 11
-65.4442
 21
-77.8783
  0
LINE
  8
0
 10
-65.4442
 20
-77.8783
 11
-65.5547
 21
-77.6413
  0
LINE
  8
0
 10
-65.5547
 20
-77.6413
 11
-65.6223
 21
-77.3887
  0
LINE
  8
0
 10
-65.6223
 20
-77.3887
 11
-65.6451
 21
-77.1283
  0
LINE
  8
0
 10
-65.6451
 20
-77.1283
 11
-65.6223
 21
-76.8678
  0
LINE
  8
0
 10
-65.6223
 20
-76.8678
 11
-65.5547
 21
-76.6152
  0
LINE
  8
0
 10
-65.5547
 20
-76.6152
 11
-65.4442
 21
-76.3783
  0
LINE
  8
0
 10
-65.4442
 20
-76.3783
 11
-65.2942
 21
-76.1641
  0
LINE
  8
0
 10
-65.2942
 20
-76.1641
 11
-65.1093
 21
-75.9792
  0
LINE
  8
0
 10
-65.1093
 20
-75.9792
 11
-64.8951
 21
-75.8292
  0
LINE
  8
0
 10
-64.8951
 20
-75.8292
 11
-64.6581
 21
-75.7187
  0
LINE
  8
0
 10
-64.6581
 20
-75.7187
 11
-64.4056
 21
-75.651
  0
LINE
  8
0
 10
-64.4056
 20
-75.651
 11
-64.1451
 21
-75.6283
  0
LINE
  8
0
 10
-64.1451
 20
-75.6283
 11
-63.8846
 21
-75.651
  0
LINE
  8
0
 10
-63.8846
 20
-75.651
 11
-63.6321
 21
-75.7187
  0
LINE
  8
0
 10
-63.6321
 20
-75.7187
 11
-63.3951
 21
-75.8292
  0
LINE
  8
0
 10
-63.3951
 20
-75.8292
 11
-63.1809
 21
-75.9792
  0
LINE
  8
0
 10
-63.1809
 20
-75.9792
 11
-62.996
 21
-76.1641
  0
LINE
  8
0
 10
-62.996
 20
-76.1641
 11
-62.8461
 21
-76.3783
  0
LINE
  8
0
 10
-62.8461
 20
-76.3783
 11
-62.7356
 21
-76.6152
  0
LINE
  8
0
 10
-62.7356
 20
-76.6152
 11
-62.6679
 21
-76.8678
  0
LINE
  8
0
 10
-62.6679
 20
-76.8678
 11
-62.6451
 21
-77.1283
  0
LINE
  8
0
 10
-62.6451
 20
-77.1283
 11
-62.6679
 21
-77.3887
  0
LINE
  8
0
 10
-62.6679
 20
-77.3887
 11
-62.7356
 21
-77.6413
  0
LINE
  8
0
 10
-62.7356
 20
-77.6413
 11
-62.8461
 21
-77.8783
  0
LINE
  8
0
 10
-62.8461
 20
-77.8783
 11
-62.996
 21
-78.0924
  0
LINE
  8
0
 10
-62.996
 20
-78.0924
 11
-63.1809
 21
-78.2773
  0
LINE
  8
0
 10
-63.1809
 20
-78.2773
 11
-63.3951
 21
-78.4273
  0
LINE
  8
0
 10
-63.3951
 20
-78.4273
 11
-63.6321
 21
-78.5378
  0
LINE
  8
0
 10
-63.6321
 20
-78.5378
 11
-63.8846
 21
-78.6055
  0
LINE
  8
0
 10
-63.8846
 20
-78.6055
 11
-64.1451
 21
-78.6283
  0
LINE
  8
0
 10
-64.1451
 20
-78.6283
 11
-64.4056
 21
-78.6055
  0
LINE
  8
0
 10
63.8846
 20
-78.6055
 11
63.6321
 21
-78.5378
  0
LINE
  8
0
 10
63.6321
 20
-78.5378
 11
63.3951
 21
-78.4273
  0
LINE
  8
0
 10
63.3951
 20
-78.4273
 11
63.1809
 21
-78.2773
  0
LINE
  8
0
 10
63.1809
 20
-78.2773
 11
62.996
 21
-78.0924
  0
LINE
  8
0
 10
62.996
 20
-78.0924
 11
62.8461
 21
-77.8783
  0
LINE
  8
0
 10
62.8461
 20
-77.8783
 11
62.7356
 21
-77.6413
  0
LINE
  8
0
 10
62.7356
 20
-77.6413
 11
62.6679
 21
-77.3887
  0
LINE
  8
0
 10
62.6679
 20
-77.3887
 11
62.6451
 21
-77.1283
  0
LINE
  8
0
 10
62.6451
 20
-77.1283
 11
62.6679
 21
-76.8678
  0
LINE
  8
0
 10
62.6679
 20
-76.8678
 11
62.7356
 21
-76.6152
  0
LINE
  8
0
 10
62.7356
 20
-76.6152
 11
62.8461
 21
-76.3783
  0
LINE
  8
0
 10
62.8461
 20
-76.3783
 11
62.996
 21
-76.1641
  0
LINE
  8
0
 10
62.996
 20
-76.1641
 11
63.1809
 21
-75.9792
  0
LINE
  8
0
 10
63.1809
 20
-75.9792
 11
63.3951
 21
-75.8292
  0
LINE
  8
0
 10
63.3951
 20
-75.8292
 11
63.6321
 21
-75.7187
  0
LINE
  8
0
 10
63.6321
 20
-75.7187
 11
63.8846
 21
-75.651
  0
LINE
  8
0
 10
63.8846
 20
-75.651
 11
64.1451
 21
-75.6283
  0
LINE
  8
0
 10
64.1451
 20
-75.6283
 11
64.4056
 21
-75.651
  0
LINE
  8
0
 10
64.4056
 20
-75.651
 11
64.6581
 21
-75.7187
  0
LINE
  8
0
 10
64.6581
 20
-75.7187
 11
64.8951
 21
-75.8292
  0
LINE
  8
0
 10
64.8951
 20
-75.8292
 11
65.1093
 21
-75.9792
  0
LINE
  8
0
 10
65.1093
 20
-75.9792
 11
65.2942
 21
-76.1641
  0
LINE
  8
0
 10
65.2942
 20
-76.1641
 11
65.4442
 21
-76.3783
  0
LINE
  8
0
 10
65.4442
 20
-76.3783
 11
65.5547
 21
-76.6152
  0
LINE
  8
0
 10
65.5547
 20
-76.6152
 11
65.6223
 21
-76.8678
  0
LINE
  8
0
 10
65.6223
 20
-76.8678
 11
65.6451
 21
-77.1283
  0
LINE
  8
0
 10
65.6451
 20
-77.1283
 11
65.6223
 21
-77.3887
  0
LINE
  8
0
 10
65.6223
 20
-77.3887
 11
65.5547
 21
-77.6413
  0
LINE
  8
0
 10
65.5547
 20
-77.6413
 11
65.4442
 21
-77.8783
  0
LINE
  8
0
 10
65.4442
 20
-77.8783
 11
65.2942
 21
-78.0924
  0
LINE
  8
0
 10
65.2942
 20
-78.0924
 11
65.1093
 21
-78.2773
  0
LINE
  8
0
 10
65.1093
 20
-78.2773
 11
64.8951
 21
-78.4273
  0
LINE
  8
0
 10
64.8951
 20
-78.4273
 11
64.6581
 21
-78.5378
  0
LINE
  8
0
 10
64.6581
 20
-78.5378
 11
64.4056
 21
-78.6055
  0
LINE
  8
0
 10
64.4056
 20
-78.6055
 11
64.1451
 21
-78.6283
  0
LINE
  8
0
 10
64.1451
 20
-78.6283
 11
63.8846
 21
-78.6055
  0
LINE
  8
0
 10
91.7747
 20
-110.356
 11
91.5222
 21
-110.288
  0
LINE
  8
0
 10
91.5222
 20
-110.288
 11
91.2852
 21
-110.177
  0
LINE
  8
0
 10
91.2852
 20
-110.177
 11
91.071
 21
-110.028
  0
LINE
  8
0
 10
91.071
 20
-110.028
 11
90.8861
 21
-109.843
  0
LINE
  8
0
 10
90.8861
 20
-109.843
 11
90.7361
 21
-109.628
  0
LINE
  8
0
 10
90.7361
 20
-109.628
 11
90.6256
 21
-109.391
  0
LINE
  8
0
 10
90.6256
 20
-109.391
 11
90.558
 21
-109.139
  0
LINE
  8
0
 10
90.558
 20
-109.139
 11
90.5352
 21
-108.878
  0
LINE
  8
0
 10
90.5352
 20
-108.878
 11
90.558
 21
-108.618
  0
LINE
  8
0
 10
90.558
 20
-108.618
 11
90.6256
 21
-108.365
  0
LINE
  8
0
 10
90.6256
 20
-108.365
 11
90.7361
 21
-108.128
  0
LINE
  8
0
 10
90.7361
 20
-108.128
 11
90.8861
 21
-107.914
  0
LINE
  8
0
 10
90.8861
 20
-107.914
 11
91.071
 21
-107.729
  0
LINE
  8
0
 10
91.071
 20
-107.729
 11
91.2852
 21
-107.579
  0
LINE
  8
0
 10
91.2852
 20
-107.579
 11
91.5222
 21
-107.469
  0
LINE
  8
0
 10
91.5222
 20
-107.469
 11
91.7747
 21
-107.401
  0
LINE
  8
0
 10
91.7747
 20
-107.401
 11
92.0352
 21
-107.378
  0
LINE
  8
0
 10
92.0352
 20
-107.378
 11
92.2957
 21
-107.401
  0
LINE
  8
0
 10
92.2957
 20
-107.401
 11
92.5482
 21
-107.469
  0
LINE
  8
0
 10
92.5482
 20
-107.469
 11
92.7852
 21
-107.579
  0
LINE
  8
0
 10
92.7852
 20
-107.579
 11
92.9994
 21
-107.729
  0
LINE
  8
0
 10
92.9994
 20
-107.729
 11
93.1842
 21
-107.914
  0
LINE
  8
0
 10
93.1842
 20
-107.914
 11
93.3342
 21
-108.128
  0
LINE
  8
0
 10
93.3342
 20
-108.128
 11
93.4447
 21
-108.365
  0
LINE
  8
0
 10
93.4447
 20
-108.365
 11
93.5124
 21
-108.618
  0
LINE
  8
0
 10
93.5124
 20
-108.618
 11
93.5352
 21
-108.878
  0
LINE
  8
0
 10
93.5352
 20
-108.878
 11
93.5124
 21
-109.139
  0
LINE
  8
0
 10
93.5124
 20
-109.139
 11
93.4447
 21
-109.391
  0
LINE
  8
0
 10
93.4447
 20
-109.391
 11
93.3342
 21
-109.628
  0
LINE
  8
0
 10
93.3342
 20
-109.628
 11
93.1842
 21
-109.843
  0
LINE
  8
0
 10
93.1842
 20
-109.843
 11
92.9994
 21
-110.028
  0
LINE
  8
0
 10
92.9994
 20
-110.028
 11
92.7852
 21
-110.177
  0
LINE
  8
0
 10
92.7852
 20
-110.177
 11
92.5482
 21
-110.288
  0
LINE
  8
0
 10
92.5482
 20
-110.288
 11
92.2957
 21
-110.356
  0
LINE
  8
0
 10
92.2957
 20
-110.356
 11
92.0352
 21
-110.378
  0
LINE
  8
0
 10
92.0352
 20
-110.378
 11
91.7747
 21
-110.356
  0
LINE
  8
0
 10
77.8047
 20
-110.356
 11
77.5522
 21
-110.288
  0
LINE
  8
0
 10
77.5522
 20
-110.288
 11
77.3152
 21
-110.177
  0
LINE
  8
0
 10
77.3152
 20
-110.177
 11
77.101
 21
-110.028
  0
LINE
  8
0
 10
77.101
 20
-110.028
 11
76.9161
 21
-109.843
  0
LINE
  8
0
 10
76.9161
 20
-109.843
 11
76.7661
 21
-109.628
  0
LINE
  8
0
 10
76.7661
 20
-109.628
 11
76.6556
 21
-109.391
  0
LINE
  8
0
 10
76.6556
 20
-109.391
 11
76.588
 21
-109.139
  0
LINE
  8
0
 10
76.588
 20
-109.139
 11
76.5652
 21
-108.878
  0
LINE
  8
0
 10
76.5652
 20
-108.878
 11
76.588
 21
-108.618
  0
LINE
  8
0
 10
76.588
 20
-108.618
 11
76.6556
 21
-108.365
  0
LINE
  8
0
 10
76.6556
 20
-108.365
 11
76.7661
 21
-108.128
  0
LINE
  8
0
 10
76.7661
 20
-108.128
 11
76.9161
 21
-107.914
  0
LINE
  8
0
 10
76.9161
 20
-107.914
 11
77.101
 21
-107.729
  0
LINE
  8
0
 10
77.101
 20
-107.729
 11
77.3152
 21
-107.579
  0
LINE
  8
0
 10
77.3152
 20
-107.579
 11
77.5522
 21
-107.469
  0
LINE
  8
0
 10
77.5522
 20
-107.469
 11
77.8047
 21
-107.401
  0
LINE
  8
0
 10
77.8047
 20
-107.401
 11
78.0652
 21
-107.378
  0
LINE
  8
0
 10
78.0652
 20
-107.378
 11
78.3257
 21
-107.401
  0
LINE
  8
0
 10
78.3257
 20
-107.401
 11
78.5782
 21
-107.469
  0
LINE
  8
0
 10
78.5782
 20
-107.469
 11
78.8152
 21
-107.579
  0
LINE
  8
0
 10
78.8152
 20
-107.579
 11
79.0294
 21
-107.729
  0
LINE
  8
0
 10
79.0294
 20
-107.729
 11
79.2142
 21
-107.914
  0
LINE
  8
0
 10
79.2142
 20
-107.914
 11
79.3642
 21
-108.128
  0
LINE
  8
0
 10
79.3642
 20
-108.128
 11
79.4747
 21
-108.365
  0
LINE
  8
0
 10
79.4747
 20
-108.365
 11
79.5424
 21
-108.618
  0
LINE
  8
0
 10
79.5424
 20
-108.618
 11
79.5652
 21
-108.878
  0
LINE
  8
0
 10
79.5652
 20
-108.878
 11
79.5424
 21
-109.139
  0
LINE
  8
0
 10
79.5424
 20
-109.139
 11
79.4747
 21
-109.391
  0
LINE
  8
0
 10
79.4747
 20
-109.391
 11
79.3642
 21
-109.628
  0
LINE
  8
0
 10
79.3642
 20
-109.628
 11
79.2142
 21
-109.843
  0
LINE
  8
0
 10
79.2142
 20
-109.843
 11
79.0294
 21
-110.028
  0
LINE
  8
0
 10
79.0294
 20
-110.028
 11
78.8152
 21
-110.177
  0
LINE
  8
0
 10
78.8152
 20
-110.177
 11
78.5782
 21
-110.288
  0
LINE
  8
0
 10
78.5782
 20
-110.288
 11
78.3257
 21
-110.356
  0
LINE
  8
0
 10
78.3257
 20
-110.356
 11
78.0652
 21
-110.378
  0
LINE
  8
0
 10
78.0652
 20
-110.378
 11
77.8047
 21
-110.356
  0
LINE
  8
0
 10
-78.3257
 20
-110.356
 11
-78.5782
 21
-110.288
  0
LINE
  8
0
 10
-78.5782
 20
-110.288
 11
-78.8152
 21
-110.177
  0
LINE
  8
0
 10
-78.8152
 20
-110.177
 11
-79.0294
 21
-110.028
  0
LINE
  8
0
 10
-79.0294
 20
-110.028
 11
-79.2142
 21
-109.843
  0
LINE
  8
0
 10
-79.2142
 20
-109.843
 11
-79.3642
 21
-109.628
  0
LINE
  8
0
 10
-79.3642
 20
-109.628
 11
-79.4747
 21
-109.391
  0
LINE
  8
0
 10
-79.4747
 20
-109.391
 11
-79.5424
 21
-109.139
  0
LINE
  8
0
 10
-79.5424
 20
-109.139
 11
-79.5652
 21
-108.878
  0
LINE
  8
0
 10
-79.5652
 20
-108.878
 11
-79.5424
 21
-108.618
  0
LINE
  8
0
 10
-79.5424
 20
-108.618
 11
-79.4747
 21
-108.365
  0
LINE
  8
0
 10
-79.4747
 20
-108.365
 11
-79.3642
 21
-108.128
  0
LINE
  8
0
 10
-79.3642
 20
-108.128
 11
-79.2142
 21
-107.914
  0
LINE
  8
0
 10
-79.2142
 20
-107.914
 11
-79.0294
 21
-107.729
  0
LINE
  8
0
 10
-79.0294
 20
-107.729
 11
-78.8152
 21
-107.579
  0
LINE
  8
0
 10
-78.8152
 20
-107.579
 11
-78.5782
 21
-107.469
  0
LINE
  8
0
 10
-78.5782
 20
-107.469
 11
-78.3257
 21
-107.401
  0
LINE
  8
0
 10
-78.3257
 20
-107.401
 11
-78.0652
 21
-107.378
  0
LINE
  8
0
 10
-78.0652
 20
-107.378
 11
-77.8047
 21
-107.401
  0
LINE
  8
0
 10
-77.8047
 20
-107.401
 11
-77.5522
 21
-107.469
  0
LINE
  8
0
 10
-77.5522
 20
-107.469
 11
-77.3152
 21
-107.579
  0
LINE
  8
0
 10
-77.3152
 20
-107.579
 11
-77.101
 21
-107.729
  0
LINE
  8
0
 10
-77.101
 20
-107.729
 11
-76.9161
 21
-107.914
  0
LINE
  8
0
 10
-76.9161
 20
-107.914
 11
-76.7661
 21
-108.128
  0
LINE
  8
0
 10
-76.7661
 20
-108.128
 11
-76.6556
 21
-108.365
  0
LINE
  8
0
 10
-76.6556
 20
-108.365
 11
-76.588
 21
-108.618
  0
LINE
  8
0
 10
-76.588
 20
-108.618
 11
-76.5652
 21
-108.878
  0
LINE
  8
0
 10
-76.5652
 20
-108.878
 11
-76.588
 21
-109.139
  0
LINE
  8
0
 10
-76.588
 20
-109.139
 11
-76.6556
 21
-109.391
  0
LINE
  8
0
 10
-76.6556
 20
-109.391
 11
-76.7661
 21
-109.628
  0
LINE
  8
0
 10
-76.7661
 20
-109.628
 11
-76.9161
 21
-109.843
  0
LINE
  8
0
 10
-76.9161
 20
-109.843
 11
-77.101
 21
-110.028
  0
LINE
  8
0
 10
-77.101
 20
-110.028
 11
-77.3152
 21
-110.177
  0
LINE
  8
0
 10
-77.3152
 20
-110.177
 11
-77.5522
 21
-110.288
  0
LINE
  8
0
 10
-77.5522
 20
-110.288
 11
-77.8047
 21
-110.356
  0
LINE
  8
0
 10
-77.8047
 20
-110.356
 11
-78.0652
 21
-110.378
  0
LINE
  8
0
 10
-78.0652
 20
-110.378
 11
-78.3257
 21
-110.356
  0
LINE
  8
0
 10
-92.2957
 20
-110.356
 11
-92.5482
 21
-110.288
  0
LINE
  8
0
 10
-92.5482
 20
-110.288
 11
-92.7852
 21
-110.177
  0
LINE
  8
0
 10
-92.7852
 20
-110.177
 11
-92.9994
 21
-110.028
  0
LINE
  8
0
 10
-92.9994
 20
-110.028
 11
-93.1842
 21
-109.843
  0
LINE
  8
0
 10
-93.1842
 20
-109.843
 11
-93.3342
 21
-109.628
  0
LINE
  8
0
 10
-93.3342
 20
-109.628
 11
-93.4447
 21
-109.391
  0
LINE
  8
0
 10
-93.4447
 20
-109.391
 11
-93.5124
 21
-109.139
  0
LINE
  8
0
 10
-93.5124
 20
-109.139
 11
-93.5352
 21
-108.878
  0
LINE
  8
0
 10
-93.5352
 20
-108.878
 11
-93.5124
 21
-108.618
  0
LINE
  8
0
 10
-93.5124
 20
-108.618
 11
-93.4447
 21
-108.365
  0
LINE
  8
0
 10
-93.4447
 20
-108.365
 11
-93.3342
 21
-108.128
  0
LINE
  8
0
 10
-93.3342
 20
-108.128
 11
-93.1842
 21
-107.914
  0
LINE
  8
0
 10
-93.1842
 20
-107.914
 11
-92.9994
 21
-107.729
  0
LINE
  8
0
 10
-92.9994
 20
-107.729
 11
-92.7852
 21
-107.579
  0
LINE
  8
0
 10
-92.7852
 20
-107.579
 11
-92.5482
 21
-107.469
  0
LINE
  8
0
 10
-92.5482
 20
-107.469
 11
-92.2957
 21
-107.401
  0
LINE
  8
0
 10
-92.2957
 20
-107.401
 11
-92.0352
 21
-107.378
  0
LINE
  8
0
 10
-92.0352
 20
-107.378
 11
-91.7747
 21
-107.401
  0
LINE
  8
0
 10
-91.7747
 20
-107.401
 11
-91.5222
 21
-107.469
  0
LINE
  8
0
 10
-91.5222
 20
-107.469
 11
-91.2852
 21
-107.579
  0
LINE
  8
0
 10
-91.2852
 20
-107.579
 11
-91.071
 21
-107.729
  0
LINE
  8
0
 10
-91.071
 20
-107.729
 11
-90.8861
 21
-107.914
  0
LINE
  8
0
 10
-90.8861
 20
-107.914
 11
-90.7361
 21
-108.128
  0
LINE
  8
0
 10
-90.7361
 20
-108.128
 11
-90.6256
 21
-108.365
  0
LINE
  8
0
 10
-90.6256
 20
-108.365
 11
-90.558
 21
-108.618
  0
LINE
  8
0
 10
-90.558
 20
-108.618
 11
-90.5352
 21
-108.878
  0
LINE
  8
0
 10
-90.5352
 20
-108.878
 11
-90.558
 21
-109.139
  0
LINE
  8
0
 10
-90.558
 20
-109.139
 11
-90.6256
 21
-109.391
  0
LINE
  8
0
 10
-90.6256
 20
-109.391
 11
-90.7361
 21
-109.628
  0
LINE
  8
0
 10
-90.7361
 20
-109.628
 11
-90.8861
 21
-109.843
  0
LINE
  8
0
 10
-90.8861
 20
-109.843
 11
-91.071
 21
-110.028
  0
LINE
  8
0
 10
-91.071
 20
-110.028
 11
-91.2852
 21
-110.177
  0
LINE
  8
0
 10
-91.2852
 20
-110.177
 11
-91.5222
 21
-110.288
  0
LINE
  8
0
 10
-91.5222
 20
-110.288
 11
-91.7747
 21
-110.356
  0
LINE
  8
0
 10
-91.7747
 20
-110.356
 11
-92.0352
 21
-110.378
  0
LINE
  8
0
 10
-92.0352
 20
-110.378
 11
-92.2957
 21
-110.356
  0
LINE
  8
0
 10
77.8047
 20
-133.356
 11
77.5522
 21
-133.288
  0
LINE
  8
0
 10
77.5522
 20
-133.288
 11
77.3152
 21
-133.177
  0
LINE
  8
0
 10
77.3152
 20
-133.177
 11
77.101
 21
-133.028
  0
LINE
  8
0
 10
77.101
 20
-133.028
 11
76.9161
 21
-132.843
  0
LINE
  8
0
 10
76.9161
 20
-132.843
 11
76.7661
 21
-132.628
  0
LINE
  8
0
 10
76.7661
 20
-132.628
 11
76.6556
 21
-132.391
  0
LINE
  8
0
 10
76.6556
 20
-132.391
 11
76.588
 21
-132.139
  0
LINE
  8
0
 10
76.588
 20
-132.139
 11
76.5652
 21
-131.878
  0
LINE
  8
0
 10
76.5652
 20
-131.878
 11
76.588
 21
-131.618
  0
LINE
  8
0
 10
76.588
 20
-131.618
 11
76.6556
 21
-131.365
  0
LINE
  8
0
 10
76.6556
 20
-131.365
 11
76.7661
 21
-131.128
  0
LINE
  8
0
 10
76.7661
 20
-131.128
 11
76.9161
 21
-130.914
  0
LINE
  8
0
 10
76.9161
 20
-130.914
 11
77.101
 21
-130.729
  0
LINE
  8
0
 10
77.101
 20
-130.729
 11
77.3152
 21
-130.579
  0
LINE
  8
0
 10
77.3152
 20
-130.579
 11
77.5522
 21
-130.469
  0
LINE
  8
0
 10
77.5522
 20
-130.469
 11
77.8047
 21
-130.401
  0
LINE
  8
0
 10
77.8047
 20
-130.401
 11
78.0652
 21
-130.378
  0
LINE
  8
0
 10
78.0652
 20
-130.378
 11
78.3257
 21
-130.401
  0
LINE
  8
0
 10
78.3257
 20
-130.401
 11
78.5782
 21
-130.469
  0
LINE
  8
0
 10
78.5782
 20
-130.469
 11
78.8152
 21
-130.579
  0
LINE
  8
0
 10
78.8152
 20
-130.579
 11
79.0294
 21
-130.729
  0
LINE
  8
0
 10
79.0294
 20
-130.729
 11
79.2142
 21
-130.914
  0
LINE
  8
0
 10
79.2142
 20
-130.914
 11
79.3642
 21
-131.128
  0
LINE
  8
0
 10
79.3642
 20
-131.128
 11
79.4747
 21
-131.365
  0
LINE
  8
0
 10
79.4747
 20
-131.365
 11
79.5424
 21
-131.618
  0
LINE
  8
0
 10
79.5424
 20
-131.618
 11
79.5652
 21
-131.878
  0
LINE
  8
0
 10
79.5652
 20
-131.878
 11
79.5424
 21
-132.139
  0
LINE
  8
0
 10
79.5424
 20
-132.139
 11
79.4747
 21
-132.391
  0
LINE
  8
0
 10
79.4747
 20
-132.391
 11
79.3642
 21
-132.628
  0
LINE
  8
0
 10
79.3642
 20
-132.628
 11
79.2142
 21
-132.843
  0
LINE
  8
0
 10
79.2142
 20
-132.843
 11
79.0294
 21
-133.028
  0
LINE
  8
0
 10
79.0294
 20
-133.028
 11
78.8152
 21
-133.177
  0
LINE
  8
0
 10
78.8152
 20
-133.177
 11
78.5782
 21
-133.288
  0
LINE
  8
0
 10
78.5782
 20
-133.288
 11
78.3257
 21
-133.356
  0
LINE
  8
0
 10
78.3257
 20
-133.356
 11
78.0652
 21
-133.378
  0
LINE
  8
0
 10
78.0652
 20
-133.378
 11
77.8047
 21
-133.356
  0
LINE
  8
0
 10
91.7747
 20
-133.356
 11
91.5222
 21
-133.288
  0
LINE
  8
0
 10
91.5222
 20
-133.288
 11
91.2852
 21
-133.177
  0
LINE
  8
0
 10
91.2852
 20
-133.177
 11
91.071
 21
-133.028
  0
LINE
  8
0
 10
91.071
 20
-133.028
 11
90.8861
 21
-132.843
  0
LINE
  8
0
 10
90.8861
 20
-132.843
 11
90.7361
 21
-132.628
  0
LINE
  8
0
 10
90.7361
 20
-132.628
 11
90.6256
 21
-132.391
  0
LINE
  8
0
 10
90.6256
 20
-132.391
 11
90.558
 21
-132.139
  0
LINE
  8
0
 10
90.558
 20
-132.139
 11
90.5352
 21
-131.878
  0
LINE
  8
0
 10
90.5352
 20
-131.878
 11
90.558
 21
-131.618
  0
LINE
  8
0
 10
90.558
 20
-131.618
 11
90.6256
 21
-131.365
  0
LINE
  8
0
 10
90.6256
 20
-131.365
 11
90.7361
 21
-131.128
  0
LINE
  8
0
 10
90.7361
 20
-131.128
 11
90.8861
 21
-130.914
  0
LINE
  8
0
 10
90.8861
 20
-130.914
 11
91.071
 21
-130.729
  0
LINE
  8
0
 10
91.071
 20
-130.729
 11
91.2852
 21
-130.579
  0
LINE
  8
0
 10
91.2852
 20
-130.579
 11
91.5222
 21
-130.469
  0
LINE
  8
0
 10
91.5222
 20
-130.469
 11
91.7747
 21
-130.401
  0
LINE
  8
0
 10
91.7747
 20
-130.401
 11
92.0352
 21
-130.378
  0
LINE
  8
0
 10
92.0352
 20
-130.378
 11
92.2957
 21
-130.401
  0
LINE
  8
0
 10
92.2957
 20
-130.401
 11
92.5482
 21
-130.469
  0
LINE
  8
0
 10
92.5482
 20
-130.469
 11
92.7852
 21
-130.579
  0
LINE
  8
0
 10
92.7852
 20
-130.579
 11
92.9994
 21
-130.729
  0
LINE
  8
0
 10
92.9994
 20
-130.729
 11
93.1842
 21
-130.914
  0
LINE
  8
0
 10
93.1842
 20
-130.914
 11
93.3342
 21
-131.128
  0
LINE
  8
0
 10
93.3342
 20
-131.128
 11
93.4447
 21
-131.365
  0
LINE
  8
0
 10
93.4447
 20
-131.365
 11
93.5124
 21
-131.618
  0
LINE
  8
0
 10
93.5124
 20
-131.618
 11
93.5352
 21
-131.878
  0
LINE
  8
0
 10
93.5352
 20
-131.878
 11
93.5124
 21
-132.139
  0
LINE
  8
0
 10
93.5124
 20
-132.139
 11
93.4447
 21
-132.391
  0
LINE
  8
0
 10
93.4447
 20
-132.391
 11
93.3342
 21
-132.628
  0
LINE
  8
0
 10
93.3342
 20
-132.628
 11
93.1842
 21
-132.843
  0
LINE
  8
0
 10
93.1842
 20
-132.843
 11
92.9994
 21
-133.028
  0
LINE
  8
0
 10
92.9994
 20
-133.028
 11
92.7852
 21
-133.177
  0
LINE
  8
0
 10
92.7852
 20
-133.177
 11
92.5482
 21
-133.288
  0
LINE
  8
0
 10
92.5482
 20
-133.288
 11
92.2957
 21
-133.356
  0
LINE
  8
0
 10
92.2957
 20
-133.356
 11
92.0352
 21
-133.378
  0
LINE
  8
0
 10
92.0352
 20
-133.378
 11
91.7747
 21
-133.356
  0
LINE
  8
0
 10
-78.3257
 20
-133.356
 11
-78.5782
 21
-133.288
  0
LINE
  8
0
 10
-78.5782
 20
-133.288
 11
-78.8152
 21
-133.177
  0
LINE
  8
0
 10
-78.8152
 20
-133.177
 11
-79.0294
 21
-133.028
  0
LINE
  8
0
 10
-79.0294
 20
-133.028
 11
-79.2142
 21
-132.843
  0
LINE
  8
0
 10
-79.2142
 20
-132.843
 11
-79.3642
 21
-132.628
  0
LINE
  8
0
 10
-79.3642
 20
-132.628
 11
-79.4747
 21
-132.391
  0
LINE
  8
0
 10
-79.4747
 20
-132.391
 11
-79.5424
 21
-132.139
  0
LINE
  8
0
 10
-79.5424
 20
-132.139
 11
-79.5652
 21
-131.878
  0
LINE
  8
0
 10
-79.5652
 20
-131.878
 11
-79.5424
 21
-131.618
  0
LINE
  8
0
 10
-79.5424
 20
-131.618
 11
-79.4747
 21
-131.365
  0
LINE
  8
0
 10
-79.4747
 20
-131.365
 11
-79.3642
 21
-131.128
  0
LINE
  8
0
 10
-79.3642
 20
-131.128
 11
-79.2142
 21
-130.914
  0
LINE
  8
0
 10
-79.2142
 20
-130.914
 11
-79.0294
 21
-130.729
  0
LINE
  8
0
 10
-79.0294
 20
-130.729
 11
-78.8152
 21
-130.579
  0
LINE
  8
0
 10
-78.8152
 20
-130.579
 11
-78.5782
 21
-130.469
  0
LINE
  8
0
 10
-78.5782
 20
-130.469
 11
-78.3257
 21
-130.401
  0
LINE
  8
0
 10
-78.3257
 20
-130.401
 11
-78.0652
 21
-130.378
  0
LINE
  8
0
 10
-78.0652
 20
-130.378
 11
-77.8047
 21
-130.401
  0
LINE
  8
0
 10
-77.8047
 20
-130.401
 11
-77.5522
 21
-130.469
  0
LINE
  8
0
 10
-77.5522
 20
-130.469
 11
-77.3152
 21
-130.579
  0
LINE
  8
0
 10
-77.3152
 20
-130.579
 11
-77.101
 21
-130.729
  0
LINE
  8
0
 10
-77.101
 20
-130.729
 11
-76.9161
 21
-130.914
  0
LINE
  8
0
 10
-76.9161
 20
-130.914
 11
-76.7661
 21
-131.128
  0
LINE
  8
0
 10
-76.7661
 20
-131.128
 11
-76.6556
 21
-131.365
  0
LINE
  8
0
 10
-76.6556
 20
-131.365
 11
-76.588
 21
-131.618
  0
LINE
  8
0
 10
-76.588
 20
-131.618
 11
-76.5652
 21
-131.878
  0
LINE
  8
0
 10
-76.5652
 20
-131.878
 11
-76.588
 21
-132.139
  0
LINE
  8
0
 10
-76.588
 20
-132.139
 11
-76.6556
 21
-132.391
  0
LINE
  8
0
 10
-76.6556
 20
-132.391
 11
-76.7661
 21
-132.628
  0
LINE
  8
0
 10
-76.7661
 20
-132.628
 11
-76.9161
 21
-132.843
  0
LINE
  8
0
 10
-76.9161
 20
-132.843
 11
-77.101
 21
-133.028
  0
LINE
  8
0
 10
-77.101
 20
-133.028
 11
-77.3152
 21
-133.177
  0
LINE
  8
0
 10
-77.3152
 20
-133.177
 11
-77.5522
 21
-133.288
  0
LINE
  8
0
 10
-77.5522
 20
-133.288
 11
-77.8047
 21
-133.356
  0
LINE
  8
0
 10
-77.8047
 20
-133.356
 11
-78.0652
 21
-133.378
  0
LINE
  8
0
 10
-78.0652
 20
-133.378
 11
-78.3257
 21
-133.356
  0
LINE
  8
0
 10
-92.2957
 20
-133.356
 11
-92.5482
 21
-133.288
  0
LINE
  8
0
 10
-92.5482
 20
-133.288
 11
-92.7852
 21
-133.177
  0
LINE
  8
0
 10
-92.7852
 20
-133.177
 11
-92.9994
 21
-133.028
  0
LINE
  8
0
 10
-92.9994
 20
-133.028
 11
-93.1842
 21
-132.843
  0
LINE
  8
0
 10
-93.1842
 20
-132.843
 11
-93.3342
 21
-132.628
  0
LINE
  8
0
 10
-93.3342
 20
-132.628
 11
-93.4447
 21
-132.391
  0
LINE
  8
0
 10
-93.4447
 20
-132.391
 11
-93.5124
 21
-132.139
  0
LINE
  8
0
 10
-93.5124
 20
-132.139
 11
-93.5352
 21
-131.878
  0
LINE
  8
0
 10
-93.5352
 20
-131.878
 11
-93.5124
 21
-131.618
  0
LINE
  8
0
 10
-93.5124
 20
-131.618
 11
-93.4447
 21
-131.365
  0
LINE
  8
0
 10
-93.4447
 20
-131.365
 11
-93.3342
 21
-131.128
  0
LINE
  8
0
 10
-93.3342
 20
-131.128
 11
-93.1842
 21
-130.914
  0
LINE
  8
0
 10
-93.1842
 20
-130.914
 11
-92.9994
 21
-130.729
  0
LINE
  8
0
 10
-92.9994
 20
-130.729
 11
-92.7852
 21
-130.579
  0
LINE
  8
0
 10
-92.7852
 20
-130.579
 11
-92.5482
 21
-130.469
  0
LINE
  8
0
 10
-92.5482
 20
-130.469
 11
-92.2957
 21
-130.401
  0
LINE
  8
0
 10
-92.2957
 20
-130.401
 11
-92.0352
 21
-130.378
  0
LINE
  8
0
 10
-92.0352
 20
-130.378
 11
-91.7747
 21
-130.401
  0
LINE
  8
0
 10
-91.7747
 20
-130.401
 11
-91.5222
 21
-130.469
  0
LINE
  8
0
 10
-91.5222
 20
-130.469
 11
-91.2852
 21
-130.579
  0
LINE
  8
0
 10
-91.2852
 20
-130.579
 11
-91.071
 21
-130.729
  0
LINE
  8
0
 10
-91.071
 20
-130.729
 11
-90.8861
 21
-130.914
  0
LINE
  8
0
 10
-90.8861
 20
-130.914
 11
-90.7361
 21
-131.128
  0
LINE
  8
0
 10
-90.7361
 20
-131.128
 11
-90.6256
 21
-131.365
  0
LINE
  8
0
 10
-90.6256
 20
-131.365
 11
-90.558
 21
-131.618
  0
LINE
  8
0
 10
-90.558
 20
-131.618
 11
-90.5352
 21
-131.878
  0
LINE
  8
0
 10
-90.5352
 20
-131.878
 11
-90.558
 21
-132.139
  0
LINE
  8
0
 10
-90.558
 20
-132.139
 11
-90.6256
 21
-132.391
  0
LINE
  8
0
 10
-90.6256
 20
-132.391
 11
-90.7361
 21
-132.628
  0
LINE
  8
0
 10
-90.7361
 20
-132.628
 11
-90.8861
 21
-132.843
  0
LINE
  8
0
 10
-90.8861
 20
-132.843
 11
-91.071
 21
-133.028
  0
LINE
  8
0
 10
-91.071
 20
-133.028
 11
-91.2852
 21
-133.177
  0
LINE
  8
0
 10
-91.2852
 20
-133.177
 11
-91.5222
 21
-133.288
  0
LINE
  8
0
 10
-91.5222
 20
-133.288
 11
-91.7747
 21
-133.356
  0
LINE
  8
0
 10
-91.7747
 20
-133.356
 11
-92.0352
 21
-133.378
  0
LINE
  8
0
 10
-92.0352
 20
-133.378
 11
-92.2957
 21
-133.356
  0
LINE
  8
0
 10
-54.1821
 20
-175.924
 11
-54.4396
 21
-175.879
  0
LINE
  8
0
 10
-54.4396
 20
-175.879
 11
-54.6853
 21
-175.789
  0
LINE
  8
0
 10
-54.6853
 20
-175.789
 11
-54.9117
 21
-175.659
  0
LINE
  8
0
 10
-54.9117
 20
-175.659
 11
-55.112
 21
-175.49
  0
LINE
  8
0
 10
-55.112
 20
-175.49
 11
-55.2801
 21
-175.29
  0
LINE
  8
0
 10
-55.2801
 20
-175.29
 11
-55.4108
 21
-175.064
  0
LINE
  8
0
 10
-55.4108
 20
-175.064
 11
-55.5003
 21
-174.818
  0
LINE
  8
0
 10
-55.5003
 20
-174.818
 11
-55.5457
 21
-174.561
  0
LINE
  8
0
 10
-55.5457
 20
-174.561
 11
-55.5457
 21
-174.299
  0
LINE
  8
0
 10
-55.5457
 20
-174.299
 11
-55.5003
 21
-174.042
  0
LINE
  8
0
 10
-55.5003
 20
-174.042
 11
-55.4108
 21
-173.796
  0
LINE
  8
0
 10
-55.4108
 20
-173.796
 11
-55.2801
 21
-173.569
  0
LINE
  8
0
 10
-55.2801
 20
-173.569
 11
-55.112
 21
-173.369
  0
LINE
  8
0
 10
-55.112
 20
-173.369
 11
-54.9117
 21
-173.201
  0
LINE
  8
0
 10
-54.9117
 20
-173.201
 11
-54.6853
 21
-173.07
  0
LINE
  8
0
 10
-54.6853
 20
-173.07
 11
-54.4396
 21
-172.981
  0
LINE
  8
0
 10
-54.4396
 20
-172.981
 11
-54.1821
 21
-172.936
  0
LINE
  8
0
 10
-54.1821
 20
-172.936
 11
-53.9206
 21
-172.936
  0
LINE
  8
0
 10
-53.9206
 20
-172.936
 11
-53.6631
 21
-172.981
  0
LINE
  8
0
 10
-53.6631
 20
-172.981
 11
-53.4174
 21
-173.07
  0
LINE
  8
0
 10
-53.4174
 20
-173.07
 11
-53.191
 21
-173.201
  0
LINE
  8
0
 10
-53.191
 20
-173.201
 11
-52.9907
 21
-173.369
  0
LINE
  8
0
 10
-52.9907
 20
-173.369
 11
-52.8226
 21
-173.569
  0
LINE
  8
0
 10
-52.8226
 20
-173.569
 11
-52.6919
 21
-173.796
  0
LINE
  8
0
 10
-52.6919
 20
-173.796
 11
-52.6025
 21
-174.042
  0
LINE
  8
0
 10
-52.6025
 20
-174.042
 11
-52.5571
 21
-174.299
  0
LINE
  8
0
 10
-52.5571
 20
-174.299
 11
-52.5571
 21
-174.561
  0
LINE
  8
0
 10
-52.5571
 20
-174.561
 11
-52.6025
 21
-174.818
  0
LINE
  8
0
 10
-52.6025
 20
-174.818
 11
-52.6919
 21
-175.064
  0
LINE
  8
0
 10
-52.6919
 20
-175.064
 11
-52.8226
 21
-175.29
  0
LINE
  8
0
 10
-52.8226
 20
-175.29
 11
-52.9907
 21
-175.49
  0
LINE
  8
0
 10
-52.9907
 20
-175.49
 11
-53.191
 21
-175.659
  0
LINE
  8
0
 10
-53.191
 20
-175.659
 11
-53.4174
 21
-175.789
  0
LINE
  8
0
 10
-53.4174
 20
-175.789
 11
-53.6631
 21
-175.879
  0
LINE
  8
0
 10
-53.6631
 20
-175.879
 11
-53.9206
 21
-175.924
  0
LINE
  8
0
 10
-53.9206
 20
-175.924
 11
-54.1821
 21
-175.924
  0
LINE
  8
0
 10
53.9206
 20
-175.924
 11
53.6631
 21
-175.879
  0
LINE
  8
0
 10
53.6631
 20
-175.879
 11
53.4174
 21
-175.789
  0
LINE
  8
0
 10
53.4174
 20
-175.789
 11
53.191
 21
-175.659
  0
LINE
  8
0
 10
53.191
 20
-175.659
 11
52.9907
 21
-175.49
  0
LINE
  8
0
 10
52.9907
 20
-175.49
 11
52.8226
 21
-175.29
  0
LINE
  8
0
 10
52.8226
 20
-175.29
 11
52.6919
 21
-175.064
  0
LINE
  8
0
 10
52.6919
 20
-175.064
 11
52.6025
 21
-174.818
  0
LINE
  8
0
 10
52.6025
 20
-174.818
 11
52.5571
 21
-174.561
  0
LINE
  8
0
 10
52.5571
 20
-174.561
 11
52.5571
 21
-174.299
  0
LINE
  8
0
 10
52.5571
 20
-174.299
 11
52.6025
 21
-174.042
  0
LINE
  8
0
 10
52.6025
 20
-174.042
 11
52.6919
 21
-173.796
  0
LINE
  8
0
 10
52.6919
 20
-173.796
 11
52.8226
 21
-173.569
  0
LINE
  8
0
 10
52.8226
 20
-173.569
 11
52.9907
 21
-173.369
  0
LINE
  8
0
 10
52.9907
 20
-173.369
 11
53.191
 21
-173.201
  0
LINE
  8
0
 10
53.191
 20
-173.201
 11
53.4174
 21
-173.07
  0
LINE
  8
0
 10
53.4174
 20
-173.07
 11
53.6631
 21
-172.981
  0
LINE
  8
0
 10
53.6631
 20
-172.981
 11
53.9206
 21
-172.936
  0
LINE
  8
0
 10
53.9206
 20
-172.936
 11
54.1821
 21
-172.936
  0
LINE
  8
0
 10
54.1821
 20
-172.936
 11
54.4396
 21
-172.981
  0
LINE
  8
0
 10
54.4396
 20
-172.981
 11
54.6853
 21
-173.07
  0
LINE
  8
0
 10
54.6853
 20
-173.07
 11
54.9117
 21
-173.201
  0
LINE
  8
0
 10
54.9117
 20
-173.201
 11
55.112
 21
-173.369
  0
LINE
  8
0
 10
55.112
 20
-173.369
 11
55.2801
 21
-173.569
  0
LINE
  8
0
 10
55.2801
 20
-173.569
 11
55.4108
 21
-173.796
  0
LINE
  8
0
 10
55.4108
 20
-173.796
 11
55.5003
 21
-174.042
  0
LINE
  8
0
 10
55.5003
 20
-174.042
 11
55.5457
 21
-174.299
  0
LINE
  8
0
 10
55.5457
 20
-174.299
 11
55.5457
 21
-174.561
  0
LINE
  8
0
 10
55.5457
 20
-174.561
 11
55.5003
 21
-174.818
  0
LINE
  8
0
 10
55.5003
 20
-174.818
 11
55.4108
 21
-175.064
  0
LINE
  8
0
 10
55.4108
 20
-175.064
 11
55.2801
 21
-175.29
  0
LINE
  8
0
 10
55.2801
 20
-175.29
 11
55.112
 21
-175.49
  0
LINE
  8
0
 10
55.112
 20
-175.49
 11
54.9117
 21
-175.659
  0
LINE
  8
0
 10
54.9117
 20
-175.659
 11
54.6853
 21
-175.789
  0
LINE
  8
0
 10
54.6853
 20
-175.789
 11
54.4396
 21
-175.879
  0
LINE
  8
0
 10
54.4396
 20
-175.879
 11
54.1821
 21
-175.924
  0
LINE
  8
0
 10
54.1821
 20
-175.924
 11
53.9206
 21
-175.924
  0
LINE
  8
0
 10
74.6023
 20
-196.606
 11
74.3448
 21
-196.56
  0
LINE
  8
0
 10
74.3448
 20
-196.56
 11
74.0991
 21
-196.471
  0
LINE
  8
0
 10
74.0991
 20
-196.471
 11
73.8727
 21
-196.34
  0
LINE
  8
0
 10
73.8727
 20
-196.34
 11
73.6723
 21
-196.172
  0
LINE
  8
0
 10
73.6723
 20
-196.172
 11
73.5043
 21
-195.972
  0
LINE
  8
0
 10
73.5043
 20
-195.972
 11
73.3736
 21
-195.745
  0
LINE
  8
0
 10
73.3736
 20
-195.745
 11
73.2841
 21
-195.5
  0
LINE
  8
0
 10
73.2841
 20
-195.5
 11
73.2387
 21
-195.242
  0
LINE
  8
0
 10
73.2387
 20
-195.242
 11
73.2387
 21
-194.981
  0
LINE
  8
0
 10
73.2387
 20
-194.981
 11
73.2841
 21
-194.723
  0
LINE
  8
0
 10
73.2841
 20
-194.723
 11
73.3736
 21
-194.478
  0
LINE
  8
0
 10
73.3736
 20
-194.478
 11
73.5043
 21
-194.251
  0
LINE
  8
0
 10
73.5043
 20
-194.251
 11
73.6723
 21
-194.051
  0
LINE
  8
0
 10
73.6723
 20
-194.051
 11
73.8727
 21
-193.883
  0
LINE
  8
0
 10
73.8727
 20
-193.883
 11
74.0991
 21
-193.752
  0
LINE
  8
0
 10
74.0991
 20
-193.752
 11
74.3448
 21
-193.663
  0
LINE
  8
0
 10
74.3448
 20
-193.663
 11
74.6023
 21
-193.617
  0
LINE
  8
0
 10
74.6023
 20
-193.617
 11
74.8637
 21
-193.617
  0
LINE
  8
0
 10
74.8637
 20
-193.617
 11
75.1212
 21
-193.663
  0
LINE
  8
0
 10
75.1212
 20
-193.663
 11
75.3669
 21
-193.752
  0
LINE
  8
0
 10
75.3669
 20
-193.752
 11
75.5934
 21
-193.883
  0
LINE
  8
0
 10
75.5934
 20
-193.883
 11
75.7937
 21
-194.051
  0
LINE
  8
0
 10
75.7937
 20
-194.051
 11
75.9617
 21
-194.251
  0
LINE
  8
0
 10
75.9617
 20
-194.251
 11
76.0925
 21
-194.478
  0
LINE
  8
0
 10
76.0925
 20
-194.478
 11
76.1819
 21
-194.723
  0
LINE
  8
0
 10
76.1819
 20
-194.723
 11
76.2273
 21
-194.981
  0
LINE
  8
0
 10
76.2273
 20
-194.981
 11
76.2273
 21
-195.242
  0
LINE
  8
0
 10
76.2273
 20
-195.242
 11
76.1819
 21
-195.5
  0
LINE
  8
0
 10
76.1819
 20
-195.5
 11
76.0925
 21
-195.745
  0
LINE
  8
0
 10
76.0925
 20
-195.745
 11
75.9617
 21
-195.972
  0
LINE
  8
0
 10
75.9617
 20
-195.972
 11
75.7937
 21
-196.172
  0
LINE
  8
0
 10
75.7937
 20
-196.172
 11
75.5934
 21
-196.34
  0
LINE
  8
0
 10
75.5934
 20
-196.34
 11
75.3669
 21
-196.471
  0
LINE
  8
0
 10
75.3669
 20
-196.471
 11
75.1212
 21
-196.56
  0
LINE
  8
0
 10
75.1212
 20
-196.56
 11
74.8637
 21
-196.606
  0
LINE
  8
0
 10
74.8637
 20
-196.606
 11
74.6023
 21
-196.606
  0
LINE
  8
0
 10
-74.8637
 20
-196.606
 11
-75.1212
 21
-196.56
  0
LINE
  8
0
 10
-75.1212
 20
-196.56
 11
-75.3669
 21
-196.471
  0
LINE
  8
0
 10
-75.3669
 20
-196.471
 11
-75.5934
 21
-196.34
  0
LINE
  8
0
 10
-75.5934
 20
-196.34
 11
-75.7937
 21
-196.172
  0
LINE
  8
0
 10
-75.7937
 20
-196.172
 11
-75.9617
 21
-195.972
  0
LINE
  8
0
 10
-75.9617
 20
-195.972
 11
-76.0925
 21
-195.745
  0
LINE
  8
0
 10
-76.0925
 20
-195.745
 11
-76.1819
 21
-195.5
  0
LINE
  8
0
 10
-76.1819
 20
-195.5
 11
-76.2273
 21
-195.242
  0
LINE
  8
0
 10
-76.2273
 20
-195.242
 11
-76.2273
 21
-194.981
  0
LINE
  8
0
 10
-76.2273
 20
-194.981
 11
-76.1819
 21
-194.723
  0
LINE
  8
0
 10
-76.1819
 20
-194.723
 11
-76.0925
 21
-194.478
  0
LINE
  8
0
 10
-76.0925
 20
-194.478
 11
-75.9617
 21
-194.251
  0
LINE
  8
0
 10
-75.9617
 20
-194.251
 11
-75.7937
 21
-194.051
  0
LINE
  8
0
 10
-75.7937
 20
-194.051
 11
-75.5934
 21
-193.883
  0
LINE
  8
0
 10
-75.5934
 20
-193.883
 11
-75.3669
 21
-193.752
  0
LINE
  8
0
 10
-75.3669
 20
-193.752
 11
-75.1212
 21
-193.663
  0
LINE
  8
0
 10
-75.1212
 20
-193.663
 11
-74.8637
 21
-193.617
  0
LINE
  8
0
 10
-74.8637
 20
-193.617
 11
-74.6023
 21
-193.617
  0
LINE
  8
0
 10
-74.6023
 20
-193.617
 11
-74.3448
 21
-193.663
  0
LINE
  8
0
 10
-74.3448
 20
-193.663
 11
-74.0991
 21
-193.752
  0
LINE
  8
0
 10
-74.0991
 20
-193.752
 11
-73.8727
 21
-193.883
  0
LINE
  8
0
 10
-73.8727
 20
-193.883
 11
-73.6723
 21
-194.051
  0
LINE
  8
0
 10
-73.6723
 20
-194.051
 11
-73.5043
 21
-194.251
  0
LINE
  8
0
 10
-73.5043
 20
-194.251
 11
-73.3736
 21
-194.478
  0
LINE
  8
0
 10
-73.3736
 20
-194.478
 11
-73.2841
 21
-194.723
  0
LINE
  8
0
 10
-73.2841
 20
-194.723
 11
-73.2387
 21
-194.981
  0
LINE
  8
0
 10
-73.2387
 20
-194.981
 11
-73.2387
 21
-195.242
  0
LINE
  8
0
 10
-73.2387
 20
-195.242
 11
-73.2841
 21
-195.5
  0
LINE
  8
0
 10
-73.2841
 20
-195.5
 11
-73.3736
 21
-195.745
  0
LINE
  8
0
 10
-73.3736
 20
-195.745
 11
-73.5043
 21
-195.972
  0
LINE
  8
0
 10
-73.5043
 20
-195.972
 11
-73.6723
 21
-196.172
  0
LINE
  8
0
 10
-73.6723
 20
-196.172
 11
-73.8727
 21
-196.34
  0
LINE
  8
0
 10
-73.8727
 20
-196.34
 11
-74.0991
 21
-196.471
  0
LINE
  8
0
 10
-74.0991
 20
-196.471
 11
-74.3448
 21
-196.56
  0
LINE
  8
0
 10
-74.3448
 20
-196.56
 11
-74.6023
 21
-196.606
  0
LINE
  8
0
 10
-74.6023
 20
-196.606
 11
-74.8637
 21
-196.606
  0
LINE
  8
0
 10
-11.7605
 20
-199.921
 11
-12.013
 21
-199.853
  0
LINE
  8
0
 10
-12.013
 20
-199.853
 11
-12.25
 21
-199.743
  0
LINE
  8
0
 10
-12.25
 20
-199.743
 11
-12.4642
 21
-199.593
  0
LINE
  8
0
 10
-12.4642
 20
-199.593
 11
-12.6491
 21
-199.408
  0
LINE
  8
0
 10
-12.6491
 20
-199.408
 11
-12.799
 21
-199.194
  0
LINE
  8
0
 10
-12.799
 20
-199.194
 11
-12.9095
 21
-198.957
  0
LINE
  8
0
 10
-12.9095
 20
-198.957
 11
-12.9772
 21
-198.704
  0
LINE
  8
0
 10
-12.9772
 20
-198.704
 11
-13
 21
-198.444
  0
LINE
  8
0
 10
-13
 20
-198.444
 11
-12.9772
 21
-198.183
  0
LINE
  8
0
 10
-12.9772
 20
-198.183
 11
-12.9095
 21
-197.931
  0
LINE
  8
0
 10
-12.9095
 20
-197.931
 11
-12.799
 21
-197.694
  0
LINE
  8
0
 10
-12.799
 20
-197.694
 11
-12.6491
 21
-197.479
  0
LINE
  8
0
 10
-12.6491
 20
-197.479
 11
-12.4642
 21
-197.295
  0
LINE
  8
0
 10
-12.4642
 20
-197.295
 11
-12.25
 21
-197.145
  0
LINE
  8
0
 10
-12.25
 20
-197.145
 11
-12.013
 21
-197.034
  0
LINE
  8
0
 10
-12.013
 20
-197.034
 11
-11.7605
 21
-196.966
  0
LINE
  8
0
 10
-11.7605
 20
-196.966
 11
-11.5
 21
-196.944
  0
LINE
  8
0
 10
-11.5
 20
-196.944
 11
-11.2395
 21
-196.966
  0
LINE
  8
0
 10
-11.2395
 20
-196.966
 11
-10.987
 21
-197.034
  0
LINE
  8
0
 10
-10.987
 20
-197.034
 11
-10.75
 21
-197.145
  0
LINE
  8
0
 10
-10.75
 20
-197.145
 11
-10.5358
 21
-197.295
  0
LINE
  8
0
 10
-10.5358
 20
-197.295
 11
-10.3509
 21
-197.479
  0
LINE
  8
0
 10
-10.3509
 20
-197.479
 11
-10.201
 21
-197.694
  0
LINE
  8
0
 10
-10.201
 20
-197.694
 11
-10.0905
 21
-197.931
  0
LINE
  8
0
 10
-10.0905
 20
-197.931
 11
-10.0228
 21
-198.183
  0
LINE
  8
0
 10
-10.0228
 20
-198.183
 11
-10
 21
-198.444
  0
LINE
  8
0
 10
-10
 20
-198.444
 11
-10.0228
 21
-198.704
  0
LINE
  8
0
 10
-10.0228
 20
-198.704
 11
-10.0905
 21
-198.957
  0
LINE
  8
0
 10
-10.0905
 20
-198.957
 11
-10.201
 21
-199.194
  0
LINE
  8
0
 10
-10.201
 20
-199.194
 11
-10.3509
 21
-199.408
  0
LINE
  8
0
 10
-10.3509
 20
-199.408
 11
-10.5358
 21
-199.593
  0
LINE
  8
0
 10
-10.5358
 20
-199.593
 11
-10.75
 21
-199.743
  0
LINE
  8
0
 10
-10.75
 20
-199.743
 11
-10.987
 21
-199.853
  0
LINE
  8
0
 10
-10.987
 20
-199.853
 11
-11.2395
 21
-199.921
  0
LINE
  8
0
 10
-11.2395
 20
-199.921
 11
-11.5
 21
-199.944
  0
LINE
  8
0
 10
-11.5
 20
-199.944
 11
-11.7605
 21
-199.921
  0
LINE
  8
0
 10
11.2395
 20
-199.921
 11
10.987
 21
-199.853
  0
LINE
  8
0
 10
10.987
 20
-199.853
 11
10.75
 21
-199.743
  0
LINE
  8
0
 10
10.75
 20
-199.743
 11
10.5358
 21
-199.593
  0
LINE
  8
0
 10
10.5358
 20
-199.593
 11
10.3509
 21
-199.408
  0
LINE
  8
0
 10
10.3509
 20
-199.408
 11
10.201
 21
-199.194
  0
LINE
  8
0
 10
10.201
 20
-199.194
 11
10.0905
 21
-198.957
  0
LINE
  8
0
 10
10.0905
 20
-198.957
 11
10.0228
 21
-198.704
  0
LINE
  8
0
 10
10.0228
 20
-198.704
 11
10
 21
-198.444
  0
LINE
  8
0
 10
10
 20
-198.444
 11
10.0228
 21
-198.183
  0
LINE
  8
0
 10
10.0228
 20
-198.183
 11
10.0905
 21
-197.931
  0
LINE
  8
0
 10
10.0905
 20
-197.931
 11
10.201
 21
-197.694
  0
LINE
  8
0
 10
10.201
 20
-197.694
 11
10.3509
 21
-197.479
  0
LINE
  8
0
 10
10.3509
 20
-197.479
 11
10.5358
 21
-197.295
  0
LINE
  8
0
 10
10.5358
 20
-197.295
 11
10.75
 21
-197.145
  0
LINE
  8
0
 10
10.75
 20
-197.145
 11
10.987
 21
-197.034
  0
LINE
  8
0
 10
10.987
 20
-197.034
 11
11.2395
 21
-196.966
  0
LINE
  8
0
 10
11.2395
 20
-196.966
 11
11.5
 21
-196.944
  0
LINE
  8
0
 10
11.5
 20
-196.944
 11
11.7605
 21
-196.966
  0
LINE
  8
0
 10
11.7605
 20
-196.966
 11
12.013
 21
-197.034
  0
LINE
  8
0
 10
12.013
 20
-197.034
 11
12.25
 21
-197.145
  0
LINE
  8
0
 10
12.25
 20
-197.145
 11
12.4642
 21
-197.295
  0
LINE
  8
0
 10
12.4642
 20
-197.295
 11
12.6491
 21
-197.479
  0
LINE
  8
0
 10
12.6491
 20
-197.479
 11
12.799
 21
-197.694
  0
LINE
  8
0
 10
12.799
 20
-197.694
 11
12.9095
 21
-197.931
  0
LINE
  8
0
 10
12.9095
 20
-197.931
 11
12.9772
 21
-198.183
  0
LINE
  8
0
 10
12.9772
 20
-198.183
 11
13
 21
-198.444
  0
LINE
  8
0
 10
13
 20
-198.444
 11
12.9772
 21
-198.704
  0
LINE
  8
0
 10
12.9772
 20
-198.704
 11
12.9095
 21
-198.957
  0
LINE
  8
0
 10
12.9095
 20
-198.957
 11
12.799
 21
-199.194
  0
LINE
  8
0
 10
12.799
 20
-199.194
 11
12.6491
 21
-199.408
  0
LINE
  8
0
 10
12.6491
 20
-199.408
 11
12.4642
 21
-199.593
  0
LINE
  8
0
 10
12.4642
 20
-199.593
 11
12.25
 21
-199.743
  0
LINE
  8
0
 10
12.25
 20
-199.743
 11
12.013
 21
-199.853
  0
LINE
  8
0
 10
12.013
 20
-199.853
 11
11.7605
 21
-199.921
  0
LINE
  8
0
 10
11.7605
 20
-199.921
 11
11.5
 21
-199.944
  0
LINE
  8
0
 10
11.5
 20
-199.944
 11
11.2395
 21
-199.921
  0
LINE
  8
0
 10
-11.7605
 20
-213.891
 11
-12.013
 21
-213.823
  0
LINE
  8
0
 10
-12.013
 20
-213.823
 11
-12.25
 21
-213.713
  0
LINE
  8
0
 10
-12.25
 20
-213.713
 11
-12.4642
 21
-213.563
  0
LINE
  8
0
 10
-12.4642
 20
-213.563
 11
-12.6491
 21
-213.378
  0
LINE
  8
0
 10
-12.6491
 20
-213.378
 11
-12.799
 21
-213.164
  0
LINE
  8
0
 10
-12.799
 20
-213.164
 11
-12.9095
 21
-212.927
  0
LINE
  8
0
 10
-12.9095
 20
-212.927
 11
-12.9772
 21
-212.674
  0
LINE
  8
0
 10
-12.9772
 20
-212.674
 11
-13
 21
-212.414
  0
LINE
  8
0
 10
-13
 20
-212.414
 11
-12.9772
 21
-212.153
  0
LINE
  8
0
 10
-12.9772
 20
-212.153
 11
-12.9095
 21
-211.901
  0
LINE
  8
0
 10
-12.9095
 20
-211.901
 11
-12.799
 21
-211.664
  0
LINE
  8
0
 10
-12.799
 20
-211.664
 11
-12.6491
 21
-211.449
  0
LINE
  8
0
 10
-12.6491
 20
-211.449
 11
-12.4642
 21
-211.265
  0
LINE
  8
0
 10
-12.4642
 20
-211.265
 11
-12.25
 21
-211.115
  0
LINE
  8
0
 10
-12.25
 20
-211.115
 11
-12.013
 21
-211.004
  0
LINE
  8
0
 10
-12.013
 20
-211.004
 11
-11.7605
 21
-210.936
  0
LINE
  8
0
 10
-11.7605
 20
-210.936
 11
-11.5
 21
-210.914
  0
LINE
  8
0
 10
-11.5
 20
-210.914
 11
-11.2395
 21
-210.936
  0
LINE
  8
0
 10
-11.2395
 20
-210.936
 11
-10.987
 21
-211.004
  0
LINE
  8
0
 10
-10.987
 20
-211.004
 11
-10.75
 21
-211.115
  0
LINE
  8
0
 10
-10.75
 20
-211.115
 11
-10.5358
 21
-211.265
  0
LINE
  8
0
 10
-10.5358
 20
-211.265
 11
-10.3509
 21
-211.449
  0
LINE
  8
0
 10
-10.3509
 20
-211.449
 11
-10.201
 21
-211.664
  0
LINE
  8
0
 10
-10.201
 20
-211.664
 11
-10.0905
 21
-211.901
  0
LINE
  8
0
 10
-10.0905
 20
-211.901
 11
-10.0228
 21
-212.153
  0
LINE
  8
0
 10
-10.0228
 20
-212.153
 11
-10
 21
-212.414
  0
LINE
  8
0
 10
-10
 20
-212.414
 11
-10.0228
 21
-212.674
  0
LINE
  8
0
 10
-10.0228
 20
-212.674
 11
-10.0905
 21
-212.927
  0
LINE
  8
0
 10
-10.0905
 20
-212.927
 11
-10.201
 21
-213.164
  0
LINE
  8
0
 10
-10.201
 20
-213.164
 11
-10.3509
 21
-213.378
  0
LINE
  8
0
 10
-10.3509
 20
-213.378
 11
-10.5358
 21
-213.563
  0
LINE
  8
0
 10
-10.5358
 20
-213.563
 11
-10.75
 21
-213.713
  0
LINE
  8
0
 10
-10.75
 20
-213.713
 11
-10.987
 21
-213.823
  0
LINE
  8
0
 10
-10.987
 20
-213.823
 11
-11.2395
 21
-213.891
  0
LINE
  8
0
 10
-11.2395
 20
-213.891
 11
-11.5
 21
-213.914
  0
LINE
  8
0
 10
-11.5
 20
-213.914
 11
-11.7605
 21
-213.891
  0
LINE
  8
0
 10
11.2395
 20
-213.891
 11
10.987
 21
-213.823
  0
LINE
  8
0
 10
10.987
 20
-213.823
 11
10.75
 21
-213.713
  0
LINE
  8
0
 10
10.75
 20
-213.713
 11
10.5358
 21
-213.563
  0
LINE
  8
0
 10
10.5358
 20
-213.563
 11
10.3509
 21
-213.378
  0
LINE
  8
0
 10
10.3509
 20
-213.378
 11
10.201
 21
-213.164
  0
LINE
  8
0
 10
10.201
 20
-213.164
 11
10.0905
 21
-212.927
  0
LINE
  8
0
 10
10.0905
 20
-212.927
 11
10.0228
 21
-212.674
  0
LINE
  8
0
 10
10.0228
 20
-212.674
 11
10
 21
-212.414
  0
LINE
  8
0
 10
10
 20
-212.414
 11
10.0228
 21
-212.153
  0
LINE
  8
0
 10
10.0228
 20
-212.153
 11
10.0905
 21
-211.901
  0
LINE
  8
0
 10
10.0905
 20
-211.901
 11
10.201
 21
-211.664
  0
LINE
  8
0
 10
10.201
 20
-211.664
 11
10.3509
 21
-211.449
  0
LINE
  8
0
 10
10.3509
 20
-211.449
 11
10.5358
 21
-211.265
  0
LINE
  8
0
 10
10.5358
 20
-211.265
 11
10.75
 21
-211.115
  0
LINE
  8
0
 10
10.75
 20
-211.115
 11
10.987
 21
-211.004
  0
LINE
  8
0
 10
10.987
 20
-211.004
 11
11.2395
 21
-210.936
  0
LINE
  8
0
 10
11.2395
 20
-210.936
 11
11.5
 21
-210.914
  0
LINE
  8
0
 10
11.5
 20
-210.914
 11
11.7605
 21
-210.936
  0
LINE
  8
0
 10
11.7605
 20
-210.936
 11
12.013
 21
-211.004
  0
LINE
  8
0
 10
12.013
 20
-211.004
 11
12.25
 21
-211.115
  0
LINE
  8
0
 10
12.25
 20
-211.115
 11
12.4642
 21
-211.265
  0
LINE
  8
0
 10
12.4642
 20
-211.265
 11
12.6491
 21
-211.449
  0
LINE
  8
0
 10
12.6491
 20
-211.449
 11
12.799
 21
-211.664
  0
LINE
  8
0
 10
12.799
 20
-211.664
 11
12.9095
 21
-211.901
  0
LINE
  8
0
 10
12.9095
 20
-211.901
 11
12.9772
 21
-212.153
  0
LINE
  8
0
 10
12.9772
 20
-212.153
 11
13
 21
-212.414
  0
LINE
  8
0
 10
13
 20
-212.414
 11
12.9772
 21
-212.674
  0
LINE
  8
0
 10
12.9772
 20
-212.674
 11
12.9095
 21
-212.927
  0
LINE
  8
0
 10
12.9095
 20
-212.927
 11
12.799
 21
-213.164
  0
LINE
  8
0
 10
12.799
 20
-213.164
 11
12.6491
 21
-213.378
  0
LINE
  8
0
 10
12.6491
 20
-213.378
 11
12.4642
 21
-213.563
  0
LINE
  8
0
 10
12.4642
 20
-213.563
 11
12.25
 21
-213.713
  0
LINE
  8
0
 10
12.25
 20
-213.713
 11
12.013
 21
-213.823
  0
LINE
  8
0
 10
12.013
 20
-213.823
 11
11.7605
 21
-213.891
  0
LINE
  8
0
 10
11.7605
 20
-213.891
 11
11.5
 21
-213.914
  0
LINE
  8
0
 10
11.5
 20
-213.914
 11
11.2395
 21
-213.891
  0
ENDSEC
  0
SECTION
  2
OBJECTS
  0
DICTIONARY
  0
ENDSEC
  0
EOF
